<svg viewBox="0 0 515.6666870117188 400" xmlns="http://www.w3.org/2000/svg"><g><g><g><g><g><line x1="80" y1="377" x2="75" y2="377" style="visibility: inherit;" fill="rgb(0, 0, 0)" stroke="rgb(204, 204, 204)" stroke-width="1px"></line><line x1="80" y1="329.875" x2="75" y2="329.875" style="visibility: inherit;" fill="rgb(0, 0, 0)" stroke="rgb(204, 204, 204)" stroke-width="1px"></line><line x1="80" y1="282.75" x2="75" y2="282.75" style="visibility: inherit;" fill="rgb(0, 0, 0)" stroke="rgb(204, 204, 204)" stroke-width="1px"></line><line x1="80" y1="235.625" x2="75" y2="235.625" style="visibility: inherit;" fill="rgb(0, 0, 0)" stroke="rgb(204, 204, 204)" stroke-width="1px"></line><line x1="80" y1="188.5" x2="75" y2="188.5" style="visibility: inherit;" fill="rgb(0, 0, 0)" stroke="rgb(204, 204, 204)" stroke-width="1px"></line><line x1="80" y1="141.375" x2="75" y2="141.375" style="visibility: inherit;" fill="rgb(0, 0, 0)" stroke="rgb(204, 204, 204)" stroke-width="1px"></line><line x1="80" y1="94.25" x2="75" y2="94.25" style="visibility: inherit;" fill="rgb(0, 0, 0)" stroke="rgb(204, 204, 204)" stroke-width="1px"></line><line x1="80" y1="47.125" x2="75" y2="47.125" style="visibility: inherit;" fill="rgb(0, 0, 0)" stroke="rgb(204, 204, 204)" stroke-width="1px"></line><line x1="80" y1="0" x2="75" y2="0" style="visibility: inherit;" fill="rgb(0, 0, 0)" stroke="rgb(204, 204, 204)" stroke-width="1px"></line></g><g transform="translate(70, 0)"><text x="0" y="377" dx="0em" dy="0.3em" style="text-anchor: end; visibility: hidden; font-family: Roboto, sans-serif; font-size: 12px; font-weight: 200;" fill="rgb(33, 33, 33)" stroke="none" stroke-width="1px">2.8e+3</text><text x="0" y="329.875" dx="0em" dy="0.3em" style="text-anchor: end; visibility: inherit; font-family: Roboto, sans-serif; font-size: 12px; font-weight: 200;" fill="rgb(33, 33, 33)" stroke="none" stroke-width="1px">2.85e+3</text><text x="0" y="282.75" dx="0em" dy="0.3em" style="text-anchor: end; visibility: inherit; font-family: Roboto, sans-serif; font-size: 12px; font-weight: 200;" fill="rgb(33, 33, 33)" stroke="none" stroke-width="1px">2.9e+3</text><text x="0" y="235.625" dx="0em" dy="0.3em" style="text-anchor: end; visibility: inherit; font-family: Roboto, sans-serif; font-size: 12px; font-weight: 200;" fill="rgb(33, 33, 33)" stroke="none" stroke-width="1px">2.95e+3</text><text x="0" y="188.5" dx="0em" dy="0.3em" style="text-anchor: end; visibility: inherit; font-family: Roboto, sans-serif; font-size: 12px; font-weight: 200;" fill="rgb(33, 33, 33)" stroke="none" stroke-width="1px">3e+3</text><text x="0" y="141.375" dx="0em" dy="0.3em" style="text-anchor: end; visibility: inherit; font-family: Roboto, sans-serif; font-size: 12px; font-weight: 200;" fill="rgb(33, 33, 33)" stroke="none" stroke-width="1px">3.05e+3</text><text x="0" y="94.25" dx="0em" dy="0.3em" style="text-anchor: end; visibility: inherit; font-family: Roboto, sans-serif; font-size: 12px; font-weight: 200;" fill="rgb(33, 33, 33)" stroke="none" stroke-width="1px">3.1e+3</text><text x="0" y="47.125" dx="0em" dy="0.3em" style="text-anchor: end; visibility: inherit; font-family: Roboto, sans-serif; font-size: 12px; font-weight: 200;" fill="rgb(33, 33, 33)" stroke="none" stroke-width="1px">3.15e+3</text><text x="0" y="0" dx="0em" dy="0.3em" style="text-anchor: end; visibility: hidden; font-family: Roboto, sans-serif; font-size: 12px; font-weight: 200;" fill="rgb(33, 33, 33)" stroke="none" stroke-width="1px">3.2e+3</text></g><line x1="80" y1="0" x2="80" y2="377" fill="rgb(0, 0, 0)" stroke="rgb(204, 204, 204)" stroke-width="1px"></line></g></g><g transform="translate(80, 0)" clip-path="url(#clip_0)"><clipPath id="clip_0"><rect width="435" height="377"></rect></clipPath><g><g><g><line x1="0" y1="0" x2="0" y2="377" fill="rgb(0, 0, 0)" stroke="rgb(66, 66, 66)" stroke-width="1px" opacity="0.25"></line><line x1="36.30558333333333" y1="0" x2="36.30558333333333" y2="377" fill="rgb(0, 0, 0)" stroke="rgb(66, 66, 66)" stroke-width="1px" opacity="0.25"></line><line x1="72.61116666666666" y1="0" x2="72.61116666666666" y2="377" fill="rgb(0, 0, 0)" stroke="rgb(66, 66, 66)" stroke-width="1px" opacity="0.25"></line><line x1="108.91675000000001" y1="0" x2="108.91675000000001" y2="377" fill="rgb(0, 0, 0)" stroke="rgb(66, 66, 66)" stroke-width="1px" opacity="0.25"></line><line x1="145.22233333333332" y1="0" x2="145.22233333333332" y2="377" fill="rgb(0, 0, 0)" stroke="rgb(66, 66, 66)" stroke-width="1px" opacity="0.25"></line><line x1="181.5279166666667" y1="0" x2="181.5279166666667" y2="377" fill="rgb(0, 0, 0)" stroke="rgb(66, 66, 66)" stroke-width="1px" opacity="0.25"></line><line x1="217.83350000000002" y1="0" x2="217.83350000000002" y2="377" fill="rgb(0, 0, 0)" stroke="rgb(66, 66, 66)" stroke-width="1px" opacity="0.25"></line><line x1="254.13908333333336" y1="0" x2="254.13908333333336" y2="377" fill="rgb(0, 0, 0)" stroke="rgb(66, 66, 66)" stroke-width="1px" opacity="0.25"></line><line x1="290.44466666666665" y1="0" x2="290.44466666666665" y2="377" fill="rgb(0, 0, 0)" stroke="rgb(66, 66, 66)" stroke-width="1px" opacity="0.25"></line><line x1="326.75025000000005" y1="0" x2="326.75025000000005" y2="377" fill="rgb(0, 0, 0)" stroke="rgb(66, 66, 66)" stroke-width="1px" opacity="0.25"></line><line x1="363.0558333333334" y1="0" x2="363.0558333333334" y2="377" fill="rgb(0, 0, 0)" stroke="rgb(66, 66, 66)" stroke-width="1px" opacity="0.25"></line><line x1="399.3614166666667" y1="0" x2="399.3614166666667" y2="377" fill="rgb(0, 0, 0)" stroke="rgb(66, 66, 66)" stroke-width="1px" opacity="0.25"></line><line x1="435.66700000000003" y1="0" x2="435.66700000000003" y2="377" fill="rgb(0, 0, 0)" stroke="rgb(66, 66, 66)" stroke-width="1px" opacity="0.25"></line></g><g><line x1="0" y1="377" x2="435.66700000000003" y2="377" fill="rgb(0, 0, 0)" stroke="rgb(66, 66, 66)" stroke-width="1px" opacity="0.25"></line><line x1="0" y1="329.875" x2="435.66700000000003" y2="329.875" fill="rgb(0, 0, 0)" stroke="rgb(66, 66, 66)" stroke-width="1px" opacity="0.25"></line><line x1="0" y1="282.75" x2="435.66700000000003" y2="282.75" fill="rgb(0, 0, 0)" stroke="rgb(66, 66, 66)" stroke-width="1px" opacity="0.25"></line><line x1="0" y1="235.625" x2="435.66700000000003" y2="235.625" fill="rgb(0, 0, 0)" stroke="rgb(66, 66, 66)" stroke-width="1px" opacity="0.25"></line><line x1="0" y1="188.5" x2="435.66700000000003" y2="188.5" fill="rgb(0, 0, 0)" stroke="rgb(66, 66, 66)" stroke-width="1px" opacity="0.25"></line><line x1="0" y1="141.375" x2="435.66700000000003" y2="141.375" fill="rgb(0, 0, 0)" stroke="rgb(66, 66, 66)" stroke-width="1px" opacity="0.25"></line><line x1="0" y1="94.25" x2="435.66700000000003" y2="94.25" fill="rgb(0, 0, 0)" stroke="rgb(66, 66, 66)" stroke-width="1px" opacity="0.25"></line><line x1="0" y1="47.125" x2="435.66700000000003" y2="47.125" fill="rgb(0, 0, 0)" stroke="rgb(66, 66, 66)" stroke-width="1px" opacity="0.25"></line><line x1="0" y1="0" x2="435.66700000000003" y2="0" fill="rgb(0, 0, 0)" stroke="rgb(66, 66, 66)" stroke-width="1px" opacity="0.25"></line></g></g></g><g><g><line x1="0" y1="3016" x2="435.66700000000003" y2="3016" fill="rgb(0, 0, 0)" stroke="rgb(153, 153, 153)" stroke-width="1.5px"></line></g></g><g><g><line x1="36.30558333333333" y1="0" x2="36.30558333333333" y2="377" fill="rgb(0, 0, 0)" stroke="rgb(153, 153, 153)" stroke-width="1.5px"></line></g></g><g><g><g><g><g><path stroke="rgb(255, 112, 67)" stroke-width="2px" d="M40.02327506666667,347.78249999999997L43.7409668,315.38406249999997L47.458658533333335,266.5159183673468L51.17635026666667,233.6949540441174L54.894042000000006,197.7412092297013L58.61173373333334,167.36866407089116L62.32942546666668,155.5081808185628L66.04711720000002,138.63856370292447L69.76480893333333,122.60657269005232L73.48250066666667,111.95352873093425L77.2001924,99.92748711361989L80.91788413333335,89.33944440382831L84.63557586666667,79.60395141279167L88.35326760000001,68.48866044281954L92.07095933333335,58.80764439731194L95.78865106666667,49.60799131514177L99.5063428,43.71279692960781L103.22403453333334,36.78297436528538L106.94172626666668,32.248508307065414L110.659418,32.54411579211739L114.37710973333334,30.45942374348403L118.09480146666668,28.07762289642171L121.81249320000002,27.025565429437545L125.53018493333335,27.90234341217092L129.24787666666668,29.18240968656721L132.96556840000002,31.081449051354692L136.68326013333333,32.59787098285541L140.40095186666667,35.01572407450272L144.1186436,35.712434701409244L147.83633533333332,36.884461079949986L151.55402706666666,36.07967654121993L155.2717188,35.21980585629804L158.98941053333334,35.45788352514696L162.70710226666668,34.09273007597514L166.42479400000002,32.89663802502337L170.14248573333336,31.801982803723263L173.8601774666667,30.768189675835917L177.5778692,30.90191380599805L181.29556093333335,31.73614828545758L185.0132526666667,30.728688969927795L188.7309444,30.50121338177419L192.44863613333334,29.610728028635908L196.16632786666668,28.69943681691846L199.88401960000002,27.02166208986008L203.60171133333336,26.39199725385063L207.31940306666667,25.63719835226299L211.0370948,24.43031901131279L214.75478653333334,24.083191406780124L218.47247826666666,25.759914844090687L222.19017000000002,26.011948906455878L225.90786173333333,25.409169343870957L229.6255534666667,25.04750160632136L233.3432452,24.830500963792154L237.06093693333335,25.077300578275896L240.77862866666666,24.848380346965538L244.49632040000003,23.95702820817882L248.21401213333334,23.045216924907123L251.9317038666667,24.00613015494436L255.64939560000002,24.205678092966448L259.36708733333336,23.94840685577987L263.08477906666667,24.17104411346792L266.80247080000004,25.43562646808119L270.52016253333335,25.4403758808487L274.23785426666666,26.951225528509045L277.955546,27.480735317105413L281.67323773333334,27.42144119026308L285.3909294666667,27.385864714158018L289.1086212,27.36451882849498L292.8263129333334,27.351711297096745L296.5440046666667,26.967026778257956L300.26169640000006,26.736216066954416L303.9793881333334,26.597729640172727L307.6970798666667,26.89163778410331L311.4147716,26.69098267046242L315.13246333333336,26.193589602277278L318.8501550666667,25.895153761366192L322.5678468,26.4700922568198L326.28553853333335,27.192055354092034L330.00323026666666,28.379233212455322L333.72092200000003,28.71453992747318L337.43861373333334,29.292723956483986L341.1563054666667,29.262634373890325L344.8739972,30.375580624334198L348.5916889333334,31.420348374600323L352.3093806666667,33.178209024760385L356.02707240000007,36.117925414856394L359.7447641333334,39.01275524891382L363.4624558666667,41.12665314934837L367.1801476,44.65699188960911L370.89783933333337,47.15219513376557L374.6155310666667,49.026317080259574L378.3332228,50.90479024815575L382.05091453333335,52.03187414889344L385.76860626666667,53.08512448933605L389.48629800000003,54.09407469360146L393.20398973333334,54.6994448161609L396.9216814666667,55.81666688969617" style="fill: none;" fill="none"></path></g></g></g></g><g opacity="0.2"><g><g><g><path stroke="rgb(255, 112, 67)" stroke-width="2px" d="M40.02327506666667,347.78249999999997L43.7409668,295.945L47.458658533333335,219.60250000000002L51.17635026666667,195.09750000000003L54.894042000000006,150.8L58.61173373333334,125.3525L62.32942546666668,138.5475L66.04711720000002,114.04249999999999L69.76480893333333,98.96249999999998L73.48250066666667,96.135L77.2001924,81.99750000000002L80.91788413333335,73.51499999999999L84.63557586666667,65.0325L88.35326760000001,51.837499999999984L92.07095933333335,44.29750000000002L95.78865106666667,35.81499999999999L99.5063428,34.87250000000001L103.22403453333334,26.389999999999983L106.94172626666668,25.4475L110.659418,32.98750000000001L114.37710973333334,27.332500000000003L118.09480146666668,24.50499999999998L121.81249320000002,25.4475L125.53018493333335,29.217500000000005L129.24787666666668,31.102500000000006L132.96556840000002,33.929999999999986L136.68326013333333,34.87250000000001L140.40095186666667,38.64250000000001L144.1186436,36.757500000000014L147.83633533333332,38.64250000000001L151.55402706666666,34.87250000000001L155.2717188,33.929999999999986L158.98941053333334,35.81499999999999L162.70710226666668,32.04499999999999L166.42479400000002,31.102500000000006L170.14248573333336,30.159999999999986L173.8601774666667,29.217500000000005L177.5778692,31.102500000000006L181.29556093333335,32.98750000000001L185.0132526666667,29.217500000000005L188.7309444,30.159999999999986L192.44863613333334,28.274999999999984L196.16632786666668,27.332500000000003L199.88401960000002,24.50499999999998L203.60171133333336,25.4475L207.31940306666667,24.50499999999998L211.0370948,22.62000000000002L214.75478653333334,23.5625L218.47247826666666,28.274999999999984L222.19017000000002,26.389999999999983L225.90786173333333,24.50499999999998L229.6255534666667,24.50499999999998L233.3432452,24.50499999999998L237.06093693333335,25.4475L240.77862866666666,24.50499999999998L244.49632040000003,22.62000000000002L248.21401213333334,21.6775L251.9317038666667,25.4475L255.64939560000002,24.50499999999998L259.36708733333336,23.5625L263.08477906666667,24.50499999999998L266.80247080000004,27.332500000000003L270.52016253333335,25.4475L274.23785426666666,29.217500000000005L277.955546,28.274999999999984L281.67323773333334,27.332500000000003L285.3909294666667,27.332500000000003L289.1086212,27.332500000000003L292.8263129333334,27.332500000000003L296.5440046666667,26.389999999999983L300.26169640000006,26.389999999999983L303.9793881333334,26.389999999999983L307.6970798666667,27.332500000000003L311.4147716,26.389999999999983L315.13246333333336,25.4475L318.8501550666667,25.4475L322.5678468,27.332500000000003L326.28553853333335,28.274999999999984L330.00323026666666,30.159999999999986L333.72092200000003,29.217500000000005L337.43861373333334,30.159999999999986L341.1563054666667,29.217500000000005L344.8739972,32.04499999999999L348.5916889333334,32.98750000000001L352.3093806666667,35.81499999999999L356.02707240000007,40.52750000000002L359.7447641333334,43.355L363.4624558666667,44.29750000000002L367.1801476,49.95249999999998L370.89783933333337,50.895L374.6155310666667,51.837499999999984L378.3332228,53.72249999999998L382.05091453333335,53.72249999999998L385.76860626666667,54.665000000000006L389.48629800000003,55.60749999999999L393.20398973333334,55.60749999999999L396.9216814666667,57.492499999999986" style="fill: none;" fill="none"></path></g></g></g></g></g><g><g opacity="0.34081"><span fill="rgb(0, 0, 0)" stroke="none" stroke-width="1px">Alt + Scroll to Zoom</span></g></g></g><g transform="translate(80, 377)" clip-path="url(#clip_1)"><clipPath id="clip_1"><rect width="435" height="23"></rect></clipPath><g><g><line x1="0" y1="0" x2="0" y2="5" style="visibility: inherit;" fill="rgb(0, 0, 0)" stroke="rgb(204, 204, 204)" stroke-width="1px"></line><line x1="36.30558333333333" y1="0" x2="36.30558333333333" y2="5" style="visibility: inherit;" fill="rgb(0, 0, 0)" stroke="rgb(204, 204, 204)" stroke-width="1px"></line><line x1="72.61116666666666" y1="0" x2="72.61116666666666" y2="5" style="visibility: inherit;" fill="rgb(0, 0, 0)" stroke="rgb(204, 204, 204)" stroke-width="1px"></line><line x1="108.91675000000001" y1="0" x2="108.91675000000001" y2="5" style="visibility: inherit;" fill="rgb(0, 0, 0)" stroke="rgb(204, 204, 204)" stroke-width="1px"></line><line x1="145.22233333333332" y1="0" x2="145.22233333333332" y2="5" style="visibility: inherit;" fill="rgb(0, 0, 0)" stroke="rgb(204, 204, 204)" stroke-width="1px"></line><line x1="181.5279166666667" y1="0" x2="181.5279166666667" y2="5" style="visibility: inherit;" fill="rgb(0, 0, 0)" stroke="rgb(204, 204, 204)" stroke-width="1px"></line><line x1="217.83350000000002" y1="0" x2="217.83350000000002" y2="5" style="visibility: inherit;" fill="rgb(0, 0, 0)" stroke="rgb(204, 204, 204)" stroke-width="1px"></line><line x1="254.13908333333336" y1="0" x2="254.13908333333336" y2="5" style="visibility: inherit;" fill="rgb(0, 0, 0)" stroke="rgb(204, 204, 204)" stroke-width="1px"></line><line x1="290.44466666666665" y1="0" x2="290.44466666666665" y2="5" style="visibility: inherit;" fill="rgb(0, 0, 0)" stroke="rgb(204, 204, 204)" stroke-width="1px"></line><line x1="326.75025000000005" y1="0" x2="326.75025000000005" y2="5" style="visibility: inherit;" fill="rgb(0, 0, 0)" stroke="rgb(204, 204, 204)" stroke-width="1px"></line><line x1="363.0558333333334" y1="0" x2="363.0558333333334" y2="5" style="visibility: inherit;" fill="rgb(0, 0, 0)" stroke="rgb(204, 204, 204)" stroke-width="1px"></line><line x1="399.3614166666667" y1="0" x2="399.3614166666667" y2="5" style="visibility: inherit;" fill="rgb(0, 0, 0)" stroke="rgb(204, 204, 204)" stroke-width="1px"></line><line x1="435.66700000000003" y1="0" x2="435.66700000000003" y2="5" style="visibility: inherit;" fill="rgb(0, 0, 0)" stroke="rgb(204, 204, 204)" stroke-width="1px"></line></g><g transform="translate(0, 8)"><text x="0" y="0" dx="0em" dy="0.95em" style="text-anchor: middle; visibility: hidden; font-family: Roboto, sans-serif; font-size: 12px; font-weight: 200;" fill="rgb(33, 33, 33)" stroke="none" stroke-width="1px">-5k</text><text x="36.30558333333333" y="0" dx="0em" dy="0.95em" style="text-anchor: middle; visibility: inherit; font-family: Roboto, sans-serif; font-size: 12px; font-weight: 200;" fill="rgb(33, 33, 33)" stroke="none" stroke-width="1px">0</text><text x="72.61116666666666" y="0" dx="0em" dy="0.95em" style="text-anchor: middle; visibility: inherit; font-family: Roboto, sans-serif; font-size: 12px; font-weight: 200;" fill="rgb(33, 33, 33)" stroke="none" stroke-width="1px">5k</text><text x="108.91675000000001" y="0" dx="0em" dy="0.95em" style="text-anchor: middle; visibility: inherit; font-family: Roboto, sans-serif; font-size: 12px; font-weight: 200;" fill="rgb(33, 33, 33)" stroke="none" stroke-width="1px">10k</text><text x="145.22233333333332" y="0" dx="0em" dy="0.95em" style="text-anchor: middle; visibility: inherit; font-family: Roboto, sans-serif; font-size: 12px; font-weight: 200;" fill="rgb(33, 33, 33)" stroke="none" stroke-width="1px">15k</text><text x="181.5279166666667" y="0" dx="0em" dy="0.95em" style="text-anchor: middle; visibility: inherit; font-family: Roboto, sans-serif; font-size: 12px; font-weight: 200;" fill="rgb(33, 33, 33)" stroke="none" stroke-width="1px">20k</text><text x="217.83350000000002" y="0" dx="0em" dy="0.95em" style="text-anchor: middle; visibility: inherit; font-family: Roboto, sans-serif; font-size: 12px; font-weight: 200;" fill="rgb(33, 33, 33)" stroke="none" stroke-width="1px">25k</text><text x="254.13908333333336" y="0" dx="0em" dy="0.95em" style="text-anchor: middle; visibility: inherit; font-family: Roboto, sans-serif; font-size: 12px; font-weight: 200;" fill="rgb(33, 33, 33)" stroke="none" stroke-width="1px">30k</text><text x="290.44466666666665" y="0" dx="0em" dy="0.95em" style="text-anchor: middle; visibility: inherit; font-family: Roboto, sans-serif; font-size: 12px; font-weight: 200;" fill="rgb(33, 33, 33)" stroke="none" stroke-width="1px">35k</text><text x="326.75025000000005" y="0" dx="0em" dy="0.95em" style="text-anchor: middle; visibility: inherit; font-family: Roboto, sans-serif; font-size: 12px; font-weight: 200;" fill="rgb(33, 33, 33)" stroke="none" stroke-width="1px">40k</text><text x="363.0558333333334" y="0" dx="0em" dy="0.95em" style="text-anchor: middle; visibility: inherit; font-family: Roboto, sans-serif; font-size: 12px; font-weight: 200;" fill="rgb(33, 33, 33)" stroke="none" stroke-width="1px">45k</text><text x="399.3614166666667" y="0" dx="0em" dy="0.95em" style="text-anchor: middle; visibility: inherit; font-family: Roboto, sans-serif; font-size: 12px; font-weight: 200;" fill="rgb(33, 33, 33)" stroke="none" stroke-width="1px">50k</text><text x="435.66700000000003" y="0" dx="0em" dy="0.95em" style="text-anchor: middle; visibility: hidden; font-family: Roboto, sans-serif; font-size: 12px; font-weight: 200;" fill="rgb(33, 33, 33)" stroke="none" stroke-width="1px">55k</text></g><line x1="0" y1="0" x2="435.66700000000003" y2="0" fill="rgb(0, 0, 0)" stroke="rgb(204, 204, 204)" stroke-width="1px"></line></g></g></g></g></svg>