<svg viewBox="0 0 515.6666870117188 400" xmlns="http://www.w3.org/2000/svg"><g><g><g><g><g><line x1="40" y1="377" x2="35" y2="377" style="visibility: inherit;" fill="rgb(0, 0, 0)" stroke="rgb(204, 204, 204)" stroke-width="1px"></line><line x1="40" y1="342.7272727272727" x2="35" y2="342.7272727272727" style="visibility: inherit;" fill="rgb(0, 0, 0)" stroke="rgb(204, 204, 204)" stroke-width="1px"></line><line x1="40" y1="308.45454545454544" x2="35" y2="308.45454545454544" style="visibility: inherit;" fill="rgb(0, 0, 0)" stroke="rgb(204, 204, 204)" stroke-width="1px"></line><line x1="40" y1="274.1818181818182" x2="35" y2="274.1818181818182" style="visibility: inherit;" fill="rgb(0, 0, 0)" stroke="rgb(204, 204, 204)" stroke-width="1px"></line><line x1="40" y1="239.9090909090909" x2="35" y2="239.9090909090909" style="visibility: inherit;" fill="rgb(0, 0, 0)" stroke="rgb(204, 204, 204)" stroke-width="1px"></line><line x1="40" y1="205.63636363636363" x2="35" y2="205.63636363636363" style="visibility: inherit;" fill="rgb(0, 0, 0)" stroke="rgb(204, 204, 204)" stroke-width="1px"></line><line x1="40" y1="171.36363636363637" x2="35" y2="171.36363636363637" style="visibility: inherit;" fill="rgb(0, 0, 0)" stroke="rgb(204, 204, 204)" stroke-width="1px"></line><line x1="40" y1="137.0909090909091" x2="35" y2="137.0909090909091" style="visibility: inherit;" fill="rgb(0, 0, 0)" stroke="rgb(204, 204, 204)" stroke-width="1px"></line><line x1="40" y1="102.81818181818181" x2="35" y2="102.81818181818181" style="visibility: inherit;" fill="rgb(0, 0, 0)" stroke="rgb(204, 204, 204)" stroke-width="1px"></line><line x1="40" y1="68.54545454545453" x2="35" y2="68.54545454545453" style="visibility: inherit;" fill="rgb(0, 0, 0)" stroke="rgb(204, 204, 204)" stroke-width="1px"></line><line x1="40" y1="34.27272727272729" x2="35" y2="34.27272727272729" style="visibility: inherit;" fill="rgb(0, 0, 0)" stroke="rgb(204, 204, 204)" stroke-width="1px"></line><line x1="40" y1="0" x2="35" y2="0" style="visibility: inherit;" fill="rgb(0, 0, 0)" stroke="rgb(204, 204, 204)" stroke-width="1px"></line></g><g transform="translate(30, 0)"><text x="0" y="377" dx="0em" dy="0.3em" style="text-anchor: end; visibility: hidden; font-family: Roboto, sans-serif; font-size: 12px; font-weight: 200;" fill="rgb(33, 33, 33)" stroke="none" stroke-width="1px">60</text><text x="0" y="342.7272727272727" dx="0em" dy="0.3em" style="text-anchor: end; visibility: inherit; font-family: Roboto, sans-serif; font-size: 12px; font-weight: 200;" fill="rgb(33, 33, 33)" stroke="none" stroke-width="1px">65</text><text x="0" y="308.45454545454544" dx="0em" dy="0.3em" style="text-anchor: end; visibility: inherit; font-family: Roboto, sans-serif; font-size: 12px; font-weight: 200;" fill="rgb(33, 33, 33)" stroke="none" stroke-width="1px">70</text><text x="0" y="274.1818181818182" dx="0em" dy="0.3em" style="text-anchor: end; visibility: inherit; font-family: Roboto, sans-serif; font-size: 12px; font-weight: 200;" fill="rgb(33, 33, 33)" stroke="none" stroke-width="1px">75</text><text x="0" y="239.9090909090909" dx="0em" dy="0.3em" style="text-anchor: end; visibility: inherit; font-family: Roboto, sans-serif; font-size: 12px; font-weight: 200;" fill="rgb(33, 33, 33)" stroke="none" stroke-width="1px">80</text><text x="0" y="205.63636363636363" dx="0em" dy="0.3em" style="text-anchor: end; visibility: inherit; font-family: Roboto, sans-serif; font-size: 12px; font-weight: 200;" fill="rgb(33, 33, 33)" stroke="none" stroke-width="1px">85</text><text x="0" y="171.36363636363637" dx="0em" dy="0.3em" style="text-anchor: end; visibility: inherit; font-family: Roboto, sans-serif; font-size: 12px; font-weight: 200;" fill="rgb(33, 33, 33)" stroke="none" stroke-width="1px">90</text><text x="0" y="137.0909090909091" dx="0em" dy="0.3em" style="text-anchor: end; visibility: inherit; font-family: Roboto, sans-serif; font-size: 12px; font-weight: 200;" fill="rgb(33, 33, 33)" stroke="none" stroke-width="1px">95</text><text x="0" y="102.81818181818181" dx="0em" dy="0.3em" style="text-anchor: end; visibility: inherit; font-family: Roboto, sans-serif; font-size: 12px; font-weight: 200;" fill="rgb(33, 33, 33)" stroke="none" stroke-width="1px">100</text><text x="0" y="68.54545454545453" dx="0em" dy="0.3em" style="text-anchor: end; visibility: inherit; font-family: Roboto, sans-serif; font-size: 12px; font-weight: 200;" fill="rgb(33, 33, 33)" stroke="none" stroke-width="1px">105</text><text x="0" y="34.27272727272729" dx="0em" dy="0.3em" style="text-anchor: end; visibility: inherit; font-family: Roboto, sans-serif; font-size: 12px; font-weight: 200;" fill="rgb(33, 33, 33)" stroke="none" stroke-width="1px">110</text><text x="0" y="0" dx="0em" dy="0.3em" style="text-anchor: end; visibility: hidden; font-family: Roboto, sans-serif; font-size: 12px; font-weight: 200;" fill="rgb(33, 33, 33)" stroke="none" stroke-width="1px">115</text></g><line x1="40" y1="0" x2="40" y2="377" fill="rgb(0, 0, 0)" stroke="rgb(204, 204, 204)" stroke-width="1px"></line></g></g><g transform="translate(40, 0)" clip-path="url(#clip_0)"><clipPath id="clip_0"><rect width="475" height="377"></rect></clipPath><g><g><g><line x1="0" y1="0" x2="0" y2="377" fill="rgb(0, 0, 0)" stroke="rgb(66, 66, 66)" stroke-width="1px" opacity="0.25"></line><line x1="39.63891666666667" y1="0" x2="39.63891666666667" y2="377" fill="rgb(0, 0, 0)" stroke="rgb(66, 66, 66)" stroke-width="1px" opacity="0.25"></line><line x1="79.27783333333333" y1="0" x2="79.27783333333333" y2="377" fill="rgb(0, 0, 0)" stroke="rgb(66, 66, 66)" stroke-width="1px" opacity="0.25"></line><line x1="118.91675000000001" y1="0" x2="118.91675000000001" y2="377" fill="rgb(0, 0, 0)" stroke="rgb(66, 66, 66)" stroke-width="1px" opacity="0.25"></line><line x1="158.55566666666667" y1="0" x2="158.55566666666667" y2="377" fill="rgb(0, 0, 0)" stroke="rgb(66, 66, 66)" stroke-width="1px" opacity="0.25"></line><line x1="198.19458333333336" y1="0" x2="198.19458333333336" y2="377" fill="rgb(0, 0, 0)" stroke="rgb(66, 66, 66)" stroke-width="1px" opacity="0.25"></line><line x1="237.83350000000002" y1="0" x2="237.83350000000002" y2="377" fill="rgb(0, 0, 0)" stroke="rgb(66, 66, 66)" stroke-width="1px" opacity="0.25"></line><line x1="277.4724166666667" y1="0" x2="277.4724166666667" y2="377" fill="rgb(0, 0, 0)" stroke="rgb(66, 66, 66)" stroke-width="1px" opacity="0.25"></line><line x1="317.11133333333333" y1="0" x2="317.11133333333333" y2="377" fill="rgb(0, 0, 0)" stroke="rgb(66, 66, 66)" stroke-width="1px" opacity="0.25"></line><line x1="356.75025000000005" y1="0" x2="356.75025000000005" y2="377" fill="rgb(0, 0, 0)" stroke="rgb(66, 66, 66)" stroke-width="1px" opacity="0.25"></line><line x1="396.3891666666667" y1="0" x2="396.3891666666667" y2="377" fill="rgb(0, 0, 0)" stroke="rgb(66, 66, 66)" stroke-width="1px" opacity="0.25"></line><line x1="436.02808333333337" y1="0" x2="436.02808333333337" y2="377" fill="rgb(0, 0, 0)" stroke="rgb(66, 66, 66)" stroke-width="1px" opacity="0.25"></line><line x1="475.66700000000003" y1="0" x2="475.66700000000003" y2="377" fill="rgb(0, 0, 0)" stroke="rgb(66, 66, 66)" stroke-width="1px" opacity="0.25"></line></g><g><line x1="0" y1="377" x2="475.66700000000003" y2="377" fill="rgb(0, 0, 0)" stroke="rgb(66, 66, 66)" stroke-width="1px" opacity="0.25"></line><line x1="0" y1="342.7272727272727" x2="475.66700000000003" y2="342.7272727272727" fill="rgb(0, 0, 0)" stroke="rgb(66, 66, 66)" stroke-width="1px" opacity="0.25"></line><line x1="0" y1="308.45454545454544" x2="475.66700000000003" y2="308.45454545454544" fill="rgb(0, 0, 0)" stroke="rgb(66, 66, 66)" stroke-width="1px" opacity="0.25"></line><line x1="0" y1="274.1818181818182" x2="475.66700000000003" y2="274.1818181818182" fill="rgb(0, 0, 0)" stroke="rgb(66, 66, 66)" stroke-width="1px" opacity="0.25"></line><line x1="0" y1="239.9090909090909" x2="475.66700000000003" y2="239.9090909090909" fill="rgb(0, 0, 0)" stroke="rgb(66, 66, 66)" stroke-width="1px" opacity="0.25"></line><line x1="0" y1="205.63636363636363" x2="475.66700000000003" y2="205.63636363636363" fill="rgb(0, 0, 0)" stroke="rgb(66, 66, 66)" stroke-width="1px" opacity="0.25"></line><line x1="0" y1="171.36363636363637" x2="475.66700000000003" y2="171.36363636363637" fill="rgb(0, 0, 0)" stroke="rgb(66, 66, 66)" stroke-width="1px" opacity="0.25"></line><line x1="0" y1="137.0909090909091" x2="475.66700000000003" y2="137.0909090909091" fill="rgb(0, 0, 0)" stroke="rgb(66, 66, 66)" stroke-width="1px" opacity="0.25"></line><line x1="0" y1="102.81818181818181" x2="475.66700000000003" y2="102.81818181818181" fill="rgb(0, 0, 0)" stroke="rgb(66, 66, 66)" stroke-width="1px" opacity="0.25"></line><line x1="0" y1="68.54545454545453" x2="475.66700000000003" y2="68.54545454545453" fill="rgb(0, 0, 0)" stroke="rgb(66, 66, 66)" stroke-width="1px" opacity="0.25"></line><line x1="0" y1="34.27272727272729" x2="475.66700000000003" y2="34.27272727272729" fill="rgb(0, 0, 0)" stroke="rgb(66, 66, 66)" stroke-width="1px" opacity="0.25"></line><line x1="0" y1="0" x2="475.66700000000003" y2="0" fill="rgb(0, 0, 0)" stroke="rgb(66, 66, 66)" stroke-width="1px" opacity="0.25"></line></g></g></g><g><g><line x1="0" y1="788.2727272727273" x2="475.66700000000003" y2="788.2727272727273" fill="rgb(0, 0, 0)" stroke="rgb(153, 153, 153)" stroke-width="1.5px"></line></g></g><g><g><line x1="39.63891666666667" y1="0" x2="39.63891666666667" y2="377" fill="rgb(0, 0, 0)" stroke="rgb(153, 153, 153)" stroke-width="1.5px"></line></g></g><g><g><g><g><g><path stroke="rgb(255, 112, 67)" stroke-width="2px" d="M43.69794173333334,44.37271215265446L47.75696680000001,151.5831722953102L51.815991866666664,82.38867196842104L55.875016933333335,112.59538001759161L59.934042000000005,155.6452776645051L63.993067066666676,102.83555931623599L68.05209213333335,131.5360072924494L72.11111720000001,151.07633533855653L76.17014226666667,112.77372183775948L80.22916733333334,161.84618021349368L84.2881924,150.02383678959478L88.34721746666668,116.58797922862055L92.40624253333334,176.3547875664612L96.4652676,129.6737578828107L100.52429266666668,137.58844839946136L104.58331773333333,177.68939915944233L108.64234280000001,143.69064504051136L112.70136786666667,167.02759741182044L116.76039293333334,204.401086425204L120.81941800000001,159.277476296509L124.87844306666668,195.67933477200899L128.93746813333334,210.47048736372605L132.9964932,184.37011258519414L137.0555182666667,242.71314583815013L141.11454333333336,199.0324498741426L145.17356840000002,170.02480501971465L149.23259346666666,239.61796699055873L153.29161853333332,183.7764779358689L157.3506436,198.96226298448642L161.40966866666668,249.65962763225713L165.46869373333334,210.20952767198304L169.5277188,258.3591858449703L173.58674386666667,284.9141068024643L177.64576893333336,238.59618270292398L181.70479400000002,276.52116741593466L185.76381906666668,263.1920211572488L189.82284413333335,218.80162027874104L193.8818692,282.6775446145667L197.9408942666667,235.4548447565716L201.99991933333337,233.3626414591895L206.0589444,281.11524859900544L210.11796946666666,250.86050007479753L214.17699453333333,259.1651128580007L218.23601960000002,302.79672927132054L222.29504466666668,252.18913258372154L226.35406973333335,305.47094753784216L230.4130948,315.236292000521L234.47211986666667,277.61254074678675L238.53114493333334,313.06102991951906L242.59017000000003,291.93644999388795L246.64919506666666,258.502269332552L250.70822013333336,306.3096576368241L254.7672452,263.22507730796025L258.8262702666667,268.004658700566L262.8852953333333,310.2227343239262L266.94432040000004,281.1704866858753L271.0033454666667,314.8286793406343L275.06237053333336,350.8505077752839L279.1213956,308.75390157789775L283.1804206666667,339.6944143942278L287.23944573333335,331.51086033975025L291.2984708,292.64242529475854L295.3574958666667,332.8790011252309L299.41652093333335,289.4767205215516L303.475546,281.70061977076114L307.5345710666667,334.298768774078L311.59359613333334,301.3757830928381L315.6526212,304.0051743345736L319.7116462666667,337.3716108207814L323.7706713333333,297.08572861072156L327.82969640000005,336.57883382281614L331.88872146666665,355.3999851192401L335.9477465333334,317.2414229008232L340.00677160000004,339.75939589359234L344.0657966666667,320.40667358018953L348.12482173333336,298.34591654601854L352.18384679999997,333.7403265555852L356.2428718666667,304.9376088528291L360.30189693333335,316.9113405580576L364.360922,352.2227177814343L368.4199470666667,319.9050035159842L372.47897213333334,341.9329888760589L376.5379972,348.51051648126395L380.5970222666667,309.77985236922717L384.65604733333333,349.2847264961101L388.71507240000005,351.93943957975057L392.77409746666666,311.53058413581203L396.8331225333334,356.5160335314695L400.89214760000004,318.30605433408056L404.9511726666667,293.32460267102715L409.01019773333337,350.7291177649476L413.0692228,316.1586888652008L417.1282478666667,332.5496052979912L421.18727293333336,351.79998243372194L425.246298,316.4825365682765L429.3053230666667,340.39327538112923L433.36434813333335,354.8414972055508" style="fill: none;" fill="none"></path></g></g></g></g><g opacity="0.2"><g><g><g><path stroke="rgb(255, 112, 67)" stroke-width="2px" d="M43.69794173333334,44.37271215265446L47.75696680000001,215.90944838090374L51.815991866666664,15.961951654607608L55.875016933333335,148.1184686834162L59.934042000000005,211.85122403231534L63.993067066666676,29.78070734197445L68.05209213333335,172.57810710560193L72.11111720000001,179.56632121693005L76.17014226666667,56.284806823730484L80.22916733333334,234.71306180087007L84.2881924,132.39754943847657L88.34721746666668,66.6161493474787L92.40624253333334,265.8098510742187L96.4652676,59.7436663540927L100.52429266666668,149.45118075284088L104.58331773333333,237.8125430020419L108.64234280000001,92.70690099542792L112.70136786666667,202.0271007191051L116.76039293333334,260.45562647039236L120.81941800000001,91.59618558016692L124.87844306666668,250.28012612082742L128.93746813333334,232.65672954212536L132.9964932,145.22006572376597L137.0555182666667,330.227004588734L141.11454333333336,133.5117163918235L145.17356840000002,126.51346144242719L149.23259346666666,344.0075318769975L153.29161853333332,100.01433008367366L157.3506436,221.74092656915838L161.40966866666668,325.70564658425076L165.46869373333334,151.0343908136541L169.5277188,330.5836635242809L173.58674386666667,324.7464850685813L177.64576893333336,169.11929987127132L181.70479400000002,333.40864285555756L185.76381906666668,243.19830211292614L189.82284413333335,152.21601964777165L193.8818692,378.4914305253463L197.9408942666667,164.62079523259945L201.99991933333337,230.22433652010832L206.0589444,352.7441592129794L210.11796946666666,205.47837732488458L214.17699453333333,271.6220320268111L218.23601960000002,368.2441538724032L222.29504466666668,176.27773756547407L226.35406973333335,385.39366996071556L230.4130948,329.8843086936257L234.47211986666667,221.17691386829722L238.53114493333334,366.23376367742367L242.59017000000003,260.24958010586823L246.64919506666666,208.35099834095348L250.70822013333336,378.02074009288435L254.7672452,198.59820681485266L258.8262702666667,275.174030789462L262.8852953333333,373.5498477589L266.94432040000004,237.59211522882634L271.0033454666667,365.3159683227539L275.06237053333336,404.88325042724614L279.1213956,245.60899228182703L283.1804206666667,386.10518361871897L287.23944573333335,319.23552925803443L291.2984708,234.33977272727273L295.3574958666667,393.23386487093836L299.41652093333335,224.3732996160334L303.475546,270.0364686445756L307.5345710666667,413.1959922790527L311.59359613333334,251.99130457097834L315.6526212,307.94926119717684L319.7116462666667,387.4212655500932L323.7706713333333,236.65690529563213L327.82969640000005,395.8184916409579L331.88872146666665,383.6317120638761L335.9477465333334,260.0035795731978L340.00677160000004,373.5363553827459L344.0657966666667,291.3775901100852L348.12482173333336,265.2547809947621L352.18384679999997,386.8319415699352L356.2428718666667,261.73353229869497L360.30189693333335,334.8719381159002L364.360922,405.1897836164995L368.4199470666667,271.42843211780894L372.47897213333334,374.97496691617096L376.5379972,358.37680788907136L380.5970222666667,251.68385620117186L384.65604733333333,408.54203768643464L388.71507240000005,355.9215092052113L392.77409746666666,250.91730096990415L396.8331225333334,423.99420762495566L400.89214760000004,260.99108553799715L404.9511726666667,255.85242517644707L409.01019773333337,436.83589040582837L413.0692228,264.30304551558066L417.1282478666667,357.13597994717685L421.18727293333336,380.67554813731795L425.246298,263.50636777010834L429.3053230666667,376.2593836004084L433.36434813333335,376.51382994218307" style="fill: none;" fill="none"></path></g></g></g></g></g><g><g opacity="0.0749261"><span fill="rgb(0, 0, 0)" stroke="none" stroke-width="1px">Alt + Scroll to Zoom</span></g></g></g><g transform="translate(40, 377)" clip-path="url(#clip_1)"><clipPath id="clip_1"><rect width="475" height="23"></rect></clipPath><g><g><line x1="0" y1="0" x2="0" y2="5" style="visibility: inherit;" fill="rgb(0, 0, 0)" stroke="rgb(204, 204, 204)" stroke-width="1px"></line><line x1="39.63891666666667" y1="0" x2="39.63891666666667" y2="5" style="visibility: inherit;" fill="rgb(0, 0, 0)" stroke="rgb(204, 204, 204)" stroke-width="1px"></line><line x1="79.27783333333333" y1="0" x2="79.27783333333333" y2="5" style="visibility: inherit;" fill="rgb(0, 0, 0)" stroke="rgb(204, 204, 204)" stroke-width="1px"></line><line x1="118.91675000000001" y1="0" x2="118.91675000000001" y2="5" style="visibility: inherit;" fill="rgb(0, 0, 0)" stroke="rgb(204, 204, 204)" stroke-width="1px"></line><line x1="158.55566666666667" y1="0" x2="158.55566666666667" y2="5" style="visibility: inherit;" fill="rgb(0, 0, 0)" stroke="rgb(204, 204, 204)" stroke-width="1px"></line><line x1="198.19458333333336" y1="0" x2="198.19458333333336" y2="5" style="visibility: inherit;" fill="rgb(0, 0, 0)" stroke="rgb(204, 204, 204)" stroke-width="1px"></line><line x1="237.83350000000002" y1="0" x2="237.83350000000002" y2="5" style="visibility: inherit;" fill="rgb(0, 0, 0)" stroke="rgb(204, 204, 204)" stroke-width="1px"></line><line x1="277.4724166666667" y1="0" x2="277.4724166666667" y2="5" style="visibility: inherit;" fill="rgb(0, 0, 0)" stroke="rgb(204, 204, 204)" stroke-width="1px"></line><line x1="317.11133333333333" y1="0" x2="317.11133333333333" y2="5" style="visibility: inherit;" fill="rgb(0, 0, 0)" stroke="rgb(204, 204, 204)" stroke-width="1px"></line><line x1="356.75025000000005" y1="0" x2="356.75025000000005" y2="5" style="visibility: inherit;" fill="rgb(0, 0, 0)" stroke="rgb(204, 204, 204)" stroke-width="1px"></line><line x1="396.3891666666667" y1="0" x2="396.3891666666667" y2="5" style="visibility: inherit;" fill="rgb(0, 0, 0)" stroke="rgb(204, 204, 204)" stroke-width="1px"></line><line x1="436.02808333333337" y1="0" x2="436.02808333333337" y2="5" style="visibility: inherit;" fill="rgb(0, 0, 0)" stroke="rgb(204, 204, 204)" stroke-width="1px"></line><line x1="475.66700000000003" y1="0" x2="475.66700000000003" y2="5" style="visibility: inherit;" fill="rgb(0, 0, 0)" stroke="rgb(204, 204, 204)" stroke-width="1px"></line></g><g transform="translate(0, 8)"><text x="0" y="0" dx="0em" dy="0.95em" style="text-anchor: middle; visibility: hidden; font-family: Roboto, sans-serif; font-size: 12px; font-weight: 200;" fill="rgb(33, 33, 33)" stroke="none" stroke-width="1px">-5k</text><text x="39.63891666666667" y="0" dx="0em" dy="0.95em" style="text-anchor: middle; visibility: inherit; font-family: Roboto, sans-serif; font-size: 12px; font-weight: 200;" fill="rgb(33, 33, 33)" stroke="none" stroke-width="1px">0</text><text x="79.27783333333333" y="0" dx="0em" dy="0.95em" style="text-anchor: middle; visibility: inherit; font-family: Roboto, sans-serif; font-size: 12px; font-weight: 200;" fill="rgb(33, 33, 33)" stroke="none" stroke-width="1px">5k</text><text x="118.91675000000001" y="0" dx="0em" dy="0.95em" style="text-anchor: middle; visibility: inherit; font-family: Roboto, sans-serif; font-size: 12px; font-weight: 200;" fill="rgb(33, 33, 33)" stroke="none" stroke-width="1px">10k</text><text x="158.55566666666667" y="0" dx="0em" dy="0.95em" style="text-anchor: middle; visibility: inherit; font-family: Roboto, sans-serif; font-size: 12px; font-weight: 200;" fill="rgb(33, 33, 33)" stroke="none" stroke-width="1px">15k</text><text x="198.19458333333336" y="0" dx="0em" dy="0.95em" style="text-anchor: middle; visibility: inherit; font-family: Roboto, sans-serif; font-size: 12px; font-weight: 200;" fill="rgb(33, 33, 33)" stroke="none" stroke-width="1px">20k</text><text x="237.83350000000002" y="0" dx="0em" dy="0.95em" style="text-anchor: middle; visibility: inherit; font-family: Roboto, sans-serif; font-size: 12px; font-weight: 200;" fill="rgb(33, 33, 33)" stroke="none" stroke-width="1px">25k</text><text x="277.4724166666667" y="0" dx="0em" dy="0.95em" style="text-anchor: middle; visibility: inherit; font-family: Roboto, sans-serif; font-size: 12px; font-weight: 200;" fill="rgb(33, 33, 33)" stroke="none" stroke-width="1px">30k</text><text x="317.11133333333333" y="0" dx="0em" dy="0.95em" style="text-anchor: middle; visibility: inherit; font-family: Roboto, sans-serif; font-size: 12px; font-weight: 200;" fill="rgb(33, 33, 33)" stroke="none" stroke-width="1px">35k</text><text x="356.75025000000005" y="0" dx="0em" dy="0.95em" style="text-anchor: middle; visibility: inherit; font-family: Roboto, sans-serif; font-size: 12px; font-weight: 200;" fill="rgb(33, 33, 33)" stroke="none" stroke-width="1px">40k</text><text x="396.3891666666667" y="0" dx="0em" dy="0.95em" style="text-anchor: middle; visibility: inherit; font-family: Roboto, sans-serif; font-size: 12px; font-weight: 200;" fill="rgb(33, 33, 33)" stroke="none" stroke-width="1px">45k</text><text x="436.02808333333337" y="0" dx="0em" dy="0.95em" style="text-anchor: middle; visibility: inherit; font-family: Roboto, sans-serif; font-size: 12px; font-weight: 200;" fill="rgb(33, 33, 33)" stroke="none" stroke-width="1px">50k</text><text x="475.66700000000003" y="0" dx="0em" dy="0.95em" style="text-anchor: middle; visibility: hidden; font-family: Roboto, sans-serif; font-size: 12px; font-weight: 200;" fill="rgb(33, 33, 33)" stroke="none" stroke-width="1px">55k</text></g><line x1="0" y1="0" x2="475.66700000000003" y2="0" fill="rgb(0, 0, 0)" stroke="rgb(204, 204, 204)" stroke-width="1px"></line></g></g></g></g></svg>