<svg viewBox="0 0 515.6666870117188 400" xmlns="http://www.w3.org/2000/svg"><g><g><g><g><g><line x1="60" y1="377" x2="55" y2="377" style="visibility: inherit;" fill="rgb(0, 0, 0)" stroke="rgb(204, 204, 204)" stroke-width="1px"></line><line x1="60" y1="335.1111111111111" x2="55" y2="335.1111111111111" style="visibility: inherit;" fill="rgb(0, 0, 0)" stroke="rgb(204, 204, 204)" stroke-width="1px"></line><line x1="60" y1="293.22222222222223" x2="55" y2="293.22222222222223" style="visibility: inherit;" fill="rgb(0, 0, 0)" stroke="rgb(204, 204, 204)" stroke-width="1px"></line><line x1="60" y1="251.33333333333331" x2="55" y2="251.33333333333331" style="visibility: inherit;" fill="rgb(0, 0, 0)" stroke="rgb(204, 204, 204)" stroke-width="1px"></line><line x1="60" y1="209.44444444444446" x2="55" y2="209.44444444444446" style="visibility: inherit;" fill="rgb(0, 0, 0)" stroke="rgb(204, 204, 204)" stroke-width="1px"></line><line x1="60" y1="167.55555555555554" x2="55" y2="167.55555555555554" style="visibility: inherit;" fill="rgb(0, 0, 0)" stroke="rgb(204, 204, 204)" stroke-width="1px"></line><line x1="60" y1="125.66666666666669" x2="55" y2="125.66666666666669" style="visibility: inherit;" fill="rgb(0, 0, 0)" stroke="rgb(204, 204, 204)" stroke-width="1px"></line><line x1="60" y1="83.77777777777777" x2="55" y2="83.77777777777777" style="visibility: inherit;" fill="rgb(0, 0, 0)" stroke="rgb(204, 204, 204)" stroke-width="1px"></line><line x1="60" y1="41.88888888888895" x2="55" y2="41.88888888888895" style="visibility: inherit;" fill="rgb(0, 0, 0)" stroke="rgb(204, 204, 204)" stroke-width="1px"></line><line x1="60" y1="0" x2="55" y2="0" style="visibility: inherit;" fill="rgb(0, 0, 0)" stroke="rgb(204, 204, 204)" stroke-width="1px"></line></g><g transform="translate(50, 0)"><text x="0" y="377" dx="0em" dy="0.3em" style="text-anchor: end; visibility: hidden; font-family: Roboto, sans-serif; font-size: 12px; font-weight: 200;" fill="rgb(33, 33, 33)" stroke="none" stroke-width="1px">-1e-5</text><text x="0" y="335.1111111111111" dx="0em" dy="0.3em" style="text-anchor: end; visibility: inherit; font-family: Roboto, sans-serif; font-size: 12px; font-weight: 200;" fill="rgb(33, 33, 33)" stroke="none" stroke-width="1px">0</text><text x="0" y="293.22222222222223" dx="0em" dy="0.3em" style="text-anchor: end; visibility: inherit; font-family: Roboto, sans-serif; font-size: 12px; font-weight: 200;" fill="rgb(33, 33, 33)" stroke="none" stroke-width="1px">1e-5</text><text x="0" y="251.33333333333331" dx="0em" dy="0.3em" style="text-anchor: end; visibility: inherit; font-family: Roboto, sans-serif; font-size: 12px; font-weight: 200;" fill="rgb(33, 33, 33)" stroke="none" stroke-width="1px">2e-5</text><text x="0" y="209.44444444444446" dx="0em" dy="0.3em" style="text-anchor: end; visibility: inherit; font-family: Roboto, sans-serif; font-size: 12px; font-weight: 200;" fill="rgb(33, 33, 33)" stroke="none" stroke-width="1px">3e-5</text><text x="0" y="167.55555555555554" dx="0em" dy="0.3em" style="text-anchor: end; visibility: inherit; font-family: Roboto, sans-serif; font-size: 12px; font-weight: 200;" fill="rgb(33, 33, 33)" stroke="none" stroke-width="1px">4e-5</text><text x="0" y="125.66666666666669" dx="0em" dy="0.3em" style="text-anchor: end; visibility: inherit; font-family: Roboto, sans-serif; font-size: 12px; font-weight: 200;" fill="rgb(33, 33, 33)" stroke="none" stroke-width="1px">5e-5</text><text x="0" y="83.77777777777777" dx="0em" dy="0.3em" style="text-anchor: end; visibility: inherit; font-family: Roboto, sans-serif; font-size: 12px; font-weight: 200;" fill="rgb(33, 33, 33)" stroke="none" stroke-width="1px">6e-5</text><text x="0" y="41.88888888888895" dx="0em" dy="0.3em" style="text-anchor: end; visibility: inherit; font-family: Roboto, sans-serif; font-size: 12px; font-weight: 200;" fill="rgb(33, 33, 33)" stroke="none" stroke-width="1px">7e-5</text><text x="0" y="0" dx="0em" dy="0.3em" style="text-anchor: end; visibility: hidden; font-family: Roboto, sans-serif; font-size: 12px; font-weight: 200;" fill="rgb(33, 33, 33)" stroke="none" stroke-width="1px">8e-5</text></g><line x1="60" y1="0" x2="60" y2="377" fill="rgb(0, 0, 0)" stroke="rgb(204, 204, 204)" stroke-width="1px"></line></g></g><g transform="translate(60, 0)" clip-path="url(#clip_0)"><clipPath id="clip_0"><rect width="455" height="377"></rect></clipPath><g><g><g><line x1="0" y1="0" x2="0" y2="377" fill="rgb(0, 0, 0)" stroke="rgb(66, 66, 66)" stroke-width="1px" opacity="0.25"></line><line x1="37.97225" y1="0" x2="37.97225" y2="377" fill="rgb(0, 0, 0)" stroke="rgb(66, 66, 66)" stroke-width="1px" opacity="0.25"></line><line x1="75.9445" y1="0" x2="75.9445" y2="377" fill="rgb(0, 0, 0)" stroke="rgb(66, 66, 66)" stroke-width="1px" opacity="0.25"></line><line x1="113.91675000000001" y1="0" x2="113.91675000000001" y2="377" fill="rgb(0, 0, 0)" stroke="rgb(66, 66, 66)" stroke-width="1px" opacity="0.25"></line><line x1="151.889" y1="0" x2="151.889" y2="377" fill="rgb(0, 0, 0)" stroke="rgb(66, 66, 66)" stroke-width="1px" opacity="0.25"></line><line x1="189.86125" y1="0" x2="189.86125" y2="377" fill="rgb(0, 0, 0)" stroke="rgb(66, 66, 66)" stroke-width="1px" opacity="0.25"></line><line x1="227.83350000000002" y1="0" x2="227.83350000000002" y2="377" fill="rgb(0, 0, 0)" stroke="rgb(66, 66, 66)" stroke-width="1px" opacity="0.25"></line><line x1="265.80575000000005" y1="0" x2="265.80575000000005" y2="377" fill="rgb(0, 0, 0)" stroke="rgb(66, 66, 66)" stroke-width="1px" opacity="0.25"></line><line x1="303.778" y1="0" x2="303.778" y2="377" fill="rgb(0, 0, 0)" stroke="rgb(66, 66, 66)" stroke-width="1px" opacity="0.25"></line><line x1="341.75025000000005" y1="0" x2="341.75025000000005" y2="377" fill="rgb(0, 0, 0)" stroke="rgb(66, 66, 66)" stroke-width="1px" opacity="0.25"></line><line x1="379.7225" y1="0" x2="379.7225" y2="377" fill="rgb(0, 0, 0)" stroke="rgb(66, 66, 66)" stroke-width="1px" opacity="0.25"></line><line x1="417.69475" y1="0" x2="417.69475" y2="377" fill="rgb(0, 0, 0)" stroke="rgb(66, 66, 66)" stroke-width="1px" opacity="0.25"></line><line x1="455.66700000000003" y1="0" x2="455.66700000000003" y2="377" fill="rgb(0, 0, 0)" stroke="rgb(66, 66, 66)" stroke-width="1px" opacity="0.25"></line></g><g><line x1="0" y1="377" x2="455.66700000000003" y2="377" fill="rgb(0, 0, 0)" stroke="rgb(66, 66, 66)" stroke-width="1px" opacity="0.25"></line><line x1="0" y1="335.1111111111111" x2="455.66700000000003" y2="335.1111111111111" fill="rgb(0, 0, 0)" stroke="rgb(66, 66, 66)" stroke-width="1px" opacity="0.25"></line><line x1="0" y1="293.22222222222223" x2="455.66700000000003" y2="293.22222222222223" fill="rgb(0, 0, 0)" stroke="rgb(66, 66, 66)" stroke-width="1px" opacity="0.25"></line><line x1="0" y1="251.33333333333331" x2="455.66700000000003" y2="251.33333333333331" fill="rgb(0, 0, 0)" stroke="rgb(66, 66, 66)" stroke-width="1px" opacity="0.25"></line><line x1="0" y1="209.44444444444446" x2="455.66700000000003" y2="209.44444444444446" fill="rgb(0, 0, 0)" stroke="rgb(66, 66, 66)" stroke-width="1px" opacity="0.25"></line><line x1="0" y1="167.55555555555554" x2="455.66700000000003" y2="167.55555555555554" fill="rgb(0, 0, 0)" stroke="rgb(66, 66, 66)" stroke-width="1px" opacity="0.25"></line><line x1="0" y1="125.66666666666669" x2="455.66700000000003" y2="125.66666666666669" fill="rgb(0, 0, 0)" stroke="rgb(66, 66, 66)" stroke-width="1px" opacity="0.25"></line><line x1="0" y1="83.77777777777777" x2="455.66700000000003" y2="83.77777777777777" fill="rgb(0, 0, 0)" stroke="rgb(66, 66, 66)" stroke-width="1px" opacity="0.25"></line><line x1="0" y1="41.88888888888895" x2="455.66700000000003" y2="41.88888888888895" fill="rgb(0, 0, 0)" stroke="rgb(66, 66, 66)" stroke-width="1px" opacity="0.25"></line><line x1="0" y1="0" x2="455.66700000000003" y2="0" fill="rgb(0, 0, 0)" stroke="rgb(66, 66, 66)" stroke-width="1px" opacity="0.25"></line></g></g></g><g><g><line x1="0" y1="335.1111111111111" x2="455.66700000000003" y2="335.1111111111111" fill="rgb(0, 0, 0)" stroke="rgb(153, 153, 153)" stroke-width="1.5px"></line></g></g><g><g><line x1="37.97225" y1="0" x2="37.97225" y2="377" fill="rgb(0, 0, 0)" stroke="rgb(153, 153, 153)" stroke-width="1.5px"></line></g></g><g><g><g><g><g><path stroke="rgb(255, 112, 67)" stroke-width="2px" d="M41.860608400000004,86.64520159198175L45.748966800000005,50.507835493733516L49.6373252,169.17443495931406L53.5256836,177.49713627346398L57.414042,241.18081457027517L61.3024004,277.92034492577244L65.19075880000001,229.98841565211896L69.07911720000001,227.81752362418828L72.9674756,252.71732006620275L76.855834,268.33477614780264L80.7441924,229.6173687342505L84.6325508,244.7617530064532L88.5209092,278.98466697770135L92.4092676,251.57897267769906L96.29762600000001,284.1270194032656L100.1859844,284.6308855610717L104.0743428,276.47230534237235L107.96270120000001,274.2545408045293L111.85105960000001,289.72988866939943L115.73941800000001,307.8830413541081L119.62777640000002,258.18977849472066L123.51613480000002,248.3107277795674L127.40449320000002,273.2460711765473L131.2928516,291.90005102493325L135.18121000000002,225.81081672695643L139.0695684,196.49249104429478L142.9579268,248.0996439315096L146.8462852,272.8453744256883L150.7346436,276.2076459904494L154.623002,291.6763721041021L158.5113604,302.8418887106525L162.39971880000002,270.5681388450476L166.2880772,253.58284658051974L170.17643560000002,269.507911189175L174.064794,227.2400980838464L177.95315240000002,267.48288489653066L181.8415108,288.070656108753L185.72986920000002,260.17612868925545L189.6182276,288.9969249966276L193.50658600000003,299.2274382087108L197.3949444,309.29348112127315L201.2833028,319.3138982687469L205.17166120000002,323.79141380457014L209.0600196,327.95960146235205L212.94837800000002,323.84406734888756L216.8367364,327.4848169477833L220.72509480000002,330.3917702035434L224.6134532,332.2490771536909L228.5018116,325.0499896652785L232.39017,321.4881515299031L236.2785284,326.6759545078313L240.16688680000001,330.05001714915306L244.0552452,332.05650918272977L247.94360360000002,333.145708923401L251.831962,333.93186979848554L255.72032040000002,334.3754776346856L259.6086788,334.61901533705367L263.4970372,334.8158536466767L267.38539560000004,334.9339566324505L271.27375400000005,335.00481842391474L275.1621124,335.0067629482316L279.0504708,335.0009074906091L282.93882920000004,335.0449889388099L286.8271876,335.0714378077304L290.715546,335.0779442327992L294.6039044,335.09121098412396L298.49226280000005,335.0976105522049L302.3806212,335.10301077576736L306.2689796,335.09220656547967L310.157338,335.09508693559053L314.04569640000005,335.0991558817279L317.9340548,335.10315773212426L321.8224132,335.106339083719L325.71077160000004,335.10824789467586L329.59913000000006,335.1093931812499L333.4874884,335.10383842233875L337.3758468,335.1067474978477L341.26420520000005,335.10849294315307L345.1525636,335.1095402103363L349.040922,335.1101685706462L352.9292804,335.1105455868322L356.81763880000005,335.11077179654376L360.7059972,335.1109075223707L364.59435560000003,335.1109889578668L368.482714,335.11103781916455L372.37107240000006,335.1110671359432L376.2594308,335.11108472601035L380.14778920000003,335.1110952800507L384.03614760000005,335.11110161247484L387.92450600000006,335.1111054119294L391.8128644,335.11110769160206L395.7012228,335.1103288180487L399.58958120000005,335.10986149391675L403.4779396,335.1103613407945L407.36629800000003,335.11066124892113L411.2546564,335.1108411937971L415.14301480000006,335.1109491607227" style="fill: none;" fill="none"></path></g></g></g></g><g opacity="0.2"><g><g><g><path stroke="rgb(255, 112, 67)" stroke-width="2px" d="M41.860608400000004,86.64520159198179L45.748966800000005,28.82541583478455L49.6373252,283.0943704462714L53.5256836,187.2846330189043L57.414042,324.32622495459185L61.3024004,328.74434163835315L65.19075880000001,161.44498987992608L69.07911720000001,224.652342206902L72.9674756,289.4396832817131L76.855834,291.524878308177L80.7441924,171.89242164956204L84.6325508,267.395914344324L88.5209092,330.20729418264494L92.4092676,210.52412183582783L96.29762600000001,332.9108304844962L100.1859844,285.3863294323286L104.0743428,264.2378874520461L107.96270120000001,270.9284570879406L111.85105960000001,312.94055295321675L115.73941800000001,335.1111111111111L119.62777640000002,183.65260950227582L123.51613480000002,233.49247678120935L127.40449320000002,310.6485939671596L131.2928516,319.88079982333716L135.18121000000002,126.67743501398301L139.0695684,152.51512754956883L142.9579268,325.510241213772L146.8462852,309.96393217643106L150.7346436,281.25105024046366L154.623002,314.8794527252515L158.5113604,319.5901599178712L162.39971880000002,222.15752046803635L166.2880772,228.1049102114307L170.17643560000002,293.39550696147813L174.064794,163.83838024238747L177.95315240000002,327.84706407785416L181.8415108,318.9523126085599L185.72986920000002,218.3343378189537L189.6182276,332.22811929716005L193.50658600000003,314.5732079926464L197.3949444,324.3925454699331L201.2833028,334.3445239779022L205.17166120000002,330.5076871050729L209.0600196,334.21188294721975L212.94837800000002,317.6707661797603L216.8367364,332.9459413455592L220.72509480000002,334.7522000869115L224.6134532,335.03503757880793L228.5018116,314.25135843290224L232.39017,316.145394326912L236.2785284,334.4576589746608L240.16688680000001,335.1111111111111L244.0552452,335.0662472330862L247.94360360000002,334.77950853440495L251.831962,335.1111111111111L255.72032040000002,335.0408893889851L259.6086788,334.9843218906058L263.4970372,335.1111111111111L267.38539560000004,335.1111111111111L271.27375400000005,335.1111111111111L275.1621124,335.0096797347069L279.0504708,334.9921243041754L282.93882920000004,335.1111111111111L286.8271876,335.1111111111111L290.715546,335.08770387040244L294.6039044,335.1111111111111L298.49226280000005,335.10720990432634L302.3806212,335.1111111111111L306.2689796,335.0760002500481L310.157338,335.0994074907568L314.04569640000005,335.10525930093394L317.9340548,335.10916050771874L321.8224132,335.1111111111111L325.71077160000004,335.1111111111111L329.59913000000006,335.1111111111111L333.4874884,335.095506283972L337.3758468,335.1111111111111L341.26420520000005,335.1111111111111L345.1525636,335.1111111111111L349.040922,335.1111111111111L352.9292804,335.1111111111111L356.81763880000005,335.1111111111111L360.7059972,335.1111111111111L364.59435560000003,335.1111111111111L368.482714,335.1111111111111L372.37107240000006,335.1111111111111L376.2594308,335.1111111111111L380.14778920000003,335.1111111111111L384.03614760000005,335.1111111111111L387.92450600000006,335.1111111111111L391.8128644,335.1111111111111L395.7012228,335.10916050771874L399.58958120000005,335.10916050771874L403.4779396,335.1111111111111L407.36629800000003,335.1111111111111L411.2546564,335.1111111111111L415.14301480000006,335.1111111111111" style="fill: none;" fill="none"></path></g></g></g></g></g></g><g transform="translate(60, 377)" clip-path="url(#clip_1)"><clipPath id="clip_1"><rect width="455" height="23"></rect></clipPath><g><g><line x1="0" y1="0" x2="0" y2="5" style="visibility: inherit;" fill="rgb(0, 0, 0)" stroke="rgb(204, 204, 204)" stroke-width="1px"></line><line x1="37.97225" y1="0" x2="37.97225" y2="5" style="visibility: inherit;" fill="rgb(0, 0, 0)" stroke="rgb(204, 204, 204)" stroke-width="1px"></line><line x1="75.9445" y1="0" x2="75.9445" y2="5" style="visibility: inherit;" fill="rgb(0, 0, 0)" stroke="rgb(204, 204, 204)" stroke-width="1px"></line><line x1="113.91675000000001" y1="0" x2="113.91675000000001" y2="5" style="visibility: inherit;" fill="rgb(0, 0, 0)" stroke="rgb(204, 204, 204)" stroke-width="1px"></line><line x1="151.889" y1="0" x2="151.889" y2="5" style="visibility: inherit;" fill="rgb(0, 0, 0)" stroke="rgb(204, 204, 204)" stroke-width="1px"></line><line x1="189.86125" y1="0" x2="189.86125" y2="5" style="visibility: inherit;" fill="rgb(0, 0, 0)" stroke="rgb(204, 204, 204)" stroke-width="1px"></line><line x1="227.83350000000002" y1="0" x2="227.83350000000002" y2="5" style="visibility: inherit;" fill="rgb(0, 0, 0)" stroke="rgb(204, 204, 204)" stroke-width="1px"></line><line x1="265.80575000000005" y1="0" x2="265.80575000000005" y2="5" style="visibility: inherit;" fill="rgb(0, 0, 0)" stroke="rgb(204, 204, 204)" stroke-width="1px"></line><line x1="303.778" y1="0" x2="303.778" y2="5" style="visibility: inherit;" fill="rgb(0, 0, 0)" stroke="rgb(204, 204, 204)" stroke-width="1px"></line><line x1="341.75025000000005" y1="0" x2="341.75025000000005" y2="5" style="visibility: inherit;" fill="rgb(0, 0, 0)" stroke="rgb(204, 204, 204)" stroke-width="1px"></line><line x1="379.7225" y1="0" x2="379.7225" y2="5" style="visibility: inherit;" fill="rgb(0, 0, 0)" stroke="rgb(204, 204, 204)" stroke-width="1px"></line><line x1="417.69475" y1="0" x2="417.69475" y2="5" style="visibility: inherit;" fill="rgb(0, 0, 0)" stroke="rgb(204, 204, 204)" stroke-width="1px"></line><line x1="455.66700000000003" y1="0" x2="455.66700000000003" y2="5" style="visibility: inherit;" fill="rgb(0, 0, 0)" stroke="rgb(204, 204, 204)" stroke-width="1px"></line></g><g transform="translate(0, 8)"><text x="0" y="0" dx="0em" dy="0.95em" style="text-anchor: middle; visibility: hidden; font-family: Roboto, sans-serif; font-size: 12px; font-weight: 200;" fill="rgb(33, 33, 33)" stroke="none" stroke-width="1px">-5k</text><text x="37.97225" y="0" dx="0em" dy="0.95em" style="text-anchor: middle; visibility: inherit; font-family: Roboto, sans-serif; font-size: 12px; font-weight: 200;" fill="rgb(33, 33, 33)" stroke="none" stroke-width="1px">0</text><text x="75.9445" y="0" dx="0em" dy="0.95em" style="text-anchor: middle; visibility: inherit; font-family: Roboto, sans-serif; font-size: 12px; font-weight: 200;" fill="rgb(33, 33, 33)" stroke="none" stroke-width="1px">5k</text><text x="113.91675000000001" y="0" dx="0em" dy="0.95em" style="text-anchor: middle; visibility: inherit; font-family: Roboto, sans-serif; font-size: 12px; font-weight: 200;" fill="rgb(33, 33, 33)" stroke="none" stroke-width="1px">10k</text><text x="151.889" y="0" dx="0em" dy="0.95em" style="text-anchor: middle; visibility: inherit; font-family: Roboto, sans-serif; font-size: 12px; font-weight: 200;" fill="rgb(33, 33, 33)" stroke="none" stroke-width="1px">15k</text><text x="189.86125" y="0" dx="0em" dy="0.95em" style="text-anchor: middle; visibility: inherit; font-family: Roboto, sans-serif; font-size: 12px; font-weight: 200;" fill="rgb(33, 33, 33)" stroke="none" stroke-width="1px">20k</text><text x="227.83350000000002" y="0" dx="0em" dy="0.95em" style="text-anchor: middle; visibility: inherit; font-family: Roboto, sans-serif; font-size: 12px; font-weight: 200;" fill="rgb(33, 33, 33)" stroke="none" stroke-width="1px">25k</text><text x="265.80575000000005" y="0" dx="0em" dy="0.95em" style="text-anchor: middle; visibility: inherit; font-family: Roboto, sans-serif; font-size: 12px; font-weight: 200;" fill="rgb(33, 33, 33)" stroke="none" stroke-width="1px">30k</text><text x="303.778" y="0" dx="0em" dy="0.95em" style="text-anchor: middle; visibility: inherit; font-family: Roboto, sans-serif; font-size: 12px; font-weight: 200;" fill="rgb(33, 33, 33)" stroke="none" stroke-width="1px">35k</text><text x="341.75025000000005" y="0" dx="0em" dy="0.95em" style="text-anchor: middle; visibility: inherit; font-family: Roboto, sans-serif; font-size: 12px; font-weight: 200;" fill="rgb(33, 33, 33)" stroke="none" stroke-width="1px">40k</text><text x="379.7225" y="0" dx="0em" dy="0.95em" style="text-anchor: middle; visibility: inherit; font-family: Roboto, sans-serif; font-size: 12px; font-weight: 200;" fill="rgb(33, 33, 33)" stroke="none" stroke-width="1px">45k</text><text x="417.69475" y="0" dx="0em" dy="0.95em" style="text-anchor: middle; visibility: inherit; font-family: Roboto, sans-serif; font-size: 12px; font-weight: 200;" fill="rgb(33, 33, 33)" stroke="none" stroke-width="1px">50k</text><text x="455.66700000000003" y="0" dx="0em" dy="0.95em" style="text-anchor: middle; visibility: hidden; font-family: Roboto, sans-serif; font-size: 12px; font-weight: 200;" fill="rgb(33, 33, 33)" stroke="none" stroke-width="1px">55k</text></g><line x1="0" y1="0" x2="455.66700000000003" y2="0" fill="rgb(0, 0, 0)" stroke="rgb(204, 204, 204)" stroke-width="1px"></line></g></g></g></g></svg>