<svg viewBox="0 0 515.6666870117188 400" xmlns="http://www.w3.org/2000/svg"><g><g><g><g><g><line x1="40" y1="377" x2="35" y2="377" style="visibility: inherit;" fill="rgb(0, 0, 0)" stroke="rgb(204, 204, 204)" stroke-width="1px"></line><line x1="40" y1="350.0714285714307" x2="35" y2="350.0714285714307" style="visibility: inherit;" fill="rgb(0, 0, 0)" stroke="rgb(204, 204, 204)" stroke-width="1px"></line><line x1="40" y1="323.14285714286143" x2="35" y2="323.14285714286143" style="visibility: inherit;" fill="rgb(0, 0, 0)" stroke="rgb(204, 204, 204)" stroke-width="1px"></line><line x1="40" y1="296.2142857142921" x2="35" y2="296.2142857142921" style="visibility: inherit;" fill="rgb(0, 0, 0)" stroke="rgb(204, 204, 204)" stroke-width="1px"></line><line x1="40" y1="269.2857142857228" x2="35" y2="269.2857142857228" style="visibility: inherit;" fill="rgb(0, 0, 0)" stroke="rgb(204, 204, 204)" stroke-width="1px"></line><line x1="40" y1="242.35714285715355" x2="35" y2="242.35714285715355" style="visibility: inherit;" fill="rgb(0, 0, 0)" stroke="rgb(204, 204, 204)" stroke-width="1px"></line><line x1="40" y1="215.42857142858423" x2="35" y2="215.42857142858423" style="visibility: inherit;" fill="rgb(0, 0, 0)" stroke="rgb(204, 204, 204)" stroke-width="1px"></line><line x1="40" y1="188.50000000001495" x2="35" y2="188.50000000001495" style="visibility: inherit;" fill="rgb(0, 0, 0)" stroke="rgb(204, 204, 204)" stroke-width="1px"></line><line x1="40" y1="161.57142857144567" x2="35" y2="161.57142857144567" style="visibility: inherit;" fill="rgb(0, 0, 0)" stroke="rgb(204, 204, 204)" stroke-width="1px"></line><line x1="40" y1="134.64285714284645" x2="35" y2="134.64285714284645" style="visibility: inherit;" fill="rgb(0, 0, 0)" stroke="rgb(204, 204, 204)" stroke-width="1px"></line><line x1="40" y1="107.71428571427717" x2="35" y2="107.71428571427717" style="visibility: inherit;" fill="rgb(0, 0, 0)" stroke="rgb(204, 204, 204)" stroke-width="1px"></line><line x1="40" y1="80.78571428570788" x2="35" y2="80.78571428570788" style="visibility: inherit;" fill="rgb(0, 0, 0)" stroke="rgb(204, 204, 204)" stroke-width="1px"></line><line x1="40" y1="53.857142857138605" x2="35" y2="53.857142857138605" style="visibility: inherit;" fill="rgb(0, 0, 0)" stroke="rgb(204, 204, 204)" stroke-width="1px"></line><line x1="40" y1="26.92857142856928" x2="35" y2="26.92857142856928" style="visibility: inherit;" fill="rgb(0, 0, 0)" stroke="rgb(204, 204, 204)" stroke-width="1px"></line><line x1="40" y1="0" x2="35" y2="0" style="visibility: inherit;" fill="rgb(0, 0, 0)" stroke="rgb(204, 204, 204)" stroke-width="1px"></line></g><g transform="translate(30, 0)"><text x="0" y="377" dx="0em" dy="0.3em" style="text-anchor: end; visibility: hidden; font-family: Roboto, sans-serif; font-size: 12px; font-weight: 200;" fill="rgb(33, 33, 33)" stroke="none" stroke-width="1px">1.1</text><text x="0" y="350.0714285714307" dx="0em" dy="0.3em" style="text-anchor: end; visibility: inherit; font-family: Roboto, sans-serif; font-size: 12px; font-weight: 200;" fill="rgb(33, 33, 33)" stroke="none" stroke-width="1px">1.1</text><text x="0" y="323.14285714286143" dx="0em" dy="0.3em" style="text-anchor: end; visibility: inherit; font-family: Roboto, sans-serif; font-size: 12px; font-weight: 200;" fill="rgb(33, 33, 33)" stroke="none" stroke-width="1px">1.1</text><text x="0" y="296.2142857142921" dx="0em" dy="0.3em" style="text-anchor: end; visibility: inherit; font-family: Roboto, sans-serif; font-size: 12px; font-weight: 200;" fill="rgb(33, 33, 33)" stroke="none" stroke-width="1px">1.1</text><text x="0" y="269.2857142857228" dx="0em" dy="0.3em" style="text-anchor: end; visibility: inherit; font-family: Roboto, sans-serif; font-size: 12px; font-weight: 200;" fill="rgb(33, 33, 33)" stroke="none" stroke-width="1px">1.1</text><text x="0" y="242.35714285715355" dx="0em" dy="0.3em" style="text-anchor: end; visibility: inherit; font-family: Roboto, sans-serif; font-size: 12px; font-weight: 200;" fill="rgb(33, 33, 33)" stroke="none" stroke-width="1px">1.1</text><text x="0" y="215.42857142858423" dx="0em" dy="0.3em" style="text-anchor: end; visibility: inherit; font-family: Roboto, sans-serif; font-size: 12px; font-weight: 200;" fill="rgb(33, 33, 33)" stroke="none" stroke-width="1px">1.1</text><text x="0" y="188.50000000001495" dx="0em" dy="0.3em" style="text-anchor: end; visibility: inherit; font-family: Roboto, sans-serif; font-size: 12px; font-weight: 200;" fill="rgb(33, 33, 33)" stroke="none" stroke-width="1px">1.1</text><text x="0" y="161.57142857144567" dx="0em" dy="0.3em" style="text-anchor: end; visibility: inherit; font-family: Roboto, sans-serif; font-size: 12px; font-weight: 200;" fill="rgb(33, 33, 33)" stroke="none" stroke-width="1px">1.1</text><text x="0" y="134.64285714284645" dx="0em" dy="0.3em" style="text-anchor: end; visibility: inherit; font-family: Roboto, sans-serif; font-size: 12px; font-weight: 200;" fill="rgb(33, 33, 33)" stroke="none" stroke-width="1px">1.1</text><text x="0" y="107.71428571427717" dx="0em" dy="0.3em" style="text-anchor: end; visibility: inherit; font-family: Roboto, sans-serif; font-size: 12px; font-weight: 200;" fill="rgb(33, 33, 33)" stroke="none" stroke-width="1px">1.1</text><text x="0" y="80.78571428570788" dx="0em" dy="0.3em" style="text-anchor: end; visibility: inherit; font-family: Roboto, sans-serif; font-size: 12px; font-weight: 200;" fill="rgb(33, 33, 33)" stroke="none" stroke-width="1px">1.1</text><text x="0" y="53.857142857138605" dx="0em" dy="0.3em" style="text-anchor: end; visibility: inherit; font-family: Roboto, sans-serif; font-size: 12px; font-weight: 200;" fill="rgb(33, 33, 33)" stroke="none" stroke-width="1px">1.1</text><text x="0" y="26.92857142856928" dx="0em" dy="0.3em" style="text-anchor: end; visibility: inherit; font-family: Roboto, sans-serif; font-size: 12px; font-weight: 200;" fill="rgb(33, 33, 33)" stroke="none" stroke-width="1px">1.1</text><text x="0" y="0" dx="0em" dy="0.3em" style="text-anchor: end; visibility: hidden; font-family: Roboto, sans-serif; font-size: 12px; font-weight: 200;" fill="rgb(33, 33, 33)" stroke="none" stroke-width="1px">1.1</text></g><line x1="40" y1="0" x2="40" y2="377" fill="rgb(0, 0, 0)" stroke="rgb(204, 204, 204)" stroke-width="1px"></line></g></g><g transform="translate(40, 0)" clip-path="url(#clip_0)"><clipPath id="clip_0"><rect width="475" height="377"></rect></clipPath><g><g><g><line x1="0" y1="0" x2="0" y2="377" fill="rgb(0, 0, 0)" stroke="rgb(66, 66, 66)" stroke-width="1px" opacity="0.25"></line><line x1="39.63891666666667" y1="0" x2="39.63891666666667" y2="377" fill="rgb(0, 0, 0)" stroke="rgb(66, 66, 66)" stroke-width="1px" opacity="0.25"></line><line x1="79.27783333333333" y1="0" x2="79.27783333333333" y2="377" fill="rgb(0, 0, 0)" stroke="rgb(66, 66, 66)" stroke-width="1px" opacity="0.25"></line><line x1="118.91675000000001" y1="0" x2="118.91675000000001" y2="377" fill="rgb(0, 0, 0)" stroke="rgb(66, 66, 66)" stroke-width="1px" opacity="0.25"></line><line x1="158.55566666666667" y1="0" x2="158.55566666666667" y2="377" fill="rgb(0, 0, 0)" stroke="rgb(66, 66, 66)" stroke-width="1px" opacity="0.25"></line><line x1="198.19458333333336" y1="0" x2="198.19458333333336" y2="377" fill="rgb(0, 0, 0)" stroke="rgb(66, 66, 66)" stroke-width="1px" opacity="0.25"></line><line x1="237.83350000000002" y1="0" x2="237.83350000000002" y2="377" fill="rgb(0, 0, 0)" stroke="rgb(66, 66, 66)" stroke-width="1px" opacity="0.25"></line><line x1="277.4724166666667" y1="0" x2="277.4724166666667" y2="377" fill="rgb(0, 0, 0)" stroke="rgb(66, 66, 66)" stroke-width="1px" opacity="0.25"></line><line x1="317.11133333333333" y1="0" x2="317.11133333333333" y2="377" fill="rgb(0, 0, 0)" stroke="rgb(66, 66, 66)" stroke-width="1px" opacity="0.25"></line><line x1="356.75025000000005" y1="0" x2="356.75025000000005" y2="377" fill="rgb(0, 0, 0)" stroke="rgb(66, 66, 66)" stroke-width="1px" opacity="0.25"></line><line x1="396.3891666666667" y1="0" x2="396.3891666666667" y2="377" fill="rgb(0, 0, 0)" stroke="rgb(66, 66, 66)" stroke-width="1px" opacity="0.25"></line><line x1="436.02808333333337" y1="0" x2="436.02808333333337" y2="377" fill="rgb(0, 0, 0)" stroke="rgb(66, 66, 66)" stroke-width="1px" opacity="0.25"></line><line x1="475.66700000000003" y1="0" x2="475.66700000000003" y2="377" fill="rgb(0, 0, 0)" stroke="rgb(66, 66, 66)" stroke-width="1px" opacity="0.25"></line></g><g><line x1="0" y1="377" x2="475.66700000000003" y2="377" fill="rgb(0, 0, 0)" stroke="rgb(66, 66, 66)" stroke-width="1px" opacity="0.25"></line><line x1="0" y1="350.0714285714307" x2="475.66700000000003" y2="350.0714285714307" fill="rgb(0, 0, 0)" stroke="rgb(66, 66, 66)" stroke-width="1px" opacity="0.25"></line><line x1="0" y1="323.14285714286143" x2="475.66700000000003" y2="323.14285714286143" fill="rgb(0, 0, 0)" stroke="rgb(66, 66, 66)" stroke-width="1px" opacity="0.25"></line><line x1="0" y1="296.2142857142921" x2="475.66700000000003" y2="296.2142857142921" fill="rgb(0, 0, 0)" stroke="rgb(66, 66, 66)" stroke-width="1px" opacity="0.25"></line><line x1="0" y1="269.2857142857228" x2="475.66700000000003" y2="269.2857142857228" fill="rgb(0, 0, 0)" stroke="rgb(66, 66, 66)" stroke-width="1px" opacity="0.25"></line><line x1="0" y1="242.35714285715355" x2="475.66700000000003" y2="242.35714285715355" fill="rgb(0, 0, 0)" stroke="rgb(66, 66, 66)" stroke-width="1px" opacity="0.25"></line><line x1="0" y1="215.42857142858423" x2="475.66700000000003" y2="215.42857142858423" fill="rgb(0, 0, 0)" stroke="rgb(66, 66, 66)" stroke-width="1px" opacity="0.25"></line><line x1="0" y1="188.50000000001495" x2="475.66700000000003" y2="188.50000000001495" fill="rgb(0, 0, 0)" stroke="rgb(66, 66, 66)" stroke-width="1px" opacity="0.25"></line><line x1="0" y1="161.57142857144567" x2="475.66700000000003" y2="161.57142857144567" fill="rgb(0, 0, 0)" stroke="rgb(66, 66, 66)" stroke-width="1px" opacity="0.25"></line><line x1="0" y1="134.64285714284645" x2="475.66700000000003" y2="134.64285714284645" fill="rgb(0, 0, 0)" stroke="rgb(66, 66, 66)" stroke-width="1px" opacity="0.25"></line><line x1="0" y1="107.71428571427717" x2="475.66700000000003" y2="107.71428571427717" fill="rgb(0, 0, 0)" stroke="rgb(66, 66, 66)" stroke-width="1px" opacity="0.25"></line><line x1="0" y1="80.78571428570788" x2="475.66700000000003" y2="80.78571428570788" fill="rgb(0, 0, 0)" stroke="rgb(66, 66, 66)" stroke-width="1px" opacity="0.25"></line><line x1="0" y1="53.857142857138605" x2="475.66700000000003" y2="53.857142857138605" fill="rgb(0, 0, 0)" stroke="rgb(66, 66, 66)" stroke-width="1px" opacity="0.25"></line><line x1="0" y1="26.92857142856928" x2="475.66700000000003" y2="26.92857142856928" fill="rgb(0, 0, 0)" stroke="rgb(66, 66, 66)" stroke-width="1px" opacity="0.25"></line><line x1="0" y1="0" x2="475.66700000000003" y2="0" fill="rgb(0, 0, 0)" stroke="rgb(66, 66, 66)" stroke-width="1px" opacity="0.25"></line></g></g></g><g><g><line x1="0" y1="147945.571428576" x2="475.66700000000003" y2="147945.571428576" fill="rgb(0, 0, 0)" stroke="rgb(153, 153, 153)" stroke-width="1.5px"></line></g></g><g><g><line x1="39.63891666666667" y1="0" x2="39.63891666666667" y2="377" fill="rgb(0, 0, 0)" stroke="rgb(153, 153, 153)" stroke-width="1.5px"></line></g></g><g><g><g><g><g><path stroke="rgb(255, 112, 67)" stroke-width="2px" d="M43.69794173333334,32.97564561026523L47.75696680000001,50.5110127925887L51.815991866666664,55.44495886616911L55.875016933333335,47.23596608840478L59.934042000000005,41.40592799350714L63.993067066666676,38.88569193917734L68.05209213333335,45.09315816650718L72.11111720000001,60.38007595965228L76.17014226666667,75.89131522474372L80.22916733333334,78.01152322110485L84.2881924,72.73510944479926L88.34721746666668,66.5123887256596L92.40624253333334,61.80385054927548L96.4652676,53.347672394212196L100.52429266666668,47.134862575373866L104.58331773333333,46.080633487036344L108.64234280000001,48.941505518784254L112.70136786666667,53.181141857786194L116.76039293333334,52.45653061475297L120.81941800000001,51.62372072726811L124.87844306666668,63.02749920859906L128.93746813333334,82.31867694551325L132.9964932,99.04874000131097L137.0555182666667,112.32894586637404L141.11454333333336,142.7680440782779L145.17356840000002,190.9820663646952L149.23259346666666,216.59756349303314L153.29161853333332,217.88718042504428L157.3506436,209.0626402936786L161.40966866666668,199.87723276287343L165.46869373333334,197.942081376018L169.5277188,215.2777950552342L173.58674386666667,254.19807079836443L177.64576893333336,267.9390879888296L181.70479400000002,251.94717182642395L185.76381906666668,253.34994790425262L189.82284413333335,263.58447115137005L193.8818692,298.5136836357855L197.9408942666667,320.3186869146221L201.99991933333337,331.482027598851L206.0589444,338.25065498899073L210.11796946666666,336.7711369076819L214.17699453333333,336.89140872239597L218.23601960000002,344.87334659283744L222.29504466666668,355.0298564871259L226.35406973333335,350.92837090365424L230.4130948,351.72897759636163L234.47211986666667,353.31362835082047L238.53114493333334,355.5613136943993L242.59017000000003,353.00639968422996L246.64919506666666,352.7575056256112L250.70822013333336,355.5614941895681L254.7672452,343.07434760384643L258.8262702666667,341.3731447594354L262.8852953333333,337.58528593404037L266.94432040000004,338.28515645313126L271.0033454666667,345.02904642575646L275.06237053333336,343.6759318783467L279.1213956,342.4724265739176L283.1804206666667,343.86259279281643L287.23944573333335,345.6789940999049L291.2984708,337.94096124548355L295.3574958666667,340.7135553893433L299.41652093333335,339.57787339822465L303.475546,346.1000090927313L307.5345710666667,342.77122398984L311.59359613333334,342.5523681993253L315.6526212,341.7148248339087L319.7116462666667,342.13039767309533L323.7706713333333,344.1581566477856L327.82969640000005,343.75690355485233L331.88872146666665,347.2848512088434L335.9477465333334,343.40508599863654L340.00677160000004,342.0595284483453L344.0657966666667,342.2344954939436L348.12482173333336,347.5142147415439L352.18384679999997,345.81548031327395L356.2428718666667,345.2392384061633L360.30189693333335,340.0012461981177L364.360922,345.3332095664467L368.4199470666667,345.6368450339451L372.47897213333334,342.07600789164803L376.5379972,339.91382451931486L380.5970222666667,344.8505983527822L384.65604733333333,350.4770754238032L388.71507240000005,352.00392340609216L392.77409746666666,349.66495442470523L396.8331225333334,348.6211082531702L400.89214760000004,349.49072386501297L404.9511726666667,343.48307687535055L409.01019773333337,348.17347976603696L413.0692228,346.2688217736049L417.1282478666667,346.01202447788415L421.18727293333336,347.0456963718401L425.246298,347.4476102691358L429.3053230666667,344.40799974979797L433.36434813333335,340.6388911018011" style="fill: none;" fill="none"></path></g></g></g></g><g opacity="0.2"><g><g><g><path stroke="rgb(255, 112, 67)" stroke-width="2px" d="M43.69794173333334,32.97564561026523L47.75696680000001,61.032233101982776L51.815991866666664,60.18154709679909L55.875016933333335,37.58219058173146L59.934042000000005,33.79423025676272L63.993067066666676,35.399298191071516L68.05209213333335,53.96993419102414L72.11111720000001,82.66854885646515L76.17014226666667,98.76738023758223L80.22916733333334,81.15978499821492L84.2881924,64.86834546498078L88.34721746666668,57.21217141832787L92.40624253333334,54.75641747883542L96.4652676,40.67997169494742L100.52429266666668,37.822950771877764L104.58331773333333,44.50003337860229L108.64234280000001,53.23160294124206L112.70136786666667,59.53951992307559L116.76039293333334,51.36972413744391L120.81941800000001,50.37458201817245L124.87844306666668,80.13254152025729L128.93746813333334,111.2548087665046L132.9964932,124.1435042790041L137.0555182666667,132.24909734726344L141.11454333333336,188.42647504807084L145.17356840000002,263.3028941835756L149.23259346666666,255.02074364254224L153.29161853333332,219.82160384315065L157.3506436,195.82583822523435L161.40966866666668,186.0991265433231L165.46869373333334,195.03935493742304L169.5277188,241.28136212485907L173.58674386666667,312.5784797668552L177.64576893333336,288.5506127902527L181.70479400000002,227.95929827009618L185.76381906666668,255.45411198480565L189.82284413333335,278.9362558637431L193.8818692,350.90750203814895L197.9408942666667,353.0261917114365L201.99991933333337,348.22703858785326L206.0589444,348.40359606062725L210.11796946666666,334.55185978754247L214.17699453333333,337.0718164444072L218.23601960000002,356.8462533950914L222.29504466666668,370.26462132591286L226.35406973333335,344.7761425290894L230.4130948,352.929887635378L234.47211986666667,355.69060448238906L238.53114493333334,358.93284170969287L242.59017000000003,349.1740286690955L246.64919506666666,352.384164537713L250.70822013333336,359.76747703553343L254.7672452,324.3436277253386L258.8262702666667,338.8213404928038L262.8852953333333,331.9034976959329L266.94432040000004,339.33496223178264L271.0033454666667,355.1448813847241L275.06237053333336,341.64626005718725L279.1213956,340.66716861725894L283.1804206666667,345.9478421211348L287.23944573333335,348.40359606062725L291.2984708,326.33391196388146L295.3574958666667,344.8724466051479L299.41652093333335,337.87435041156164L303.475546,355.88321263450615L307.5345710666667,337.7780463355031L311.59359613333334,342.22408451353846L315.6526212,340.45850978579875L319.7116462666667,342.7537569318603L323.7706713333333,347.19979510989566L327.82969640000005,343.1550239154375L331.88872146666665,352.57677268983L335.9477465333334,337.58543818338603L340.00677160000004,340.04119212287844L344.0657966666667,342.4969460623709L348.12482173333336,355.4337936128997L352.18384679999997,343.26737867083915L356.2428718666667,344.37487554551217L360.30189693333335,332.14425788607923L364.360922,353.3311546189552L368.4199470666667,346.0922982352226L372.47897213333334,336.73475217820237L376.5379972,336.67054946083005L380.5970222666667,352.2557591029683L384.65604733333333,358.9167910303497L388.71507240000005,354.29419537954044L392.77409746666666,346.1565009525949L396.8331225333334,347.05533899580786L400.89214760000004,350.79514728274734L404.9511726666667,334.471606390827L409.01019773333337,355.2090841020965L413.0692228,343.4118347849269L417.1282478666667,345.62682853427305L421.18727293333336,348.5962042127443L425.246298,348.0504811150793L429.3053230666667,339.8485839707614L433.36434813333335,334.9852281298058" style="fill: none;" fill="none"></path></g></g></g></g></g><g><g opacity="0.45343"><span fill="rgb(0, 0, 0)" stroke="none" stroke-width="1px">Alt + Scroll to Zoom</span></g></g></g><g transform="translate(40, 377)" clip-path="url(#clip_1)"><clipPath id="clip_1"><rect width="475" height="23"></rect></clipPath><g><g><line x1="0" y1="0" x2="0" y2="5" style="visibility: inherit;" fill="rgb(0, 0, 0)" stroke="rgb(204, 204, 204)" stroke-width="1px"></line><line x1="39.63891666666667" y1="0" x2="39.63891666666667" y2="5" style="visibility: inherit;" fill="rgb(0, 0, 0)" stroke="rgb(204, 204, 204)" stroke-width="1px"></line><line x1="79.27783333333333" y1="0" x2="79.27783333333333" y2="5" style="visibility: inherit;" fill="rgb(0, 0, 0)" stroke="rgb(204, 204, 204)" stroke-width="1px"></line><line x1="118.91675000000001" y1="0" x2="118.91675000000001" y2="5" style="visibility: inherit;" fill="rgb(0, 0, 0)" stroke="rgb(204, 204, 204)" stroke-width="1px"></line><line x1="158.55566666666667" y1="0" x2="158.55566666666667" y2="5" style="visibility: inherit;" fill="rgb(0, 0, 0)" stroke="rgb(204, 204, 204)" stroke-width="1px"></line><line x1="198.19458333333336" y1="0" x2="198.19458333333336" y2="5" style="visibility: inherit;" fill="rgb(0, 0, 0)" stroke="rgb(204, 204, 204)" stroke-width="1px"></line><line x1="237.83350000000002" y1="0" x2="237.83350000000002" y2="5" style="visibility: inherit;" fill="rgb(0, 0, 0)" stroke="rgb(204, 204, 204)" stroke-width="1px"></line><line x1="277.4724166666667" y1="0" x2="277.4724166666667" y2="5" style="visibility: inherit;" fill="rgb(0, 0, 0)" stroke="rgb(204, 204, 204)" stroke-width="1px"></line><line x1="317.11133333333333" y1="0" x2="317.11133333333333" y2="5" style="visibility: inherit;" fill="rgb(0, 0, 0)" stroke="rgb(204, 204, 204)" stroke-width="1px"></line><line x1="356.75025000000005" y1="0" x2="356.75025000000005" y2="5" style="visibility: inherit;" fill="rgb(0, 0, 0)" stroke="rgb(204, 204, 204)" stroke-width="1px"></line><line x1="396.3891666666667" y1="0" x2="396.3891666666667" y2="5" style="visibility: inherit;" fill="rgb(0, 0, 0)" stroke="rgb(204, 204, 204)" stroke-width="1px"></line><line x1="436.02808333333337" y1="0" x2="436.02808333333337" y2="5" style="visibility: inherit;" fill="rgb(0, 0, 0)" stroke="rgb(204, 204, 204)" stroke-width="1px"></line><line x1="475.66700000000003" y1="0" x2="475.66700000000003" y2="5" style="visibility: inherit;" fill="rgb(0, 0, 0)" stroke="rgb(204, 204, 204)" stroke-width="1px"></line></g><g transform="translate(0, 8)"><text x="0" y="0" dx="0em" dy="0.95em" style="text-anchor: middle; visibility: hidden; font-family: Roboto, sans-serif; font-size: 12px; font-weight: 200;" fill="rgb(33, 33, 33)" stroke="none" stroke-width="1px">-5k</text><text x="39.63891666666667" y="0" dx="0em" dy="0.95em" style="text-anchor: middle; visibility: inherit; font-family: Roboto, sans-serif; font-size: 12px; font-weight: 200;" fill="rgb(33, 33, 33)" stroke="none" stroke-width="1px">0</text><text x="79.27783333333333" y="0" dx="0em" dy="0.95em" style="text-anchor: middle; visibility: inherit; font-family: Roboto, sans-serif; font-size: 12px; font-weight: 200;" fill="rgb(33, 33, 33)" stroke="none" stroke-width="1px">5k</text><text x="118.91675000000001" y="0" dx="0em" dy="0.95em" style="text-anchor: middle; visibility: inherit; font-family: Roboto, sans-serif; font-size: 12px; font-weight: 200;" fill="rgb(33, 33, 33)" stroke="none" stroke-width="1px">10k</text><text x="158.55566666666667" y="0" dx="0em" dy="0.95em" style="text-anchor: middle; visibility: inherit; font-family: Roboto, sans-serif; font-size: 12px; font-weight: 200;" fill="rgb(33, 33, 33)" stroke="none" stroke-width="1px">15k</text><text x="198.19458333333336" y="0" dx="0em" dy="0.95em" style="text-anchor: middle; visibility: inherit; font-family: Roboto, sans-serif; font-size: 12px; font-weight: 200;" fill="rgb(33, 33, 33)" stroke="none" stroke-width="1px">20k</text><text x="237.83350000000002" y="0" dx="0em" dy="0.95em" style="text-anchor: middle; visibility: inherit; font-family: Roboto, sans-serif; font-size: 12px; font-weight: 200;" fill="rgb(33, 33, 33)" stroke="none" stroke-width="1px">25k</text><text x="277.4724166666667" y="0" dx="0em" dy="0.95em" style="text-anchor: middle; visibility: inherit; font-family: Roboto, sans-serif; font-size: 12px; font-weight: 200;" fill="rgb(33, 33, 33)" stroke="none" stroke-width="1px">30k</text><text x="317.11133333333333" y="0" dx="0em" dy="0.95em" style="text-anchor: middle; visibility: inherit; font-family: Roboto, sans-serif; font-size: 12px; font-weight: 200;" fill="rgb(33, 33, 33)" stroke="none" stroke-width="1px">35k</text><text x="356.75025000000005" y="0" dx="0em" dy="0.95em" style="text-anchor: middle; visibility: inherit; font-family: Roboto, sans-serif; font-size: 12px; font-weight: 200;" fill="rgb(33, 33, 33)" stroke="none" stroke-width="1px">40k</text><text x="396.3891666666667" y="0" dx="0em" dy="0.95em" style="text-anchor: middle; visibility: inherit; font-family: Roboto, sans-serif; font-size: 12px; font-weight: 200;" fill="rgb(33, 33, 33)" stroke="none" stroke-width="1px">45k</text><text x="436.02808333333337" y="0" dx="0em" dy="0.95em" style="text-anchor: middle; visibility: inherit; font-family: Roboto, sans-serif; font-size: 12px; font-weight: 200;" fill="rgb(33, 33, 33)" stroke="none" stroke-width="1px">50k</text><text x="475.66700000000003" y="0" dx="0em" dy="0.95em" style="text-anchor: middle; visibility: hidden; font-family: Roboto, sans-serif; font-size: 12px; font-weight: 200;" fill="rgb(33, 33, 33)" stroke="none" stroke-width="1px">55k</text></g><line x1="0" y1="0" x2="475.66700000000003" y2="0" fill="rgb(0, 0, 0)" stroke="rgb(204, 204, 204)" stroke-width="1px"></line></g></g></g></g></svg>