<svg viewBox="0 0 443.66668701171875 400" xmlns="http://www.w3.org/2000/svg"><g><g><g><g><g><line x1="50" y1="377" x2="45" y2="377" style="visibility: inherit;" fill="rgb(0, 0, 0)" stroke="rgb(204, 204, 204)" stroke-width="1px"></line><line x1="50" y1="339.3" x2="45" y2="339.3" style="visibility: inherit;" fill="rgb(0, 0, 0)" stroke="rgb(204, 204, 204)" stroke-width="1px"></line><line x1="50" y1="301.6" x2="45" y2="301.6" style="visibility: inherit;" fill="rgb(0, 0, 0)" stroke="rgb(204, 204, 204)" stroke-width="1px"></line><line x1="50" y1="263.9" x2="45" y2="263.9" style="visibility: inherit;" fill="rgb(0, 0, 0)" stroke="rgb(204, 204, 204)" stroke-width="1px"></line><line x1="50" y1="226.2" x2="45" y2="226.2" style="visibility: inherit;" fill="rgb(0, 0, 0)" stroke="rgb(204, 204, 204)" stroke-width="1px"></line><line x1="50" y1="188.5" x2="45" y2="188.5" style="visibility: inherit;" fill="rgb(0, 0, 0)" stroke="rgb(204, 204, 204)" stroke-width="1px"></line><line x1="50" y1="150.8" x2="45" y2="150.8" style="visibility: inherit;" fill="rgb(0, 0, 0)" stroke="rgb(204, 204, 204)" stroke-width="1px"></line><line x1="50" y1="113.10000000000002" x2="45" y2="113.10000000000002" style="visibility: inherit;" fill="rgb(0, 0, 0)" stroke="rgb(204, 204, 204)" stroke-width="1px"></line><line x1="50" y1="75.39999999999998" x2="45" y2="75.39999999999998" style="visibility: inherit;" fill="rgb(0, 0, 0)" stroke="rgb(204, 204, 204)" stroke-width="1px"></line><line x1="50" y1="37.69999999999999" x2="45" y2="37.69999999999999" style="visibility: inherit;" fill="rgb(0, 0, 0)" stroke="rgb(204, 204, 204)" stroke-width="1px"></line><line x1="50" y1="0" x2="45" y2="0" style="visibility: inherit;" fill="rgb(0, 0, 0)" stroke="rgb(204, 204, 204)" stroke-width="1px"></line></g><g transform="translate(40, 0)"><text x="0" y="377" dx="0em" dy="0.3em" style="text-anchor: end; visibility: hidden; font-family: Roboto, sans-serif; font-size: 12px; font-weight: 200;" fill="rgb(33, 33, 33)" stroke="none" stroke-width="1px">-400</text><text x="0" y="339.3" dx="0em" dy="0.3em" style="text-anchor: end; visibility: inherit; font-family: Roboto, sans-serif; font-size: 12px; font-weight: 200;" fill="rgb(33, 33, 33)" stroke="none" stroke-width="1px">-350</text><text x="0" y="301.6" dx="0em" dy="0.3em" style="text-anchor: end; visibility: inherit; font-family: Roboto, sans-serif; font-size: 12px; font-weight: 200;" fill="rgb(33, 33, 33)" stroke="none" stroke-width="1px">-300</text><text x="0" y="263.9" dx="0em" dy="0.3em" style="text-anchor: end; visibility: inherit; font-family: Roboto, sans-serif; font-size: 12px; font-weight: 200;" fill="rgb(33, 33, 33)" stroke="none" stroke-width="1px">-250</text><text x="0" y="226.2" dx="0em" dy="0.3em" style="text-anchor: end; visibility: inherit; font-family: Roboto, sans-serif; font-size: 12px; font-weight: 200;" fill="rgb(33, 33, 33)" stroke="none" stroke-width="1px">-200</text><text x="0" y="188.5" dx="0em" dy="0.3em" style="text-anchor: end; visibility: inherit; font-family: Roboto, sans-serif; font-size: 12px; font-weight: 200;" fill="rgb(33, 33, 33)" stroke="none" stroke-width="1px">-150</text><text x="0" y="150.8" dx="0em" dy="0.3em" style="text-anchor: end; visibility: inherit; font-family: Roboto, sans-serif; font-size: 12px; font-weight: 200;" fill="rgb(33, 33, 33)" stroke="none" stroke-width="1px">-100</text><text x="0" y="113.10000000000002" dx="0em" dy="0.3em" style="text-anchor: end; visibility: inherit; font-family: Roboto, sans-serif; font-size: 12px; font-weight: 200;" fill="rgb(33, 33, 33)" stroke="none" stroke-width="1px">-50</text><text x="0" y="75.39999999999998" dx="0em" dy="0.3em" style="text-anchor: end; visibility: inherit; font-family: Roboto, sans-serif; font-size: 12px; font-weight: 200;" fill="rgb(33, 33, 33)" stroke="none" stroke-width="1px">0</text><text x="0" y="37.69999999999999" dx="0em" dy="0.3em" style="text-anchor: end; visibility: inherit; font-family: Roboto, sans-serif; font-size: 12px; font-weight: 200;" fill="rgb(33, 33, 33)" stroke="none" stroke-width="1px">50</text><text x="0" y="0" dx="0em" dy="0.3em" style="text-anchor: end; visibility: hidden; font-family: Roboto, sans-serif; font-size: 12px; font-weight: 200;" fill="rgb(33, 33, 33)" stroke="none" stroke-width="1px">100</text></g><line x1="50" y1="0" x2="50" y2="377" fill="rgb(0, 0, 0)" stroke="rgb(204, 204, 204)" stroke-width="1px"></line></g></g><g transform="translate(50, 0)" clip-path="url(#clip_0)"><clipPath id="clip_0"><rect width="393" height="377"></rect></clipPath><g><g><g><line x1="0" y1="0" x2="0" y2="377" fill="rgb(0, 0, 0)" stroke="rgb(66, 66, 66)" stroke-width="1px" opacity="0.25"></line><line x1="32.80558333333333" y1="0" x2="32.80558333333333" y2="377" fill="rgb(0, 0, 0)" stroke="rgb(66, 66, 66)" stroke-width="1px" opacity="0.25"></line><line x1="65.61116666666666" y1="0" x2="65.61116666666666" y2="377" fill="rgb(0, 0, 0)" stroke="rgb(66, 66, 66)" stroke-width="1px" opacity="0.25"></line><line x1="98.41675" y1="0" x2="98.41675" y2="377" fill="rgb(0, 0, 0)" stroke="rgb(66, 66, 66)" stroke-width="1px" opacity="0.25"></line><line x1="131.22233333333332" y1="0" x2="131.22233333333332" y2="377" fill="rgb(0, 0, 0)" stroke="rgb(66, 66, 66)" stroke-width="1px" opacity="0.25"></line><line x1="164.02791666666667" y1="0" x2="164.02791666666667" y2="377" fill="rgb(0, 0, 0)" stroke="rgb(66, 66, 66)" stroke-width="1px" opacity="0.25"></line><line x1="196.8335" y1="0" x2="196.8335" y2="377" fill="rgb(0, 0, 0)" stroke="rgb(66, 66, 66)" stroke-width="1px" opacity="0.25"></line><line x1="229.63908333333333" y1="0" x2="229.63908333333333" y2="377" fill="rgb(0, 0, 0)" stroke="rgb(66, 66, 66)" stroke-width="1px" opacity="0.25"></line><line x1="262.44466666666665" y1="0" x2="262.44466666666665" y2="377" fill="rgb(0, 0, 0)" stroke="rgb(66, 66, 66)" stroke-width="1px" opacity="0.25"></line><line x1="295.25025" y1="0" x2="295.25025" y2="377" fill="rgb(0, 0, 0)" stroke="rgb(66, 66, 66)" stroke-width="1px" opacity="0.25"></line><line x1="328.05583333333334" y1="0" x2="328.05583333333334" y2="377" fill="rgb(0, 0, 0)" stroke="rgb(66, 66, 66)" stroke-width="1px" opacity="0.25"></line><line x1="360.8614166666666" y1="0" x2="360.8614166666666" y2="377" fill="rgb(0, 0, 0)" stroke="rgb(66, 66, 66)" stroke-width="1px" opacity="0.25"></line><line x1="393.667" y1="0" x2="393.667" y2="377" fill="rgb(0, 0, 0)" stroke="rgb(66, 66, 66)" stroke-width="1px" opacity="0.25"></line></g><g><line x1="0" y1="377" x2="393.667" y2="377" fill="rgb(0, 0, 0)" stroke="rgb(66, 66, 66)" stroke-width="1px" opacity="0.25"></line><line x1="0" y1="339.3" x2="393.667" y2="339.3" fill="rgb(0, 0, 0)" stroke="rgb(66, 66, 66)" stroke-width="1px" opacity="0.25"></line><line x1="0" y1="301.6" x2="393.667" y2="301.6" fill="rgb(0, 0, 0)" stroke="rgb(66, 66, 66)" stroke-width="1px" opacity="0.25"></line><line x1="0" y1="263.9" x2="393.667" y2="263.9" fill="rgb(0, 0, 0)" stroke="rgb(66, 66, 66)" stroke-width="1px" opacity="0.25"></line><line x1="0" y1="226.2" x2="393.667" y2="226.2" fill="rgb(0, 0, 0)" stroke="rgb(66, 66, 66)" stroke-width="1px" opacity="0.25"></line><line x1="0" y1="188.5" x2="393.667" y2="188.5" fill="rgb(0, 0, 0)" stroke="rgb(66, 66, 66)" stroke-width="1px" opacity="0.25"></line><line x1="0" y1="150.8" x2="393.667" y2="150.8" fill="rgb(0, 0, 0)" stroke="rgb(66, 66, 66)" stroke-width="1px" opacity="0.25"></line><line x1="0" y1="113.10000000000002" x2="393.667" y2="113.10000000000002" fill="rgb(0, 0, 0)" stroke="rgb(66, 66, 66)" stroke-width="1px" opacity="0.25"></line><line x1="0" y1="75.39999999999998" x2="393.667" y2="75.39999999999998" fill="rgb(0, 0, 0)" stroke="rgb(66, 66, 66)" stroke-width="1px" opacity="0.25"></line><line x1="0" y1="37.69999999999999" x2="393.667" y2="37.69999999999999" fill="rgb(0, 0, 0)" stroke="rgb(66, 66, 66)" stroke-width="1px" opacity="0.25"></line><line x1="0" y1="0" x2="393.667" y2="0" fill="rgb(0, 0, 0)" stroke="rgb(66, 66, 66)" stroke-width="1px" opacity="0.25"></line></g></g></g><g><g><line x1="0" y1="75.39999999999998" x2="393.667" y2="75.39999999999998" fill="rgb(0, 0, 0)" stroke="rgb(153, 153, 153)" stroke-width="1.5px"></line></g></g><g><g><line x1="32.80558333333333" y1="0" x2="32.80558333333333" y2="377" fill="rgb(0, 0, 0)" stroke="rgb(153, 153, 153)" stroke-width="1.5px"></line></g></g><g><g><g><g><g><path stroke="rgb(255, 112, 67)" stroke-width="2px" d="M33.40920606666667,165.31917108154295L33.47481723333333,163.57150928044265L33.50762281666666,237.1627827861901L33.95377875,220.1881978705462L34.18997895,206.50921146161937L34.66894046666666,211.45983397348294L34.81984615,236.96983485546988L34.8788962,273.4850555464761L35.475957816666664,247.25916968509446L35.51532451666667,259.32840313951965L35.849941466666664,237.46928927629014L36.04021385,254.18542436239602L36.07301943333333,247.68914434217496L36.46012531666666,217.5962542409915L36.571664299999995,214.32306911430103L36.912842366666666,211.28496061907074L37.175287033333326,222.94067081212663L37.385242766666664,244.33773206797872L37.798593116666666,238.347947319733L37.89044875,226.05918263250402L37.897009866666664,234.6807183581296L38.080721133333334,224.1210761447219L38.50719371666666,206.58899064811732L38.51375483333333,205.65978826079728L38.61217158333333,194.4527084298907L38.82868843333333,239.5970016461423L38.9336663,221.33738299988633L39.34045553333333,222.1506211760388L39.3667,217.4729445647726L39.53072791666666,219.14852604931264L39.81285593333333,211.0969310497981L39.878467099999995,205.7901486927162L40.199961816666665,197.08066819587827L40.48208983333333,186.19215175304114L40.98729581666666,225.95917997581174L41.11195703333333,245.31770579715703L41.35471835,238.92185594761088L41.5712352,220.8167257983175L41.59091855,235.31895987198055L41.72214088333333,231.33306516294041L41.86648545,219.55809867130122L41.971463316666664,205.69161209905624L42.0830023,219.12522513570997L42.11580788333333,205.51368054776168L42.7128695,251.957066641687L42.82440848333333,266.28048774402134L43.014680866666666,275.8027985679609L43.40178675,252.7840240187733L43.49364238333333,278.96298940360555L43.6183036,266.92157542606367L43.96604278333333,295.63833677681635L44.06445953333333,273.38921810867595L44.274415266666665,254.50408825772868L44.56310439999999,263.9282529620695L44.66152114999999,251.52176362123873L44.98301586666666,284.09653249058243L45.06831038333333,270.624267275104L45.10111596666666,248.37373090717043L45.50134408333333,243.37418713286044L45.67849423333333,224.82561221598553L45.881888849999996,240.10335319539305L45.92125555,225.4169577872856L46.236189149999994,214.35381728916053L46.26899473333333,212.65604536781544L46.46582823333333,230.87161318372463L46.6101728,255.3332159665257L46.72171178333333,235.3299427487286L46.75451736666667,221.107084144991L47.18098995,209.01361830608118L47.19411218333333,213.70019866707563L47.305651166666664,201.49155404313564L47.38438456666666,202.48502326946144L47.61402365,190.65985662985653L47.62714588333333,181.94889656690881L48.15203521666667,185.10865055362575L48.31606313333333,177.5403395550534L48.62443561666666,174.9492097149657L48.814707999999996,207.48910596285305L49.14932495,207.53380408947075L49.372402916666665,238.15635216909277L49.470819666666664,231.44160899170924L49.92353671666666,229.31488123150757L50.0744424,256.8170486914607L50.51403721666666,236.50295840468567L50.559965033333334,224.58759860859368L50.59933173333333,249.9002467842625L51.130782183333324,252.85033996914825L51.14390441666667,263.5610945373875L51.17014888333333,240.4567683246897L51.30137121666666,224.62736580872513L51.71472156666666,212.65177856217971L51.76064938333333,201.1851883385808L52.22648866666666,189.4925986240984L52.259294249999996,167.3492582118149L52.31834429999999,159.16697860861504L52.42332216666666,180.9995873935533L52.7907447,175.16407125804616L53.00070043333333,169.72623454750794L53.09255606666666,170.71797481500727L53.11880053333333,164.84493635838737L53.5780787,166.95655022226362L53.64368986666667,172.41779098844094L53.65025098333333,165.12462024771668L53.840523366666666,191.7429705422184L54.266995949999995,187.14577301924587L54.33916823333333,192.74564838692447L54.49663503333333,186.58201723846022L54.85093533333333,197.4454314272177L55.04776883333333,205.39994092620404L55.44799695,222.01480581910315L55.55953593333333,243.95110897604144L55.76293054999999,269.8092320436864L55.80885836666667,256.9202119393269L56.20908648333334,243.5566676477908L56.333747699999996,246.43287992626296L56.43872556666666,235.3932186748183L56.7274147,216.43744008005768L56.78646474999999,199.50055798582105L57.029226066666666,205.38193578563806L57.20637621666667,195.2982323172694L57.25230403333333,214.64068117333707L57.72470443333333,206.377640601687L57.98058798333332,219.46941916525012L58.07900473333333,211.26213299470146L58.37425498333332,208.1537032663404L58.669505233333325,235.2190948746428L58.918827666666665,205.88036826711817L59.017244416666664,201.1071571589859L59.09597781666667,231.3203708345971L59.50932816666666,238.88728530569432L59.62742826666666,245.86658447194466L59.830822883333326,246.30716787661996L59.9161174,282.712514033867L60.198245416666666,259.2324775026599L60.25729546666666,236.3518046593308L60.2704177,248.1369290635583L60.61159576666666,231.87909011231022L60.775623683333336,208.39470590361003L61.19553515,199.22561978345058L61.33331859999999,211.3059201202436L61.43173535,250.39025377289857L61.556396566666656,240.3785040756772L61.9631858,230.69049378112845L62.01567473333333,241.8161532727871L62.25843605,226.88718794749224L62.36997503333333,216.0248507930505L62.42246396666666,211.90748316744313L63.05233116666667,211.75600587127047L63.058892283333336,224.37031118714975L63.091697866666664,203.92537860059102L63.59690385,202.7580539554182L63.66251501666667,192.86440030746587L63.68875948333333,190.89367645029705L63.78717623333333,183.8876439294966L64.35799338333334,191.54513670205012L64.3645545,221.7936878275044L64.71229368333333,219.27352310126068L65.04034951666667,226.10650967777937L65.15844961666666,230.3325992621655L65.24374413333334,221.11605379863224L65.39464981666666,209.14502705082234L65.8211224,239.31433744451584L65.88017244999999,235.7777552756988L66.07044483333333,217.95194347344258L66.31320614999998,233.6286615169393L66.38537843333333,226.54742991603698L66.64126198333334,207.5044627878669L66.78560655,194.50665797698522L66.83809548333333,187.50638585256834L67.08741791666667,177.61791360403356L67.10054014999999,178.05066363138732L67.25800695,168.86936443143065L67.54669608333333,177.10563473716934L67.56637943333332,169.36806591341747L67.61230725,159.39279415160829L68.20936886666667,169.48434319705322L68.2618578,168.92449573264784L68.33403008333333,152.67941115331826L68.3799579,190.0922269482913L68.84579718333333,182.85867378317218L68.87204165,163.85694862121312L69.1672919,161.66785316183376L69.20009748333334,168.17146247370783L69.33131981666666,166.667572487452L69.64625341666667,171.03893101581687L69.73154793333333,165.48763171403039L69.76435351666666,184.1806679355573L69.84964803333332,181.8685097835333L70.49263746666666,174.41388045478817L70.53200416666667,170.16771120266444L70.59105421666666,177.35042471775495L70.89286558333333,177.64299854647618L70.99128233333333,172.8054181959594L71.05689349999999,170.7143892748871L71.35214375,184.65506701015363L71.51617166666666,176.15040125098986L71.6080273,195.71641148401665L71.73268851666666,215.315285759543L71.85734973333332,201.72928924982264L72.41504465,218.62873716797515L72.48721693333333,210.42013852412143L72.63812261666666,206.52645186549773L72.92025063333332,189.46741100743554L73.06459519999999,181.08845299273733L73.19581753333333,174.1928509723147L73.20237865,164.51667370884934L73.43857885,155.617038905437L73.66165681666665,179.0570863614785L74.06188493333333,170.02252366574268L74.35713518333333,181.8688130426329L74.44899081666665,175.1929137378591L74.54084644999999,182.70138170746094L75.06573578333334,195.2531886046614L75.10510248333333,202.32261947755146L75.43315831666666,185.39408373629183L75.65623628333333,185.475755783908L75.79401973333333,178.27281047729508L75.97773099999999,179.11321392177254L76.42388693333332,171.37410439808284L76.67977048333333,171.48122450708308L77.02750966666666,147.94067657294485L77.07343748333334,143.85922977218974L77.27027098333333,150.72265215802585L77.57864346666666,153.43506487275155L77.75579361666667,157.19375540323676L78.05760498333333,194.14196927683253L78.07072721666667,187.04337298790762L78.40534416666665,180.07227838559024L78.60873878333332,176.5188959901393L78.70715553333332,171.41325409758198L78.90398903333332,168.65209852633325L78.92367238333334,168.43767174642457L79.00240578333333,170.53047311178327L79.17955593333333,167.83784100661177L79.50761176666666,168.5218022408746L79.54697846666666,160.1482908822367L79.66507856666666,159.71503274996505L79.85535095,161.72463429670697L80.09155114999999,151.31741496420923L80.09811226666666,150.33538923292033L80.1112345,148.51819662390378L80.74766281666666,148.1711972305093L80.85264068333333,160.0550542755632L81.24630768333333,155.60884694040965L81.35784666666666,162.6567148917601L81.37753001666665,168.6080424008006L81.45626341666666,179.68736763111025L81.71870808333333,186.55794961460606L81.97459163333332,191.05797148232375L82.07300838333333,179.5767425857123L82.22391406666667,201.94782721568242L82.25671965,184.49763997952962L82.50604208333333,178.57099616008213L82.55196989999999,177.56010664199644L83.01124806666667,174.45878233329137L83.03749253333332,184.0594724164978L83.15559263333333,173.57885644216205L83.77233759999999,184.92297153406295L83.79858206666667,188.97872419632802L83.89043769999999,168.0579306576479L84.31034916666667,164.34839272922736L84.4415715,154.32938920954814L84.47437708333332,149.91183584656372L84.92053301666667,148.61772645216075L85.02551088333333,153.2840211102336L85.032072,162.87707391006438L85.03863311666666,163.73660253828768L85.3076389,157.32779106528884L85.83908935,162.92109221854966L85.90470051666667,158.74262707988765L86.213073,152.9977270262711L86.5280066,156.48737390282727L86.8035735,189.01738607003318L86.94135694999999,186.36005941123025L87.20380161666667,172.22880027728885L87.2366072,171.44036517971176L87.45312404999999,182.6654283518537L87.46624628333333,177.20642759953722L87.57778526666667,172.95120855915184L87.93864668333332,180.74233485174028L87.95833003333333,178.9936563662879L88.10923571666666,175.8558137697798L88.60131946666667,173.32530933684734L88.86376413333333,165.50018905835108L88.89000859999999,160.44964532971213L88.90969195,160.02362218802412L89.0868421,159.76794214581372L89.43458128333332,165.1653361021127L89.61829254999999,169.13281528771822L89.62485366666665,174.65137651704515L89.67078148333333,183.87023024551254L89.89385945,176.92495926239573L90.37938208333333,187.65938285441496L90.56309335,198.8211947371599L90.56965446666666,184.69696444053875L90.78617131666665,176.59363958738737L91.06173821666667,184.47900623900154L91.26513283333333,177.54513634023914L91.33730511666667,178.47533699172143L91.724411,169.70356436756347L91.75721658333333,169.06497698148837L91.97373343333332,172.14494213575077L91.99997789999999,174.37441754975205L92.41332824999999,174.47645570139966L92.56423393333333,170.49624253753214L92.83980083333333,168.08170971611088L92.90541199999998,167.73426049504846L92.95133981666666,164.929694080451L93.67962376666665,177.40163676214945L93.94206843333333,189.3195676794054L93.99455736666665,178.7435309099008L94.37510213333333,193.73183132381502L94.48664111666666,182.84327412380495L95.06401938333333,183.7155109530316L95.40519745,187.29220342047296L95.64795876666666,177.09730680571994L95.98257571666666,210.33002387111765L95.98913683333333,197.8229588482523L96.54027063333332,190.5024924053375L96.73710413333333,192.28090686731375L96.83552088333333,209.11020196073142L96.99298768333333,198.726290811694L97.08484331666666,202.09809319683478L97.61629376666666,212.93364245952122L97.68190493333333,232.0861645819164L97.83937173333332,240.38590616541845L97.91154401666667,222.9529541222988L98.16742756666666,207.96559578221874L98.24616096666665,197.15597250459277L98.4561167,189.2200248882679L98.5348501,182.45618389750595L98.60702238333333,174.68919160278998L98.64638908333332,170.62506402665588L99.15815618333333,165.1671245105186L99.37467303333332,176.983879645754L99.48621201666666,186.356524485487L99.53213983333333,190.39267154920765L99.72241221666667,188.65716818784918L99.91924571666667,183.46722461864343L100.37196276666667,186.811354118732L100.47037951666665,179.32383472599L100.57535738333333,174.09602425380268L100.96902438333333,174.03494751427826L101.17241899999999,175.32644054760954L101.49391371666667,173.47078287651442L101.79572508333332,172.10224333501196L101.81540843333332,163.52330023878653L102.01224193333333,158.55012090742005L102.12378091666666,154.33109605921032L102.57649796666666,158.12088344710025L102.60930354999999,174.7234634232544L102.87174821666665,171.8444911689453L103.27853745,170.9204594153652L103.31790415,188.37374254515447L103.48193206666667,185.50905267249553L103.76406008333333,173.05648355143842L103.88216018333334,169.5874010612485L104.33487723333333,165.8860809687406L104.3611217,170.70979203030876L104.85320544999999,177.3880884037572L104.9122555,193.74010085758133L104.92537773333333,185.6224706627745L105.109089,201.5422923109854L105.45682818333331,217.87671211384435L105.48963376666667,213.57216449388793L105.81768959999998,250.58952464423228L106.06701203333334,233.4459743907553L106.25072329999998,228.18058504025424L106.33601781666665,213.3185076619394L106.80185709999999,202.4733984234601L107.1167907,202.12078630769142L107.14303516666666,198.62428297952613L107.29394085,191.0978552064382L107.53014105,207.85807867543053L107.53670216666666,191.5658370912062L107.70073008333333,182.15464346171174L108.08783596666666,175.38942620105402L108.13376378333332,167.44735676171828L108.29779169999999,158.44990853380747L108.57991971666665,154.3450692220664L108.652092,159.64151123444097L108.80299768333332,161.51254536980258L108.96702559999999,165.24523143525042L109.1244924,166.86651489405128L109.32132589999999,174.22612127780755L109.74779848333333,170.71664369602456L109.81340964999998,174.56673604860356L110.15458771666665,171.0715968041565L110.2661267,168.451994436396L110.50888801666666,174.94232219036135L110.73196598333332,161.77209338056682L110.8566272,159.0344832021565L111.35527206666666,175.67182188847138L111.6833279,177.9312337394056L111.80798911666665,171.8493764973251L111.82111135,181.08658643177031L112.09667825,179.75908117832503L112.22133946666666,168.50529522148744L112.36568403333332,171.62346760009683L112.55595641666666,163.47232224621024L112.79215661666665,156.34023653758L112.85120666666667,142.45028601578056L113.06772351666666,137.19643388110535L113.13333468333332,140.71623721746337L113.25143478333334,140.43634578513107L113.52700168333332,155.73976013836622L113.88130198333333,160.73515559038566L114.36682461666665,184.03696954300642L114.47180248333332,177.42631099902374L114.64239151666666,157.67510775947878L114.85890836666667,151.52615827047217L115.08198633333332,146.03123657925252L115.48221444999999,136.72073436864946L115.61343678333333,144.84408994491662L116.0136649,151.5509335339295L116.2892318,148.46391155359862L116.52543199999998,148.98044593237657L116.68289879999999,153.15231350553705L116.81412113333333,154.0982752653486L116.86661006666665,179.45985991780682L117.12905473333332,170.3421935978026L117.35213269999998,164.1039637145993L117.37181605,191.25835093371558L117.74579969999998,184.40361623527664L118.22476121666666,179.47142389549586L118.34942243333332,166.90517207728814L118.68403938333333,168.20250986079117L118.69716161666665,167.16991332819043L118.78901725,199.19806483171917L119.16956201666667,184.9233815610806L119.52386231666665,175.51754328847392L119.93721266666665,166.45179216220373L119.9503349,158.10276590886616L120.28495184999998,162.08728679470832L120.46866311666666,163.42836263615325L120.72454666666665,161.5476901186985L120.75079113333334,159.2312233489784L120.75735225,155.9113633304398L121.34129163333334,157.5161563932136L121.40034168333332,151.5480851871513L121.55780848333333,171.86063698165918L121.57749183333333,172.23650680442464L121.90554766666665,172.99708620939688L122.14174786666666,169.40205040663236L122.27953131666665,159.1157301512548L122.43699811666666,168.23855426868317L122.75193171666666,188.36657629566292L122.79785953333332,173.22831045009463L123.32274886666667,167.82938658376787L123.34899333333333,156.67082505366355L123.51302124999998,181.5242596393756L123.93949383333333,175.1148738513429L124.04447169999999,172.24866844302286L124.45126093333332,175.8400634443136L124.56279991666666,174.24276649108688L124.90397798333332,174.37129622767662L124.95646691666667,162.219626687203L125.25827828333333,165.7597485511612L125.44855066666665,159.34079636028605L125.57977299999999,166.72902456740383L125.87502324999998,158.46476827911522L126.09810121666666,151.20630423286985L126.11122345,159.39876551609422L126.32117918333333,149.84729327448352L126.77389623333333,141.85828164272584L126.83950739999999,164.5806696383514L126.87231298333332,163.12228238269387L126.97729084999999,171.75331861213022L127.25941886666665,164.598467161353L127.43656901666665,167.28452865350005L127.58091358333333,162.92266651651997L127.73838038333334,161.9398024051398L128.04675286666665,152.363566899226L128.05987509999997,173.8584166902135L128.6110089,204.08825016519745L128.89313691666666,194.76347290550262L129.74608208333333,168.9036130882574L129.77888766666666,162.49500916396875L130.15943243333334,155.19306184846073L130.36938816666665,172.63115957470987L130.61214948333333,167.40192892659311L130.74337181666667,165.26007737927492L130.97957201666665,163.07743441894638L131.07798876666666,165.93104293568445L131.46509465,162.4082657802797L131.5241447,158.3762792181281L131.80627271666665,163.1248299575419L131.89812835,155.33368484449986L132.03591179999998,177.53576102049172L132.31147869999998,164.71018390298497L132.4689455,162.1250058306276L132.84292915,162.78503150046083L132.91510143333332,163.11126218262226L133.24315726666666,159.2957896425944L133.43342965,154.64281721603177L133.7286799,153.5610257403065L133.9255134,149.85832856281098L133.9780023333333,149.15600226242393L134.1223469,159.82390578240071L134.28637481666667,159.6201993934417L134.78501968333333,159.96851319073883L134.8309475,159.51225491479835L135.00809764999997,167.68680744845787L135.39520353333333,171.94933075727866L135.47393693333333,165.3721248949176L135.53298698333333,167.0084338217776L135.7495038333333,186.37914018320527L136.20222088333333,188.71031431069628L136.45810443333332,181.21161371680634L136.60901011666664,176.924254432163L136.8386492,172.3556508310941L136.89769925,162.69417327074683L137.06828828333332,153.01482119902025L137.63910543333333,163.02913988525972L137.69159436666666,153.29294014441757L137.73096106666665,137.61076687431785L137.92123345,137.7490489528006L138.30833933333332,141.3820270575354L138.65607851666667,144.36862858277925L138.95132876666665,168.87619552689262L138.99069546666664,167.87261459858627L139.57463484999997,188.6749506922356L139.65336825,188.4778455823346L139.88300733333332,183.98559157757734L140.0667186,173.97157245687904L140.4210189,166.35918454043014L140.68346356666666,151.9330393055085L140.70314691666667,150.76116007818223L140.72283026666665,161.60401116512463L141.03776386666667,162.20960086466516L141.59545878333333,165.51590941065305L141.60858101666668,158.86904345634287L142.21876486666667,151.58421083086193L142.24500933333331,146.97745282673995L142.48120953333333,150.4223432646488L142.93392658333332,143.6289941279285L143.45881591666665,138.7818345011956L143.53754931666666,139.1229710352589L143.8065551,139.9845311082547L144.42330006666666,136.2533615685882L144.61357245,176.44132842133027L144.92850604999998,167.13389129127938L144.9481894,157.59277175693074L145.59773995,143.9299106591204L146.11606816666665,150.984051464239L146.24072938333333,149.83952163606895L146.94932998333334,152.64079050110522L147.0674300833333,143.7756610440325L147.41516926666665,140.7276683637016L147.50046378333332,144.2132243398047L147.63168611666666,135.04400276121146L148.05815869999998,142.7362942936174L148.2877977833333,161.97018515855595L148.2943589,158.36488646019768L148.62897585,147.47050882362484L148.63553696666665,148.90899325261296L149.09481513333333,144.22461285864614L149.48192101666666,160.26164456944332L150.03305481666666,153.4764278604197L150.09866598333332,140.12267688011931L150.12491045,135.97765432874428L150.69572759999997,151.9137216120595L150.89256109999997,146.03277977800232L151.10907795,141.60494542808996L151.22717805,144.79664552885657L151.92265641666665,134.36297653582562L152.09980656666667,139.72611564545466L152.15229549999998,140.986680938533L152.43442351666664,126.2568068670961L152.69030706666666,140.9339456940264L152.99867955,149.1655015026705L153.32017426666667,143.2083896383813L153.35954096666666,149.146590331434L153.41859101666665,141.93892893194914L153.91723588333332,142.09017862251562L154.19280278333332,145.05377063291334L154.77674216666665,143.99318607374988L154.88172003333332,151.02991986898454L155.104798,147.99803475087617L155.50502611666667,152.05375114483545L155.5378317,153.389880423747L155.62968733333332,152.24835431930475L155.83964306666664,151.61603404565437L156.50231585,164.2367598001006L156.52856031666667,191.26374338639263L156.73851605,195.3175217786766L157.13874416666667,183.6365050553792L157.34213878333333,198.0320854296749L157.74236689999998,184.96789587139847L157.88015035,167.37789746094225L157.96544486666664,158.99011303839498L158.11635055,170.52809689874903L158.56250648333332,171.36401272987987L158.82495114999998,162.3938616251146L158.87744008333334,158.99523084851643L159.20549591666665,153.07870013820434L159.59916291666664,158.35402076332053L159.75662971666665,176.58021923591488L159.86816869999998,160.1656936280834L159.93377986666667,160.1308618586331L160.60957488333332,142.6945683251818L160.72111386666666,140.73594086865845L160.90482513333333,144.15267668200596L161.36410329999998,160.95710749435324L161.98084826666664,157.15977751844707L162.15799841666666,160.39943951026225L162.24329293333332,189.8956482194911L162.81411008333333,196.57338249997875L163.39148834999997,183.01432564503642L163.52271068333332,166.04822004071298L164.03447778333333,160.98423212484116L164.24443351666667,142.29444037624015L164.40846143333334,188.7515868865324L164.44126701666667,168.72711101524325L164.76276173333332,155.1947297183521L166.02249613333333,150.28961084093325L166.08154618333333,147.98083593087736L166.19964628333332,159.46500705895352L167.3215972333333,162.26439036834483L167.45938068333334,185.0194466817327L167.50530849999998,173.45549549401912L167.5381140833333,179.81090802302828L168.25327579999998,169.47790730468918L168.7650429,162.17490619820452L168.92907081666664,178.84859226031017L169.38834898333332,205.7042865838289L169.68359923333333,206.5675724931785L169.89355496666664,201.28708523250287L170.00509395,187.76409679753743L170.27409973333332,164.6367582808138L170.4184443,146.49951201442605L170.56278886666666,158.99959779892686L170.64152226666664,163.7815631673673L170.79898906666665,160.34038488839883L171.38292844999998,152.4259546446447L171.44197849999998,148.1813027543983L172.11121239999997,136.63313880306313L172.39334041666666,126.0529037345765L172.43270711666665,128.41523115657284L172.68202954999998,120.37749137967911L173.28565228333332,117.642166532465L173.607147,117.99909559722533L174.02705846666666,125.44343869245183L174.81439246666665,126.64794203266297L174.88656475,124.85189484446276L175.95602676666667,158.2676782474928L176.16598249999998,175.9983129287366L176.53996615,169.63655122643002L176.74336076666665,149.8625904986932L177.15015,147.98528071534662L177.85218948333332,157.55610843182822L178.5804734333333,164.0567170433486L178.81011251666666,162.04001104541248L179.01350713333332,149.55434275116252L179.17753505,175.7416615488072L179.42029636666666,154.00607842171107L179.95174681666666,154.93484171126627L180.42414721666665,145.52499723111438L180.47007503333333,136.77573373872542L181.30989796666665,122.67653591059114L181.39519248333332,120.45626720609188L181.57890375,139.97920425918846L182.00537633333332,135.8519057270523L182.13003755,136.5784334977908L182.1890876,136.79791998165138L182.68117135,143.05246763563562L182.91737154999998,131.7842299709296L183.21918291666665,126.50880676242633L183.43569976666663,140.15016649953745L183.99339468333332,131.79776429113028L184.12461701666666,127.89544867959306L184.21647265,139.52285150702878L184.6691897,134.60567245214978L184.74136198333332,143.68341305702452L185.3909125333333,133.9987420832121L185.65991831666665,147.75723606949305L185.68616278333332,134.89117159657042L185.6927239,136.68841594853677L186.4406912,132.46521914230172L186.51942459999998,135.31606240546304L187.12960844999998,137.76001767799673L187.53639768333332,126.16477980082243L187.69386448333333,140.5578885680188L188.16626488333333,164.66415873061013L188.49432071666666,150.53185941904061L188.53368741666665,140.80908416259203L189.26197136666667,137.57142172723175L189.31446029999998,127.62637785272943L190.04930536666666,124.40640242679841L190.16740546666665,113.57328483409792L190.62012251666667,147.87645369251405L190.79071155,138.81341042420033L191.13845073333331,187.59352684819092L191.23030636666667,175.55806886844954L192.10949599999998,165.78299452127865L192.29976838333332,163.0386973445522L193.46108603333332,166.0045916751729L194.49118134999998,164.48432606633898L194.95045951666665,160.16686496978573L195.71154904999997,144.93785916961394L196.40702741666666,131.99860315353905L196.76132771666667,127.32282795793938L197.35182821666663,108.87319927718855L197.45680608333333,99.21183796047698L197.77830079999998,99.40761776979353L198.05386769999998,104.00838760221691L198.53282921666664,134.3805741525558L199.37921326666662,134.16247798580105L199.6285357,142.06055426680447L199.96315264999998,143.68429589362475L201.01293131666668,147.8923337618391L201.26225374999999,144.14167843294828L201.68216521666665,142.35132613431915L202.14800449999996,133.69628874623808L202.67289383333332,122.21260738363722L202.96158296666664,110.36909534572092L203.04031636666667,125.1033915435281L203.15185534999998,119.41296984600355L203.7161113833333,114.35608843042115L204.43127309999997,110.65159880000883L204.49032314999997,110.39852137923266L204.99552913333335,115.17217182471963L205.35639054999996,109.25556140369136L205.3760739,139.7758295314283L206.1568467833333,137.81621959758618L206.281508,134.7270578680495L206.41929144999997,126.47113362240114L206.78671398333333,128.42102577482726L207.28535884999997,121.03271556313189L207.4953145833333,122.41320029708977L207.57404798333332,122.00715440344388L208.47292096666663,122.63655090171949L208.57133771666668,120.4436797205324L209.61455526666666,109.24138967898294L210.25754469999998,114.11743874709293L210.77587291666666,116.4381702609305L211.81252935,115.46009244608943L211.82565158333333,109.23442818982082L212.68515786666666,108.77908728486106L213.05258039999998,111.60017639654743L213.35439176666668,107.17145018321527L214.154848,130.44996236993777L214.26638698333332,127.53838736116806L214.27950921666667,123.3879361073063L215.1718210833333,118.38816080791442L215.4145824,107.65318911130488L215.729516,110.79517026602115L216.03132736666663,102.57409428249838L216.48404441666668,100.8509978246006L216.57590005,103.50461701726714L217.0286171,123.23022089534022L217.5535064333333,117.33685872169158L217.73065658333334,116.06399326806701L217.81595109999998,114.68360824140359L218.05215129999996,110.33453095390934L218.3802071333333,97.68466260674239L218.60984621666665,105.16927306517819L218.76731301666663,110.15796453928851L219.1478577833333,112.33374108425917L219.75148051666667,123.01200930497411L219.9745584833333,122.27286612195367L220.02048629999996,116.68946455189061L220.39446994999997,109.57479449433346L220.49944781666667,109.13904218869442L220.86687035,114.44279749647764L220.9259204,105.45364518884394L221.07026496666666,99.25420924887112L221.78542668333333,99.4547090390506L221.81167115,103.85162965355799L222.5005884,101.14988499273937L222.67117743333333,93.61077465652379L222.97954991666666,94.65593727445426L223.33385021666666,93.40989885933735L223.43226696666665,96.59238324930068L223.62253935,92.50983062396931L224.35738441666663,103.46624978429003L224.60670685,106.78250837257299L224.69200136666663,109.44690522327286L225.26937963333333,105.92061410965695L225.6499244,104.08973597924606L226.39789169999997,101.17413330295295L226.4766251,100.17858865148266L227.36237584999998,102.3611620226321L227.68387056666666,94.10816762377863L228.50401015,96.42699467615157L228.98953278333332,91.77268246536516L229.48817764999998,86.73660377296052L229.94745581666663,91.54475329059093L230.25582829999996,88.76139951058286L230.3280005833333,92.29510858182303L231.25311803333332,85.61060784257361L231.39746259999998,87.33089999352377L231.90922969999997,91.94531466888682L232.0273298,102.81395852547934L232.04701315,102.41201993883915L233.1689641,96.79181877859419L233.43140876666664,114.17350840327221L233.98910368333333,110.62068677072266L234.45494296666666,103.8101027047018L234.5074319,111.1909998998189L236.2330055833333,103.26157443891664L236.26581116666662,113.4576964077182L236.46920578333334,118.90363998044265L237.51242333333334,117.61976042055863L237.8273569333333,116.34404972785106L238.12260718333332,120.32862915898329L238.81808555,128.8431627232248L238.86401336666665,116.79387258322387L239.00179681666663,118.63153387760464L240.28777568333334,104.02935053522633L240.55678146666665,94.64403756856376L241.50814338333333,88.98655603820549L241.52126561666665,90.38772905288856L242.5710442833333,99.64073811857003L243.66675076666664,110.51568255924909L244.7952628333333,126.09860241608874L244.92648516666665,126.63939083917118L245.4251300333333,104.01575415291094L245.50386343333332,119.89867557211481L246.85545346666666,115.84361962589757L246.97355356666662,112.76248234527424L247.62310411666664,104.99508179809075L247.9314766,132.98932910083576L248.48261039999997,136.01727699220777L248.61383273333328,125.2639709345184L249.68329475,125.43792676088948L250.0900839833333,134.45753993682467L250.49687321666664,129.1639951017058L250.5428010333333,130.621889716799L251.73036314999996,139.20317283675948L252.16995796666663,137.63296895337302L253.30503114999996,126.68611689749977L253.35095896666664,140.64192745238597L253.65933144999997,137.16562281008743L254.52539884999996,135.46556605803366L254.5582044333333,135.16898441365944L256.30346146666665,121.43868455324207L257.28106784999994,117.83504208757927L258.3702132166666,131.92808123883503L258.68514681666665,126.14700578447652L259.3150140166666,115.91625986026402L259.8989534,104.72240591125852L260.2860592833333,105.23980268374315L260.3319871,103.1927279056643L261.2308600833333,105.27908287147218L262.35937214999996,102.54964999518764L262.67430575,97.37489718879257L262.87113924999994,83.59568806917942L263.30417294999995,85.81974064161707L263.78969558333335,98.94469268456237L265.0166244,108.88026887868791L265.4430969833333,112.46536013363277L265.92861961666665,103.57474261747464L265.94830296666663,103.28165592683717L267.4179931,130.6996575548525L268.29062161666667,121.28787821279954L268.3627939,114.64233367043873L268.58587186666665,120.12468850906082L269.1435667833333,112.34617885854193L269.65533388333336,112.62003810319221L270.23927326666666,102.10086611935749L271.0134850333333,84.0576664074486L271.59086329999997,85.96828360942051L272.92276998333335,93.40055370997786L273.1261646,95.66622695216267L273.87413189999995,106.92973520886214L274.8517382833333,84.11202626944227L275.09449959999995,92.01780539456887L275.43567766666666,85.18312699216972L276.26237836666667,83.00384983474386L276.49857856666665,83.59208800563134L276.55762861666665,83.03690701306289L277.01034566666664,73.4485856493922L277.6927018,83.91383128003353L277.75175185,97.32736140936035L278.12573549999996,98.68883329023679L278.81465275,88.57665168648185L279.09678076666665,85.89859591508976L279.4379588333333,90.65752562356194L280.15968166666664,80.38497834808034L280.50742084999996,77.1920279348766L281.6752996166667,78.03143078968715L282.73163939999995,77.14717092726357L282.91535066666665,72.97701075729347L283.02688965,120.83963504229538L283.90607928333327,113.14749024693417L284.6343632333333,103.46070037543241L284.9099301333333,101.71026983772467L285.3757694166666,88.67908677281375L286.25495904999997,113.65565110014974L289.45022286666665,104.29845753633917L289.4764673333333,92.91491704666805L290.02760113333335,100.00342643364252L290.8083740166667,106.7756727770572L292.82919795,108.36216715004244L293.53779855,109.67797620724924L294.52196604999995,109.18359065651322L295.01404979999995,111.21096929356969L295.03373314999993,130.77371936276532L295.62423365,127.8220078850471L296.4443732333333,120.25903142023638L296.45093434999995,122.76780765800734L297.2579517,120.73037345230466L297.8615744333333,125.68713379661608L297.8943800166667,130.56566608639477L298.26180254999997,141.78494283615157L298.43895269999996,132.58426920587988L299.2394089333333,131.41234560695426L299.54122029999996,119.13308124985124L299.67244263333333,101.16593310085577L300.82063804999996,94.8843421287616L300.89281033333333,96.01717368013641L301.3520885,94.21372187989434L302.1066169166666,85.82493735299765L302.86770644999996,96.73535357771658L302.8873898,92.72588390576504L303.81906836666667,94.59947840976491L305.62337544999997,89.88734507444202L305.8005256,78.39991101822643L306.2269981833333,78.65728948276181L306.64690965,77.95419678503919L307.3358269,81.36117289595816L307.5457826333333,87.31637400144233L308.18221095,80.29209546700324L309.03515611666666,91.06267345817145L309.63877885,99.04439583057916L310.3801850333333,77.98562885431063L310.38674614999996,90.59036546527155L311.2396913166666,89.18547129027122L312.08607536666665,84.64777760750003L313.20802631666663,84.03809729200388L314.5136885333333,84.19691903528687L314.68427756666665,98.29894899151621L315.51097826666665,94.28990600854036L316.7575904333333,93.51713841086838L316.7772737833333,92.47752971964219L317.1118907333333,93.44700401314785L317.2890408833333,99.85751331250907L317.9910803666666,103.07211223877346L318.1157415833333,93.32445744513502L318.6406309166666,89.44527604731734L319.44108715,99.08724098880054L319.59855394999994,92.3778120582112L319.7297762833333,97.10307949359297L320.88453281666665,100.98164506112656L321.6325001166666,98.72724819106298L322.28205066666663,97.20346840156553L322.98409015,89.41541549618499L323.87640201666665,89.0239067355633L324.3028746,91.58423168443855L325.0574030166666,94.41382781227338L325.24111428333333,85.43876379257476L325.9103481833333,84.27508927244669L326.19903731666665,81.39216317784062L326.2187206666666,84.85955762088996L327.4128439,91.65151253395125L328.8431673333333,87.38462706920811L329.67642915,86.42424389839765L329.81421259999996,100.2908176866122L330.94272466666666,99.16586901786457L331.073947,90.92878267424429L331.1001914666666,90.12804222460161L331.1067525833333,82.80790930224565L331.7956698333333,75.2843358793024L332.6945428166666,82.72508194660949L332.96354859999997,81.15421797076164L333.6262213833333,80.29714828620378L334.08549955,79.66174689802148L334.44636096666665,75.56683874871054L334.82034461666666,73.5918315699344L335.05654481666664,77.14552706718418L335.10247263333326,76.79150650107553L336.5393571833333,94.14796640704718L338.67172009999996,108.97051668883087L339.2622206,105.01023148229993L340.4366604833333,113.95774822388145L340.79096078333333,118.28707275359253L341.2174333666666,100.97466603874673L341.31585011666664,91.51077339560591L342.7396124333333,89.85672674973443L342.9364459333333,87.32836911852606L343.8681245,79.72416841613769L344.1568136333333,85.51748958971923L344.2355470333333,74.97390667502589L345.1672256,78.74475533340224L347.37176079999995,87.56091887918454L350.42924116666666,79.64763397752357L351.59055881666666,71.63930377571104L351.72834226666663,59.88646722001558L352.49599291666664,64.0592856707996L353.93287746666664,60.21043935326961L354.0378553333333,65.43070672116352L354.2281277166667,70.79459919791677L355.39600648333334,67.77821344427731L355.6059622166666,92.77453718223167L356.2292683,90.19351228590523L356.40641845,87.50316239931175L357.90891416666665,95.04719123249895L359.2670653166666,112.225787502713L359.7329045999999,105.56226382744713" style="fill: none;" fill="none"></path></g></g></g></g><g opacity="0.2"><g><g><g><path stroke="rgb(255, 112, 67)" stroke-width="2px" d="M33.40920606666667,165.31917108154295L33.47481723333333,162.15240789794922L33.50762281666666,345.4408615112305L33.95377875,186.12476654052733L34.18997895,173.1124334411621L34.66894046666666,225.29420135498046L34.81984615,315.5689498901367L34.8788962,394.49142858886717L35.475957816666664,155.3936865539551L35.51532451666667,303.45736468505856L35.849941466666664,154.82149632263184L36.04021385,319.0793942260742L36.07301943333333,221.93608489990237L36.46012531666666,96.29200471496581L36.571664299999995,200.951561706543L36.912842366666666,198.7401382446289L37.175287033333326,271.4852381591797L37.385242766666664,334.07439434814455L37.798593116666666,213.08645629882812L37.89044875,173.99718920898437L37.897009866666664,271.3401815185547L38.080721133333334,179.08748306274413L38.50719371666666,131.6405926208496L38.51375483333333,201.67979022216798L38.61217158333333,146.374426361084L38.82868843333333,433.5131145629883L38.9336663,142.8224024963379L39.34045553333333,225.6504230957031L39.3667,197.32865475463865L39.53072791666666,226.36836602783205L39.81285593333333,176.38818469238282L39.878467099999995,182.90537890624998L40.199961816666665,159.51111837768553L40.48208983333333,139.21174850463865L40.98729581666666,397.57441143798826L41.11195703333333,328.87294946289063L41.35471835,211.31254980468748L41.5712352,142.6531908416748L41.59091855,297.93336206054687L41.72214088333333,214.12250448608398L41.86648545,168.7125277404785L41.971463316666664,145.81191769409182L42.0830023,277.1377760620117L42.11580788333333,146.73098175048827L42.7128695,452.53194079589844L42.82440848333333,328.1402109375L43.014680866666666,316.9282346191406L43.40178675,153.3680881500244L43.49364238333333,392.0286871337891L43.6183036,214.9148395690918L43.96604278333333,419.66657922363277L44.06445953333333,177.29430548095706L44.274415266666665,172.9380157165527L44.56310439999999,304.63196911621094L44.66152114999999,197.93698834228513L44.98301586666666,424.79031848144535L45.06831038333333,212.43604846191408L45.10111596666666,152.27102252197267L45.50134408333333,221.78053558349606L45.67849423333333,144.71192401123048L45.881888849999996,306.0899448242187L45.92125555,161.98442153930665L46.236189149999994,166.57058374023438L46.26899473333333,205.323130279541L46.46582823333333,309.5472354736328L46.6101728,360.9863819580078L46.72171178333333,148.9329192352295L46.75451736666667,159.67649307250974L47.18098995,156.78017515563963L47.19411218333333,233.9422256164551L47.305651166666664,148.76062420654296L47.38438456666666,206.77596319580078L47.61402365,139.58521643066408L47.62714588333333,144.324972076416L48.15203521666667,198.75609585571286L48.31606313333333,144.85168254089356L48.62443561666666,163.75773551940918L48.814707999999996,348.03374896240234L49.14932495,207.7268619384766L49.372402916666665,370.419688659668L49.470819666666664,202.43963482666015L49.92353671666666,220.12922772216797L50.0744424,375.60300146484377L50.51403721666666,148.76337968444824L50.559965033333334,173.12338632202147L50.59933173333333,359.22934197998046L51.130782183333324,265.59223159790037L51.14390441666667,309.8224381103516L51.17014888333333,140.66574343872068L51.30137121666666,156.25781938171386L51.71472156666666,160.92743402099612L51.76064938333333,151.65927766418457L52.22648866666666,138.99056243896484L52.259294249999996,71.70887339782715L52.31834429999999,123.82649447631837L52.42332216666666,275.29787615966796L52.7907447,149.95960800170897L53.00070043333333,146.2394079437256L53.09255606666666,175.00144873046875L53.11880053333333,139.47840858459472L53.5780787,176.07692498779298L53.64368986666667,196.00570321655275L53.65025098333333,133.62432962036135L53.840523366666666,306.71158984375L54.266995949999995,167.2897922363281L54.33916823333333,216.9323441162109L54.49663503333333,159.96037632751464L54.85093533333333,244.36613525390626L55.04776883333333,239.75665216064453L55.44799695,293.7768818359375L55.55953593333333,338.6972694091797L55.76293054999999,381.49431677246093L55.80885836666667,201.2506144714355L56.20908648333334,185.8375295410156L56.333747699999996,258.85566912841796L56.43872556666666,187.71127752685547L56.7274147,134.56460913085937L56.78646474999999,126.34764170837404L57.029226066666666,230.78448245239258L57.20637621666667,151.74521520996095L57.25230403333333,298.18359857177734L57.72470443333333,170.6883377075195L57.98058798333332,276.01476062011716L58.07900473333333,175.8136416625977L58.37425498333332,194.72793231201172L58.669505233333325,352.11855224609377L58.918827666666665,79.16203845214844L59.017244416666664,180.49094747924804L59.09597781666667,361.8157405395508L59.50932816666666,271.5699158935547L59.62742826666666,276.0112170410156L59.830822883333326,248.21011322021488L59.9161174,439.95262615966794L60.198245416666666,157.8187026977539L60.25729546666666,137.5267708892822L60.2704177,299.0386365966797L60.61159576666666,161.65906230163574L60.775623683333336,106.96215283203125L61.19553515,159.62297122192382L61.33331859999999,263.4825364685059L61.43173535,419.2013118896485L61.556396566666656,197.13626602172852L61.9631858,188.84653442382816L62.01567473333333,289.86953363037105L62.25843605,162.4067632446289L62.36997503333333,169.108798828125L62.42246396666666,194.12395916748048L63.05233116666667,211.10175286865234L63.058892283333336,278.85337457275386L63.091697866666664,115.62066976928713L63.59690385,197.7162049560547L63.66251501666667,150.13223667907715L63.68875948333333,182.3818265991211L63.78717623333333,153.62754602050782L64.35799338333334,224.61898846435545L64.3645545,352.4416852416992L64.71229368333333,208.38855630493165L65.04034951666667,255.61919638061525L65.15844961666666,248.58570959472655L65.24374413333334,181.30842126464842L65.39464981666666,157.44037960815427L65.8211224,369.6200823364258L65.88017244999999,220.50273016357423L66.07044483333333,140.95960739135742L66.31320614999998,301.3387415771484L66.38537843333333,195.9625359802246L66.64126198333334,125.25505157470702L66.78560655,138.3672031555176L66.83809548333333,157.27116795349122L67.08741791666667,134.9081292114258L67.10054014999999,179.91977545166014L67.25800695,129.21396575927736L67.54669608333333,212.67931286621095L67.56637943333332,135.94835375976564L67.61230725,116.30810973358156L68.20936886666667,213.07124652099608L68.2618578,166.50643115234374L68.33403008333333,82.5144713745117L68.3799579,351.68375048828125L68.84579718333333,151.6158803253174L68.87204165,81.78566760253906L69.1672919,152.2128238372803L69.20009748333334,196.26151971435547L69.33131981666666,160.17204765319826L69.64625341666667,189.91947955322266L69.73154793333333,141.51074324035645L69.76435351666666,264.91867544555663L69.84964803333332,171.8819543609619L70.49263746666666,142.21622611999513L70.53200416666667,151.82787379455564L70.59105421666666,208.37363415527344L70.89286558333333,178.90666848754884L70.99128233333333,151.9111881713867L71.05689349999999,161.68292393493653L71.35214375,244.86693041992189L71.51617166666666,139.41748318481444L71.6080273,280.2249237670898L71.73268851666666,299.9657427368164L71.85734973333332,143.04934687805178L72.41504465,291.6199696655273L72.48721693333333,174.96597842407226L72.63812261666666,189.70903927612304L72.92025063333332,115.78687283325198L73.06459519999999,144.89848539733885L73.19581753333333,144.40971884155275L73.20237865,122.72382297515867L73.43857885,117.17819071197509L73.66165681666665,280.2981423950195L74.06188493333333,131.00090180969238L74.35713518333333,233.03470120239257L74.44899081666665,146.358710357666L74.54084644999999,215.13157315063475L75.06573578333334,249.46631201171874L75.10510248333333,232.85654431152344L75.43315831666666,112.27721659851075L75.65623628333333,185.82850952148436L75.79401973333333,147.1622169189453L75.97773099999999,182.7430415649414L76.42388693333332,137.94773773193361L76.67977048333333,171.94389221191406L77.02750966666666,46.265544006347646L77.07343748333334,126.23085316467285L77.27027098333333,180.3667956542969L77.57864346666666,165.15037936401367L77.75579361666667,173.428099609375L78.05760498333333,353.72680792236326L78.07072721666667,156.38347837829588L78.40534416666665,149.96308255004882L78.60873878333332,161.17130819702152L78.70715553333332,149.36122634887695L78.90398903333332,156.72625637817382L78.92367238333334,167.5115305480957L79.00240578333333,179.5695939025879L79.17955593333333,156.2079619140625L79.50761176666666,171.47593267822265L79.54697846666666,123.9818482055664L79.66507856666666,157.84372634887694L79.85535095,170.40440267944334L80.09155114999999,106.3670846557617L80.09811226666666,146.093873840332L80.1112345,140.66947109985352L80.74766281666666,146.67245516967773L80.85264068333333,211.38320278930667L81.24630768333333,136.40501525878906L81.35784666666666,193.09750625610351L81.37753001666665,194.31271228027342L81.45626341666666,227.54062341308594L81.71870808333333,216.23301647949216L81.97459163333332,210.49423614501956L82.07300838333333,129.98760501098633L82.22391406666667,298.57187359619144L82.25671965,109.12768234252928L82.50604208333333,152.97293881225585L82.55196989999999,173.19392425537112L83.01124806666667,161.0637007446289L83.03749253333332,225.52628277587888L83.15559263333333,128.31151510620117L83.77233759999999,233.9198941650391L83.79858206666667,206.49612399291993L83.89043769999999,77.69790750122073L84.31034916666667,148.32634593200686L84.4415715,111.05582081604004L84.47437708333332,130.8317649383545L84.92053301666667,143.0282752380371L85.02551088333333,173.43844271850588L85.032072,204.31089770507813L85.03863311666666,167.44903469848632L85.3076389,129.6471798095703L85.83908935,187.07939294433595L85.90470051666667,140.69521382141113L86.213073,128.18464807128908L86.5280066,171.55967849731445L86.8035735,329.51935351562497L86.94135694999999,174.8826697998047L87.20380161666667,111.1937874221802L87.2366072,168.03499656677246L87.45312404999999,231.1481480102539L87.46624628333333,153.6281903076172L87.57778526666667,154.57228376770018L87.93864668333332,214.39336968994138L87.95833003333333,171.4408535461426L88.10923571666666,162.30300425720216L88.60131946666667,162.39568380737305L88.86376413333333,131.70232913208008L88.89000859999999,138.6355947570801L88.90969195,158.18356478881836L89.0868421,158.663621963501L89.43458128333332,188.47748446655274L89.61829254999999,186.2689487915039L89.62485366666665,198.4868643798828L89.67078148333333,223.68783251953124L89.89385945,146.92729948425293L90.37938208333333,234.02295709228517L90.56309335,247.03072265625002L90.56965446666666,123.69231018066408L90.78617131666665,141.59417266845702L91.06173821666667,218.53707922363282L91.26513283333333,147.59671954345703L91.33730511666667,182.4930121459961L91.724411,131.81697196960448L91.75721658333333,166.3068229522705L91.97373343333332,185.4477703552246L91.99997789999999,184.00385391235355L92.41332824999999,174.9171736755371L92.56423393333333,153.30510908508302L92.83980083333333,157.65298284912112L92.90541199999998,166.23357556152342L92.95133981666666,152.81635403442382L93.67962376666665,231.26981472778323L93.94206843333333,240.79488632202148L93.99455736666665,133.06405294799805L94.37510213333333,258.46853311157224L94.48664111666666,135.81397387695313L95.06401938333333,187.4828317260742L95.40519745,202.74047088623047L95.64795876666666,133.06402993774415L95.98257571666666,353.86707843017575L95.98913683333333,143.80308226013184L96.54027063333332,158.88430755615232L96.73710413333333,199.96214379882812L96.83552088333333,281.79843395996096L96.99298768333333,153.87663201904297L97.08484331666666,216.6614098815918L97.61629376666666,259.73399353027344L97.68190493333333,314.8087601318359L97.83937173333332,276.23372619628907L97.91154401666667,147.65743785095214L98.16742756666666,143.23296295166017L98.24616096666665,150.46759962463378L98.4561167,154.9434851837158L98.5348501,153.24214727783203L98.60702238333333,141.1423950958252L98.64638908333332,153.07149172973635L99.15815618333333,141.5934708557129L99.37467303333332,228.02220501708985L99.48621201666666,226.83837347412108L99.53213983333333,207.82539184570314L99.72241221666667,181.16127069091795L99.91924571666667,161.0510853729248L100.37196276666667,201.25514749145506L100.47037951666665,146.98412330627443L100.57535738333333,151.51633221435546L100.96902438333333,173.77114797973633L101.17241899999999,180.90459130859375L101.49391371666667,165.45592102050782L101.79572508333332,166.1913172302246L101.81540843333332,126.46956729125978L102.01224193333333,137.07021868896484L102.12378091666666,136.10849937438965L102.57649796666666,174.48953961181638L102.60930354999999,246.43247906494142L102.87174821666665,159.40978121948243L103.27853745,166.92942864990232L103.31790415,263.75707180786134L103.48193206666667,173.13603045654298L103.76406008333333,119.27198287963867L103.88216018333334,154.60391711425783L104.33487723333333,149.89952822875978L104.3611217,191.54411853027344L104.85320544999999,206.23264508056639L104.9122555,264.3668780517578L104.92537773333333,150.5612168426514L105.109089,270.302373046875L105.45682818333331,288.4275040283203L105.48963376666667,194.980182220459L105.81768959999998,410.4730163574219L106.06701203333334,159.40042755126953L106.25072329999998,205.43858422851562L106.33601781666665,149.12698196411134L106.80185709999999,155.6317563934326L107.1167907,200.59780206298828L107.14303516666666,183.52236434936523L107.29394085,158.59009269714358L107.53014105,280.24798004150387L107.53670216666666,121.1972191848755L107.70073008333333,141.50629650878906L108.08783596666666,146.16944526672364L108.13376378333332,133.14437599182128L108.29779169999999,119.58858959197997L108.57991971666665,136.61565687561034L108.652092,182.5176331176758L108.80299768333332,169.5938204650879L108.96702559999999,181.36725848388673L109.1244924,173.8690796203613L109.32132589999999,206.01335736083985L109.74779848333333,155.5586873321533L109.81340964999998,191.19585833740234L110.15458771666665,155.9755698547363L110.2661267,157.1375416564941L110.50888801666666,202.97501440429687L110.73196598333332,104.8879136276245L110.8566272,147.21033711242677L111.35527206666666,247.53096557617187L111.6833279,187.68997003173828L111.80798911666665,145.5809292602539L111.82111135,220.98347189331054L112.09667825,174.0253882751465L112.22133946666666,119.89851757812502L112.36568403333332,185.09131851196287L112.55595641666666,128.26631146240234L112.79215661666665,125.5356961364746L112.85120666666667,82.45752099609376L113.06772351666666,114.50426402282714L113.13333468333332,155.91879205322266L113.25143478333334,139.22745300292968L113.52700168333332,221.8374859619141L113.88130198333333,182.3110125427246L114.36682461666665,284.6809744873047L114.47180248333332,148.87389218139649L114.64239151666666,72.36671929931643L114.85890836666667,124.96792962646485L115.08198633333332,122.2978514022827L115.48221444999999,96.50728865051268L115.61343678333333,179.9300725402832L116.0136649,180.51878988647462L116.2892318,135.13060385131837L116.52543199999998,151.21143484497068L116.68289879999999,171.1712308959961L116.81412113333333,158.1840249938965L116.86661006666665,289.00032128906247L117.12905473333332,130.96163481140135L117.35213269999998,137.16011975097655L117.37181605,308.5421936035156L117.74579969999998,154.79699615478518L118.22476121666666,158.16855059814452L118.34942243333332,112.6296589050293L118.68403938333333,173.80590496826173L118.69716161666665,162.70997511291506L118.78901725,337.5324213256836L119.16956201666667,123.26889849853518L119.52386231666665,134.89232691955564L119.93721266666665,127.29546282958985L119.9503349,122.04207804870603L120.28495184999998,179.29702593994142L120.46866311666666,169.22066893005373L120.72454666666665,153.4247854156494L120.75079113333334,149.22605836486815L120.75735225,141.57239346313474L121.34129163333334,164.44749664306642L121.40034168333332,125.77109678649903L121.55780848333333,259.59357345581054L121.57749183333333,173.85994454956054L121.90554766666665,176.28214193725586L122.14174786666666,153.87455534362792L122.27953131666665,114.68758096313476L122.43699811666666,207.6413903503418L122.75193171666666,275.3025012207031L122.79785953333332,107.84388562774659L123.32274886666667,144.51063031005862L123.34899333333333,108.47533589172363L123.51302124999998,288.8699451904297L123.93949383333333,147.43178204345702L124.04447169999999,159.86910040283203L124.45126093333332,191.35183334350586L124.56279991666666,167.34380305480957L124.90397798333332,174.92643530273438L124.95646691666667,109.73475611877441L125.25827828333333,181.05006213378908L125.44855066666665,131.61638583374022L125.57977299999999,198.63988256835935L125.87502324999998,122.77021452331542L126.09810121666666,119.85591696929933L126.11122345,194.78322595214843L126.32117918333333,108.59306210327149L126.77389623333333,107.35255055236816L126.83950739999999,262.7220475769043L126.87231298333332,156.8232906188965L126.97729084999999,209.03204956054685L127.25941886666665,133.69559812927244L127.43656901666665,178.88602828979492L127.58091358333333,144.08313430786131L127.73838038333334,157.69466592407227L128.04675286666665,111.00237950134277L128.05987509999997,266.6978742980957L128.6110089,334.65540325927736L128.89313691666666,154.4883711242676L129.74608208333333,57.211027069091784L129.77888766666666,134.81529434204103L130.15943243333334,123.65486386871339L130.36938816666665,247.94890081787108L130.61214948333333,144.81610293579104L130.74337181666667,156.00910154724124L130.97957201666665,153.6502743988037L131.07798876666666,178.256203125L131.46509465,147.19286657714844L131.5241447,140.96152874755862L131.80627271666665,183.63452783203124L131.89812835,121.68256871795654L132.03591179999998,273.4298347167969L132.31147869999998,109.31460614013673L132.4689455,150.9592367095947L132.84292915,165.635780670166L132.91510143333332,164.5203010864258L133.24315726666666,142.8161954803467L133.43342965,134.54593630981446L133.7286799,148.8886072387695L133.9255134,133.8658279876709L133.9780023333333,146.12255036926268L134.1223469,205.90016992187498L134.28637481666667,158.7403611602783L134.78501968333333,161.4729323577881L134.8309475,157.54160746765135L135.00809764999997,202.9939173278809L135.39520353333333,190.35980377197268L135.47393693333333,136.96419319152832L135.53298698333333,174.07589578247072L135.7495038333333,270.0441059570312L136.20222088333333,198.77900256347655L136.45810443333332,148.82360902404784L136.60901011666664,158.40651113891602L136.8386492,152.62317144775392L136.89769925,120.9648127441406L137.06828828333332,111.20825799560545L137.63910543333333,206.28247378540036L137.69159436666666,111.24084339141848L137.73096106666665,69.87712487792967L137.92123345,138.3463098449707L138.30833933333332,157.07340057373048L138.65607851666667,157.26820538330077L138.95132876666665,274.72802722167967L138.99069546666664,163.53799909973142L139.57463484999997,278.5233385009766L139.65336825,187.62651925659182L139.88300733333332,164.58287747192384L140.0667186,130.71953242492677L140.4210189,133.48014736938475L140.68346356666666,89.62436946105956L140.70314691666667,145.69963916015624L140.72283026666665,208.43589990234375L141.03776386666667,164.82523297119138L141.59545878333333,179.79634844970704L141.60858101666668,130.160239440918L142.21876486666667,120.11993374633789L142.24500933333331,127.08017889404299L142.48120953333333,165.30133813476561L142.93392658333332,114.28750743103028L143.45881591666665,117.84623015594482L143.53754931666666,140.59639053344728L143.8065551,143.70573738098145L144.42330006666666,120.1378846206665L144.61357245,350.0191427001953L144.92850604999998,126.93368411254885L144.9481894,116.38325547027586L145.59773995,84.91797868347167L146.11606816666665,181.45193621826172L146.24072938333333,144.89612684631348L146.94932998333334,164.73988793945313L147.0674300833333,105.48584658050537L147.41516926666665,127.5629340209961L147.50046378333332,159.26785972595215L147.63168611666666,95.44076913452149L148.05815869999998,175.96044708251952L148.2877977833333,245.04422442626952L148.2943589,142.79306442260744L148.62897585,100.41606924438476L148.63553696666665,155.1220217437744L149.09481513333333,123.99207626342775L149.48192101666666,229.5279730224609L150.03305481666666,124.17006632995607L150.09866598333332,82.44583753967285L150.12491045,118.07468458557128L150.69572759999997,220.74396966552735L150.89256109999997,120.63211611175537L151.10907795,122.48046940612794L151.22717805,158.58207362365724L151.92265641666665,89.29840620422364L152.09980656666667,162.89031222534177L152.15229549999998,146.43125018310545L152.43442351666664,62.636286941528326L152.69030706666666,204.32669424438475L152.99867955,184.71881701660158L153.32017426666667,117.47873626708986L153.35954096666666,174.79456353759767L153.41859101666665,110.80796586608885L153.91723588333332,142.7434485626221L154.19280278333332,157.85396591186523L154.77674216666665,139.4123634033203L154.88172003333332,181.42262115478513L155.104798,134.9028713684082L155.50502611666667,169.5709942932129L155.5378317,159.16082177734373L155.62968733333332,147.3179330596924L155.83964306666664,148.88494860839845L156.50231585,218.74755401611327L156.52856031666667,307.9973107910156L156.73851605,212.8263944091797L157.13874416666667,133.18445410156252L157.34213878333333,260.20874108886716L157.74236689999998,128.54171543884277L157.88015035,91.40407453918458L157.96544486666664,122.7620228729248L158.11635055,220.36236761474612L158.56250648333332,174.9744577026367L158.82495114999998,123.65044302368162L158.87744008333334,144.3160383453369L159.20549591666665,127.52432281494141L159.59916291666664,181.13891622924803L159.75662971666665,255.30188497924806L159.86816869999998,89.26891281127931L159.93377986666667,159.98041825866702L160.60957488333332,67.3846196594238L160.72111386666666,132.2763371734619L160.90482513333333,158.9100675354004L161.36410329999998,233.5379469604492L161.98084826666664,140.75854379272462L162.15799841666666,174.3920221557617L162.24329293333332,317.29416668701174L162.81411008333333,225.41551141357422L163.39148834999997,124.45073965454101L163.52271068333332,92.76908306884765L164.03447778333333,139.1121141052246L164.24443351666667,61.57044622802733L164.40846143333334,389.4069218139648L164.44126701666667,82.23841735839844L164.76276173333332,96.74635943603515L166.02249613333333,129.1036718597412L166.08154618333333,138.00889323425295L166.19964628333332,209.06685256958008L167.3215972333333,174.35534381103517L167.45938068333334,283.3019239501953L167.50530849999998,123.50906802368166L167.5381140833333,207.26088128662113L168.25327579999998,124.84813824462891L168.7650429,130.63215673828125L168.92907081666664,250.8647256774902L169.38834898333332,321.69803015136716L169.68359923333333,210.29623291015625L169.89355496666664,178.4798742980957L170.00509395,129.35629568481446L170.27409973333332,64.74633872985838L170.4184443,68.16204409790038L170.56278886666666,212.98933001708986L170.64152226666664,184.43558380126953L170.79898906666665,145.4774233856201L171.38292844999998,118.24235167694091L171.44197849999998,129.84801905822755L172.11121239999997,86.75489875793457L172.39334041666666,80.3552926940918L172.43270711666665,138.61847512817383L172.68202954999998,85.66129617309572L173.28565228333332,105.82789112854003L173.607147,119.54072538757326L174.02705846666666,157.59666525268557L174.81439246666665,131.85037135314943L174.88656475,117.09449954223633L175.95602676666667,302.59542358398437L176.16598249999998,252.5795648498535L176.53996615,142.15915493774412L176.74336076666665,64.4559090576172L177.15015,139.87690016174315L177.85218948333332,198.89393878173826L178.5804734333333,192.13381381225588L178.81011251666666,153.3295574798584L179.01350713333332,95.62688182067872L179.17753505,288.8485916748047L179.42029636666666,60.1268576812744L179.95174681666666,158.9463086853027L180.42414721666665,104.88247745513915L180.47007503333333,98.98636163330077L181.30989796666665,61.78000061035155L181.39519248333332,110.866595993042L181.57890375,224.3016770629883L182.00537633333332,118.02548866271974L182.13003755,139.716415145874L182.1890876,137.74591479492187L182.68117135,170.06679048156738L182.91737154999998,83.11503324890137L183.21918291666665,103.72346822357177L183.43569976666663,199.06923089599613L183.99339468333332,95.72249517822266L184.12461701666666,111.04076635742189L184.21647265,189.7433360595703L184.6691897,113.36764376831056L184.74136198333332,182.89152673339845L185.3909125333333,92.16920574951172L185.65991831666665,207.18222073364257L185.68616278333332,79.32072291564941L185.6927239,144.45098197937008L186.4406912,114.22460314941408L186.51942459999998,147.62927905273438L187.12960844999998,148.3158244934082L187.53639768333332,76.08322045898439L187.69386448333333,202.7238689880371L188.16626488333333,268.78272985839845L188.49432071666666,89.49235388183592L188.53368741666665,98.81496975708006L189.26197136666667,123.5874754638672L189.31446029999998,84.67225218200683L190.04930536666666,110.49884899139406L190.16740546666665,66.78343650817871L190.62012251666667,296.03694897460934L190.79071155,99.66877673339845L191.13845073333331,398.28211480712895L191.23030636666667,123.57513333892824L192.10949599999998,123.56299255371093L192.29976838333332,151.18566911315918L193.46108603333332,178.8147310180664L194.49118134999998,157.91807247924802L194.95045951666665,141.51910746765137L195.71154904999997,79.16151496887207L196.40702741666666,76.11202929687501L196.76132771666667,107.12745849609374L197.35182821666663,29.186505187988292L197.45680608333333,57.48297950744628L197.77830079999998,100.25321992492674L198.05386769999998,123.87979772949218L198.53282921666664,265.5625713806152L199.37921326666662,133.22048815917967L199.6285357,176.17352203369143L199.96315264999998,150.69747781372072L201.01293131666668,166.06747604370116L201.26225374999999,127.94203945922854L201.68216521666665,134.6185279083252L202.14800449999996,96.31389321899414L202.67289383333332,72.61287724304199L202.96158296666664,59.215202926635754L203.04031636666667,188.7430112915039L203.15185534999998,94.83519102478027L203.7161113833333,92.51466444396972L204.43127309999997,94.65135635375975L204.49032314999997,109.30544230651857L204.99552913333335,135.7902790679932L205.35639054999996,83.70083979797361L205.3760739,271.59741314697266L206.1568467833333,129.35237243652344L206.281508,121.3845082702637L206.41929144999997,90.81256719970702L206.78671398333333,136.84290039062503L207.28535884999997,89.1215033721924L207.4953145833333,128.3757194671631L207.57404798333332,120.25338171386717L208.47292096666663,125.3550081176758L208.57133771666668,110.9723424911499L209.61455526666666,60.85703056335448L210.25754469999998,135.17782089233398L210.77587291666666,126.4617553100586L211.81252935,111.23562869262695L211.82565158333333,82.34485704040529L212.68515786666666,106.81240209960939L213.05258039999998,123.7848804321289L213.35439176666668,88.04312207031249L214.154848,230.9933235168457L214.26638698333332,114.96286125946047L214.27950921666667,105.46151898956299L215.1718210833333,96.79338664245606L215.4145824,61.28724752807618L215.729516,124.36585482788085L216.03132736666663,67.06604269409179L216.48404441666668,93.40868759155273L216.57590005,114.96599353027344L217.0286171,208.42804190063478L217.5535064333333,91.88254975891114L217.73065658333334,110.56629779815674L217.81595109999998,108.72151972198486L218.05215129999996,91.55021841430664L218.3802071333333,43.047997192382795L218.60984621666665,137.49642036437987L218.76731301666663,131.70486601257323L219.1478577833333,121.73124403381345L219.75148051666667,169.13304013061526L219.9745584833333,119.0803966293335L220.02048629999996,92.57392160034179L220.39446994999997,78.84547488403321L220.49944781666667,107.25696308135987L220.86687035,137.3505065917969L220.9259204,66.62815756225584L221.07026496666666,72.47792210388184L221.78542668333333,100.32069749450683L221.81167115,122.84258464813233L222.5005884,89.48064741516114L222.67117743333333,61.048234268188494L222.97954991666666,99.17015028381347L223.33385021666666,88.02807336425784L223.43226696666665,110.33800731658937L223.62253935,74.87667779541017L224.35738441666663,150.78865594482423L224.60670685,121.10592312622072L224.69200136666663,120.95483204650881L225.26937963333333,90.69003759765626L225.6499244,96.1819006500244L226.39789169999997,88.5812111053467L226.4766251,95.87868302917481L227.36237584999998,111.78802147674561L227.68387056666666,58.46225564575195L228.50401015,106.44235407257081L228.98953278333332,71.67001483154299L229.48817764999998,64.9850298461914L229.94745581666663,112.31186716461184L230.25582829999996,76.73967999267579L230.3280005833333,107.55772435760497L231.25311803333332,56.739253585815426L231.39746259999998,94.76109800720215L231.90922969999997,111.8756589050293L232.0273298,149.75725007629396L232.04701315,100.6759873199463L233.1689641,72.51733291625975L233.43140876666664,189.24761465454102L233.98910368333333,95.27552099609373L234.45494296666666,74.39417578125L234.5074319,143.0701941680908L236.2330055833333,69.01320489501951L236.26581116666662,157.4962657623291L236.46920578333334,142.42548136901854L237.51242333333334,112.07449338531495L237.8273569333333,110.83406524658204L238.12260718333332,137.53862117004397L238.81808555,165.6187013092041L238.86401336666665,64.75119389343263L239.00179681666663,126.56866670227052L240.28777568333334,40.96034588623048L240.55678146666665,54.107473052978534L241.50814338333333,64.55105070495605L241.52126561666665,96.43960398864746L242.5710442833333,139.60586238098145L243.66675076666664,157.48618727111815L244.7952628333333,193.40355413818358L244.92648516666665,128.9751365814209L245.4251300333333,6.300897827148436L245.50386343333332,188.49937872314453L246.85545346666666,98.32922904968261L246.97355356666662,99.4545915374756L247.62310411666664,71.44652198791503L247.9314766,253.90065255737304L248.48261039999997,149.09543490600586L248.61383273333328,78.81884051513674L249.68329475,126.18926788330079L250.0900839833333,173.41459259033203L250.49687321666664,106.30038655853271L250.5428010333333,136.91875369262695L251.73036314999996,176.2670126953125L252.16995796666663,130.85102452087403L253.30503114999996,79.40503248596193L253.35095896666664,200.919151763916L253.65933144999997,122.1509453125L254.52539884999996,128.12276774597166L254.5582044333333,133.88800411987305L256.30346146666665,62.13547451782226L257.28106784999994,102.27037356567384L258.3702132166666,192.79801629638672L258.68514681666665,101.17767988586426L259.3150140166666,71.72814448547362L259.8989534,56.374483535766615L260.2860592833333,107.47451640319827L260.3319871,94.35110705566407L261.2308600833333,114.29036070251465L262.35937214999996,90.76082289123536L262.67430575,75.02436911010743L262.87113924999994,24.081231658935543L263.30417294999995,95.42575494384765L263.78969558333335,155.63331533813476L265.0166244,151.7935022277832L265.4430969833333,127.94990321350099L265.92861961666665,65.17484143066405L265.94830296666663,102.01577085876463L267.4179931,249.12209011840824L268.29062161666667,80.63700148010253L268.3627939,85.9392370300293L268.58587186666665,143.80379557800293L269.1435667833333,78.74963717651366L269.65533388333336,113.8028769683838L270.23927326666666,56.66699563598631L271.0134850333333,6.126399566650374L271.59086329999997,94.22052386474607L272.92276998333335,125.50163520812987L273.1261646,105.4520071258545L273.87413189999995,155.57850491333008L274.8517382833333,-14.44105702209476L275.09449959999995,126.16404289245604L275.43567766666666,55.66313304138183L276.26237836666667,73.59122721862794L276.49857856666665,86.13277627563478L276.55762861666665,80.6389976196289L277.01034566666664,32.035197631835935L277.6927018,129.11478581237793L277.75175185,155.26239579772948L278.12573549999996,104.56923311614989L278.81465275,44.900633270263675L279.09678076666665,74.33167417907715L279.4379588333333,111.21205181121825L280.15968166666664,36.016316711425766L280.50742084999996,63.401199554443345L281.6752996166667,81.65693673706053L282.73163939999995,73.32792088317873L282.91535066666665,54.9654678955078L283.02688965,327.5654378051758L283.90607928333327,79.92397123718261L284.6343632333333,61.62201220703124L284.9099301333333,94.14989964294435L285.3757694166666,32.395466300964365L286.25495904999997,221.53315234374998L289.45022286666665,63.88334490966799L289.4764673333333,43.74771025085449L290.02760113333335,130.61975421142577L290.8083740166667,136.02601336669923L292.82919795,115.2144726333618L293.53779855,115.36115149688719L294.52196604999995,107.04826583099366L295.01404979999995,119.96751957702637L295.03373314999993,215.2681505126953L295.62423365,115.0731263961792L296.4443732333333,87.59340966796874L296.45093434999995,133.60358587646488L297.2579517,111.93039167022704L297.8615744333333,147.0961199645996L297.8943800166667,151.63677363586424L298.26180254999997,190.24267007446286L298.43895269999996,92.84518948364259L299.2394089333333,126.35063304138184L299.54122029999996,66.097109664917L299.67244263333333,23.56314428710938L300.82063804999996,67.75321516418458L300.89281033333333,100.91004187011718L301.3520885,86.42434495544434L302.1066169166666,49.59252758789064L302.86770644999996,143.85906620788575L302.8873898,75.40838723754885L303.81906836666667,102.69181211853028L305.62337544999997,69.53493939208984L305.8005256,28.783972434997548L306.2269981833333,79.76894540405273L306.64690965,74.91743470764162L307.3358269,96.07641014099123L307.5457826333333,113.03777452087402L308.18221095,49.953190307617184L309.03515611666666,137.58240393066407L309.63877885,133.51864352416993L310.3801850333333,-12.970322128295864L310.38674614999996,145.03210018920896L311.2396913166666,83.11752410888671L312.08607536666665,65.04880276489259L313.20802631666663,81.404797205925L314.5136885333333,84.8828937988281L314.68427756666665,159.2077166748047L315.51097826666665,76.97425227355956L316.7575904333333,90.17944006347656L316.7772737833333,87.98730494689943L317.1118907333333,97.63430787658693L317.2890408833333,127.54545773315431L317.9910803666666,116.95644377136229L318.1157415833333,51.22288461303711L318.6406309166666,72.69051383972167L319.44108715,140.73232360839842L319.59855394999994,63.3987892303467L319.7297762833333,117.5122133102417L320.88453281666665,117.73374740600585L321.6325001166666,88.99017234802245L322.28205066666663,90.6220365447998L322.98409015,55.777655075073255L323.87640201666665,87.33292208862304L324.3028746,102.64265646362307L325.0574030166666,106.63527491760252L325.24111428333333,46.674125579834005L325.9103481833333,79.24900570678712L326.19903731666665,68.9403760032654L326.2187206666666,99.83575064086914L327.4128439,120.98697737121581L328.8431673333333,68.95531325340272L329.67642915,82.276205947876L329.81421259999996,160.1826151123047L330.94272466666666,94.30704817199708L331.073947,55.351579956054685L331.1001914666666,86.6695249633789L331.1067525833333,51.19116497802733L331.7956698333333,42.78890173339846L332.6945428166666,114.86277240753172L332.96354859999997,74.36942250061034L333.6262213833333,76.59533666992186L334.08549955,76.9173536682129L334.44636096666665,57.88032057189941L334.82034461666666,65.06148141479493L335.05654481666664,92.49446719360353L335.10247263333326,75.26243894958495L336.5393571833333,169.1131017456055L338.67172009999996,172.99131896972656L339.2622206,87.90516984558104L340.4366604833333,152.60340563964843L340.79096078333333,136.9860701904297L341.2174333666666,26.199802993774426L341.31585011666664,50.63481155395506L342.7396124333333,82.71265293884277L342.9364459333333,76.40801594543456L343.8681245,46.88049304199218L344.1568136333333,110.53970657348634L344.2355470333333,29.434601745605462L345.1672256,95.03161230468751L347.37176079999995,125.63924227905272L350.42924116666666,45.46897791290282L351.59055881666666,37.05013290405272L351.72834226666663,9.124215713500963L352.49599291666664,82.08231004333494L353.93287746666664,43.58669887542727L354.0378553333333,87.97781896972656L354.2281277166667,93.9620496826172L355.39600648333334,54.74999412536623L355.6059622166666,200.7373822631836L356.2292683,79.04568135070801L356.40641845,75.88314054870604L357.90891416666665,127.6309753417969L359.2670653166666,186.42270330810547L359.7329045999999,76.78151263427735" style="fill: none;" fill="none"></path></g></g></g></g></g><g><g opacity="0.741059"><span fill="rgb(0, 0, 0)" stroke="none" stroke-width="1px">Alt + Scroll to Zoom</span></g></g></g><g transform="translate(50, 377)" clip-path="url(#clip_1)"><clipPath id="clip_1"><rect width="393" height="23"></rect></clipPath><g><g><line x1="0" y1="0" x2="0" y2="5" style="visibility: inherit;" fill="rgb(0, 0, 0)" stroke="rgb(204, 204, 204)" stroke-width="1px"></line><line x1="32.80558333333333" y1="0" x2="32.80558333333333" y2="5" style="visibility: inherit;" fill="rgb(0, 0, 0)" stroke="rgb(204, 204, 204)" stroke-width="1px"></line><line x1="65.61116666666666" y1="0" x2="65.61116666666666" y2="5" style="visibility: inherit;" fill="rgb(0, 0, 0)" stroke="rgb(204, 204, 204)" stroke-width="1px"></line><line x1="98.41675" y1="0" x2="98.41675" y2="5" style="visibility: inherit;" fill="rgb(0, 0, 0)" stroke="rgb(204, 204, 204)" stroke-width="1px"></line><line x1="131.22233333333332" y1="0" x2="131.22233333333332" y2="5" style="visibility: inherit;" fill="rgb(0, 0, 0)" stroke="rgb(204, 204, 204)" stroke-width="1px"></line><line x1="164.02791666666667" y1="0" x2="164.02791666666667" y2="5" style="visibility: inherit;" fill="rgb(0, 0, 0)" stroke="rgb(204, 204, 204)" stroke-width="1px"></line><line x1="196.8335" y1="0" x2="196.8335" y2="5" style="visibility: inherit;" fill="rgb(0, 0, 0)" stroke="rgb(204, 204, 204)" stroke-width="1px"></line><line x1="229.63908333333333" y1="0" x2="229.63908333333333" y2="5" style="visibility: inherit;" fill="rgb(0, 0, 0)" stroke="rgb(204, 204, 204)" stroke-width="1px"></line><line x1="262.44466666666665" y1="0" x2="262.44466666666665" y2="5" style="visibility: inherit;" fill="rgb(0, 0, 0)" stroke="rgb(204, 204, 204)" stroke-width="1px"></line><line x1="295.25025" y1="0" x2="295.25025" y2="5" style="visibility: inherit;" fill="rgb(0, 0, 0)" stroke="rgb(204, 204, 204)" stroke-width="1px"></line><line x1="328.05583333333334" y1="0" x2="328.05583333333334" y2="5" style="visibility: inherit;" fill="rgb(0, 0, 0)" stroke="rgb(204, 204, 204)" stroke-width="1px"></line><line x1="360.8614166666666" y1="0" x2="360.8614166666666" y2="5" style="visibility: inherit;" fill="rgb(0, 0, 0)" stroke="rgb(204, 204, 204)" stroke-width="1px"></line><line x1="393.667" y1="0" x2="393.667" y2="5" style="visibility: inherit;" fill="rgb(0, 0, 0)" stroke="rgb(204, 204, 204)" stroke-width="1px"></line></g><g transform="translate(0, 8)"><text x="0" y="0" dx="0em" dy="0.95em" style="text-anchor: middle; visibility: hidden; font-family: Roboto, sans-serif; font-size: 12px; font-weight: 200;" fill="rgb(33, 33, 33)" stroke="none" stroke-width="1px">-20k</text><text x="32.80558333333333" y="0" dx="0em" dy="0.95em" style="text-anchor: middle; visibility: inherit; font-family: Roboto, sans-serif; font-size: 12px; font-weight: 200;" fill="rgb(33, 33, 33)" stroke="none" stroke-width="1px">0</text><text x="65.61116666666666" y="0" dx="0em" dy="0.95em" style="text-anchor: middle; visibility: inherit; font-family: Roboto, sans-serif; font-size: 12px; font-weight: 200;" fill="rgb(33, 33, 33)" stroke="none" stroke-width="1px">20k</text><text x="98.41675" y="0" dx="0em" dy="0.95em" style="text-anchor: middle; visibility: inherit; font-family: Roboto, sans-serif; font-size: 12px; font-weight: 200;" fill="rgb(33, 33, 33)" stroke="none" stroke-width="1px">40k</text><text x="131.22233333333332" y="0" dx="0em" dy="0.95em" style="text-anchor: middle; visibility: inherit; font-family: Roboto, sans-serif; font-size: 12px; font-weight: 200;" fill="rgb(33, 33, 33)" stroke="none" stroke-width="1px">60k</text><text x="164.02791666666667" y="0" dx="0em" dy="0.95em" style="text-anchor: middle; visibility: inherit; font-family: Roboto, sans-serif; font-size: 12px; font-weight: 200;" fill="rgb(33, 33, 33)" stroke="none" stroke-width="1px">80k</text><text x="196.8335" y="0" dx="0em" dy="0.95em" style="text-anchor: middle; visibility: inherit; font-family: Roboto, sans-serif; font-size: 12px; font-weight: 200;" fill="rgb(33, 33, 33)" stroke="none" stroke-width="1px">100k</text><text x="229.63908333333333" y="0" dx="0em" dy="0.95em" style="text-anchor: middle; visibility: inherit; font-family: Roboto, sans-serif; font-size: 12px; font-weight: 200;" fill="rgb(33, 33, 33)" stroke="none" stroke-width="1px">120k</text><text x="262.44466666666665" y="0" dx="0em" dy="0.95em" style="text-anchor: middle; visibility: inherit; font-family: Roboto, sans-serif; font-size: 12px; font-weight: 200;" fill="rgb(33, 33, 33)" stroke="none" stroke-width="1px">140k</text><text x="295.25025" y="0" dx="0em" dy="0.95em" style="text-anchor: middle; visibility: inherit; font-family: Roboto, sans-serif; font-size: 12px; font-weight: 200;" fill="rgb(33, 33, 33)" stroke="none" stroke-width="1px">160k</text><text x="328.05583333333334" y="0" dx="0em" dy="0.95em" style="text-anchor: middle; visibility: inherit; font-family: Roboto, sans-serif; font-size: 12px; font-weight: 200;" fill="rgb(33, 33, 33)" stroke="none" stroke-width="1px">180k</text><text x="360.8614166666666" y="0" dx="0em" dy="0.95em" style="text-anchor: middle; visibility: inherit; font-family: Roboto, sans-serif; font-size: 12px; font-weight: 200;" fill="rgb(33, 33, 33)" stroke="none" stroke-width="1px">200k</text><text x="393.667" y="0" dx="0em" dy="0.95em" style="text-anchor: middle; visibility: hidden; font-family: Roboto, sans-serif; font-size: 12px; font-weight: 200;" fill="rgb(33, 33, 33)" stroke="none" stroke-width="1px">220k</text></g><line x1="0" y1="0" x2="393.667" y2="0" fill="rgb(0, 0, 0)" stroke="rgb(204, 204, 204)" stroke-width="1px"></line></g></g></g></g></svg>