<svg viewBox="0 0 443.66668701171875 400" xmlns="http://www.w3.org/2000/svg"><g><g><g><g><g><line x1="70" y1="377" x2="65" y2="377" style="visibility: inherit;" fill="rgb(0, 0, 0)" stroke="rgb(204, 204, 204)" stroke-width="1px"></line><line x1="70" y1="335.1111111111111" x2="65" y2="335.1111111111111" style="visibility: inherit;" fill="rgb(0, 0, 0)" stroke="rgb(204, 204, 204)" stroke-width="1px"></line><line x1="70" y1="293.22222222222223" x2="65" y2="293.22222222222223" style="visibility: inherit;" fill="rgb(0, 0, 0)" stroke="rgb(204, 204, 204)" stroke-width="1px"></line><line x1="70" y1="251.33333333333337" x2="65" y2="251.33333333333337" style="visibility: inherit;" fill="rgb(0, 0, 0)" stroke="rgb(204, 204, 204)" stroke-width="1px"></line><line x1="70" y1="209.44444444444446" x2="65" y2="209.44444444444446" style="visibility: inherit;" fill="rgb(0, 0, 0)" stroke="rgb(204, 204, 204)" stroke-width="1px"></line><line x1="70" y1="167.55555555555554" x2="65" y2="167.55555555555554" style="visibility: inherit;" fill="rgb(0, 0, 0)" stroke="rgb(204, 204, 204)" stroke-width="1px"></line><line x1="70" y1="125.66666666666669" x2="65" y2="125.66666666666669" style="visibility: inherit;" fill="rgb(0, 0, 0)" stroke="rgb(204, 204, 204)" stroke-width="1px"></line><line x1="70" y1="83.77777777777777" x2="65" y2="83.77777777777777" style="visibility: inherit;" fill="rgb(0, 0, 0)" stroke="rgb(204, 204, 204)" stroke-width="1px"></line><line x1="70" y1="41.88888888888891" x2="65" y2="41.88888888888891" style="visibility: inherit;" fill="rgb(0, 0, 0)" stroke="rgb(204, 204, 204)" stroke-width="1px"></line><line x1="70" y1="0" x2="65" y2="0" style="visibility: inherit;" fill="rgb(0, 0, 0)" stroke="rgb(204, 204, 204)" stroke-width="1px"></line></g><g transform="translate(60, 0)"><text x="0" y="377" dx="0em" dy="0.3em" style="text-anchor: end; visibility: hidden; font-family: Roboto, sans-serif; font-size: 12px; font-weight: 200;" fill="rgb(33, 33, 33)" stroke="none" stroke-width="1px">1.4e+3</text><text x="0" y="335.1111111111111" dx="0em" dy="0.3em" style="text-anchor: end; visibility: inherit; font-family: Roboto, sans-serif; font-size: 12px; font-weight: 200;" fill="rgb(33, 33, 33)" stroke="none" stroke-width="1px">1.5e+3</text><text x="0" y="293.22222222222223" dx="0em" dy="0.3em" style="text-anchor: end; visibility: inherit; font-family: Roboto, sans-serif; font-size: 12px; font-weight: 200;" fill="rgb(33, 33, 33)" stroke="none" stroke-width="1px">1.6e+3</text><text x="0" y="251.33333333333337" dx="0em" dy="0.3em" style="text-anchor: end; visibility: inherit; font-family: Roboto, sans-serif; font-size: 12px; font-weight: 200;" fill="rgb(33, 33, 33)" stroke="none" stroke-width="1px">1.7e+3</text><text x="0" y="209.44444444444446" dx="0em" dy="0.3em" style="text-anchor: end; visibility: inherit; font-family: Roboto, sans-serif; font-size: 12px; font-weight: 200;" fill="rgb(33, 33, 33)" stroke="none" stroke-width="1px">1.8e+3</text><text x="0" y="167.55555555555554" dx="0em" dy="0.3em" style="text-anchor: end; visibility: inherit; font-family: Roboto, sans-serif; font-size: 12px; font-weight: 200;" fill="rgb(33, 33, 33)" stroke="none" stroke-width="1px">1.9e+3</text><text x="0" y="125.66666666666669" dx="0em" dy="0.3em" style="text-anchor: end; visibility: inherit; font-family: Roboto, sans-serif; font-size: 12px; font-weight: 200;" fill="rgb(33, 33, 33)" stroke="none" stroke-width="1px">2e+3</text><text x="0" y="83.77777777777777" dx="0em" dy="0.3em" style="text-anchor: end; visibility: inherit; font-family: Roboto, sans-serif; font-size: 12px; font-weight: 200;" fill="rgb(33, 33, 33)" stroke="none" stroke-width="1px">2.1e+3</text><text x="0" y="41.88888888888891" dx="0em" dy="0.3em" style="text-anchor: end; visibility: inherit; font-family: Roboto, sans-serif; font-size: 12px; font-weight: 200;" fill="rgb(33, 33, 33)" stroke="none" stroke-width="1px">2.2e+3</text><text x="0" y="0" dx="0em" dy="0.3em" style="text-anchor: end; visibility: hidden; font-family: Roboto, sans-serif; font-size: 12px; font-weight: 200;" fill="rgb(33, 33, 33)" stroke="none" stroke-width="1px">2.3e+3</text></g><line x1="70" y1="0" x2="70" y2="377" fill="rgb(0, 0, 0)" stroke="rgb(204, 204, 204)" stroke-width="1px"></line></g></g><g transform="translate(70, 0)" clip-path="url(#clip_0)"><clipPath id="clip_0"><rect width="373" height="377"></rect></clipPath><g><g><g><line x1="0" y1="0" x2="0" y2="377" fill="rgb(0, 0, 0)" stroke="rgb(66, 66, 66)" stroke-width="1px" opacity="0.25"></line><line x1="31.138916666666663" y1="0" x2="31.138916666666663" y2="377" fill="rgb(0, 0, 0)" stroke="rgb(66, 66, 66)" stroke-width="1px" opacity="0.25"></line><line x1="62.27783333333333" y1="0" x2="62.27783333333333" y2="377" fill="rgb(0, 0, 0)" stroke="rgb(66, 66, 66)" stroke-width="1px" opacity="0.25"></line><line x1="93.41675" y1="0" x2="93.41675" y2="377" fill="rgb(0, 0, 0)" stroke="rgb(66, 66, 66)" stroke-width="1px" opacity="0.25"></line><line x1="124.55566666666665" y1="0" x2="124.55566666666665" y2="377" fill="rgb(0, 0, 0)" stroke="rgb(66, 66, 66)" stroke-width="1px" opacity="0.25"></line><line x1="155.69458333333333" y1="0" x2="155.69458333333333" y2="377" fill="rgb(0, 0, 0)" stroke="rgb(66, 66, 66)" stroke-width="1px" opacity="0.25"></line><line x1="186.8335" y1="0" x2="186.8335" y2="377" fill="rgb(0, 0, 0)" stroke="rgb(66, 66, 66)" stroke-width="1px" opacity="0.25"></line><line x1="217.97241666666667" y1="0" x2="217.97241666666667" y2="377" fill="rgb(0, 0, 0)" stroke="rgb(66, 66, 66)" stroke-width="1px" opacity="0.25"></line><line x1="249.1113333333333" y1="0" x2="249.1113333333333" y2="377" fill="rgb(0, 0, 0)" stroke="rgb(66, 66, 66)" stroke-width="1px" opacity="0.25"></line><line x1="280.25025" y1="0" x2="280.25025" y2="377" fill="rgb(0, 0, 0)" stroke="rgb(66, 66, 66)" stroke-width="1px" opacity="0.25"></line><line x1="311.38916666666665" y1="0" x2="311.38916666666665" y2="377" fill="rgb(0, 0, 0)" stroke="rgb(66, 66, 66)" stroke-width="1px" opacity="0.25"></line><line x1="342.5280833333333" y1="0" x2="342.5280833333333" y2="377" fill="rgb(0, 0, 0)" stroke="rgb(66, 66, 66)" stroke-width="1px" opacity="0.25"></line><line x1="373.667" y1="0" x2="373.667" y2="377" fill="rgb(0, 0, 0)" stroke="rgb(66, 66, 66)" stroke-width="1px" opacity="0.25"></line></g><g><line x1="0" y1="377" x2="373.667" y2="377" fill="rgb(0, 0, 0)" stroke="rgb(66, 66, 66)" stroke-width="1px" opacity="0.25"></line><line x1="0" y1="335.1111111111111" x2="373.667" y2="335.1111111111111" fill="rgb(0, 0, 0)" stroke="rgb(66, 66, 66)" stroke-width="1px" opacity="0.25"></line><line x1="0" y1="293.22222222222223" x2="373.667" y2="293.22222222222223" fill="rgb(0, 0, 0)" stroke="rgb(66, 66, 66)" stroke-width="1px" opacity="0.25"></line><line x1="0" y1="251.33333333333337" x2="373.667" y2="251.33333333333337" fill="rgb(0, 0, 0)" stroke="rgb(66, 66, 66)" stroke-width="1px" opacity="0.25"></line><line x1="0" y1="209.44444444444446" x2="373.667" y2="209.44444444444446" fill="rgb(0, 0, 0)" stroke="rgb(66, 66, 66)" stroke-width="1px" opacity="0.25"></line><line x1="0" y1="167.55555555555554" x2="373.667" y2="167.55555555555554" fill="rgb(0, 0, 0)" stroke="rgb(66, 66, 66)" stroke-width="1px" opacity="0.25"></line><line x1="0" y1="125.66666666666669" x2="373.667" y2="125.66666666666669" fill="rgb(0, 0, 0)" stroke="rgb(66, 66, 66)" stroke-width="1px" opacity="0.25"></line><line x1="0" y1="83.77777777777777" x2="373.667" y2="83.77777777777777" fill="rgb(0, 0, 0)" stroke="rgb(66, 66, 66)" stroke-width="1px" opacity="0.25"></line><line x1="0" y1="41.88888888888891" x2="373.667" y2="41.88888888888891" fill="rgb(0, 0, 0)" stroke="rgb(66, 66, 66)" stroke-width="1px" opacity="0.25"></line><line x1="0" y1="0" x2="373.667" y2="0" fill="rgb(0, 0, 0)" stroke="rgb(66, 66, 66)" stroke-width="1px" opacity="0.25"></line></g></g></g><g><g><line x1="0" y1="963.4444444444443" x2="373.667" y2="963.4444444444443" fill="rgb(0, 0, 0)" stroke="rgb(153, 153, 153)" stroke-width="1.5px"></line></g></g><g><g><line x1="31.138916666666663" y1="0" x2="31.138916666666663" y2="377" fill="rgb(0, 0, 0)" stroke="rgb(153, 153, 153)" stroke-width="1.5px"></line></g></g><g><g><g><g><g><path stroke="rgb(255, 112, 67)" stroke-width="2px" d="M31.936072933333328,99.69555555555557L32.7332292,82.44433101314766L33.530385466666665,79.12465323790389L34.327541733333334,77.38835657476811L35.124697999999995,78.7238150163718L35.921854266666664,77.24689131252363L36.71901053333333,74.48358574637177L37.5161668,71.2556555794019L38.31332306666666,69.28588595065929L39.11047933333333,66.82971988125385L39.9076356,64.1468805853297L40.70479186666666,62.0057285237413L41.50194813333333,59.890109199177225L42.2991044,58.37368466881432L43.09626066666666,56.584516918821365L43.89341693333333,55.761003514132646L44.690573199999996,54.934837576340456L45.487729466666664,54.22236061426674L46.28488573333333,53.35995046029184L47.082041999999994,53.315427747296525L47.879198266666656,52.93599284539593L48.67635453333333,52.892903451387326L49.47351079999999,53.208769810095276L50.27066706666667,53.20604150197497L51.06782333333333,53.319716124239L51.8649796,53.28636028456749L52.66213586666666,53.84037530732778L53.459292133333335,53.89455812783466L54.2564484,53.70253698297L55.053604666666665,53.447900996768944L55.850760933333326,53.49478909190313L56.6479172,53.75996924928141L57.44507346666666,53.95195558465968L58.242229733333325,54.09095154316457L59.03938599999999,54.42281300803592L59.836542266666655,55.12553622266956L60.63369853333333,55.403076685180665L61.43085479999999,55.37278737837573L62.22801106666667,55.350857987671034L63.02516733333333,55.45059476097399L63.8223236,55.17596345271496L64.61947986666667,54.630290171720596L65.41663613333333,54.58206337277961L66.21379239999999,54.77837401415612L67.01094866666666,54.45804929666378L67.80810493333333,53.9949075272205L68.6052612,53.659592963971214L69.40241746666666,53.76366532518089L70.19957373333332,54.07024040318681L70.99673,54.17658739555979L71.79388626666666,54.369195954583574L72.59104253333334,54.62425788409194L73.3881988,54.80892271488282L74.18535506666666,54.942620049139734L74.98251133333332,55.03941691744554L75.7796676,54.87827117931163L76.57682386666666,54.87721500047772L77.37398013333333,55.107676995367385L78.1711364,55.27453147886418L78.96829266666667,55.51094745827206L79.76544893333333,55.68211262693161L80.5626052,55.8060362088146L81.35976146666665,55.780143548477334L82.15691773333333,55.87701059586629L82.95407399999999,56.06275567154908L83.75123026666665,56.19723510627599L84.54838653333333,56.2945982169826L85.34554279999999,56.3650891091159L86.14269906666667,56.30051118165292L86.93985533333333,56.25375676217631L87.7370116,56.219906562478414L88.53416786666666,56.07978568455652L89.33132413333333,55.9783381689463L90.12848039999999,56.02050350098569L90.92563666666666,56.0510312013812L91.72279293333332,56.07313325646715L92.51994919999999,55.973521811013946L93.31710546666666,56.01701645784137L94.11426173333334,56.04850658214412L94.911418,56.1869187654731L95.70857426666666,56.287129186203L96.50573053333332,56.47529486414486L97.3028868,56.61152681497458L98.10004306666666,56.825772080708504L98.89719933333332,56.980885653099804L99.69435559999998,56.97757454617767L100.49151186666667,57.090790638099435L101.28866813333333,57.17275908865053L102.08582439999999,57.23210424684977L102.88298066666665,57.15945680805249L103.68013693333332,56.99124672902985L104.47729319999999,57.10068929848437L105.27444946666667,57.064312385436104L106.07160573333333,57.03797550038891L106.86876199999999,56.903294262281534L107.66591826666667,56.92139837922515L108.46307453333333,57.050119093225625L109.26023079999999,57.258926223495116L110.05738706666665,57.410102585810556L110.85454333333334,57.6351676054601L111.6516996,57.682501346353284L112.44885586666666,57.832384308093154L113.24601213333332,57.94089957239266L114.0431684,58.13507795707888L114.84032466666666,58.27566310759177L115.63748093333332,58.37744675656311L116.43463719999998,58.45113811841815L117.23179346666664,58.620103997734994L118.02894973333333,58.85804862769331L118.826106,59.145933873116725L119.62326226666666,59.23874945746992L120.42041853333332,59.30594794054155L121.2175748,59.35459964228541L122.01473106666666,59.27421014101473L122.81188733333332,58.98478147542799L123.60904359999998,58.775235121543396L124.40619986666667,58.854750227997414L125.20335613333333,59.1435458317368L126.00051239999999,59.46824718217744L126.79766866666665,59.58771762656315L127.59482493333331,59.78982756163175L128.3919812,59.93615515462142L129.18913746666666,60.042096331945785L129.98629373333333,60.23441107766215L130.78345,60.4892602868941L131.58060626666668,60.673771114378006L132.37776253333334,60.807356953476344L133.1749188,61.13529976765006L133.97207506666666,61.60395703177866L134.76923133333332,62.05887822434115L135.56638759999998,62.388241167756355L136.36354386666665,62.85792660545564L137.1607001333333,63.42920552901649L137.95785639999997,63.95842480300796L138.75501266666666,64.45719289071121L139.55216893333332,64.81830098620814L140.34932519999998,65.1953565806814L141.14648146666664,65.46834483107996L141.94363773333333,65.78160165770196L142.740794,66.23962626684296L143.53795026666666,66.68684941719432L144.33510653333332,67.24186564471539L145.1322628,67.52808406010732L145.92941906666667,67.8509195261844L146.72657533333333,68.31587907029086L147.5237316,68.76812311355721L148.32088786666665,69.09554780088214L149.11804413333334,69.33260327450536L149.9152004,69.7354581040753L150.71235666666666,70.1427383340173L151.50951293333333,70.66883588716179L152.3066692,71.16534384897183L153.10382546666665,71.7560422799889L153.9009817333333,72.99300127737851L154.69813799999997,74.00417292482209L155.49529426666666,75.08310119757122L156.29245053333332,76.4423119337083L157.08960679999998,77.54199384000496L157.88676306666665,78.33816354016356L158.68391933333334,79.14581706974512L159.4810756,79.84617155849536L160.27823186666666,80.46884154168399L161.07538813333332,81.1508812761792L161.87254439999998,81.760291377287L162.66970066666667,82.20150429048918L163.46685693333333,82.75216910631411L164.2640132,83.2664637663048L165.06116946666666,83.98565310013805L165.85832573333332,84.85318617783334L166.65548199999998,85.943733459418L167.45263826666664,86.96451635795188L168.2497945333333,87.81917650982382L169.0469508,89.01601712644585L169.84410706666665,90.69182306621354L170.6412633333333,91.9051065666053L171.43841959999997,93.01475048755563L172.23557586666664,94.04935935299036L173.03273213333333,95.02964283823178L173.8298884,95.85498141487977L174.62704466666665,96.56813987770627L175.4242009333333,97.20007993812604L176.2213572,97.65760454186987L177.01851346666666,98.1044656883138L177.81566973333332,98.659219825006L178.61282599999998,99.52331515330444L179.40998226666667,100.26453350432584L180.20713853333334,101.03240225713192L181.0042948,102.05079256749684L181.80145106666666,103.01933381886775L182.59860733333332,103.83617101819351L183.39576359999998,104.77440115050547L184.19291986666664,106.14735976629929L184.9900761333333,107.83506180413396L185.78723239999997,109.75063807952625L186.58438866666665,111.94680863624369L187.3815449333333,114.11490278597374L188.1787012,115.80021628371166L188.97585746666667,117.25160992274054L189.77301373333333,118.64925891739745L190.57017,119.89238345619572L191.36732626666665,121.25485895561903L192.1644825333333,122.35690455053486L192.96163879999997,123.38601222792062L193.75879506666664,124.2466995196811L194.55595133333335,125.2166771189159L195.35310760000002,126.03455423409511L196.15026386666668,126.74231059881821L196.94742013333334,127.25472620687775L197.7445764,127.74132844044614L198.54173266666666,128.55608179088304L199.33888893333332,130.07086988326603L200.13604519999998,131.8612564621513L200.93320146666665,133.85117634526415L201.73035773333334,136.21678500730454L202.527514,138.5075523452886L203.32467026666666,140.39729456465557L204.12182653333332,141.7654679314773L204.91898279999998,142.87163878238945L205.71613906666664,143.67250647845006L206.5132953333333,144.25233469039793L207.31045159999996,144.67213031584814L208.10760786666663,144.97606234867405L208.90476413333334,145.31172247377341L209.7019204,145.55474040434527L210.49907666666667,145.7306853860794L211.29623293333333,145.9736828861882L212.0933892,146.14961307626695L212.89054546666665,146.27698653388393L213.6877017333333,146.48481825053196L214.48485799999997,146.8665150800518L215.28201426666666,147.72093025129084L216.07917053333333,149.14882016860125L216.8763268,150.7606791354006L217.67348306666665,152.6213450273634L218.4706393333333,154.66214713314434L219.26779559999997,156.02407452439647L220.06495186666663,157.35694995566303L220.8621081333333,158.32195176790003L221.65926439999996,159.13622641329295L222.45642066666667,159.84137458989073L223.25357693333333,160.4675152030809L224.0507332,161.38329434036388L224.84788946666666,162.27754510242346L225.64504573333332,163.04059598748788L226.44220199999998,163.93988482827456L227.23935826666664,164.93780994900405L228.0365145333333,165.77592106974566L228.8336708,166.61394018782914L229.63082706666665,167.5675060293217L230.42798333333332,168.83595436522896L231.22513959999998,170.33237762709237L232.02229586666664,172.10946806868165L232.8194521333333,174.43660154839213L233.61660839999996,176.35267285436925L234.41376466666662,178.08674847989658L235.2109209333333,179.68905923277853L236.0080772,181.42719888453163L236.80523346666666,182.91683865906748L237.60238973333333,184.3421778558316L238.399546,185.48973676762196L239.19670226666665,186.43618275309163L239.9938585333333,187.12140964657164L240.79101479999997,187.8487405841179L241.58817106666663,188.60655484956806L242.3853273333333,189.38643904442057L243.1824836,190.41352853482718L243.97963986666667,191.7352079925482L244.77679613333333,193.50139725327153L245.5739524,195.7050249447019L246.37110866666666,197.5316780599642L247.16826493333332,199.31662824874735L247.96542119999998,201.07138551875977L248.76257746666664,202.80428311558208L249.55973373333333,204.52135430901473L250.35689,205.64890051972668L251.15404626666665,206.58085730961548L251.95120253333332,207.255594025495L252.74835879999998,207.859716741125L253.54551506666664,208.52832825390783L254.3426713333333,209.47485632249592L255.13982759999996,210.73820931082034L255.93698386666662,212.1153302077006L256.7341401333333,213.69043240370857L257.5312964,215.29325972695162L258.32845266666664,216.91616004231298L259.1256089333333,218.7848198706346L259.92276519999996,220.60018291967273L260.7199214666666,222.37695910050968L261.5170777333333,223.89457172210228L262.31423399999994,225.10893659346868L263.11139026666666,226.10375009367127L263.9085465333333,226.9396084011514L264.7057028,227.54476981576698L265.50285906666664,228.09852001328207L266.3000153333333,228.49943515628294L267.09717159999997,229.13653771981555L267.89432786666663,230.4070933091464L268.6914841333333,232.25188222248863L269.48864039999995,234.16557606241514L270.28579666666667,236.36038373585527L271.08295293333333,238.6431044914259L271.8801092,240.7582476517924L272.67726546666665,242.9832912998977L273.4744217333333,245.51912956779262L274.271578,248.27998314041517L275.06873426666664,251.08813446032727L275.8658905333333,253.58368934927697L276.66304679999996,255.96853775554314L277.4602030666667,257.81078133501313L278.25735933333334,259.1445656865496L279.0545156,260.2258388903952L279.85167186666666,261.23990735664614L280.6488281333333,262.0897062595452L281.4459844,262.8205739985774L282.24314066666665,263.58094890830336L283.0402969333333,264.36268700961165L283.8374532,265.2755053949589L284.6346094666667,266.1676125726169L285.43176573333335,266.9291115025746L286.228922,267.59605006119733L287.0260782666667,268.42575357764014L287.82323453333333,269.3732989235447L288.6203908,270.40616175397986L289.41754706666666,271.5007944432147L290.2147033333333,272.7557618435541L291.0118596,273.7799715747331L291.80901586666664,274.6371127534402L292.6061721333333,275.37329630015745L293.40332839999996,276.1375198546473L294.2004846666666,277.037657708098L294.9976409333333,277.9205841806629L295.79479719999995,278.7910496134666L296.5919534666666,279.8837199201498L297.38910973333327,281.13726655552193L298.186266,282.2760609861978L298.98342226666665,283.33177482067384L299.7805785333333,284.3273383035012L300.5777348,285.39496626506826L301.37489106666663,286.16792890924273L302.1720473333333,286.7275538636251L302.96920359999996,287.24833566393124L303.7663598666666,287.6253816873529L304.56351613333334,287.8983630083102L305.3606724,288.2116148180165L306.15782866666666,288.6696357949107L306.9549849333333,289.2324696488487L307.7521412,289.98680135909973L308.54929746666664,290.8797775173215L309.3464537333333,291.87313225587417L310.14360999999997,292.82354775325285L310.9407662666666,293.62726190668843L311.73792253333335,294.5559909537758L312.5350788,295.3440041172004L313.33223506666667,295.9145256475197L314.12939133333333,296.4431965688043L314.9265476,296.7103409824809L315.72370386666665,296.90375353798277L316.5208601333333,297.1593975614995L317.3180164,297.3444838345256L318.11517266666664,297.47848629619654L318.9123289333333,297.57550407844633L319.70948519999996,297.7613582861284L320.5066414666666,298.2427567324903L321.3037977333333,299.0537425409897L322.10095399999994,300.1033495996765L322.8981102666666,301.44133177683244L323.6952665333333,303.10371087309335L324.4924228,304.53850000545293L325.28957906666665,305.6929006706145L326.0867353333333,306.41307341885823L326.88389159999997,306.8188651552533L327.68104786666663,307.1126583724034L328.4782041333333,307.4409779949534L329.27536039999995,308.02552140167955L330.0725166666666,309.02679749481604L330.8696729333333,310.4454013862469L331.66682919999994,312.2817639369761L332.46398546666666,314.65181042370403L333.2611417333333,317.1770174134284L334.058298,319.6989472739888L334.85545426666664,321.6404378263679L335.6526105333333,323.2773036529571L336.44976679999996,324.57800784474085L337.2469230666666,325.63533101292563L338.0440793333333,326.63205965335817L338.8412356,327.58491785569805L339.63839186666667,328.50601386085873L340.4355481333333,329.2885007019283L341.2327044,329.9706345081961L342.02986066666665,330.58011271726735" style="fill: none;" fill="none"></path></g></g></g></g><g opacity="0.2"><g><g><g><path stroke="rgb(255, 112, 67)" stroke-width="2px" d="M31.936072933333328,99.69555555555557L32.7332292,69.95444444444446L33.530385466666665,74.98111111111112L34.327541733333334,74.56222222222225L35.124697999999995,81.26444444444442L35.921854266666664,74.14333333333333L36.71901053333333,68.27888888888889L37.5161668,63.6711111111111L38.31332306666666,64.50888888888889L39.11047933333333,60.73888888888888L39.9076356,57.38777777777779L40.70479186666666,56.55000000000001L41.50194813333333,54.45555555555557L42.2991044,54.45555555555557L43.09626066666666,51.94222222222222L43.89341693333333,53.61777777777779L44.690573199999996,52.78000000000001L45.487729466666664,52.36111111111109L46.28488573333333,51.10444444444444L47.082041999999994,53.198888888888874L47.879198266666656,51.94222222222222L48.67635453333333,52.78000000000001L49.47351079999999,54.03666666666666L50.27066706666667,53.198888888888874L51.06782333333333,53.61777777777779L51.8649796,53.198888888888874L52.66213586666666,55.293333333333315L53.459292133333335,54.03666666666666L54.2564484,53.198888888888874L55.053604666666665,52.78000000000001L55.850760933333326,53.61777777777779L56.6479172,54.45555555555557L57.44507346666666,54.45555555555557L58.242229733333325,54.45555555555557L59.03938599999999,55.293333333333315L59.836542266666655,56.96888888888888L60.63369853333333,56.131111111111096L61.43085479999999,55.293333333333315L62.22801106666667,55.293333333333315L63.02516733333333,55.71222222222222L63.8223236,54.45555555555557L64.61947986666667,53.198888888888874L65.41663613333333,54.45555555555557L66.21379239999999,55.293333333333315L67.01094866666666,53.61777777777779L67.80810493333333,52.78000000000001L68.6052612,52.78000000000001L69.40241746666666,54.03666666666666L70.19957373333332,54.87444444444444L70.99673,54.45555555555557L71.79388626666666,54.87444444444444L72.59104253333334,55.293333333333315L73.3881988,55.293333333333315L74.18535506666666,55.293333333333315L74.98251133333332,55.293333333333315L75.7796676,54.45555555555557L76.57682386666666,54.87444444444444L77.37398013333333,55.71222222222222L78.1711364,55.71222222222222L78.96829266666667,56.131111111111096L79.76544893333333,56.131111111111096L80.5626052,56.131111111111096L81.35976146666665,55.71222222222222L82.15691773333333,56.131111111111096L82.95407399999999,56.55000000000001L83.75123026666665,56.55000000000001L84.54838653333333,56.55000000000001L85.34554279999999,56.55000000000001L86.14269906666667,56.131111111111096L86.93985533333333,56.131111111111096L87.7370116,56.131111111111096L88.53416786666666,55.71222222222222L89.33132413333333,55.71222222222222L90.12848039999999,56.131111111111096L90.92563666666666,56.131111111111096L91.72279293333332,56.131111111111096L92.51994919999999,55.71222222222222L93.31710546666666,56.131111111111096L94.11426173333334,56.131111111111096L94.911418,56.55000000000001L95.70857426666666,56.55000000000001L96.50573053333332,56.96888888888888L97.3028868,56.96888888888888L98.10004306666666,57.38777777777779L98.89719933333332,57.38777777777779L99.69435559999998,56.96888888888888L100.49151186666667,57.38777777777779L101.28866813333333,57.38777777777779L102.08582439999999,57.38777777777779L102.88298066666665,56.96888888888888L103.68013693333332,56.55000000000001L104.47729319999999,57.38777777777779L105.27444946666667,56.96888888888888L106.07160573333333,56.96888888888888L106.86876199999999,56.55000000000001L107.66591826666667,56.96888888888888L108.46307453333333,57.38777777777779L109.26023079999999,57.806666666666665L110.05738706666665,57.806666666666665L110.85454333333334,58.22555555555557L111.6516996,57.806666666666665L112.44885586666666,58.22555555555557L113.24601213333332,58.22555555555557L114.0431684,58.644444444444446L114.84032466666666,58.644444444444446L115.63748093333332,58.644444444444446L116.43463719999998,58.644444444444446L117.23179346666664,59.06333333333332L118.02894973333333,59.48222222222223L118.826106,59.9011111111111L119.62326226666666,59.48222222222223L120.42041853333332,59.48222222222223L121.2175748,59.48222222222223L122.01473106666666,59.06333333333332L122.81188733333332,58.22555555555557L123.60904359999998,58.22555555555557L124.40619986666667,59.06333333333332L125.20335613333333,59.9011111111111L126.00051239999999,60.320000000000014L126.79766866666665,59.9011111111111L127.59482493333331,60.320000000000014L128.3919812,60.320000000000014L129.18913746666666,60.320000000000014L129.98629373333333,60.73888888888888L130.78345,61.157777777777795L131.58060626666668,61.157777777777795L132.37776253333334,61.157777777777795L133.1749188,61.99555555555553L133.97207506666666,62.83333333333332L134.76923133333332,63.25222222222223L135.56638759999998,63.25222222222223L136.36354386666665,64.09000000000002L137.1607001333333,64.92777777777779L137.95785639999997,65.34666666666666L138.75501266666666,65.76555555555554L139.55216893333332,65.76555555555554L140.34932519999998,66.18444444444445L141.14648146666664,66.18444444444445L141.94363773333333,66.60333333333332L142.740794,67.44111111111111L143.53795026666666,67.86000000000001L144.33510653333332,68.69777777777776L145.1322628,68.27888888888889L145.92941906666667,68.69777777777776L146.72657533333333,69.53555555555555L147.5237316,69.95444444444446L148.32088786666665,69.95444444444446L149.11804413333334,69.95444444444446L149.9152004,70.79222222222224L150.71235666666666,71.21111111111111L151.50951293333333,72.0488888888889L152.3066692,72.46777777777777L153.10382546666665,73.30555555555554L153.9009817333333,76.23777777777777L154.69813799999997,76.65666666666668L155.49529426666666,77.91333333333333L156.29245053333332,80.00777777777778L157.08960679999998,80.42666666666668L157.88676306666665,80.42666666666668L158.68391933333334,81.26444444444442L159.4810756,81.68333333333334L160.27823186666666,82.10222222222221L161.07538813333332,82.93999999999998L161.87254439999998,83.3588888888889L162.66970066666667,83.3588888888889L163.46685693333333,84.19666666666669L164.2640132,84.61555555555556L165.06116946666666,85.8722222222222L165.85832573333332,87.12888888888891L166.65548199999998,88.80444444444443L167.45263826666664,89.64222222222222L168.2497945333333,90.06111111111113L169.0469508,92.15555555555557L169.84410706666665,95.08777777777779L170.6412633333333,95.08777777777779L171.43841959999997,95.92555555555556L172.23557586666664,96.76333333333335L173.03273213333333,97.6011111111111L173.8298884,98.02000000000001L174.62704466666665,98.43888888888887L175.4242009333333,98.85777777777778L176.2213572,98.85777777777778L177.01851346666666,99.27666666666666L177.81566973333332,100.11444444444444L178.61282599999998,101.79L179.40998226666667,102.20888888888888L180.20713853333334,103.04666666666667L181.0042948,104.72222222222223L181.80145106666666,105.56000000000002L182.59860733333332,105.97888888888887L183.39576359999998,107.23555555555558L184.19291986666664,109.74888888888889L184.9900761333333,112.26222222222223L185.78723239999997,114.77555555555554L186.58438866666665,117.70777777777776L187.3815449333333,119.80222222222224L188.1787012,120.22111111111111L188.97585746666667,121.05888888888889L189.77301373333333,122.31555555555555L190.57017,123.15333333333334L191.36732626666665,124.8288888888889L192.1644825333333,125.24777777777777L192.96163879999997,126.08555555555556L193.75879506666664,126.50444444444446L194.55595133333335,127.76111111111112L195.35310760000002,128.17999999999998L196.15026386666668,128.5988888888889L196.94742013333334,128.5988888888889L197.7445764,129.01777777777778L198.54173266666666,130.69333333333333L199.33888893333332,134.04444444444442L200.13604519999998,136.55777777777777L200.93320146666665,139.07111111111112L201.73035773333334,142.42222222222222L202.527514,144.51666666666665L203.32467026666666,145.35444444444443L204.12182653333332,145.35444444444443L204.91898279999998,145.77333333333334L205.71613906666664,145.77333333333334L206.5132953333333,145.77333333333334L207.31045159999996,145.77333333333334L208.10760786666663,145.77333333333334L208.90476413333334,146.19222222222223L209.7019204,146.19222222222223L210.49907666666667,146.19222222222223L211.29623293333333,146.6111111111111L212.0933892,146.6111111111111L212.89054546666665,146.6111111111111L213.6877017333333,147.03L214.48485799999997,147.86777777777777L215.28201426666666,149.96222222222224L216.07917053333333,152.89444444444445L216.8763268,154.98888888888888L217.67348306666665,157.50222222222223L218.4706393333333,160.01555555555555L219.26779559999997,159.59666666666666L220.06495186666663,160.85333333333332L220.8621081333333,160.85333333333332L221.65926439999996,161.27222222222224L222.45642066666667,161.6911111111111L223.25357693333333,162.11L224.0507332,163.78555555555553L224.84788946666666,164.62333333333333L225.64504573333332,165.04222222222225L226.44220199999998,166.29888888888888L227.23935826666664,167.55555555555554L228.0365145333333,167.97444444444446L228.8336708,168.81222222222223L229.63082706666665,170.0688888888889L230.42798333333332,172.16333333333333L231.22513959999998,174.25777777777776L232.02229586666664,176.7711111111111L232.8194521333333,180.54111111111112L233.61660839999996,181.3788888888889L234.41376466666662,182.63555555555556L235.2109209333333,183.89222222222222L236.0080772,185.98666666666665L236.80523346666666,186.82444444444442L237.60238973333333,188.08111111111114L238.399546,188.5L239.19670226666665,188.91888888888886L239.9938585333333,188.91888888888886L240.79101479999997,189.7566666666667L241.58817106666663,190.59444444444443L242.3853273333333,191.4322222222222L243.1824836,193.10777777777778L243.97963986666667,195.20222222222222L244.77679613333333,198.13444444444445L245.5739524,201.48555555555558L246.37110866666666,202.32333333333332L247.16826493333332,203.99888888888887L247.96542119999998,205.67444444444445L248.76257746666664,207.35000000000002L249.55973373333333,209.02555555555557L250.35689,208.60666666666668L251.15404626666665,209.02555555555557L251.95120253333332,209.02555555555557L252.74835879999998,209.44444444444446L253.54551506666664,210.2822222222222L254.3426713333333,211.95777777777775L255.13982759999996,214.0522222222222L255.93698386666662,215.72777777777776L256.7341401333333,217.8222222222222L257.5312964,219.49777777777777L258.32845266666664,221.17333333333335L259.1256089333333,223.68666666666664L259.92276519999996,225.36222222222221L260.7199214666666,227.03777777777776L261.5170777333333,227.87555555555556L262.31423399999994,228.29444444444448L263.11139026666666,228.71333333333334L263.9085465333333,229.13222222222223L264.7057028,229.13222222222223L265.50285906666664,229.55111111111108L266.3000153333333,229.55111111111108L267.09717159999997,230.80777777777777L267.89432786666663,233.74L268.6914841333333,237.09111111111108L269.48864039999995,239.18555555555554L270.28579666666667,242.11777777777777L271.08295293333333,244.6311111111111L271.8801092,246.30666666666667L272.67726546666665,248.81999999999996L273.4744217333333,252.17111111111112L274.271578,255.52222222222224L275.06873426666664,258.4544444444444L275.8658905333333,260.13L276.66304679999996,262.22444444444443L277.4602030666667,262.6433333333333L278.25735933333334,262.6433333333333L279.0545156,263.06222222222226L279.85167186666666,263.9L280.6488281333333,264.3188888888889L281.4459844,264.7377777777778L282.24314066666665,265.5755555555555L283.0402969333333,266.41333333333336L283.8374532,267.66999999999996L284.6346094666667,268.5077777777778L285.43176573333335,268.9266666666667L286.228922,269.34555555555556L287.0260782666667,270.6022222222222L287.82323453333333,271.8588888888889L288.6203908,273.11555555555555L289.41754706666666,274.37222222222226L290.2147033333333,276.04777777777775L291.0118596,276.4666666666667L291.80901586666664,276.8855555555556L292.6061721333333,277.3044444444444L293.40332839999996,278.1422222222222L294.2004846666666,279.39888888888885L294.9976409333333,280.2366666666667L295.79479719999995,281.07444444444445L296.5919534666666,282.75L297.38910973333327,284.42555555555555L298.186266,285.2633333333333L298.98342226666665,286.10111111111115L299.7805785333333,286.93888888888887L300.5777348,288.1955555555556L301.37489106666663,288.1955555555556L302.1720473333333,288.1955555555556L302.96920359999996,288.6144444444444L303.7663598666666,288.6144444444444L304.56351613333334,288.6144444444444L305.3606724,289.0333333333333L306.15782866666666,289.87111111111113L306.9549849333333,290.70888888888885L307.7521412,291.96555555555557L308.54929746666664,293.22222222222223L309.3464537333333,294.4788888888889L310.14360999999997,295.31666666666666L310.9407662666666,295.73555555555555L311.73792253333335,296.9922222222222L312.5350788,297.4111111111111L313.33223506666667,297.4111111111111L314.12939133333333,297.83000000000004L314.9265476,297.4111111111111L315.72370386666665,297.4111111111111L316.5208601333333,297.83000000000004L317.3180164,297.83000000000004L318.11517266666664,297.83000000000004L318.9123289333333,297.83000000000004L319.70948519999996,298.24888888888887L320.5066414666666,299.5055555555556L321.3037977333333,301.1811111111111L322.10095399999994,302.8566666666667L322.8981102666666,304.9511111111111L323.6952665333333,307.46444444444444L324.4924228,308.3022222222222L325.28957906666665,308.7211111111111L326.0867353333333,308.3022222222222L326.88389159999997,307.8833333333333L327.68104786666663,307.8833333333333L328.4782041333333,308.3022222222222L329.27536039999995,309.5588888888889L330.0725166666666,311.6533333333333L330.8696729333333,314.1666666666667L331.66682919999994,317.0988888888889L332.46398546666666,320.86888888888893L333.2611417333333,323.80111111111114L334.058298,326.3144444444444L334.85545426666664,326.73333333333335L335.6526105333333,327.57111111111107L336.44976679999996,327.99L337.2469230666666,328.4088888888889L338.0440793333333,329.24666666666667L338.8412356,330.08444444444444L339.63839186666667,330.9222222222222L340.4355481333333,331.3411111111111L341.2327044,331.76L342.02986066666665,332.1788888888889" style="fill: none;" fill="none"></path></g></g></g></g></g></g><g transform="translate(70, 377)" clip-path="url(#clip_1)"><clipPath id="clip_1"><rect width="373" height="23"></rect></clipPath><g><g><line x1="0" y1="0" x2="0" y2="5" style="visibility: inherit;" fill="rgb(0, 0, 0)" stroke="rgb(204, 204, 204)" stroke-width="1px"></line><line x1="31.138916666666663" y1="0" x2="31.138916666666663" y2="5" style="visibility: inherit;" fill="rgb(0, 0, 0)" stroke="rgb(204, 204, 204)" stroke-width="1px"></line><line x1="62.27783333333333" y1="0" x2="62.27783333333333" y2="5" style="visibility: inherit;" fill="rgb(0, 0, 0)" stroke="rgb(204, 204, 204)" stroke-width="1px"></line><line x1="93.41675" y1="0" x2="93.41675" y2="5" style="visibility: inherit;" fill="rgb(0, 0, 0)" stroke="rgb(204, 204, 204)" stroke-width="1px"></line><line x1="124.55566666666665" y1="0" x2="124.55566666666665" y2="5" style="visibility: inherit;" fill="rgb(0, 0, 0)" stroke="rgb(204, 204, 204)" stroke-width="1px"></line><line x1="155.69458333333333" y1="0" x2="155.69458333333333" y2="5" style="visibility: inherit;" fill="rgb(0, 0, 0)" stroke="rgb(204, 204, 204)" stroke-width="1px"></line><line x1="186.8335" y1="0" x2="186.8335" y2="5" style="visibility: inherit;" fill="rgb(0, 0, 0)" stroke="rgb(204, 204, 204)" stroke-width="1px"></line><line x1="217.97241666666667" y1="0" x2="217.97241666666667" y2="5" style="visibility: inherit;" fill="rgb(0, 0, 0)" stroke="rgb(204, 204, 204)" stroke-width="1px"></line><line x1="249.1113333333333" y1="0" x2="249.1113333333333" y2="5" style="visibility: inherit;" fill="rgb(0, 0, 0)" stroke="rgb(204, 204, 204)" stroke-width="1px"></line><line x1="280.25025" y1="0" x2="280.25025" y2="5" style="visibility: inherit;" fill="rgb(0, 0, 0)" stroke="rgb(204, 204, 204)" stroke-width="1px"></line><line x1="311.38916666666665" y1="0" x2="311.38916666666665" y2="5" style="visibility: inherit;" fill="rgb(0, 0, 0)" stroke="rgb(204, 204, 204)" stroke-width="1px"></line><line x1="342.5280833333333" y1="0" x2="342.5280833333333" y2="5" style="visibility: inherit;" fill="rgb(0, 0, 0)" stroke="rgb(204, 204, 204)" stroke-width="1px"></line><line x1="373.667" y1="0" x2="373.667" y2="5" style="visibility: inherit;" fill="rgb(0, 0, 0)" stroke="rgb(204, 204, 204)" stroke-width="1px"></line></g><g transform="translate(0, 8)"><text x="0" y="0" dx="0em" dy="0.95em" style="text-anchor: middle; visibility: hidden; font-family: Roboto, sans-serif; font-size: 12px; font-weight: 200;" fill="rgb(33, 33, 33)" stroke="none" stroke-width="1px">-20k</text><text x="31.138916666666663" y="0" dx="0em" dy="0.95em" style="text-anchor: middle; visibility: inherit; font-family: Roboto, sans-serif; font-size: 12px; font-weight: 200;" fill="rgb(33, 33, 33)" stroke="none" stroke-width="1px">0</text><text x="62.27783333333333" y="0" dx="0em" dy="0.95em" style="text-anchor: middle; visibility: hidden; font-family: Roboto, sans-serif; font-size: 12px; font-weight: 200;" fill="rgb(33, 33, 33)" stroke="none" stroke-width="1px">20k</text><text x="93.41675" y="0" dx="0em" dy="0.95em" style="text-anchor: middle; visibility: inherit; font-family: Roboto, sans-serif; font-size: 12px; font-weight: 200;" fill="rgb(33, 33, 33)" stroke="none" stroke-width="1px">40k</text><text x="124.55566666666665" y="0" dx="0em" dy="0.95em" style="text-anchor: middle; visibility: hidden; font-family: Roboto, sans-serif; font-size: 12px; font-weight: 200;" fill="rgb(33, 33, 33)" stroke="none" stroke-width="1px">60k</text><text x="155.69458333333333" y="0" dx="0em" dy="0.95em" style="text-anchor: middle; visibility: inherit; font-family: Roboto, sans-serif; font-size: 12px; font-weight: 200;" fill="rgb(33, 33, 33)" stroke="none" stroke-width="1px">80k</text><text x="186.8335" y="0" dx="0em" dy="0.95em" style="text-anchor: middle; visibility: hidden; font-family: Roboto, sans-serif; font-size: 12px; font-weight: 200;" fill="rgb(33, 33, 33)" stroke="none" stroke-width="1px">100k</text><text x="217.97241666666667" y="0" dx="0em" dy="0.95em" style="text-anchor: middle; visibility: inherit; font-family: Roboto, sans-serif; font-size: 12px; font-weight: 200;" fill="rgb(33, 33, 33)" stroke="none" stroke-width="1px">120k</text><text x="249.1113333333333" y="0" dx="0em" dy="0.95em" style="text-anchor: middle; visibility: hidden; font-family: Roboto, sans-serif; font-size: 12px; font-weight: 200;" fill="rgb(33, 33, 33)" stroke="none" stroke-width="1px">140k</text><text x="280.25025" y="0" dx="0em" dy="0.95em" style="text-anchor: middle; visibility: inherit; font-family: Roboto, sans-serif; font-size: 12px; font-weight: 200;" fill="rgb(33, 33, 33)" stroke="none" stroke-width="1px">160k</text><text x="311.38916666666665" y="0" dx="0em" dy="0.95em" style="text-anchor: middle; visibility: hidden; font-family: Roboto, sans-serif; font-size: 12px; font-weight: 200;" fill="rgb(33, 33, 33)" stroke="none" stroke-width="1px">180k</text><text x="342.5280833333333" y="0" dx="0em" dy="0.95em" style="text-anchor: middle; visibility: inherit; font-family: Roboto, sans-serif; font-size: 12px; font-weight: 200;" fill="rgb(33, 33, 33)" stroke="none" stroke-width="1px">200k</text><text x="373.667" y="0" dx="0em" dy="0.95em" style="text-anchor: middle; visibility: hidden; font-family: Roboto, sans-serif; font-size: 12px; font-weight: 200;" fill="rgb(33, 33, 33)" stroke="none" stroke-width="1px">220k</text></g><line x1="0" y1="0" x2="373.667" y2="0" fill="rgb(0, 0, 0)" stroke="rgb(204, 204, 204)" stroke-width="1px"></line></g></g></g></g></svg>