<svg viewBox="0 0 443.66668701171875 400" xmlns="http://www.w3.org/2000/svg"><g><g><g><g><g><line x1="50" y1="377" x2="45" y2="377" style="visibility: inherit;" fill="rgb(0, 0, 0)" stroke="rgb(204, 204, 204)" stroke-width="1px"></line><line x1="50" y1="335.1111111111111" x2="45" y2="335.1111111111111" style="visibility: inherit;" fill="rgb(0, 0, 0)" stroke="rgb(204, 204, 204)" stroke-width="1px"></line><line x1="50" y1="293.2222222222221" x2="45" y2="293.2222222222221" style="visibility: inherit;" fill="rgb(0, 0, 0)" stroke="rgb(204, 204, 204)" stroke-width="1px"></line><line x1="50" y1="251.3333333333334" x2="45" y2="251.3333333333334" style="visibility: inherit;" fill="rgb(0, 0, 0)" stroke="rgb(204, 204, 204)" stroke-width="1px"></line><line x1="50" y1="209.44444444444446" x2="45" y2="209.44444444444446" style="visibility: inherit;" fill="rgb(0, 0, 0)" stroke="rgb(204, 204, 204)" stroke-width="1px"></line><line x1="50" y1="167.55555555555554" x2="45" y2="167.55555555555554" style="visibility: inherit;" fill="rgb(0, 0, 0)" stroke="rgb(204, 204, 204)" stroke-width="1px"></line><line x1="50" y1="125.6666666666666" x2="45" y2="125.6666666666666" style="visibility: inherit;" fill="rgb(0, 0, 0)" stroke="rgb(204, 204, 204)" stroke-width="1px"></line><line x1="50" y1="83.77777777777769" x2="45" y2="83.77777777777769" style="visibility: inherit;" fill="rgb(0, 0, 0)" stroke="rgb(204, 204, 204)" stroke-width="1px"></line><line x1="50" y1="41.88888888888895" x2="45" y2="41.88888888888895" style="visibility: inherit;" fill="rgb(0, 0, 0)" stroke="rgb(204, 204, 204)" stroke-width="1px"></line><line x1="50" y1="0" x2="45" y2="0" style="visibility: inherit;" fill="rgb(0, 0, 0)" stroke="rgb(204, 204, 204)" stroke-width="1px"></line></g><g transform="translate(40, 0)"><text x="0" y="377" dx="0em" dy="0.3em" style="text-anchor: end; visibility: hidden; font-family: Roboto, sans-serif; font-size: 12px; font-weight: 200;" fill="rgb(33, 33, 33)" stroke="none" stroke-width="1px">1</text><text x="0" y="335.1111111111111" dx="0em" dy="0.3em" style="text-anchor: end; visibility: inherit; font-family: Roboto, sans-serif; font-size: 12px; font-weight: 200;" fill="rgb(33, 33, 33)" stroke="none" stroke-width="1px">1.05</text><text x="0" y="293.2222222222221" dx="0em" dy="0.3em" style="text-anchor: end; visibility: inherit; font-family: Roboto, sans-serif; font-size: 12px; font-weight: 200;" fill="rgb(33, 33, 33)" stroke="none" stroke-width="1px">1.1</text><text x="0" y="251.3333333333334" dx="0em" dy="0.3em" style="text-anchor: end; visibility: inherit; font-family: Roboto, sans-serif; font-size: 12px; font-weight: 200;" fill="rgb(33, 33, 33)" stroke="none" stroke-width="1px">1.15</text><text x="0" y="209.44444444444446" dx="0em" dy="0.3em" style="text-anchor: end; visibility: inherit; font-family: Roboto, sans-serif; font-size: 12px; font-weight: 200;" fill="rgb(33, 33, 33)" stroke="none" stroke-width="1px">1.2</text><text x="0" y="167.55555555555554" dx="0em" dy="0.3em" style="text-anchor: end; visibility: inherit; font-family: Roboto, sans-serif; font-size: 12px; font-weight: 200;" fill="rgb(33, 33, 33)" stroke="none" stroke-width="1px">1.25</text><text x="0" y="125.6666666666666" dx="0em" dy="0.3em" style="text-anchor: end; visibility: inherit; font-family: Roboto, sans-serif; font-size: 12px; font-weight: 200;" fill="rgb(33, 33, 33)" stroke="none" stroke-width="1px">1.3</text><text x="0" y="83.77777777777769" dx="0em" dy="0.3em" style="text-anchor: end; visibility: inherit; font-family: Roboto, sans-serif; font-size: 12px; font-weight: 200;" fill="rgb(33, 33, 33)" stroke="none" stroke-width="1px">1.35</text><text x="0" y="41.88888888888895" dx="0em" dy="0.3em" style="text-anchor: end; visibility: inherit; font-family: Roboto, sans-serif; font-size: 12px; font-weight: 200;" fill="rgb(33, 33, 33)" stroke="none" stroke-width="1px">1.4</text><text x="0" y="0" dx="0em" dy="0.3em" style="text-anchor: end; visibility: hidden; font-family: Roboto, sans-serif; font-size: 12px; font-weight: 200;" fill="rgb(33, 33, 33)" stroke="none" stroke-width="1px">1.45</text></g><line x1="50" y1="0" x2="50" y2="377" fill="rgb(0, 0, 0)" stroke="rgb(204, 204, 204)" stroke-width="1px"></line></g></g><g transform="translate(50, 0)" clip-path="url(#clip_0)"><clipPath id="clip_0"><rect width="393" height="377"></rect></clipPath><g><g><g><line x1="0" y1="0" x2="0" y2="377" fill="rgb(0, 0, 0)" stroke="rgb(66, 66, 66)" stroke-width="1px" opacity="0.25"></line><line x1="32.80558333333333" y1="0" x2="32.80558333333333" y2="377" fill="rgb(0, 0, 0)" stroke="rgb(66, 66, 66)" stroke-width="1px" opacity="0.25"></line><line x1="65.61116666666666" y1="0" x2="65.61116666666666" y2="377" fill="rgb(0, 0, 0)" stroke="rgb(66, 66, 66)" stroke-width="1px" opacity="0.25"></line><line x1="98.41675" y1="0" x2="98.41675" y2="377" fill="rgb(0, 0, 0)" stroke="rgb(66, 66, 66)" stroke-width="1px" opacity="0.25"></line><line x1="131.22233333333332" y1="0" x2="131.22233333333332" y2="377" fill="rgb(0, 0, 0)" stroke="rgb(66, 66, 66)" stroke-width="1px" opacity="0.25"></line><line x1="164.02791666666667" y1="0" x2="164.02791666666667" y2="377" fill="rgb(0, 0, 0)" stroke="rgb(66, 66, 66)" stroke-width="1px" opacity="0.25"></line><line x1="196.8335" y1="0" x2="196.8335" y2="377" fill="rgb(0, 0, 0)" stroke="rgb(66, 66, 66)" stroke-width="1px" opacity="0.25"></line><line x1="229.63908333333333" y1="0" x2="229.63908333333333" y2="377" fill="rgb(0, 0, 0)" stroke="rgb(66, 66, 66)" stroke-width="1px" opacity="0.25"></line><line x1="262.44466666666665" y1="0" x2="262.44466666666665" y2="377" fill="rgb(0, 0, 0)" stroke="rgb(66, 66, 66)" stroke-width="1px" opacity="0.25"></line><line x1="295.25025" y1="0" x2="295.25025" y2="377" fill="rgb(0, 0, 0)" stroke="rgb(66, 66, 66)" stroke-width="1px" opacity="0.25"></line><line x1="328.05583333333334" y1="0" x2="328.05583333333334" y2="377" fill="rgb(0, 0, 0)" stroke="rgb(66, 66, 66)" stroke-width="1px" opacity="0.25"></line><line x1="360.8614166666666" y1="0" x2="360.8614166666666" y2="377" fill="rgb(0, 0, 0)" stroke="rgb(66, 66, 66)" stroke-width="1px" opacity="0.25"></line><line x1="393.667" y1="0" x2="393.667" y2="377" fill="rgb(0, 0, 0)" stroke="rgb(66, 66, 66)" stroke-width="1px" opacity="0.25"></line></g><g><line x1="0" y1="377" x2="393.667" y2="377" fill="rgb(0, 0, 0)" stroke="rgb(66, 66, 66)" stroke-width="1px" opacity="0.25"></line><line x1="0" y1="335.1111111111111" x2="393.667" y2="335.1111111111111" fill="rgb(0, 0, 0)" stroke="rgb(66, 66, 66)" stroke-width="1px" opacity="0.25"></line><line x1="0" y1="293.2222222222221" x2="393.667" y2="293.2222222222221" fill="rgb(0, 0, 0)" stroke="rgb(66, 66, 66)" stroke-width="1px" opacity="0.25"></line><line x1="0" y1="251.3333333333334" x2="393.667" y2="251.3333333333334" fill="rgb(0, 0, 0)" stroke="rgb(66, 66, 66)" stroke-width="1px" opacity="0.25"></line><line x1="0" y1="209.44444444444446" x2="393.667" y2="209.44444444444446" fill="rgb(0, 0, 0)" stroke="rgb(66, 66, 66)" stroke-width="1px" opacity="0.25"></line><line x1="0" y1="167.55555555555554" x2="393.667" y2="167.55555555555554" fill="rgb(0, 0, 0)" stroke="rgb(66, 66, 66)" stroke-width="1px" opacity="0.25"></line><line x1="0" y1="125.6666666666666" x2="393.667" y2="125.6666666666666" fill="rgb(0, 0, 0)" stroke="rgb(66, 66, 66)" stroke-width="1px" opacity="0.25"></line><line x1="0" y1="83.77777777777769" x2="393.667" y2="83.77777777777769" fill="rgb(0, 0, 0)" stroke="rgb(66, 66, 66)" stroke-width="1px" opacity="0.25"></line><line x1="0" y1="41.88888888888895" x2="393.667" y2="41.88888888888895" fill="rgb(0, 0, 0)" stroke="rgb(66, 66, 66)" stroke-width="1px" opacity="0.25"></line><line x1="0" y1="0" x2="393.667" y2="0" fill="rgb(0, 0, 0)" stroke="rgb(66, 66, 66)" stroke-width="1px" opacity="0.25"></line></g></g></g><g><g><line x1="0" y1="1214.7777777777778" x2="393.667" y2="1214.7777777777778" fill="rgb(0, 0, 0)" stroke="rgb(153, 153, 153)" stroke-width="1.5px"></line></g></g><g><g><line x1="32.80558333333333" y1="0" x2="32.80558333333333" y2="377" fill="rgb(0, 0, 0)" stroke="rgb(153, 153, 153)" stroke-width="1.5px"></line></g></g><g><g><g><g><g><path stroke="rgb(255, 112, 67)" stroke-width="2px" d="M33.64540626666666,53.60606172349731L34.4852292,53.69882260323298L35.32505213333333,53.7183491532215L36.16487506666667,53.76098737669302L37.004698,53.7264752254007L37.84452093333333,53.78338743005813L38.684343866666666,53.80569199624077L39.524166799999996,53.87595846798586L40.363989733333334,53.94665645816262L41.203812666666664,54.02609406603758L42.0436356,54.15365005074772L42.883458533333325,54.40180836520141L43.72328146666666,54.638882773520024L44.56310439999999,54.849650880234634L45.40292733333333,55.02112528967494L46.24275026666666,55.07582132441271L47.0825732,55.2271957157743L47.92239613333333,55.32867845013334L48.76221906666667,55.47877996912062L49.602042,55.71667512521818L50.44186493333333,55.89035467055038L51.281687866666665,56.11309111366295L52.121510799999996,56.33327010789314L52.96133373333333,56.49237308550579L53.80115666666666,56.91344705058129L54.6409796,57.191295118195065L55.480802533333325,57.65178788070317L56.32062546666667,58.29526995599725L57.16044839999999,58.33869465148744L58.00027133333333,58.52906381616926L58.84009426666666,59.49883940788287L59.6799172,59.92051782842755L60.51974013333333,59.68211594776115L61.35956306666666,60.10712243088833L62.199386,60.459001222726336L63.03920893333333,60.56194959129058L63.879031866666665,60.236611219512035L64.71885479999999,60.860771748137054L65.55867773333333,61.38678193601239L66.39850066666666,61.91864281614564L67.2383236,61.49422318898788L68.07814653333332,62.32455053347768L68.91796946666666,63.7446371226712L69.7577924,63.51179709355101L70.59761533333334,62.88400707612396L71.43743826666666,62.86954139620456L72.2772612,63.59444630848935L73.11708413333332,62.69005396269743L73.95690706666666,63.38207115356605L74.79673,64.6003620112587L75.63655293333332,64.6410851231882L76.47637586666666,65.11858223844203L77.3161988,64.79185995361034L78.15602173333333,64.58906846384026L78.99584466666666,63.83846231750187L79.8356676,63.08608831802205L80.67549053333333,63.06579504459977L81.51531346666667,64.51503370997561L82.35513639999999,65.47344997901983L83.19495933333333,66.099147898487L84.03478226666667,67.17796012642744L84.8746052,67.2302613167453L85.71442813333333,67.2305594696446L86.55425106666665,67.520905815351L87.39407399999999,68.33036001479431L88.23389693333333,68.79146744345682L89.07371986666666,67.39653545989827L89.91354279999999,70.40309470317843L90.75336573333333,69.75671228643792L91.59318866666666,70.16046027994079L92.4330116,70.40401931150689L93.27283453333332,70.3131123066862L94.11265746666666,70.58831792353182L94.9524804,70.83987335579775L95.79230333333334,69.02007498470472L96.63212626666666,69.96749093979847L97.47194919999998,69.271703660425L98.31177213333332,69.41428778790583L99.15159506666667,70.35308141582283L99.991418,70.53553097683L100.83124093333332,70.8093084188256L101.67106386666666,71.97169765928268L102.5108868,72.0909840345058L103.35070973333333,72.78658377568716L104.19053266666666,72.5721429280594L105.03035559999998,73.12985730000244L105.87017853333333,73.78623148554958L106.71000146666667,73.14510470840085L107.54982439999999,73.72917973530298L108.38964733333331,72.73986187036621L109.22947026666665,72.13784912342737L110.0692932,71.33362009343764L110.90911613333333,72.2293208293466L111.74893906666665,73.17059802284022L112.58876199999999,73.36632973005152L113.42858493333333,73.42684150968395L114.26840786666666,73.0902109662811L115.10823079999999,72.3883485241859L115.94805373333332,73.94384863505495L116.78787666666666,75.88901814812014L117.6276996,75.85735057008729L118.46752253333332,75.17315293916899L119.30734546666665,77.0152637072489L120.1471684,77.2398845364108L120.98699133333334,75.6018196123198L121.82681426666666,75.77341239679448L122.66663719999998,77.30310717321328L123.50646013333332,79.23847553712716L124.34628306666667,78.56627637482715L125.186106,80.04402351771198L126.02592893333332,81.84642975823918L126.86575186666666,83.35926991153094L127.7055748,84.62275040016937L128.54539773333332,84.07705546771949L129.38522066666667,84.11353960325438L130.2250436,83.33633413707422L131.06486653333334,84.74817393659302L131.90468946666667,84.03430749787283L132.7445124,83.80252463828256L133.5843353333333,82.39310605480739L134.42415826666664,82.71579355204582L135.2639812,84.04125425878422L136.1038041333333,86.10423041123934L136.94362706666666,87.04071113123292L137.78345,88.53855019361089L138.62327293333334,91.92189003961829L139.46309586666666,95.48444165638877L140.3029188,97.82971456459096L141.1427417333333,100.33054349359244L141.98256466666666,108.5892757719456L142.82238759999998,113.38399727015778L143.66221053333334,116.54787409336777L144.50203346666666,117.75333605108298L145.34185639999998,118.24773860226294L146.18167933333334,119.8214560523624L147.02150226666666,120.9445650715531L147.86132519999998,122.22952820785765L148.7011481333333,125.14070892162034L149.54097106666666,129.14233808865364L150.38079399999998,130.58459102959773L151.22061693333333,133.2032902717789L152.06043986666666,136.0411051666003L152.9002628,140.6987981618985L153.74008573333333,143.36490947958146L154.57990866666665,145.36452791156236L155.41973159999998,153.49864543992567L156.25955453333333,160.89766828929945L157.09937746666665,168.80361930926372L157.93920039999998,169.95331775002282L158.77902333333333,173.7095407305989L159.61884626666665,178.27732976482073L160.4586692,181.90276614376324L161.29849213333333,187.0498770629697L162.13831506666665,196.12724264195228L162.97813799999997,199.80906477912228L163.81796093333332,200.8986006795098L164.65778386666665,201.4211388129667L165.4976068,204.44058335194225L166.33742973333332,205.0291066209592L167.17725266666667,206.96576770343142L168.0170756,207.6118669792867L168.85689853333332,212.28955919783346L169.69672146666665,219.08910785084007L170.53654439999997,215.62328281610155L171.37636733333332,213.92215192319074L172.21619026666664,214.88680452628515L173.0560132,211.2487376801288L173.89583613333332,211.77301877288258L174.73565906666667,214.3174257207298L175.575482,219.41690955601612L176.41530493333332,226.76251944494064L177.25512786666664,225.96079536459723L178.0949508,230.04815078728433L178.93477373333332,238.63196650712217L179.77459666666667,236.96348139404233L180.6144196,236.45754092145248L181.45424253333331,230.0736700075976L182.29406546666667,229.90674747218947L183.1338884,228.96525824844656L183.9737113333333,235.57166919950544L184.81353426666664,239.5482857313546L185.6533572,236.229150556042L186.4931801333333,233.30250806727832L187.33300306666666,234.88670153654104L188.172826,241.66598096692593L189.01264893333334,240.39245519123153L189.85247186666666,241.87666555694392L190.69229479999998,254.26034956146674L191.5321177333333,253.5628162309112L192.37194066666666,256.4385733832665L193.21176359999998,249.2385473735487L194.0515865333333,243.55295913982383L194.89140946666666,243.62703917517817L195.73123239999998,234.40283874553552L196.57105533333333,226.13113566372405L197.41087826666663,228.90568082371513L198.2507012,235.4268226400885L199.09052413333333,248.13475986919215L199.93034706666666,256.18604145127216L200.77016999999998,255.4418727246086L201.60999293333333,257.277964191421L202.44981586666665,259.04808431376557L203.28963879999998,260.55447898074397L204.1294617333333,255.58387796596065L204.96928466666668,266.8007758657914L205.8091076,260.0785925031073L206.64893053333333,251.3032407259656L207.48875346666665,244.01511360551117L208.32857639999997,236.80692390605117L209.16839933333333,228.02568643197242L210.00822226666665,223.4747686690096L210.84804519999997,225.04040121067317L211.6878681333333,220.21641759502228L212.52769106666668,212.13518683730572L213.367514,217.29350628144178L214.20733693333332,228.95714838556663L215.04715986666665,232.8218562493933L215.8869828,236.64657108110046L216.72680573333332,241.8959770461481L217.56662866666665,252.85960834506892L218.40645159999997,254.6040935147312L219.2462745333333,258.5673176688302L220.08609746666667,266.6334800852127L220.9259204,267.09560600059126L221.76574333333332,263.83318637130486L222.60556626666664,262.75078592925007L223.4453892,266.5375888545421L224.28521213333332,269.101453840528L225.12503506666664,264.39002850502675L225.96485799999996,256.2102598062041L226.80468093333334,251.56737693584319L227.64450386666667,246.10892992774305L228.4843268,242.15092707106592L229.32414973333331,241.4125897143329L230.16397266666664,243.3421503441219L231.0037956,243.92367847225947L231.8436185333333,254.68420845901016L232.68344146666664,256.3110150948728L233.52326439999996,266.4277722828969L234.36308733333334,273.4727386099461L235.20291026666666,272.10736661802133L236.0427332,283.37295953815635L236.8825561333333,288.9938445663816L237.72237906666666,292.74745503094556L238.56220199999998,296.627207806366L239.4020249333333,295.5602193607362L240.24184786666663,292.6613709611209L241.0816708,280.6352461015184L241.92149373333334,273.10804316757975L242.76131666666666,272.16896786466623L243.60113959999998,262.59157237933493L244.4409625333333,267.7155487392423L245.28078546666666,271.8241336739771L246.12060839999998,268.8262752440769L246.9604313333333,274.2746844182072L247.80025426666663,285.66725391409153L248.6400772,289.12647805734696L249.47990013333333,286.71770590100874L250.31972306666665,291.64663583970724L251.15954599999998,287.9263198120387L251.99936893333333,292.779925975095L252.83919186666665,287.7690311469905L253.67901479999998,282.02709819898985L254.5188377333333,276.34676010240213L255.35866066666662,267.5779238818342L256.1984836,256.5615902049617L257.03830653333335,249.00105597608555L257.8781294666667,243.85234061069312L258.7179524,239.65857215448082L259.5577753333333,241.22772987519147L260.39759826666665,245.2255869287276L261.23742119999997,247.51595576728928L262.0772441333333,253.4930834360714L262.9170670666667,252.79862143815456L263.75689,251.98192189386862L264.5967129333333,263.6950270686558L265.43653586666665,273.84461220460366L266.27635879999997,267.9739565239158L267.1161817333333,258.28141595124623L267.9560046666666,261.0046203875336L268.79582759999994,265.8147423342823L269.6356505333333,269.2481452624876L270.47547346666664,252.77549480190987L271.3152964,248.65521652804208L272.15511933333335,242.82510868742185L272.99494226666667,240.62294926776855L273.8347652,242.93426949781082L274.6745881333333,244.0527286458567L275.51441106666664,249.1432859920516L276.35423399999996,256.0613153487895L277.19405693333334,255.69785968203894L278.03387986666667,267.0855924741081L278.8737028,273.19416244240495L279.7135257333333,278.040014624514L280.55334866666664,273.8712611613671L281.39317159999996,273.3318639113322L282.2329945333333,272.34924580180825L283.0728174666666,274.76182162995116L283.9126404,274.18442010502156L284.7524633333333,280.36572639625143L285.5922862666667,271.17267856042724L286.4321092,269.5006864274614L287.27193213333334,257.8450864960472L288.11175506666666,249.51576966162781L288.951578,240.63701577113468L289.7914009333333,238.25181582228302L290.63122386666663,237.98177361532686L291.47104679999995,232.36072239371393L292.31086973333333,240.5284189494607L293.15069266666666,260.6834499158203L293.9905156,262.48074074995554L294.8303385333333,276.74993767185913L295.6701614666666,279.46093852868256L296.50998439999995,275.0077025988673L297.3498073333333,274.9313503719272L298.18963026666665,277.03361175607216L299.0294532,274.96212661586463L299.8692761333333,273.5602708711658L300.7090990666667,279.15079063632106L301.548922,270.5361115178125L302.3887449333333,269.87115367051763L303.22856786666665,271.14259625864366L304.0683908,277.88455632336843L304.9082137333333,266.66353789170336L305.7480366666666,266.8263981047822L306.5878596,267.0001161809847L307.4276825333333,271.92922998683923L308.26750546666665,268.2944177188519L309.1073284,269.82984220788325L309.9471513333333,255.81563883619194L310.7869742666666,249.4456952411915L311.62679719999994,265.42012186805175L312.4666201333333,266.1929160043332L313.30644306666665,265.0577970485161L314.14626599999997,266.3415525718032L314.98608893333335,256.9171320637824L315.8259118666667,252.4351410252285L316.6657348,257.2603131080073L317.5055577333333,266.880879400113L318.34538066666664,270.51155603072993L319.18520359999997,274.6731595320496L320.0250265333333,274.2691850347127L320.86484946666667,271.2963335919416L321.7046724,271.121383786055L322.5444953333333,271.2264319000644L323.38431826666664,262.91304741642784L324.22414119999996,266.21985425348043L325.0639641333333,269.30558033806926L325.9037870666666,270.1246977013736L326.74361,271.3319513710465L327.5834329333333,282.5019415982677L328.42325586666664,293.8207801584376L329.2630788,299.47034945716064L330.10290173333334,303.81837164409194L330.94272466666666,311.5527760592535L331.7825476,310.4399630059306L332.6223705333333,302.8622634239419L333.46219346666663,306.9727916520041L334.30201639999996,316.33358758700325L335.14183933333334,318.4869266088482L335.98166226666666,314.8445884187257L336.8214852,305.13073306413946L337.6613081333333,283.319040172652L338.50113106666663,269.0406555703396L339.34095399999995,255.8468589193037L340.1807769333333,246.519539056368L341.0205998666666,243.84254029657004L341.8604228,245.37114678346754L342.7002457333333,254.288305928878L343.5400686666667,271.4315083152432L344.3798916,274.3505451135854L345.21971453333333,284.8756273906083L346.05953746666665,284.88530904643756L346.8993604,282.76139316801437L347.7391833333333,271.46888778764827L348.5790062666666,270.4903410919868L349.41882919999995,252.36908752224878L350.2586521333333,228.86342070155325L351.09847506666665,218.22356865907602L351.938298,222.66744302524313L352.7781209333333,240.5264400400219L353.6179438666666,249.35294427240106L354.45776679999994,246.65353329221938L355.29758973333327,250.59828929606383L356.13741266666665,254.8235630285278L356.9772356,254.06310443186027L357.81705853333335,256.6965918054964L358.6568814666667,266.53543533172467L359.4967044,280.16243922863174L360.3365273333333,294.2261815868172" style="fill: none;" fill="none"></path></g></g></g></g><g opacity="0.2"><g><g><g><path stroke="rgb(255, 112, 67)" stroke-width="2px" d="M33.64540626666666,53.60606172349715L34.4852292,53.77414443757796L35.32505213333333,53.74707942538789L36.16487506666667,53.846550835503436L37.004698,53.64221498701303L37.84452093333333,53.94242689344613L38.684343866666666,53.874414814843036L39.524166799999996,54.10881180233424L40.363989733333334,54.19430128733314L41.203812666666664,54.31654326121009L42.0436356,54.63593037923176L42.883458533333325,55.36518764495845L43.72328146666666,55.578711615668354L44.56310439999999,55.69925578435261L45.40292733333333,55.7216268645392L46.24275026666666,55.30166975657142L47.0825732,55.85765102174544L47.92239613333333,55.75428464677596L48.76221906666667,56.111822446187325L49.602042,56.72453037897743L50.44186493333333,56.6288540628221L51.281687866666665,57.062992837693926L52.121510799999996,57.27451939053004L52.96133373333333,57.173849529690195L53.80115666666666,58.719850964016366L54.6409796,58.38478411568532L55.480802533333325,59.63187196519637L56.32062546666667,61.06451993518403L57.16044839999999,58.52570194668238L58.00027133333333,59.34933720694643L58.84009426666666,63.679339673784014L59.6799172,61.738948080274746L60.51974013333333,58.65373643239338L61.35956306666666,61.9408870273166L62.199386,61.97753964530092L63.03920893333333,61.006295204162555L63.879031866666665,58.83220571941798L64.71885479999999,63.55539989471431L65.55867773333333,63.65786743164058L66.39850066666666,64.21514701843257L67.2383236,59.66153362062239L68.07814653333332,65.91015582614473L68.91796946666666,69.87722746531166L69.7577924,62.50625615649751L70.59761533333334,60.172772725423165L71.43743826666666,62.80706728829274L72.2772612,66.72520218955141L73.11708413333332,58.78406794865925L73.95690706666666,66.37086025873818L74.79673,69.8621469603644L75.63655293333332,64.81696902381044L76.47637586666666,67.18091307746035L77.3161988,63.38072570164997L78.15602173333333,63.713195906745014L78.99584466666666,60.59652492735116L79.8356676,59.83650742636782L80.67549053333333,62.978146129184275L81.51531346666667,70.77446757422548L82.35513639999999,69.61296908060707L83.19495933333333,68.80161794026691L84.03478226666667,71.83749336666529L84.8746052,67.4561572604709L85.71442813333333,67.23184723324243L86.55425106666665,68.77495241165157L87.39407399999999,71.82650756835933L88.23389693333333,70.78305647108289L89.07371986666666,61.371622933281756L89.91354279999999,83.38886054356891L90.75336573333333,66.9648923344082L91.59318866666666,71.90430699454409L92.4330116,71.45598655276827L93.27283453333332,69.92047156227956L94.11265746666666,71.77697160508895L94.9524804,71.92637846204968L95.79230333333334,61.160096380445644L96.63212626666666,74.05952088038124L97.47194919999998,66.26649517483179L98.31177213333332,70.03012980355153L99.15159506666667,74.40787055757308L99.991418,71.32355774773488L100.83124093333332,71.99179389741683L101.67106386666666,76.99222967359754L102.5108868,72.60619963539968L103.35070973333333,75.79098256429035L104.19053266666666,71.64594099256726L105.03035559999998,75.53870868682857L105.87017853333333,76.62120930353798L106.71000146666667,70.37598270840112L107.54982439999999,76.25188673867116L108.38964733333331,68.46685070461695L109.22947026666665,69.53766642676455L110.0692932,67.86003515455452L110.90911613333333,76.09798569149439L111.74893906666665,77.23611439598928L112.58876199999999,74.2117241223653L113.42858493333333,73.68820089764063L114.26840786666666,71.63625351587929L115.10823079999999,69.35690010918508L115.94805373333332,80.66228527492945L116.78787666666666,84.29049497180513L117.6276996,75.72057358423866L118.46752253333332,72.21800147162539L119.30734546666665,84.97161446677309L120.1471684,78.21005535125728L120.98699133333334,68.52677324083113L121.82681426666666,76.51454718907672L122.66663719999998,83.91008673773867L123.50646013333332,87.59761974546643L124.34628306666667,75.66294807857935L125.186106,86.4266335169474L126.02592893333332,89.63129075368244L126.86575186666666,89.89345184961952L127.7055748,90.07991080813936L128.54539773333332,81.72011778089734L129.38522066666667,84.2711200184292L130.2250436,79.9794679747687L131.06486653333334,90.8461203045315L131.90468946666667,80.95101202858815L132.7445124,82.80141994688245L133.5843353333333,76.30561727947656L134.42415826666664,84.10952891243825L135.2639812,89.76611646016437L136.1038041333333,95.01453166537813L136.94362706666666,91.08551083670717L137.78345,95.00794018639455L138.62327293333334,106.53503873613143L139.46309586666666,110.87163268195253L140.3029188,107.95929755104909L141.1427417333333,111.13199610180322L141.98256466666666,144.2599705060323L142.82238759999998,134.0931135283576L143.66221053333334,130.2131293084886L144.50203346666666,122.95990578333534L145.34185639999998,120.38313685523138L146.18167933333334,126.61857610278658L147.02150226666666,125.79544019699092L147.86132519999998,127.77947537104286L148.7011481333333,137.71453200446234L149.54097106666666,146.42597044838794L150.38079399999998,136.81389628516303L151.22061693333333,144.5138423177931L152.06043986666666,148.29805035061304L152.9002628,160.8160679075453L153.74008573333333,154.88024134106104L154.57990866666665,154.00117773479883L155.41973159999998,188.63111050923663L156.25955453333333,192.85514995786878L157.09937746666665,202.95059924655487L157.93920039999998,174.9190365473429L158.77902333333333,189.93322722117102L159.61884626666665,198.00629091262817L160.4586692,197.56156582302515L161.29849213333333,209.28101571400958L162.13831506666665,235.33373652564154L162.97813799999997,215.71140294604828L163.81796093333332,205.60446850458777L164.65778386666665,203.6780588361952L165.4976068,217.482014020284L166.33742973333332,207.5710262722439L167.17725266666667,215.33049535751343L168.0170756,210.40246597925818L168.85689853333332,232.4932085673014L169.69672146666665,248.45737118191187L170.53654439999997,200.65386830435855L171.37636733333332,206.57471423678925L172.21619026666664,219.0532827907138L173.0560132,195.53538513183594L173.89583613333332,214.0374668969048L174.73565906666667,225.307098282708L175.575482,241.44233973821002L176.41530493333332,258.48930258221094L177.25512786666664,222.49802965588037L178.0949508,247.702047612932L178.93477373333332,275.7067450417412L179.77459666666667,229.75704569286768L180.6144196,234.2723086675008L181.45424253333331,202.50078074137366L182.29406546666667,229.18578418095905L183.1338884,224.898826069302L183.9737113333333,264.1057420306736L184.81353426666664,256.72388479444714L185.6533572,221.89331139458545L186.4931801333333,220.6619032753838L187.33300306666666,241.72906907399494L188.172826,270.94669850667316L189.01264893333334,234.89190769195557L189.85247186666666,248.2871911790636L190.69229479999998,307.7473251554701L191.5321177333333,250.55006588829883L192.37194066666666,268.8593968285454L193.21176359999998,218.14056269327796L194.0515865333333,218.99605676862927L194.89140946666666,243.94700188106958L195.73123239999998,194.56214327282373L196.57105533333333,190.40441809760196L197.41087826666663,240.88935459984668L198.2507012,263.5926053788927L199.09052413333333,303.0222334331936L199.93034706666666,290.9607257313198L200.77016999999998,252.2276971605089L201.60999293333333,265.20831669701465L202.44981586666665,266.6934967570835L203.28963879999998,267.0608219040764L204.1294617333333,234.11511188083222L204.96928466666668,315.24822849697534L205.8091076,231.04448138342963L206.64893053333333,213.40118943320377L207.48875346666665,212.53660710652667L208.32857639999997,205.67367903391516L209.16839933333333,190.09821393754748L210.00822226666665,203.81867705451114L210.84804519999997,231.80260133743286L211.6878681333333,199.38091389338172L212.52769106666668,177.23114760716754L213.367514,239.5730562210083L214.20733693333332,279.3341557714674L215.04715986666665,249.5141051080492L215.8869828,253.16608407762317L216.72680573333332,264.56894323560925L217.56662866666665,300.21316480636597L218.40645159999997,262.13878477944263L219.2462745333333,275.6850730578104L220.08609746666667,301.4724369049072L220.9259204,269.0915966563755L221.76574333333332,249.7423101001316L222.60556626666664,258.07573721143933L223.4453892,282.8933546808031L224.28521213333332,280.17516856723364L225.12503506666664,244.04068077935108L225.96485799999996,220.88062053256562L226.80468093333334,231.51407432556152L227.64450386666667,222.53308433956568L228.4843268,225.0557232432895L229.32414973333331,238.22360070546466L230.16397266666664,251.6762100855509L231.0037956,246.43538506825763L231.8436185333333,301.16054010391235L232.68344146666664,263.3374352455139L233.52326439999996,310.12355332904394L234.36308733333334,303.9009974267748L235.20291026666666,266.2101216316223L236.0427332,332.0307332144843L236.8825561333333,313.2712841563755L237.72237906666666,308.9598576757643L238.56220199999998,313.3844378789266L239.4020249333333,290.9517373508877L240.24184786666663,280.14081297980414L241.0816708,228.69262170791626L241.92149373333334,240.59693262312146L242.76131666666666,268.112961769104L243.60113959999998,221.2253748575846L244.4409625333333,289.846765783098L245.28078546666666,289.56972392400104L246.12060839999998,255.87807819578381L246.9604313333333,297.8071751064724L247.80025426666663,334.8734583324856L248.6400772,304.06738233566284L249.47990013333333,276.31386020448474L250.31972306666665,312.9354183408949L251.15954599999998,271.85772079891626L251.99936893333333,313.7433738708496L252.83919186666665,266.1262300809224L253.67901479999998,257.2268346150716L254.5188377333333,251.81253385543823L255.35866066666662,229.70401424831812L256.1984836,208.9804043240017L257.03830653333335,216.34598260455658L257.8781294666667,221.61427211761475L258.7179524,221.54506158828735L259.5577753333333,248.0051557752821L260.39759826666665,262.4929269684685L261.23742119999997,257.4083998998006L262.0772441333333,279.3091880480448L262.9170670666667,249.79913663864136L263.75689,248.45447492599487L264.5967129333333,314.285672823588L265.43653586666665,317.6821820471022L266.27635879999997,242.6177202860514L267.1161817333333,216.4178896480136L267.9560046666666,272.7665459314982L268.79582759999994,286.5903754234314L269.6356505333333,284.0775238672892L270.47547346666664,181.62766408920288L271.3152964,230.85912100474036L272.15511933333335,217.64400460984973L272.99494226666667,231.11149475309583L273.8347652,252.91720581054688L274.6745881333333,248.88352028528845L275.51441106666664,271.1301613383823L276.35423399999996,285.941314485338L277.19405693333334,254.12804052564832L278.03387986666667,316.27090644836426L278.8737028,299.5779859224955L279.7135257333333,298.96997192170886L280.55334866666664,255.86579407585987L281.39317159999996,271.00212685267127L282.2329945333333,268.1051718393961L283.0728174666666,285.18209595150415L283.9126404,271.69053692287866L284.7524633333333,307.06370888815985L285.5922862666667,231.46653578016492L286.4321092,262.2791033850776L287.27193213333334,207.5028144518534L288.11175506666666,213.5402097172207L288.951578,202.28835535049438L289.7914009333333,227.94978200064764L290.63122386666663,236.81542110443115L291.47104679999995,208.0825649897257L292.31086973333333,275.8059168391758L293.15069266666666,347.7360304726495L293.9905156,270.2435075441996L294.8303385333333,338.3807243771023L295.6701614666666,291.17015499538843L296.50998439999995,255.7735133700901L297.3498073333333,274.6015737321642L298.18963026666665,286.1135917769538L299.0294532,266.0150737762451L299.8692761333333,267.50544712278577L300.7090990666667,303.2970781326294L301.548922,233.32802936765881L302.3887449333333,266.9991016917759L303.22856786666665,276.63414616054956L304.0683908,307.0040859646267L304.9082137333333,218.19828806983097L305.7480366666666,267.5298156208462L306.5878596,267.7504304250081L307.4276825333333,293.218806637658L308.26750546666665,252.59512217839557L309.1073284,276.4615692562527L309.9471513333333,195.28620725207855L310.7869742666666,221.93296013938053L311.62679719999994,334.41604963938397L312.4666201333333,269.53072897593177L313.30644306666665,260.1550492180718L314.14626599999997,271.8862838745117L314.98608893333335,216.2116562525431L315.8259118666667,233.07675419913397L316.6657348,278.1009499761793L317.5055577333333,308.4335380660163L318.34538066666664,286.1929891374376L319.18520359999997,292.64774486753674L320.0250265333333,272.5243590142992L320.86484946666667,258.45614544550574L321.7046724,270.36574951807654L322.5444953333333,271.6801503499349L323.38431826666664,227.0063016679552L324.22414119999996,280.5024454858568L325.0639641333333,282.6332908736335L325.9037870666666,273.66258758968775L326.74361,276.54625977410205L327.5834329333333,330.74679300520154L328.42325586666664,342.7085296842787L329.2630788,323.8716806835598L330.10290173333334,322.5981270472208L330.94272466666666,344.958820660909L331.7825476,305.63355769051446L332.6223705333333,270.1330503357781L333.46219346666663,324.72677527533637L334.30201639999996,356.76425939136084L335.14183933333334,327.78751855426367L335.98166226666666,299.112787299686L336.8214852,263.1751450432671L337.6613081333333,189.11109002431232L338.50113106666663,207.37018590503266L339.34095399999995,198.86088614993622L340.1807769333333,206.23345539304944L341.0205998666666,232.28018395105994L341.8604228,251.97342586517334L342.7002457333333,292.8028443654378L343.5400686666667,345.47555266486273L344.3798916,286.9582997957865L345.21971453333333,330.33502531051636L346.05953746666665,284.9271255599128L346.8993604,273.5878841612074L347.7391833333333,222.694875187344L348.5790062666666,266.26385217242773L349.41882919999995,174.1006944444444L350.2586521333333,127.33894485897486L351.09847506666665,172.26846302880176L351.938298,241.86119826634723L352.7781209333333,317.66210799747046L353.6179438666666,287.47593063778345L354.45776679999994,234.99437522888184L355.29758973333327,267.6362779935201L356.13741266666665,273.07314957512745L356.9772356,250.77857049306232L357.81705853333335,268.07101599375403L358.6568814666667,309.0308658811781L359.4967044,339.01949861314563L360.3365273333333,354.96957943174573" style="fill: none;" fill="none"></path></g></g></g></g></g></g><g transform="translate(50, 377)" clip-path="url(#clip_1)"><clipPath id="clip_1"><rect width="393" height="23"></rect></clipPath><g><g><line x1="0" y1="0" x2="0" y2="5" style="visibility: inherit;" fill="rgb(0, 0, 0)" stroke="rgb(204, 204, 204)" stroke-width="1px"></line><line x1="32.80558333333333" y1="0" x2="32.80558333333333" y2="5" style="visibility: inherit;" fill="rgb(0, 0, 0)" stroke="rgb(204, 204, 204)" stroke-width="1px"></line><line x1="65.61116666666666" y1="0" x2="65.61116666666666" y2="5" style="visibility: inherit;" fill="rgb(0, 0, 0)" stroke="rgb(204, 204, 204)" stroke-width="1px"></line><line x1="98.41675" y1="0" x2="98.41675" y2="5" style="visibility: inherit;" fill="rgb(0, 0, 0)" stroke="rgb(204, 204, 204)" stroke-width="1px"></line><line x1="131.22233333333332" y1="0" x2="131.22233333333332" y2="5" style="visibility: inherit;" fill="rgb(0, 0, 0)" stroke="rgb(204, 204, 204)" stroke-width="1px"></line><line x1="164.02791666666667" y1="0" x2="164.02791666666667" y2="5" style="visibility: inherit;" fill="rgb(0, 0, 0)" stroke="rgb(204, 204, 204)" stroke-width="1px"></line><line x1="196.8335" y1="0" x2="196.8335" y2="5" style="visibility: inherit;" fill="rgb(0, 0, 0)" stroke="rgb(204, 204, 204)" stroke-width="1px"></line><line x1="229.63908333333333" y1="0" x2="229.63908333333333" y2="5" style="visibility: inherit;" fill="rgb(0, 0, 0)" stroke="rgb(204, 204, 204)" stroke-width="1px"></line><line x1="262.44466666666665" y1="0" x2="262.44466666666665" y2="5" style="visibility: inherit;" fill="rgb(0, 0, 0)" stroke="rgb(204, 204, 204)" stroke-width="1px"></line><line x1="295.25025" y1="0" x2="295.25025" y2="5" style="visibility: inherit;" fill="rgb(0, 0, 0)" stroke="rgb(204, 204, 204)" stroke-width="1px"></line><line x1="328.05583333333334" y1="0" x2="328.05583333333334" y2="5" style="visibility: inherit;" fill="rgb(0, 0, 0)" stroke="rgb(204, 204, 204)" stroke-width="1px"></line><line x1="360.8614166666666" y1="0" x2="360.8614166666666" y2="5" style="visibility: inherit;" fill="rgb(0, 0, 0)" stroke="rgb(204, 204, 204)" stroke-width="1px"></line><line x1="393.667" y1="0" x2="393.667" y2="5" style="visibility: inherit;" fill="rgb(0, 0, 0)" stroke="rgb(204, 204, 204)" stroke-width="1px"></line></g><g transform="translate(0, 8)"><text x="0" y="0" dx="0em" dy="0.95em" style="text-anchor: middle; visibility: hidden; font-family: Roboto, sans-serif; font-size: 12px; font-weight: 200;" fill="rgb(33, 33, 33)" stroke="none" stroke-width="1px">-20k</text><text x="32.80558333333333" y="0" dx="0em" dy="0.95em" style="text-anchor: middle; visibility: inherit; font-family: Roboto, sans-serif; font-size: 12px; font-weight: 200;" fill="rgb(33, 33, 33)" stroke="none" stroke-width="1px">0</text><text x="65.61116666666666" y="0" dx="0em" dy="0.95em" style="text-anchor: middle; visibility: inherit; font-family: Roboto, sans-serif; font-size: 12px; font-weight: 200;" fill="rgb(33, 33, 33)" stroke="none" stroke-width="1px">20k</text><text x="98.41675" y="0" dx="0em" dy="0.95em" style="text-anchor: middle; visibility: inherit; font-family: Roboto, sans-serif; font-size: 12px; font-weight: 200;" fill="rgb(33, 33, 33)" stroke="none" stroke-width="1px">40k</text><text x="131.22233333333332" y="0" dx="0em" dy="0.95em" style="text-anchor: middle; visibility: inherit; font-family: Roboto, sans-serif; font-size: 12px; font-weight: 200;" fill="rgb(33, 33, 33)" stroke="none" stroke-width="1px">60k</text><text x="164.02791666666667" y="0" dx="0em" dy="0.95em" style="text-anchor: middle; visibility: inherit; font-family: Roboto, sans-serif; font-size: 12px; font-weight: 200;" fill="rgb(33, 33, 33)" stroke="none" stroke-width="1px">80k</text><text x="196.8335" y="0" dx="0em" dy="0.95em" style="text-anchor: middle; visibility: inherit; font-family: Roboto, sans-serif; font-size: 12px; font-weight: 200;" fill="rgb(33, 33, 33)" stroke="none" stroke-width="1px">100k</text><text x="229.63908333333333" y="0" dx="0em" dy="0.95em" style="text-anchor: middle; visibility: inherit; font-family: Roboto, sans-serif; font-size: 12px; font-weight: 200;" fill="rgb(33, 33, 33)" stroke="none" stroke-width="1px">120k</text><text x="262.44466666666665" y="0" dx="0em" dy="0.95em" style="text-anchor: middle; visibility: inherit; font-family: Roboto, sans-serif; font-size: 12px; font-weight: 200;" fill="rgb(33, 33, 33)" stroke="none" stroke-width="1px">140k</text><text x="295.25025" y="0" dx="0em" dy="0.95em" style="text-anchor: middle; visibility: inherit; font-family: Roboto, sans-serif; font-size: 12px; font-weight: 200;" fill="rgb(33, 33, 33)" stroke="none" stroke-width="1px">160k</text><text x="328.05583333333334" y="0" dx="0em" dy="0.95em" style="text-anchor: middle; visibility: inherit; font-family: Roboto, sans-serif; font-size: 12px; font-weight: 200;" fill="rgb(33, 33, 33)" stroke="none" stroke-width="1px">180k</text><text x="360.8614166666666" y="0" dx="0em" dy="0.95em" style="text-anchor: middle; visibility: inherit; font-family: Roboto, sans-serif; font-size: 12px; font-weight: 200;" fill="rgb(33, 33, 33)" stroke="none" stroke-width="1px">200k</text><text x="393.667" y="0" dx="0em" dy="0.95em" style="text-anchor: middle; visibility: hidden; font-family: Roboto, sans-serif; font-size: 12px; font-weight: 200;" fill="rgb(33, 33, 33)" stroke="none" stroke-width="1px">220k</text></g><line x1="0" y1="0" x2="393.667" y2="0" fill="rgb(0, 0, 0)" stroke="rgb(204, 204, 204)" stroke-width="1px"></line></g></g></g></g></svg>