<svg viewBox="0 0 443.66668701171875 400" xmlns="http://www.w3.org/2000/svg"><g><g><g><g><g><line x1="70" y1="377" x2="65" y2="377" style="visibility: inherit;" fill="rgb(0, 0, 0)" stroke="rgb(204, 204, 204)" stroke-width="1px"></line><line x1="70" y1="339.3" x2="65" y2="339.3" style="visibility: inherit;" fill="rgb(0, 0, 0)" stroke="rgb(204, 204, 204)" stroke-width="1px"></line><line x1="70" y1="301.6" x2="65" y2="301.6" style="visibility: inherit;" fill="rgb(0, 0, 0)" stroke="rgb(204, 204, 204)" stroke-width="1px"></line><line x1="70" y1="263.9" x2="65" y2="263.9" style="visibility: inherit;" fill="rgb(0, 0, 0)" stroke="rgb(204, 204, 204)" stroke-width="1px"></line><line x1="70" y1="226.20000000000005" x2="65" y2="226.20000000000005" style="visibility: inherit;" fill="rgb(0, 0, 0)" stroke="rgb(204, 204, 204)" stroke-width="1px"></line><line x1="70" y1="188.5" x2="65" y2="188.5" style="visibility: inherit;" fill="rgb(0, 0, 0)" stroke="rgb(204, 204, 204)" stroke-width="1px"></line><line x1="70" y1="150.79999999999995" x2="65" y2="150.79999999999995" style="visibility: inherit;" fill="rgb(0, 0, 0)" stroke="rgb(204, 204, 204)" stroke-width="1px"></line><line x1="70" y1="113.10000000000002" x2="65" y2="113.10000000000002" style="visibility: inherit;" fill="rgb(0, 0, 0)" stroke="rgb(204, 204, 204)" stroke-width="1px"></line><line x1="70" y1="75.39999999999998" x2="65" y2="75.39999999999998" style="visibility: inherit;" fill="rgb(0, 0, 0)" stroke="rgb(204, 204, 204)" stroke-width="1px"></line><line x1="70" y1="37.69999999999999" x2="65" y2="37.69999999999999" style="visibility: inherit;" fill="rgb(0, 0, 0)" stroke="rgb(204, 204, 204)" stroke-width="1px"></line><line x1="70" y1="0" x2="65" y2="0" style="visibility: inherit;" fill="rgb(0, 0, 0)" stroke="rgb(204, 204, 204)" stroke-width="1px"></line></g><g transform="translate(60, 0)"><text x="0" y="377" dx="0em" dy="0.3em" style="text-anchor: end; visibility: hidden; font-family: Roboto, sans-serif; font-size: 12px; font-weight: 200;" fill="rgb(33, 33, 33)" stroke="none" stroke-width="1px">-2e-4</text><text x="0" y="339.3" dx="0em" dy="0.3em" style="text-anchor: end; visibility: inherit; font-family: Roboto, sans-serif; font-size: 12px; font-weight: 200;" fill="rgb(33, 33, 33)" stroke="none" stroke-width="1px">0</text><text x="0" y="301.6" dx="0em" dy="0.3em" style="text-anchor: end; visibility: inherit; font-family: Roboto, sans-serif; font-size: 12px; font-weight: 200;" fill="rgb(33, 33, 33)" stroke="none" stroke-width="1px">2e-4</text><text x="0" y="263.9" dx="0em" dy="0.3em" style="text-anchor: end; visibility: inherit; font-family: Roboto, sans-serif; font-size: 12px; font-weight: 200;" fill="rgb(33, 33, 33)" stroke="none" stroke-width="1px">4e-4</text><text x="0" y="226.20000000000005" dx="0em" dy="0.3em" style="text-anchor: end; visibility: inherit; font-family: Roboto, sans-serif; font-size: 12px; font-weight: 200;" fill="rgb(33, 33, 33)" stroke="none" stroke-width="1px">6e-4</text><text x="0" y="188.5" dx="0em" dy="0.3em" style="text-anchor: end; visibility: inherit; font-family: Roboto, sans-serif; font-size: 12px; font-weight: 200;" fill="rgb(33, 33, 33)" stroke="none" stroke-width="1px">8e-4</text><text x="0" y="150.79999999999995" dx="0em" dy="0.3em" style="text-anchor: end; visibility: inherit; font-family: Roboto, sans-serif; font-size: 12px; font-weight: 200;" fill="rgb(33, 33, 33)" stroke="none" stroke-width="1px">1e-3</text><text x="0" y="113.10000000000002" dx="0em" dy="0.3em" style="text-anchor: end; visibility: inherit; font-family: Roboto, sans-serif; font-size: 12px; font-weight: 200;" fill="rgb(33, 33, 33)" stroke="none" stroke-width="1px">1.2e-3</text><text x="0" y="75.39999999999998" dx="0em" dy="0.3em" style="text-anchor: end; visibility: inherit; font-family: Roboto, sans-serif; font-size: 12px; font-weight: 200;" fill="rgb(33, 33, 33)" stroke="none" stroke-width="1px">1.4e-3</text><text x="0" y="37.69999999999999" dx="0em" dy="0.3em" style="text-anchor: end; visibility: inherit; font-family: Roboto, sans-serif; font-size: 12px; font-weight: 200;" fill="rgb(33, 33, 33)" stroke="none" stroke-width="1px">1.6e-3</text><text x="0" y="0" dx="0em" dy="0.3em" style="text-anchor: end; visibility: hidden; font-family: Roboto, sans-serif; font-size: 12px; font-weight: 200;" fill="rgb(33, 33, 33)" stroke="none" stroke-width="1px">1.8e-3</text></g><line x1="70" y1="0" x2="70" y2="377" fill="rgb(0, 0, 0)" stroke="rgb(204, 204, 204)" stroke-width="1px"></line></g></g><g transform="translate(70, 0)" clip-path="url(#clip_0)"><clipPath id="clip_0"><rect width="373" height="377"></rect></clipPath><g><g><g><line x1="0" y1="0" x2="0" y2="377" fill="rgb(0, 0, 0)" stroke="rgb(66, 66, 66)" stroke-width="1px" opacity="0.25"></line><line x1="31.138916666666663" y1="0" x2="31.138916666666663" y2="377" fill="rgb(0, 0, 0)" stroke="rgb(66, 66, 66)" stroke-width="1px" opacity="0.25"></line><line x1="62.27783333333333" y1="0" x2="62.27783333333333" y2="377" fill="rgb(0, 0, 0)" stroke="rgb(66, 66, 66)" stroke-width="1px" opacity="0.25"></line><line x1="93.41675" y1="0" x2="93.41675" y2="377" fill="rgb(0, 0, 0)" stroke="rgb(66, 66, 66)" stroke-width="1px" opacity="0.25"></line><line x1="124.55566666666665" y1="0" x2="124.55566666666665" y2="377" fill="rgb(0, 0, 0)" stroke="rgb(66, 66, 66)" stroke-width="1px" opacity="0.25"></line><line x1="155.69458333333333" y1="0" x2="155.69458333333333" y2="377" fill="rgb(0, 0, 0)" stroke="rgb(66, 66, 66)" stroke-width="1px" opacity="0.25"></line><line x1="186.8335" y1="0" x2="186.8335" y2="377" fill="rgb(0, 0, 0)" stroke="rgb(66, 66, 66)" stroke-width="1px" opacity="0.25"></line><line x1="217.97241666666667" y1="0" x2="217.97241666666667" y2="377" fill="rgb(0, 0, 0)" stroke="rgb(66, 66, 66)" stroke-width="1px" opacity="0.25"></line><line x1="249.1113333333333" y1="0" x2="249.1113333333333" y2="377" fill="rgb(0, 0, 0)" stroke="rgb(66, 66, 66)" stroke-width="1px" opacity="0.25"></line><line x1="280.25025" y1="0" x2="280.25025" y2="377" fill="rgb(0, 0, 0)" stroke="rgb(66, 66, 66)" stroke-width="1px" opacity="0.25"></line><line x1="311.38916666666665" y1="0" x2="311.38916666666665" y2="377" fill="rgb(0, 0, 0)" stroke="rgb(66, 66, 66)" stroke-width="1px" opacity="0.25"></line><line x1="342.5280833333333" y1="0" x2="342.5280833333333" y2="377" fill="rgb(0, 0, 0)" stroke="rgb(66, 66, 66)" stroke-width="1px" opacity="0.25"></line><line x1="373.667" y1="0" x2="373.667" y2="377" fill="rgb(0, 0, 0)" stroke="rgb(66, 66, 66)" stroke-width="1px" opacity="0.25"></line></g><g><line x1="0" y1="377" x2="373.667" y2="377" fill="rgb(0, 0, 0)" stroke="rgb(66, 66, 66)" stroke-width="1px" opacity="0.25"></line><line x1="0" y1="339.3" x2="373.667" y2="339.3" fill="rgb(0, 0, 0)" stroke="rgb(66, 66, 66)" stroke-width="1px" opacity="0.25"></line><line x1="0" y1="301.6" x2="373.667" y2="301.6" fill="rgb(0, 0, 0)" stroke="rgb(66, 66, 66)" stroke-width="1px" opacity="0.25"></line><line x1="0" y1="263.9" x2="373.667" y2="263.9" fill="rgb(0, 0, 0)" stroke="rgb(66, 66, 66)" stroke-width="1px" opacity="0.25"></line><line x1="0" y1="226.20000000000005" x2="373.667" y2="226.20000000000005" fill="rgb(0, 0, 0)" stroke="rgb(66, 66, 66)" stroke-width="1px" opacity="0.25"></line><line x1="0" y1="188.5" x2="373.667" y2="188.5" fill="rgb(0, 0, 0)" stroke="rgb(66, 66, 66)" stroke-width="1px" opacity="0.25"></line><line x1="0" y1="150.79999999999995" x2="373.667" y2="150.79999999999995" fill="rgb(0, 0, 0)" stroke="rgb(66, 66, 66)" stroke-width="1px" opacity="0.25"></line><line x1="0" y1="113.10000000000002" x2="373.667" y2="113.10000000000002" fill="rgb(0, 0, 0)" stroke="rgb(66, 66, 66)" stroke-width="1px" opacity="0.25"></line><line x1="0" y1="75.39999999999998" x2="373.667" y2="75.39999999999998" fill="rgb(0, 0, 0)" stroke="rgb(66, 66, 66)" stroke-width="1px" opacity="0.25"></line><line x1="0" y1="37.69999999999999" x2="373.667" y2="37.69999999999999" fill="rgb(0, 0, 0)" stroke="rgb(66, 66, 66)" stroke-width="1px" opacity="0.25"></line><line x1="0" y1="0" x2="373.667" y2="0" fill="rgb(0, 0, 0)" stroke="rgb(66, 66, 66)" stroke-width="1px" opacity="0.25"></line></g></g></g><g><g><line x1="0" y1="339.3" x2="373.667" y2="339.3" fill="rgb(0, 0, 0)" stroke="rgb(153, 153, 153)" stroke-width="1.5px"></line></g></g><g><g><line x1="31.138916666666663" y1="0" x2="31.138916666666663" y2="377" fill="rgb(0, 0, 0)" stroke="rgb(153, 153, 153)" stroke-width="1.5px"></line></g></g><g><g><g><g><g><path stroke="rgb(255, 112, 67)" stroke-width="2px" d="M31.936072933333328,281.98125598318876L32.7332292,308.1914556361562L33.530385466666665,320.3152583010155L34.327541733333334,326.20547704275145L35.124697999999995,326.69014161131173L35.921854266666664,329.4380920338823L36.71901053333333,331.2753543271053L37.5161668,331.9086289726159L38.31332306666666,331.2696674223984L39.11047933333333,332.64319264155614L39.9076356,332.74113482096647L40.70479186666666,327.8921963615394L41.50194813333333,329.717417683755L42.2991044,331.34539605826774L43.09626066666666,332.8364317884694L43.89341693333333,331.8532704023759L44.690573199999996,332.4304173478198L45.487729466666664,333.1082916780175L46.28488573333333,334.2416620334711L47.082041999999994,334.25522357238697L47.879198266666656,334.4296144136274L48.67635453333333,334.49105038516916L49.47351079999999,334.20509915586337L50.27066706666667,334.9856469242641L51.06782333333333,335.0500646315856L51.8649796,334.31612311831486L52.66213586666666,333.4151150415145L53.459292133333335,329.13442274922767L54.2564484,325.6233553966536L55.053604666666665,323.4041154212988L55.850760933333326,312.99796810300757L56.6479172,317.4334443356663L57.44507346666666,320.9839105430064L58.242229733333325,324.1353413000404L59.03938599999999,326.4129030248775L59.836542266666655,328.67798530593774L60.63369853333333,330.6348966924153L61.43085479999999,329.79281753259045L62.22801106666667,321.68214026084576L63.02516733333333,323.8802097401723L63.8223236,325.28089793252957L64.61947986666667,326.91355273819244L65.41663613333333,325.9820277764158L66.21379239999999,328.1214993319556L67.01094866666666,329.94790830508936L67.80810493333333,331.6737116777567L68.6052612,332.3811864531153L69.40241746666666,333.60229038337064L70.19957373333332,334.6134625515356L70.99673,334.85635299493373L71.79388626666666,334.50552928030265L72.59104253333334,335.2312887556493L73.3881988,335.8673022590932L74.18535506666666,336.3914648243318L74.98251133333332,336.71575849728407L75.7796676,337.1549482324036L76.57682386666666,336.7996962377445L77.37398013333333,337.06509574969084L78.1711364,337.4461825220543L78.96829266666667,337.738973696613L79.76544893333333,337.63260032137026L80.5626052,335.6789744901335L81.35976146666665,336.1686338951429L82.15691773333333,336.68863330741704L82.95407399999999,337.0739902890914L83.75123026666665,337.3618332607607L84.54838653333333,336.9774582762298L85.34554279999999,334.78073820417023L86.14269906666667,335.5574535695244L86.93985533333333,336.1319070951007L87.7370116,336.60324789140554L88.53416786666666,336.87262356512065L89.33132413333333,337.23850588831164L90.12848039999999,337.457118277737L90.92563666666666,337.73884233118673L91.72279293333332,337.9124522054994L92.51994919999999,338.14517512762546L93.31710546666666,328.878175271402L94.11426173333334,330.553526724771L94.911418,332.01030086319656L95.70857426666666,333.3213402837871L96.50573053333332,333.98193273368906L97.3028868,334.90928516899083L98.10004306666666,335.60808592131383L98.89719933333332,336.2441443810375L99.69435559999998,336.71016040887355L100.49151186666667,337.19102699029725L101.28866813333333,336.514860601112L102.08582439999999,336.9562038201133L102.88298066666665,336.94375571520925L103.68013693333332,337.3178663600393L104.47729319999999,337.2332506648262L105.27444946666667,337.2622186785467L106.07160573333333,326.6974457275738L106.86876199999999,328.30741459136425L107.66591826666667,330.20829001463716L108.46307453333333,331.7136314887554L109.26023079999999,332.3229815828636L110.05738706666665,332.73239196918445L110.85454333333334,333.82506866481475L111.6516996,334.7184774263879L112.44885586666666,335.01310489291296L113.24601213333332,335.53987506809665L114.0431684,335.5935757449908L114.84032466666666,335.19253148334894L115.63748093333332,335.34526305620017L116.43463719999998,335.91541549398966L117.23179346666664,336.2857199555297L118.02894973333333,335.95163721881556L118.826106,334.2845810167598L119.62326226666666,333.8394712571793L120.42041853333332,332.471842800385L121.2175748,332.1211183981278L122.01473106666666,333.27033007775924L122.81188733333332,333.6935254200484L123.60904359999998,331.6489259394626L124.40619986666667,330.97126297719467L125.20335613333333,332.3381821716714L126.00051239999999,332.2051160231616L126.79766866666665,331.4483685748216L127.59482493333331,331.62430745768415L128.3919812,332.6371937945488L129.18913746666666,333.73248679708047L129.98629373333333,305.0777011144117L130.78345,277.30241573510875L131.58060626666668,281.2445477982317L132.37776253333334,291.64480023396754L133.1749188,288.1583709613052L133.97207506666666,290.5671551782432L134.76923133333332,211.4263162759155L135.56638759999998,207.9230873850683L136.36354386666665,188.08010953354406L137.1607001333333,205.50912944638827L137.95785639999997,228.40503477807982L138.75501266666666,247.22232470811713L139.55216893333332,259.2466764477329L140.34932519999998,257.3074049389001L141.14648146666664,258.0170038146678L141.94363773333333,256.9635492542853L142.740794,261.5610996281956L143.53795026666666,238.46655838586713L144.33510653333332,242.97337545436622L145.1322628,258.18388914057573L145.92941906666667,265.9964174192896L146.72657533333333,277.14954727315563L147.5237316,161.3818895014319L148.32088786666665,179.42485542021296L149.11804413333334,208.85068866169965L149.9152004,224.05614013365008L150.71235666666666,224.0534021495577L151.50951293333333,186.85456030200024L152.3066692,199.03221531861337L153.10382546666665,219.9838617311311L153.9009817333333,170.29302865917674L154.69813799999997,151.34454614866175L155.49529426666666,178.21059825247548L156.29245053333332,131.63094538908598L157.08960679999998,164.5015345740524L157.88676306666665,194.72619719051525L158.68391933333334,212.14501118045933L159.4810756,229.14058582396805L160.27823186666666,249.45198035425233L161.07538813333332,266.046419669374L161.87254439999998,278.99247597130545L162.66970066666667,282.6141538627321L163.46685693333333,254.14159931070384L164.2640132,260.80387694792944L165.06116946666666,264.67396701667343L165.85832573333332,271.85271343886683L166.65548199999998,250.57246196684102L167.45263826666664,258.4341513192991L168.2497945333333,268.565570063405L169.0469508,270.8166554445285L169.84410706666665,242.62073950036492L170.6412633333333,197.9971859767832L171.43841959999997,181.48274361483308L172.23557586666664,210.51949909580495L173.03273213333333,234.47176079988358L173.8298884,254.09372483348628L174.62704466666665,257.5668784795393L175.4242009333333,271.82104104229654L176.2213572,283.8473971888731L177.01851346666666,293.4730915615064L177.81566973333332,281.41030751831494L178.61282599999998,284.47181960882625L179.40998226666667,294.2227860161161L180.20713853333334,300.6393577722071L181.0042948,294.56861024445146L181.80145106666666,296.1246884241177L182.59860733333332,299.5119787724279L183.39576359999998,305.3544248886125L184.19291986666664,311.1370015879105L184.9900761333333,313.6836983126993L185.78723239999997,316.9459228766528L186.58438866666665,316.1573948052351L187.3815449333333,300.8244775940494L188.1787012,294.1723118237175L188.97585746666667,296.7200480814767L189.77301373333333,303.8637846915723L190.57017,306.0706044490696L191.36732626666665,308.97584008361207L192.1644825333333,314.0995550276053L192.96163879999997,316.3548270724529L193.75879506666664,230.57610408053688L194.55595133333335,233.16725603662078L195.35310760000002,252.92743431463518L196.15026386666668,264.31676225222503L196.94742013333334,258.3082881901396L197.7445764,273.20982007096273L198.54173266666666,280.7894754220358L199.33888893333332,288.37815546129406L200.13604519999998,297.47349527405123L200.93320146666665,304.67926929025003L201.73035773333334,303.3282617268285L202.527514,303.80790417464516L203.32467026666666,308.6636354750129L204.12182653333332,303.08427981609447L204.91898279999998,307.6416675938618L205.71613906666664,311.23622394460915L206.5132953333333,307.9151288597706L207.31045159999996,310.9962650672521L208.10760786666663,310.6902980509834L208.90476413333334,313.7452771567509L209.7019204,316.17709046282795L210.49907666666667,319.57460034298185L211.29623293333333,322.99060768953825L212.0933892,315.5833826542025L212.89054546666665,309.57300647273183L213.6877017333333,314.3520384929812L214.48485799999997,318.9811479625981L215.28201426666666,322.7125253497068L216.07917053333333,325.3332671062216L216.8763268,327.2106094379152L217.67348306666665,329.3788080218963L218.4706393333333,324.9021342650908L219.26779559999997,320.53426621116915L220.06495186666663,323.1807312367302L220.8621081333333,309.3437749770874L221.65926439999996,277.3476111663874L222.45642066666667,279.6494688694024L223.25357693333333,288.2409076988938L224.0507332,296.65566099721065L224.84788946666666,304.22012749571996L225.64504573333332,310.44353263079404L226.44220199999998,315.4930100995557L227.23935826666664,319.5959911619891L228.0365145333333,323.0703054840226L228.8336708,324.69638279327256L229.63082706666665,325.332613311747L230.42798333333332,327.3289927232672L231.22513959999998,328.44208501855815L232.02229586666664,328.785702511992L232.8194521333333,330.4589662406257L233.61660839999996,331.98818913824215L234.41376466666662,330.4266230952601L235.2109209333333,328.776261200364L236.0080772,329.3817489836879L236.80523346666666,278.5820582995549L237.60238973333333,265.708804587628L238.399546,278.5366608542896L239.19670226666665,289.5471044309472L239.9938585333333,298.7682689140288L240.79101479999997,302.5699443685858L241.58817106666663,307.26878091843014L242.3853273333333,312.5096054903326L243.1824836,317.4624349746949L243.97963986666667,320.464797508702L244.77679613333333,323.21056264948703L245.5739524,324.8593983773204L246.37110866666666,327.22904045627774L247.16826493333332,329.3934934730268L247.96542119999998,330.9155937948777L248.76257746666664,331.3925909589807L249.55973373333333,332.5835321508941L250.35689,319.55705564713224L251.15404626666665,304.56730648201903L251.95120253333332,309.84317344200883L252.74835879999998,315.28993221275994L253.54551506666664,319.6654383067501L254.3426713333333,323.058658387892L255.13982759999996,324.0373034976096L255.93698386666662,326.81477371688214L256.7341401333333,328.9713474425137L257.5312964,330.8600633546072L258.32845266666664,332.35645542492006L259.1256089333333,328.9179487628283L259.92276519999996,327.6354608869209L260.7199214666666,328.9654826833324L261.5170777333333,330.87330496637924L262.31423399999994,332.2638054256312L263.11139026666666,333.4749237610056L263.9085465333333,333.51335882370626L264.7057028,332.58879919462714L265.50285906666664,333.14383531648576L266.3000153333333,333.8831134544218L267.09717159999997,334.5988065205902L267.89432786666663,335.0121888939427L268.6914841333333,334.8114874720535L269.48864039999995,334.50102210567434L270.28579666666667,335.2868406053612L271.08295293333333,336.01601684504874L271.8801092,336.3030335420934L272.67726546666665,336.7906030608757L273.4744217333333,334.20710401292615L274.271578,331.6973277421653L275.06873426666664,333.0005210425238L275.8658905333333,334.09513414748693L276.66304679999996,332.0086470134817L277.4602030666667,330.0228107685226L278.25735933333334,322.9262827975268L279.0545156,324.4437065606837L279.85167186666666,326.69735143937777L280.6488281333333,328.8521880160986L281.4459844,330.53503228604836L282.24314066666665,331.9306775543565L283.0402969333333,332.3734274431722L283.8374532,332.57717698663083L284.6346094666667,333.1456195147885L285.43176573333335,334.23313618101355L286.228922,334.8872660154905L287.0260782666667,335.45033451157485L287.82323453333333,336.06596633551163L288.6203908,336.5705624763877L289.41754706666666,337.042540481706L290.2147033333333,337.4067761974104L291.0118596,337.6787230614809L291.80901586666664,337.9482416260748L292.6061721333333,337.0463667619555L293.40332839999996,337.1776655196402L294.2004846666666,337.2465728016415L294.9976409333333,337.48056672223066L295.79479719999995,337.7408852538741L296.5919534666666,337.94881496168637L297.38910973333327,337.96058685189905L298.186266,337.3159361880403L298.98342226666665,337.5043806457283L299.7805785333333,337.56982087573004L300.5777348,337.7440012804632L301.37489106666663,334.8528934947729L302.1720473333333,335.20182388912775L302.96920359999996,335.9651025824274L303.7663598666666,336.56740915250987L304.56351613333334,336.965604996836L305.3606724,335.1419831968L306.15782866666666,334.2769288257227L306.9549849333333,334.89993722377596L307.7521412,335.60491793619605L308.54929746666664,336.245383950253L309.3464537333333,336.8117142552449L310.14360999999997,337.26226727584776L310.9407662666666,336.8075986787032L311.73792253333335,337.17522675265946L312.5350788,337.2690981483321L313.33223506666667,337.6061044821862L314.12939133333333,337.8416832697337L314.9265476,338.08193498986606L315.72370386666665,338.2296748482304L316.5208601333333,338.40554874394445L317.3180164,338.56751729082055L318.11517266666664,338.4399692092047L318.9123289333333,338.3064653490076L319.70948519999996,338.45595510677305L320.5066414666666,338.60022920929697L321.3037977333333,338.65387968166226L322.10095399999994,338.61981796471593L322.8981102666666,338.58182953301355L323.6952665333333,338.6859536408093L324.4924228,338.7758325961575L325.28957906666665,338.8348535273243L326.0867353333333,338.8968218145311L326.88389159999997,338.9406877408055L327.68104786666663,338.98762731676425L328.4782041333333,339.00369544056406L329.27536039999995,339.05507714630676L330.0725166666666,339.0977397113377L330.8696729333333,339.13287677728374L331.66682919999994,339.1601869190842L332.46398546666666,339.1469162333314L333.2611417333333,339.1401504479421L334.058298,339.13886466690445L334.85545426666664,339.16600620752877L335.6526105333333,339.1897943616139L336.44976679999996,339.20795519540206L337.2469230666666,339.22327936610253L338.0440793333333,339.23758733054234L338.8412356,339.2492218997722L339.63839186666667,339.2581906089505L340.4355481333333,339.26586925131613L341.2327044,339.2722363257546L342.02986066666665,339.2774063901986" style="fill: none;" fill="none"></path></g></g></g></g><g opacity="0.2"><g><g><g><path stroke="rgb(255, 112, 67)" stroke-width="2px" d="M31.936072933333328,281.98125598318876L32.7332292,329.4741377543658L33.530385466666665,338.1535426091403L34.327541733333334,338.02556352056564L35.124697999999995,327.8734335985035L35.921854266666664,337.1171577677131L36.71901053333333,336.9361612789333L37.5161668,334.00721324905754L38.31332306666666,329.031477573514L39.11047933333333,337.66523830890657L39.9076356,333.11144740618766L40.70479186666666,309.0680564131588L41.50194813333333,336.9531022693962L42.2991044,337.90776658169926L43.09626066666666,338.9275615412742L43.89341693333333,327.7936441667378L44.690573199999996,334.83416180424393L45.487729466666664,335.9512138489634L46.28488573333333,339.0215708717704L47.082041999999994,334.3126777403057L47.879198266666656,335.1711382932961L48.67635453333333,334.7530557151884L49.47351079999999,332.9826783232391L50.27066706666667,338.32892136015L51.06782333333333,335.32641607634724L51.8649796,331.16349683441223L52.66213586666666,329.5408483903855L53.459292133333335,310.71229803673924L54.2564484,310.50303730480374L55.053604666666665,313.84172908328475L55.850760933333326,268.1392378948629L56.6479172,336.5608261741698L57.44507346666666,336.29933803640307L58.242229733333325,337.7327389393002L59.03938599999999,336.24175622425975L59.836542266666655,338.4545304656029L60.63369853333333,339.08240043856205L61.43085479999999,326.1573902640492L62.22801106666667,286.66372819170357L63.02516733333333,333.37118000090123L63.8223236,331.3292200986296L64.61947986666667,333.96385133564473L65.41663613333333,321.9592723838985L66.21379239999999,337.36100269779564L67.01094866666666,337.8356137622148L67.80810493333333,339.1270790092647L68.6052612,335.4366641800851L69.40241746666666,338.8761241298169L70.19957373333332,338.980666718632L70.99673,335.9053941752762L71.79388626666666,332.9903149355203L72.59104253333334,338.3658755414188L73.3881988,338.61428488343955L74.18535506666666,338.65536459088327L74.98251133333332,338.11641287356616L75.7796676,339.05185398943723L76.57682386666666,335.2653231780976L77.37398013333333,338.2113877527416L78.1711364,339.09214370250703L78.96829266666667,339.0035765554756L79.76544893333333,337.1731595911086L80.5626052,327.24099921360613L81.35976146666665,338.28354057222606L82.15691773333333,338.9345837134868L82.95407399999999,338.73840177729727L83.75123026666665,338.6050682824105L84.54838653333333,335.31728725247086L85.34554279999999,325.2927853103727L86.14269906666667,338.91220053955914L86.93985533333333,338.61305600330235L87.7370116,338.63903804048897L88.53416786666666,338.03609677888454L89.33132413333333,338.81880564913155L90.12848039999999,338.40133751109244L90.92563666666666,338.9556502301246L91.72279293333332,338.6622989859432L92.51994919999999,339.15033995471896L93.31710546666666,288.85262704752387L94.11426173333334,337.78961853422226L94.911418,338.30232488289477L95.70857426666666,338.9839144732803L96.50573053333332,336.8351297762245L97.3028868,338.91465829983355L98.10004306666666,338.62631035335363L98.89719933333332,338.9913755312562L99.69435559999998,338.72295299842955L100.49151186666667,339.26796133928L101.28866813333333,333.5943973001093L102.08582439999999,338.86243089400233L102.88298066666665,336.88999049663545L103.68013693333332,338.9337059419602L104.47729319999999,336.8677828770131L105.27444946666667,337.3873358435929L106.07160573333333,281.0666180524975L106.86876199999999,335.26110987477006L107.66591826666667,338.41845405586065L108.46307453333333,338.21542550176383L109.26023079999999,334.954855389148L110.05738706666665,334.50069640129806L110.85454333333334,338.54450204707683L111.6516996,338.5772429250181L112.44885586666666,336.2856448005885L113.24601213333332,337.81507390849293L114.0431684,335.82551696635784L114.84032466666666,333.46036158800126L115.63748093333332,336.0049334663898L116.43463719999998,338.37798878848554L117.23179346666664,337.8851200763136L118.02894973333333,334.5086841221899L118.826106,327.0843169961125L119.62326226666666,331.9169759128243L120.42041853333332,326.56485180668534L121.2175748,330.60628746934236L122.01473106666666,338.23394648097457L122.81188733333332,335.52136913239957L123.60904359999998,322.8179962683469L124.40619986666667,328.04433571472765L125.20335613333333,338.2421097561717L126.00051239999999,331.6303835093975L126.79766866666665,328.17986363843085L127.59482493333331,332.3842136964202L128.3919812,337.0120007388294L129.18913746666666,338.463220403716L129.98629373333333,181.31341401785608L130.78345,157.33682143799956L131.58060626666668,298.2712033048272L132.37776253333334,336.56503947749735L133.1749188,273.099963677302L133.97207506666666,300.9710529662669L134.76923133333332,-130.39475387595598L135.56638759999998,192.79212004803117L136.36354386666665,102.37533285580577L137.1607001333333,280.78766226135195L137.95785639999997,327.2958599340171L138.75501266666666,328.4970024909824L139.55216893333332,311.18164247199894L140.34932519999998,248.93140246458353L141.14648146666664,261.08186704404653L141.94363773333333,252.4135221105069L142.740794,281.4186044346541L143.53795026666666,138.7177951477468L144.33510653333332,262.4389896012843L145.1322628,323.88036314696075L145.92941906666667,299.73989062309266L146.72657533333333,325.3215762164444L147.5237316,-338.63586640618746L148.32088786666665,257.3551124736667L149.11804413333334,335.9452450025827L149.9152004,289.7307496827096L150.71235666666666,224.0415763884783L151.50951293333333,26.18722210936249L152.3066692,251.62932102866472L153.10382546666665,310.4771430447698L153.9009817333333,-44.32908014096323L154.69813799999997,69.50322807133199L155.49529426666666,294.24907861575485L156.29245053333332,-69.55351272299889L157.08960679999998,306.4745048835874L157.88676306666665,325.27101657651366L158.68391933333334,287.3794630944729L159.4810756,302.5470039650798L160.27823186666666,337.1799184318632L161.07538813333332,337.7202745836228L161.87254439999998,334.9084212753922L162.66970066666667,298.25672007463874L163.46685693333333,131.16439560726286L164.2640132,289.5792463172227L165.06116946666666,281.38946241997184L165.85832573333332,302.85878841131927L166.65548199999998,158.6598864600062L167.45263826666664,292.3899585224688L168.2497945333333,312.324676553905L169.0469508,280.5394284736365L169.84410706666665,120.83837914578618L170.6412633333333,5.261412247270354L171.43841959999997,110.15440745577217L172.23557586666664,335.93357064127923L173.03273213333333,337.92514645792545L173.8298884,338.8439099147916L174.62704466666665,272.56794635504485L175.4242009333333,333.3868921112269L176.2213572,335.79102054536344L177.01851346666666,335.04789917096497L177.81566973333332,229.30934665091337L178.61282599999998,297.6949462976307L179.40998226666667,336.33866220079364L180.20713853333334,328.3534868463874L181.0042948,268.3481475181878L181.80145106666666,302.84562183842064L182.59860733333332,314.1421902768314L183.39576359999998,330.5888198159635L184.19291986666664,336.11281158700587L184.9900761333333,324.683260762319L185.78723239999997,331.03595663160087L186.58438866666665,312.75162462443114L187.3815449333333,234.5993245329708L188.1787012,265.44061711356045L188.97585746666667,307.72410042881967L189.77301373333333,334.71864707134665L190.57017,315.60218765698374L191.36732626666665,321.5239854838699L192.1644825333333,336.229642977193L192.96163879999997,326.09568292573096L193.75879506666664,-139.91497607603674L194.55595133333335,244.35882725119592L195.35310760000002,338.274587302655L196.15026386666668,313.50896589756013L196.94742013333334,232.35679383687676L197.7445764,337.5717556413263L198.54173266666666,313.52713576816024L199.33888893333332,321.15479477979244L200.13604519999998,336.7576225504279L200.93320146666665,335.8020804665983L201.73035773333334,297.4930588465184L202.527514,305.8795513428748L203.32467026666666,329.63626215532423L204.12182653333332,278.9862117573619L204.91898279999998,327.3257041659206L205.71613906666664,326.7616481829435L206.5132953333333,293.5708245571703L207.31045159999996,324.3041512399912L208.10760786666663,309.3687809381634L208.90476413333334,326.94018691144885L209.7019204,326.6804543167353L210.49907666666667,334.2489515274763L211.29623293333333,337.7448521863669L212.0933892,283.59047452285887L212.89054546666665,283.6132965825498L213.6877017333333,334.99338955916465L214.48485799999997,338.97496120370926L215.28201426666666,338.82890002168716L216.07917053333333,336.65264107584954L216.8763268,335.31913057267667L217.67348306666665,338.74358062930406L218.4706393333333,305.5667135708034L219.26779559999997,301.6687935527414L220.06495186666663,334.61120783649386L220.8621081333333,249.5799000684172L221.65926439999996,139.1514142818749L222.45642066666667,289.5915351185948L223.25357693333333,325.3486115794629L224.0507332,333.0002337537706L224.84788946666666,336.8921849254519L225.64504573333332,337.32334629930557L226.44220199999998,337.3024553369731L227.23935826666664,337.31737745292486L228.0365145333333,338.07638649195434L228.8336708,331.7196528736502L229.63082706666665,328.0805876787752L230.42798333333332,335.9516527347267L231.22513959999998,333.24969642162324L232.02229586666664,330.26983764320613L232.8194521333333,337.6860414940864L233.61660839999996,338.5931305896491L234.41376466666662,323.6819867819548L235.2109209333333,321.64810237772764L236.0080772,331.9969408988953L236.80523346666666,59.17062832340599L237.60238973333333,210.1073045127094L238.399546,333.94208260178567L239.19670226666665,337.1028500918299L239.9938585333333,338.5958516813815L240.79101479999997,318.9899468638003L241.58817106666663,327.5637558039278L242.3853273333333,335.1455073647201L243.1824836,338.8544431731105L243.97963986666667,333.4324484534562L244.77679613333333,335.069931236282L245.5739524,331.9809654571116L246.37110866666666,337.46387752071024L247.16826493333332,338.7420884177089L247.96542119999998,337.4897717807442L248.76257746666664,333.4528127528727L249.55973373333333,337.7273845329881L250.35689,263.2937635138631L251.15404626666665,239.82434732206167L251.95120253333332,332.6304286096245L252.74835879999998,338.81529456302525L253.54551506666664,338.56390079781414L254.3426713333333,337.71448129154743L255.13982759999996,328.2642174821347L255.93698386666662,338.8110812596977L256.7341401333333,338.2859105553478L257.5312964,339.01770867705346L258.32845266666664,338.81959564350547L259.1256089333333,314.0665263712406L259.92276519999996,322.0962047420442L260.7199214666666,334.7100449103862L261.5170777333333,339.1134735506028L262.31423399999994,338.2695840049535L263.11139026666666,338.705924230814L263.9085465333333,333.67936558388175L264.7057028,328.59548845626415L265.50285906666664,335.5411189917475L266.3000153333333,337.076165837422L267.09717159999997,337.689991465956L267.89432786666663,336.79764893203975L268.6914841333333,333.94462813921274L269.48864039999995,333.1600759487599L270.28579666666667,338.6809077423066L271.08295293333333,339.16543762497605L271.8801092,337.5427014037967L272.67726546666665,338.89648842923344L273.4744217333333,323.0485868483782L274.271578,320.8572302322835L275.06873426666664,338.62920699939133L275.8658905333333,338.82293117530645L276.66304679999996,322.99679832831026L277.4602030666667,321.4456882636994L278.25735933333334,292.2753215610981L279.0545156,330.9976857930422L279.85167186666666,336.43117931969465L280.6488281333333,338.159248124063L281.4459844,337.80348732434214L282.24314066666665,337.9586773302406L283.0402969333333,334.2857301544398L283.8374532,333.4572016105056L284.6346094666667,335.6008074555546L285.43176573333335,338.9302826330066L286.228922,337.71255019418896L287.0260782666667,337.8823112074286L287.82323453333333,338.72497187294067L288.6203908,338.74998836144806L289.41754706666666,339.0810837812722L290.2147033333333,338.97996450141073L291.0118596,338.85330207012595L291.80901586666664,339.11233244761826L292.6061721333333,333.1510349020362L293.40332839999996,337.74476440921427L294.2004846666666,337.54419361539186L294.9976409333333,338.4912213154137L295.79479719999995,338.86523976288737L296.5919534666666,338.84689433798195L297.38910973333327,338.0114313989878L298.186266,334.5315939590335L298.98342226666665,338.31830032467843L299.7805785333333,337.85246697552503L300.5777348,338.49631239026786L301.37489106666663,322.36576837785543L302.1720473333333,336.708906230703L302.96920359999996,339.261816938594L303.7663598666666,339.1688609339297L304.56351613333334,338.6854721542448L305.3606724,327.2654890391976L306.15782866666666,330.54063015915455L306.9549849333333,337.590803283453L307.7521412,338.64983463026584L308.54929746666664,339.0116520535201L309.3464537333333,339.25777918957175L310.14360999999997,339.2082728754729L310.9407662666666,334.84381729103626L311.73792253333335,338.76306715719403L312.5350788,337.67454268708826L313.33223506666667,339.0616850305349L314.12939133333333,338.859183139354L314.9265476,339.11961795128883L315.72370386666665,338.86778530031444L316.5208601333333,339.1651742935181L317.3180164,339.26708356775345L318.11517266666664,337.8890700481832L318.9123289333333,337.7298422932625L319.70948519999996,339.10162363499404L320.5066414666666,339.22337054573L321.3037977333333,338.8856040623039L322.10095399999994,338.472700336203L322.8981102666666,338.4177518386394L323.6952665333333,339.13568117022515L324.4924228,339.16403319053353L325.28957906666665,339.0897737193853L326.0867353333333,339.1644720762968L326.88389159999997,339.13015120960773L327.68104786666663,339.1903663363308L328.4782041333333,339.07309606038035L329.27536039999995,339.27700238600374L330.0725166666666,339.2820056837052L330.8696729333333,339.28463899828495L331.66682919999994,339.2781434889883L332.46398546666666,339.08959816507996L333.2611417333333,339.11092801317574L334.058298,339.1333111871034L334.85545426666664,339.2832345638424L335.6526105333333,339.2925389420241L336.44976679999996,339.2863945413381L337.2469230666666,339.2894667416811L338.0440793333333,339.2993855599314L338.8412356,339.29947333708407L339.63839186666667,339.296927799657L340.4355481333333,339.2990344513208L341.2327044,339.29973666854204L342.02986066666665,339.29973666854204" style="fill: none;" fill="none"></path></g></g></g></g></g><g><g opacity="0.271604"><span fill="rgb(0, 0, 0)" stroke="none" stroke-width="1px">Alt + Scroll to Zoom</span></g></g></g><g transform="translate(70, 377)" clip-path="url(#clip_1)"><clipPath id="clip_1"><rect width="373" height="23"></rect></clipPath><g><g><line x1="0" y1="0" x2="0" y2="5" style="visibility: inherit;" fill="rgb(0, 0, 0)" stroke="rgb(204, 204, 204)" stroke-width="1px"></line><line x1="31.138916666666663" y1="0" x2="31.138916666666663" y2="5" style="visibility: inherit;" fill="rgb(0, 0, 0)" stroke="rgb(204, 204, 204)" stroke-width="1px"></line><line x1="62.27783333333333" y1="0" x2="62.27783333333333" y2="5" style="visibility: inherit;" fill="rgb(0, 0, 0)" stroke="rgb(204, 204, 204)" stroke-width="1px"></line><line x1="93.41675" y1="0" x2="93.41675" y2="5" style="visibility: inherit;" fill="rgb(0, 0, 0)" stroke="rgb(204, 204, 204)" stroke-width="1px"></line><line x1="124.55566666666665" y1="0" x2="124.55566666666665" y2="5" style="visibility: inherit;" fill="rgb(0, 0, 0)" stroke="rgb(204, 204, 204)" stroke-width="1px"></line><line x1="155.69458333333333" y1="0" x2="155.69458333333333" y2="5" style="visibility: inherit;" fill="rgb(0, 0, 0)" stroke="rgb(204, 204, 204)" stroke-width="1px"></line><line x1="186.8335" y1="0" x2="186.8335" y2="5" style="visibility: inherit;" fill="rgb(0, 0, 0)" stroke="rgb(204, 204, 204)" stroke-width="1px"></line><line x1="217.97241666666667" y1="0" x2="217.97241666666667" y2="5" style="visibility: inherit;" fill="rgb(0, 0, 0)" stroke="rgb(204, 204, 204)" stroke-width="1px"></line><line x1="249.1113333333333" y1="0" x2="249.1113333333333" y2="5" style="visibility: inherit;" fill="rgb(0, 0, 0)" stroke="rgb(204, 204, 204)" stroke-width="1px"></line><line x1="280.25025" y1="0" x2="280.25025" y2="5" style="visibility: inherit;" fill="rgb(0, 0, 0)" stroke="rgb(204, 204, 204)" stroke-width="1px"></line><line x1="311.38916666666665" y1="0" x2="311.38916666666665" y2="5" style="visibility: inherit;" fill="rgb(0, 0, 0)" stroke="rgb(204, 204, 204)" stroke-width="1px"></line><line x1="342.5280833333333" y1="0" x2="342.5280833333333" y2="5" style="visibility: inherit;" fill="rgb(0, 0, 0)" stroke="rgb(204, 204, 204)" stroke-width="1px"></line><line x1="373.667" y1="0" x2="373.667" y2="5" style="visibility: inherit;" fill="rgb(0, 0, 0)" stroke="rgb(204, 204, 204)" stroke-width="1px"></line></g><g transform="translate(0, 8)"><text x="0" y="0" dx="0em" dy="0.95em" style="text-anchor: middle; visibility: hidden; font-family: Roboto, sans-serif; font-size: 12px; font-weight: 200;" fill="rgb(33, 33, 33)" stroke="none" stroke-width="1px">-20k</text><text x="31.138916666666663" y="0" dx="0em" dy="0.95em" style="text-anchor: middle; visibility: inherit; font-family: Roboto, sans-serif; font-size: 12px; font-weight: 200;" fill="rgb(33, 33, 33)" stroke="none" stroke-width="1px">0</text><text x="62.27783333333333" y="0" dx="0em" dy="0.95em" style="text-anchor: middle; visibility: hidden; font-family: Roboto, sans-serif; font-size: 12px; font-weight: 200;" fill="rgb(33, 33, 33)" stroke="none" stroke-width="1px">20k</text><text x="93.41675" y="0" dx="0em" dy="0.95em" style="text-anchor: middle; visibility: inherit; font-family: Roboto, sans-serif; font-size: 12px; font-weight: 200;" fill="rgb(33, 33, 33)" stroke="none" stroke-width="1px">40k</text><text x="124.55566666666665" y="0" dx="0em" dy="0.95em" style="text-anchor: middle; visibility: hidden; font-family: Roboto, sans-serif; font-size: 12px; font-weight: 200;" fill="rgb(33, 33, 33)" stroke="none" stroke-width="1px">60k</text><text x="155.69458333333333" y="0" dx="0em" dy="0.95em" style="text-anchor: middle; visibility: inherit; font-family: Roboto, sans-serif; font-size: 12px; font-weight: 200;" fill="rgb(33, 33, 33)" stroke="none" stroke-width="1px">80k</text><text x="186.8335" y="0" dx="0em" dy="0.95em" style="text-anchor: middle; visibility: hidden; font-family: Roboto, sans-serif; font-size: 12px; font-weight: 200;" fill="rgb(33, 33, 33)" stroke="none" stroke-width="1px">100k</text><text x="217.97241666666667" y="0" dx="0em" dy="0.95em" style="text-anchor: middle; visibility: inherit; font-family: Roboto, sans-serif; font-size: 12px; font-weight: 200;" fill="rgb(33, 33, 33)" stroke="none" stroke-width="1px">120k</text><text x="249.1113333333333" y="0" dx="0em" dy="0.95em" style="text-anchor: middle; visibility: hidden; font-family: Roboto, sans-serif; font-size: 12px; font-weight: 200;" fill="rgb(33, 33, 33)" stroke="none" stroke-width="1px">140k</text><text x="280.25025" y="0" dx="0em" dy="0.95em" style="text-anchor: middle; visibility: inherit; font-family: Roboto, sans-serif; font-size: 12px; font-weight: 200;" fill="rgb(33, 33, 33)" stroke="none" stroke-width="1px">160k</text><text x="311.38916666666665" y="0" dx="0em" dy="0.95em" style="text-anchor: middle; visibility: hidden; font-family: Roboto, sans-serif; font-size: 12px; font-weight: 200;" fill="rgb(33, 33, 33)" stroke="none" stroke-width="1px">180k</text><text x="342.5280833333333" y="0" dx="0em" dy="0.95em" style="text-anchor: middle; visibility: inherit; font-family: Roboto, sans-serif; font-size: 12px; font-weight: 200;" fill="rgb(33, 33, 33)" stroke="none" stroke-width="1px">200k</text><text x="373.667" y="0" dx="0em" dy="0.95em" style="text-anchor: middle; visibility: hidden; font-family: Roboto, sans-serif; font-size: 12px; font-weight: 200;" fill="rgb(33, 33, 33)" stroke="none" stroke-width="1px">220k</text></g><line x1="0" y1="0" x2="373.667" y2="0" fill="rgb(0, 0, 0)" stroke="rgb(204, 204, 204)" stroke-width="1px"></line></g></g></g></g></svg>