<svg viewBox="0 0 443.66668701171875 400" xmlns="http://www.w3.org/2000/svg"><g><g><g><g><g><line x1="70" y1="377" x2="65" y2="377" style="visibility: inherit;" fill="rgb(0, 0, 0)" stroke="rgb(204, 204, 204)" stroke-width="1px"></line><line x1="70" y1="335.1111111111111" x2="65" y2="335.1111111111111" style="visibility: inherit;" fill="rgb(0, 0, 0)" stroke="rgb(204, 204, 204)" stroke-width="1px"></line><line x1="70" y1="293.22222222222223" x2="65" y2="293.22222222222223" style="visibility: inherit;" fill="rgb(0, 0, 0)" stroke="rgb(204, 204, 204)" stroke-width="1px"></line><line x1="70" y1="251.33333333333337" x2="65" y2="251.33333333333337" style="visibility: inherit;" fill="rgb(0, 0, 0)" stroke="rgb(204, 204, 204)" stroke-width="1px"></line><line x1="70" y1="209.44444444444446" x2="65" y2="209.44444444444446" style="visibility: inherit;" fill="rgb(0, 0, 0)" stroke="rgb(204, 204, 204)" stroke-width="1px"></line><line x1="70" y1="167.55555555555554" x2="65" y2="167.55555555555554" style="visibility: inherit;" fill="rgb(0, 0, 0)" stroke="rgb(204, 204, 204)" stroke-width="1px"></line><line x1="70" y1="125.66666666666669" x2="65" y2="125.66666666666669" style="visibility: inherit;" fill="rgb(0, 0, 0)" stroke="rgb(204, 204, 204)" stroke-width="1px"></line><line x1="70" y1="83.77777777777777" x2="65" y2="83.77777777777777" style="visibility: inherit;" fill="rgb(0, 0, 0)" stroke="rgb(204, 204, 204)" stroke-width="1px"></line><line x1="70" y1="41.88888888888891" x2="65" y2="41.88888888888891" style="visibility: inherit;" fill="rgb(0, 0, 0)" stroke="rgb(204, 204, 204)" stroke-width="1px"></line><line x1="70" y1="0" x2="65" y2="0" style="visibility: inherit;" fill="rgb(0, 0, 0)" stroke="rgb(204, 204, 204)" stroke-width="1px"></line></g><g transform="translate(60, 0)"><text x="0" y="377" dx="0em" dy="0.3em" style="text-anchor: end; visibility: hidden; font-family: Roboto, sans-serif; font-size: 12px; font-weight: 200;" fill="rgb(33, 33, 33)" stroke="none" stroke-width="1px">-200</text><text x="0" y="335.1111111111111" dx="0em" dy="0.3em" style="text-anchor: end; visibility: inherit; font-family: Roboto, sans-serif; font-size: 12px; font-weight: 200;" fill="rgb(33, 33, 33)" stroke="none" stroke-width="1px">0</text><text x="0" y="293.22222222222223" dx="0em" dy="0.3em" style="text-anchor: end; visibility: inherit; font-family: Roboto, sans-serif; font-size: 12px; font-weight: 200;" fill="rgb(33, 33, 33)" stroke="none" stroke-width="1px">200</text><text x="0" y="251.33333333333337" dx="0em" dy="0.3em" style="text-anchor: end; visibility: inherit; font-family: Roboto, sans-serif; font-size: 12px; font-weight: 200;" fill="rgb(33, 33, 33)" stroke="none" stroke-width="1px">400</text><text x="0" y="209.44444444444446" dx="0em" dy="0.3em" style="text-anchor: end; visibility: inherit; font-family: Roboto, sans-serif; font-size: 12px; font-weight: 200;" fill="rgb(33, 33, 33)" stroke="none" stroke-width="1px">600</text><text x="0" y="167.55555555555554" dx="0em" dy="0.3em" style="text-anchor: end; visibility: inherit; font-family: Roboto, sans-serif; font-size: 12px; font-weight: 200;" fill="rgb(33, 33, 33)" stroke="none" stroke-width="1px">800</text><text x="0" y="125.66666666666669" dx="0em" dy="0.3em" style="text-anchor: end; visibility: inherit; font-family: Roboto, sans-serif; font-size: 12px; font-weight: 200;" fill="rgb(33, 33, 33)" stroke="none" stroke-width="1px">1e+3</text><text x="0" y="83.77777777777777" dx="0em" dy="0.3em" style="text-anchor: end; visibility: inherit; font-family: Roboto, sans-serif; font-size: 12px; font-weight: 200;" fill="rgb(33, 33, 33)" stroke="none" stroke-width="1px">1.2e+3</text><text x="0" y="41.88888888888891" dx="0em" dy="0.3em" style="text-anchor: end; visibility: inherit; font-family: Roboto, sans-serif; font-size: 12px; font-weight: 200;" fill="rgb(33, 33, 33)" stroke="none" stroke-width="1px">1.4e+3</text><text x="0" y="0" dx="0em" dy="0.3em" style="text-anchor: end; visibility: hidden; font-family: Roboto, sans-serif; font-size: 12px; font-weight: 200;" fill="rgb(33, 33, 33)" stroke="none" stroke-width="1px">1.6e+3</text></g><line x1="70" y1="0" x2="70" y2="377" fill="rgb(0, 0, 0)" stroke="rgb(204, 204, 204)" stroke-width="1px"></line></g></g><g transform="translate(70, 0)" clip-path="url(#clip_0)"><clipPath id="clip_0"><rect width="373" height="377"></rect></clipPath><g><g><g><line x1="0" y1="0" x2="0" y2="377" fill="rgb(0, 0, 0)" stroke="rgb(66, 66, 66)" stroke-width="1px" opacity="0.25"></line><line x1="31.138916666666663" y1="0" x2="31.138916666666663" y2="377" fill="rgb(0, 0, 0)" stroke="rgb(66, 66, 66)" stroke-width="1px" opacity="0.25"></line><line x1="62.27783333333333" y1="0" x2="62.27783333333333" y2="377" fill="rgb(0, 0, 0)" stroke="rgb(66, 66, 66)" stroke-width="1px" opacity="0.25"></line><line x1="93.41675" y1="0" x2="93.41675" y2="377" fill="rgb(0, 0, 0)" stroke="rgb(66, 66, 66)" stroke-width="1px" opacity="0.25"></line><line x1="124.55566666666665" y1="0" x2="124.55566666666665" y2="377" fill="rgb(0, 0, 0)" stroke="rgb(66, 66, 66)" stroke-width="1px" opacity="0.25"></line><line x1="155.69458333333333" y1="0" x2="155.69458333333333" y2="377" fill="rgb(0, 0, 0)" stroke="rgb(66, 66, 66)" stroke-width="1px" opacity="0.25"></line><line x1="186.8335" y1="0" x2="186.8335" y2="377" fill="rgb(0, 0, 0)" stroke="rgb(66, 66, 66)" stroke-width="1px" opacity="0.25"></line><line x1="217.97241666666667" y1="0" x2="217.97241666666667" y2="377" fill="rgb(0, 0, 0)" stroke="rgb(66, 66, 66)" stroke-width="1px" opacity="0.25"></line><line x1="249.1113333333333" y1="0" x2="249.1113333333333" y2="377" fill="rgb(0, 0, 0)" stroke="rgb(66, 66, 66)" stroke-width="1px" opacity="0.25"></line><line x1="280.25025" y1="0" x2="280.25025" y2="377" fill="rgb(0, 0, 0)" stroke="rgb(66, 66, 66)" stroke-width="1px" opacity="0.25"></line><line x1="311.38916666666665" y1="0" x2="311.38916666666665" y2="377" fill="rgb(0, 0, 0)" stroke="rgb(66, 66, 66)" stroke-width="1px" opacity="0.25"></line><line x1="342.5280833333333" y1="0" x2="342.5280833333333" y2="377" fill="rgb(0, 0, 0)" stroke="rgb(66, 66, 66)" stroke-width="1px" opacity="0.25"></line><line x1="373.667" y1="0" x2="373.667" y2="377" fill="rgb(0, 0, 0)" stroke="rgb(66, 66, 66)" stroke-width="1px" opacity="0.25"></line></g><g><line x1="0" y1="377" x2="373.667" y2="377" fill="rgb(0, 0, 0)" stroke="rgb(66, 66, 66)" stroke-width="1px" opacity="0.25"></line><line x1="0" y1="335.1111111111111" x2="373.667" y2="335.1111111111111" fill="rgb(0, 0, 0)" stroke="rgb(66, 66, 66)" stroke-width="1px" opacity="0.25"></line><line x1="0" y1="293.22222222222223" x2="373.667" y2="293.22222222222223" fill="rgb(0, 0, 0)" stroke="rgb(66, 66, 66)" stroke-width="1px" opacity="0.25"></line><line x1="0" y1="251.33333333333337" x2="373.667" y2="251.33333333333337" fill="rgb(0, 0, 0)" stroke="rgb(66, 66, 66)" stroke-width="1px" opacity="0.25"></line><line x1="0" y1="209.44444444444446" x2="373.667" y2="209.44444444444446" fill="rgb(0, 0, 0)" stroke="rgb(66, 66, 66)" stroke-width="1px" opacity="0.25"></line><line x1="0" y1="167.55555555555554" x2="373.667" y2="167.55555555555554" fill="rgb(0, 0, 0)" stroke="rgb(66, 66, 66)" stroke-width="1px" opacity="0.25"></line><line x1="0" y1="125.66666666666669" x2="373.667" y2="125.66666666666669" fill="rgb(0, 0, 0)" stroke="rgb(66, 66, 66)" stroke-width="1px" opacity="0.25"></line><line x1="0" y1="83.77777777777777" x2="373.667" y2="83.77777777777777" fill="rgb(0, 0, 0)" stroke="rgb(66, 66, 66)" stroke-width="1px" opacity="0.25"></line><line x1="0" y1="41.88888888888891" x2="373.667" y2="41.88888888888891" fill="rgb(0, 0, 0)" stroke="rgb(66, 66, 66)" stroke-width="1px" opacity="0.25"></line><line x1="0" y1="0" x2="373.667" y2="0" fill="rgb(0, 0, 0)" stroke="rgb(66, 66, 66)" stroke-width="1px" opacity="0.25"></line></g></g></g><g><g><line x1="0" y1="335.1111111111111" x2="373.667" y2="335.1111111111111" fill="rgb(0, 0, 0)" stroke="rgb(153, 153, 153)" stroke-width="1.5px"></line></g></g><g><g><line x1="31.138916666666663" y1="0" x2="31.138916666666663" y2="377" fill="rgb(0, 0, 0)" stroke="rgb(153, 153, 153)" stroke-width="1.5px"></line></g></g><g><g><g><g><g><path stroke="rgb(255, 112, 67)" stroke-width="2px" d="M31.936072933333328,217.07343020968966L32.7332292,201.44400308369012L33.530385466666665,139.25423669136308L34.327541733333334,149.5192542281654L35.124697999999995,175.16138884648254L35.921854266666664,180.44635381896566L36.71901053333333,190.70951435993976L37.5161668,191.62096493561296L38.31332306666666,192.90058390469164L39.11047933333333,179.4755455633006L39.9076356,183.11512098463373L40.70479186666666,147.65712081519254L41.50194813333333,147.3389291363883L42.2991044,148.82592962688574L43.09626066666666,137.17830565665355L43.89341693333333,143.48873066685508L44.690573199999996,154.67893465127923L45.487729466666664,163.84397208918077L46.28488573333333,181.15928475580932L47.082041999999994,177.44736053365045L47.879198266666656,168.67039283230267L48.67635453333333,152.1424871075479L49.47351079999999,179.05024310144822L50.27066706666667,188.89578154396978L51.06782333333333,180.80088075722415L51.8649796,197.31958248931338L52.66213586666666,184.11499714862413L53.459292133333335,179.83735554299784L54.2564484,189.9964454790355L55.053604666666665,200.7979116633897L55.850760933333326,174.7506608570039L56.6479172,145.30150917535138L57.44507346666666,113.4653330128849L58.242229733333325,138.69029904441186L59.03938599999999,150.53835144743L59.836542266666655,162.04404085019976L60.63369853333333,180.22389178186992L61.43085479999999,185.9310022885436L62.22801106666667,198.62014342719183L63.02516733333333,195.92360802128104L63.8223236,210.92731981941253L64.61947986666667,224.51397167988262L65.41663613333333,217.0305979987707L66.21379239999999,220.05073080126934L67.01094866666666,227.85913190488478L67.80810493333333,232.9895146883298L68.6052612,240.04515623463627L69.40241746666666,247.4893377423338L70.19957373333332,249.51973028766025L70.99673,252.13257878907862L71.79388626666666,248.12925372094992L72.59104253333334,253.60108467525248L73.3881988,249.65269619500634L74.18535506666666,243.57577106060717L74.98251133333332,251.05766386249272L75.7796676,260.1711040598108L76.57682386666666,257.9549160086063L77.37398013333333,252.33709642283074L78.1711364,253.76449725655766L78.96829266666667,244.87255984163613L79.76544893333333,248.7689526616338L80.5626052,259.47152672480615L81.35976146666665,262.4232218285448L82.15691773333333,263.75949452845697L82.95407399999999,250.60199532986385L83.75123026666665,254.0853649994103L84.54838653333333,261.8746158418648L85.34554279999999,260.01917050712444L86.14269906666667,259.43357353256425L86.93985533333333,263.7399558582998L87.7370116,264.40376878858535L88.53416786666666,267.56652326597697L89.33132413333333,265.47189548494896L90.12848039999999,264.84835111708287L90.92563666666666,268.2212968508999L91.72279293333332,252.85906084001667L92.51994919999999,256.67293841122296L93.31710546666666,240.3799191656886L94.11426173333334,251.4905119131817L94.911418,253.529457677358L95.70857426666666,259.7320055730666L96.50573053333332,245.46819683201682L97.3028868,252.9314465378864L98.10004306666666,251.34310283325777L98.89719933333332,254.23314290878392L99.69435559999998,250.88793420657416L100.49151186666667,232.50958275712955L101.28866813333333,239.26697782842072L102.08582439999999,241.3832797626442L102.88298066666665,253.07102474693394L103.68013693333332,258.3465185498354L104.47729319999999,265.73586853230165L105.27444946666667,269.08957552358714L106.07160573333333,268.5113306664169L106.86876199999999,266.3077164634444L107.66591826666667,271.10661226998207L108.46307453333333,273.3520555692268L109.26023079999999,262.21263915185403L110.05738706666665,265.3546301180763L110.85454333333334,268.18606665191027L111.6516996,268.8100424890639L112.44885586666666,276.7171553577758L113.24601213333332,271.9679698944478L114.0431684,276.22543508921996L114.84032466666666,276.2933775817478L115.63748093333332,277.0749470578445L116.43463719999998,278.2764179975164L117.23179346666664,268.622022530907L118.02894973333333,275.02670776432694L118.826106,281.85371289892703L119.62326226666666,283.9827920147279L120.42041853333332,271.35845541580386L121.2175748,273.0712041369693L122.01473106666666,273.7334854894218L122.81188733333332,277.88303990209135L123.60904359999998,277.23360349955766L124.40619986666667,283.3706868734394L125.20335613333333,288.83445683557034L126.00051239999999,288.8284517553875L126.79766866666665,291.2492518871626L127.59482493333331,293.36674620905626L128.3919812,295.88448654122953L129.18913746666666,295.33304545347295L129.98629373333333,298.553065391455L130.78345,297.10717689590933L131.58060626666668,297.443444612136L132.37776253333334,292.21590745126616L133.1749188,288.9219669663184L133.97207506666666,288.694333031583L134.76923133333332,291.53656280953555L135.56638759999998,293.0894179789384L136.36354386666665,295.81294876571565L137.1607001333333,299.6459195247348L137.95785639999997,294.74866144086474L138.75501266666666,296.03626427498057L139.55216893333332,297.0023022451068L140.34932519999998,297.56828074684563L141.14648146666664,290.9075987416236L141.94363773333333,287.53073562985765L142.740794,289.26198801117295L143.53795026666666,291.6065922014742L144.33510653333332,295.38566442745275L145.1322628,298.34728066808L145.92941906666667,296.9536787350275L146.72657533333333,299.932586119998L147.5237316,299.8091039772221L148.32088786666665,295.1255424789426L149.11804413333334,272.7646222574947L149.9152004,269.7398725571432L150.71235666666666,277.39608429950187L151.50951293333333,282.1922527103441L152.3066692,284.4026914390604L153.10382546666665,289.7802049046599L153.9009817333333,289.6409105805819L154.69813799999997,284.3603615444137L155.49529426666666,288.2047783530489L156.29245053333332,292.20028761141407L157.08960679999998,289.3163438429991L157.88676306666665,282.0460111792886L158.68391933333334,288.27828208032213L159.4810756,284.05642327431923L160.27823186666666,286.56291384514344L161.07538813333332,284.7304040449827L161.87254439999998,285.30787375730296L162.66970066666667,288.9241541502453L163.46685693333333,292.95706192556014L164.2640132,296.975386884958L165.06116946666666,300.5484348693088L165.85832573333332,305.80759013516644L166.65548199999998,306.31412100791783L167.45263826666664,290.32443512141214L168.2497945333333,294.28102482719265L169.0469508,296.9057006405493L169.84410706666665,290.71739909997626L170.6412633333333,292.7715184923578L171.43841959999997,294.0267428960639L172.23557586666664,294.22742946103506L173.03273213333333,295.8859394782402L173.8298884,297.29334057585413L174.62704466666665,295.3519734798378L175.4242009333333,293.345291176837L176.2213572,296.1176312009454L177.01851346666666,298.02306178151235L177.81566973333332,300.1401444989041L178.61282599999998,287.9857070672681L179.40998226666667,292.0243237610854L180.20713853333334,293.8720111278338L181.0042948,286.709862454882L181.80145106666666,287.33893723324536L182.59860733333332,291.221036967579L183.39576359999998,294.97533861094604L184.19291986666664,298.8192461865242L184.9900761333333,299.35800259326345L185.78723239999997,301.3440626980659L186.58438866666665,302.1239558504929L187.3815449333333,302.2788193347094L188.1787012,302.6978153143036L188.97585746666667,290.4037433194213L189.77301373333333,288.5697646118556L190.57017,290.5100516477586L191.36732626666665,293.48319686897634L192.1644825333333,299.47298079983733L192.96163879999997,299.8907787626377L193.75879506666664,303.15265452282364L194.55595133333335,301.6505747855482L195.35310760000002,299.67158358153733L196.15026386666668,300.78102132448L196.94742013333334,298.07604916556863L197.7445764,299.50270182214064L198.54173266666666,303.2062387732922L199.33888893333332,302.1231980018332L200.13604519999998,304.1952481498471L200.93320146666665,306.67397381606236L201.73035773333334,306.9833313655144L202.527514,306.9066970730227L203.32467026666666,302.1280029446947L204.12182653333332,302.7105178201421L204.91898279999998,300.4282926648813L205.71613906666664,300.33435507631094L206.5132953333333,297.6447884149956L207.31045159999996,299.19064633906754L208.10760786666663,300.68772336258075L208.90476413333334,294.6616092897949L209.7019204,292.6687998175865L210.49907666666667,297.5214726839528L211.29623293333333,299.3604506544392L212.0933892,301.47995420934853L212.89054546666665,303.9828325380092L213.6877017333333,294.93468016219373L214.48485799999997,296.2652911306974L215.28201426666666,299.38394083404273L216.07917053333333,300.48226548502726L216.8763268,302.36339370449804L217.67348306666665,305.83133920605104L218.4706393333333,306.142396317658L219.26779559999997,307.4934674354571L220.06495186666663,308.6678412113116L220.8621081333333,309.70130406345277L221.65926439999996,310.3762847114099L222.45642066666667,312.7430471467363L223.25357693333333,314.04353861205135L224.0507332,313.51928318998796L224.84788946666666,309.3947609570315L225.64504573333332,311.13819922622133L226.44220199999998,310.8703627221176L227.23935826666664,308.1831989257046L228.0365145333333,307.43665607042385L228.8336708,307.6265883866481L229.63082706666665,309.8687831315712L230.42798333333332,308.1286858252601L231.22513959999998,311.1817425067087L232.02229586666664,311.8304485034839L232.8194521333333,307.6621990076574L233.61660839999996,310.6177439193962L234.41376466666662,311.410972193426L235.2109209333333,311.44475093876895L236.0080772,306.0413639396824L236.80523346666666,307.42585160736036L237.60238973333333,303.03490869532146L238.399546,301.10694325792633L239.19670226666665,302.8667387211312L239.9938585333333,303.30907289146495L240.79101479999997,300.12866661814024L241.58817106666663,304.01984526590115L242.3853273333333,306.38047626546444L243.1824836,308.08440299666455L243.97963986666667,309.38123412045115L244.77679613333333,310.80989812119395L245.5739524,312.1425952302743L246.37110866666666,311.82466447943835L247.16826493333332,309.82550294901404L247.96542119999998,310.6593014266734L248.76257746666664,302.51539070788095L249.55973373333333,303.2732725818461L250.35689,307.42626435638357L251.15404626666665,306.6719858040781L251.95120253333332,307.9660465071657L252.74835879999998,308.461929837705L253.54551506666664,310.5319267250582L254.3426713333333,305.37284068384594L255.13982759999996,308.7864635378759L255.93698386666662,299.4242768955628L256.7341401333333,301.60902746630615L257.5312964,304.5281029804563L258.32845266666664,308.6782904576685L259.1256089333333,310.0263094735276L259.92276519999996,309.5600911672603L260.7199214666666,311.31411745665173L261.5170777333333,312.2900752911186L262.31423399999994,313.47502615093504L263.11139026666666,311.9082088132607L263.9085465333333,312.42940466671246L264.7057028,311.8671128844348L265.50285906666664,307.41796742394087L266.3000153333333,308.5475565847119L267.09717159999997,310.53964654782976L267.89432786666663,310.4556881170092L268.6914841333333,307.43373977216356L269.48864039999995,309.3717500583221L270.28579666666667,306.5519706604286L271.08295293333333,307.0076024102564L271.8801092,303.3857991379971L272.67726546666665,304.3636831199904L273.4744217333333,307.01615668616904L274.271578,309.94637432014554L275.06873426666664,306.3057956663488L275.8658905333333,308.5968483387317L276.66304679999996,309.00986167237994L277.4602030666667,309.1268733915582L278.25735933333334,309.7160099947571L279.0545156,310.78312965650406L279.85167186666666,310.87948620770345L280.6488281333333,309.18002377423375L281.4459844,312.17559979468837L282.24314066666665,313.59672247913187L283.0402969333333,309.9314298825744L283.8374532,308.67029904408156L284.6346094666667,310.39165225957504L285.43176573333335,311.0886457529187L286.228922,309.16965879694015L287.0260782666667,311.1251323308311L287.82323453333333,310.91861145647323L288.6203908,306.1634251566005L289.41754706666666,306.4452083455881L290.2147033333333,309.7654649968877L291.0118596,311.74297635044576L291.80901586666664,311.47707920273734L292.6061721333333,311.18461501601223L293.40332839999996,309.7865201297166L294.2004846666666,312.07239999372666L294.9976409333333,312.06283391026255L295.79479719999995,311.7834724908596L296.5919534666666,313.43518766783046L297.38910973333327,315.09049892202455L298.186266,316.24231816440425L298.98342226666665,312.7365324873679L299.7805785333333,314.7797133231394L300.5777348,315.5346215163153L301.37489106666663,313.3075909506331L302.1720473333333,313.7161295889306L302.96920359999996,312.3430710200891L303.7663598666666,311.7975813463316L304.56351613333334,314.5811579607394L305.3606724,314.9727586785118L306.15782866666666,315.5188464332465L306.9549849333333,316.1808468020431L307.7521412,315.1268888970856L308.54929746666664,313.4654308196508L309.3464537333333,311.62697731463794L310.14360999999997,313.28860755600783L310.9407662666666,313.11347188461167L311.73792253333335,315.86084445828885L312.5350788,313.58959001958857L313.33223506666667,313.6612334385268L314.12939133333333,312.41724266309313L314.9265476,311.4528856622843L315.72370386666665,313.1567678831336L316.5208601333333,312.7914852519903L317.3180164,310.264267897073L318.11517266666664,308.19132184061016L318.9123289333333,311.2832386863329L319.70948519999996,309.7807358886061L320.5066414666666,313.24690557797095L321.3037977333333,314.84264052494365L322.10095399999994,315.67056486763386L322.8981102666666,317.1804320206785L323.6952665333333,317.5845642930191L324.4924228,318.47195505746186L325.28957906666665,318.96991267871033L326.0867353333333,318.27291993020935L326.88389159999997,314.99049850174225L327.68104786666663,311.97382345535755L328.4782041333333,313.9245153197565L329.27536039999995,314.0261530639234L330.0725166666666,316.41688018988333L330.8696729333333,316.35050918427805L331.66682919999994,318.3755300231516L332.46398546666666,320.8326617285577L333.2611417333333,322.27735508724544L334.058298,318.58779615015214L334.85545426666664,315.46513482461114L335.6526105333333,315.24949462528934L336.44976679999996,313.7507654399749L337.2469230666666,314.9401904750614L338.0440793333333,313.10307610668815L338.8412356,313.6301142275486L339.63839186666667,315.6274648439441L340.4355481333333,313.7723138295847L341.2327044,305.80141861043876L342.02986066666665,307.93751990853633" style="fill: none;" fill="none"></path></g></g></g></g><g opacity="0.2"><g><g><g><path stroke="rgb(255, 112, 67)" stroke-width="2px" d="M31.936072933333328,217.07343020968966L32.7332292,188.75290825737846L33.530385466666665,47.7516970486111L34.327541733333334,170.1183865017361L35.124697999999995,237.7657845391168L35.921854266666664,195.21503126356333L36.71901053333333,222.3314394124349L37.5161668,194.64138563368056L38.31332306666666,197.3829039849175L39.11047933333333,130.38932952880862L39.9076356,196.8761031426324L40.70479186666666,10.005062934027775L41.50194813333333,146.07752888997396L42.2991044,154.82001919216577L43.09626066666666,89.59581821017795L43.89341693333333,169.54545674641926L44.690573199999996,201.28472717285158L45.487729466666664,202.28102003309462L46.28488573333333,254.1853839959039L47.082041999999994,161.7215996975369L47.879198266666656,131.35002041286893L48.67635453333333,81.65610453287758L49.47351079999999,294.0789546966553L50.27066706666667,231.06659839206273L51.06782333333333,146.0738216824002L51.8649796,268.2752272033692L52.66213586666666,127.33627790662976L53.459292133333335,161.4283595784505L54.2564484,233.7462958611382L55.053604666666665,247.33987820095487L55.850760933333326,62.46639648437498L56.6479172,18.30608873155383L57.44507346666666,-23.864420098198796L58.242229733333325,247.52781444973417L59.03938599999999,201.66880666097003L59.836542266666655,211.70488230387366L60.63369853333333,258.70182384914824L61.43085479999999,210.5697609117296L62.22801106666667,253.40639102511935L63.02516733333333,184.2803285047743L63.8223236,275.7149600219726L64.61947986666667,283.18525493197967L65.41663613333333,184.7139311726888L66.21379239999999,233.09345021565755L67.01094866666666,261.5812439303928L67.80810493333333,255.14651590983073L68.6052612,270.51741665310334L69.40241746666666,279.64006191677515L70.19957373333332,258.28889845106335L70.99673,263.4174430169L71.79388626666666,230.83881605360244L72.59104253333334,277.23416090223526L73.3881988,232.5993561469184L74.18535506666666,217.32904856363933L74.98251133333332,283.37265107896593L75.7796676,299.5329920874702L76.57682386666666,248.38295218573677L77.37398013333333,228.07306662665474L78.1711364,259.9296190388998L78.96829266666667,206.46713490804038L79.76544893333333,265.59799055311413L80.5626052,305.6973975626628L81.35976146666665,275.1720011223687L82.15691773333333,269.5310437689887L82.95407399999999,193.77288916693794L83.75123026666665,269.1305375162761L84.54838653333333,295.51751422458227L85.34554279999999,252.00523274739584L86.14269906666667,256.90429477267793L86.93985533333333,282.3398518117269L87.7370116,267.2708743625217L88.53416786666666,281.2269257269965L89.33132413333333,256.4248889160156L90.12848039999999,262.15517079671224L90.92563666666666,282.78954887390137L91.72279293333332,186.50728644476996L92.51994919999999,273.145641462538L93.31710546666666,170.0079500664605L94.11426173333334,299.47881252712676L94.911418,262.3359674750434L95.70857426666666,286.5217321607802L96.50573053333332,183.86068539089626L97.3028868,285.1663323296441L98.10004306666666,244.48281002468534L98.89719933333332,266.7156561109755L99.69435559999998,236.43947989569773L100.49151186666667,153.13074696858723L101.28866813333333,268.45317316691086L102.08582439999999,250.52390291002064L102.88298066666665,303.5521356116401L103.68013693333332,281.13216183132596L104.47729319999999,297.65157146030003L105.27444946666667,283.57473543802894L106.07160573333333,266.01380501641165L106.86876199999999,256.7899785529243L107.66591826666667,291.8337579345703L108.46307453333333,283.0504595862495L109.26023079999999,214.09984066433375L110.05738706666665,278.9253570387098L110.85454333333334,280.41546273125545L111.6516996,271.50508705986874L112.44885586666666,310.86915346781416L113.24601213333332,251.4555305650499L114.0431684,294.6140613471137L114.84032466666666,276.58683132595485L115.63748093333332,280.4506620279948L116.43463719999998,283.4657499270969L117.23179346666664,226.92325063069663L118.02894973333333,302.68949717203776L118.826106,311.3405648591783L119.62326226666666,293.1786018117269L120.42041853333332,216.83206542968747L121.2175748,280.4688209533691L122.01473106666666,276.5939772881402L122.81188733333332,295.8055834282769L123.60904359999998,274.42859095255534L124.40619986666667,309.87766399807396L125.20335613333333,312.43329305436873L126.00051239999999,288.8025149197049L126.79766866666665,301.7050482008192L127.59482493333331,302.5125195566813L128.3919812,306.7589820183648L129.18913746666666,292.9512892659505L129.98629373333333,312.4608110809326L130.78345,290.8621691385905L131.58060626666668,298.8958349609375L132.37776253333334,269.63739588419594L133.1749188,274.6949474249946L133.97207506666666,287.7111481645372L134.76923133333332,303.8125765313043L135.56638759999998,299.79643073187935L136.36354386666665,307.5762838660346L137.1607001333333,316.2010911009047L137.95785639999997,273.59667439778644L138.75501266666666,301.5976126861572L139.55216893333332,301.1747641160753L140.34932519999998,300.01282619052466L141.14648146666664,262.1391211446126L141.94363773333333,272.94556091308596L142.740794,296.73952489217123L143.53795026666666,301.733286895752L144.33510653333332,311.70804021199547L145.1322628,311.1389423031277L145.92941906666667,290.93450442843965L146.72657533333333,312.798930782742L147.5237316,299.27576621161563L148.32088786666665,274.89654281616214L149.11804413333334,176.18447747124566L149.9152004,256.67552810668946L150.71235666666666,310.4644031016032L151.50951293333333,302.907618399726L152.3066692,293.9499055226644L153.10382546666665,313.00648646884497L153.9009817333333,289.0392776489258L154.69813799999997,261.5528837924533L155.49529426666666,304.8093871222602L156.29245053333332,309.45748717414006L157.08960679999998,276.86016118367513L157.88676306666665,250.6443615892198L158.68391933333334,315.1963883124457L159.4810756,265.82158630371094L160.27823186666666,297.3888199276394L161.07538813333332,276.815521291097L161.87254439999998,287.8020514509413L162.66970066666667,304.54340776231555L163.46685693333333,310.37579125298396L164.2640132,314.3311308585273L165.06116946666666,315.9809612698025L165.85832573333332,328.5226650068495L166.65548199999998,308.50190328809947L167.45263826666664,221.2626003350152L168.2497945333333,311.3701250457764L169.0469508,308.24206638760035L169.84410706666665,263.9892030843099L170.6412633333333,301.64356608072916L171.43841959999997,299.448244043986L172.23557586666664,295.0942246246338L173.03273213333333,303.04929125467936L173.8298884,303.3721155293783L174.62704466666665,286.96691985236276L175.4242009333333,284.6781314425998L176.2213572,308.09178066677515L177.01851346666666,306.25290024651423L177.81566973333332,309.28414006551105L178.61282599999998,235.48888156467015L179.40998226666667,309.46771075778537L180.20713853333334,301.85244805230036L181.0042948,255.7754756334093L181.80145106666666,290.056004892985L182.59860733333332,307.98840390523276L183.39576359999998,311.1907265599569L184.19291986666664,315.42165550231937L184.9900761333333,301.684971754286L185.78723239999997,309.92215208689373L186.58438866666665,305.49243053012424L187.3815449333333,302.94769778781466L188.1787012,304.5075213538276L188.97585746666667,237.30381534152562L189.77301373333333,280.64853742811414L190.57017,298.8904403347439L191.36732626666665,306.32465388827853L192.1644825333333,325.34374969270493L192.96163879999997,301.6953103892008L193.75879506666664,317.24118174235025L194.55595133333335,295.1628686862522L195.35310760000002,291.1240258280436L196.15026386666668,305.572848171658L196.94742013333334,286.39287154303656L197.7445764,305.66462712605795L198.54173266666666,319.2023664559258L199.33888893333332,297.44538360595703L200.13604519999998,313.1447413423326L200.93320146666665,317.3799591403538L201.73035773333334,308.3194926961263L202.527514,306.57570215013294L203.32467026666666,281.48811128404407L204.12182653333332,305.2264863247342L204.91898279999998,290.5710223134359L205.71613906666664,299.9286246405708L206.5132953333333,286.02814943101674L207.31045159999996,305.86743694729273L208.10760786666663,307.15382199605307L208.90476413333334,268.6339251030816L209.7019204,284.0615589057075L210.49907666666667,318.48088953230115L211.29623293333333,307.3032703993056L212.0933892,310.6344057337443L212.89054546666665,314.7931368086073L213.6877017333333,255.85436245388453L214.48485799999997,302.01239807976617L215.28201426666666,312.85385338253445L216.07917053333333,305.2260932328966L216.8763268,310.4882666524251L217.67348306666665,320.8099123297797L218.4706393333333,307.48589831034343L219.26779559999997,313.3289448165894L220.06495186666663,313.74013645595977L220.8621081333333,314.1649840418498L221.65926439999996,313.29162665896945L222.45642066666667,322.96544660144383L223.25357693333333,319.6605549409655L224.0507332,311.2549459415012L224.84788946666666,291.58033514234756L225.64504573333332,318.6683687718709L226.44220199999998,309.71353697035045L227.23935826666664,296.576938273112L228.0365145333333,304.21222629123264L228.8336708,308.4469343482123L229.63082706666665,319.55315617879234L230.42798333333332,300.612946395874L231.22513959999998,324.36834902445474L232.02229586666664,314.6323063193427L232.8194521333333,289.6589086320665L233.61660839999996,323.383182580736L234.41376466666662,314.8370432493422L235.2109209333333,311.59064637078177L236.0080772,282.7033307308621L236.80523346666666,313.4056600443522L237.60238973333333,284.0697722880046L238.399546,292.7797733900282L239.19670226666665,310.4675574239095L239.9938585333333,305.2195800526937L240.79101479999997,286.39201824612087L241.58817106666663,320.8264253828261L242.3853273333333,316.5763931359185L243.1824836,315.4439163250393L243.97963986666667,314.9824408891466L244.77679613333333,316.98051072014704L245.5739524,317.89871253119577L246.37110866666666,310.4514742151896L247.16826493333332,301.1908265516493L247.96542119999998,314.260601234436L248.76257746666664,267.3406273905436L249.55973373333333,306.5466772715251L250.35689,325.36365436130103L251.15404626666665,303.4141443973117L251.95120253333332,313.55528741624624L252.74835879999998,310.60372379726834L253.54551506666664,319.47255157894557L254.3426713333333,283.08997969733343L255.13982759999996,323.5304090563456L255.93698386666662,258.98759841918945L256.7341401333333,311.0452905697293L257.5312964,317.1360248819987L258.32845266666664,326.6035682847765L259.1256089333333,315.8486043718126L259.92276519999996,307.54642486572266L260.7199214666666,318.89001823849145L261.5170777333333,316.50538253360327L262.31423399999994,318.59300539652503L263.11139026666666,305.14089137607147L263.9085465333333,314.680527182685L264.7057028,309.43849093119303L265.50285906666664,288.2014455413818L266.3000153333333,313.42642040676543L267.09717159999997,319.14377979278566L267.89432786666663,310.0930591498481L268.6914841333333,294.3814947933621L269.48864039999995,317.7423051240709L270.28579666666667,294.372923473782L271.08295293333333,308.9755437978109L271.8801092,287.74269138760036L272.67726546666665,308.58730968051486L273.4744217333333,318.472585067749L274.271578,322.60242069668243L275.06873426666664,290.58159424675836L275.8658905333333,318.4922460513645L276.66304679999996,310.7937277730306L277.4602030666667,309.6322644339667L278.25735933333334,312.2605787277222L279.0545156,315.39217840830486L279.85167186666666,311.29566450330947L280.6488281333333,301.83979241265195L281.4459844,325.11393877665205L282.24314066666665,319.7347630098131L283.0402969333333,294.1004852634006L283.8374532,303.22328712463377L284.6346094666667,317.82643316904705L285.43176573333335,314.0990644582113L286.228922,300.8812683275011L287.0260782666667,319.571113764445L287.82323453333333,310.0266170416938L288.6203908,285.62506730821394L289.41754706666666,307.66227190653484L290.2147033333333,324.1061479801602L291.0118596,320.2841424094306L291.80901586666664,310.3286298200819L292.6061721333333,309.9214186350505L293.40332839999996,303.74794008890785L294.2004846666666,321.94545557657875L294.9976409333333,312.0215165710449L295.79479719999995,310.57686891343855L296.5919534666666,320.56919151730006L297.38910973333327,322.24003476460774L298.186266,321.21719701978896L298.98342226666665,297.59452200995554L299.7805785333333,323.60451565636527L300.5777348,318.79518243577746L301.37489106666663,303.6887142520481L302.1720473333333,315.48066881391736L302.96920359999996,306.41262656317815L303.7663598666666,309.44153020222984L304.56351613333334,326.60383993360733L305.3606724,316.664140502082L306.15782866666666,317.87748077816434L306.9549849333333,319.0401249906752L307.7521412,310.57468773312036L308.54929746666664,306.2893459320068L309.3464537333333,303.6864228142632L310.14360999999997,320.4654360453288L310.9407662666666,312.3570348358154L311.73792253333335,327.7271557871501L312.5350788,303.77970382690427L313.33223506666667,313.97067203521726L314.12939133333333,307.04426122877334L314.9265476,307.28768414815266L315.72370386666665,320.5160889646742L316.5208601333333,311.2137751642863L317.3180164,299.348839747111L318.11517266666664,299.23795908610026L318.9123289333333,324.6376880412631L319.70948519999996,303.2912025282118L320.5066414666666,328.21780870437624L321.3037977333333,321.7348574235704L322.10095399999994,319.246493411594L322.8981102666666,323.7017731285095L323.6952665333333,319.3300717671712L324.4924228,322.3047279336717L325.28957906666665,321.1206658087836L326.0867353333333,315.26250444200303L326.88389159999997,300.81323148091633L327.68104786666663,298.9443546379937L328.4782041333333,322.34984401067095L329.27536039999995,314.4651416185167L330.0725166666666,326.7427867126465L330.8696729333333,316.06384292602536L331.66682919999994,327.1218966250949L332.46398546666666,331.4453795199924L333.2611417333333,328.5172008705139L334.058298,302.65204159206814L334.85545426666664,301.9778954823812L335.6526105333333,314.318112487793L336.44976679999996,307.27753087361657L337.2469230666666,320.0774943500095L338.0440793333333,305.16830553690596L338.8412356,315.9064703665839L339.63839186666667,324.2543196339077L340.4355481333333,305.75964029947914L341.2327044,271.37393500434024L342.02986066666665,317.1636595577664" style="fill: none;" fill="none"></path></g></g></g></g></g><g><g opacity="0.813351"><span fill="rgb(0, 0, 0)" stroke="none" stroke-width="1px">Alt + Scroll to Zoom</span></g></g></g><g transform="translate(70, 377)" clip-path="url(#clip_1)"><clipPath id="clip_1"><rect width="373" height="23"></rect></clipPath><g><g><line x1="0" y1="0" x2="0" y2="5" style="visibility: inherit;" fill="rgb(0, 0, 0)" stroke="rgb(204, 204, 204)" stroke-width="1px"></line><line x1="31.138916666666663" y1="0" x2="31.138916666666663" y2="5" style="visibility: inherit;" fill="rgb(0, 0, 0)" stroke="rgb(204, 204, 204)" stroke-width="1px"></line><line x1="62.27783333333333" y1="0" x2="62.27783333333333" y2="5" style="visibility: inherit;" fill="rgb(0, 0, 0)" stroke="rgb(204, 204, 204)" stroke-width="1px"></line><line x1="93.41675" y1="0" x2="93.41675" y2="5" style="visibility: inherit;" fill="rgb(0, 0, 0)" stroke="rgb(204, 204, 204)" stroke-width="1px"></line><line x1="124.55566666666665" y1="0" x2="124.55566666666665" y2="5" style="visibility: inherit;" fill="rgb(0, 0, 0)" stroke="rgb(204, 204, 204)" stroke-width="1px"></line><line x1="155.69458333333333" y1="0" x2="155.69458333333333" y2="5" style="visibility: inherit;" fill="rgb(0, 0, 0)" stroke="rgb(204, 204, 204)" stroke-width="1px"></line><line x1="186.8335" y1="0" x2="186.8335" y2="5" style="visibility: inherit;" fill="rgb(0, 0, 0)" stroke="rgb(204, 204, 204)" stroke-width="1px"></line><line x1="217.97241666666667" y1="0" x2="217.97241666666667" y2="5" style="visibility: inherit;" fill="rgb(0, 0, 0)" stroke="rgb(204, 204, 204)" stroke-width="1px"></line><line x1="249.1113333333333" y1="0" x2="249.1113333333333" y2="5" style="visibility: inherit;" fill="rgb(0, 0, 0)" stroke="rgb(204, 204, 204)" stroke-width="1px"></line><line x1="280.25025" y1="0" x2="280.25025" y2="5" style="visibility: inherit;" fill="rgb(0, 0, 0)" stroke="rgb(204, 204, 204)" stroke-width="1px"></line><line x1="311.38916666666665" y1="0" x2="311.38916666666665" y2="5" style="visibility: inherit;" fill="rgb(0, 0, 0)" stroke="rgb(204, 204, 204)" stroke-width="1px"></line><line x1="342.5280833333333" y1="0" x2="342.5280833333333" y2="5" style="visibility: inherit;" fill="rgb(0, 0, 0)" stroke="rgb(204, 204, 204)" stroke-width="1px"></line><line x1="373.667" y1="0" x2="373.667" y2="5" style="visibility: inherit;" fill="rgb(0, 0, 0)" stroke="rgb(204, 204, 204)" stroke-width="1px"></line></g><g transform="translate(0, 8)"><text x="0" y="0" dx="0em" dy="0.95em" style="text-anchor: middle; visibility: hidden; font-family: Roboto, sans-serif; font-size: 12px; font-weight: 200;" fill="rgb(33, 33, 33)" stroke="none" stroke-width="1px">-20k</text><text x="31.138916666666663" y="0" dx="0em" dy="0.95em" style="text-anchor: middle; visibility: inherit; font-family: Roboto, sans-serif; font-size: 12px; font-weight: 200;" fill="rgb(33, 33, 33)" stroke="none" stroke-width="1px">0</text><text x="62.27783333333333" y="0" dx="0em" dy="0.95em" style="text-anchor: middle; visibility: hidden; font-family: Roboto, sans-serif; font-size: 12px; font-weight: 200;" fill="rgb(33, 33, 33)" stroke="none" stroke-width="1px">20k</text><text x="93.41675" y="0" dx="0em" dy="0.95em" style="text-anchor: middle; visibility: inherit; font-family: Roboto, sans-serif; font-size: 12px; font-weight: 200;" fill="rgb(33, 33, 33)" stroke="none" stroke-width="1px">40k</text><text x="124.55566666666665" y="0" dx="0em" dy="0.95em" style="text-anchor: middle; visibility: hidden; font-family: Roboto, sans-serif; font-size: 12px; font-weight: 200;" fill="rgb(33, 33, 33)" stroke="none" stroke-width="1px">60k</text><text x="155.69458333333333" y="0" dx="0em" dy="0.95em" style="text-anchor: middle; visibility: inherit; font-family: Roboto, sans-serif; font-size: 12px; font-weight: 200;" fill="rgb(33, 33, 33)" stroke="none" stroke-width="1px">80k</text><text x="186.8335" y="0" dx="0em" dy="0.95em" style="text-anchor: middle; visibility: hidden; font-family: Roboto, sans-serif; font-size: 12px; font-weight: 200;" fill="rgb(33, 33, 33)" stroke="none" stroke-width="1px">100k</text><text x="217.97241666666667" y="0" dx="0em" dy="0.95em" style="text-anchor: middle; visibility: inherit; font-family: Roboto, sans-serif; font-size: 12px; font-weight: 200;" fill="rgb(33, 33, 33)" stroke="none" stroke-width="1px">120k</text><text x="249.1113333333333" y="0" dx="0em" dy="0.95em" style="text-anchor: middle; visibility: hidden; font-family: Roboto, sans-serif; font-size: 12px; font-weight: 200;" fill="rgb(33, 33, 33)" stroke="none" stroke-width="1px">140k</text><text x="280.25025" y="0" dx="0em" dy="0.95em" style="text-anchor: middle; visibility: inherit; font-family: Roboto, sans-serif; font-size: 12px; font-weight: 200;" fill="rgb(33, 33, 33)" stroke="none" stroke-width="1px">160k</text><text x="311.38916666666665" y="0" dx="0em" dy="0.95em" style="text-anchor: middle; visibility: hidden; font-family: Roboto, sans-serif; font-size: 12px; font-weight: 200;" fill="rgb(33, 33, 33)" stroke="none" stroke-width="1px">180k</text><text x="342.5280833333333" y="0" dx="0em" dy="0.95em" style="text-anchor: middle; visibility: inherit; font-family: Roboto, sans-serif; font-size: 12px; font-weight: 200;" fill="rgb(33, 33, 33)" stroke="none" stroke-width="1px">200k</text><text x="373.667" y="0" dx="0em" dy="0.95em" style="text-anchor: middle; visibility: hidden; font-family: Roboto, sans-serif; font-size: 12px; font-weight: 200;" fill="rgb(33, 33, 33)" stroke="none" stroke-width="1px">220k</text></g><line x1="0" y1="0" x2="373.667" y2="0" fill="rgb(0, 0, 0)" stroke="rgb(204, 204, 204)" stroke-width="1px"></line></g></g></g></g></svg>