<svg viewBox="0 0 443.66668701171875 400" xmlns="http://www.w3.org/2000/svg"><g><g><g><g><g><line x1="50" y1="377" x2="45" y2="377" style="visibility: inherit;" fill="rgb(0, 0, 0)" stroke="rgb(204, 204, 204)" stroke-width="1px"></line><line x1="50" y1="345.5833333333333" x2="45" y2="345.5833333333333" style="visibility: inherit;" fill="rgb(0, 0, 0)" stroke="rgb(204, 204, 204)" stroke-width="1px"></line><line x1="50" y1="314.1666666666667" x2="45" y2="314.1666666666667" style="visibility: inherit;" fill="rgb(0, 0, 0)" stroke="rgb(204, 204, 204)" stroke-width="1px"></line><line x1="50" y1="282.75" x2="45" y2="282.75" style="visibility: inherit;" fill="rgb(0, 0, 0)" stroke="rgb(204, 204, 204)" stroke-width="1px"></line><line x1="50" y1="251.33333333333337" x2="45" y2="251.33333333333337" style="visibility: inherit;" fill="rgb(0, 0, 0)" stroke="rgb(204, 204, 204)" stroke-width="1px"></line><line x1="50" y1="219.91666666666663" x2="45" y2="219.91666666666663" style="visibility: inherit;" fill="rgb(0, 0, 0)" stroke="rgb(204, 204, 204)" stroke-width="1px"></line><line x1="50" y1="188.5" x2="45" y2="188.5" style="visibility: inherit;" fill="rgb(0, 0, 0)" stroke="rgb(204, 204, 204)" stroke-width="1px"></line><line x1="50" y1="157.08333333333331" x2="45" y2="157.08333333333331" style="visibility: inherit;" fill="rgb(0, 0, 0)" stroke="rgb(204, 204, 204)" stroke-width="1px"></line><line x1="50" y1="125.66666666666669" x2="45" y2="125.66666666666669" style="visibility: inherit;" fill="rgb(0, 0, 0)" stroke="rgb(204, 204, 204)" stroke-width="1px"></line><line x1="50" y1="94.25" x2="45" y2="94.25" style="visibility: inherit;" fill="rgb(0, 0, 0)" stroke="rgb(204, 204, 204)" stroke-width="1px"></line><line x1="50" y1="62.83333333333332" x2="45" y2="62.83333333333332" style="visibility: inherit;" fill="rgb(0, 0, 0)" stroke="rgb(204, 204, 204)" stroke-width="1px"></line><line x1="50" y1="31.416666666666682" x2="45" y2="31.416666666666682" style="visibility: inherit;" fill="rgb(0, 0, 0)" stroke="rgb(204, 204, 204)" stroke-width="1px"></line><line x1="50" y1="0" x2="45" y2="0" style="visibility: inherit;" fill="rgb(0, 0, 0)" stroke="rgb(204, 204, 204)" stroke-width="1px"></line></g><g transform="translate(40, 0)"><text x="0" y="377" dx="0em" dy="0.3em" style="text-anchor: end; visibility: hidden; font-family: Roboto, sans-serif; font-size: 12px; font-weight: 200;" fill="rgb(33, 33, 33)" stroke="none" stroke-width="1px">-400</text><text x="0" y="345.5833333333333" dx="0em" dy="0.3em" style="text-anchor: end; visibility: inherit; font-family: Roboto, sans-serif; font-size: 12px; font-weight: 200;" fill="rgb(33, 33, 33)" stroke="none" stroke-width="1px">-350</text><text x="0" y="314.1666666666667" dx="0em" dy="0.3em" style="text-anchor: end; visibility: inherit; font-family: Roboto, sans-serif; font-size: 12px; font-weight: 200;" fill="rgb(33, 33, 33)" stroke="none" stroke-width="1px">-300</text><text x="0" y="282.75" dx="0em" dy="0.3em" style="text-anchor: end; visibility: inherit; font-family: Roboto, sans-serif; font-size: 12px; font-weight: 200;" fill="rgb(33, 33, 33)" stroke="none" stroke-width="1px">-250</text><text x="0" y="251.33333333333337" dx="0em" dy="0.3em" style="text-anchor: end; visibility: inherit; font-family: Roboto, sans-serif; font-size: 12px; font-weight: 200;" fill="rgb(33, 33, 33)" stroke="none" stroke-width="1px">-200</text><text x="0" y="219.91666666666663" dx="0em" dy="0.3em" style="text-anchor: end; visibility: inherit; font-family: Roboto, sans-serif; font-size: 12px; font-weight: 200;" fill="rgb(33, 33, 33)" stroke="none" stroke-width="1px">-150</text><text x="0" y="188.5" dx="0em" dy="0.3em" style="text-anchor: end; visibility: inherit; font-family: Roboto, sans-serif; font-size: 12px; font-weight: 200;" fill="rgb(33, 33, 33)" stroke="none" stroke-width="1px">-100</text><text x="0" y="157.08333333333331" dx="0em" dy="0.3em" style="text-anchor: end; visibility: inherit; font-family: Roboto, sans-serif; font-size: 12px; font-weight: 200;" fill="rgb(33, 33, 33)" stroke="none" stroke-width="1px">-50</text><text x="0" y="125.66666666666669" dx="0em" dy="0.3em" style="text-anchor: end; visibility: inherit; font-family: Roboto, sans-serif; font-size: 12px; font-weight: 200;" fill="rgb(33, 33, 33)" stroke="none" stroke-width="1px">0</text><text x="0" y="94.25" dx="0em" dy="0.3em" style="text-anchor: end; visibility: inherit; font-family: Roboto, sans-serif; font-size: 12px; font-weight: 200;" fill="rgb(33, 33, 33)" stroke="none" stroke-width="1px">50</text><text x="0" y="62.83333333333332" dx="0em" dy="0.3em" style="text-anchor: end; visibility: inherit; font-family: Roboto, sans-serif; font-size: 12px; font-weight: 200;" fill="rgb(33, 33, 33)" stroke="none" stroke-width="1px">100</text><text x="0" y="31.416666666666682" dx="0em" dy="0.3em" style="text-anchor: end; visibility: inherit; font-family: Roboto, sans-serif; font-size: 12px; font-weight: 200;" fill="rgb(33, 33, 33)" stroke="none" stroke-width="1px">150</text><text x="0" y="0" dx="0em" dy="0.3em" style="text-anchor: end; visibility: hidden; font-family: Roboto, sans-serif; font-size: 12px; font-weight: 200;" fill="rgb(33, 33, 33)" stroke="none" stroke-width="1px">200</text></g><line x1="50" y1="0" x2="50" y2="377" fill="rgb(0, 0, 0)" stroke="rgb(204, 204, 204)" stroke-width="1px"></line></g></g><g transform="translate(50, 0)" clip-path="url(#clip_0)"><clipPath id="clip_0"><rect width="393" height="377"></rect></clipPath><g><g><g><line x1="0" y1="0" x2="0" y2="377" fill="rgb(0, 0, 0)" stroke="rgb(66, 66, 66)" stroke-width="1px" opacity="0.25"></line><line x1="32.80558333333333" y1="0" x2="32.80558333333333" y2="377" fill="rgb(0, 0, 0)" stroke="rgb(66, 66, 66)" stroke-width="1px" opacity="0.25"></line><line x1="65.61116666666666" y1="0" x2="65.61116666666666" y2="377" fill="rgb(0, 0, 0)" stroke="rgb(66, 66, 66)" stroke-width="1px" opacity="0.25"></line><line x1="98.41675" y1="0" x2="98.41675" y2="377" fill="rgb(0, 0, 0)" stroke="rgb(66, 66, 66)" stroke-width="1px" opacity="0.25"></line><line x1="131.22233333333332" y1="0" x2="131.22233333333332" y2="377" fill="rgb(0, 0, 0)" stroke="rgb(66, 66, 66)" stroke-width="1px" opacity="0.25"></line><line x1="164.02791666666667" y1="0" x2="164.02791666666667" y2="377" fill="rgb(0, 0, 0)" stroke="rgb(66, 66, 66)" stroke-width="1px" opacity="0.25"></line><line x1="196.8335" y1="0" x2="196.8335" y2="377" fill="rgb(0, 0, 0)" stroke="rgb(66, 66, 66)" stroke-width="1px" opacity="0.25"></line><line x1="229.63908333333333" y1="0" x2="229.63908333333333" y2="377" fill="rgb(0, 0, 0)" stroke="rgb(66, 66, 66)" stroke-width="1px" opacity="0.25"></line><line x1="262.44466666666665" y1="0" x2="262.44466666666665" y2="377" fill="rgb(0, 0, 0)" stroke="rgb(66, 66, 66)" stroke-width="1px" opacity="0.25"></line><line x1="295.25025" y1="0" x2="295.25025" y2="377" fill="rgb(0, 0, 0)" stroke="rgb(66, 66, 66)" stroke-width="1px" opacity="0.25"></line><line x1="328.05583333333334" y1="0" x2="328.05583333333334" y2="377" fill="rgb(0, 0, 0)" stroke="rgb(66, 66, 66)" stroke-width="1px" opacity="0.25"></line><line x1="360.8614166666666" y1="0" x2="360.8614166666666" y2="377" fill="rgb(0, 0, 0)" stroke="rgb(66, 66, 66)" stroke-width="1px" opacity="0.25"></line><line x1="393.667" y1="0" x2="393.667" y2="377" fill="rgb(0, 0, 0)" stroke="rgb(66, 66, 66)" stroke-width="1px" opacity="0.25"></line></g><g><line x1="0" y1="377" x2="393.667" y2="377" fill="rgb(0, 0, 0)" stroke="rgb(66, 66, 66)" stroke-width="1px" opacity="0.25"></line><line x1="0" y1="345.5833333333333" x2="393.667" y2="345.5833333333333" fill="rgb(0, 0, 0)" stroke="rgb(66, 66, 66)" stroke-width="1px" opacity="0.25"></line><line x1="0" y1="314.1666666666667" x2="393.667" y2="314.1666666666667" fill="rgb(0, 0, 0)" stroke="rgb(66, 66, 66)" stroke-width="1px" opacity="0.25"></line><line x1="0" y1="282.75" x2="393.667" y2="282.75" fill="rgb(0, 0, 0)" stroke="rgb(66, 66, 66)" stroke-width="1px" opacity="0.25"></line><line x1="0" y1="251.33333333333337" x2="393.667" y2="251.33333333333337" fill="rgb(0, 0, 0)" stroke="rgb(66, 66, 66)" stroke-width="1px" opacity="0.25"></line><line x1="0" y1="219.91666666666663" x2="393.667" y2="219.91666666666663" fill="rgb(0, 0, 0)" stroke="rgb(66, 66, 66)" stroke-width="1px" opacity="0.25"></line><line x1="0" y1="188.5" x2="393.667" y2="188.5" fill="rgb(0, 0, 0)" stroke="rgb(66, 66, 66)" stroke-width="1px" opacity="0.25"></line><line x1="0" y1="157.08333333333331" x2="393.667" y2="157.08333333333331" fill="rgb(0, 0, 0)" stroke="rgb(66, 66, 66)" stroke-width="1px" opacity="0.25"></line><line x1="0" y1="125.66666666666669" x2="393.667" y2="125.66666666666669" fill="rgb(0, 0, 0)" stroke="rgb(66, 66, 66)" stroke-width="1px" opacity="0.25"></line><line x1="0" y1="94.25" x2="393.667" y2="94.25" fill="rgb(0, 0, 0)" stroke="rgb(66, 66, 66)" stroke-width="1px" opacity="0.25"></line><line x1="0" y1="62.83333333333332" x2="393.667" y2="62.83333333333332" fill="rgb(0, 0, 0)" stroke="rgb(66, 66, 66)" stroke-width="1px" opacity="0.25"></line><line x1="0" y1="31.416666666666682" x2="393.667" y2="31.416666666666682" fill="rgb(0, 0, 0)" stroke="rgb(66, 66, 66)" stroke-width="1px" opacity="0.25"></line><line x1="0" y1="0" x2="393.667" y2="0" fill="rgb(0, 0, 0)" stroke="rgb(66, 66, 66)" stroke-width="1px" opacity="0.25"></line></g></g></g><g><g><line x1="0" y1="125.66666666666669" x2="393.667" y2="125.66666666666669" fill="rgb(0, 0, 0)" stroke="rgb(153, 153, 153)" stroke-width="1.5px"></line></g></g><g><g><line x1="32.80558333333333" y1="0" x2="32.80558333333333" y2="377" fill="rgb(0, 0, 0)" stroke="rgb(153, 153, 153)" stroke-width="1.5px"></line></g></g><g><g><g><g><g><path stroke="rgb(255, 112, 67)" stroke-width="2px" d="M33.04703242666667,200.59930923461914L33.07327689333333,199.0998948484479L33.08639912666667,263.953087472326L33.2648615,247.38023586592786L33.35934158,234.4271877190389L33.550926186666665,239.22876690333075L33.61128846,263.57289822315573L33.63490848,298.14126820040053L33.79762417333333,316.79718587716167L33.873733126666664,284.872175092447L33.889479806666664,292.6545703849929L34.02332658666666,267.5287698095021L34.09943554,282.6443241849556L34.11255777333333,274.0935038927188L34.267400126666665,242.12841339479613L34.31201572,239.2522755906121L34.34088463333333,245.72995992061703L34.44848694666666,241.55290797163053L34.55346481333333,253.01961638590114L34.63744710666666,274.2776480707814L34.80278724666666,266.1226880318163L34.8395295,252.09920309459628L34.84215394666666,260.95950603358824L34.91563845333333,249.21052076688315L35.086227486666665,230.78880930803763L35.08885193333333,230.81547435566912L35.12821863333333,219.76795877804474L35.214825373333326,269.1474492536137L35.25681652,248.18921454929838L35.388038853333335,245.3273010598249L35.41953221333333,246.8198660580813L35.430029999999995,242.1281090921277L35.495641166666665,244.37129776173302L35.60849237333333,233.0021891379632L35.63473684,228.74245254157978L35.76333472666666,220.82608227091018L35.87618593333333,210.74978012027015L36.07826832666667,254.76601693448805L36.12813281333333,274.4772058027685L36.22523734,265.9450406229268L36.31184408,245.7286065825376L36.372206353333326,244.65823133889944L36.42469528666666,238.49200998801595L36.42994418,230.07638517840792L36.51655091999999,245.3656741694814L36.529673153333334,230.90406111506405L36.63465102,227.67732556744014L36.81573784,252.14634950127547L36.894471239999994,232.58015430899576L36.90759347333333,235.55000922650325L36.97845353333333,220.6972418110342L37.0834314,206.1969016998411L37.117549206666666,220.23614014587272L37.20415594666667,218.9083018764182L37.288138239999995,210.04544747029897L37.390491659999995,205.5904617664894L37.43248280666666,209.9108543229399L37.563705139999996,198.6059485566783L37.574202926666665,208.1408007683274L37.778909766666665,220.35844208811736L37.81302757333333,216.62466172473484L37.85239427333333,213.46972448990513L37.93375212,207.98531341293346L38.004612179999995,210.7414517047932L38.05972556,206.92956167467085L38.085970026666665,189.12784710541186L38.14108340666666,185.75446955746938L38.15420564,183.01857903211894L38.274930186666666,180.2092628149664L38.34579024666667,200.82064925675581L38.37203471333333,194.66210421100925L38.38778139333333,222.25480966088966L38.56886821333333,213.62135336889745L38.60036157333333,203.94075321306138L38.63710382666666,225.69339773551536L38.76307726666666,212.01064313128188L38.79981951999999,201.26854249577815L38.91791962,201.18115549559977L38.99665302,200.73776438559204L39.140997586666664,194.49772049604843L39.16724205333333,214.72665782196148L39.31683551333333,212.44334987960863L39.40869114666666,234.9422995002517L39.50579567333333,215.0990373078957L39.52679124666667,212.46233748527544L39.65014024,206.20332733989778L39.6816336,205.97081442894716L39.74986921333333,198.0220991293159L39.88896488666666,228.3632138326814L39.94670271333333,221.0115387895554L39.959824946666664,201.95500769085L40.02018722,195.98562285547936L40.13041398,211.8194815917302L40.18290291333333,206.15921602249696L40.219645166666666,223.00850746086923L40.421727559999994,210.1125669092277L40.55557434,237.09459912989573L40.56869657333333,243.76223176451595L40.5870677,235.09011561733672L40.70254335333333,241.5657835723087L40.76028117999999,226.48880342509707L40.76553007333333,225.44143055668627L40.79702343333333,223.32634366228942L40.88363017333333,213.40747841905377L41.014852506666664,205.92186537948444L41.02272584666667,242.0488207645884L41.13295260666666,274.8438192229876L41.30354164,276.8159018526348L41.32716166,257.37325851285885L41.33765944666666,263.09394540898217L41.345532786666666,246.35447020272L41.54236628666666,253.81531499322773L41.59485522,257.43818287629847L41.67621306666666,251.36535140175815L41.82580652666667,222.20304488515984L41.85992433333333,220.38128332048515L41.86779767333333,208.53849899300218L42.022640026666664,202.67831996161033L42.064631173333325,178.57973264347996L42.08562674666666,201.4543365978632L42.10137342666666,200.57776215348736L42.21422463333333,207.95517259480468L42.26671356666667,201.6766607435848L42.298206926666666,211.49801422811268L42.32707584,227.2850931327016L42.46617151333333,221.25861984396357L42.47929374666666,220.6290374461584L42.48979153333333,213.05337105307456L42.67875169333333,211.49987249838347L42.79685179333333,226.17620774354685L42.84671628,224.90232686947058L43.00155863333333,223.666756836325L43.02780309999999,213.30356808745273L43.05929646,220.4936395418742L43.17477211333333,210.67331754413402L43.21151436666666,219.47324301322936L43.235134386666665,219.3170624683746L43.33223891333333,221.7463412918827L43.41359676,216.25068157055154L43.439841226666665,214.35798718917582L43.44771456666666,246.2443122559611L43.57631245333333,242.47398469978432L43.67866587333333,230.628089260508L43.828259333333335,239.95796353012474L43.91486607333333,239.04505507830496L43.9332372,236.1333369034571L43.951608326666666,229.97246288378557L44.182559633333334,244.3050325826927L44.21142854666666,229.92879220059058L44.26129303333333,237.15466318206796L44.263917479999996,229.23752995587168L44.45025319333333,210.86567405125254L44.48961989333333,237.00340466176442L44.57885107999999,250.09936522848784L44.71269786,228.55104136515465L44.74944011333333,244.21523320997844L44.77830902666666,231.78963692586294L44.85179353333333,228.47022016350934L44.93315138,221.0757255640132L44.996138099999996,254.2504154057008L45.25070942666667,230.00910997255383L45.297949466666665,222.50639297611355L45.49215852,203.74369298496646L45.51577854,196.3447012120315L45.58663859999999,220.24023151489396L45.775598759999994,235.42232515175886L45.80709212,239.92432563584455L45.898947753333324,233.30211408236292L46.07216123333333,244.06153181856266L46.09053236,240.08212364866037L46.127274613333334,230.23312081502286L46.2952392,237.0644421563314L46.337230346666665,239.2047070385678L46.39759262,231.09392574408693L46.48682380666666,219.87060894697578L46.578679439999995,209.71373763490664L46.61279724666666,224.81074458202124L46.61804614,227.30823654273652L46.78863517333333,221.60922358473562L46.83062631999999,209.2840585114352L46.87786636,214.8817885946673L47.009088693333325,219.2907659969862L47.02745982,205.1045343519234L47.203297746666664,203.47137248075285L47.226917766666666,197.1284326056358L47.28465559333333,206.25572142066406L47.44212239333333,209.90965932706797L47.49723577333333,204.21868541230214L47.51823134666667,214.76114678737306L47.612711426666664,210.2510416694875L47.71768929333333,199.97526400767768L47.72818708,197.06321914559092L47.73081152666666,190.25670524205538L47.86728275333333,195.70924104011436L47.990631746666665,191.14370660723498L48.11660518666666,188.6247577624654L48.12710297333333,185.07144095135357L48.221583053333326,189.51951690647604L48.22945639333333,214.20021177958586L48.30031645333333,205.12380637179677L48.36067872666666,214.40967014969442L48.4604077,207.3167318638166L48.49452550666666,214.30223516181312L48.58113224666666,218.6854024033979L48.59950337333333,230.72353541642616L48.76746796,228.04758153928663L48.830454679999995,224.05155824671328L48.85145025333333,220.14366084220913L48.88556806,213.97775084359452L49.045659306666664,200.5261325463443L49.06403043333333,197.40069215612007L49.09289934666666,198.48486169538958L49.17425719333333,180.9521577333447L49.30810397333333,199.50817403261541L49.52330859999999,232.83033251625255L49.53905528,225.97271315851893L49.58891976666666,217.30031717015214L49.665028719999995,212.53503561108317L49.76475769333332,211.22345323019468L49.848739986666665,207.9521756115642L49.85136443333332,226.2906399149841L49.95371785333333,216.87022847405976L50.10593576,221.74588853286355L50.17942026666667,225.40458732110915L50.27652479333334,209.37111050344723L50.43399159333333,224.45363356391874L50.5074761,221.25656664773834L50.552091693333324,213.89332142010346L50.72268072666666,204.47795327708135L50.79616523333333,201.81393372703204L51.006120966666664,201.3453208276127L51.01661875333333,197.31599987146612L51.06385879333334,192.6137590417186L51.195081126666665,185.4286507346211L51.281687866666665,181.04133578878083L51.292185653333334,186.99567288990312L51.36304571333333,186.31731751815255L51.53101029999999,184.40452499177442L51.58087478666667,183.289683885106L51.67010597333333,178.2809375221508L51.675354866666666,183.70006693272813L51.8459439,191.4137331076429L51.861690579999994,191.2502527837569L51.89843283333333,189.96926271502045L51.90105728,184.46358764315184L52.013908486666665,182.34628569693018L52.116261906666665,172.90584136001362L52.19237086,178.8409921862959L52.27635315333333,198.43436679962198L52.341964319999995,201.85368217103309L52.48368444,196.2938680880466L52.504680013333335,212.36443931966937L52.61490677333334,215.46880405262644L52.69888906666666,204.81235732145117L52.72250908666666,206.75555369809194L52.82223806,219.44575368408505L52.87472699333333,221.59685081504134L52.99545153999999,214.45555768754667L53.021696006666666,202.984607656012L53.02956934666666,202.03205611239235L53.09518051333333,195.43756263321114L53.16866502,187.7244513533767L53.273642886666664,180.23266071716495L53.344502946666665,184.183098963893L53.41536300666667,175.5222649018897L53.49672085333333,171.83165829137857L53.55708312666667,172.94807588067135L53.55970757333333,174.53368558190786L53.61219650666667,178.1903902634414L53.72767215999999,178.12657815539126L53.840523366666666,191.82931702505047L53.84314781333333,189.7492839968997L53.98749238,182.09026350976293L53.99274127333332,215.98145905648232L54.147583626666666,205.50288136522636L54.22369258,208.31474572136113L54.354914913333324,199.43158368304887L54.452019439999994,196.6940223063925L54.50450837333334,199.065888459206L54.55437286,200.45991365673092L54.727586339999995,201.03139090072196L54.79319750666666,186.78796275776645L54.80369529333333,207.5426175528361L54.82731531333333,195.49091764673503L55.06089106666666,197.007544231587L55.06351551333333,183.66073834623072L55.06613996,188.70169800531798L55.116004446666665,188.7460586236901L55.304964606666665,187.8586745308111L55.34170686,185.54526179319672L55.50442255333333,179.05192602276605L55.54903814666666,196.99607133955803L55.57003372,205.97733583061296L55.59365374,231.9571750481604L55.782613899999994,224.40883039561066L55.80623392,215.04696562031745L55.85084951333332,222.96814492124597L55.874469533333325,212.14031506080119L55.99519408,203.59261501383585L56.11329418,217.1973407430348L56.16315866666666,211.80718485459903L56.299629893333325,207.7488910131769L56.37311439999999,206.84963105001933L56.37836329333333,203.0359303096846L56.55157677333333,215.75904106245994L56.59356792,209.49928985981327L56.77727918666666,210.6806690092784L56.790401419999995,193.8071446744686L56.79565031333333,217.0124191615805L56.942619326666666,204.16881016772064L56.945243773333324,197.38960007622256L56.96886379333333,198.0778480965034L56.98198602666666,193.68446290539333L57.16832173999999,193.19959806725421L57.18931731333333,188.46927015672355L57.249679586666666,199.2447032170591L57.420268619999995,193.69997342567783L57.54886650666666,225.0286179138667L57.64334658666667,213.45117135526132L57.67746439333333,209.36867079030137L57.69845996666667,204.32577911642494L57.87167344666666,222.30632574054349L57.879546786666666,216.92776492365292L57.916289039999995,209.76814378582387L58.12362032666667,203.44098411670367L58.197104833333334,194.1802710961142L58.288960466666666,193.9862881924706L58.41755835333333,192.51976731668293L58.52778511333332,188.85485730374543L58.72199416666666,183.64035619928404L58.77448309999999,182.19771174844317L58.78498088666666,178.7054639744711L58.96081881333333,176.2730675162279L59.00280996,180.2637963086711L59.01855663999999,172.12547325916526L59.12353450666666,183.58246012862574L59.218014586666655,190.54811942920088L59.24425905333333,185.72703617451785L59.246883499999996,187.21646529964042L59.5224504,179.4906825150558L59.54082152666666,186.05282901417678L59.54869486666666,185.293418565789L59.56181709999999,232.7416267965231L59.73240613333333,227.50533897766226L59.742903919999996,211.93893537570887L59.86362846666666,227.33428159598793L59.90299516666666,214.39099519337074L59.98697745999999,203.8501149162977L60.015846373333325,196.38454539302688L60.17068872666666,208.6855290531438L60.23892433999999,209.25248226227401L60.34652665333333,205.19919054764856L60.37539556666667,203.92228546928908L60.44363118,208.94191983019488L60.490871219999995,200.77985521962972L60.716573633333326,204.89768929553188L60.721822526666664,204.45859442002416L60.79268258666666,206.30333668475544L60.86091819999999,194.0945414910709L60.89766045333332,187.2139501400864L61.00001387333333,189.59080399550376L61.047253913333336,200.9709684645614L61.09974284666666,204.43540022984402L61.19684737333333,211.60405758044317L61.233589626666664,202.6416100550821L61.45666759333333,189.87612133168173L61.561645459999994,197.84721549332812L61.632505519999995,184.86577602346452L61.70861447333333,178.89554102295025L61.80047010666666,172.61679357795487L61.95006356666666,168.04170677616708L61.989430266666666,170.24501363853446L62.07078811333333,198.41526932524712L62.12065259999999,191.06650584075226L62.1600193,198.6094121208565L62.288617186666656,190.95298462664587L62.34373056666666,181.46984220235925L62.49594847333333,197.19790249200594L62.595677446666656,194.2841767069128L62.600926339999994,204.3186348014041L62.666537506666664,203.31631944064426L62.94472885333333,209.39479838646193L62.973597766666664,210.61242006472668L62.99721778666667,216.367660233079L63.23866688,210.132395882975L63.24129132666666,220.09117261056295L63.27803357999999,226.91290477045365L63.511609333333325,224.57320164409947L63.540478246666666,217.79219423889543L63.60084052,208.0024191077666L63.77930289333333,230.44109789690262L63.80817180666666,210.2693736441997L63.83704072,192.05469240831252L63.8921541,194.23907736618173L64.11260761999999,219.2693430609934L64.13360319333333,231.42460566409915L64.15984766,225.20819619704935L64.22545882666667,214.44031536769208L64.35143226666666,219.82812652026627L64.40917009333333,218.59033329651564L64.44853679333332,205.47908390074988L64.51152351333333,207.6148796312691L64.72935258666666,196.87827146532118L64.82383266666666,199.05369808732576L64.85270158,198.0013086908988L65.0337884,198.36917109434094L65.14926405333333,218.2650109862889L65.25686636666667,200.51802793576124L65.44057763333333,206.23705338571952L65.44845097333334,214.92224796938712L65.47994433333334,225.14319219696858L65.73976455333333,206.15929197545785L65.75026233999999,190.59267900950226L65.89723135333332,198.09263841538578L65.91035358666666,205.59143416297835L66.12555821333333,224.64192883105105L66.16230046666666,226.0723218930441L66.18067159333333,215.50810031986586L66.22266274,196.60621752849843L66.30402058666667,193.59209116333363L66.50347853333332,222.31270805854763L66.61370529333333,233.3015348578946L66.83153436666666,222.5846149386552L66.83415881333333,247.45341040513574L66.94701002,242.14054551508087L67.30655921333333,230.04369483743318L67.37741927333333,234.45975495755272L67.41941041999999,225.87784399540124L67.74221736,226.46085778660262L67.81570186666667,207.60513326547425L67.86031746,199.051758834861L67.87606414,192.95302463258517L68.05977540666666,205.79205284063775L68.15950437999999,191.90133540912882L68.17262661333334,183.14661595006146L68.42719794,173.30572529917072L68.45081796,178.93182442683263L68.55054693333332,212.29486420111158L68.67652037333332,211.96320614953422L68.91272057333333,205.50817869329936L68.94158948666667,212.8446585315169L69.00720065333333,199.75635840845234L69.03082067333332,209.09586815702534L69.4034921,207.82344054579926L69.66331232,198.97666296849394L69.70267901999999,217.09626494858466L69.74467016666667,191.99070454634915L69.95200145333334,204.3430664854988L70.06747710666666,205.1624136588619L70.14621050666666,215.74820769616477L70.16720608,230.83238589596016L70.40078183333333,219.22843912321488L70.51363304,230.28592009961014L70.53725306,209.59638402301815L70.62123535333332,205.4957558217272L70.80757106666667,191.83895527473234L70.8206933,192.26257758472437L70.85743555333333,183.0155829939315L71.0175268,176.0647363096409L71.07264018,178.97719590880362L71.15924692,171.18181912872788L71.32983595333333,213.22624994505975L71.42169158666667,204.91485496923175L71.71300516666666,217.03038150024892L71.92033645333333,208.61280578491576L71.94658092,213.15482668364535L71.94920536666666,238.2307913386525L72.20115224666667,219.2911451322807L72.39273685333333,204.15693809533312L72.55282809999999,192.58811034106404L72.55545254666667,185.01329851802208L72.67355264666666,179.42834826316212L73.12495747333332,185.9327678916732L73.40314881999998,224.4122165737458L73.59735787333332,209.49786781137882L73.60523121333333,205.184107988186L73.66821793333334,194.4591831778939L73.92278926,210.33549510265055L74.01726934,188.55269420098804L74.23509841333333,180.47684561673773L74.33220293999999,171.10494555812497L74.74686551333333,168.16521706838884L74.81247667999999,142.886038983206L74.82297446666666,184.04795154129906L74.85971672,221.17948450439508L75.12478583333332,206.83307941322064L75.12741027999999,196.44868759220688L75.22451480666666,188.46981438190582L75.41609941333333,177.48770911945743L75.44759277333333,194.55987602673488L75.72578412,205.89355103178337L76.11945112,192.83859042233894L76.26642013333333,189.2592298348692L76.28741570666666,185.010438963441L76.59972486,170.21045613723956L76.68633159999999,164.9844798628495L76.83592506,174.34608647066796L76.8831651,165.31895666253183L76.93565403333332,166.25514394706914L77.14560976666667,164.82286146276084L77.158732,162.64633408975L77.30570101333333,165.2541543745186L77.53665231999999,161.3102136036258L77.58389236,160.78439255878735L77.71249024666666,174.12294114008853L77.81746811333333,173.06270067784422L78.07728833333333,165.790501590479L78.17176841333333,171.62826698146912L78.33448410666666,162.09019029117044L78.40534416666665,183.84580131074267L78.52869315999999,171.58138682209213L78.53394205333332,178.66353981853024L78.88036901333332,172.18677943597217L78.9302335,171.49537317212008L79.00634245333333,170.09996667202952L79.00896689999999,167.6533027789578L79.31340271333333,158.74179308930283L79.33439828666666,155.0507388495547L79.59421850666665,152.04445331948486L79.62308741999999,142.97328169077724L79.70706971333333,135.50858297659227L79.75168530666666,139.7145204651642L80.07449224666667,137.0099992681244L80.08236558666667,135.69434282146008L80.08761448,151.0929142131329L80.21621236666667,154.51552417392926L80.27657463999999,149.54824636107784L80.4655348,156.45709825553735L80.92743741333332,150.8067949915912L81.16626206,173.09433656909752L81.32110441333333,167.92749767392283L81.34997332666666,173.6730160483435L81.46544898,169.09029293831819L81.85649153333333,160.40373498968918L82.04807613999999,158.2179016994636L82.05332503333332,154.43090060714414L82.38138086666666,147.68140580237193L82.46798760666665,170.6380446915409L82.91676798666666,161.22589276195782L83.50989293333333,209.68008826471296L83.77233759999999,188.13980923206077L83.79070872666665,178.4821332832729L84.01378669333333,170.60604156811453L84.08464675333333,173.2150249139106L84.36283809999999,164.4170811934832L84.42320037333333,158.6157253288734L84.73550952666666,149.53922593866452L84.98745640666667,155.85747213208623L85.23940328666666,149.56993279072242L85.54383909999999,151.35198696568781L85.57795690666666,146.74171468376647L85.71442813333333,134.95623204149845L85.95850167333333,132.02974425559154L86.28130861333332,135.24572998117344L86.41253094666665,169.98356935478358L86.66185338,156.80219435636405L86.72746454666667,159.9163219710906L87.07389150666667,147.7419844160464L87.2366072,142.5699399188906L88.2601414,152.34569023923578L88.81389964666667,151.82954196005403L88.90050638666666,138.7356775671313L89.03697761333333,129.22181962936452L89.28630004666665,118.38420709739417L89.40964903999999,118.95041395285745L89.82956050666667,121.17393635710135L89.86630276,126.53984410942438L89.91879169333333,134.20191680758637L90.2678431,133.80816094857033L90.35969873333333,132.09575131078162L90.69562790666666,127.63189423532978L90.70875013999999,128.4520099618682L90.72712126666666,129.4245613539788L91.01056150666666,127.02979241942917L91.15490607333332,128.75140391479152L91.39635516666665,123.51795363905994L91.68241985333333,124.89454005071973L91.82151552666666,132.1688989340304L92.20993363333332,128.40613462540995L92.34115596666666,119.91015489343657L92.55898504,126.21710168507623L92.6298451,133.63862165199586L93.49328805333333,133.24667769355395L93.87908171333333,133.49152933787246L94.02605072666667,163.3430986188046L94.36460434666667,153.60433811069186L94.46433332,144.96863196473618L94.83438029999999,135.42435122642704L94.98922265333333,140.68062393037553L95.03908713999999,136.44824287605027L95.18343170666667,125.02880852958484L95.5036142,118.2101096924454L95.78705443999999,124.48007778459349L96.01275685333333,131.96058199837108L96.30407043333334,131.66749989627672L96.45891278666666,131.82776662649258L96.63999960666666,132.89675192812652L96.92606429333333,129.42778016532736L97.10452666666666,137.79232241051204L97.42995805333334,151.48664612634948L97.56642928,145.55833469860374L97.61366932,135.65967988027722L97.96796961999999,146.1359021069599L98.10968974,148.33915484872605L98.28290322,136.33596729806894L98.33539215333333,135.95023788395912L98.59783682,137.48489729571517L99.16734174666666,136.89876830704824L99.24869959333334,140.78792610665496L99.83657564666665,145.83839228435613L99.87856679333333,142.10630113720927L100.31160049333333,133.2873896638396L100.59241628666666,117.166310248522L100.95983882,114.35337792083475L101.37450139333332,117.13909134703168L101.65531718666665,135.53651512442767L102.03061306000001,138.3023999137545L102.15921094666666,134.0741006922659L102.46102231333333,116.4820160042715L103.03052724,123.69683911209886L103.11975842666666,123.36355428342264L103.24048297333333,132.6347029537045L103.99894806,111.21578890545992L104.37686837999999,122.00812081753918L104.64456193999999,128.90801164371746L105.11171344666666,138.56413220249678L105.12746012666665,130.35382104640735L105.65497390666665,111.23384537710548L105.78094734666665,111.33337485476426L106.53153909333332,119.99283600778486L107.73616011333333,103.2506835580552L107.75190679333332,94.43566644626064L111.02984067999999,92.68307893720737L111.39201431999999,110.76719286398173L112.98505344666667,122.50865440316419L113.65428734666666,105.50662369650242L114.01646098666664,86.28084374444927L114.69356822666666,105.9013042828908L115.03212184666666,123.23457996959665L115.62524679333332,120.29531339789563L116.70651882,129.99928515963458L117.31801489333333,119.9819417310879L118.24969345999999,134.1488692001239L119.26535432,125.023766501518L119.32046769999998,127.5826260207679L119.33096548666666,163.0044334710961L119.94246156,159.16539500718588L121.88980098666666,152.62434984497241L121.94491436666667,134.5689730483167L121.95541215333331,121.9554367286348L122.56690822666665,128.4649528915456L123.59831576666666,134.40072006457908L124.51424765333331,126.64260793175829L125.19135489333331,122.66812709573274L126.22276243333332,111.19274355137506L127.13869432,116.527652803818L127.1938077,113.85156088798176L127.81580156,113.60312453246502L128.8472091,120.64064862614927L129.76314098666666,125.39277020654482L129.81825436666665,132.93311769370501L130.44024822666665,114.05910999287009L132.44270103333332,125.4996559203259L133.06469489333332,112.94707216338814L134.09610243333333,103.59974575176773L135.01203432,113.29864599177198L135.0671477,100.67114664039218L135.68914156,111.49254233979502L137.63648098666664,123.92610362142045L137.69159436666666,136.43493447676687L138.31358822666664,134.5965250167578L139.34499576666664,146.3402140694986L140.26092765333334,153.9756274389127L140.3160410333333,154.14067158318792L140.93803489333334,158.1342737790773L141.9694424333333,157.2241843376627L142.94048769999998,147.84216876544687L143.56248155999998,140.46650821886243L144.59388909999998,147.20020337524173L145.50982098666665,150.90590941747865L145.56493436666668,154.04724168523785L146.18692822666665,158.26523725927197L147.21833576666666,155.39744481594806L148.13426765333332,158.34322421307465L148.18938103333332,146.20374646211738L148.81137489333332,148.1951219221101L150.75871432,145.42743359860887L150.8138277,147.0122735827943L151.43582156,151.6265344994617L153.38316098666667,164.9915005579698L153.43827436666666,172.99267936143497L154.06026822666666,180.1192842944269L155.09167576666667,178.41016722709458L156.0076076533333,180.26096004547273L156.06272103333333,174.99329232682L156.6847148933333,169.61157423716983L157.71612243333334,166.07299723812014L158.63205431999998,162.17753010586634L158.6871677,169.59149263753852L159.30916155999998,168.5635840871464L160.34056909999998,161.00137860670125L161.25650098666665,157.17129292389325L161.31161436666665,161.92269451485907L161.93360822666668,154.00877528128223L162.96501576666665,154.6698765181568L163.88094765333332,150.59261454994785L163.93606103333332,148.8649809918288L164.55805489333332,150.06385790181233L165.58946243333332,148.7734045441347L166.50539432,153.7718301751L167.18250156,151.59255530838115L168.2139091,151.89247885077592L169.18495436666666,152.5799803834989L169.80694822666666,146.7716342218989L171.7542876533333,144.8256398335028L172.4313948933333,145.54033702877217L173.4628024333333,144.58478060475747L174.43384769999997,143.25604515384174L175.05584156,145.87210852285236L177.00318098666665,141.03634827228396L177.05829436666664,138.0444736878666L177.68028822666665,137.51033220340116L178.71169576666665,134.9813276711372L179.16834948666667,149.93503014822832L179.62762765333332,136.17959125982148L181.05270219333332,121.60019549149752L181.7927961533333,120.85609887299184L182.25207432,111.4563068384201L184.41724281999998,106.42628288378376L184.87652098666666,101.63100245139248L185.55362822666666,102.11725837032147L185.63761051999998,121.54236404210836L187.04168948666666,116.92350135645063L187.50096765333333,120.07775513071019L188.17807489333333,106.1978512082997L188.26205718666665,108.5916726914706L189.66613615333333,104.55124817422862L190.12541431999998,99.42649796849285L190.88650385333332,92.50586818627919L191.00985284666666,114.23032811380853L192.45854740666667,93.79781695072298L193.51095052,89.04234367185607L193.63429951333333,86.95136384441926L194.78905604666664,79.08698008254964L195.7522279733333,83.7362285474301L196.13539718666664,82.76706036841017L196.25874617999997,90.09604099901028L197.41350271333332,91.64299605426734L197.48961166666666,74.33073903737595L198.00400321333333,61.035504844675316L198.54463922666667,59.93655558747081L199.73876246,96.8542685318782L200.12455612,114.3655223831776L200.62844987999998,112.3293276699369L202.738505,114.69091674464431L203.25289654666668,115.0096210396656L203.99036605999999,134.037423556308L205.13987369999998,119.24123422457143L205.8773432133333,116.86117062633589L206.61481272666666,112.66865384837855L207.99789612,104.79036394258998L208.50178988,98.46587154265745L209.2392593933333,102.12741962949973L209.74840204666665,126.81536883174984L209.76939761999998,120.82877574975198L211.85058382666665,98.49668565867869L211.86370605999997,99.55469955762707L213.1286893533333,114.65332532438006L213.16805605333334,107.67894580274222L214.48815272666667,102.20270473964953L214.56426168,115.30419359499251L215.79250272,106.54435603173044L216.17567193333332,89.39817182068742L216.39874989999998,79.4831917360662L217.18870834666666,82.45411507793081L218.01803349333335,108.90976664990123L218.41694938666666,106.49758596111486L218.80011859999996,99.74225527185355L219.59270149333335,112.73373473262187L219.81315501333333,107.18450355792544L220.36428881333333,128.9354042530956L221.01252714,143.380033236381L221.24872733999996,146.45881872583604L222.21714815999997,129.77456675189907L222.52683286666667,134.9170802437724L222.55570177999996,144.4587194404672L222.77615529999997,121.4450898667961L224.2379720933333,144.03949569744668L224.45317672,126.27582373994714L224.84159482666666,112.34974220446924L225.66829552666667,135.6423109479552L225.82313788,146.5470395632438L226.62096966666664,123.06195391328012L227.1668545733333,138.44911662997671L228.02504863333334,124.89482420762995L228.2927421933333,116.01552317575286L228.76514259333334,137.77517683720498L229.24541633333334,124.9041078978627L230.28732166,138.67733116680435L230.64949529999998,127.32985019476693L230.91718885999998,117.47300295863081L231.86986299999998,113.23960864016094L233.27394196666665,106.32589973754283L234.49430966666665,97.42223533251497L235.53359054666666,88.03486664140769L235.53621499333332,85.54320970093661L235.6385684133333,78.10565658767767L237.32083872666664,101.35547583768972L237.4258165933333,117.97007671843127L237.93495924666664,94.95085695713084L238.26301507999997,90.65059069476807L239.45188942,112.25084449992313L239.94528539333334,104.09823110827168L240.05026325999998,101.42353802601453L242.04746717333333,87.62541964317923L242.07633608666663,90.03172964048613L242.81643004666662,110.05497345926457L243.9370687733333,123.1532028164068L244.27299794666664,140.00833141524944L244.67191383999997,128.86977701108762L245.68757469999997,107.03849567124887L245.8739104133333,122.38002087640888L247.29636050666664,107.85233948667623L247.56405406666667,129.24346410911713L248.31202136666667,118.18340904128837L248.49835708,112.85169550394755L249.56388242666665,138.0441647792892L249.92080717333334,125.22518806551173L250.9364680333333,113.79602786326062L251.57683301999998,100.03074948662493L253.56091469999998,98.19115426712253L253.74725041333332,98.3782388671586L253.8181104733333,89.69928931003663L254.03593954666667,90.89955572065959L255.31142062666666,105.03182153654404L256.37169708,101.38353246652838L256.44255713999996,98.94521663256938L257.02780874666666,121.34908748010821L257.78102493999995,111.5311004973334L258.99614374666663,103.07966157633767L259.06700380666666,100.21377837235744L259.45279746666665,81.16111787646821L261.2741634533333,61.49830772820567L261.46049916666664,73.15388450255621L261.62059041333333,70.46188918483335L261.6914504733333,75.01945771040498L262.99055157333333,101.6181792722613L263.11127611999996,88.0630391839303L264.24503708,82.76158993725774L264.44187058,102.25991858180807L265.43391141999996,113.66784819450079L265.61499824,97.54550481641924L267.06631724666664,86.54590503499034L268.05835808666666,85.33932284551358L268.1239692533333,72.37735561405513L268.2394449066667,75.80082767512914L268.5543785066667,97.94936975880617L270.8638915733333,92.97196036300618L272.11312818666664,77.31350151528898L272.52254186666664,75.64420942432469L272.82697767999997,68.18430957508444L273.78227626666666,96.74658702938348L273.78490071333334,81.80368824682365L274.02372536,103.01888537654594L275.3516953733333,95.85408051068661L276.40934738,88.72898018287282L276.64817202666666,85.36402781679095L277.97614203999996,83.40477530091736L277.97876648666664,101.04315846148526L278.93406507333333,84.8132108128089L280.3565151666666,104.19424289717811L280.45624414,94.30943423320305L280.60058870666666,93.82679227217812L282.18837894,78.82878500283196L282.38521244,65.93883924863665L283.22765982,67.60637535459863L283.5478423133333,93.82277078219023L283.9336359733333,84.37273464578293L285.03065468,111.57329241465736L285.09101695333334,130.8392594189775L285.22486373333334,100.81979158957522L285.8521064866667,88.58606916239847L286.49247147333335,108.18506903009764L287.03835638,116.06723684092594L287.65510134666664,102.15091890779516L287.7312103,120.42483230241942L289.1851537533333,96.76029626810046L289.2455160266666,79.29140109149075L289.6628030466667,76.63797758588063L290.3556569666667,75.65009399249098L291.80960042,73.31772602413687L291.87521158666664,97.84507113747489L292.2872497133333,91.80271033889497L292.98010363333333,84.8096331424723L294.4340470866666,81.59006322929456L294.49965825333334,83.25866202063347L294.52852716666666,73.0156178768924L294.91169637999997,72.00123434473902L296.36039094,93.32790739368862L297.0584937533333,89.35609016729909L297.12410492,90.58793901603892L297.1529738333333,83.58447443893273L299.68294042,85.59391725449706L299.7485515866667,83.27121139686506L299.77742049999995,88.40818549010866L301.31009735333333,110.94844000629604L301.43869523999996,94.92895794116195L302.40186716666665,94.50124572601797L303.78495055999997,89.64043828314574L304.06314190666666,85.98209646188997L305.02631383333335,87.24454323779419L305.15491172,105.28463046387299L305.4724697666667,120.14657358064407L307.6507605,108.19120275722702L307.70062498666664,124.48260993289483L308.0969164333333,115.62467908885606L309.36714861999997,114.13089999562264L309.8211778933333,100.11201846017417L310.01276249999995,83.03898232685154L310.92606994,103.75192472514543L311.99159528666667,96.45704640011931L312.44562456,92.37658775920784L312.63720916666665,98.81417858954555L313.55051660666663,96.3123786546904L313.9940480933333,83.20979973313109L315.07007122666664,81.8877698247675L315.2616558333333,86.93217376036581L315.75505180666664,76.65332072242879L315.90202081999996,63.044630841331006L316.71822373333333,92.3712498135571L316.8966861066666,115.25828757497821L318.2797695,94.65773129624124L318.34275622,79.32586355369801L318.3794984733333,85.22055440719478L319.5211327733333,89.95282401365262L319.76783076,115.6443089945166L321.00394514,109.35307535310555L321.24276978666666,131.0185874941903L321.2821364866667,107.03156110251824L322.86205337999996,99.21074563286018L323.26621816666665,79.40011044928428L323.6283918066666,83.27707056560156L323.86721645333336,83.75436672372925L325.70695356666664,75.86241907014164L326.2528384733333,83.64046262660844L326.72261442666667,99.33934139724781L326.89320346,125.20767579857824L328.3314002333333,111.77526947422902L328.67257829999994,90.11953061828514L328.87728513999997,92.41316093804856L329.3470610933333,87.36739365202826L330.21837738666665,109.71341969434032L330.5201887533333,99.65065096965176L330.54643322,117.37285846374196L331.29702496666664,108.44671201374274L332.8428240533333,98.82426472602552L333.1708798866666,93.63730622779013L333.9214716333333,90.62426942623576L334.5670855133333,82.18586284255241L335.7953265533333,80.43180960860646L336.5459183,82.15427687419619L336.81623630666667,80.41257890034123L337.2571433466666,101.81351376369783L337.8109015933333,86.32205702046895L337.8843861,102.37443173307837L338.0523506866666,123.05296225776456L339.8815900133333,107.94174386961203L339.9262056066666,92.94728093477718L340.22539252666667,71.75354236052831L341.40376907999996,59.723050738923405L341.702956,92.24842338335911L341.80530942,71.90502591075726L342.8052236,93.86147791361107L343.40359744,77.42843211327018L343.86025115999996,71.5691674209779L344.02821574666666,77.9576259801776L344.0360890866666,100.79382392486662L345.1409811333333,122.51725235904608L345.58451261999994,100.3270518929727L346.6526624133333,93.2816755427852L346.6605357533333,89.52227297306362L346.96497156666663,106.05397021618118L349.27710908,102.01665952433189L349.69964499333327,80.59016253243753L350.38987446666664,82.40601882341963L351.39503754,74.70217073219054L352.32409165999997,77.12347996581536L353.01432113333334,85.6508209191918L353.62319275999994,85.94298736599303L354.0194842066667,88.31821262227577L354.07459758666664,103.84162548575183L354.93804054,117.56693128134181L356.6439308733333,111.06340548744285L356.6990442533333,104.68149087736573L357.5624872066667,94.3485986826427L358.1057476666666,113.01623327761702L358.1556121533333,130.25644277194598L358.9062039,147.4070406381487L359.1397796533333,150.03035434416046L359.74865128,152.0206983069941" style="fill: none;" fill="none"></path></g></g></g></g><g opacity="0.2"><g><g><g><path stroke="rgb(255, 112, 67)" stroke-width="2px" d="M33.04703242666667,200.59930923461914L33.07327689333333,197.9603399149577L33.08639912666667,350.7007179260254L33.2648615,217.93730545043945L33.35934158,207.09369453430173L33.550926186666665,250.57850112915037L33.61128846,325.8074582417806L33.63490848,391.57619049072264L33.79762417333333,369.29877482096356L33.873733126666664,192.3280721282959L33.889479806666664,315.71447057088216L34.02332658666666,191.85124693552655L34.09943554,328.7328285217285L34.11255777333333,247.78007074991865L34.267400126666665,143.07667059580487L34.31201572,230.2929680887858L34.34088463333333,265.9885065205892L34.44848694666666,228.45011520385742L34.55346481333333,289.0710317993164L34.63744710666666,341.2286619567871L34.80278724666666,240.40538024902344L34.8395295,207.83099100748697L34.84215394666666,288.95015126546224L34.91563845333333,212.0729025522868L35.086227486666665,172.53382718404134L35.08885193333333,230.89982518513997L35.12821863333333,184.81202196756996L35.214825373333326,425.4211867777507L35.25681652,181.85200208028158L35.388038853333335,236.26774350484212L35.41953221333333,251.545066019694L35.430029999999995,227.2738789621989L35.495641166666665,251.47363835652672L35.60849237333333,197.00421113332112L35.63473684,215.25448242187503L35.76333472666666,195.75926531473797L35.87618593333333,178.84312375386554L36.07826832666667,394.14534286499025L36.12813281333333,336.89412455240887L36.22523734,238.9271248372396L36.31184408,181.71099236806236L36.372206353333326,241.26875373840332L36.42469528666666,218.96583503723144L36.42994418,203.42710645039875L36.51655091999999,293.7814800516764L36.529673153333334,185.10915145874026L36.63465102,217.4593633015951L36.81573784,329.6313981119792L36.894471239999994,170.62065400441486L36.90759347333333,244.95453620910644L36.97845353333333,173.66352998097736L37.0834314,160.27919633865358L37.117549206666666,264.69370035807293L37.20415594666667,214.70348271687826L37.288138239999995,181.97975213368733L37.390491659999995,191.48301096598306L37.43248280666666,223.592094523112L37.563705139999996,162.80708605448405L37.574202926666665,238.33449574788412L37.778909766666665,259.0476360066732L37.81302757333333,204.80102474212643L37.85239427333333,203.47909044901527L37.93375212,190.61801237742108L38.004612179999995,219.46922269185384L38.05972556,194.85857686360677L38.085970026666665,132.75575197855633L38.14108340666666,175.07210746765136L38.15420564,174.35492579142254L38.274930186666666,171.3130948638916L38.34579024666667,266.0900392659505L38.37203471333333,175.1600449879964L38.38778139333333,309.63170995076496L38.56886821333333,186.28207518259683L38.60036157333333,173.28551944732666L38.63710382666666,294.57677195231116L38.76307726666666,168.68192026774088L38.79981951999999,167.2518905131022L38.91791962,200.90442999521892L38.99665302,199.33369253794353L39.140997586666664,174.73758152008057L39.16724205333333,278.78495933532713L39.31683551333333,205.2128747304281L39.40869114666666,306.1889732869466L39.50579567333333,152.26204037348427L39.52679124666667,204.1127880477905L39.65014024,186.38312854766843L39.6816336,205.23452354431151L39.74986921333333,172.8511673482259L39.88896488666666,324.4434103902181L39.94670271333333,197.7312344868978L39.959824946666664,141.60932587941488L40.02018722,177.0825708770752L40.13041398,261.96003425598144L40.18290291333333,188.23504172007245L40.219645166666666,276.36459701538087L40.421727559999994,169.27542182922363L40.55557434,322.53770116170244L40.56869657333333,264.87640177408855L40.5870677,207.62841448465983L40.70254335333333,262.07206542968754L40.76028117999999,178.74503295898435L40.76553007333333,222.124749806722L40.79702343333333,216.62856849670408L40.88363017333333,181.9977384821574L41.014852506666664,182.2174240875244L41.02272584666667,356.45084615071613L41.13295260666666,378.69464767456054L41.30354164,283.06083017985026L41.32716166,195.80488793691L41.33765944666666,281.2094539133708L41.345532786666666,193.34613204956054L41.54236628666666,277.4413234965006L41.59485522,268.9105978393555L41.67621306666666,232.13471839904784L41.82580652666667,129.85574091593426L41.85992433333333,214.61237169901528L41.86779767333333,171.03634862263996L42.022640026666664,184.121086362203L42.064631173333325,102.26753946940102L42.08562674666666,273.8905824534098L42.10137342666666,197.80194307963052L42.21422463333333,231.3169723256429L42.26671356666667,181.79470654805502L42.298206926666666,242.59896692911784L42.32707584,277.27750966389976L42.46617151333333,202.17478776295982L42.47929374666666,218.63535985310872L42.48979153333333,189.0637608083089L42.67875169333333,206.58046040852867L42.79685179333333,272.6512693532308L42.84671628,220.86837076822914L43.00155863333333,219.7541183980306L43.02780309999999,180.48680371602376L43.05929646,243.26219914754233L43.17477211333333,179.57563121795656L43.21151436666666,247.3396736653646L43.235134386666665,218.82249074300128L43.33223891333333,229.43905756632486L43.41359676,198.8477591196696L43.439841226666665,208.36445498148598L43.44771456666666,347.2176749674479L43.57631245333333,230.53461410522462L43.67866587333333,193.11608703613283L43.828259333333335,269.50256538391113L43.91486607333333,236.15417831420902L43.9332372,226.91289601643882L43.951608326666666,210.46302848815918L44.182559633333334,289.6915032958984L44.21142854666666,184.40403099060057L44.26129303333333,260.0365879567464L44.263917479999996,204.16660807291666L44.45025319333333,152.68813035329183L44.48961989333333,319.7728849283854L44.57885107999999,291.56990702311197L44.71269786,160.3146824645996L44.74944011333333,293.8185073852539L44.77830902666666,192.44191535949705L44.85179353333333,217.95873374938964L44.93315138,197.65982599894204L44.996138099999996,359.30359990437825L45.25070942666667,153.24497610092163L45.297949466666665,198.74778915405273L45.49215852,144.32847634633382L45.51577854,172.91456059773762L45.58663859999999,295.9094108072917L45.775598759999994,283.49895500183106L45.80709212,254.18066050211587L45.898947753333324,212.33177749633788L46.07216123333333,278.1330213165283L46.09053236,227.48066444396972L46.127274613333334,199.04461184183756L46.2952392,258.6969597371419L46.337230346666665,245.98221249898276L46.39759262,205.4097849782308L46.48682380666666,184.33010575612386L46.578679439999995,177.55031181335448L46.61279724666666,272.61793324788414L46.61804614,235.2169610850016L46.78863517333333,203.56234921773273L46.83062631999999,170.25436911265055L46.87786636,232.6079338582357L47.009088693333325,233.2525277709961L47.02745982,160.1814674758911L47.203297746666664,198.29969322204593L47.226917766666666,177.04245633443196L47.28465559333333,235.15880266825354L47.44212239333333,221.480462697347L47.49723577333333,186.1972680155436L47.51823134666667,248.145607808431L47.612711426666664,195.96904212951657L47.71768929333333,167.4353014119466L47.72818708,187.84174374898274L47.73081152666666,168.70274454752604L47.86728275333333,212.97560440063475L47.990631746666665,176.68618090311685L48.11660518666666,180.648086420695L48.12710297333333,173.8192710494995L48.221583053333326,203.6050907643636L48.22945639333333,292.3557455444336L48.30031645333333,176.38185591379803L48.36067872666666,243.81490544637046L48.4604077,184.85576062520343L48.49452550666666,236.42299560546877L48.58113224666666,232.56543200174968L48.59950337333333,268.8442899576823L48.76746796,219.5737275950114L48.830454679999995,211.39748448689778L48.85145025333333,207.76865239461264L48.88556806,194.45236918131513L49.045659306666664,157.92934127171836L49.06403043333333,187.50346425374352L49.09289934666666,201.91806523640952L49.17425719333333,125.43192852020262L49.30810397333333,258.2688923136393L49.52330859999999,338.3505010477702L49.53905528,204.25691852569582L49.58891976666666,189.83772987365722L49.665028719999995,197.44497734069824L49.76475769333332,207.07010902404787L49.848739986666665,197.5931298192342L49.85136443333332,284.3624435424805L49.95371785333333,187.0389255777995L50.10593576,237.1854787190755L50.17942026666667,236.99046681722007L50.27652479333334,158.59843391418457L50.43399159333333,272.2149565887451L50.5074761,211.13252141316732L50.552091693333324,190.57637819925944L50.72268072666666,174.66262082417805L50.79616523333333,193.37787181854245L51.006120966666664,199.8613799794515L51.01661875333333,184.5564835103353L51.06385879333334,177.7233297475179L51.195081126666665,162.675807762146L51.281687866666665,167.1481717936198L51.292185653333334,205.85107371012373L51.36304571333333,184.1691921742757L51.53101029999999,178.3473486582438L51.58087478666667,179.75935371398927L51.67010597333333,162.41990737279255L51.675354866666666,200.86064339955647L51.8459439,215.8403426615397L51.861690579999994,190.73256509145102L51.89843283333333,185.9127941640218L51.90105728,167.02894991556806L52.013908486666665,175.64149620056153L52.116261906666665,143.01110095977782L52.19237086,197.6356364695231L52.27635315333333,260.4800530751546L52.341964319999995,212.6815141805013L52.48368444,178.6877901585897L52.504680013333335,263.2545815531413L52.61490677333334,225.29929237365724L52.69888906666666,171.06694267272948L52.72250908666666,212.90900889078776L52.82223806,259.6313869730631L52.87472699333333,228.408658396403L52.99545153999999,191.8414627838135L53.021696006666666,166.65993255615234L53.02956934666666,199.01564289093017L53.09518051333333,174.55499994913737L53.16866502,163.2995989672343L53.273642886666664,156.50865703582764L53.344502946666665,196.69282007853192L53.41536300666667,148.09629037221274L53.49672085333333,160.1447373580933L53.55708312666667,176.48339824676515L53.55970757333333,179.55478296915692L53.61219650666667,189.76995508829754L53.72767215999999,177.9245064798991L53.840523366666666,235.22132344563803L53.84314781333333,183.16251274108885L53.98749238,157.83669863382977L53.99274127333332,323.30357828776044L54.147583626666666,172.3207186762492L54.22369258,217.21898284912112L54.354914913333324,171.3015705617269L54.452019439999994,188.0250779469808L54.50450837333334,206.57679794311522L54.55437286,204.87432678222658L54.727586339999995,202.84106884002688L54.79319750666666,141.6837736384074L54.80369529333333,273.26569107055667L54.82731531333333,157.32720127741496L55.06089106666666,201.8101950836182L55.06351551333333,141.39585304260254L55.06613996,204.66473692576088L55.116004446666665,188.8865339152018L55.304964606666665,185.048624903361L55.34170686,178.21945479075114L55.50442255333333,158.48969608306885L55.54903814666666,253.81919817606607L55.57003372,234.41800671895348L55.59365374,314.2266659037272L55.782613899999994,200.50573899586996L55.80623392,185.4010604985555L55.85084951333332,248.05187937418623L55.874469533333325,177.85218716939292L55.99519408,176.52489819844564L56.11329418,260.27897221883137L56.16315866666666,194.7383578745524L56.299629893333325,194.8976271820068L56.37311439999999,204.00197450002034L56.37836329333333,190.9592112986247L56.55157677333333,256.0488917795817L56.59356792,189.6767443847656L56.77727918666666,214.42170298258463L56.790401419999995,140.37431761423744L56.79565031333333,290.4957883707682L56.942619326666666,163.4973816871643L56.945243773333324,175.92210145314536L56.96886379333333,200.25730016072592L56.98198602666666,179.77207646687825L57.16832173999999,191.6641927464803L57.18931731333333,173.4898984400431L57.249679586666666,233.36690790812173L57.420268619999995,176.14166241963702L57.54886650666666,324.23599212646485L57.64334658666667,176.78925725301107L57.67746439333333,196.4407523345947L57.69845996666667,188.3566221491496L57.87167344666666,279.2447233835856L57.879546786666666,199.89565567016604L57.916289039999995,187.09601018269856L58.12362032666667,183.4049784978231L58.197104833333334,164.85467986424763L58.288960466666666,193.37200899759927L58.41755835333333,187.8757845433553L58.52778511333332,177.24930892944337L58.72199416666666,167.12776936848957L58.77448309999999,177.62933765411378L58.78498088666666,167.64667935689292L58.96081881333333,168.57047873179118L59.00280996,192.90110415140785L59.01855663999999,146.35411693573L59.12353450666666,219.86291854858402L59.218014586666655,212.6060405476888L59.24425905333333,170.46027253468833L59.246883499999996,191.93299086252847L59.5224504,155.0257036972046L59.54082152666666,206.83295959472656L59.54869486666666,182.88861881256105L59.56181709999999,382.9942861938477L59.73240613333333,210.92376088460284L59.742903919999996,162.6453239695231L59.86362846666666,276.0862112935384L59.90299516666666,173.403921585083L59.98697745999999,170.47066070556642L60.015846373333325,172.7435752360026L60.17068872666666,247.6386439768473L60.23892433999999,211.04783409118656L60.34652665333333,192.363766784668L60.37539556666667,199.8787527211507L60.44363118,224.8374286397298L60.490871219999995,174.93331728617352L60.716573633333326,217.93749720255533L60.721822526666664,203.06812731424964L60.79268258666666,212.1450205230713L60.86091819999999,155.43335671106976L60.89766045333332,165.42541086196903L61.00001387333333,197.11750787099203L61.047253913333336,237.00815594991047L61.09974284666666,215.4061008199056L61.19684737333333,234.3048058573405L61.233589626666664,174.26052622477212L61.45666759333333,149.45207370758055L61.561645459999994,223.08901367187502L61.632505519999995,143.7578843688965L61.70861447333333,159.98979685465494L61.80047010666666,152.73409333546957L61.95006356666666,153.5539319038391L61.989430266666666,177.22215203603108L62.07078811333333,287.6210789998372L62.12065259999999,167.79542147318523L62.1600193,222.49528200785318L62.288617186666656,166.70763089497885L62.34373056666666,151.43989119211832L62.49594847333333,247.0034267425537L62.595677446666656,185.0573783874512L62.600926339999994,236.09441876729332L62.666537506666664,200.14232079823813L62.94472885333333,228.64331504821777L62.973597766666664,214.46822204589841L62.99721778666667,234.5925874328613L63.23866688,190.38739210764567L63.24129132666666,251.62729891459148L63.27803357999999,248.51505661010742L63.511609333333325,217.16414174397786L63.540478246666666,196.31900412241617L63.60084052,177.00146452585858L63.77930289333333,301.49691406249997L63.80817180666666,146.3922468439738L63.83704072,134.3748684946696L63.8921541,201.1562963994344L64.11260761999999,298.5318510945638L64.13360319333333,269.91627057393396L64.15984766,205.5228995513916L64.22545882666667,180.34202607472736L64.35143226666666,236.88952850341798L64.40917009333333,214.67065475463866L64.44853679333332,163.96012748082478L64.51152351333333,214.37823277791344L64.72935258666666,162.87901227315268L64.82383266666666,205.9425490570068L64.85270158,194.6687422688802L65.0337884,199.53406870524088L65.14926405333333,281.26850397745767L65.25686636666667,144.31924827575685L65.44057763333333,224.34730064392093L65.44845097333334,242.425364151001L65.47994433333334,257.5095155843099L65.73976455333333,146.04360794067384L65.75026233999999,141.29840461730956L65.89723135333332,221.84250986735026L65.91035358666666,229.33762069702146L66.12555821333333,284.96849527994794L66.16230046666666,230.60189992268883L66.18067159333333,182.05473200480145L66.22266274,136.75025535583495L66.30402058666667,184.04735767364505L66.50347853333332,313.26132822672525L66.61370529333333,268.0994863891602L66.83153436666666,188.64770186106364L66.83415881333333,326.2045960489909L66.94701002,225.31647336324056L67.30655921333333,191.737001024882L67.37741927333333,248.44394533793132L67.41941041999999,198.7017926152547L67.74221736,228.3070681254069L67.81570186666667,147.8953389485677L67.86031746,171.96607313791912L67.87606414,173.6403663253784L68.05977540666666,246.44897549947103L68.15950437999999,147.91406354268392L68.17262661333334,155.42333766301473L68.42719794,142.14290490468343L68.45081796,196.74780499776205L68.55054693333332,317.9444901529948L68.67652037333332,210.91295565287274L68.91272057333333,185.06725841522217L68.94158948666667,236.07684468587237L69.00720065333333,158.31007468541463L69.03082067333332,238.67098236083984L69.4034921,203.79408644358318L69.66331232,170.96186730702718L69.70267901999999,274.4750045522054L69.74467016666667,112.48976327260337L69.95200145333334,243.45887929280602L70.06747710666666,207.75701304117837L70.14621050666666,249.26988881429037L70.16720608,278.5989501953125L70.40078183333333,182.48260767618814L70.51363304,265.3012765248617L70.53725306,144.07951978047691L70.62123535333332,192.51043318430584L70.80757106666667,148.59242020924884L70.8206933,193.60404823303222L70.85743555333333,153.7334334564209L71.0175268,154.05372180938718L71.07264018,188.19998463948568L71.15924692,146.4964593251546L71.32983595333333,346.3669475301107L71.42169158666667,178.59543754577638L71.71300516666666,255.39621551513673L71.92033645333333,181.95714935302735L71.94658092,227.53789286295572L71.94920536666666,317.6380127461751L72.20115224666667,159.31559881210327L72.39273685333333,156.2319491449992L72.55282809999999,155.95348911921184L72.55545254666667,161.0263944117228L72.67355264666666,161.74267245610557L73.12495747333332,206.53009671529134L73.40314881999998,346.2638040669759L73.59735787333332,162.26909673055013L73.60523121333333,191.52386854807537L73.66821793333334,160.49692127863565L73.92278926,260.6104828643799L74.01726934,119.5738246790568L74.23509841333333,154.90332509994508L74.33220293999999,141.42726203918457L74.74686551333333,158.8560768508911L74.81247667999999,62.83530838012697L74.82297446666666,314.3940079752604L74.85971672,338.76267222086585L75.12478583333332,161.40279662450155L75.12741027999999,163.56478015899657L75.22451480666666,163.2033825492859L75.41609941333333,142.71104245503741L75.44759277333333,248.62173789978027L75.72578412,241.78352188110352L76.11945112,151.49788182576498L76.26642013333333,177.92458797454833L76.28741570666666,171.55593453725177L76.59972486,123.34384385426839L76.68633159999999,148.43555499394736L76.83592506,203.99117406209314L76.8831651,136.73304560343425L76.93565403333332,169.2197370147705L77.14560976666667,160.28730026245117L77.158732,155.753997408549L77.30570101333333,173.51225194295247L77.53665231999999,148.8210678291321L77.58389236,159.11929258346558L77.71249024666666,216.36167831420897L77.81746811333333,169.70527254740398L78.07728833333333,142.76187114715577L78.17176841333333,190.11452405293784L78.33448410666666,131.88628077189125L78.40534416666665,252.73856953938804L78.52869315999999,132.7440742746989L78.53394205333332,201.09035764058433L78.88036901333332,151.6770382245382L78.9302335,169.3059200032552L79.00634245333333,165.68117942174274L79.00896689999999,159.90553378423056L79.31340271333333,130.5220124053955L79.33439828666666,143.36240042368573L79.59421850666665,142.52454914093016L79.62308741999999,114.24790486653644L79.70706971333333,111.87037038167318L79.75168530666666,153.03332251230879L80.07449224666667,128.44568214416506L80.08236558666667,131.5280974070231L80.08761448,199.85505695343016L80.21621236666667,165.35378904978435L80.27657463999999,133.81853328704835L80.4655348,178.33512925465902L80.92743741333332,132.91416798909503L81.16626206,243.67155156453452L81.32110441333333,151.5658411725362L81.34997332666666,191.8671575673421L81.46544898,154.5783364232381L81.85649153333333,132.89630148569742L82.04807613999999,151.29609628041587L82.05332503333332,142.43873048146568L82.38138086666666,126.30800558725991L82.46798760666665,243.33406784057618L82.91676798666666,131.42074498494466L83.50989293333333,363.11837402343747L83.77233759999999,119.92892562866213L83.79070872666665,147.8994927787781L84.01378669333333,145.6650844701131L84.08464675333333,181.47680550893145L84.36283809999999,136.5569260787964L84.42320037333333,140.2447650909424L84.73550952666666,120.7969778696696L84.98745640666667,175.86525174458822L85.23940328666666,129.65939154307048L85.54383909999999,156.99515851974488L85.57795690666666,132.14251912434895L85.71442813333333,97.63553700764973L85.95850167333333,122.76253293355308L86.28130861333332,145.4296847788493L86.41253094666665,279.98672737121586L86.66185338,115.06117352803547L86.72746454666667,169.77772608439128L87.07389150666667,109.18991549173991L87.2366072,126.19179901123049L88.2601414,183.3022329203288L88.81389964666667,150.1950724093119L88.90050638666666,97.27177365620929L89.03697761333333,99.09460282643637L89.28630004666665,84.0651007461548L89.40964903999999,120.74340232849123L89.82956050666667,128.215090637207L89.86630276,143.53188532511396L89.91879169333333,158.46514701843262L90.2678431,132.56126739501954L90.35969873333333,126.67312079111734L90.69562790666666,113.49634682973225L90.70875013999999,131.04904309590657L90.72712126666666,132.5043074289958L91.01056150666666,119.44635746002197L91.15490607333332,134.2031736501058L91.39635516666665,106.94536109924316L91.68241985333333,129.25373035430908L91.82151552666666,155.20436873118084L92.20993363333332,116.49071431477866L92.34115596666666,93.00621907552083L92.55898504,146.18909985860188L92.6298451,157.14010154724124L93.49328805333333,132.0055218251546L93.87908171333333,134.2668928782145L94.02605072666667,257.8730680084229L94.36460434666667,122.76492983500162L94.46433332,117.62222916920979L94.83438029999999,105.20079555511472L94.98922265333333,157.32548749287923L95.03908713999999,123.04570287068685L95.18343170666667,88.86726643244424L95.5036142,96.61756337483723L95.78705443999999,144.33497674306233L96.01275685333333,155.64884534200033L96.30407043333334,130.73940657297769L96.45891278666666,132.33527793884275L96.63999960666666,136.28187204996743L96.92606429333333,118.44270291646322L97.10452666666666,164.28003952026367L97.42995805333334,194.85200455983477L97.56642928,126.78534851074221L97.61366932,104.31393962224323L97.96796961999999,179.31060582478838L98.10968974,155.31612186431886L98.28290322,98.32587338765464L98.33539215333333,134.72876140594482L98.59783682,142.34465209960936L99.16734174666666,135.04269317626955L99.24869959333334,153.10359247207643L99.83657564666665,161.83153518040973L99.87856679333333,130.28801250457764L100.31160049333333,105.36083666483563L100.59241628666666,66.1162254333496L100.95983882,105.44575888315836L101.37450139333332,125.96051719665527L101.65531718666665,193.7950237528483L102.03061306000001,147.06103507995604L102.15921094666666,120.68448649088542L102.46102231333333,60.77374782562254L103.03052724,146.54377895355225L103.11975842666666,122.30815232594807L103.24048297333333,161.99334040959675L103.99894806,43.38922775268553L104.37686837999999,156.1838385391235L104.64456193999999,150.7576659266154L105.11171344666666,169.14184730529783L105.12746012666665,104.35450238545737L105.65497390666665,50.68725575764974L105.78094734666665,111.64855153401692L106.53153909333332,147.41446299235028L107.73616011333333,50.23386746724445L107.75190679333332,66.52144559224445L111.02984067999999,87.13321849187216L111.39201431999999,168.03355363210045L112.98505344666667,159.68994927724205L113.65428734666666,51.666859792073566L114.01646098666664,25.399207229614277L114.69356822666666,168.0327626546224L115.03212184666666,178.1232863108317L115.62524679333332,110.98763592084248L116.70651882,160.72852907180788L117.31801489333333,88.26035420735677L118.24969345999999,179.01080618540448L119.26535432,96.1276079559326L119.32046769999998,135.68568116505938L119.33096548666666,275.1734903971354L119.94246156,147.00843987147013L121.88980098666666,131.9110401646296L121.94491436666667,77.3936131922404L121.95541215333331,82.01257171630857L122.56690822666665,149.07842074076336L123.59831576666666,153.1973161125183L124.51424765333331,102.0752528444926L125.19135489333331,110.08227111498513L126.22276243333332,74.85402899424234L127.13869432,133.42153210322064L127.1938077,105.377269821167L127.81580156,112.816409406662L128.8472091,142.92614158948263L129.76314098666666,140.44115521113076L129.81825436666665,156.810884736379L130.44024822666665,54.29141894022625L132.44270103333332,161.72805135726927L133.06469489333332,73.1972235997518L134.09610243333333,73.99987878163655L135.01203432,144.01183008511862L135.0671477,60.68406536102295L135.68914156,145.76029538790382L137.63648098666664,163.29904767990112L137.69159436666666,176.04623218536375L138.31358822666664,128.77489506006242L139.34499576666664,183.52856273651122L140.26092765333334,178.1544364420573L140.3160410333333,154.66331137339276L140.93803489333334,170.78068073272706L141.9694424333333,154.34223443984988L142.94048769999998,118.1324527867635L143.56248155999998,117.11024982134501L144.59388909999998,168.5235713704427L145.50982098666665,162.6406452178955L145.56493436666668,163.99479386647542L146.18692822666665,171.6222232437134L147.21833576666666,146.31610207875568L148.13426765333332,167.67152563730878L148.18938103333332,107.76206691741945L148.81137489333332,154.50114421208698L150.75871432,136.6630872408549L150.8138277,152.03093353271484L151.43582156,166.23836073557536L153.38316098666667,207.31389307657875L153.43827436666666,198.32974557240806L154.06026822666666,202.68686658223473L155.09167576666667,172.997963180542L156.0076076533333,186.1218039703369L156.06272103333333,158.31234455108643L156.6847148933333,152.56946695327755L157.71612243333334,154.86750340779625L158.63205431999998,149.84188418706256L158.6871677,193.06904065450033L159.30916155999998,165.30854034423828L160.34056909999998,137.05439458529156L161.25650098666665,145.0426882616679L161.31161436666665,176.96879955291746L161.93360822666668,128.94803104162216L162.96501576666665,156.7633637682597L163.88094765333332,137.68128498395282L163.93606103333332,143.39414139111838L164.55805489333332,153.8603014500936L165.58946243333332,144.68696891148883L166.50539432,169.6001780064901L167.18250156,144.69151823043822L168.2139091,152.84223673502603L169.18495436666666,154.75706857045492L169.80694822666666,128.378538043499L171.7542876533333,138.6633242702484L172.4313948933333,147.80354481379192L173.4628024333333,141.55885192871094L174.43384769999997,139.04838289260863L175.05584156,154.1563091913859L177.00318098666665,125.7231074788173L177.05829436666664,128.57020417054497L177.68028822666665,135.81888416926066L178.71169576666665,126.97281331896781L179.16834948666667,197.28842132568363L179.62762765333332,92.62070144653319L181.05270219333332,75.43210889180503L181.7927961533333,118.49979291439055L182.25207432,81.69029872894286L184.41724281999998,90.49787369410198L184.87652098666666,86.44594774881999L185.55362822666666,103.65706878026324L185.63761051999998,183.0551986694336L187.04168948666666,102.29710285186766L187.50096765333333,130.06622541586557L188.17807489333333,62.24482212066652L188.26205718666665,116.17210738817852L189.66613615333333,91.7565705362956L190.12541431999998,83.19812231699625L190.88650385333332,70.59054054260253L191.00985284666666,183.02445121765135L192.45854740666667,29.094864934285468L193.51095052,73.98334495544432L193.63429951333333,80.32992772420245L194.78905604666664,54.18309816996257L195.7522279733333,98.45884868621826L196.13539718666664,79.69802780151366L196.25874617999997,113.30447966257731L197.41350271333332,96.54168706258136L197.48961166666666,19.508591817220054L198.00400321333333,18.933929901123044L198.54463922666667,56.456549606323236L199.73876246,213.7603595225016L200.12455612,169.8178262456258L200.62844987999998,105.8813777446747L202.738505,122.16928214788437L203.25289654666668,116.01885130723318L203.99036605999999,194.29213152567547L205.13987369999998,72.38663467407228L205.8773432133333,109.32430256525676L206.61481272666666,99.39235071818034L207.99789612,79.84244590759279L208.50178988,78.43831227620444L209.2392593933333,113.72232190450032L209.74840204666665,204.99387463887533L209.76939761999998,101.87123099009197L211.85058382666665,27.778400370279968L211.86370605999997,102.90507690429686L213.1286893533333,162.46564025243123L213.16805605333334,85.5934106508891L214.48815272666667,84.86127470652261L214.56426168,156.79224163691202L215.79250272,78.8048704147339L216.17567193333332,35.10192181905113L216.39874989999998,48.08575480143231L217.18870834666666,91.86203899383543L218.01803349333335,192.68599662780764L218.41694938666666,98.8590137799581L218.80011859999996,78.35037475585939L219.59270149333335,153.8734196917216L219.81315501333333,89.61193817138671L220.36428881333333,197.81325645446776L221.01252714,189.12135835011802L221.24872733999996,156.2083061091105L222.21714815999997,76.94110216776531L222.52683286666667,151.20170630137127L222.55570177999996,174.6739102300008L222.77615529999997,48.56859621683757L224.2379720933333,215.58844749450682L224.45317672,70.02419587453207L224.84159482666666,68.25048400878907L225.66829552666667,209.40211196899412L225.82313788,181.0786801783244L226.62096966666664,48.6925160217285L227.1668545733333,187.1751318995158L228.02504863333334,81.97289820353193L228.2927421933333,87.89773657480875L228.76514259333334,206.68074676513672L229.24541633333334,84.14572292327883L230.28732166,182.29253818511964L230.64949529999998,91.3961604499817L230.91718885999998,86.25965337753297L231.86986299999998,99.83385996500651L233.27394196666665,84.43248821258545L234.49430966666665,69.22729804992676L235.53359054666666,58.30819911956786L235.53621499333332,77.65296272277833L235.6385684133333,54.55340506235758L237.32083872666664,174.9799034627279L237.4258165933333,170.5829795074463L237.93495924666664,22.05666104634603L238.26301507999997,77.03308086395265L239.45188942,180.65164821624754L239.94528539333334,78.28162203470866L240.05026325999998,92.95367659886678L242.04746717333333,43.93137809753417L242.07633608666663,97.65171129862468L242.81643004666662,173.46191221872965L243.9370687733333,164.63092911402384L244.27299794666664,193.38290531158444L244.67191383999997,93.59768806457521L245.68757469999997,37.90610476175946L245.8739104133333,170.9615173594157L247.29636050666664,61.84801508585611L247.56405406666667,196.98202541351318L248.31202136666667,83.1599013264974L248.49835708,95.96793596903484L249.56388242666665,217.82031748453775L249.92080717333334,84.63176180521646L250.9364680333333,77.60368722279867L251.57683301999998,56.440701293945324L253.56091469999998,92.365769405365L253.74725041333332,98.97067343393962L253.8181104733333,62.21594904581704L254.03593954666667,94.70039935429891L255.31142062666666,149.78399662017824L256.37169708,89.83061707814534L256.44255713999996,91.22388315836588L257.02780874666666,192.29467849731446L257.78102493999995,80.4408083852132L258.99614374666663,76.31677165985106L259.06700380666666,91.1384815597534L259.45279746666665,20.827692972818994L261.2741634533333,-0.7672577412922987L261.46049916666664,110.06321095466613L261.62059041333333,61.9372373453776L261.6914504733333,89.45175804138182L262.99055157333333,185.84746421813963L263.11127611999996,45.13842890421547L264.24503708,65.97366732279461L264.44187058,164.00462595621747L265.43391141999996,149.7929586346944L265.61499824,46.4914174524943L267.06631724666664,51.71383906046548L268.05835808666666,81.51847924550374L268.1239692533333,31.33112604777018L268.2394449066667,86.64182253519697L268.5543785066667,168.08641969045001L270.8638915733333,77.21016394297283L272.11312818666664,27.72838183085126L272.52254186666664,70.35811780293784L272.82697767999997,44.56129338582359L273.78227626666666,187.19379896799725L273.78490071333334,34.48450876871744L274.02372536,170.2003429539998L275.3516953733333,73.16553176879881L276.40934738,66.16616247812905L276.64817202666666,74.70834532419842L277.97614203999996,77.20047566731772L277.97876648666664,156.89803846995036L278.93406507333333,33.41837659200032L280.3565151666666,165.56751116434734L280.45624414,63.00754013061522L280.60058870666666,92.29842606226605L282.18837894,31.335095316569024L282.38521244,25.120677693684907L283.22765982,72.88690635681152L283.5478423133333,176.84135630289714L283.9336359733333,54.44762021382648L285.03065468,197.70839201609294L285.09101695333334,191.84815493265788L285.22486373333334,5.758143463134772L285.8521064866667,49.84594814300536L286.49247147333335,170.24856861114503L287.03835638,141.027434908549L287.65510134666664,58.082578786214185L287.7312103,178.29222471872964L289.1851537533333,21.822598826090505L289.2455160266666,23.97323303222657L289.6628030466667,68.23546981811523L290.3556569666667,72.52179594675702L291.80960042,65.93189412434894L291.87521158666664,175.51499732971192L292.2872497133333,72.66856781005858L292.98010363333333,62.664888687133804L294.4340470866666,71.39475850423175L294.49965825333334,88.54255819320679L294.52852716666666,40.57931142171222L294.91169637999997,68.78901982625327L296.36039094,160.86237204869587L297.0584937533333,76.77866895039875L297.12410492,94.488793703715L297.1529738333333,61.40683661142985L299.68294042,91.95715283711752L299.7485515866667,75.91597618103026L299.77742049999995,104.67527011871339L301.31009735333333,182.3259126408895L301.43869523999996,44.20059806823732L302.40186716666665,93.14682371139527L303.78495055999997,74.24788138071693L304.06314190666666,74.39734736124676L305.02631383333335,91.2422913614909L305.15491172,162.4115733464559L305.4724697666667,167.20939345041913L307.6507605,70.33252848307292L307.70062498666664,176.07206598917645L308.0969164333333,87.57456474939981L309.36714861999997,109.40059953371683L309.8211778933333,55.71889359792072L310.01276249999995,28.974367904663094L310.92606994,169.3429089864095L311.99159528666667,73.35659837086996L312.44562456,79.4551353963216L312.63720916666665,119.19988288561504L313.55051660666663,88.3900121943156L313.9940480933333,41.718299814860046L315.07007122666664,77.7013417816162L315.2616558333333,102.906119556427L315.75505180666664,44.10361943562825L315.90202081999996,19.950446217854804L316.71822373333333,185.2388765589396L316.8966861066666,187.7339071528117L318.2797695,29.422636413574203L318.34275622,30.774949035644525L318.3794984733333,103.88707544326783L319.5211327733333,104.93834443410238L319.76783076,197.00067810058596L321.00394514,89.4308354886373L321.24276978666666,199.62604260762535L321.2821364866667,31.072644195556634L322.86205337999996,74.44482997894288L323.26621816666665,16.666432367960596L323.6283918066666,95.55411093393963L323.86721645333336,85.2658045578003L325.70695356666664,50.87125150044759L326.2528384733333,108.27093388875328L326.72261442666667,149.05245750427244L326.89320346,207.12406806945802L328.3314002333333,69.23931611378987L328.67257829999994,21.543024241129576L328.87728513999997,99.6763236172994L329.3470610933333,71.38913057963052L330.21837738666665,180.4758354949951L330.5201887533333,67.7852166748047L330.54643322,173.49318219502769L331.29702496666664,80.18058158874513L332.8428240533333,68.3531816482544L333.1708798866666,77.21193765004477L333.9214716333333,81.08298622131349L334.5670855133333,55.46424199422202L335.7953265533333,74.87730770111085L336.5459183,87.60875654856363L336.81623630666667,74.89720198313393L337.2571433466666,169.58314083099364L337.8109015933333,37.26577733357748L337.8843861,153.20695165634157L338.0523506866666,188.5349755859375L339.8815900133333,60.08955230712889L339.9262056066666,45.46481497446696L340.22539252666667,4.640036875406897L341.40376907999996,21.626493937174466L341.702956,195.2454367574056L341.80530942,7.48426724751792L342.8052236,163.3902425893148L343.40359744,25.390453745524105L343.86025115999996,53.01482922871906L344.02821574666666,98.18774475097655L344.0360890866666,173.10845074971516L345.1409811333333,191.3081090672811L345.58451261999994,30.058083750406883L346.6526624133333,70.97131710052491L346.6605357533333,77.61749816894532L346.96497156666663,158.4043448193868L349.27710908,89.23184233347574L349.69964499333327,12.73958872477212L350.38987446666664,88.15623041152953L351.39503754,50.306651776631675L352.32409165999997,84.79095920562746L353.01432113333334,112.6540672715505L353.62319275999994,86.86818111419676L354.0194842066667,95.83975926717122L354.07459758666664,152.99909955342608L354.93804054,161.03039963404336L356.6439308733333,90.46890714009605L356.6990442533333,84.4720946121216L357.5624872066667,61.627773399353046L358.1057476666666,172.1304094950358L358.1556121533333,184.85043950398764L358.9062039,201.71726721445717L359.1397796533333,158.33751441319785L359.74865128,158.32345418930055" style="fill: none;" fill="none"></path></g></g></g></g></g></g><g transform="translate(50, 377)" clip-path="url(#clip_1)"><clipPath id="clip_1"><rect width="393" height="23"></rect></clipPath><g><g><line x1="0" y1="0" x2="0" y2="5" style="visibility: inherit;" fill="rgb(0, 0, 0)" stroke="rgb(204, 204, 204)" stroke-width="1px"></line><line x1="32.80558333333333" y1="0" x2="32.80558333333333" y2="5" style="visibility: inherit;" fill="rgb(0, 0, 0)" stroke="rgb(204, 204, 204)" stroke-width="1px"></line><line x1="65.61116666666666" y1="0" x2="65.61116666666666" y2="5" style="visibility: inherit;" fill="rgb(0, 0, 0)" stroke="rgb(204, 204, 204)" stroke-width="1px"></line><line x1="98.41675" y1="0" x2="98.41675" y2="5" style="visibility: inherit;" fill="rgb(0, 0, 0)" stroke="rgb(204, 204, 204)" stroke-width="1px"></line><line x1="131.22233333333332" y1="0" x2="131.22233333333332" y2="5" style="visibility: inherit;" fill="rgb(0, 0, 0)" stroke="rgb(204, 204, 204)" stroke-width="1px"></line><line x1="164.02791666666667" y1="0" x2="164.02791666666667" y2="5" style="visibility: inherit;" fill="rgb(0, 0, 0)" stroke="rgb(204, 204, 204)" stroke-width="1px"></line><line x1="196.8335" y1="0" x2="196.8335" y2="5" style="visibility: inherit;" fill="rgb(0, 0, 0)" stroke="rgb(204, 204, 204)" stroke-width="1px"></line><line x1="229.63908333333333" y1="0" x2="229.63908333333333" y2="5" style="visibility: inherit;" fill="rgb(0, 0, 0)" stroke="rgb(204, 204, 204)" stroke-width="1px"></line><line x1="262.44466666666665" y1="0" x2="262.44466666666665" y2="5" style="visibility: inherit;" fill="rgb(0, 0, 0)" stroke="rgb(204, 204, 204)" stroke-width="1px"></line><line x1="295.25025" y1="0" x2="295.25025" y2="5" style="visibility: inherit;" fill="rgb(0, 0, 0)" stroke="rgb(204, 204, 204)" stroke-width="1px"></line><line x1="328.05583333333334" y1="0" x2="328.05583333333334" y2="5" style="visibility: inherit;" fill="rgb(0, 0, 0)" stroke="rgb(204, 204, 204)" stroke-width="1px"></line><line x1="360.8614166666666" y1="0" x2="360.8614166666666" y2="5" style="visibility: inherit;" fill="rgb(0, 0, 0)" stroke="rgb(204, 204, 204)" stroke-width="1px"></line><line x1="393.667" y1="0" x2="393.667" y2="5" style="visibility: inherit;" fill="rgb(0, 0, 0)" stroke="rgb(204, 204, 204)" stroke-width="1px"></line></g><g transform="translate(0, 8)"><text x="0" y="0" dx="0em" dy="0.95em" style="text-anchor: middle; visibility: hidden; font-family: Roboto, sans-serif; font-size: 12px; font-weight: 200;" fill="rgb(33, 33, 33)" stroke="none" stroke-width="1px">-50k</text><text x="32.80558333333333" y="0" dx="0em" dy="0.95em" style="text-anchor: middle; visibility: inherit; font-family: Roboto, sans-serif; font-size: 12px; font-weight: 200;" fill="rgb(33, 33, 33)" stroke="none" stroke-width="1px">0</text><text x="65.61116666666666" y="0" dx="0em" dy="0.95em" style="text-anchor: middle; visibility: inherit; font-family: Roboto, sans-serif; font-size: 12px; font-weight: 200;" fill="rgb(33, 33, 33)" stroke="none" stroke-width="1px">50k</text><text x="98.41675" y="0" dx="0em" dy="0.95em" style="text-anchor: middle; visibility: inherit; font-family: Roboto, sans-serif; font-size: 12px; font-weight: 200;" fill="rgb(33, 33, 33)" stroke="none" stroke-width="1px">100k</text><text x="131.22233333333332" y="0" dx="0em" dy="0.95em" style="text-anchor: middle; visibility: inherit; font-family: Roboto, sans-serif; font-size: 12px; font-weight: 200;" fill="rgb(33, 33, 33)" stroke="none" stroke-width="1px">150k</text><text x="164.02791666666667" y="0" dx="0em" dy="0.95em" style="text-anchor: middle; visibility: inherit; font-family: Roboto, sans-serif; font-size: 12px; font-weight: 200;" fill="rgb(33, 33, 33)" stroke="none" stroke-width="1px">200k</text><text x="196.8335" y="0" dx="0em" dy="0.95em" style="text-anchor: middle; visibility: inherit; font-family: Roboto, sans-serif; font-size: 12px; font-weight: 200;" fill="rgb(33, 33, 33)" stroke="none" stroke-width="1px">250k</text><text x="229.63908333333333" y="0" dx="0em" dy="0.95em" style="text-anchor: middle; visibility: inherit; font-family: Roboto, sans-serif; font-size: 12px; font-weight: 200;" fill="rgb(33, 33, 33)" stroke="none" stroke-width="1px">300k</text><text x="262.44466666666665" y="0" dx="0em" dy="0.95em" style="text-anchor: middle; visibility: inherit; font-family: Roboto, sans-serif; font-size: 12px; font-weight: 200;" fill="rgb(33, 33, 33)" stroke="none" stroke-width="1px">350k</text><text x="295.25025" y="0" dx="0em" dy="0.95em" style="text-anchor: middle; visibility: inherit; font-family: Roboto, sans-serif; font-size: 12px; font-weight: 200;" fill="rgb(33, 33, 33)" stroke="none" stroke-width="1px">400k</text><text x="328.05583333333334" y="0" dx="0em" dy="0.95em" style="text-anchor: middle; visibility: inherit; font-family: Roboto, sans-serif; font-size: 12px; font-weight: 200;" fill="rgb(33, 33, 33)" stroke="none" stroke-width="1px">450k</text><text x="360.8614166666666" y="0" dx="0em" dy="0.95em" style="text-anchor: middle; visibility: inherit; font-family: Roboto, sans-serif; font-size: 12px; font-weight: 200;" fill="rgb(33, 33, 33)" stroke="none" stroke-width="1px">500k</text><text x="393.667" y="0" dx="0em" dy="0.95em" style="text-anchor: middle; visibility: hidden; font-family: Roboto, sans-serif; font-size: 12px; font-weight: 200;" fill="rgb(33, 33, 33)" stroke="none" stroke-width="1px">550k</text></g><line x1="0" y1="0" x2="393.667" y2="0" fill="rgb(0, 0, 0)" stroke="rgb(204, 204, 204)" stroke-width="1px"></line></g></g></g></g></svg>