<svg viewBox="0 0 443.66668701171875 400" xmlns="http://www.w3.org/2000/svg"><g><g><g><g><g><line x1="70" y1="377" x2="65" y2="377" style="visibility: inherit;" fill="rgb(0, 0, 0)" stroke="rgb(204, 204, 204)" stroke-width="1px"></line><line x1="70" y1="335.1111111111111" x2="65" y2="335.1111111111111" style="visibility: inherit;" fill="rgb(0, 0, 0)" stroke="rgb(204, 204, 204)" stroke-width="1px"></line><line x1="70" y1="293.22222222222223" x2="65" y2="293.22222222222223" style="visibility: inherit;" fill="rgb(0, 0, 0)" stroke="rgb(204, 204, 204)" stroke-width="1px"></line><line x1="70" y1="251.33333333333337" x2="65" y2="251.33333333333337" style="visibility: inherit;" fill="rgb(0, 0, 0)" stroke="rgb(204, 204, 204)" stroke-width="1px"></line><line x1="70" y1="209.44444444444446" x2="65" y2="209.44444444444446" style="visibility: inherit;" fill="rgb(0, 0, 0)" stroke="rgb(204, 204, 204)" stroke-width="1px"></line><line x1="70" y1="167.55555555555554" x2="65" y2="167.55555555555554" style="visibility: inherit;" fill="rgb(0, 0, 0)" stroke="rgb(204, 204, 204)" stroke-width="1px"></line><line x1="70" y1="125.66666666666669" x2="65" y2="125.66666666666669" style="visibility: inherit;" fill="rgb(0, 0, 0)" stroke="rgb(204, 204, 204)" stroke-width="1px"></line><line x1="70" y1="83.77777777777777" x2="65" y2="83.77777777777777" style="visibility: inherit;" fill="rgb(0, 0, 0)" stroke="rgb(204, 204, 204)" stroke-width="1px"></line><line x1="70" y1="41.88888888888891" x2="65" y2="41.88888888888891" style="visibility: inherit;" fill="rgb(0, 0, 0)" stroke="rgb(204, 204, 204)" stroke-width="1px"></line><line x1="70" y1="0" x2="65" y2="0" style="visibility: inherit;" fill="rgb(0, 0, 0)" stroke="rgb(204, 204, 204)" stroke-width="1px"></line></g><g transform="translate(60, 0)"><text x="0" y="377" dx="0em" dy="0.3em" style="text-anchor: end; visibility: hidden; font-family: Roboto, sans-serif; font-size: 12px; font-weight: 200;" fill="rgb(33, 33, 33)" stroke="none" stroke-width="1px">600</text><text x="0" y="335.1111111111111" dx="0em" dy="0.3em" style="text-anchor: end; visibility: inherit; font-family: Roboto, sans-serif; font-size: 12px; font-weight: 200;" fill="rgb(33, 33, 33)" stroke="none" stroke-width="1px">800</text><text x="0" y="293.22222222222223" dx="0em" dy="0.3em" style="text-anchor: end; visibility: inherit; font-family: Roboto, sans-serif; font-size: 12px; font-weight: 200;" fill="rgb(33, 33, 33)" stroke="none" stroke-width="1px">1e+3</text><text x="0" y="251.33333333333337" dx="0em" dy="0.3em" style="text-anchor: end; visibility: inherit; font-family: Roboto, sans-serif; font-size: 12px; font-weight: 200;" fill="rgb(33, 33, 33)" stroke="none" stroke-width="1px">1.2e+3</text><text x="0" y="209.44444444444446" dx="0em" dy="0.3em" style="text-anchor: end; visibility: inherit; font-family: Roboto, sans-serif; font-size: 12px; font-weight: 200;" fill="rgb(33, 33, 33)" stroke="none" stroke-width="1px">1.4e+3</text><text x="0" y="167.55555555555554" dx="0em" dy="0.3em" style="text-anchor: end; visibility: inherit; font-family: Roboto, sans-serif; font-size: 12px; font-weight: 200;" fill="rgb(33, 33, 33)" stroke="none" stroke-width="1px">1.6e+3</text><text x="0" y="125.66666666666669" dx="0em" dy="0.3em" style="text-anchor: end; visibility: inherit; font-family: Roboto, sans-serif; font-size: 12px; font-weight: 200;" fill="rgb(33, 33, 33)" stroke="none" stroke-width="1px">1.8e+3</text><text x="0" y="83.77777777777777" dx="0em" dy="0.3em" style="text-anchor: end; visibility: inherit; font-family: Roboto, sans-serif; font-size: 12px; font-weight: 200;" fill="rgb(33, 33, 33)" stroke="none" stroke-width="1px">2e+3</text><text x="0" y="41.88888888888891" dx="0em" dy="0.3em" style="text-anchor: end; visibility: inherit; font-family: Roboto, sans-serif; font-size: 12px; font-weight: 200;" fill="rgb(33, 33, 33)" stroke="none" stroke-width="1px">2.2e+3</text><text x="0" y="0" dx="0em" dy="0.3em" style="text-anchor: end; visibility: hidden; font-family: Roboto, sans-serif; font-size: 12px; font-weight: 200;" fill="rgb(33, 33, 33)" stroke="none" stroke-width="1px">2.4e+3</text></g><line x1="70" y1="0" x2="70" y2="377" fill="rgb(0, 0, 0)" stroke="rgb(204, 204, 204)" stroke-width="1px"></line></g></g><g transform="translate(70, 0)" clip-path="url(#clip_0)"><clipPath id="clip_0"><rect width="373" height="377"></rect></clipPath><g><g><g><line x1="0" y1="0" x2="0" y2="377" fill="rgb(0, 0, 0)" stroke="rgb(66, 66, 66)" stroke-width="1px" opacity="0.25"></line><line x1="31.138916666666663" y1="0" x2="31.138916666666663" y2="377" fill="rgb(0, 0, 0)" stroke="rgb(66, 66, 66)" stroke-width="1px" opacity="0.25"></line><line x1="62.27783333333333" y1="0" x2="62.27783333333333" y2="377" fill="rgb(0, 0, 0)" stroke="rgb(66, 66, 66)" stroke-width="1px" opacity="0.25"></line><line x1="93.41675" y1="0" x2="93.41675" y2="377" fill="rgb(0, 0, 0)" stroke="rgb(66, 66, 66)" stroke-width="1px" opacity="0.25"></line><line x1="124.55566666666665" y1="0" x2="124.55566666666665" y2="377" fill="rgb(0, 0, 0)" stroke="rgb(66, 66, 66)" stroke-width="1px" opacity="0.25"></line><line x1="155.69458333333333" y1="0" x2="155.69458333333333" y2="377" fill="rgb(0, 0, 0)" stroke="rgb(66, 66, 66)" stroke-width="1px" opacity="0.25"></line><line x1="186.8335" y1="0" x2="186.8335" y2="377" fill="rgb(0, 0, 0)" stroke="rgb(66, 66, 66)" stroke-width="1px" opacity="0.25"></line><line x1="217.97241666666667" y1="0" x2="217.97241666666667" y2="377" fill="rgb(0, 0, 0)" stroke="rgb(66, 66, 66)" stroke-width="1px" opacity="0.25"></line><line x1="249.1113333333333" y1="0" x2="249.1113333333333" y2="377" fill="rgb(0, 0, 0)" stroke="rgb(66, 66, 66)" stroke-width="1px" opacity="0.25"></line><line x1="280.25025" y1="0" x2="280.25025" y2="377" fill="rgb(0, 0, 0)" stroke="rgb(66, 66, 66)" stroke-width="1px" opacity="0.25"></line><line x1="311.38916666666665" y1="0" x2="311.38916666666665" y2="377" fill="rgb(0, 0, 0)" stroke="rgb(66, 66, 66)" stroke-width="1px" opacity="0.25"></line><line x1="342.5280833333333" y1="0" x2="342.5280833333333" y2="377" fill="rgb(0, 0, 0)" stroke="rgb(66, 66, 66)" stroke-width="1px" opacity="0.25"></line><line x1="373.667" y1="0" x2="373.667" y2="377" fill="rgb(0, 0, 0)" stroke="rgb(66, 66, 66)" stroke-width="1px" opacity="0.25"></line></g><g><line x1="0" y1="377" x2="373.667" y2="377" fill="rgb(0, 0, 0)" stroke="rgb(66, 66, 66)" stroke-width="1px" opacity="0.25"></line><line x1="0" y1="335.1111111111111" x2="373.667" y2="335.1111111111111" fill="rgb(0, 0, 0)" stroke="rgb(66, 66, 66)" stroke-width="1px" opacity="0.25"></line><line x1="0" y1="293.22222222222223" x2="373.667" y2="293.22222222222223" fill="rgb(0, 0, 0)" stroke="rgb(66, 66, 66)" stroke-width="1px" opacity="0.25"></line><line x1="0" y1="251.33333333333337" x2="373.667" y2="251.33333333333337" fill="rgb(0, 0, 0)" stroke="rgb(66, 66, 66)" stroke-width="1px" opacity="0.25"></line><line x1="0" y1="209.44444444444446" x2="373.667" y2="209.44444444444446" fill="rgb(0, 0, 0)" stroke="rgb(66, 66, 66)" stroke-width="1px" opacity="0.25"></line><line x1="0" y1="167.55555555555554" x2="373.667" y2="167.55555555555554" fill="rgb(0, 0, 0)" stroke="rgb(66, 66, 66)" stroke-width="1px" opacity="0.25"></line><line x1="0" y1="125.66666666666669" x2="373.667" y2="125.66666666666669" fill="rgb(0, 0, 0)" stroke="rgb(66, 66, 66)" stroke-width="1px" opacity="0.25"></line><line x1="0" y1="83.77777777777777" x2="373.667" y2="83.77777777777777" fill="rgb(0, 0, 0)" stroke="rgb(66, 66, 66)" stroke-width="1px" opacity="0.25"></line><line x1="0" y1="41.88888888888891" x2="373.667" y2="41.88888888888891" fill="rgb(0, 0, 0)" stroke="rgb(66, 66, 66)" stroke-width="1px" opacity="0.25"></line><line x1="0" y1="0" x2="373.667" y2="0" fill="rgb(0, 0, 0)" stroke="rgb(66, 66, 66)" stroke-width="1px" opacity="0.25"></line></g></g></g><g><g><line x1="0" y1="502.66666666666663" x2="373.667" y2="502.66666666666663" fill="rgb(0, 0, 0)" stroke="rgb(153, 153, 153)" stroke-width="1.5px"></line></g></g><g><g><line x1="31.138916666666663" y1="0" x2="31.138916666666663" y2="377" fill="rgb(0, 0, 0)" stroke="rgb(153, 153, 153)" stroke-width="1.5px"></line></g></g><g><g><g><g><g><path stroke="rgb(255, 112, 67)" stroke-width="2px" d="M31.457779173333332,27.227777777777764L31.77664168,25.00243055555557L32.095504186666666,27.099546485260813L32.41436669333333,27.254728349673222L32.7332292,27.152197547999076L33.052091706666666,28.502076247165423L33.370954213333334,29.87386939930526L33.689816719999996,30.50153060427444L34.008679226666665,30.10963563082498L34.327541733333334,29.287029616714438L34.646404239999995,29.38524074377297L34.965266746666664,29.527899427611263L35.28412925333333,28.858309570186776L35.60299176,28.96017668053277L35.921854266666664,28.769794271147223L36.24071677333333,28.990827807567147L36.559579279999994,29.207199975787052L36.87844178666666,29.00185468616912L37.19730429333333,28.794877977151877L37.5161668,28.922042546740276L37.83502930666666,29.0821179284988L38.15389181333333,29.513276432081046L38.47275431999999,29.855746341614832L38.79161682666666,30.228782905891673L39.11047933333333,31.374161888769283L39.42934184,32.81538848061968L39.74820434666666,33.512567135260724L40.06706685333333,33.76331821291898L40.38592936,33.99754656960986L40.70479186666666,34.473194713585954L41.02365437333333,34.75858353267345L41.34251688,34.76226123100797L41.66137938666667,34.68069006804278L41.98024189333333,35.05063627364735L42.2991044,35.35638176944439L42.617966906666666,35.45605128491691L42.936829413333335,35.34829743694988L43.25569192,35.61875624095205L43.574554426666666,35.78103152271058L43.89341693333333,35.79461891364445L44.212279439999996,35.802771348193275L44.531141946666665,35.64010725328207L44.850004453333334,35.458731018583585L45.168866959999995,35.182349722213374L45.487729466666664,35.01652094442186L45.806591973333326,34.74946812219206L46.125454479999995,34.840569762207494L46.444316986666664,34.895230746214644L46.763179493333325,34.92802733661812L47.082041999999994,34.9477052908599L47.40090450666667,34.959512063404915L47.71976701333333,35.05037390470994L48.03862952,34.93733545393679L48.35749202666666,34.785734605695325L48.67635453333333,34.77855187452831L48.99521703999999,34.94179779138372L49.31407954666666,34.95596756371909L49.63294205333333,34.964469427120314L49.95180455999999,34.88579276738332L50.27066706666667,35.00614232709667L50.58952957333332,34.99457428514687L50.90839208,34.903855682199215L51.22725458666667,34.76564674265287L51.54611709333333,34.76649915670288L51.8649796,34.76701060513276L52.18384210666666,34.76731747419084L52.50270461333333,34.68372381784782L52.821567120000005,34.549789846264254L53.14042962666666,34.55320724109194L53.459292133333335,34.63903545576624L53.77815464,34.690532384570844L54.097017146666666,34.72143054185357L54.41587965333333,34.90752499177876L54.734742159999996,35.102959439511785L55.053604666666665,35.13644233037372L55.37246717333333,35.15653206489088L55.691329679999996,35.25236368337897L56.01019218666666,35.39364043224961L56.32905469333333,35.39462870379415L56.6479172,35.39522166672087L56.966779706666664,35.479355222254796L57.28564221333333,35.61361313335288L57.604504719999994,35.61039010223396L57.92336722666666,35.608456283562596L58.242229733333325,35.6072959923598L58.561092239999994,35.94171092874919L58.87995474666667,36.226137668360565L59.198817253333324,36.480571489905195L59.51767976,36.717009560609775L59.836542266666655,36.94265018081027L60.15540477333333,37.16181233070843L60.47426728,37.37708739842509L60.79312978666666,37.67380799461056L61.11199229333333,37.935618130099634L61.43085479999999,38.2602597669487L61.74971730666666,38.62260030461368L62.068579813333336,38.756226849434896L62.38744231999999,38.92018055410537L62.70630482666667,39.10233055468547L63.02516733333333,39.29539833281126L63.34402984,39.49501677746453L63.66289234666666,39.61478784425654L63.98175485333333,40.02176159544284L64.30061736,40.34972362393245L64.61947986666667,40.63027861880393L64.93834237333333,40.96616717128233L65.25720487999999,41.25147808054715L65.57606738666667,41.590220181661664L65.89492989333333,41.96102099788583L66.21379239999999,42.351057043176006L66.53265490666666,42.75263422590565L66.85151741333333,43.07735831332114L67.17037992,43.35597054354822L67.48924242666666,43.523137881684484L67.80810493333333,43.70721606234405L68.12696744,43.98521852629524L68.44582994666666,44.487131115777196L68.76469245333332,44.872056447244056L69.08355495999999,45.354344979457544L69.40241746666666,46.14638476545231L69.72127997333334,47.543164192604785L70.04014248,49.30278740445175L70.35900498666666,51.363894664893294L70.67786749333332,53.68967013226931L70.99673,56.34180207936163L71.31559250666666,58.10063680317251L71.63445501333332,59.15593763745906L71.95331752,59.87289591580874L72.27218002666666,60.38684866059633L72.59104253333334,60.69522030746894L72.90990503999998,61.13157662892577L73.22876754666666,61.56094597735543L73.54763005333334,61.90234536419107L73.86649256,62.35851832962574L74.18535506666666,62.7159998866644L74.50421757333332,63.01426659866526L74.82308008,63.27700440364359L75.14194258666667,63.602202642186136L75.46080509333332,63.881099363089426L75.7796676,64.13221517340922L76.09853010666666,64.36666243737885L76.41739261333333,64.5911085735384L76.73625512,65.06088736634526L77.05511762666666,65.84542130869599L77.37398013333333,66.65125278521764L77.69284264,67.46986278224172L78.01170514666666,68.6312510026784L78.33056765333332,70.08208393494043L78.64943016,72.04169480540872L78.96829266666667,74.72546132768969L79.28715517333333,78.01127679661384L79.60601768,81.1556549668572L79.92488018666666,83.54494853566993L80.24374269333333,85.56496912140197L80.5626052,87.69853702839676L80.88146770666665,89.90023332814917L81.20033021333333,92.31036221911175L81.51919271999999,93.7564395536893L81.83805522666667,94.87541928776919L82.15691773333333,96.04947379488377L82.47578023999999,97.08901761026355L82.79464274666667,97.88029945504705L83.11350525333333,98.94151300636159L83.43236775999999,100.4997966927058L83.75123026666665,102.77521134895682L84.07009277333333,105.39712680937407L84.38895528,108.47827608562446L84.70781778666667,111.41607676248579L85.02668029333333,113.26253494638033L85.34554279999999,114.70552096782824L85.66440530666667,115.57131258069694L85.98326781333333,116.17456532619595L86.30213031999999,116.62029475127314L86.62099282666667,116.97151018409723L86.93985533333333,117.51735055490278L87.25871784,118.263743666275L87.57758034666665,118.87913508865391L87.89644285333333,119.58348105319232L88.21530536,120.00608863191538L88.53416786666666,120.67854206803815L88.85303037333333,121.8360141297118L89.17189287999999,123.28449736671594L89.49075538666666,124.99136508669626L89.80961789333332,126.85326349646219L90.12848039999999,128.640624764544L90.44734290666666,129.9643748587264L90.76620541333332,130.84240269301364L91.08506792,131.53677494914146L91.40393042666666,132.20473163615156L91.72279293333332,132.77306120391316L92.04165544,133.3653922779034L92.36051794666666,134.05590203340873L92.67938045333332,134.72154122004525L92.99824295999998,135.20470250980495L93.31710546666666,135.49459928366073L93.63596797333334,135.6685373479742L93.95483048,136.1080112976734L94.27369298666665,136.87436233415957L94.59255549333334,137.83683962271797L94.911418,139.168325995853L95.23028050666666,140.72121781973405L95.54914301333334,142.40695291406263L95.86800552,143.92106063732643L96.18686802666666,145.16463638239588L96.50573053333332,146.4134484961042L96.82459304,147.4978468754403L97.14345554666666,148.56737479193083L97.46231805333332,149.46042487515854L97.78118056,150.33136603620622L98.10004306666666,151.18904184394592L98.41890557333332,152.0387584397009L98.73776807999998,153.21881061937611L99.05663058666667,154.42950859384794L99.37549309333332,155.74237182297543L99.69435559999998,156.9489786493408L100.01321810666667,158.00805385627112L100.33208061333333,158.89483231376272L100.65094312,159.67823272159092L100.96980562666667,160.56716185517678L101.28866813333333,161.68696377977273L101.60753064,163.11284493453033L101.92639314666665,164.88992918294045L102.24525565333333,166.87773528754204L102.56411815999999,168.32175228363633L102.88298066666665,169.43949581462627L103.20184317333333,170.44525304433137L103.52070567999999,171.71892960437657L103.83956818666665,173.32091331818145L104.15843069333332,174.95232576868665L104.47729319999999,176.6851732389898L104.79615570666665,178.6464372767272L105.11501821333331,180.40964014381413L105.43388072,182.05400630851068L105.75274322666667,183.4595148962175L106.07160573333333,184.7217089377305L106.39046823999998,186.23302536263833L106.70933074666667,188.39648188424965L107.02819325333333,191.03500024166092L107.34705575999999,193.70722236721878L107.66591826666667,195.47811119810905L107.98478077333333,196.79197782997656L108.30364327999999,197.91540892020814L108.62250578666666,199.008356463236L108.94136829333333,200.33434721127495L109.26023079999999,201.6326083267649L109.57909330666665,203.16556499605895L109.89795581333333,204.6717834420798L110.21681831999999,206.1619589541368L110.53568082666665,207.81006426137097L110.85454333333334,209.46914966793364L111.17340584,210.8834898007602L111.49226834666665,212.06720499156722L111.81113085333331,213.11254521716256L112.12999336,214.2424160191864L112.44885586666666,215.42300516706743L112.76771837333332,216.5502475446849L113.08658088,217.81303741569982L113.40544338666666,218.98960022719766L113.72430589333332,220.03064902520748L114.0431684,220.8228338595689L114.36203090666666,221.63325587129694L114.68089341333332,222.6221757450004L114.99975591999998,223.88574989144468L115.31861842666666,225.48167215708895L115.63748093333332,227.2770032942534L115.95634343999998,228.68931308766318L116.27520594666667,229.78803229704238L116.59406845333332,230.5310416004477L116.91293095999998,231.1444027380464L117.23179346666664,231.8475305317167L117.55065597333333,232.6882960968078L117.86951848,233.61164432475135L118.18838098666666,234.66831992818413L118.50724349333333,235.63743640135493L118.826106,236.63779517414625L119.14496850666666,237.48934377115444L119.46383101333332,238.33538404047042L119.78269352,239.34567486872672L120.10155602666666,240.2869604767916L120.42041853333332,241.2706207305194L120.73928104,242.36348354942274L121.05814354666666,243.01920124076477L121.37700605333332,243.58018741112554L121.69586856,244.08433466889753L122.01473106666666,244.8057119124496L122.33359357333332,245.65742714746978L122.65245607999998,246.50356739959298L122.97131858666667,247.4301404397558L123.29018109333333,248.40497315274234L123.60904359999998,249.07365055831207L123.92790610666667,249.5586347794317L124.24676861333333,250.01718086765896L124.56563111999999,250.62741963170646L124.88449362666665,251.4124517790239L125.20335613333333,252.21858217852545L125.52221863999999,253.1211493071153L125.84108114666665,253.9978006953803L126.15994365333333,254.7751248616726L126.47880615999999,255.49285269478136L126.79766866666665,256.0910449502021L127.11653117333333,256.7850714145658L127.43539367999999,257.6203761820728L127.75425618666665,258.54044793146585L128.07311869333333,259.6789354255462L128.3919812,260.6971390331055L128.71084370666665,261.55939453097443L129.02970621333333,262.32808116302914L129.34856872,263.12440425337303L129.66743122666665,264.10486477424604L129.98629373333333,264.9444744201032L130.30515623999997,265.6995735409508L130.62401874666665,266.4039663467927L130.94288125333333,266.9941575858534L131.26174375999997,267.5996056626231L131.58060626666668,268.1304300642405L131.89946877333333,268.7002580385443L132.21833127999997,269.37726593423764L132.53719378666668,270.03480400498705L132.85605629333332,270.68066018077L133.1749188,271.4032849973509L133.49378130666665,272.00441544285496L133.81264381333332,272.6164270434908L134.13150632,273.15118955942773L134.45036882666665,273.7233804023233L134.76923133333332,274.4855837969495L135.08809384,275.27801694483645L135.40695634666665,276.0885879446796L135.72581885333332,276.9938194334744L136.04468136,277.70451388230686L136.36354386666665,278.2984861071619L136.68240637333332,278.7386472198527L137.00126888,279.25407722080047L137.32013138666665,279.81466855470256L137.63899389333332,280.4023566883771L137.95785639999997,281.0900806796929L138.27671890666667,281.75404840781573L138.59558141333332,282.15242904468954L138.91444391999997,282.55901298236927L139.23330642666667,282.9705189005326L139.55216893333332,283.468755784764L139.87103144,284.102809026414L140.18989394666667,284.7345743047373L140.50875645333332,285.4487445828423L140.82761896,286.12858008303874L141.14648146666664,286.70403693871214L141.46534397333332,287.13308882989395L141.78420648,287.4742977423808L142.10306898666664,287.8465786454285L142.42193149333332,288.3212805205904L142.740794,288.7736572012431L143.05965650666664,289.3801943207459L143.37851901333332,289.82789437022535L143.69738152,290.09651439991296L144.01624402666667,290.25768641772555L144.33510653333332,290.5219451839686L144.65396904,290.8480559992701L144.97283154666667,291.21127804400646L145.29169405333332,291.6805446041817L145.61055656,292.38099342917565L145.92941906666667,292.9688182797276L146.24828157333332,293.48906874561436L146.56714408,293.8849968029242L146.88600658666667,294.3738869706434L147.20486909333331,295.002332182386L147.5237316,295.5469548649872L147.84259410666667,296.0412840301034L148.1614566133333,296.58921486250654L148.48031912,296.9179733619483L148.79918162666664,297.1990062393912L149.11804413333334,297.4514037436347L149.43690664,297.6866200239586L149.75576914666664,297.9953053477085L150.07463165333334,298.348072097514L150.39349416,298.81106548073063L150.71235666666666,299.25641706621616L151.03121917333334,299.52362801750746L151.35008168,299.76773236606005L151.66894418666666,299.99797275296936L151.9878066933333,300.2198947628927L152.3066692,300.5206035244023L152.62553170666666,300.8685843368636L152.9443942133333,301.3287061576737L153.26325672,301.77233480571533L153.58211922666666,302.03851199454033L153.9009817333333,302.28199608561306L154.21984424,302.5118643180345L154.53870674666666,302.73356303526515L154.8575692533333,303.0341378211591L155.17643175999999,303.2982604704732L155.49529426666666,303.6242896156173L155.81415677333334,303.9036848804815L156.13301927999998,304.15509981717776L156.45188178666663,304.38972655697336L156.77074429333334,304.6980581564062L157.08960679999998,305.0506126716215L157.40846930666666,305.42970093630623L157.72733181333334,305.8247094506727L158.04619431999998,306.229270114848L158.36505682666666,306.55578429113103L158.68391933333334,306.75169279690084L159.00278183999998,306.9530156781405L159.32164434666666,307.1575871846621L159.6405068533333,307.44788564413057L159.95936935999998,307.7896202753672L160.27823186666666,308.16221660966477L160.5970943733333,308.6371077435766L160.91595688,308.92204242392376L161.23481938666666,309.09300323213205L161.5536818933333,309.2793574948348L161.87254439999998,309.47494783023416L162.19140690666666,309.7598575870294L162.51026941333333,309.93080344110655L162.82913191999998,310.20092650910834L163.14799442666666,310.4467781276872L163.46685693333333,310.5942890988345L163.78571943999998,310.76657345930073L164.10458194666666,310.8699440755804L164.42344445333333,311.0995220009038L164.74230695999998,311.3210465338756L165.06116946666666,311.53773903143644L165.38003197333333,311.8353100855286L165.69889447999998,312.01385271798375L166.01775698666665,312.20475607523474L166.33661949333333,312.4030758673631L166.65548199999998,312.5220677426401L166.97434450666665,312.7610184233618L167.2932070133333,312.98816660957266L167.61206952,313.1244555212992L167.93093202666665,313.29000664611283L168.2497945333333,313.4731150987788L168.56865704,313.6667579481562L168.88751954666665,313.8667214355604L169.20638205333333,314.0704773057807L169.52524456,314.27650860569065L169.84410706666665,314.48390516341436L170.16296957333333,314.69212087582645L170.48183207999998,314.90082808105143L170.80069458666665,315.02605240418643L171.11955709333333,315.268742553623L171.43841959999997,315.41435664328486L171.75728210666665,315.5855028748598L172.07614461333333,315.68819061380475L172.39500711999997,315.83358103494953L172.71386962666665,316.00459306541416L173.03273213333333,316.1909780614707L173.35159463999997,316.3028090591047L173.67045714666665,316.36990765768496L173.98931965333333,316.493944594611L174.30818216,316.5683667567666L174.62704466666665,316.6130200540599L174.94590717333332,316.72358981021375L175.26476968,316.87370944168384L175.58363218666665,316.9637812205658L175.90249469333332,317.01782428789505L176.2213572,317.0502501282926L176.54021970666665,317.0697056325311L176.85908221333332,317.165156712852L177.17794472,317.3899829166001L177.49680722666665,317.6924341944045L177.81566973333332,318.0414605166427L178.13453223999997,318.41843186554115L178.45339474666665,318.72839245265806L178.77225725333332,318.91436880492813L179.09111975999997,319.0259546162902L179.40998226666667,319.17668388088526L179.72884477333332,319.26712143964227L180.04770728,319.40516175267425L180.36656978666664,319.5717637182712L180.68543229333332,319.67172489762936L181.0042948,319.73170160524427L181.32315730666664,319.7676876298133L181.64201981333332,319.7055014667768L181.96088232,319.668189768955L182.27974482666664,319.6458027502619L182.59860733333332,319.7999260946016L182.91746984,320.05995565676096L183.23633234666664,320.3835289496121L183.55519485333332,320.7452284808784L183.87405736,320.9622481996381L184.19291986666664,321.092460030894L184.51178237333332,321.25436490742527L184.83064488,321.43528561112186L185.14950738666667,321.54383803333974L185.46836989333332,321.6927472644483L185.78723239999997,321.949648358669L186.10609490666667,322.18756679297917L186.42495741333332,322.33031785356525L186.74381992,322.41596848991696L187.06268242666667,322.55113664950574L187.3815449333333,322.632237545259L187.70040744,322.68089808271094L188.01926994666667,322.71009440518213L188.33813245333332,322.7276121986648L188.65699496,322.7381228747544L188.97585746666667,322.7444292804082L189.29471997333332,322.83199090157825L189.61358248,322.96830565205806L189.93244498666667,323.2176500579015L190.25130749333331,323.36725670140754L190.57017,323.4570206875112L190.88903250666667,323.51087907917344L191.2078950133333,323.62697189194853L191.52675752,323.7804053573913L191.84562002666667,324.04002099221253L192.1644825333333,324.2795681508831L192.48334504,324.590852001641L192.80220754666664,324.8614000898735L193.1210700533333,324.9399511650352L193.43993256,324.9870818101322L193.75879506666664,325.09913797496824L194.0776575733333,325.16637167386983L194.39652008,325.3742674487663L194.71538258666664,325.58278269148207L195.0342450933333,325.7916696148892L195.35310760000002,325.9170017689336L195.67197010666663,325.99220106136016L195.9908326133333,326.03732063681605L196.30969512000001,326.06439238208964L196.62855762666663,326.0806354292538L196.94742013333334,326.0903812575523L197.26628263999996,326.09622875453135L197.58514514666663,326.1835150304966L197.90400765333334,326.23588679607576L198.22287015999996,326.2673098554232L198.54173266666666,326.3699414688095L198.86059517333334,326.59907599239676L199.17945767999996,326.82033448432696L199.49832018666666,326.8693118017073L199.81718269333334,326.89869819213544L200.13604519999998,326.91633002639236L200.45490770666666,326.92690912694655L200.77377021333334,327.0170343650568L201.09263271999998,327.1548872857008L201.41149522666666,327.2375990380872L201.73035773333334,327.287226089519L202.04922023999998,327.4007800981558L202.36808274666666,327.46891250333795L202.6869452533333,327.593569724225L203.00580775999998,327.66836405675724L203.32467026666666,327.79701843405434L203.6435327733333,327.8742110604326L203.96239527999998,327.9205266362596L204.28125778666666,327.94831598175574L204.6001202933333,327.96498958905346L204.91898279999998,327.9749937534321L205.23784530666666,328.064774029837L205.5567078133333,328.11864219567997L205.87557031999998,328.1509630951857L206.19443282666666,328.17035563488923L206.5132953333333,328.1819911587113L206.83215783999998,328.27275025078234L207.15102034666668,328.41098348380274L207.4698828533333,328.493923423615L207.78874535999998,328.6274651652801L208.10760786666663,328.6238124325014L208.4264703733333,328.705398570612L208.74533288,328.6705724757005L209.06419538666663,328.6496768187536L209.3830578933333,328.55336164680773L209.7019204,328.4955725436402L210.02078290666662,328.4608990817397L210.33964541333333,328.44009500459936L210.65850792,328.42761255831516L210.97737042666665,328.50390086832243L211.29623293333333,328.5496738543268L211.61509544,328.5771376459294L211.93395794666665,328.5098381431132L212.25282045333333,328.55323621920127L212.57168296,328.6630528426318L212.89054546666665,328.812720594468L213.20940797333333,328.98629902334744L213.52827047999997,329.0904460806752L213.84713298666665,329.1529343150718L214.16599549333333,329.1904272557097L214.48485799999997,329.1291452423147L214.80372050666665,329.0923760342777L215.12258301333333,329.0703145094555L215.44144551999997,329.14085537233996L215.76030802666665,329.1831798900706L216.07917053333333,329.29235237848684L216.39803303999997,329.3578558715366L216.71689554666665,329.48093574514417L217.03575805333332,329.55478366930873L217.35462055999997,329.59909242380746L217.67348306666665,329.62567767650665L217.99234557333332,329.6416288281262L218.31120807999997,329.73497729687574L218.63007058666665,329.8747641559032L218.9489330933333,330.1261918268753L219.26779559999997,330.2770484294585L219.58665810666668,330.36756239100845L219.9055206133333,330.50564854571616L220.22438311999997,330.58850023854075L220.54324562666667,330.6382112542356L220.8621081333333,330.75181564143026L221.18097064,330.81997827374704L221.49983314666667,330.8608758531371L221.8186956533333,330.8854144007712L222.13755816,330.98391530712934L222.45642066666667,331.0430158509443L222.77528317333332,331.162253955011L223.09414568,331.31757459522885L223.41300818666667,331.4107669793595L223.73187069333332,331.466682409838L224.0507332,331.50023166812497L224.36959570666664,331.52036122309727L224.68845821333332,331.44866117830276L225.00732072,331.4894189292039L225.32618322666664,331.51387357974454L225.64504573333332,331.52854637006897L225.96390824,331.5373500442636L226.28277074666664,331.5426322487804L226.60163325333332,331.5458015714905L226.92049576,331.63148094289426L227.23935826666664,331.7666663435143L227.55822077333332,331.93155536166415L227.87708328,332.1142665503318L228.19594578666664,332.2238932635324L228.51480829333332,332.37344706923056L228.8336708,332.5469571304272L229.15253330666664,332.6510631671452L229.47139581333332,332.71352678917606L229.79025831999996,332.8347827401723L230.10912082666664,332.90753631077007L230.42798333333332,332.9511884531287L230.74684583999996,332.8936019607661L231.06570834666664,332.8590500653485L231.38457085333334,332.83831892809803L231.70343335999996,332.9096580235255L232.02229586666664,332.952461480782L232.34115837333334,332.97814355513583L232.66002087999996,332.99355279974816L232.97888338666667,333.08657612429334L233.29774589333334,333.14239011902043L233.61660839999996,333.1758785158567L233.93547090666667,333.1959715539585L234.25433341333328,333.20802737681953L234.57319592,333.29903864831397L234.89205842666667,333.4374231889883L235.2109209333333,333.520453913393L235.52978344,333.65405012581357L235.84864594666666,333.8179856310437L236.1675084533333,333.9163469341818L236.48637096,333.9753637160646L236.80523346666666,334.0107737851943L237.1240959733333,334.0320198266721L237.44295848,334.1285452293366L237.76182098666666,334.1864604709353L238.0806834933333,334.3049873936723L238.399546,334.4598813250922L238.71840850666666,334.5528176839442L239.0372710133333,334.5248017214776L239.35613352,334.5079921439977L239.67499602666663,334.4979063975097L239.9938585333333,334.57563272739475L240.31272103999999,334.7060463031035L240.63158354666663,334.86807222630654L240.9504460533333,335.0490655580062L241.26930855999998,335.07388377924815L241.58817106666663,335.0887747119933L241.9070335733333,335.09770927164044L242.22589607999998,335.1030700074287L242.54475858666663,335.1062864489017L242.8636210933333,335.19199409156323L243.1824836,335.24341867716015L243.50134610666663,335.35805120629607L243.8202086133333,335.42683072377764L244.13907112,335.46809843426655L244.45793362666663,335.4928590605599L244.77679613333333,335.59149321411377L245.09565863999995,335.65067370624604L245.41452114666666,335.7699597793032L245.73338365333333,335.92530920091525L246.05224615999995,336.0185188538825L246.37110866666666,336.0744446456628L246.68997117333333,336.02422234295324L247.00883367999998,335.9940889613275L247.32769618666666,336.05978671012986L247.64655869333333,336.09920535941126L247.96542119999998,336.20663432675786L248.28428370666666,336.2710917071658L248.60314621333333,336.3097661354106L248.92200871999998,336.33297079235746L249.24087122666666,336.3468935865256L249.55973373333333,336.35524726302646L249.87859623999998,336.360259468927L250.19745874666665,336.3632667924673L250.5163212533333,336.44884896436923L250.83518375999998,336.5001982675105L251.15404626666665,336.5310078493951L251.4729087733333,336.4657158207482L251.79177127999998,336.42654060356006L252.11063378666665,336.4868132510249L252.4294962933333,336.4391990617261L252.74835879999998,336.41063054814674L253.06722130666665,336.4772672177769L253.3860838133333,336.517249219555L253.70494631999998,336.6250161983997L254.02380882666665,336.6896763857065L254.3426713333333,336.8122502758683L254.66153383999998,336.88579460996544L254.98039634666668,336.84614343264593L255.2992588533333,336.8223527262542L255.61812136,336.80807830241923L255.93698386666662,336.7995136481182L256.2558463733333,336.8781526333153L256.57470888,337.0091138022114L256.8935713866666,337.17146828132684L257.2124338933333,337.2688809687961L257.5312964,337.32732858127764L257.85015890666665,337.36239714876655L258.1690214133333,337.4672160670377L258.48788392,337.5301074180004L258.8067464266666,337.567842228578L259.1256089333333,337.59048311492455L259.44447144,337.6040676467326L259.76333394666665,337.6122183658173L260.0821964533333,337.6171087972682L260.40105896,337.5362652783609L260.7199214666666,337.4877591670165L261.0387839733333,337.45865550020994L261.35764647999997,337.52497107790373L261.67650898666665,337.48098264674223L261.9953714933333,337.5383673658231L262.31423399999994,337.57279819727165L262.6330965066667,337.5934566961408L262.95195901333335,337.60585179546223L263.27082151999997,337.52951107727733L263.58968402666665,337.4837066463664L263.9085465333333,337.5400017655976L264.22740904,337.4900010593586L264.5462715466667,337.46000063561513L264.86513405333335,337.4420003813691L265.18399655999997,337.5149780065992L265.50285906666664,337.5587645817373L265.8217215733333,337.66881430459796L266.14058408,337.7348441383143L266.4594465866667,337.7744620385442L266.7783090933333,337.798232778682L267.09717159999997,337.728717444987L267.41603410666664,337.68700824476997L267.7348966133333,337.7457605024175L268.05375912,337.6972340792283L268.37262162666667,337.6681182253148L268.6914841333333,337.65064871296664L269.01034663999997,337.6401670055577L269.32920914666664,337.55010020333464L269.6480716533333,337.4960601220008L269.96693416,337.4636360732005L270.28579666666667,337.4441816439203L270.6046591733333,337.4325089863522L270.92352167999996,337.42550539181127L271.24238418666664,337.4213032350868L271.5612466933333,337.4187819410521L271.8801092,337.41726916463125L272.1989717066666,337.4163614987787L272.5178342133333,337.4158168992672L272.83669672,337.41549013956035L273.15555922666664,337.3315163059584L273.4744217333333,337.2811320057973L273.79328424,337.2509014257006L274.1121467466666,337.2327630776426L274.43100925333334,337.3056578465856L274.74987176,337.3493947079514L275.06873426666664,337.3756368247708L275.3875967733333,337.3913820948625L275.70645928,337.40082925691746L276.02532178666667,337.40649755415046L276.34418429333334,337.4098985324903L276.66304679999996,337.41193911949415L276.98190930666664,337.4969412494743L277.3007718133333,337.54794252746234L277.61963432,337.57854329425516L277.93849682666666,337.59690375433087L278.25735933333334,337.6079200303763L278.57622183999996,337.6145297960035L278.89508434666664,337.6184956553799L279.2139468533333,337.7046529487835L279.53280936,337.7563473248257L279.85167186666666,337.70358617267317L280.17053437333334,337.6719294813817L280.48939687999996,337.6529354666068L280.80825938666663,337.64153905774185L281.1271218933333,337.63470121242284L281.4459844,337.71437628300924L281.76484690666666,337.7621813253611L282.0837094133333,337.7908643507722L282.40257191999996,337.8080741660189L282.72143442666663,337.8184000551669L283.0402969333333,337.8245955886557L283.35915944,337.828312908749L283.67802194666666,337.83054330080495L283.9968844533333,337.83188153603857L284.31574695999996,337.9164622549564L284.6346094666667,337.9672106863072L284.9534719733333,337.9138819673399L285.27233448,337.8818847359595L285.59119698666666,337.946464174909L285.9100594933333,337.98521183827876L286.228922,338.0084604363006L286.5477845066667,337.9386318173359L286.8666470133333,337.8967346459571L287.18550952,337.8715963431298L287.5043720266666,337.85651336143343L287.82323453333333,337.9312413501934L288.14209704,338.05985592122715L288.46095954666663,338.13702466384746L288.7798220533333,338.1833259094196L289.09868456,338.21110665676287L289.41754706666666,338.2277751051688L289.73640957333333,338.2377761742124L290.05527208,338.24377681563857L290.3741345866666,338.16359942271646L290.6929970933333,338.1154929869632L291.0118596,338.08662912551125L291.33072210666666,338.06931080864007L291.64958461333333,338.1426975962952L291.96844712,338.18672966888823L292.2873096266666,338.21314891244407L292.6061721333333,338.22900045857756L292.92503464,338.23851138625764L293.24389714666665,338.24421794286565L293.56275965333333,338.2476418768305L293.88162215999995,338.1659184594316L294.2004846666666,338.1168844089923L294.5193471733333,338.0874639787287L294.83820968,338.06981172057056L295.15707218666665,338.0592203656757L295.47593469333333,338.05286555273875L295.79479719999995,338.04905266497656L296.1136597066666,338.04676493231926L296.43252221333336,338.0453922927249L296.75138472,338.04456870896826L297.07024722666665,338.1278523364921L297.38910973333327,338.17782251300633L297.70797223999995,338.20780461891496L298.0268347466667,338.30957166023785L298.3456972533333,338.3706318850316L298.66455976,338.40726801990786L298.98342226666665,338.5130274786114L299.30228477333327,338.57648315383346L299.62114728,338.61455655896674L299.9400097866667,338.63740060204674L300.2588722933333,338.6511070278947L300.5777348,338.65933088340347L300.89659730666665,338.66426519670875L301.2154598133333,338.66722578469194L301.53432232,338.6690021374818L301.8531848266667,338.67006794915574L302.1720473333333,338.7544852139379L302.49090984,338.80513557280716L302.80977234666665,338.83552578812873L303.1286348533333,338.85375991732167L303.44749736,338.8647003948374L303.7663598666666,338.87126468134693L304.0852223733333,338.8752032532526L304.40408487999997,338.87756639639605L304.72294738666665,338.8789842822821L305.0418098933333,338.8798350138137L305.3606724,338.7965676749549L305.6795349066666,338.74660727163956L305.9983974133333,338.8004088074282L306.31725991999997,338.83268972890136L306.63612242666665,338.93583605956303L306.9549849333333,338.99772385796L307.27384744,339.118634314776L307.5927099466666,339.10740281108787L307.9115724533333,339.1006639088749L308.23043495999997,339.0966205675472L308.54929746666664,339.09419456275054L308.8681599733333,339.0927389598725L309.18702247999994,339.0918655981458L309.5058849866666,339.09134158110965L309.82474749333335,339.091027170888L310.14360999999997,339.09083852475504L310.46247250666664,339.09072533707524L310.7813350133333,339.09065742446734L311.10019751999994,339.0906166769026L311.41906002666667,339.17437000614154L311.73792253333335,339.22462200368494L312.05678503999997,339.25477320221097L312.37564754666664,339.2728639213266L312.6945100533333,339.283718352796L313.01337256,339.2902310116776L313.33223506666667,339.2941386070066L313.6510975733333,339.29648316420395L313.96996007999996,339.2978898985224L314.28882258666664,339.2987339391134L314.6076850933333,339.2992403634681L314.9265476,339.2995442180808L315.24541010666667,339.2997265308485L315.5642726133333,339.29983591850913L315.88313511999996,339.29990155110545L316.20199762666664,339.2999409306633L316.5208601333333,339.29996455839796L316.83972264,339.2999787350388L317.15858514666667,339.2999872410233L317.4774476533333,339.299992344614L317.79631015999996,339.29999540676835L318.11517266666664,339.29999724406105L318.4340351733333,339.29999834643667L318.75289768,339.29999900786197L319.0717601866666,339.2999994047172L319.3906226933333,339.2999996428303L319.70948519999996,339.2999997856982L320.02834770666664,339.29999987141895L320.3472102133333,339.2162221450736L320.66607272,339.1659555092664L320.9849352266666,339.135795527782L321.3037977333333,339.11769953889143L321.62266024,339.1068419455571L321.94152274666664,339.10032738955647L322.2603852533333,339.0964186559561L322.57924776,339.1778511935737L322.8981102666666,339.2267107161442L323.21697277333334,339.25602642968653L323.53583528,339.27361585781193L323.85469778666663,339.28416951468716L324.1735602933333,339.2905017088123L324.4924228,339.2943010252874L324.81128530666666,339.29658061517245L325.13014781333334,339.2979483691035L325.44901031999996,339.2149912436843L325.76787282666663,339.2489947462106L326.0867353333333,339.26939684772634L326.40559784,339.28163810863583L326.72446034666666,339.28898286518154L327.04332285333334,339.2096119413311L327.36218535999996,339.16198938702087L327.68104786666663,339.13341585443476L327.9999103733333,339.11627173488307L328.31877288,339.1059852631521L328.63763538666666,339.18359115789127L328.95649789333334,339.2301546947348L329.27536039999995,339.2580928168409L329.59422290666663,339.2748556901045L329.9130854133333,339.2849134140627L330.23194792,339.2909480484376L330.55081042666666,339.29456882906254L330.8696729333333,339.29674129743756L331.18853543999995,339.29804477846255L331.50739794666663,339.29882686707754L331.8262604533333,339.29929612024654L332.14512296,339.2995776721479L332.46398546666666,339.2997466032887L332.7828479733333,339.2998479619732L333.10171047999995,339.299908777184L333.4205729866667,339.2999452663104L333.7394354933333,339.29996715978626L334.058298,339.29998029587176L334.3771605066666,339.3837659553008L334.69602301333333,339.4340373509583L335.01488552,339.4642001883527L335.3337480266666,339.56607566856724L335.6526105333333,339.62720095669584L335.97147304,339.66387612957305L336.29033554666665,339.68588123329937L336.60919805333333,339.6153065177574L336.92806056,339.5729616884322L337.2469230666666,339.5475547908371L337.5657855733333,339.53231065228005L337.88464808,339.5231641691458L338.20351058666665,339.60145405704304L338.52237309333333,339.64842798978134L338.8412356,339.6766123494244L339.1600981066666,339.69352296521015L339.4789606133333,339.6198915569039L339.79782312,339.5757127119201L340.11668562666665,339.54920540492986L340.4355481333333,339.5333010207357L340.75441063999995,339.5237583902192L341.0732731466666,339.5180328119093L341.3921356533333,339.5145974649233L341.71099816,339.5125362567318L342.02986066666665,339.51129953181686L342.3487231733333,339.51055749686793" style="fill: none;" fill="none"></path></g></g></g></g><g opacity="0.2"><g><g><g><path stroke="rgb(255, 112, 67)" stroke-width="2px" d="M31.457779173333332,27.227777777777764L31.77664168,23.66722222222224L32.095504186666666,29.112777777777765L32.41436669333333,27.437222222222243L32.7332292,27.01833333333333L33.052091706666666,30.36944444444446L33.370954213333334,31.83555555555555L33.689816719999996,31.416666666666682L34.008679226666665,29.53166666666668L34.327541733333334,28.065555555555548L34.646404239999995,29.53166666666668L34.965266746666664,29.741111111111113L35.28412925333333,27.85611111111111L35.60299176,29.112777777777765L35.921854266666664,28.48444444444446L36.24071677333333,29.3222222222222L36.559579279999994,29.53166666666668L36.87844178666666,28.693888888888896L37.19730429333333,28.48444444444446L37.5161668,29.112777777777765L37.83502930666666,29.3222222222222L38.15389181333333,30.159999999999986L38.47275431999999,30.36944444444446L38.79161682666666,30.788333333333334L39.11047933333333,33.092222222222205L39.42934184,34.97722222222221L39.74820434666666,34.55833333333334L40.06706685333333,34.13944444444442L40.38592936,34.3488888888889L40.70479186666666,35.18666666666668L41.02365437333333,35.18666666666668L41.34251688,34.76777777777777L41.66137938666667,34.55833333333334L41.98024189333333,35.605555555555554L42.2991044,35.81499999999999L42.617966906666666,35.605555555555554L42.936829413333335,35.18666666666668L43.25569192,36.02444444444443L43.574554426666666,36.02444444444443L43.89341693333333,35.81499999999999L44.212279439999996,35.81499999999999L44.531141946666665,35.39611111111112L44.850004453333334,35.18666666666668L45.168866959999995,34.76777777777777L45.487729466666664,34.76777777777777L45.806591973333326,34.3488888888889L46.125454479999995,34.97722222222221L46.444316986666664,34.97722222222221L46.763179493333325,34.97722222222221L47.082041999999994,34.97722222222221L47.40090450666667,34.97722222222221L47.71976701333333,35.18666666666668L48.03862952,34.76777777777777L48.35749202666666,34.55833333333334L48.67635453333333,34.76777777777777L48.99521703999999,35.18666666666668L49.31407954666666,34.97722222222221L49.63294205333333,34.97722222222221L49.95180455999999,34.76777777777777L50.27066706666667,35.18666666666668L50.58952957333332,34.97722222222221L50.90839208,34.76777777777777L51.22725458666667,34.55833333333334L51.54611709333333,34.76777777777777L51.8649796,34.76777777777777L52.18384210666666,34.76777777777777L52.50270461333333,34.55833333333334L52.821567120000005,34.3488888888889L53.14042962666666,34.55833333333334L53.459292133333335,34.76777777777777L53.77815464,34.76777777777777L54.097017146666666,34.76777777777777L54.41587965333333,35.18666666666668L54.734742159999996,35.39611111111112L55.053604666666665,35.18666666666668L55.37246717333333,35.18666666666668L55.691329679999996,35.39611111111112L56.01019218666666,35.605555555555554L56.32905469333333,35.39611111111112L56.6479172,35.39611111111112L56.966779706666664,35.605555555555554L57.28564221333333,35.81499999999999L57.604504719999994,35.605555555555554L57.92336722666666,35.605555555555554L58.242229733333325,35.605555555555554L58.561092239999994,36.443333333333335L58.87995474666667,36.65277777777777L59.198817253333324,36.86222222222221L59.51767976,37.07166666666669L59.836542266666655,37.28111111111112L60.15540477333333,37.49055555555556L60.47426728,37.69999999999999L60.79312978666666,38.118888888888904L61.11199229333333,38.32833333333334L61.43085479999999,38.74722222222221L61.74971730666666,39.16611111111112L62.068579813333336,38.956666666666685L62.38744231999999,39.16611111111112L62.70630482666667,39.37555555555556L63.02516733333333,39.584999999999994L63.34402984,39.79444444444443L63.66289234666666,39.79444444444443L63.98175485333333,40.63222222222221L64.30061736,40.84166666666665L64.61947986666667,41.051111111111126L64.93834237333333,41.46999999999999L65.25720487999999,41.67944444444443L65.57606738666667,42.09833333333334L65.89492989333333,42.517222222222216L66.21379239999999,42.936111111111124L66.53265490666666,43.355L66.85151741333333,43.56444444444443L67.17037992,43.77388888888891L67.48924242666666,43.77388888888891L67.80810493333333,43.98333333333334L68.12696744,44.402222222222214L68.44582994666666,45.239999999999995L68.76469245333332,45.44944444444443L69.08355495999999,46.07777777777778L69.40241746666666,47.334444444444436L69.72127997333334,49.63833333333335L70.04014248,51.94222222222222L70.35900498666666,54.45555555555557L70.67786749333332,57.17833333333331L70.99673,60.320000000000014L71.31559250666666,60.73888888888888L71.63445501333332,60.73888888888888L71.95331752,60.948333333333316L72.27218002666666,61.157777777777795L72.59104253333334,61.157777777777795L72.90990503999998,61.786111111111104L73.22876754666666,62.20500000000001L73.54763005333334,62.41444444444445L73.86649256,63.04277777777779L74.18535506666666,63.25222222222223L74.50421757333332,63.461666666666666L74.82308008,63.6711111111111L75.14194258666667,64.09000000000002L75.46080509333332,64.29944444444445L75.7796676,64.50888888888889L76.09853010666666,64.71833333333332L76.41739261333333,64.92777777777779L76.73625512,65.76555555555554L77.05511762666666,67.02222222222224L77.37398013333333,67.86000000000001L77.69284264,68.69777777777776L78.01170514666666,70.37333333333332L78.33056765333332,72.25833333333333L78.64943016,74.98111111111112L78.96829266666667,78.75111111111111L79.28715517333333,82.93999999999998L79.60601768,85.8722222222222L79.92488018666666,87.12888888888891L80.24374269333333,88.595L80.5626052,90.8988888888889L80.88146770666665,93.20277777777778L81.20033021333333,95.92555555555556L81.51919271999999,95.92555555555556L81.83805522666667,96.55388888888888L82.15691773333333,97.81055555555557L82.47578023999999,98.64833333333335L82.79464274666667,99.06722222222223L83.11350525333333,100.53333333333336L83.43236775999999,102.83722222222222L83.75123026666665,106.18833333333332L84.07009277333333,109.33000000000001L84.38895528,113.10000000000002L84.70781778666667,115.82277777777776L85.02668029333333,116.03222222222223L85.34554279999999,116.87000000000002L85.66440530666667,116.87000000000002L85.98326781333333,117.07944444444446L86.30213031999999,117.28888888888889L86.62099282666667,117.49833333333332L86.93985533333333,118.33611111111111L87.25871784,119.38333333333333L87.57758034666665,119.80222222222224L87.89644285333333,120.63999999999999L88.21530536,120.63999999999999L88.53416786666666,121.68722222222225L88.85303037333333,123.57222222222221L89.17189287999999,125.4572222222222L89.49075538666666,127.55166666666668L89.80961789333332,129.6461111111111L90.12848039999999,131.3216666666667L90.44734290666666,131.95L90.76620541333332,132.15944444444443L91.08506792,132.57833333333335L91.40393042666666,133.20666666666668L91.72279293333332,133.62555555555556L92.04165544,134.2538888888889L92.36051794666666,135.09166666666664L92.67938045333332,135.72L92.99824295999998,135.92944444444444L93.31710546666666,135.92944444444444L93.63596797333334,135.92944444444444L93.95483048,136.76722222222222L94.27369298666665,138.0238888888889L94.59255549333334,139.28055555555557L94.911418,141.16555555555556L95.23028050666666,143.05055555555558L95.54914301333334,144.93555555555557L95.86800552,146.19222222222223L96.18686802666666,147.03L96.50573053333332,148.28666666666666L96.82459304,149.12444444444444L97.14345554666666,150.17166666666665L97.46231805333332,150.8L97.78118056,151.63777777777779L98.10004306666666,152.4755555555556L98.41890557333332,153.3133333333333L98.73776807999998,154.98888888888888L99.05663058666667,156.24555555555554L99.37549309333332,157.71166666666667L99.69435559999998,158.7588888888889L100.01321810666667,159.59666666666666L100.33208061333333,160.22500000000002L100.65094312,160.85333333333332L100.96980562666667,161.90055555555554L101.28866813333333,163.36666666666667L101.60753064,165.25166666666667L101.92639314666665,167.55555555555554L102.24525565333333,169.85944444444445L102.56411815999999,170.48777777777778L102.88298066666665,171.1161111111111L103.20184317333333,171.95388888888888L103.52070567999999,173.62944444444446L103.83956818666665,175.7238888888889L104.15843069333332,177.3994444444444L104.47729319999999,179.28444444444443L104.79615570666665,181.58833333333334L105.11501821333331,183.05444444444444L105.43388072,184.52055555555557L105.75274322666667,185.5677777777778L106.07160573333333,186.615L106.39046823999998,188.5L106.70933074666667,191.64166666666665L107.02819325333333,194.99277777777777L107.34705575999999,197.71555555555557L107.66591826666667,198.13444444444445L107.98478077333333,198.76277777777779L108.30364327999999,199.60055555555553L108.62250578666666,200.64777777777775L108.94136829333333,202.32333333333332L109.26023079999999,203.58L109.57909330666665,205.46499999999997L109.89795581333333,206.9311111111111L110.21681831999999,208.39722222222224L110.53568082666665,210.2822222222222L110.85454333333334,211.95777777777775L111.17340584,213.00499999999997L111.49226834666665,213.8427777777778L111.81113085333331,214.68055555555554L112.12999336,215.93722222222223L112.44885586666666,217.1938888888889L112.76771837333332,218.2411111111111L113.08658088,219.70722222222224L113.40544338666666,220.75444444444446L113.72430589333332,221.5922222222222L114.0431684,222.01111111111112L114.36203090666666,222.8488888888889L114.68089341333332,224.10555555555555L114.99975591999998,225.78111111111113L115.31861842666666,227.87555555555556L115.63748093333332,229.97L115.95634343999998,230.80777777777777L116.27520594666667,231.43611111111113L116.59406845333332,231.64555555555557L116.91293095999998,232.06444444444446L117.23179346666664,232.9022222222222L117.55065597333333,233.94944444444442L117.86951848,234.99666666666664L118.18838098666666,236.25333333333336L118.50724349333333,237.09111111111108L118.826106,238.13833333333332L119.14496850666666,238.76666666666665L119.46383101333332,239.60444444444443L119.78269352,240.8611111111111L120.10155602666666,241.69888888888892L120.42041853333332,242.74611111111113L120.73928104,244.00277777777774L121.05814354666666,244.00277777777774L121.37700605333332,244.42166666666665L121.69586856,244.84055555555557L122.01473106666666,245.88777777777779L122.33359357333332,246.935L122.65245607999998,247.77277777777775L122.97131858666667,248.81999999999996L123.29018109333333,249.86722222222224L123.60904359999998,250.07666666666665L123.92790610666667,250.2861111111111L124.24676861333333,250.705L124.56563111999999,251.54277777777776L124.88449362666665,252.58999999999997L125.20335613333333,253.4277777777778L125.52221863999999,254.47500000000002L125.84108114666665,255.31277777777777L126.15994365333333,255.9411111111111L126.47880615999999,256.56944444444446L126.79766866666665,256.98833333333334L127.11653117333333,257.8261111111111L127.43539367999999,258.87333333333333L127.75425618666665,259.9205555555556L128.07311869333333,261.38666666666666L128.3919812,262.22444444444443L128.71084370666665,262.85277777777776L129.02970621333333,263.4811111111111L129.34856872,264.3188888888889L129.66743122666665,265.5755555555555L129.98629373333333,266.2038888888889L130.30515623999997,266.83222222222224L130.62401874666665,267.4605555555556L130.94288125333333,267.87944444444446L131.26174375999997,268.5077777777778L131.58060626666668,268.9266666666667L131.89946877333333,269.555L132.21833127999997,270.3927777777778L132.53719378666668,271.0211111111111L132.85605629333332,271.64944444444444L133.1749188,272.4872222222222L133.49378130666665,272.9061111111111L133.81264381333332,273.53444444444443L134.13150632,273.9533333333333L134.45036882666665,274.58166666666665L134.76923133333332,275.62888888888887L135.08809384,276.4666666666667L135.40695634666665,277.3044444444444L135.72581885333332,278.35166666666663L136.04468136,278.7705555555556L136.36354386666665,279.18944444444446L136.68240637333332,279.39888888888885L137.00126888,280.02722222222224L137.32013138666665,280.65555555555557L137.63899389333332,281.2838888888889L137.95785639999997,282.12166666666667L138.27671890666667,282.75L138.59558141333332,282.75L138.91444391999997,283.1688888888889L139.23330642666667,283.5877777777778L139.55216893333332,284.2161111111111L139.87103144,285.05388888888893L140.18989394666667,285.6822222222222L140.50875645333332,286.52L140.82761896,287.14833333333337L141.14648146666664,287.5672222222222L141.46534397333332,287.77666666666664L141.78420648,287.9861111111111L142.10306898666664,288.40500000000003L142.42193149333332,289.0333333333333L142.740794,289.45222222222225L143.05965650666664,290.29L143.37851901333332,290.49944444444446L143.69738152,290.49944444444446L144.01624402666667,290.49944444444446L144.33510653333332,290.91833333333335L144.65396904,291.33722222222224L144.97283154666667,291.75611111111107L145.29169405333332,292.38444444444445L145.61055656,293.4316666666667L145.92941906666667,293.85055555555556L146.24828157333332,294.26944444444445L146.56714408,294.4788888888889L146.88600658666667,295.1072222222222L147.20486909333331,295.945L147.5237316,296.3638888888889L147.84259410666667,296.78277777777777L148.1614566133333,297.4111111111111L148.48031912,297.4111111111111L148.79918162666664,297.62055555555554L149.11804413333334,297.83000000000004L149.43690664,298.0394444444444L149.75576914666664,298.4583333333333L150.07463165333334,298.87722222222226L150.39349416,299.5055555555556L150.71235666666666,299.9244444444445L151.03121917333334,299.9244444444445L151.35008168,300.13388888888886L151.66894418666666,300.3433333333333L151.9878066933333,300.5527777777778L152.3066692,300.9716666666667L152.62553170666666,301.3905555555555L152.9443942133333,302.0188888888889L153.26325672,302.43777777777774L153.58211922666666,302.43777777777774L153.9009817333333,302.64722222222224L154.21984424,302.8566666666667L154.53870674666666,303.0661111111111L154.8575692533333,303.48499999999996L155.17643175999999,303.69444444444446L155.49529426666666,304.11333333333334L155.81415677333334,304.3227777777778L156.13301927999998,304.53222222222223L156.45188178666663,304.7416666666667L156.77074429333334,305.16055555555556L157.08960679999998,305.57944444444445L157.40846930666666,305.99833333333333L157.72733181333334,306.4172222222222L158.04619431999998,306.8361111111111L158.36505682666666,307.04555555555555L158.68391933333334,307.04555555555555L159.00278183999998,307.255L159.32164434666666,307.46444444444444L159.6405068533333,307.8833333333333L159.95936935999998,308.3022222222222L160.27823186666666,308.7211111111111L160.5970943733333,309.3494444444445L160.91595688,309.3494444444445L161.23481938666666,309.3494444444445L161.5536818933333,309.5588888888889L161.87254439999998,309.7683333333333L162.19140690666666,310.18722222222226L162.51026941333333,310.18722222222226L162.82913191999998,310.6061111111111L163.14799442666666,310.81555555555553L163.46685693333333,310.81555555555553L163.78571943999998,311.025L164.10458194666666,311.025L164.42344445333333,311.4438888888889L164.74230695999998,311.6533333333333L165.06116946666666,311.86277777777775L165.38003197333333,312.2816666666667L165.69889447999998,312.2816666666667L166.01775698666665,312.49111111111114L166.33661949333333,312.7005555555555L166.65548199999998,312.7005555555555L166.97434450666665,313.1194444444444L167.2932070133333,313.3288888888889L167.61206952,313.3288888888889L167.93093202666665,313.53833333333336L168.2497945333333,313.74777777777774L168.56865704,313.95722222222224L168.88751954666665,314.1666666666667L169.20638205333333,314.37611111111113L169.52524456,314.5855555555556L169.84410706666665,314.79499999999996L170.16296957333333,315.00444444444446L170.48183207999998,315.2138888888889L170.80069458666665,315.2138888888889L171.11955709333333,315.6327777777778L171.43841959999997,315.6327777777778L171.75728210666665,315.84222222222223L172.07614461333333,315.84222222222223L172.39500711999997,316.0516666666667L172.71386962666665,316.2611111111111L173.03273213333333,316.47055555555556L173.35159463999997,316.47055555555556L173.67045714666665,316.47055555555556L173.98931965333333,316.68L174.30818216,316.68L174.62704466666665,316.68L174.94590717333332,316.88944444444445L175.26476968,317.0988888888889L175.58363218666665,317.0988888888889L175.90249469333332,317.0988888888889L176.2213572,317.0988888888889L176.54021970666665,317.0988888888889L176.85908221333332,317.30833333333334L177.17794472,317.7272222222222L177.49680722666665,318.1461111111111L177.81566973333332,318.565L178.13453223999997,318.9838888888889L178.45339474666665,319.1933333333333L178.77225725333332,319.1933333333333L179.09111975999997,319.1933333333333L179.40998226666667,319.40277777777777L179.72884477333332,319.40277777777777L180.04770728,319.6122222222222L180.36656978666664,319.82166666666666L180.68543229333332,319.82166666666666L181.0042948,319.82166666666666L181.32315730666664,319.82166666666666L181.64201981333332,319.6122222222222L181.96088232,319.6122222222222L182.27974482666664,319.6122222222222L182.59860733333332,320.0311111111111L182.91746984,320.45L183.23633234666664,320.86888888888893L183.55519485333332,321.28777777777776L183.87405736,321.28777777777776L184.19291986666664,321.28777777777776L184.51178237333332,321.4972222222222L184.83064488,321.70666666666665L185.14950738666667,321.70666666666665L185.46836989333332,321.91611111111115L185.78723239999997,322.335L186.10609490666667,322.5444444444445L186.42495741333332,322.5444444444445L186.74381992,322.5444444444445L187.06268242666667,322.75388888888887L187.3815449333333,322.75388888888887L187.70040744,322.75388888888887L188.01926994666667,322.75388888888887L188.33813245333332,322.75388888888887L188.65699496,322.75388888888887L188.97585746666667,322.75388888888887L189.29471997333332,322.96333333333337L189.61358248,323.17277777777775L189.93244498666667,323.5916666666667L190.25130749333331,323.5916666666667L190.57017,323.5916666666667L190.88903250666667,323.5916666666667L191.2078950133333,323.80111111111114L191.52675752,324.0105555555556L191.84562002666667,324.4294444444444L192.1644825333333,324.6388888888889L192.48334504,325.0577777777778L192.80220754666664,325.2672222222222L193.1210700533333,325.0577777777778L193.43993256,325.0577777777778L193.75879506666664,325.2672222222222L194.0776575733333,325.2672222222222L194.39652008,325.68611111111113L194.71538258666664,325.8955555555556L195.0342450933333,326.105L195.35310760000002,326.105L195.67197010666663,326.105L195.9908326133333,326.105L196.30969512000001,326.105L196.62855762666663,326.105L196.94742013333334,326.105L197.26628263999996,326.105L197.58514514666663,326.3144444444444L197.90400765333334,326.3144444444444L198.22287015999996,326.3144444444444L198.54173266666666,326.52388888888885L198.86059517333334,326.9427777777778L199.17945767999996,327.15222222222224L199.49832018666666,326.9427777777778L199.81718269333334,326.9427777777778L200.13604519999998,326.9427777777778L200.45490770666666,326.9427777777778L200.77377021333334,327.15222222222224L201.09263271999998,327.3616666666667L201.41149522666666,327.3616666666667L201.73035773333334,327.3616666666667L202.04922023999998,327.57111111111107L202.36808274666666,327.57111111111107L202.6869452533333,327.78055555555557L203.00580775999998,327.78055555555557L203.32467026666666,327.99L203.6435327733333,327.99L203.96239527999998,327.99L204.28125778666666,327.99L204.6001202933333,327.99L204.91898279999998,327.99L205.23784530666666,328.19944444444445L205.5567078133333,328.19944444444445L205.87557031999998,328.19944444444445L206.19443282666666,328.19944444444445L206.5132953333333,328.19944444444445L206.83215783999998,328.4088888888889L207.15102034666668,328.61833333333334L207.4698828533333,328.61833333333334L207.78874535999998,328.8277777777778L208.10760786666663,328.61833333333334L208.4264703733333,328.8277777777778L208.74533288,328.61833333333334L209.06419538666663,328.61833333333334L209.3830578933333,328.4088888888889L209.7019204,328.4088888888889L210.02078290666662,328.4088888888889L210.33964541333333,328.4088888888889L210.65850792,328.4088888888889L210.97737042666665,328.61833333333334L211.29623293333333,328.61833333333334L211.61509544,328.61833333333334L211.93395794666665,328.4088888888889L212.25282045333333,328.61833333333334L212.57168296,328.8277777777778L212.89054546666665,329.0372222222222L213.20940797333333,329.24666666666667L213.52827047999997,329.24666666666667L213.84713298666665,329.24666666666667L214.16599549333333,329.24666666666667L214.48485799999997,329.0372222222222L214.80372050666665,329.0372222222222L215.12258301333333,329.0372222222222L215.44144551999997,329.24666666666667L215.76030802666665,329.24666666666667L216.07917053333333,329.4561111111111L216.39803303999997,329.4561111111111L216.71689554666665,329.66555555555556L217.03575805333332,329.66555555555556L217.35462055999997,329.66555555555556L217.67348306666665,329.66555555555556L217.99234557333332,329.66555555555556L218.31120807999997,329.875L218.63007058666665,330.08444444444444L218.9489330933333,330.50333333333333L219.26779559999997,330.50333333333333L219.58665810666668,330.50333333333333L219.9055206133333,330.7127777777778L220.22438311999997,330.7127777777778L220.54324562666667,330.7127777777778L220.8621081333333,330.9222222222222L221.18097064,330.9222222222222L221.49983314666667,330.9222222222222L221.8186956533333,330.9222222222222L222.13755816,331.13166666666666L222.45642066666667,331.13166666666666L222.77528317333332,331.3411111111111L223.09414568,331.55055555555555L223.41300818666667,331.55055555555555L223.73187069333332,331.55055555555555L224.0507332,331.55055555555555L224.36959570666664,331.55055555555555L224.68845821333332,331.3411111111111L225.00732072,331.55055555555555L225.32618322666664,331.55055555555555L225.64504573333332,331.55055555555555L225.96390824,331.55055555555555L226.28277074666664,331.55055555555555L226.60163325333332,331.55055555555555L226.92049576,331.76L227.23935826666664,331.96944444444443L227.55822077333332,332.1788888888889L227.87708328,332.3883333333333L228.19594578666664,332.3883333333333L228.51480829333332,332.59777777777776L228.8336708,332.8072222222222L229.15253330666664,332.8072222222222L229.47139581333332,332.8072222222222L229.79025831999996,333.01666666666665L230.10912082666664,333.01666666666665L230.42798333333332,333.01666666666665L230.74684583999996,332.8072222222222L231.06570834666664,332.8072222222222L231.38457085333334,332.8072222222222L231.70343335999996,333.01666666666665L232.02229586666664,333.01666666666665L232.34115837333334,333.01666666666665L232.66002087999996,333.01666666666665L232.97888338666667,333.22611111111115L233.29774589333334,333.22611111111115L233.61660839999996,333.22611111111115L233.93547090666667,333.22611111111115L234.25433341333328,333.22611111111115L234.57319592,333.4355555555556L234.89205842666667,333.645L235.2109209333333,333.645L235.52978344,333.8544444444444L235.84864594666666,334.06388888888887L236.1675084533333,334.06388888888887L236.48637096,334.06388888888887L236.80523346666666,334.06388888888887L237.1240959733333,334.06388888888887L237.44295848,334.27333333333337L237.76182098666666,334.27333333333337L238.0806834933333,334.4827777777778L238.399546,334.6922222222222L238.71840850666666,334.6922222222222L239.0372710133333,334.4827777777778L239.35613352,334.4827777777778L239.67499602666663,334.4827777777778L239.9938585333333,334.6922222222222L240.31272103999999,334.90166666666664L240.63158354666663,335.1111111111111L240.9504460533333,335.3205555555556L241.26930855999998,335.1111111111111L241.58817106666663,335.1111111111111L241.9070335733333,335.1111111111111L242.22589607999998,335.1111111111111L242.54475858666663,335.1111111111111L242.8636210933333,335.3205555555556L243.1824836,335.3205555555556L243.50134610666663,335.53000000000003L243.8202086133333,335.53000000000003L244.13907112,335.53000000000003L244.45793362666663,335.53000000000003L244.77679613333333,335.7394444444444L245.09565863999995,335.7394444444444L245.41452114666666,335.94888888888886L245.73338365333333,336.1583333333333L246.05224615999995,336.1583333333333L246.37110866666666,336.1583333333333L246.68997117333333,335.94888888888886L247.00883367999998,335.94888888888886L247.32769618666666,336.1583333333333L247.64655869333333,336.1583333333333L247.96542119999998,336.3677777777778L248.28428370666666,336.3677777777778L248.60314621333333,336.3677777777778L248.92200871999998,336.3677777777778L249.24087122666666,336.3677777777778L249.55973373333333,336.3677777777778L249.87859623999998,336.3677777777778L250.19745874666665,336.3677777777778L250.5163212533333,336.57722222222225L250.83518375999998,336.57722222222225L251.15404626666665,336.57722222222225L251.4729087733333,336.3677777777778L251.79177127999998,336.3677777777778L252.11063378666665,336.57722222222225L252.4294962933333,336.3677777777778L252.74835879999998,336.3677777777778L253.06722130666665,336.57722222222225L253.3860838133333,336.57722222222225L253.70494631999998,336.78666666666663L254.02380882666665,336.78666666666663L254.3426713333333,336.9961111111111L254.66153383999998,336.9961111111111L254.98039634666668,336.78666666666663L255.2992588533333,336.78666666666663L255.61812136,336.78666666666663L255.93698386666662,336.78666666666663L256.2558463733333,336.9961111111111L256.57470888,337.2055555555556L256.8935713866666,337.415L257.2124338933333,337.415L257.5312964,337.415L257.85015890666665,337.415L258.1690214133333,337.62444444444446L258.48788392,337.62444444444446L258.8067464266666,337.62444444444446L259.1256089333333,337.62444444444446L259.44447144,337.62444444444446L259.76333394666665,337.62444444444446L260.0821964533333,337.62444444444446L260.40105896,337.415L260.7199214666666,337.415L261.0387839733333,337.415L261.35764647999997,337.62444444444446L261.67650898666665,337.415L261.9953714933333,337.62444444444446L262.31423399999994,337.62444444444446L262.6330965066667,337.62444444444446L262.95195901333335,337.62444444444446L263.27082151999997,337.415L263.58968402666665,337.415L263.9085465333333,337.62444444444446L264.22740904,337.415L264.5462715466667,337.415L264.86513405333335,337.415L265.18399655999997,337.62444444444446L265.50285906666664,337.62444444444446L265.8217215733333,337.83388888888885L266.14058408,337.83388888888885L266.4594465866667,337.83388888888885L266.7783090933333,337.83388888888885L267.09717159999997,337.62444444444446L267.41603410666664,337.62444444444446L267.7348966133333,337.83388888888885L268.05375912,337.62444444444446L268.37262162666667,337.62444444444446L268.6914841333333,337.62444444444446L269.01034663999997,337.62444444444446L269.32920914666664,337.415L269.6480716533333,337.415L269.96693416,337.415L270.28579666666667,337.415L270.6046591733333,337.415L270.92352167999996,337.415L271.24238418666664,337.415L271.5612466933333,337.415L271.8801092,337.415L272.1989717066666,337.415L272.5178342133333,337.415L272.83669672,337.415L273.15555922666664,337.2055555555556L273.4744217333333,337.2055555555556L273.79328424,337.2055555555556L274.1121467466666,337.2055555555556L274.43100925333334,337.415L274.74987176,337.415L275.06873426666664,337.415L275.3875967733333,337.415L275.70645928,337.415L276.02532178666667,337.415L276.34418429333334,337.415L276.66304679999996,337.415L276.98190930666664,337.62444444444446L277.3007718133333,337.62444444444446L277.61963432,337.62444444444446L277.93849682666666,337.62444444444446L278.25735933333334,337.62444444444446L278.57622183999996,337.62444444444446L278.89508434666664,337.62444444444446L279.2139468533333,337.83388888888885L279.53280936,337.83388888888885L279.85167186666666,337.62444444444446L280.17053437333334,337.62444444444446L280.48939687999996,337.62444444444446L280.80825938666663,337.62444444444446L281.1271218933333,337.62444444444446L281.4459844,337.83388888888885L281.76484690666666,337.83388888888885L282.0837094133333,337.83388888888885L282.40257191999996,337.83388888888885L282.72143442666663,337.83388888888885L283.0402969333333,337.83388888888885L283.35915944,337.83388888888885L283.67802194666666,337.83388888888885L283.9968844533333,337.83388888888885L284.31574695999996,338.04333333333335L284.6346094666667,338.04333333333335L284.9534719733333,337.83388888888885L285.27233448,337.83388888888885L285.59119698666666,338.04333333333335L285.9100594933333,338.04333333333335L286.228922,338.04333333333335L286.5477845066667,337.83388888888885L286.8666470133333,337.83388888888885L287.18550952,337.83388888888885L287.5043720266666,337.83388888888885L287.82323453333333,338.04333333333335L288.14209704,338.2527777777778L288.46095954666663,338.2527777777778L288.7798220533333,338.2527777777778L289.09868456,338.2527777777778L289.41754706666666,338.2527777777778L289.73640957333333,338.2527777777778L290.05527208,338.2527777777778L290.3741345866666,338.04333333333335L290.6929970933333,338.04333333333335L291.0118596,338.04333333333335L291.33072210666666,338.04333333333335L291.64958461333333,338.2527777777778L291.96844712,338.2527777777778L292.2873096266666,338.2527777777778L292.6061721333333,338.2527777777778L292.92503464,338.2527777777778L293.24389714666665,338.2527777777778L293.56275965333333,338.2527777777778L293.88162215999995,338.04333333333335L294.2004846666666,338.04333333333335L294.5193471733333,338.04333333333335L294.83820968,338.04333333333335L295.15707218666665,338.04333333333335L295.47593469333333,338.04333333333335L295.79479719999995,338.04333333333335L296.1136597066666,338.04333333333335L296.43252221333336,338.04333333333335L296.75138472,338.04333333333335L297.07024722666665,338.2527777777778L297.38910973333327,338.2527777777778L297.70797223999995,338.2527777777778L298.0268347466667,338.46222222222224L298.3456972533333,338.46222222222224L298.66455976,338.46222222222224L298.98342226666665,338.6716666666667L299.30228477333327,338.6716666666667L299.62114728,338.6716666666667L299.9400097866667,338.6716666666667L300.2588722933333,338.6716666666667L300.5777348,338.6716666666667L300.89659730666665,338.6716666666667L301.2154598133333,338.6716666666667L301.53432232,338.6716666666667L301.8531848266667,338.6716666666667L302.1720473333333,338.88111111111107L302.49090984,338.88111111111107L302.80977234666665,338.88111111111107L303.1286348533333,338.88111111111107L303.44749736,338.88111111111107L303.7663598666666,338.88111111111107L304.0852223733333,338.88111111111107L304.40408487999997,338.88111111111107L304.72294738666665,338.88111111111107L305.0418098933333,338.88111111111107L305.3606724,338.6716666666667L305.6795349066666,338.6716666666667L305.9983974133333,338.88111111111107L306.31725991999997,338.88111111111107L306.63612242666665,339.09055555555557L306.9549849333333,339.09055555555557L307.27384744,339.3L307.5927099466666,339.09055555555557L307.9115724533333,339.09055555555557L308.23043495999997,339.09055555555557L308.54929746666664,339.09055555555557L308.8681599733333,339.09055555555557L309.18702247999994,339.09055555555557L309.5058849866666,339.09055555555557L309.82474749333335,339.09055555555557L310.14360999999997,339.09055555555557L310.46247250666664,339.09055555555557L310.7813350133333,339.09055555555557L311.10019751999994,339.09055555555557L311.41906002666667,339.3L311.73792253333335,339.3L312.05678503999997,339.3L312.37564754666664,339.3L312.6945100533333,339.3L313.01337256,339.3L313.33223506666667,339.3L313.6510975733333,339.3L313.96996007999996,339.3L314.28882258666664,339.3L314.6076850933333,339.3L314.9265476,339.3L315.24541010666667,339.3L315.5642726133333,339.3L315.88313511999996,339.3L316.20199762666664,339.3L316.5208601333333,339.3L316.83972264,339.3L317.15858514666667,339.3L317.4774476533333,339.3L317.79631015999996,339.3L318.11517266666664,339.3L318.4340351733333,339.3L318.75289768,339.3L319.0717601866666,339.3L319.3906226933333,339.3L319.70948519999996,339.3L320.02834770666664,339.3L320.3472102133333,339.09055555555557L320.66607272,339.09055555555557L320.9849352266666,339.09055555555557L321.3037977333333,339.09055555555557L321.62266024,339.09055555555557L321.94152274666664,339.09055555555557L322.2603852533333,339.09055555555557L322.57924776,339.3L322.8981102666666,339.3L323.21697277333334,339.3L323.53583528,339.3L323.85469778666663,339.3L324.1735602933333,339.3L324.4924228,339.3L324.81128530666666,339.3L325.13014781333334,339.3L325.44901031999996,339.09055555555557L325.76787282666663,339.3L326.0867353333333,339.3L326.40559784,339.3L326.72446034666666,339.3L327.04332285333334,339.09055555555557L327.36218535999996,339.09055555555557L327.68104786666663,339.09055555555557L327.9999103733333,339.09055555555557L328.31877288,339.09055555555557L328.63763538666666,339.3L328.95649789333334,339.3L329.27536039999995,339.3L329.59422290666663,339.3L329.9130854133333,339.3L330.23194792,339.3L330.55081042666666,339.3L330.8696729333333,339.3L331.18853543999995,339.3L331.50739794666663,339.3L331.8262604533333,339.3L332.14512296,339.3L332.46398546666666,339.3L332.7828479733333,339.3L333.10171047999995,339.3L333.4205729866667,339.3L333.7394354933333,339.3L334.058298,339.3L334.3771605066666,339.50944444444445L334.69602301333333,339.50944444444445L335.01488552,339.50944444444445L335.3337480266666,339.7188888888889L335.6526105333333,339.7188888888889L335.97147304,339.7188888888889L336.29033554666665,339.7188888888889L336.60919805333333,339.50944444444445L336.92806056,339.50944444444445L337.2469230666666,339.50944444444445L337.5657855733333,339.50944444444445L337.88464808,339.50944444444445L338.20351058666665,339.7188888888889L338.52237309333333,339.7188888888889L338.8412356,339.7188888888889L339.1600981066666,339.7188888888889L339.4789606133333,339.50944444444445L339.79782312,339.50944444444445L340.11668562666665,339.50944444444445L340.4355481333333,339.50944444444445L340.75441063999995,339.50944444444445L341.0732731466666,339.50944444444445L341.3921356533333,339.50944444444445L341.71099816,339.50944444444445L342.02986066666665,339.50944444444445L342.3487231733333,339.50944444444445" style="fill: none;" fill="none"></path></g></g></g></g></g></g><g transform="translate(70, 377)" clip-path="url(#clip_1)"><clipPath id="clip_1"><rect width="373" height="23"></rect></clipPath><g><g><line x1="0" y1="0" x2="0" y2="5" style="visibility: inherit;" fill="rgb(0, 0, 0)" stroke="rgb(204, 204, 204)" stroke-width="1px"></line><line x1="31.138916666666663" y1="0" x2="31.138916666666663" y2="5" style="visibility: inherit;" fill="rgb(0, 0, 0)" stroke="rgb(204, 204, 204)" stroke-width="1px"></line><line x1="62.27783333333333" y1="0" x2="62.27783333333333" y2="5" style="visibility: inherit;" fill="rgb(0, 0, 0)" stroke="rgb(204, 204, 204)" stroke-width="1px"></line><line x1="93.41675" y1="0" x2="93.41675" y2="5" style="visibility: inherit;" fill="rgb(0, 0, 0)" stroke="rgb(204, 204, 204)" stroke-width="1px"></line><line x1="124.55566666666665" y1="0" x2="124.55566666666665" y2="5" style="visibility: inherit;" fill="rgb(0, 0, 0)" stroke="rgb(204, 204, 204)" stroke-width="1px"></line><line x1="155.69458333333333" y1="0" x2="155.69458333333333" y2="5" style="visibility: inherit;" fill="rgb(0, 0, 0)" stroke="rgb(204, 204, 204)" stroke-width="1px"></line><line x1="186.8335" y1="0" x2="186.8335" y2="5" style="visibility: inherit;" fill="rgb(0, 0, 0)" stroke="rgb(204, 204, 204)" stroke-width="1px"></line><line x1="217.97241666666667" y1="0" x2="217.97241666666667" y2="5" style="visibility: inherit;" fill="rgb(0, 0, 0)" stroke="rgb(204, 204, 204)" stroke-width="1px"></line><line x1="249.1113333333333" y1="0" x2="249.1113333333333" y2="5" style="visibility: inherit;" fill="rgb(0, 0, 0)" stroke="rgb(204, 204, 204)" stroke-width="1px"></line><line x1="280.25025" y1="0" x2="280.25025" y2="5" style="visibility: inherit;" fill="rgb(0, 0, 0)" stroke="rgb(204, 204, 204)" stroke-width="1px"></line><line x1="311.38916666666665" y1="0" x2="311.38916666666665" y2="5" style="visibility: inherit;" fill="rgb(0, 0, 0)" stroke="rgb(204, 204, 204)" stroke-width="1px"></line><line x1="342.5280833333333" y1="0" x2="342.5280833333333" y2="5" style="visibility: inherit;" fill="rgb(0, 0, 0)" stroke="rgb(204, 204, 204)" stroke-width="1px"></line><line x1="373.667" y1="0" x2="373.667" y2="5" style="visibility: inherit;" fill="rgb(0, 0, 0)" stroke="rgb(204, 204, 204)" stroke-width="1px"></line></g><g transform="translate(0, 8)"><text x="0" y="0" dx="0em" dy="0.95em" style="text-anchor: middle; visibility: hidden; font-family: Roboto, sans-serif; font-size: 12px; font-weight: 200;" fill="rgb(33, 33, 33)" stroke="none" stroke-width="1px">-50k</text><text x="31.138916666666663" y="0" dx="0em" dy="0.95em" style="text-anchor: middle; visibility: inherit; font-family: Roboto, sans-serif; font-size: 12px; font-weight: 200;" fill="rgb(33, 33, 33)" stroke="none" stroke-width="1px">0</text><text x="62.27783333333333" y="0" dx="0em" dy="0.95em" style="text-anchor: middle; visibility: hidden; font-family: Roboto, sans-serif; font-size: 12px; font-weight: 200;" fill="rgb(33, 33, 33)" stroke="none" stroke-width="1px">50k</text><text x="93.41675" y="0" dx="0em" dy="0.95em" style="text-anchor: middle; visibility: inherit; font-family: Roboto, sans-serif; font-size: 12px; font-weight: 200;" fill="rgb(33, 33, 33)" stroke="none" stroke-width="1px">100k</text><text x="124.55566666666665" y="0" dx="0em" dy="0.95em" style="text-anchor: middle; visibility: hidden; font-family: Roboto, sans-serif; font-size: 12px; font-weight: 200;" fill="rgb(33, 33, 33)" stroke="none" stroke-width="1px">150k</text><text x="155.69458333333333" y="0" dx="0em" dy="0.95em" style="text-anchor: middle; visibility: inherit; font-family: Roboto, sans-serif; font-size: 12px; font-weight: 200;" fill="rgb(33, 33, 33)" stroke="none" stroke-width="1px">200k</text><text x="186.8335" y="0" dx="0em" dy="0.95em" style="text-anchor: middle; visibility: hidden; font-family: Roboto, sans-serif; font-size: 12px; font-weight: 200;" fill="rgb(33, 33, 33)" stroke="none" stroke-width="1px">250k</text><text x="217.97241666666667" y="0" dx="0em" dy="0.95em" style="text-anchor: middle; visibility: inherit; font-family: Roboto, sans-serif; font-size: 12px; font-weight: 200;" fill="rgb(33, 33, 33)" stroke="none" stroke-width="1px">300k</text><text x="249.1113333333333" y="0" dx="0em" dy="0.95em" style="text-anchor: middle; visibility: hidden; font-family: Roboto, sans-serif; font-size: 12px; font-weight: 200;" fill="rgb(33, 33, 33)" stroke="none" stroke-width="1px">350k</text><text x="280.25025" y="0" dx="0em" dy="0.95em" style="text-anchor: middle; visibility: inherit; font-family: Roboto, sans-serif; font-size: 12px; font-weight: 200;" fill="rgb(33, 33, 33)" stroke="none" stroke-width="1px">400k</text><text x="311.38916666666665" y="0" dx="0em" dy="0.95em" style="text-anchor: middle; visibility: hidden; font-family: Roboto, sans-serif; font-size: 12px; font-weight: 200;" fill="rgb(33, 33, 33)" stroke="none" stroke-width="1px">450k</text><text x="342.5280833333333" y="0" dx="0em" dy="0.95em" style="text-anchor: middle; visibility: inherit; font-family: Roboto, sans-serif; font-size: 12px; font-weight: 200;" fill="rgb(33, 33, 33)" stroke="none" stroke-width="1px">500k</text><text x="373.667" y="0" dx="0em" dy="0.95em" style="text-anchor: middle; visibility: hidden; font-family: Roboto, sans-serif; font-size: 12px; font-weight: 200;" fill="rgb(33, 33, 33)" stroke="none" stroke-width="1px">550k</text></g><line x1="0" y1="0" x2="373.667" y2="0" fill="rgb(0, 0, 0)" stroke="rgb(204, 204, 204)" stroke-width="1px"></line></g></g></g></g></svg>