<svg viewBox="0 0 443.66668701171875 400" xmlns="http://www.w3.org/2000/svg"><g><g><g><g><g><line x1="40" y1="377" x2="35" y2="377" style="visibility: inherit;" fill="rgb(0, 0, 0)" stroke="rgb(204, 204, 204)" stroke-width="1px"></line><line x1="40" y1="335.11111111111114" x2="35" y2="335.11111111111114" style="visibility: inherit;" fill="rgb(0, 0, 0)" stroke="rgb(204, 204, 204)" stroke-width="1px"></line><line x1="40" y1="293.2222222222222" x2="35" y2="293.2222222222222" style="visibility: inherit;" fill="rgb(0, 0, 0)" stroke="rgb(204, 204, 204)" stroke-width="1px"></line><line x1="40" y1="251.33333333333331" x2="35" y2="251.33333333333331" style="visibility: inherit;" fill="rgb(0, 0, 0)" stroke="rgb(204, 204, 204)" stroke-width="1px"></line><line x1="40" y1="209.44444444444446" x2="35" y2="209.44444444444446" style="visibility: inherit;" fill="rgb(0, 0, 0)" stroke="rgb(204, 204, 204)" stroke-width="1px"></line><line x1="40" y1="167.55555555555551" x2="35" y2="167.55555555555551" style="visibility: inherit;" fill="rgb(0, 0, 0)" stroke="rgb(204, 204, 204)" stroke-width="1px"></line><line x1="40" y1="125.66666666666669" x2="35" y2="125.66666666666669" style="visibility: inherit;" fill="rgb(0, 0, 0)" stroke="rgb(204, 204, 204)" stroke-width="1px"></line><line x1="40" y1="83.77777777777777" x2="35" y2="83.77777777777777" style="visibility: inherit;" fill="rgb(0, 0, 0)" stroke="rgb(204, 204, 204)" stroke-width="1px"></line><line x1="40" y1="41.88888888888891" x2="35" y2="41.88888888888891" style="visibility: inherit;" fill="rgb(0, 0, 0)" stroke="rgb(204, 204, 204)" stroke-width="1px"></line><line x1="40" y1="0" x2="35" y2="0" style="visibility: inherit;" fill="rgb(0, 0, 0)" stroke="rgb(204, 204, 204)" stroke-width="1px"></line></g><g transform="translate(30, 0)"><text x="0" y="377" dx="0em" dy="0.3em" style="text-anchor: end; visibility: hidden; font-family: Roboto, sans-serif; font-size: 12px; font-weight: 200;" fill="rgb(33, 33, 33)" stroke="none" stroke-width="1px">0.6</text><text x="0" y="335.11111111111114" dx="0em" dy="0.3em" style="text-anchor: end; visibility: inherit; font-family: Roboto, sans-serif; font-size: 12px; font-weight: 200;" fill="rgb(33, 33, 33)" stroke="none" stroke-width="1px">0.7</text><text x="0" y="293.2222222222222" dx="0em" dy="0.3em" style="text-anchor: end; visibility: inherit; font-family: Roboto, sans-serif; font-size: 12px; font-weight: 200;" fill="rgb(33, 33, 33)" stroke="none" stroke-width="1px">0.8</text><text x="0" y="251.33333333333331" dx="0em" dy="0.3em" style="text-anchor: end; visibility: inherit; font-family: Roboto, sans-serif; font-size: 12px; font-weight: 200;" fill="rgb(33, 33, 33)" stroke="none" stroke-width="1px">0.9</text><text x="0" y="209.44444444444446" dx="0em" dy="0.3em" style="text-anchor: end; visibility: inherit; font-family: Roboto, sans-serif; font-size: 12px; font-weight: 200;" fill="rgb(33, 33, 33)" stroke="none" stroke-width="1px">1</text><text x="0" y="167.55555555555551" dx="0em" dy="0.3em" style="text-anchor: end; visibility: inherit; font-family: Roboto, sans-serif; font-size: 12px; font-weight: 200;" fill="rgb(33, 33, 33)" stroke="none" stroke-width="1px">1.1</text><text x="0" y="125.66666666666669" dx="0em" dy="0.3em" style="text-anchor: end; visibility: inherit; font-family: Roboto, sans-serif; font-size: 12px; font-weight: 200;" fill="rgb(33, 33, 33)" stroke="none" stroke-width="1px">1.2</text><text x="0" y="83.77777777777777" dx="0em" dy="0.3em" style="text-anchor: end; visibility: inherit; font-family: Roboto, sans-serif; font-size: 12px; font-weight: 200;" fill="rgb(33, 33, 33)" stroke="none" stroke-width="1px">1.3</text><text x="0" y="41.88888888888891" dx="0em" dy="0.3em" style="text-anchor: end; visibility: inherit; font-family: Roboto, sans-serif; font-size: 12px; font-weight: 200;" fill="rgb(33, 33, 33)" stroke="none" stroke-width="1px">1.4</text><text x="0" y="0" dx="0em" dy="0.3em" style="text-anchor: end; visibility: hidden; font-family: Roboto, sans-serif; font-size: 12px; font-weight: 200;" fill="rgb(33, 33, 33)" stroke="none" stroke-width="1px">1.5</text></g><line x1="40" y1="0" x2="40" y2="377" fill="rgb(0, 0, 0)" stroke="rgb(204, 204, 204)" stroke-width="1px"></line></g></g><g transform="translate(40, 0)" clip-path="url(#clip_0)"><clipPath id="clip_0"><rect width="403" height="377"></rect></clipPath><g><g><g><line x1="0" y1="0" x2="0" y2="377" fill="rgb(0, 0, 0)" stroke="rgb(66, 66, 66)" stroke-width="1px" opacity="0.25"></line><line x1="33.63891666666666" y1="0" x2="33.63891666666666" y2="377" fill="rgb(0, 0, 0)" stroke="rgb(66, 66, 66)" stroke-width="1px" opacity="0.25"></line><line x1="67.27783333333332" y1="0" x2="67.27783333333332" y2="377" fill="rgb(0, 0, 0)" stroke="rgb(66, 66, 66)" stroke-width="1px" opacity="0.25"></line><line x1="100.91675" y1="0" x2="100.91675" y2="377" fill="rgb(0, 0, 0)" stroke="rgb(66, 66, 66)" stroke-width="1px" opacity="0.25"></line><line x1="134.55566666666664" y1="0" x2="134.55566666666664" y2="377" fill="rgb(0, 0, 0)" stroke="rgb(66, 66, 66)" stroke-width="1px" opacity="0.25"></line><line x1="168.19458333333333" y1="0" x2="168.19458333333333" y2="377" fill="rgb(0, 0, 0)" stroke="rgb(66, 66, 66)" stroke-width="1px" opacity="0.25"></line><line x1="201.8335" y1="0" x2="201.8335" y2="377" fill="rgb(0, 0, 0)" stroke="rgb(66, 66, 66)" stroke-width="1px" opacity="0.25"></line><line x1="235.47241666666667" y1="0" x2="235.47241666666667" y2="377" fill="rgb(0, 0, 0)" stroke="rgb(66, 66, 66)" stroke-width="1px" opacity="0.25"></line><line x1="269.1113333333333" y1="0" x2="269.1113333333333" y2="377" fill="rgb(0, 0, 0)" stroke="rgb(66, 66, 66)" stroke-width="1px" opacity="0.25"></line><line x1="302.75025" y1="0" x2="302.75025" y2="377" fill="rgb(0, 0, 0)" stroke="rgb(66, 66, 66)" stroke-width="1px" opacity="0.25"></line><line x1="336.38916666666665" y1="0" x2="336.38916666666665" y2="377" fill="rgb(0, 0, 0)" stroke="rgb(66, 66, 66)" stroke-width="1px" opacity="0.25"></line><line x1="370.0280833333333" y1="0" x2="370.0280833333333" y2="377" fill="rgb(0, 0, 0)" stroke="rgb(66, 66, 66)" stroke-width="1px" opacity="0.25"></line><line x1="403.667" y1="0" x2="403.667" y2="377" fill="rgb(0, 0, 0)" stroke="rgb(66, 66, 66)" stroke-width="1px" opacity="0.25"></line></g><g><line x1="0" y1="377" x2="403.667" y2="377" fill="rgb(0, 0, 0)" stroke="rgb(66, 66, 66)" stroke-width="1px" opacity="0.25"></line><line x1="0" y1="335.11111111111114" x2="403.667" y2="335.11111111111114" fill="rgb(0, 0, 0)" stroke="rgb(66, 66, 66)" stroke-width="1px" opacity="0.25"></line><line x1="0" y1="293.2222222222222" x2="403.667" y2="293.2222222222222" fill="rgb(0, 0, 0)" stroke="rgb(66, 66, 66)" stroke-width="1px" opacity="0.25"></line><line x1="0" y1="251.33333333333331" x2="403.667" y2="251.33333333333331" fill="rgb(0, 0, 0)" stroke="rgb(66, 66, 66)" stroke-width="1px" opacity="0.25"></line><line x1="0" y1="209.44444444444446" x2="403.667" y2="209.44444444444446" fill="rgb(0, 0, 0)" stroke="rgb(66, 66, 66)" stroke-width="1px" opacity="0.25"></line><line x1="0" y1="167.55555555555551" x2="403.667" y2="167.55555555555551" fill="rgb(0, 0, 0)" stroke="rgb(66, 66, 66)" stroke-width="1px" opacity="0.25"></line><line x1="0" y1="125.66666666666669" x2="403.667" y2="125.66666666666669" fill="rgb(0, 0, 0)" stroke="rgb(66, 66, 66)" stroke-width="1px" opacity="0.25"></line><line x1="0" y1="83.77777777777777" x2="403.667" y2="83.77777777777777" fill="rgb(0, 0, 0)" stroke="rgb(66, 66, 66)" stroke-width="1px" opacity="0.25"></line><line x1="0" y1="41.88888888888891" x2="403.667" y2="41.88888888888891" fill="rgb(0, 0, 0)" stroke="rgb(66, 66, 66)" stroke-width="1px" opacity="0.25"></line><line x1="0" y1="0" x2="403.667" y2="0" fill="rgb(0, 0, 0)" stroke="rgb(66, 66, 66)" stroke-width="1px" opacity="0.25"></line></g></g></g><g><g><line x1="0" y1="628.3333333333333" x2="403.667" y2="628.3333333333333" fill="rgb(0, 0, 0)" stroke="rgb(153, 153, 153)" stroke-width="1.5px"></line></g></g><g><g><line x1="33.63891666666666" y1="0" x2="33.63891666666666" y2="377" fill="rgb(0, 0, 0)" stroke="rgb(153, 153, 153)" stroke-width="1.5px"></line></g></g><g><g><g><g><g><path stroke="rgb(255, 112, 67)" stroke-width="2px" d="M33.98337917333333,47.747475306193046L34.32784168,47.79536793930357L34.672304186666665,47.805171083774724L35.01676669333333,47.827572498428545L35.3612292,47.806892915972455L35.70569170666666,47.83833664366527L36.050154213333336,47.84798863528203L36.39461672,47.883726997627726L36.73907922666667,47.91694711821318L37.083541733333334,47.95635940162292L37.42800423999999,47.989698344630014L37.77246674666666,48.18353414706147L38.11692925333333,48.30552214554203L38.46139176,48.39832685993744L38.805854266666664,48.55497887208701L39.15031677333333,48.65821056820151L39.494779279999996,48.76769819042827L39.83924178666666,48.74241168346822L40.183704293333335,48.690109079759274L40.5281668,48.70439316442112L40.87262930666667,48.770274030571464L41.21709181333333,48.90267833589799L41.56155432,48.9314462727697L41.90601682666666,49.01115691597239L42.25047933333333,49.265827270998194L42.59494184,49.34639981757662L42.93940434666666,49.59639419956822L43.28386685333333,49.89722170495669L43.628329359999995,50.20062559091488L43.97279186666666,50.495469708544995L44.317254373333334,51.738958407446226L44.66171688,51.85758895548031L45.006179386666666,51.77811594902138L45.35064189333333,52.459471333449464L45.6951044,53.91596575913225L46.039566906666664,54.214799250177194L46.38402941333333,54.85071369027362L46.728491919999996,54.69533691729658L47.07295442666666,55.2398308862938L47.41741693333333,55.593885359288016L47.761879439999994,55.411262261854624L48.10634194666667,55.33856491886716L48.45080445333333,54.82082963864844L48.79526696,55.02933769510396L49.139729466666665,55.21508017270329L49.48419197333333,55.859607061504526L49.82865448,56.58604533471373L50.17311698666666,56.6587684380698L50.51757949333332,56.02993730725838L50.862041999999995,56.0921204281939L51.20650450666667,55.89899412435013L51.55096701333333,56.58510602968611L51.89542952,56.3717923851427L52.23989202666666,56.05212566878978L52.58435453333333,55.971089751768055L52.92881703999999,55.51638657459111L53.273279546666664,55.01108266235998L53.61774205333333,55.90799196760179L53.962204559999996,57.17312076710534L54.30666706666666,57.13710005880768L54.65112957333333,56.81852474896425L54.995592079999994,56.99503836027491L55.34005458666667,57.10410512739388L55.684517093333326,57.89282343966861L56.0289796,57.85364288477653L56.37344210666666,59.21962933387405L56.71790461333333,59.09933257625284L57.062367120000005,60.531761117902406L57.406829626666664,60.55806412292981L57.75129213333333,60.46410571130223L58.095754639999996,60.215686146058054L58.44021714666666,61.14595262807557L58.78467965333333,61.1479784979213L59.129142159999994,61.057249437600106L59.47360466666667,61.433232168223604L59.818067173333326,62.17498954430355L60.16252968,61.40284808012478L60.50699218666666,61.928194824770266L60.85145469333333,61.57327330950738L61.195917200000004,62.02667812520903L61.54037970666666,62.45912420770313L61.884842213333336,63.859162224526635L62.229304719999995,65.4217346340716L62.57376722666666,65.81452508284768L62.91822973333333,66.82641163307702L63.26269223999999,68.2395167995005L63.607154746666666,70.23282026109338L63.951617253333325,70.47669000717303L64.29607976,72.10809364265404L64.64054226666666,72.11555757227674L64.98500477333333,73.41535320441174L65.32946728,73.97210317478968L65.67392978666666,76.68336321312496L66.01839229333333,78.19346044007601L66.3628548,78.67380101574877L66.70731730666667,78.18935004185455L67.05177981333334,78.76702056682484L67.39624232,80.05436152648053L67.74070482666667,80.84690888651006L68.08516733333333,81.279052892776L68.42962984,81.46296116469647L68.77409234666666,79.64674002425086L69.11855485333332,79.10451251801942L69.46301736,81.15069372344283L69.80747986666665,85.43811527684544L70.15194237333333,89.23174779737438L70.49640487999999,89.78791269515544L70.84086738666666,90.86170431146522L71.18532989333333,95.972074575115L71.52979239999999,97.18173302932138L71.87425490666666,100.75072816083758L72.21871741333332,100.00201480004337L72.56317992,100.00935156816223L72.90764242666665,101.9740948334558L73.25210493333333,102.06767705221665L73.59656744,107.70813188380168L73.94102994666666,110.02746489330023L74.28549245333333,110.53944282014922L74.62995495999999,109.79589026503375L74.97441746666667,107.98231626563063L75.31887997333334,109.59681911279485L75.66334248,108.31494460788758L76.00780498666667,107.88648245948973L76.35226749333333,103.70062945928183L76.69673,106.27021888664328L77.04119250666666,110.35142350818637L77.38565501333332,114.65800145621803L77.73011752,116.555418955389L78.07458002666665,118.16378923078236L78.41904253333333,114.66500981035914L78.76350503999998,113.4489200609043L79.10796754666666,114.93049778876774L79.45243005333333,115.63025587734518L79.79689255999999,120.03848486137454L80.14135506666666,121.24387162798611L80.48581757333332,120.88814569298644L80.83028008,118.81769702549795L81.17474258666667,118.66447594507711L81.51920509333333,122.25980958467302L81.8636676,125.3842044756357L82.20813010666666,136.07959995597733L82.55259261333333,137.61040157821674L82.89705511999999,138.1576633247499L83.24151762666666,138.12980793342004L83.58598013333334,142.11087601426254L83.93044264,149.13656872265227L84.27490514666667,150.09869398804545L84.61936765333333,153.4164774499372L84.96383016,150.2684580705908L85.30829266666666,150.26259406814816L85.65275517333333,157.56507950774306L85.99721767999999,148.78064687938615L86.34168018666665,148.63203170376278L86.68614269333332,145.27027600887132L87.0306052,146.39109791269763L87.37506770666666,140.6600005142158L87.71953021333333,144.53213818682448L88.06399271999999,143.81854958075328L88.40845522666666,150.87683268706914L88.75291773333332,155.57247623526942L89.09738023999999,156.6500297028835L89.44184274666667,156.35593319710608L89.78630525333332,144.68725138932618L90.13076776,137.3599372651469L90.47523026666666,131.91956855686317L90.81969277333333,124.56243410857694L91.16415528,121.19121380165868L91.50861778666666,119.7629645676603L91.85308029333333,124.87426438733982L92.1975428,133.33713775368372L92.54200530666667,138.32568722738625L92.88646781333333,145.51914674349712L93.23093032,154.52572828287026L93.57539282666666,159.8615931627467L93.91985533333333,162.20469582871183L94.26431783999999,163.45609816992925L94.60878034666666,171.32815695945743L94.95324285333332,178.721102653242L95.29770536,176.12178499649528L95.64216786666665,163.2917316309058L95.98663037333333,156.8787441232897L96.33109287999999,146.8294121027106L96.67555538666666,141.78370128791397L97.02001789333332,131.07981303679793L97.36448039999999,134.0444891165134L97.70894290666666,137.5488614467712L98.05340541333332,143.13098718774603L98.39786792,154.8622456832701L98.74233042666665,154.84343214525975L99.08679293333333,153.30271510688056L99.43125544,145.7838762838619L99.77571794666666,139.541113916002L100.12018045333333,142.95500789945459L100.46464295999999,152.33114456432565L100.80910546666667,162.8312823973706L101.15356797333334,165.36009021699275L101.49803048,159.01422016378126L101.84249298666666,153.13384600423248L102.18695549333333,146.36384411291561L102.53141799999999,147.9045955296713L102.87588050666666,149.47785056102592L103.22034301333333,139.31666975533878L103.56480552,134.02563711047267L103.90926802666665,136.68744498124195L104.25373053333331,143.55135692714813L104.59819304,149.80476965015097L104.94265554666666,145.43194004718234L105.28711805333332,151.11574970390464L105.63158056,152.95384908176072L105.97604306666666,152.0561429916523L106.32050557333332,148.72413578079284L106.66496807999998,146.80691513477834L107.00943058666667,151.88225876018302L107.35389309333333,158.00643739850244L107.69835559999999,159.93671069831345L108.04281810666667,164.6520831408195L108.38728061333333,163.01952140418592L108.73174311999999,164.88668079410797L109.07620562666668,162.38695584514196L109.42066813333334,153.13289598337434L109.76513064,141.64369505187702L110.10959314666665,134.50062854658594L110.45405565333333,128.96988587691376L110.79851816,130.92454477356506L111.14298066666666,134.6162175972962L111.48744317333333,144.82372435313218L111.83190567999999,156.0459348103417L112.17636818666665,161.98109174680414L112.52083069333331,160.36551068358517L112.8652932,157.7155514925818L113.20975570666666,155.30893409662215L113.55421821333331,156.74325024439597L113.89868072,152.16075164148023L114.24314322666666,155.85709612342015L114.58760573333332,166.5273277499969L114.93206823999998,170.90044976168952L115.27653074666667,170.96350546558207L115.62099325333332,161.92554141748371L115.96545575999998,160.35938976911703L116.30991826666667,158.37192906357927L116.65438077333333,160.48575368521355L116.99884327999999,169.55316744365575L117.34330578666668,171.12143507013622L117.68776829333333,175.76513219586528L118.0322308,186.76760508438701L118.37669330666665,190.12229743106934L118.72115581333333,192.28814366164667L119.06561832,187.11434302781203L119.41008082666666,191.95432660700064L119.75454333333333,194.46625005273125L120.09900583999999,190.48273339680586L120.44346834666665,198.13424766914974L120.78793085333332,192.75405909072617L121.13239336,179.57895374440113L121.47685586666665,178.05962953039653L121.82131837333331,180.88726305496857L122.16578088,177.61702615702603L122.51024338666666,182.7451758603273L122.85470589333332,186.93406880450385L123.1991684,188.24021842896565L123.54363090666666,190.48051530105775L123.88809341333332,186.67582840350278L124.23255591999998,191.06853375510894L124.57701842666667,193.09808987929577L124.92148093333333,193.3249053130662L125.26594343999999,193.80436407181494L125.61040594666667,185.72627858575373L125.95486845333333,183.8228097632994L126.29933095999999,184.89747409198262L126.64379346666665,185.34190827977577L126.98825597333332,190.27661165915586L127.33271848,198.03432980582335L127.67718098666666,207.15495085267193L128.02164349333333,210.90230931258657L128.366106,202.16459695454944L128.71056850666665,206.74320804881L129.05503101333332,201.63001284930388L129.39949352,195.0104142716457L129.74395602666667,192.83736891876725L130.0884185333333,186.64532014500705L130.43288104,195.48694967693507L130.77734354666666,193.6855914870349L131.12180605333333,207.6784804141899L131.46626856,213.83336905976623L131.81073106666665,209.74194258152215L132.15519357333332,210.34008149475918L132.49965608,208.98616897235323L132.84411858666667,212.0430495406112L133.1885810933333,212.77998542481063L133.53304359999998,211.88887668378143L133.87750610666666,204.53542459083104L134.22196861333333,201.61613426740075L134.56643111999998,198.35604391120555L134.91089362666665,196.0926102919702L135.25535613333332,194.97373537676796L135.59981864,190.68913401472093L135.94428114666664,185.15829734994688L136.28874365333334,190.74723456974056L136.63320616,198.39982310884366L136.97766866666666,195.5120599902114L137.32213117333333,193.24361934698575L137.66659368,200.31789862088448L138.01105618666665,202.28719141343026L138.35551869333332,201.02770489808597L138.6999812,199.47232442091973L139.04444370666667,201.49239971750194L139.3889062133333,207.33515250513986L139.73336872,216.581479966152L140.07783122666666,211.82530559423196L140.42229373333333,208.11985439822277L140.76675623999998,200.05011098724157L141.11121874666665,195.8252912226078L141.45568125333332,197.60877984282325L141.80014375999997,195.93316954486457L142.14460626666667,197.38830237394365L142.48906877333332,188.6112153797588L142.83353128,193.1025918369117L143.17799378666666,192.82309592901794L143.52245629333333,187.0864923324757L143.86691879999998,188.93300647340178L144.21138130666665,187.04297867665184L144.55584381333333,185.07172494639565L144.90030632,193.07281613377035L145.24476882666664,193.27710223218548L145.58923133333334,202.2413200411773L145.93369384,206.07031284649352L146.27815634666666,203.8640953217763L146.6226188533333,208.70899129383383L146.96708136,205.33145847359484L147.31154386666665,210.62608864559513L147.65600637333333,221.95764475918682L148.00046888,217.14480410547282L148.34493138666667,212.03188633922466L148.68939389333332,206.43631109558376L149.0338564,198.57726003738L149.37831890666666,203.201651801357L149.7227814133333,209.6186754053472L150.06724391999998,201.78829650071114L150.41170642666665,199.09282389471934L150.75616893333333,197.68638262772967L151.10063143999997,199.57830771718972L151.44509394666667,203.79141713514983L151.78955645333332,203.56882532491932L152.13401896,202.25246256233788L152.47848146666664,198.15811845747197L152.82294397333334,200.09759911245644L153.16740647999998,199.39107125543924L153.51186898666666,211.35976362439948L153.85633149333333,210.7316807254339L154.200794,213.52420266286342L154.54525650666665,209.48033456027522L154.88971901333332,213.8404393499614L155.23418152,208.6764523418939L155.57864402666667,196.16796684110855L155.9231065333333,191.71824886204774L156.26756903999998,198.88490289141242L156.61203154666666,198.91537762645902L156.95649405333333,192.71745262238045L157.30095656,192.35765742308323L157.64541906666665,200.02596251721465L157.98988157333332,200.6129415108961L158.33434408,191.79294812762672L158.67880658666667,199.9611903721471L159.0232690933333,209.48143445806983L159.36773159999998,209.94847362192007L159.71219410666666,207.82471569143897L160.05665661333333,209.46037265598778L160.40111911999998,211.25296759838267L160.74558162666665,221.8459450548703L161.09004413333332,219.39411083686542L161.43450664,212.1285803463998L161.77896914666664,214.06646179990733L162.12343165333334,208.16450128114167L162.46789416,203.8925032989037L162.81235666666666,206.50965441998326L163.15681917333333,202.62676609555604L163.50128168,204.7768985776086L163.84574418666665,207.21228341822467L164.19020669333332,197.88507618535684L164.5346692,210.7520953188552L164.87913170666667,214.66898191783454L165.2235942133333,208.56080421903084L165.56805672,203.45602314188827L165.91251922666666,201.16783620905085L166.2569817333333,207.3586390009852L166.60144423999998,210.72521935397506L166.94590674666665,216.42338980014654L167.29036925333332,205.26956057021417L167.63483175999997,202.75579360879206L167.97929426666667,205.5920225172751L168.32375677333332,208.71431672573388L168.66821928,208.90711067358882L169.01268178666663,202.5659469153739L169.35714429333333,203.4226209653969L169.70160679999998,212.56827003136297L170.04606930666665,213.88510638917506L170.39053181333333,212.19972452897045L170.73499432,214.63777671900826L171.07945682666664,214.10131521316418L171.42391933333334,214.22010784091512L171.76838184,214.13826275273055L172.11284434666666,213.1191335358913L172.4573068533333,214.820942078174L172.80176936,207.9646299317947L173.14623186666665,206.05050698389192L173.49069437333333,209.93894625263292L173.83515688,211.00310672226777L174.17961938666664,214.7108490741894L174.52408189333332,216.166777905052L174.8685444,216.4703697692663L175.21300690666666,215.84488444286544L175.5574694133333,221.8064783264801L175.90193191999998,218.26093024707833L176.24639442666665,222.65920050432007L176.59085693333333,225.08085254919712L176.93531943999997,222.5224666268633L177.27978194666667,218.26478381534065L177.62424445333332,216.372989389107L177.96870696,210.4273311250727L178.31316946666664,202.7518277450922L178.65763197333334,210.31591383856912L179.00209447999998,211.0330497410318L179.34655698666666,213.71168683585321L179.69101949333333,208.87136995860703L180.035482,213.23751537851754L180.37994450666665,212.3144268386336L180.72440701333332,217.05215002879567L181.06886952,211.2525976220434L181.41333202666667,210.9865198368773L181.7577945333333,208.41946981296522L182.10225703999998,209.43226845143877L182.44671954666666,212.2643972835915L182.79118205333333,213.94263019020386L183.13564456,211.84975155482513L183.48010706666665,214.78248834510904L183.82456957333332,218.6263765327553L184.16903207999997,216.93507448520654L184.51349458666667,217.06451593162276L184.8579570933333,218.2365594657705L185.20241959999998,220.6572906998653L185.54688210666666,227.3007365533881L185.89134461333333,229.83542975153242L186.23580711999998,224.65289848285857L186.58026962666665,219.33379917443628L186.92473213333332,223.5564890038633L187.26919464,221.34306133628527L187.61365714666664,219.76348563670004L187.95811965333334,223.4879634571627L188.30258216,217.67542386872984L188.64704466666666,224.83272862102388L188.9915071733333,237.76008650527405L189.33596968,233.9886527746734L189.68043218666665,226.64596392435442L190.02489469333332,221.97845222184245L190.3693572,229.09977564452268L190.71381970666667,225.6853439233801L191.0582822133333,216.34642993060714L191.40274472,216.83512028785995L191.74720722666666,206.97766413605873L192.0916697333333,206.53297161102955L192.43613223999998,208.41312186152643L192.78059474666665,206.91833161846287L193.12505725333332,217.45218698468773L193.46951975999997,215.12536029078663L193.81398226666667,217.23895164374665L194.15844477333331,221.63436952783223L194.50290728,220.99383755028947L194.84736978666663,231.9066186374479L195.19183229333333,240.80061226246758L195.53629479999998,244.5493294692048L195.88075730666665,247.22531024624567L196.22521981333333,239.33886778202995L196.56968232,232.89261254672186L196.91414482666664,230.14473154825993L197.25860733333334,245.81830453037327L197.60306984,244.55095925014143L197.94753234666666,251.72593437971176L198.2919948533333,249.5209292028302L198.63645735999998,234.8191283926373L198.98091986666665,226.76678912208519L199.32538237333333,229.32166127799144L199.66984488,244.35190214328986L200.01430738666664,245.31145161733926L200.35876989333332,234.883846052715L200.7032324,236.92761490171543L201.04769490666666,242.0195806340704L201.3921574133333,248.28119873209897L201.73661991999998,246.89143097594498L202.08108242666665,239.56670497564764L202.4255449333333,239.4788823761374L202.77000743999997,245.13447574980566L203.11446994666667,250.59440896985635L203.4589324533333,238.07664858320413L203.80339496,241.9098529789297L204.14785746666666,234.06527928469788L204.4923199733333,228.83055726178722L204.83678247999998,230.7071935456103L205.18124498666668,246.53710703492567L205.5257074933333,258.75571042234407L205.87017,246.81429653515792L206.21463250666667,232.50992154830976L206.55909501333332,222.00665276024L206.90355752,215.96018173483685L207.24802002666667,224.6130533955756L207.5924825333333,224.44052013914984L207.93694503999998,229.20618662439298L208.28140754666663,226.85288749331147L208.6258700533333,226.36385428177687L208.97033256,213.8257989240011L209.31479506666665,218.50276045041915L209.65925757333332,215.41130264151698L210.00372008,216.54834553059877L210.34818258666664,242.12961551534408L210.6926450933333,238.8924864382578L211.0371076,231.6865712546095L211.38157010666663,228.87434552793863L211.72603261333333,228.93730763714237L212.07049512,229.42046610446525L212.41495762666665,229.746775400918L212.75942013333332,225.93464112573244L213.10388263999997,222.01602746231325L213.44834514666664,221.87874859749334L213.79280765333334,223.89943757748688L214.13727015999996,221.10940125100834L214.48173266666666,222.0997921879083L214.82619517333333,215.36062627174377L215.17065767999998,224.2469994042796L215.51512018666665,222.35925598333336L215.85958269333332,213.63731345510922L216.20404519999997,218.81427560589805L216.54850770666664,215.9277485897143L216.89297021333334,216.42175349676603L217.23743272,247.72888084594243L217.58189522666666,254.43058064243505L217.92635773333333,254.3136858632425L218.27082023999998,251.89744853224335L218.61528274666665,256.8769670810991L218.9597452533333,252.2174829023965L219.30420775999997,246.43045017631792L219.64867026666667,246.0586862725921L219.9931327733333,248.5319591772367L220.33759528,243.94824603010963L220.68205778666666,239.50719373916996L221.0265202933333,236.54610066907125L221.37098279999998,233.69265147711192L221.71544530666668,256.17213469530805L222.0599078133333,258.4631358519902L222.40437032,248.2126287451525L222.74883282666667,241.03448987321713L223.09329533333332,232.3655965352124L223.43775784,225.2564028980623L223.78222034666666,230.38749798760227L224.1266828533333,235.85494948541435L224.47114535999998,235.16114317146577L224.81560786666662,236.00097704433804L225.16007037333333,243.88419701320518L225.50453288,243.72697850846814L225.84899538666664,237.95554489886277L226.19345789333332,230.98132685379775L226.5379204,226.5721130671403L226.88238290666663,237.89800329901263L227.2268454133333,234.9029630796322L227.57130792,230.88735506196005L227.91577042666663,238.37502218084512L228.26023293333333,257.12502891188564L228.60469544,261.4128045213017L228.94915794666665,247.0495904106461L229.29362045333332,230.8285216639546L229.63808296000002,227.6265738600574L229.98254546666664,230.71012548481448L230.32700797333334,237.61063772266124L230.67147047999995,231.5574357822241L231.01593298666666,226.57618260534338L231.36039549333333,221.249000846101L231.70485799999997,230.22957540179533L232.04932050666665,232.32844598924305L232.39378301333332,249.71370324646176L232.73824551999996,243.02145465133194L233.08270802666667,245.66375895120086L233.42717053333334,242.75461895933557L233.77163303999998,238.87889867216163L234.11609554666666,233.2884603892193L234.46055805333333,222.2948346334064L234.80502055999997,229.72699029505222L235.14948306666665,220.47344886538957L235.49394557333335,220.80912005991686L235.83840807999997,223.33686426072444L236.18287058666667,217.09881343086298L236.52733309333328,211.81130539383685L236.87179559999998,222.26671638851076L237.21625810666666,220.9279935489215L237.5607206133333,229.76139770218623L237.90518311999998,233.45090792143702L238.24964562666668,238.34505772023317L238.5941081333333,243.15420701231537L238.93857064,244.4059731516812L239.28303314666667,239.29144696044094L239.6274956533333,235.02392291915262L239.97195815999999,233.34177846826913L240.31642066666666,227.23411958505235L240.6608831733333,230.2133308810794L241.00534567999998,224.11336409367428L241.34980818666668,229.97155119539457L241.69427069333332,251.49423585798817L242.0387332,236.4496283780984L242.38319570666664,244.1990038552983L242.7276582133333,237.48932461413924L243.07212072,227.65355929890887L243.41658322666663,234.77532172124893L243.7610457333333,240.47155841767983L244.10550824,251.6698163775697L244.44997074666662,247.5634908299995L244.79443325333332,243.51954678219832L245.13889576,250.46783395247593L245.48335826666664,262.83127411409293L245.82782077333331,269.38624360556497L246.17228328000002,263.42007118443917L246.51674578666663,248.53496497536705L246.86120829333333,240.49867476130927L247.2056708,228.82803574284026L247.55013330666665,222.01369308095056L247.89459581333332,222.07041040681068L248.23905831999997,238.03187140497488L248.58352082666664,237.38519150606214L248.92798333333332,233.48505726386583L249.27244583999996,232.63320067233244L249.61690834666666,230.64012125151217L249.96137085333334,229.4969545464994L250.30583335999998,233.8117947839274L250.65029586666665,236.35358274217015L250.99475837333333,242.6525859135293L251.33922087999997,243.69117033426025L251.68368338666664,245.06555416859675L252.02814589333335,252.0892524222025L252.37260839999996,240.84124437368024L252.71707090666666,236.1692549850647L253.0615334133333,228.89462108316414L253.40599591999998,226.59570005065027L253.75045842666665,228.01433551470063L254.0949209333333,231.36649879417135L254.43938343999997,228.688652046293L254.78384594666667,230.22623791009704L255.1283084533333,221.19117572327448L255.47277096,219.09400280872177L255.81723346666666,219.35187760775273L256.1616959733333,228.2620493459363L256.50615848,227.4855357244234L256.8506209866667,223.8721795672488L257.1950834933333,225.13313277598988L257.539546,226.30242648788237L257.88400850666665,248.05738118421667L258.2284710133333,248.05247882028468L258.57293352,237.20756777182456L258.9173960266666,229.0190780294138L259.26185853333334,222.3255777299871L259.60632104,233.2203253065305L259.9507835466666,241.32752885476899L260.2952460533333,264.14121869844865L260.63970856,258.99856296746367L260.98417106666665,248.0830189481577L261.3286335733333,238.3680121302955L261.67309608,239.0750182144113L262.0175585866666,234.89474343050753L262.36202109333334,233.76724712411382L262.7064836,232.2515915293839L263.05094610666663,233.32325680545006L263.3954086133333,230.7072051550267L263.73987112,238.9968174438518L264.08433362666665,240.43575497101145L264.4287961333333,237.02532997964917L264.77325863999994,253.57992167216258L265.11772114666667,270.3175965245138L265.46218365333334,283.2356022620831L265.80664615999996,280.62697052028994L266.15110866666663,279.7133805045593L266.4955711733333,263.66592157718765L266.84003368,262.62412131146874L267.18449618666665,274.6083052261708L267.5289586933333,301.6149488241542L267.8734212,323.79151099471375L268.21788370666667,311.70546820855714L268.56234621333334,303.35169862541954L268.90680871999996,281.40431444876776L269.25127122666663,270.77776696667445L269.59573373333336,259.0042685275563L269.94019624,276.37160721341957L270.28465874666665,284.57636106629514L270.62912125333327,291.18366150211L270.97358376,292.62283088956804L271.31804626666667,291.3869192765936L271.6625087733333,275.85130558319446L272.00697127999996,264.35925794134283L272.3514337866667,266.89803111446105L272.6958962933333,276.2350866993077L273.0403588,264.77247246979215L273.38482130666665,261.6839924846857L273.7292838133333,257.5129154225215L274.07374632,257.1625817581036L274.41820882666667,269.76405165400644L274.7626713333333,279.10869330339597L275.10713383999996,280.8778508000717L275.4515963466667,269.9870495413532L275.7960588533333,258.05376516930664L276.14052136,251.52108588055597L276.48498386666665,237.23717468837128L276.8294463733333,235.9410241521697L277.17390888,240.53265855419124L277.5183713866666,247.66840726075262L277.8628338933333,257.67962316227596L278.2072964,256.96116780102255L278.55175890666663,247.8098161070903L278.8962214133333,259.88919443264734L279.24068392,275.5761326555918L279.58514642666665,291.3193100408145L279.9296089333333,297.587612917396L280.27407144,277.38760276464933L280.6185339466666,279.5983031720868L280.96299645333335,266.40376844123233L281.30745896,257.71359079845325L281.65192146666664,246.2467734184202L281.9963839733333,242.53402592007473L282.34084648,239.03589028677104L282.68530898666666,248.43598656362474L283.0297714933333,246.8728058805535L283.37423399999994,248.35973657027452L283.7186965066667,246.05923869620003L284.06315901333335,257.12880614193057L284.40762151999996,241.1460504106855L284.75208402666664,237.53804555841816L285.0965465333333,241.88693114712325L285.44100904,253.66070853205332L285.78547154666666,262.8737807687538L286.12993405333333,267.0102679249125L286.47439655999995,271.4453707647843L286.8188590666667,265.181877325924L287.1633215733333,262.31302323770853L287.50778407999996,269.93026249957654L287.85224658666664,267.1991167361334L288.1967090933333,258.53054680824727L288.5411716,249.60675506973607L288.88563410666666,240.9083746093521L289.2300966133333,270.9202521886117L289.57455912,285.2734362883093L289.9190216266667,272.4263097614118L290.2634841333333,259.1601771578444L290.60794663999997,252.76333212391458L290.95240914666664,272.13799889532027L291.2968716533333,265.6451942512586L291.64133416,257.7664887499599L291.98579666666666,257.73552994825036L292.33025917333333,277.39748320462473L292.67472168,277.0473297389989L293.0191841866666,259.5361363693088L293.3636466933333,252.03437484215172L293.70810919999997,242.10491391074615L294.05257170666664,259.2292669411449L294.3970342133333,263.30764726369785L294.74149672,263.72009803287784L295.0859592266666,265.12036367226415L295.43042173333333,259.6286326231189L295.77488424,243.88948403219746L296.1193467466666,239.80309836307646L296.4638092533333,258.10964901151266L296.80827176,273.78357107605063L297.15273426666664,271.00473539358177L297.4971967733333,266.00601014701135L297.84165928,266.6546513108192L298.18612178666666,255.58659590040756L298.53058429333333,256.7626833193887L298.87504679999995,266.77188402094197L299.2195093066666,269.80404858107465L299.5639718133333,278.04184940734973L299.90843431999997,271.9985158913572L300.25289682666664,264.84633284327015L300.5973593333333,265.94521431637435L300.94182184,267.18653716315424L301.28628434666666,280.7486698928365L301.63074685333333,283.8518236961162L301.97520935999995,302.2940764698891L302.3196718666666,294.9722108665969L302.66413437333335,281.0051770808437L303.00859687999997,270.2697691291199L303.35305938666664,256.33578271239156L303.6975218933333,253.8591228806233L304.0419844,264.434948439526L304.38644690666666,262.18194689064904L304.7309094133333,262.2907954806026L305.07537191999995,250.97444436043412L305.4198344266667,242.14519132006498L305.7642969333333,238.77430413076812L306.10875944,260.12180345228563L306.45322194666664,264.4174292574142L306.7976844533333,270.37776809893643L307.14214696,276.643557523604L307.48660946666666,283.6292588362455L307.8310719733333,270.47801415657136L308.17553448,265.11485853599214L308.5199969866667,265.282574279041L308.8644594933333,265.97929035328576L309.208922,281.0689402021377L309.55338450666665,275.0079705220491L309.8978470133333,270.53432602937454L310.24230952,263.4159950597498L310.5867720266666,260.7708114444607L310.9312345333333,267.1246692304948L311.27569704,279.9288892369972L311.6201595466666,284.40597461385966L311.9646220533333,283.4309545706691L312.30908456,284.7426217693832L312.65354706666665,282.9431078119126L312.9980095733333,272.7004941796378L313.34247208,266.0191019432037L313.6869345866666,268.5698740683773L314.03139709333334,259.5359374167633L314.3758596,247.53456249459637L314.72032210666663,252.07592771762884L315.0647846133333,257.2710331916695L315.40924712,260.9931177622391L315.75370962666665,259.5328146767614L316.0981721333333,257.68391774689337L316.44263463999994,253.7374113580817L316.78709714666667,244.1682854693868L317.13155965333334,238.74755390736667L317.47602215999996,266.54129431915715L317.82048466666663,288.75665521588974L318.1649471733333,274.28683916067047L318.50940968,266.6302446315147L318.85387218666665,258.0046529451994L319.1983346933333,260.64428049214587L319.54279719999994,264.90957891141187L319.88725970666667,268.3328369095728L320.23172221333334,269.33467714731415L320.57618471999996,264.7563785259508L320.92064722666663,263.78691276290846L321.2651097333333,260.52566023158937L321.60957224,261.4519307844918L321.95403474666665,266.180228022053L322.29849725333327,279.07837950861335L322.64295976,285.0912157813079L322.98742226666667,289.78980480141627L323.3318847733333,288.7497951633281L323.67634727999996,297.87329581135265L324.02080978666663,292.4595184915547L324.3652722933333,273.30758314161466L324.7097348,257.5162698887787L325.05419730666665,257.39810997325986L325.3986598133333,248.50788103242613L325.74312232,248.24265546293978L326.08758482666667,250.5472002932018L326.4320473333333,280.52199514573067L326.77650983999996,278.14476987737015L327.12097234666663,270.8632861134745L327.4654348533333,267.9820152782973L327.80989736,263.97358249270104L328.15435986666665,263.71235508212266L328.4988223733333,277.71165825179713L328.84328488,271.06450163832443L329.1877473866666,267.3316475179639L329.5322098933333,281.29810805364485L329.8766724,271.02500015482764L330.22113490666663,266.14618806271704L330.5655974133333,257.98305030518776L330.91005992,261.00068852155454L331.25452242666665,281.7228441286611L331.5989849333333,286.5534966791551L331.94344744,284.4498001356631L332.2879099466666,276.8148498756666L332.63237245333335,260.5501843747958L332.97683495999996,249.76535483953083L333.32129746666664,268.8642587861927L333.6657599733333,273.35187472275385L334.01022248,292.13685985805915L334.35468498666665,286.61660058166353L334.6991474933333,274.5546928224761L335.04360999999994,265.5293597236402L335.3880725066666,262.9045565591153L335.73253501333335,254.4976831819694L336.07699751999996,247.5075861834507L336.42146002666664,245.46171162699616L336.7659225333333,279.6020066854652L337.11038504,303.1125820884253L337.45484754666666,290.4914157667707L337.79931005333333,283.0294197261336L338.14377255999995,267.3103600332739L338.4882350666667,257.0961872506238L338.8326975733333,270.4465582990402L339.17716007999996,272.40115994394347L339.52162258666664,267.0110974508246L339.8660850933333,257.4959748512772L340.2105476,248.421036756035L340.55501010666666,250.71777082935694L340.8994726133333,276.56042358543823L341.24393512,297.02536179386004L341.5883976266667,302.51779890119485L341.9328601333333,289.79314685866416L342.27732263999997,283.54885383411187L342.62178514666664,270.09604514253726L342.9662476533333,274.7175151473837L343.31071016,282.0126162249429L343.65517266666666,273.28641295152136L343.99963517333333,266.1909077622999L344.34409768,277.1336206559804L344.6885601866666,294.7651425779854L345.0330226933333,293.74085192616343L345.37748519999997,285.5481516559822L345.72194770666664,277.45099576933444L346.0664102133333,266.84358257446365L346.41087272,267.1063093779404L346.7553352266666,265.50975578753344L347.09979773333333,253.53526429209535L347.44426024,250.3741965141277L347.7887227466666,256.1400536198665L348.1331852533333,263.05685826335645L348.47764775999997,287.94303023643954L348.82211026666664,293.6266016772292L349.1665727733333,284.8161175426131L349.51103528,270.7594030735867L349.85549778666666,270.2570970341427L350.19996029333333,290.89391706074235L350.54442279999995,286.23738711516626L350.8888853066666,271.1090523097399L351.2333478133333,268.69288608144194L351.57781031999997,257.17966143667655L351.92227282666664,258.36017714469403L352.2667353333333,270.47927816074946L352.61119784,282.6031747134032L352.95566034666666,282.65525221331336L353.30012285333333,263.3041440767307L353.64458535999995,250.27086642234693L353.9890478666666,261.96211886013907L354.33351037333335,272.24854350109973L354.67797287999997,273.7203038058207L355.02243538666664,273.90763943238653L355.3668978933333,271.41173309963074L355.7113604,267.9733550193872L356.05582290666666,267.426814084118L356.4002854133333,259.89551596055196L356.74474791999995,257.24891341208837L357.0892104266667,261.2635753683682L357.4336729333333,257.69628032253695L357.77813543999997,259.5225184678728L358.12259794666664,263.44153345773304L358.4670604533333,279.0140061544752L358.81152296,283.60772853843423L359.15598546666666,280.11981571089785L359.5004479733333,273.17420398515844L359.84491047999995,273.6968675101301L360.1893729866667,273.35447391687046L360.5338354933333,274.88434467933416L360.878298,277.5191753904879L361.22276050666665,281.2656382171962L361.5672230133333,292.6391239067889L361.91168552,299.8762795087439L362.2561480266666,300.32704937608275L362.6006105333333,293.91574744179786L362.94507304,287.84645099326127L363.2895355466666,287.268861420472L363.6339980533333,276.9614006623773L363.97846056,270.1409606510711L364.32292306666665,267.4890515292165L364.6673855733333,267.9460523788336L365.01184808,276.1303299388085L365.3563105866666,285.28504514970416L365.70077309333334,298.5194484636317L366.0452356,298.15115158024423L366.38969810666663,291.612594708203L366.7341606133333,280.3977153421869L367.07862312,272.11560721678404L367.42308562666665,266.50033111340787L367.7675481333333,259.66633492484596L368.11201063999994,247.78676068851283L368.45647314666667,243.21935529919855L368.80093565333334,247.13782829953644L369.14539815999996,248.7140998901347L369.48986066666663,250.54737102018586L369.8343231733333,261.579238974853" style="fill: none;" fill="none"></path></g></g></g></g><g opacity="0.2"><g><g><g><path stroke="rgb(255, 112, 67)" stroke-width="2px" d="M33.98337917333333,47.747475306193046L34.32784168,47.83176634046765L34.672304186666665,47.81828376981946L35.01676669333333,47.867370314068246L35.3612292,47.76325490739612L35.70569170666666,47.91266176435681L36.050154213333336,47.87266347143384L36.39461672,47.98032429483203L36.73907922666667,48.01043536927966L37.083541733333334,48.07060758272808L37.42800423999999,48.08848447269862L37.77246674666666,48.767356872558594L38.11692925333333,48.677473068237305L38.46139176,48.68391474088032L38.805854266666664,49.04040389590795L39.15031677333333,48.97978226343792L39.494779279999996,49.11011377970379L39.83924178666666,48.6630916595459L40.183704293333335,48.525669309828004L40.5281668,48.749380111694336L40.87262930666667,48.97803452279834L41.21709181333333,49.32064162360297L41.56155432,49.02232726414997L41.90601682666666,49.26311598883734L42.25047933333333,50.07117138968573L42.59494184,49.601278834872794L42.93940434666666,50.38741257455615L43.28386685333333,50.84926552242701L43.628329359999995,51.16096258163452L43.97279186666666,51.42881631851196L44.317254373333334,55.67562633090551L44.66171688,52.23317649629382L45.006179386666666,51.526490052541085L45.35064189333333,54.61684505144756L45.6951044,58.527789248360534L46.039566906666664,55.16104155116613L46.38402941333333,56.86433964305456L46.728491919999996,54.203329616122794L47.07295442666666,56.96401079495747L47.41741693333333,56.715032656987496L47.761879439999994,54.832965665393424L48.10634194666667,55.108359654744454L48.45080445333333,53.18135076098974L48.79526696,55.68960825602215L49.139729466666665,55.80326133304174L49.48419197333333,57.9006000359853L49.82865448,58.88642562760248L50.17311698666666,56.88905768924291L50.51757949333332,54.03864251242743L50.862041999999995,56.289033359951425L51.20650450666667,55.287428167131225L51.55096701333333,58.75779191652935L51.89542952,55.696299605899405L52.23989202666666,55.03984822167291L52.58435453333333,55.714476108551025L52.92881703999999,54.076493581136056L53.273279546666664,53.41095394558375L53.61774205333333,58.748204310735055L53.962204559999996,61.17936147583856L54.30666706666666,57.02303449312847L54.65112957333333,55.80970300568475L54.995592079999994,57.553998099433045L55.34005458666667,57.44948320918615L55.684517093333326,60.390431351131845L56.0289796,57.72957113054065L56.37344210666666,63.545253011915406L56.71790461333333,58.718392848968506L57.062367120000005,65.06778478622437L57.406829626666664,60.64135697152881L57.75129213333333,60.166570742924996L58.095754639999996,59.429024193021974L58.44021714666666,64.09179647763568L58.78467965333333,61.15439375241596L59.129142159999994,60.76994074715509L59.47360466666667,62.623844146728516L59.818067173333326,64.52388789918689L60.16252968,58.95773344569738L60.50699218666666,63.59179284837512L60.85145469333333,60.44935517840917L61.195917200000004,63.46246004104614L61.54037970666666,63.82853680186803L61.884842213333336,68.29261594348486L62.229304719999995,70.36988059679669L62.57376722666666,67.05836150381299L62.91822973333333,70.03071904182434L63.26269223999999,72.71434982617694L63.607154746666666,76.54494788911609L63.951617253333325,71.2489442030589L64.29607976,77.27420515484278L64.64054226666666,72.13919334941443L64.98500477333333,77.5313727060954L65.32946728,75.73514474762811L65.67392978666666,85.26902000109357L66.01839229333333,82.97543499204846L66.3628548,80.19487950536939L66.70731730666667,76.65525529119702L67.05177981333334,80.59631056255762L67.39624232,84.13094123204547L67.74070482666667,83.3566421932644L68.08516733333333,82.64750891261633L68.42962984,82.04533735911053L68.77409234666666,73.89537307951184L69.11855485333332,77.3874587482876L69.46301736,87.63026754061383L69.80747986666665,99.0149501959483L70.15194237333333,101.2449174457126L70.49640487999999,91.5491015381283L70.84086738666666,94.26204442977905L71.18532989333333,112.15491374333698L71.52979239999999,101.01231813430786L71.87425490666666,112.0525460773044L72.21871741333332,97.63108915752832L72.56317992,100.03258466720581L72.90764242666665,108.19578184021844L73.25210493333333,102.36402074495953L73.59656744,125.56957218382092L73.94102994666666,117.37201942337884L74.28549245333333,112.16070625517102L74.62995495999999,107.4413071738349L74.97441746666667,102.23933193418713L75.31887997333334,114.70941146214801L75.66334248,104.2556753423479L76.00780498666667,106.52968565622967L76.35226749333333,90.4454282919566L76.69673,114.40725207328796L77.04119250666666,123.27523814307318L77.38565501333332,128.29549829165143L77.73011752,122.56390770276386L78.07458002666665,123.25696176952783L78.41904253333333,103.58554164568585L78.76350503999998,109.59796918763055L79.10796754666666,119.62216059366864L79.45243005333333,117.84615649117364L79.79689255999999,133.99787664413452L80.14135506666666,125.0609297222561L80.48581757333332,119.76168023215399L80.83028008,112.26127624511719L81.17474258666667,118.1792758570777L81.51920509333333,133.64503277672662L81.8636676,135.27812163035077L82.20813010666666,169.94835231039258L82.55259261333333,142.4579400486416L82.89705511999999,139.89065885543823L83.24151762666666,138.0415991942088L83.58598013333334,154.717591603597L83.93044264,171.3845956325531L84.27490514666667,153.14542399512396L84.61936765333333,163.9227917459276L84.96383016,140.29973003599378L85.30829266666666,150.2440247270796L85.65275517333333,180.68961673312714L85.99721767999999,120.96327688958911L86.34168018666665,148.16141698095532L86.68614269333332,134.62471630838184L87.0306052,149.94036727481415L87.37506770666666,122.51152541902331L87.71953021333333,156.79390748341876L88.06399271999999,141.55885232819452L88.40845522666666,173.2280625237359L88.75291773333332,170.44201413790387L89.09738023999999,160.06228235032825L89.44184274666667,155.4246275954776L89.78630525333332,107.73642566468982L90.13076776,114.15677587191266L90.47523026666666,114.69173431396484L90.81969277333333,101.26484168900384L91.16415528,110.51568282975092L91.50861778666666,115.24017532666522L91.85308029333333,141.0600471496582L92.1975428,160.1362367471059L92.54200530666667,154.12276056077746L92.88646781333333,168.29843521118164L93.23093032,183.04656982421875L93.57539282666666,176.75849861568872L93.91985533333333,169.62452093760174L94.26431783999999,167.418872250451L94.60878034666666,196.256343126297L94.95324285333332,202.1320973502265L95.29770536,167.89061241679718L95.64216786666665,122.66322930653888L95.98663037333333,136.57095034917194L96.33109287999999,115.00652737087671L96.67555538666666,125.80561704105799L97.02001789333332,97.18416690826416L97.36448039999999,143.4326300356123L97.70894290666666,148.6460404925876L98.05340541333332,160.80771870083277L98.39786792,192.0112309190962L98.74233042666665,154.78385594156055L99.08679293333333,148.4237778186798L99.43125544,121.97422001096936L99.77571794666666,119.77236641777887L100.12018045333333,153.7656721803877L100.46464295999999,182.02224400308398L100.80910546666667,196.08171886867945L101.15356797333334,173.36798164579602L101.49803048,138.91896499527826L101.84249298666666,134.51266116566126L102.18695549333333,124.92550479041205L102.53141799999999,152.78364168273077L102.87588050666666,154.4598248269823L103.22034301333333,107.13959720399646L103.56480552,117.27070040172998L103.90926802666665,145.11650323867798L104.25373053333331,165.2870780891842L104.59819304,169.6072432729933L104.94265554666666,131.58464630444843L105.28711805333332,169.11448028352527L105.63158056,158.77449711163837L105.97604306666666,149.21340703964233L106.32050557333332,138.172779613071L106.66496807999998,140.73571642239887L107.00943058666667,167.9541802406311L107.35389309333333,177.3996697531806L107.69835559999999,166.0492428143819L108.04281810666667,179.58409587542218L108.38728061333333,157.84974257151288L108.73174311999999,170.79935219552783L109.07620562666668,154.47116017341614L109.42066813333334,123.82837308777704L109.76513064,105.26122543546887L110.10959314666665,111.88091794649762L110.45405565333333,111.4558674229516L110.79851816,137.11429794629413L111.14298066666666,146.306514872445L111.48744317333333,177.14749574661255L111.83190567999999,191.58293459150525L112.17636818666665,180.77575537893506L112.52083069333331,155.24950398339166L112.8652932,149.32401405440436L113.20975570666666,147.68797900941638L113.55421821333331,161.28525137901306L113.89868072,137.64950606558057L114.24314322666666,167.5621869828966L114.58760573333332,200.31639456748962L114.93206823999998,184.74866946538287L115.27653074666667,171.16318186124164L115.62099325333332,133.305321931839L115.96545575999998,155.39990954928925L116.30991826666667,152.0783034960429L116.65438077333333,167.1795316537221L116.99884327999999,198.26664434538947L117.34330578666668,176.08761588732403L117.68776829333333,190.4701730940077L118.0322308,221.60876923137243L118.37669330666665,200.7454898622301L118.72115581333333,199.14665672514172L119.06561832,170.73064102066888L119.41008082666666,207.28094127443103L119.75454333333333,202.42067429754468L120.09900583999999,177.8682639863756L120.44346834666665,222.36404286490546L120.78793085333332,175.71679525905182L121.13239336,137.85778681437176L121.47685586666665,173.2484361860487L121.82131837333331,189.84143588278027L122.16578088,167.26127598020764L122.51024338666666,198.98431658744812L122.85470589333332,200.198896461063L123.1991684,192.37635890642798L123.54363090666666,197.57478872934973L123.88809341333332,174.62765322791205L124.23255591999998,204.97876736852857L124.57701842666667,199.5250176058875L124.92148093333333,194.0431541866726L125.26594343999999,195.32265014118616L125.61040594666667,160.14567454655963L125.95486845333333,177.79515849219428L126.29933095999999,188.30057779947919L126.64379346666665,186.7492832077874L126.98825597333332,205.90317236052618L127.33271848,222.60043727027045L127.67718098666666,236.03691750102575L128.02164349333333,222.76894443564947L128.366106,174.49517448743183L128.71056850666665,221.24214318063525L129.05503101333332,185.43822805086774L129.39949352,174.04835210906134L129.74395602666667,185.95605863465204L130.0884185333333,167.03716569476654L130.43288104,223.48544319470722L130.77734354666666,187.9812905523512L131.12180605333333,251.98929535018073L131.46626856,233.32384977075787L131.81073106666665,196.7857587337494L132.15519357333332,212.23418805334302L132.49965608,204.69877931806775L132.84411858666667,221.72317134009467L133.1885810933333,215.1136157247755L133.53304359999998,209.06703233718872L133.87750610666666,181.2494929631551L134.22196861333333,192.3717149098714L134.56643111999998,188.03242444992065L134.91089362666665,188.92507049772473L135.25535613333332,191.4306314786275L135.59981864,177.12122970157196L135.94428114666664,167.64398124482898L136.28874365333334,208.44553576575385L136.63320616,222.63302014933691L136.97766866666666,186.3674767812093L137.32213117333333,186.06022397677106L137.66659368,222.71978298823035L138.01105618666665,208.52328525649176L138.35551869333332,197.0393309328291L138.6999812,194.54695290989343L139.04444370666667,207.88930482334558L139.3889062133333,225.8372029993269L139.73336872,245.86151692602368L140.07783122666666,196.7640867498186L140.42229373333333,196.38592561086017L140.76675623999998,174.49592351913452L141.11121874666665,182.44669530126782L141.45568125333332,203.256493806839L141.80014375999997,190.62707026799518L142.14460626666667,201.99622299936084L142.48906877333332,160.81710656483966L142.83353128,207.3252839512295L143.17799378666666,191.93802555402118L143.52245629333333,168.92058094342548L143.86691879999998,194.78030125300086L144.21138130666665,181.05789065361023L144.55584381333333,178.82942146725122L144.90030632,218.40960489379034L145.24476882666664,193.92400821050006L145.58923133333334,230.6280097696516L145.93369384,218.19545672999487L146.27815634666666,196.87773982683814L146.6226188533333,224.05116187201605L146.96708136,194.6359378761715L147.31154386666665,227.392417523596L147.65600637333333,257.8409057855606L148.00046888,201.90414203537836L148.34493138666667,195.84098007943896L148.68939389333332,188.71698949072095L149.0338564,173.69026501973468L149.37831890666666,217.84555905395086L149.7227814133333,229.9392501513163L150.06724391999998,176.9920966360304L150.41170642666665,190.557160642412L150.75616893333333,193.23265194892883L151.10063143999997,205.5694038338131L151.44509394666667,217.13293029202356L151.78955645333332,202.8639512591892L152.13401896,198.08398048082984L152.47848146666664,185.19269545873004L152.82294397333334,206.23928785324097L153.16740647999998,197.1537330415514L153.51186898666666,249.2606227927738L153.85633149333333,208.74275154537622L154.200794,222.3671887980567L154.54525650666665,196.6747522354126L154.88971901333332,227.64743785063422L155.23418152,192.32382681634692L155.57864402666667,156.55776275528802L155.9231065333333,177.62747526168823L156.26756903999998,221.57930731773376L156.61203154666666,199.01188095410663L156.95649405333333,173.09069010946484L157.30095656,191.2183059586419L157.64541906666665,224.30892864863074L157.98988157333332,202.47170832422046L158.33434408,163.86296908060712L158.67880658666667,225.82729081312812L159.0232690933333,239.62887406349182L159.36773159999998,211.4274309741126L159.71219410666666,201.0994822449154L160.05665661333333,214.63995304372577L160.40111911999998,216.9295182492998L160.74558162666665,255.39037366708118L161.09004413333332,211.6299691465166L161.43450664,189.12106712659198L161.77896914666664,220.20308640268115L162.12343165333334,189.47495963838367L162.46789416,190.36450968848334L162.81235666666666,214.79729963673486L163.15681917333333,190.33095306820337L163.50128168,211.58565143744147L163.84574418666665,214.92433541350897L164.19020669333332,168.34891994794208L164.5346692,251.49765590826667L164.87913170666667,227.07245614793567L165.2235942133333,189.2182415061527L165.56805672,187.29088306427002L165.91251922666666,193.92191092173255L166.2569817333333,226.96284784211053L166.60144423999998,221.386057138443L166.94590674666665,234.46759621302283L167.29036925333332,169.94910134209528L167.63483175999997,194.7955315642887L167.97929426666667,214.57341406080457L168.32375677333332,218.60158171918658L168.66821928,209.51762484179602L169.01268178666663,182.48559501436023L169.35714429333333,206.13542212380304L169.70160679999998,241.52949207358893L170.04606930666665,218.05508818891315L170.39053181333333,206.86268197165595L170.73499432,222.35827532079486L171.07945682666664,212.40252044465808L171.42391933333334,214.59628449545966L171.76838184,213.87908664014606L172.11284434666666,209.8918910159005L172.4573068533333,220.21000246206916L172.80176936,186.25297480159333L173.14623186666665,199.98911764886645L173.49069437333333,222.25233727031286L173.83515688,214.37294820944464L174.17961938666664,226.45203318860797L174.52408189333332,220.77721920278339L174.8685444,217.431744005945L175.21300690666666,213.86418090926276L175.5574694133333,240.6848589579264L175.90193191999998,207.03336132897272L176.24639442666665,236.58705631891883L176.59085693333333,232.7494173579746L176.93531943999997,214.42091120613946L177.27978194666667,204.7821215788523L177.62424445333332,210.38230703936682L177.96870696,191.59941328896417L178.31316946666664,178.44606704182092L178.65763197333334,234.2688531345791L179.00209447999998,213.30398009883032L179.34655698666666,222.1940376361211L179.69101949333333,193.54369984732733L180.035482,227.06364254156745L180.37994450666665,209.39131312900122L180.72440701333332,232.05494013097552L181.06886952,192.8873483339945L181.41333202666667,210.14394018385144L181.7577945333333,200.29047807057697L182.10225703999998,212.63946413993835L182.44671954666666,221.2328052520752L182.79118205333333,219.25703439447614L183.13564456,205.22230254279242L183.48010706666665,224.06948818100824L183.82456957333332,230.79868912696838L184.16903207999997,211.57928466796875L184.51349458666667,217.47441384527417L184.8579570933333,221.9480306572384L185.20241959999998,228.32293960783215L185.54688210666666,248.33831508954364L185.89134461333333,237.86195821232263L186.23580711999998,208.24154946539136L186.58026962666665,202.48998469776575L186.92473213333332,236.92834013038214L187.26919464,214.33387372228833L187.61365714666664,214.76149592134686L187.95811965333334,235.28214322196112L188.30258216,199.26904850535925L188.64704466666666,247.49752700328827L188.9915071733333,278.69671980539954L189.33596968,222.0457792944378L189.68043218666665,203.39411589834424L190.02489469333332,207.1979984972212L190.3693572,251.65063314967688L190.71381970666667,214.8729768064287L191.0582822133333,186.77320228682623L191.40274472,218.38263975249396L191.74720722666666,175.76238632202148L192.0916697333333,205.12477861510382L192.43613223999998,214.36693098809985L192.78059474666665,202.18482918209497L193.12505725333332,250.80939564439984L193.46951975999997,207.7570757600996L193.81398226666667,223.93199092812006L194.15844477333331,235.55319282743665L194.50290728,218.96548628807068L194.84736978666663,266.4637587467829L195.19183229333333,268.96492540836334L195.53629479999998,256.4202672905392L195.88075730666665,255.69924937354193L196.22521981333333,214.36513331201343L196.56968232,212.47947096824646L196.91414482666664,221.44310838646356L197.25860733333334,295.4512856403986L197.60306984,240.53769919607373L197.94753234666666,274.4466889566845L198.2919948533333,242.53841280937195L198.63645735999998,188.26342582702637L198.98091986666665,201.2677147653368L199.32538237333333,237.41208977169458L199.66984488,291.94766488340167L200.01430738666664,248.3500249518288L200.35876989333332,201.86309509807165L200.7032324,243.39954959021674L201.04769490666666,258.14413878652783L201.3921574133333,268.10965604252283L201.73661991999998,242.49049974812397L202.08108242666665,216.3717393080393L202.4255449333333,239.20077747768823L202.77000743999997,263.0438547664219L203.11446994666667,267.88419750001697L203.4589324533333,198.437074025472L203.80339496,254.04833356539405L204.14785746666666,209.22412925296362L204.4923199733333,212.25393752257025L204.83678247999998,236.64987511105005L205.18124498666668,296.66516641775763L205.5257074933333,297.4479544825024L205.87017,208.9998192257351L206.21463250666667,187.21273408995734L206.55909501333332,188.74630159801904L206.90355752,196.8130234877268L207.24802002666667,252.01381365458167L207.5924825333333,223.8941648271349L207.93694503999998,244.29746382766302L208.28140754666663,219.40077357821997L208.6258700533333,224.8152491119173L208.97033256,174.12195695771112L209.31479506666665,233.3131386174096L209.65925757333332,205.62168624666003L210.00372008,220.1489813460244L210.34818258666664,323.1369704670376L210.6926450933333,228.64157769415112L211.0371076,208.8678398397234L211.38157010666663,219.96896406014758L211.72603261333333,229.1366876496209L212.07049512,230.95046791765424L212.41495762666665,230.78008817301856L212.75942013333332,213.86288258764478L213.10388263999997,209.6070841948191L213.44834514666664,221.44403219223022L213.79280765333334,230.29828601413305L214.13727015999996,212.27428621715967L214.48173266666666,225.23603015475805L214.82619517333333,194.01993420388965L215.17065767999998,252.38718099064295L215.51512018666665,216.38140181700385L215.85958269333332,186.01782878239948L216.20404519999997,235.20798908339606L216.54850770666664,206.78707970513238L216.89297021333334,217.98610236909656L217.23743272,346.8681174516678L217.58189522666666,275.6526299979952L217.92635773333333,253.94351906246607L218.27082023999998,244.24603031741248L218.61528274666665,272.6454424858093L218.9597452533333,237.46244966983795L219.30420775999997,228.1048465437359L219.64867026666667,244.8814339107937L219.9931327733333,256.3639900419447L220.33759528,229.43315439754065L220.68205778666666,225.4438614845276L221.0265202933333,227.16930594709186L221.37098279999998,224.65672903590735L221.71544530666668,327.3571648862627L222.0599078133333,265.71797284815045L222.40437032,215.75268957349988L222.74883282666667,218.3037167787552L223.09329533333332,204.91410096486408L223.43775784,202.7439563804203L223.78222034666666,246.63596577114527L224.1266828533333,253.16854589515265L224.47114535999998,232.96408984396191L224.81560786666662,238.66045097510016L225.16007037333333,268.84772691461774L225.50453288,243.22911991013416L225.84899538666664,219.67933846844568L226.19345789333332,208.8963030444251L226.5379204,212.60960274272497L226.88238290666663,273.76332236660846L227.2268454133333,225.41866905159418L227.57130792,218.1712630059984L227.91577042666663,262.0859680573145L228.26023293333333,316.5000502268473L228.60469544,274.990760617786L228.94915794666665,201.56607906023658L229.29362045333332,179.46180396609833L229.63808296000002,217.48707248104944L229.98254546666664,240.4747056298786L230.32700797333334,259.4622598091761L230.67147047999995,212.3889629708396L231.01593298666666,210.80221421188776L231.36039549333333,204.3795919418335L231.70485799999997,258.66806149482727L232.04932050666665,238.97486951616077L232.39378301333332,304.76701789432104L232.73824551999996,221.82933410008746L233.08270802666667,254.03105590078565L233.42717053333334,233.5423423184289L233.77163303999998,226.6057844294442L234.11609554666666,215.5854058265686L234.46055805333333,187.48168640666535L234.80502055999997,253.26214989026386L235.14948306666665,191.1705676714579L235.49394557333335,221.87207884258692L235.83840807999997,231.34138756328161L236.18287058666667,197.34498580296832L236.52733309333328,195.06752994325427L236.87179559999998,255.37551787164477L237.21625810666666,216.68870455688898L237.5607206133333,257.7338441875246L237.90518311999998,245.13435694906445L238.24964562666668,253.84319874975415L238.5941081333333,258.3831797705756L238.93857064,248.36989925967322L239.28303314666667,223.09544735484656L239.6274956533333,221.51009678840637L239.97195815999999,228.01498770713806L240.31642066666666,207.89319978819952L240.6608831733333,239.64749998516504L241.00534567999998,204.7968026002248L241.34980818666668,248.5224770175086L241.69427069333332,319.64940395620135L242.0387332,188.80837135844763L242.38319570666664,268.73869286643134L242.7276582133333,216.24200701713562L243.07212072,196.50696913401282L243.41658322666663,257.32756939199237L243.7610457333333,258.509641289711L244.10550824,287.1309665838877L244.44997074666662,234.56012659602698L244.79443325333332,230.71372396416132L245.13889576,272.47074332502154L245.48335826666664,301.98216795921326L245.82782077333331,290.1436469952265L246.17228328000002,244.52719185087415L246.51674578666663,201.3987953133053L246.86120829333333,215.05042241679297L247.2056708,191.87101218435498L247.55013330666665,200.43494131830005L247.89459581333332,222.25001527203455L248.23905831999997,288.57649789916144L248.58352082666664,235.33737182617188L248.92798333333332,221.13463216357763L249.27244583999996,229.93565479914344L249.61690834666666,224.32870308558142L249.96137085333334,225.87692664729224L250.30583335999998,247.47545553578266L250.65029586666665,244.40257794327204L250.99475837333333,262.5994292894999L251.33922087999997,246.98002099990845L251.68368338666664,249.41776964399548L252.02814589333335,274.33096355862085L252.37260839999996,205.2225522200266L252.71707090666666,221.37462192111548L253.0615334133333,205.85828039381238L253.40599591999998,219.31578344768945L253.75045842666665,232.50668115086023L254.0949209333333,241.98168251249524L254.43938343999997,220.2088040113449L254.78384594666667,235.09525981214313L255.1283084533333,192.5801454650031L255.47277096,212.45295524597168L255.81723346666666,220.16848113801746L256.1616959733333,256.47759318351746L256.50615848,225.026575922966L256.8506209866667,212.42988506952918L257.1950834933333,229.12615127033655L257.539546,230.00518990887537L257.88400850666665,316.9480710559421L258.2284710133333,248.03695466783313L258.57293352,202.8653494517008L258.9173960266666,203.08886051177979L259.26185853333334,201.12949344846936L259.60632104,267.72035929891797L259.9507835466666,267.0003400908576L260.2952460533333,336.3845698701011L260.63970856,242.7134864860111L260.98417106666665,213.5171295536889L261.3286335733333,207.6038238737318L261.67309608,241.3138708141115L262.0175585866666,221.6572066148122L262.36202109333334,230.19684215386707L262.7064836,227.4520154794057L263.05094610666663,236.71686351299286L263.3954086133333,222.42304159535303L263.73987112,265.24725635846454L264.08433362666665,244.99239047368366L264.4287961333333,226.22565084033545L264.77325863999994,306.00279536512164L265.11772114666667,323.32023355695935L265.46218365333334,324.1426204310523L265.80664615999996,272.3663033379448L266.15110866666663,276.82034545474585L266.4955711733333,212.8489683071772L266.84003368,259.32508713669245L267.18449618666665,312.5582209560606L267.5289586933333,387.13598688443506L267.8734212,394.0172912014855L268.21788370666667,273.4329993857277L268.56234621333334,276.89809494548376L268.90680871999996,211.90426455603705L269.25127122666663,237.12703327337897L269.59573373333336,221.72152347034876L269.94019624,331.3681797186533L270.28465874666665,310.5580816004011L270.62912125333327,312.10677954885693L270.97358376,297.1802006165186L271.31804626666667,287.473199168841L271.6625087733333,226.65519555409747L272.00697127999996,227.96777374214594L272.3514337866667,274.9374794960022L272.6958962933333,305.8024293846554L273.0403588,228.47419407632617L273.38482130666665,251.90380586518177L273.7292838133333,244.30450472566815L274.07374632,256.0531918207804L274.41820882666667,309.6687063243654L274.7626713333333,308.70005852646295L275.10713383999996,286.4801828728782L275.4515963466667,235.49951222207812L275.7960588533333,220.26503132449255L276.14052136,230.83426813284552L276.48498386666665,192.00478924645319L276.8294463733333,231.83654745419818L277.17390888,255.07283416059283L277.5183713866666,270.2649448315302L277.8628338933333,289.38180685043335L278.2072964,254.6860591570536L278.55175890666663,218.83053574297162L278.8962214133333,298.1405591302448L279.24068392,325.2514370282491L279.58514642666665,341.17270509401953L279.9296089333333,317.4372386932373L280.27407144,213.42090394761829L280.6185339466666,286.59885446230567L280.96299645333335,224.62107512685986L281.30745896,230.19469492965277L281.65192146666664,209.93518504831525L281.9963839733333,230.77699217531415L282.34084648,227.95846078130933L282.68530898666666,278.20295810699463L283.0297714933333,241.92273371749457L283.37423399999994,253.0683504210578L283.7186965066667,238.7743287616306L284.06315901333335,292.18243638674414L284.40762151999996,190.5339905950758L284.75208402666664,226.11269685957166L285.0965465333333,255.65840217802258L285.44100904,290.9443369176653L285.78547154666666,292.0485095183054L286.12993405333333,280.1091439194149L286.47439655999995,285.489863091045L286.8188590666667,245.3474814361996L287.1633215733333,253.2283186250263L287.50778407999996,294.05152016215857L287.85224658666664,258.5504884852303L288.1967090933333,231.08007536994086L288.5411716,221.34808123111725L288.88563410666666,213.36350315146979L289.2300966133333,365.95786452293396L289.57455912,330.7251859373516L289.9190216266667,231.74374242623645L290.2634841333333,217.1507572465473L290.60794663999997,232.50665618313684L290.95240914666664,333.4911103381051L291.2968716533333,245.0846462117301L291.64133416,232.81725466251373L291.98579666666666,257.6374937428368L292.33025917333333,339.6603351831436L292.67472168,275.93851043118366L293.0191841866666,204.08402403195697L293.3636466933333,228.27879667282104L293.70810919999997,210.66162096129523L294.05257170666664,313.4563848707411L294.3970342133333,276.22251828511554L294.74149672,265.026192135281L295.0859592266666,269.55453819698755L295.43042173333333,242.23815096749195L295.77488424,194.04884682761298L296.1193467466666,226.8628770775265L296.4638092533333,316.0803927315606L296.80827176,323.4176576137543L297.15273426666664,262.2050890657637L297.4971967733333,250.17671353287164L297.84165928,268.7086816628774L298.18612178666666,220.53775376743738L298.53058429333333,260.48696014616223L298.87504679999995,298.4676862425274L299.2195093066666,279.4059030214945L299.5639718133333,304.12821869055426L299.90843431999997,252.8612930907143L300.25289682666664,242.19775319099426L300.5973593333333,269.4250056478712L300.94182184,271.11739284462396L301.28628434666666,323.69542353683045L301.63074685333333,293.67847740650177L301.97520935999995,360.6945435868369L302.3196718666666,271.7863031228383L302.66413437333335,236.77623675929175L303.00859687999997,236.27431061532764L303.35305938666664,212.2114923927519L303.6975218933333,246.01636674669055L304.0419844,297.9250627093845L304.38644690666666,255.04744198587207L304.7309094133333,262.6354826821221L305.07537191999995,215.13933247990076L305.4198344266667,214.18589002556268L305.7642969333333,228.099828031328L306.10875944,327.7222179704242L306.45322194666664,278.02024430698816L306.7976844533333,289.25217443042334L307.14214696,296.48522403505115L307.48660946666666,305.750646326277L307.8310719733333,228.8324060042699L308.17553448,248.13153240415784L308.5199969866667,265.8136741320292L308.8644594933333,268.1855579217275L309.208922,328.85283139016894L309.55338450666665,255.8148998684353L309.8978470133333,256.3677851359049L310.24230952,240.874613655938L310.5867720266666,252.3943966627121L310.9312345333333,287.24521888626947L311.27569704,320.4755859242545L311.6201595466666,298.58341164059107L311.9646220533333,280.34339110056555L312.30908456,288.89623456531103L312.65354706666665,277.2446469465891L312.9980095733333,240.26555101076758L313.34247208,244.861359861162L313.6869345866666,276.64731913142737L314.03139709333334,230.92847135331897L314.3758596,209.530208574401L314.72032210666663,266.4569175905651L315.0647846133333,273.7222005261315L315.40924712,272.779718902376L315.75370962666665,254.90852157274878L316.0981721333333,251.82907746897803L316.44263463999994,241.2401411268446L316.78709714666667,213.86605348851947L317.13155965333334,221.58190396096973L317.47602215999996,354.55480562316046L317.82048466666663,359.10529805554285L318.1649471733333,228.46575498580933L318.50940968,242.38436195585462L318.85387218666665,230.69027927186755L319.1983346933333,269.00310105747644L319.54279719999994,278.4163572390874L319.88725970666667,279.17315390374927L320.23172221333334,272.50717123349506L320.57618471999996,250.2584328916338L320.92064722666663,260.7169378466076L321.2651097333333,250.19836054907904L321.60957224,264.38512086868286L321.95403474666665,281.15316927433014L322.29849725333327,319.92252588272095L322.64295976,304.131863978174L322.98742226666667,304.66867003175946L323.3318847733333,285.4564313093821L323.67634727999996,326.7643811967638L324.02080978666663,275.3158903121948L324.3652722933333,212.65978786680432L324.7097348,207.51044458813135L325.05419730666665,257.0239369074503L325.3986598133333,220.35548938645258L325.74312232,247.40277449289954L326.08758482666667,257.8449255890316L326.4320473333333,375.4421788454056L326.77650983999996,270.61688986089496L327.12097234666663,247.80525419447156L327.4654348533333,258.85799096690283L327.80989736,251.28021200497943L328.15435986666665,262.88513494862445L328.4988223733333,322.0427849557665L328.84328488,250.01517236232758L329.1877473866666,255.51094280348883L329.5322098933333,325.5252330833011L329.8766724,238.49349180857337L330.22113490666663,250.69661643770007L330.5655974133333,232.1331140730116L330.91005992,270.55654287338257L331.25452242666665,347.3430035511652L331.5989849333333,301.8505630890528L331.94344744,277.788094414605L332.2879099466666,252.63750738567774L332.63237245333335,209.04541028870477L332.97683495999996,215.61339464452533L333.32129746666664,329.344121283955L333.6657599733333,287.56265852186414L334.01022248,351.6226461198595L334.35468498666665,269.135779539744L334.6991474933333,236.35865158504907L335.04360999999994,236.9491382439931L335.3880725066666,254.59267987145313L335.73253501333335,227.87591748767431L336.07699751999996,225.37227902147504L336.42146002666664,238.9831088648902L336.7659225333333,387.71294103728394L337.11038504,377.56273753113214L337.45484754666666,250.52438908153113L337.79931005333333,259.3997655974494L338.14377255999995,217.53333767255145L338.4882350666667,224.75130677223206L338.8326975733333,312.722733285692L339.17716007999996,278.5907318194707L339.52162258666664,249.9425662226147L339.8660850933333,227.36475328604377L340.2105476,219.683732787768L340.55501010666666,257.9907620615429L340.8994726133333,358.3954906463623L341.24393512,361.8309994538625L341.5883976266667,319.9105164077547L341.9328601333333,249.4984153906504L342.27732263999997,263.7752592563629L342.62178514666664,227.49548428588446L342.9662476533333,289.3521701627308L343.31071016,305.1137696372138L343.65517266666666,245.6534359190199L343.99963517333333,243.72180799643195L344.34409768,311.785544819302L344.6885601866666,350.5982953310013L345.0330226933333,290.49726486206055L345.37748519999997,259.6046008004082L345.72194770666664,251.81000212828314L346.0664102133333,233.25344079070624L346.41087272,267.93827758895026L346.7553352266666,260.4540027512444L347.09979773333333,215.61604122320807L347.44426024,240.3641485505634L347.7887227466666,274.3986011213726L348.1331852533333,284.9600729677412L348.47764775999997,366.74924148453607L348.82211026666664,311.62457790639667L349.1665727733333,256.9162511163288L349.51103528,226.24647392166986L349.85549778666666,268.66646124256977L350.19996029333333,356.2438471449746L350.54442279999995,271.4917089541753L350.8888853066666,223.20265875922308L351.2333478133333,261.04169302516516L351.57781031999997,220.7211167282528L351.92227282666664,262.09847688674927L352.2667353333333,308.8564313782586L352.61119784,320.99551379680634L352.95566034666666,282.8201642963621L353.30012285333333,202.0256349775526L353.64458535999995,208.99882051679822L353.9890478666666,298.98441824648114L354.33351037333335,304.82222153080835L354.67797287999997,278.3808781041039L355.02243538666664,274.50086891651154L355.3668978933333,263.508029712571L355.7113604,257.0851577652825L356.05582290666666,265.6961011224323L356.4002854133333,236.04640523592627L356.74474791999995,248.86800534195368L357.0892104266667,273.97667156325446L357.4336729333333,246.39984601073797L357.77813543999997,265.3056059281031L358.12259794666664,275.8517475922902L358.4670604533333,328.32683636082544L358.81152296,298.154516087638L359.15598546666666,269.0747584236992L359.5004479733333,251.1797668536504L359.84491047999995,275.35196867254047L360.1893729866667,272.2702275382148L360.5338354933333,279.72893542713587L360.878298,285.86280597580804L361.22276050666665,293.1294371684392L361.5672230133333,328.65516192383234L361.91168552,322.79393891493476L362.2561480266666,301.75448728932275L362.6006105333333,273.61329131656225L362.94507304,268.62701223956213L363.2895355466666,285.4398277733061L363.6339980533333,244.32110826174414L363.97846056,248.5429006152683L364.32292306666665,259.09133931001026L364.6673855733333,269.3932217359543L365.01184808,302.04720887872907L365.3563105866666,314.2749766508738L365.70077309333334,340.42839229106903L366.0452356,296.98487811618384L366.38969810666663,270.9071646134058L366.7341606133333,244.883930683136L367.07862312,245.88893148634168L367.42308562666665,248.71862345271643L367.7675481333333,238.02534699440002L368.11201063999994,210.1681089401245L368.45647314666667,228.75590489970313L368.80093565333334,259.54632613393994L369.14539815999996,253.70562659369574L369.48986066666663,256.3527295986811L369.8343231733333,296.51348749796546" style="fill: none;" fill="none"></path></g></g></g></g></g><g><g opacity="0.741019"><span fill="rgb(0, 0, 0)" stroke="none" stroke-width="1px">Alt + Scroll to Zoom</span></g></g></g><g transform="translate(40, 377)" clip-path="url(#clip_1)"><clipPath id="clip_1"><rect width="403" height="23"></rect></clipPath><g><g><line x1="0" y1="0" x2="0" y2="5" style="visibility: inherit;" fill="rgb(0, 0, 0)" stroke="rgb(204, 204, 204)" stroke-width="1px"></line><line x1="33.63891666666666" y1="0" x2="33.63891666666666" y2="5" style="visibility: inherit;" fill="rgb(0, 0, 0)" stroke="rgb(204, 204, 204)" stroke-width="1px"></line><line x1="67.27783333333332" y1="0" x2="67.27783333333332" y2="5" style="visibility: inherit;" fill="rgb(0, 0, 0)" stroke="rgb(204, 204, 204)" stroke-width="1px"></line><line x1="100.91675" y1="0" x2="100.91675" y2="5" style="visibility: inherit;" fill="rgb(0, 0, 0)" stroke="rgb(204, 204, 204)" stroke-width="1px"></line><line x1="134.55566666666664" y1="0" x2="134.55566666666664" y2="5" style="visibility: inherit;" fill="rgb(0, 0, 0)" stroke="rgb(204, 204, 204)" stroke-width="1px"></line><line x1="168.19458333333333" y1="0" x2="168.19458333333333" y2="5" style="visibility: inherit;" fill="rgb(0, 0, 0)" stroke="rgb(204, 204, 204)" stroke-width="1px"></line><line x1="201.8335" y1="0" x2="201.8335" y2="5" style="visibility: inherit;" fill="rgb(0, 0, 0)" stroke="rgb(204, 204, 204)" stroke-width="1px"></line><line x1="235.47241666666667" y1="0" x2="235.47241666666667" y2="5" style="visibility: inherit;" fill="rgb(0, 0, 0)" stroke="rgb(204, 204, 204)" stroke-width="1px"></line><line x1="269.1113333333333" y1="0" x2="269.1113333333333" y2="5" style="visibility: inherit;" fill="rgb(0, 0, 0)" stroke="rgb(204, 204, 204)" stroke-width="1px"></line><line x1="302.75025" y1="0" x2="302.75025" y2="5" style="visibility: inherit;" fill="rgb(0, 0, 0)" stroke="rgb(204, 204, 204)" stroke-width="1px"></line><line x1="336.38916666666665" y1="0" x2="336.38916666666665" y2="5" style="visibility: inherit;" fill="rgb(0, 0, 0)" stroke="rgb(204, 204, 204)" stroke-width="1px"></line><line x1="370.0280833333333" y1="0" x2="370.0280833333333" y2="5" style="visibility: inherit;" fill="rgb(0, 0, 0)" stroke="rgb(204, 204, 204)" stroke-width="1px"></line><line x1="403.667" y1="0" x2="403.667" y2="5" style="visibility: inherit;" fill="rgb(0, 0, 0)" stroke="rgb(204, 204, 204)" stroke-width="1px"></line></g><g transform="translate(0, 8)"><text x="0" y="0" dx="0em" dy="0.95em" style="text-anchor: middle; visibility: hidden; font-family: Roboto, sans-serif; font-size: 12px; font-weight: 200;" fill="rgb(33, 33, 33)" stroke="none" stroke-width="1px">-50k</text><text x="33.63891666666666" y="0" dx="0em" dy="0.95em" style="text-anchor: middle; visibility: inherit; font-family: Roboto, sans-serif; font-size: 12px; font-weight: 200;" fill="rgb(33, 33, 33)" stroke="none" stroke-width="1px">0</text><text x="67.27783333333332" y="0" dx="0em" dy="0.95em" style="text-anchor: middle; visibility: inherit; font-family: Roboto, sans-serif; font-size: 12px; font-weight: 200;" fill="rgb(33, 33, 33)" stroke="none" stroke-width="1px">50k</text><text x="100.91675" y="0" dx="0em" dy="0.95em" style="text-anchor: middle; visibility: inherit; font-family: Roboto, sans-serif; font-size: 12px; font-weight: 200;" fill="rgb(33, 33, 33)" stroke="none" stroke-width="1px">100k</text><text x="134.55566666666664" y="0" dx="0em" dy="0.95em" style="text-anchor: middle; visibility: inherit; font-family: Roboto, sans-serif; font-size: 12px; font-weight: 200;" fill="rgb(33, 33, 33)" stroke="none" stroke-width="1px">150k</text><text x="168.19458333333333" y="0" dx="0em" dy="0.95em" style="text-anchor: middle; visibility: inherit; font-family: Roboto, sans-serif; font-size: 12px; font-weight: 200;" fill="rgb(33, 33, 33)" stroke="none" stroke-width="1px">200k</text><text x="201.8335" y="0" dx="0em" dy="0.95em" style="text-anchor: middle; visibility: inherit; font-family: Roboto, sans-serif; font-size: 12px; font-weight: 200;" fill="rgb(33, 33, 33)" stroke="none" stroke-width="1px">250k</text><text x="235.47241666666667" y="0" dx="0em" dy="0.95em" style="text-anchor: middle; visibility: inherit; font-family: Roboto, sans-serif; font-size: 12px; font-weight: 200;" fill="rgb(33, 33, 33)" stroke="none" stroke-width="1px">300k</text><text x="269.1113333333333" y="0" dx="0em" dy="0.95em" style="text-anchor: middle; visibility: inherit; font-family: Roboto, sans-serif; font-size: 12px; font-weight: 200;" fill="rgb(33, 33, 33)" stroke="none" stroke-width="1px">350k</text><text x="302.75025" y="0" dx="0em" dy="0.95em" style="text-anchor: middle; visibility: inherit; font-family: Roboto, sans-serif; font-size: 12px; font-weight: 200;" fill="rgb(33, 33, 33)" stroke="none" stroke-width="1px">400k</text><text x="336.38916666666665" y="0" dx="0em" dy="0.95em" style="text-anchor: middle; visibility: inherit; font-family: Roboto, sans-serif; font-size: 12px; font-weight: 200;" fill="rgb(33, 33, 33)" stroke="none" stroke-width="1px">450k</text><text x="370.0280833333333" y="0" dx="0em" dy="0.95em" style="text-anchor: middle; visibility: inherit; font-family: Roboto, sans-serif; font-size: 12px; font-weight: 200;" fill="rgb(33, 33, 33)" stroke="none" stroke-width="1px">500k</text><text x="403.667" y="0" dx="0em" dy="0.95em" style="text-anchor: middle; visibility: hidden; font-family: Roboto, sans-serif; font-size: 12px; font-weight: 200;" fill="rgb(33, 33, 33)" stroke="none" stroke-width="1px">550k</text></g><line x1="0" y1="0" x2="403.667" y2="0" fill="rgb(0, 0, 0)" stroke="rgb(204, 204, 204)" stroke-width="1px"></line></g></g></g></g></svg>