<svg viewBox="0 0 443.66668701171875 400" xmlns="http://www.w3.org/2000/svg"><g><g><g><g><g><line x1="70" y1="377" x2="65" y2="377" style="visibility: inherit;" fill="rgb(0, 0, 0)" stroke="rgb(204, 204, 204)" stroke-width="1px"></line><line x1="70" y1="345.5833333333333" x2="65" y2="345.5833333333333" style="visibility: inherit;" fill="rgb(0, 0, 0)" stroke="rgb(204, 204, 204)" stroke-width="1px"></line><line x1="70" y1="314.1666666666667" x2="65" y2="314.1666666666667" style="visibility: inherit;" fill="rgb(0, 0, 0)" stroke="rgb(204, 204, 204)" stroke-width="1px"></line><line x1="70" y1="282.75" x2="65" y2="282.75" style="visibility: inherit;" fill="rgb(0, 0, 0)" stroke="rgb(204, 204, 204)" stroke-width="1px"></line><line x1="70" y1="251.33333333333337" x2="65" y2="251.33333333333337" style="visibility: inherit;" fill="rgb(0, 0, 0)" stroke="rgb(204, 204, 204)" stroke-width="1px"></line><line x1="70" y1="219.91666666666663" x2="65" y2="219.91666666666663" style="visibility: inherit;" fill="rgb(0, 0, 0)" stroke="rgb(204, 204, 204)" stroke-width="1px"></line><line x1="70" y1="188.5" x2="65" y2="188.5" style="visibility: inherit;" fill="rgb(0, 0, 0)" stroke="rgb(204, 204, 204)" stroke-width="1px"></line><line x1="70" y1="157.08333333333331" x2="65" y2="157.08333333333331" style="visibility: inherit;" fill="rgb(0, 0, 0)" stroke="rgb(204, 204, 204)" stroke-width="1px"></line><line x1="70" y1="125.66666666666669" x2="65" y2="125.66666666666669" style="visibility: inherit;" fill="rgb(0, 0, 0)" stroke="rgb(204, 204, 204)" stroke-width="1px"></line><line x1="70" y1="94.25" x2="65" y2="94.25" style="visibility: inherit;" fill="rgb(0, 0, 0)" stroke="rgb(204, 204, 204)" stroke-width="1px"></line><line x1="70" y1="62.83333333333332" x2="65" y2="62.83333333333332" style="visibility: inherit;" fill="rgb(0, 0, 0)" stroke="rgb(204, 204, 204)" stroke-width="1px"></line><line x1="70" y1="31.416666666666682" x2="65" y2="31.416666666666682" style="visibility: inherit;" fill="rgb(0, 0, 0)" stroke="rgb(204, 204, 204)" stroke-width="1px"></line><line x1="70" y1="0" x2="65" y2="0" style="visibility: inherit;" fill="rgb(0, 0, 0)" stroke="rgb(204, 204, 204)" stroke-width="1px"></line></g><g transform="translate(60, 0)"><text x="0" y="377" dx="0em" dy="0.3em" style="text-anchor: end; visibility: hidden; font-family: Roboto, sans-serif; font-size: 12px; font-weight: 200;" fill="rgb(33, 33, 33)" stroke="none" stroke-width="1px">-100</text><text x="0" y="345.5833333333333" dx="0em" dy="0.3em" style="text-anchor: end; visibility: inherit; font-family: Roboto, sans-serif; font-size: 12px; font-weight: 200;" fill="rgb(33, 33, 33)" stroke="none" stroke-width="1px">0</text><text x="0" y="314.1666666666667" dx="0em" dy="0.3em" style="text-anchor: end; visibility: inherit; font-family: Roboto, sans-serif; font-size: 12px; font-weight: 200;" fill="rgb(33, 33, 33)" stroke="none" stroke-width="1px">100</text><text x="0" y="282.75" dx="0em" dy="0.3em" style="text-anchor: end; visibility: inherit; font-family: Roboto, sans-serif; font-size: 12px; font-weight: 200;" fill="rgb(33, 33, 33)" stroke="none" stroke-width="1px">200</text><text x="0" y="251.33333333333337" dx="0em" dy="0.3em" style="text-anchor: end; visibility: inherit; font-family: Roboto, sans-serif; font-size: 12px; font-weight: 200;" fill="rgb(33, 33, 33)" stroke="none" stroke-width="1px">300</text><text x="0" y="219.91666666666663" dx="0em" dy="0.3em" style="text-anchor: end; visibility: inherit; font-family: Roboto, sans-serif; font-size: 12px; font-weight: 200;" fill="rgb(33, 33, 33)" stroke="none" stroke-width="1px">400</text><text x="0" y="188.5" dx="0em" dy="0.3em" style="text-anchor: end; visibility: inherit; font-family: Roboto, sans-serif; font-size: 12px; font-weight: 200;" fill="rgb(33, 33, 33)" stroke="none" stroke-width="1px">500</text><text x="0" y="157.08333333333331" dx="0em" dy="0.3em" style="text-anchor: end; visibility: inherit; font-family: Roboto, sans-serif; font-size: 12px; font-weight: 200;" fill="rgb(33, 33, 33)" stroke="none" stroke-width="1px">600</text><text x="0" y="125.66666666666669" dx="0em" dy="0.3em" style="text-anchor: end; visibility: inherit; font-family: Roboto, sans-serif; font-size: 12px; font-weight: 200;" fill="rgb(33, 33, 33)" stroke="none" stroke-width="1px">700</text><text x="0" y="94.25" dx="0em" dy="0.3em" style="text-anchor: end; visibility: inherit; font-family: Roboto, sans-serif; font-size: 12px; font-weight: 200;" fill="rgb(33, 33, 33)" stroke="none" stroke-width="1px">800</text><text x="0" y="62.83333333333332" dx="0em" dy="0.3em" style="text-anchor: end; visibility: inherit; font-family: Roboto, sans-serif; font-size: 12px; font-weight: 200;" fill="rgb(33, 33, 33)" stroke="none" stroke-width="1px">900</text><text x="0" y="31.416666666666682" dx="0em" dy="0.3em" style="text-anchor: end; visibility: inherit; font-family: Roboto, sans-serif; font-size: 12px; font-weight: 200;" fill="rgb(33, 33, 33)" stroke="none" stroke-width="1px">1e+3</text><text x="0" y="0" dx="0em" dy="0.3em" style="text-anchor: end; visibility: hidden; font-family: Roboto, sans-serif; font-size: 12px; font-weight: 200;" fill="rgb(33, 33, 33)" stroke="none" stroke-width="1px">1.1e+3</text></g><line x1="70" y1="0" x2="70" y2="377" fill="rgb(0, 0, 0)" stroke="rgb(204, 204, 204)" stroke-width="1px"></line></g></g><g transform="translate(70, 0)" clip-path="url(#clip_0)"><clipPath id="clip_0"><rect width="373" height="377"></rect></clipPath><g><g><g><line x1="0" y1="0" x2="0" y2="377" fill="rgb(0, 0, 0)" stroke="rgb(66, 66, 66)" stroke-width="1px" opacity="0.25"></line><line x1="31.138916666666663" y1="0" x2="31.138916666666663" y2="377" fill="rgb(0, 0, 0)" stroke="rgb(66, 66, 66)" stroke-width="1px" opacity="0.25"></line><line x1="62.27783333333333" y1="0" x2="62.27783333333333" y2="377" fill="rgb(0, 0, 0)" stroke="rgb(66, 66, 66)" stroke-width="1px" opacity="0.25"></line><line x1="93.41675" y1="0" x2="93.41675" y2="377" fill="rgb(0, 0, 0)" stroke="rgb(66, 66, 66)" stroke-width="1px" opacity="0.25"></line><line x1="124.55566666666665" y1="0" x2="124.55566666666665" y2="377" fill="rgb(0, 0, 0)" stroke="rgb(66, 66, 66)" stroke-width="1px" opacity="0.25"></line><line x1="155.69458333333333" y1="0" x2="155.69458333333333" y2="377" fill="rgb(0, 0, 0)" stroke="rgb(66, 66, 66)" stroke-width="1px" opacity="0.25"></line><line x1="186.8335" y1="0" x2="186.8335" y2="377" fill="rgb(0, 0, 0)" stroke="rgb(66, 66, 66)" stroke-width="1px" opacity="0.25"></line><line x1="217.97241666666667" y1="0" x2="217.97241666666667" y2="377" fill="rgb(0, 0, 0)" stroke="rgb(66, 66, 66)" stroke-width="1px" opacity="0.25"></line><line x1="249.1113333333333" y1="0" x2="249.1113333333333" y2="377" fill="rgb(0, 0, 0)" stroke="rgb(66, 66, 66)" stroke-width="1px" opacity="0.25"></line><line x1="280.25025" y1="0" x2="280.25025" y2="377" fill="rgb(0, 0, 0)" stroke="rgb(66, 66, 66)" stroke-width="1px" opacity="0.25"></line><line x1="311.38916666666665" y1="0" x2="311.38916666666665" y2="377" fill="rgb(0, 0, 0)" stroke="rgb(66, 66, 66)" stroke-width="1px" opacity="0.25"></line><line x1="342.5280833333333" y1="0" x2="342.5280833333333" y2="377" fill="rgb(0, 0, 0)" stroke="rgb(66, 66, 66)" stroke-width="1px" opacity="0.25"></line><line x1="373.667" y1="0" x2="373.667" y2="377" fill="rgb(0, 0, 0)" stroke="rgb(66, 66, 66)" stroke-width="1px" opacity="0.25"></line></g><g><line x1="0" y1="377" x2="373.667" y2="377" fill="rgb(0, 0, 0)" stroke="rgb(66, 66, 66)" stroke-width="1px" opacity="0.25"></line><line x1="0" y1="345.5833333333333" x2="373.667" y2="345.5833333333333" fill="rgb(0, 0, 0)" stroke="rgb(66, 66, 66)" stroke-width="1px" opacity="0.25"></line><line x1="0" y1="314.1666666666667" x2="373.667" y2="314.1666666666667" fill="rgb(0, 0, 0)" stroke="rgb(66, 66, 66)" stroke-width="1px" opacity="0.25"></line><line x1="0" y1="282.75" x2="373.667" y2="282.75" fill="rgb(0, 0, 0)" stroke="rgb(66, 66, 66)" stroke-width="1px" opacity="0.25"></line><line x1="0" y1="251.33333333333337" x2="373.667" y2="251.33333333333337" fill="rgb(0, 0, 0)" stroke="rgb(66, 66, 66)" stroke-width="1px" opacity="0.25"></line><line x1="0" y1="219.91666666666663" x2="373.667" y2="219.91666666666663" fill="rgb(0, 0, 0)" stroke="rgb(66, 66, 66)" stroke-width="1px" opacity="0.25"></line><line x1="0" y1="188.5" x2="373.667" y2="188.5" fill="rgb(0, 0, 0)" stroke="rgb(66, 66, 66)" stroke-width="1px" opacity="0.25"></line><line x1="0" y1="157.08333333333331" x2="373.667" y2="157.08333333333331" fill="rgb(0, 0, 0)" stroke="rgb(66, 66, 66)" stroke-width="1px" opacity="0.25"></line><line x1="0" y1="125.66666666666669" x2="373.667" y2="125.66666666666669" fill="rgb(0, 0, 0)" stroke="rgb(66, 66, 66)" stroke-width="1px" opacity="0.25"></line><line x1="0" y1="94.25" x2="373.667" y2="94.25" fill="rgb(0, 0, 0)" stroke="rgb(66, 66, 66)" stroke-width="1px" opacity="0.25"></line><line x1="0" y1="62.83333333333332" x2="373.667" y2="62.83333333333332" fill="rgb(0, 0, 0)" stroke="rgb(66, 66, 66)" stroke-width="1px" opacity="0.25"></line><line x1="0" y1="31.416666666666682" x2="373.667" y2="31.416666666666682" fill="rgb(0, 0, 0)" stroke="rgb(66, 66, 66)" stroke-width="1px" opacity="0.25"></line><line x1="0" y1="0" x2="373.667" y2="0" fill="rgb(0, 0, 0)" stroke="rgb(66, 66, 66)" stroke-width="1px" opacity="0.25"></line></g></g></g><g><g><line x1="0" y1="345.5833333333333" x2="373.667" y2="345.5833333333333" fill="rgb(0, 0, 0)" stroke="rgb(153, 153, 153)" stroke-width="1.5px"></line></g></g><g><g><line x1="31.138916666666663" y1="0" x2="31.138916666666663" y2="377" fill="rgb(0, 0, 0)" stroke="rgb(153, 153, 153)" stroke-width="1.5px"></line></g></g><g><g><g><g><g><path stroke="rgb(255, 112, 67)" stroke-width="2px" d="M31.457779173333332,168.52681198120115L31.77664168,144.39028676928896L32.095504186666666,46.065868606410646L32.41436669333333,64.8055934980804L32.7332292,108.13542421612348L33.052091706666666,116.34287533400808L33.370954213333334,133.2347230404674L33.689816719999996,133.1829120494436L34.008679226666665,135.16213974398346L34.327541733333334,111.46146019397497L34.646404239999995,138.604581164447L34.965266746666664,143.80108336372075L35.28412925333333,155.30460653698682L35.60299176,173.0195591725672L35.921854266666664,187.95978341609614L36.24071677333333,192.03055711395518L36.559579279999994,192.13811697937476L36.87844178666666,181.2396513302312L37.19730429333333,173.90549291809862L37.5161668,177.27752650883895L37.83502930666666,188.38375221579813L38.15389181333333,174.8640463356239L38.47275431999999,194.73975064627427L38.79161682666666,180.808882085137L39.11047933333333,133.5866673199087L39.42934184,146.30537043274657L39.74820434666666,93.36413620296081L40.06706685333333,125.39111836047442L40.38592936,149.53577225707954L40.70479186666666,170.88277060907467L41.02365437333333,166.3736597801928L41.34251688,163.2705605832539L41.66137938666667,173.46081384378695L41.98024189333333,180.20360939300488L42.2991044,163.39883098414901L42.617966906666666,169.40104830633302L42.936829413333335,177.52706290197568L43.25569192,182.21634592933162L43.574554426666666,187.953208339337L43.89341693333333,198.85491675661555L44.212279439999996,202.13262834787446L44.531141946666665,204.73912627088885L44.850004453333334,211.96241113923406L45.168866959999995,217.43837287127894L45.487729466666664,226.54360735398575L45.806591973333326,216.27293129139792L46.125454479999995,225.41344256741482L46.444316986666664,228.4797786876317L46.763179493333325,235.7387397710028L47.082041999999994,211.71547629294386L47.40090450666667,210.1351285103137L47.71976701333333,216.65998790286332L48.03862952,199.92711628449158L48.35749202666666,211.74902424929445L48.67635453333333,225.31706666610643L48.99521703999999,240.36824402657462L49.31407954666666,239.2058678794496L49.63294205333333,240.25056052784518L49.95180455999999,231.2990759813634L50.27066706666667,233.51794252529476L50.58952957333332,242.03664821125165L50.90839208,246.08823541075375L51.22725458666667,252.4383297480161L51.54611709333333,246.16180517378794L51.8649796,246.5451197599856L52.18384210666666,236.19442176666084L52.50270461333333,231.97836462504574L52.821567120000005,217.79638317546463L53.14042962666666,225.37986197031347L53.459292133333335,227.5850277673594L53.77815464,223.66725536702222L54.097017146666666,231.6401395270853L54.41587965333333,240.98061191246694L54.734742159999996,244.87727088212938L55.053604666666665,225.1504142266219L55.37246717333333,217.4937687728209L55.691329679999996,214.6458919571012L56.01019218666666,222.23102839782067L56.32905469333333,236.99381940234292L56.6479172,226.86395163198486L56.966779706666664,230.86257683128315L57.28564221333333,240.45973737288497L57.604504719999994,252.05790164084013L57.92336722666666,246.36250613759736L58.242229733333325,253.1928408436682L58.561092239999994,249.50304975753306L58.87995474666667,253.3312001309522L59.198817253333324,263.55118563501185L59.51767976,260.3894589377556L59.836542266666655,234.01676285225813L60.15540477333333,238.88767295870358L60.47426728,250.64137711524594L60.79312978666666,239.754788685134L61.11199229333333,213.39391866079075L61.43085479999999,233.95155048759662L61.74971730666666,241.49360761254403L62.068579813333336,256.0167213693136L62.38744231999999,260.7079907663229L62.70630482666667,272.75727581598164L63.02516733333333,267.9695400754626L63.34402984,250.0263248775011L63.66289234666666,257.8268900367891L63.98175485333333,270.93898966893346L64.30061736,278.9997900463419L64.61947986666667,277.78205029850074L64.93834237333333,278.11275307549346L65.25720487999999,279.30273987155493L65.57606738666667,274.33812757215645L65.89492989333333,268.33129722461365L66.21379239999999,260.6641283467605L66.53265490666666,268.5507978523763L66.85151741333333,272.7798308245933L67.17037992,283.0235215487616L67.48924242666666,283.96232688365063L67.80810493333333,266.97399149065615L68.12696744,266.2479549562385L68.44582994666666,269.2749082606378L68.76469245333332,279.28404642798716L69.08355495999999,281.97134622643233L69.40241746666666,289.87918267188354L69.72127997333334,289.7019434119303L70.04014248,294.3310843539069L70.35900498666666,286.7212678894868L70.67786749333332,293.29139717450124L70.99673,293.5534800410975L71.31559250666666,292.65309847808464L71.63445501333332,283.6425929842135L71.95331752,258.6713761733733L72.27218002666666,263.00003614444927L72.59104253333334,269.23098147368773L72.90990503999998,279.43287279225603L73.22876754666666,286.76399380032507L73.54763005333334,292.6965633247461L73.86649256,291.10836627011753L74.18535506666666,294.68820392345583L74.50421757333332,299.34771820631374L74.82308008,303.3405201168888L75.14194258666667,308.0448116538867L75.46080509333332,311.29637647517904L75.7796676,313.35998281089434L76.09853010666666,309.5363072426762L76.41739261333333,313.63487383127716L76.73625512,313.4014582713165L77.05511762666666,311.1311625006781L77.37398013333333,312.16422708724633L77.69284264,309.6954272713658L78.01170514666666,310.35758517698264L78.33056765333332,297.23359539856926L78.64943016,304.32046089036385L78.96829266666667,305.90681269427904L79.28715517333333,275.3906133288044L79.60601768,287.32482063276L79.92488018666666,288.54492586351483L80.24374269333333,292.56950566799L80.5626052,299.18862100719633L80.88146770666665,303.0977652253569L81.20033021333333,303.2109667018865L81.51919271999999,304.9302256526012L81.83805522666667,307.10244492889933L82.15691773333333,303.81556406942536L82.47578023999999,306.7065441346578L82.79464274666667,298.0657627513243L83.11350525333333,300.8375517796295L83.43236775999999,306.36790778971323L83.75123026666665,306.887104011979L84.07009277333333,310.23739592105227L84.38895528,307.85861922763644L84.70781778666667,310.340312995511L85.02668029333333,310.3225324261489L85.34554279999999,312.0488319696178L85.66440530666667,314.59499127334993L85.98326781333333,317.55770395581965L86.30213031999999,312.88795427705287L86.62099282666667,310.06735021577015L86.93985533333333,310.82417217625334L87.25871784,310.66226019874017L87.57758034666665,310.6422976353809L87.89644285333333,306.73199114917855L88.21530536,303.58182184881514L88.53416786666666,311.0852593670624L88.85303037333333,311.65109673902356L89.17189287999999,314.78153370323747L89.49075538666666,316.70679026350837L89.80961789333332,315.84314407957544L90.12848039999999,316.21706112523316L90.44734290666666,318.34918351755516L90.76620541333332,317.65630265296835L91.08506792,311.5318700913292L91.40393042666666,311.4342083085948L91.72279293333332,313.047825444659L92.04165544,315.7153624700819L92.36051794666666,317.7992141476114L92.67938045333332,316.6834831309078L92.99824295999998,310.2061857170876L93.31710546666666,298.9020542882971L93.63596797333334,296.9007220745355L93.95483048,305.9401120289053L94.27369298666665,310.7015779855959L94.59255549333334,316.92032611727376L94.911418,317.5959685339425L95.23028050666666,317.3901648623466L95.54914301333334,320.52902204526134L95.86800552,324.99615167551065L96.18686802666666,324.9382581087763L96.50573053333332,321.3177792602042L96.82459304,322.639628255669L97.14345554666666,319.59346036066097L97.46231805333332,324.085876993243L97.78118056,324.6347583147914L98.10004306666666,320.1608243880891L98.41890557333332,324.1943191771597L98.73776807999998,326.49844846438134L99.05663058666667,324.7873641129591L99.37549309333332,320.2449413455999L99.69435559999998,322.01318993956266L100.01321810666667,314.73688334454613L100.33208061333333,318.5847940951509L100.65094312,320.1294343570413L100.96980562666667,324.00139505680124L101.28866813333333,321.9198858443652L101.60753064,326.777021082637L101.92639314666665,329.96266949448386L102.24525565333333,333.0852658313412L102.56411815999999,328.53567271358196L102.88298066666665,331.51687161674585L103.20184317333333,331.6931936994788L103.52070567999999,333.6402803652141L103.83956818666665,324.68872845231857L104.15843069333332,328.1307116759014L104.47729319999999,330.84313601109045L104.79615570666665,331.63541242955546L105.11501821333331,330.3592862377524L105.43388072,331.9393608030209L105.75274322666667,328.669244602752L106.07160573333333,328.50306774074284L106.39046823999998,329.17753418834786L106.70933074666667,331.41614250307236L107.02819325333333,334.00811668986245L107.34705575999999,336.26187487173445L107.66591826666667,337.38672598303117L107.98478077333333,338.6224115329084L108.30364327999999,338.9452006708179L108.62250578666666,338.71310165418504L108.94136829333333,336.7901805275969L109.26023079999999,325.5988236969453L109.57909330666665,329.15593624420603L109.89795581333333,331.0909405250888L110.21681831999999,332.89841662821476L110.53568082666665,334.07707879877444L110.85454333333334,328.2720642727497L111.17340584,330.5388485584409L111.49226834666665,332.56412387520976L111.81113085333331,333.4984773843715L112.12999336,335.35419065948867L112.44885586666666,336.8052632709242L112.76771837333332,337.40458411490937L113.08658088,337.3176991578914L113.40544338666666,329.2659421528441L113.72430589333332,331.7997341895429L114.0431684,334.139583450056L114.36203090666666,335.4697966853635L114.68089341333332,336.8684495957902L114.99975591999998,336.6228779695034L115.31861842666666,337.86834248524667L115.63748093333332,338.1956234301144L115.95634343999998,336.55048275616673L116.27520594666667,337.68775732475564L116.59406845333332,338.4520658880881L116.91293095999998,339.15841718035466L117.23179346666664,338.2864474072588L117.55065597333333,327.2423283132081L117.86951848,331.11951757244714L118.18838098666666,333.4978549952652L118.50724349333333,333.4936232235256L118.826106,335.6380444612274L119.14496850666666,336.02653809892826L119.46383101333332,336.81670844683885L119.78269352,337.95567972224035L120.10155602666666,336.3673411761524L120.42041853333332,337.72211054215927L120.73928104,338.5828174897479L121.05814354666666,339.4869722522914L121.37700605333332,339.95848496291944L121.69586856,339.5025230217394L122.01473106666666,340.0296375007944L122.33359357333332,340.6684836135341L122.65245607999998,340.48675186490465L122.97131858666667,341.22297166982236L123.29018109333333,341.57505078416665L123.60904359999998,341.68835132923533L123.92790610666667,341.95763308542945L124.24676861333333,340.45893620466455L124.56563111999999,340.4687829637567L124.88449362666665,340.86232527809443L125.20335613333333,340.36257167454755L125.52221863999999,341.0018264905166L125.84108114666665,340.8055103156387L126.15994365333333,341.180374739452L126.47880615999999,341.49391026356193L126.79766866666665,341.65090016525147L127.11653117333333,341.39067733581146L127.43539367999999,341.05666484731455L127.75425618666665,341.3792197715689L128.07311869333333,342.037583536631L128.3919812,340.97282912313926L128.71084370666665,341.5389779780148L129.02970621333333,338.3690005551614L129.34856872,339.0898394182758L129.66743122666665,339.96968529240803L129.98629373333333,340.46296372368886L130.30515623999997,341.29771119303075L130.62401874666665,341.7097112517137L130.94288125333333,340.4466255960107L131.26174375999997,341.0263771224322L131.58060626666668,340.946062380146L131.89946877333333,341.2895683914243L132.21833127999997,341.58693594995566L132.53719378666668,341.62970162248814L132.85605629333332,342.1020750975243L133.1749188,342.1513345310887L133.49378130666665,342.2471510876902L133.81264381333332,342.1558815952145L134.13150632,340.8329612923465L134.45036882666665,341.49159636150694L134.76923133333332,341.8574075516093L135.08809384,342.2463772713047L135.40695634666665,342.4966803809767L135.72581885333332,342.2529769045295L136.04468136,342.1043733740705L136.36354386666665,342.41323439690393L136.68240637333332,342.1430219472271L137.00126888,342.3552547439719L137.32013138666665,342.4896864070849L137.63899389333332,341.5472046194425L137.95785639999997,342.0104620070341L138.27671890666667,342.3323696327312L138.59558141333332,339.6924505470353L138.91444391999997,340.1868370983641L139.23330642666667,340.58814389830894L139.55216893333332,341.49327420372776L139.87103144,342.0245637399678L140.18989394666667,342.37889680121646L140.50875645333332,342.76664495315225L140.82761896,341.41159128339905L141.14648146666664,341.80280092888063L141.46534397333332,342.17163591286607L141.78420648,342.4902011648338L142.10306898666664,342.76132977850796L142.42193149333332,343.0205440157984L142.740794,343.06880165181303L143.05965650666664,343.08590209288326L143.37851901333332,343.169428559532L143.69738152,343.2847163687155L144.01624402666667,343.4740884598657L144.33510653333332,343.4914942577152L144.65396904,343.54805172721035L144.97283154666667,343.58113445130596L145.29169405333332,343.6972055397926L145.61055656,343.82927329991446L145.92941906666667,343.646183960529L146.24828157333332,343.646305444596L146.56714408,342.42479191358876L146.88600658666667,342.8022435180123L147.20486909333331,343.06640492873083L147.5237316,342.0621933737346L147.84259410666667,342.54890239342063L148.1614566133333,342.89911108648624L148.48031912,342.77092255042436L148.79918162666664,342.8978284215142L149.11804413333334,342.9979935069441L149.43690664,343.2638548022732L149.75576914666664,343.3235483973435L150.07463165333334,342.6914187634111L150.39349416,343.02463030792194L150.71235666666666,343.2190855636761L151.03121917333334,342.7818802191287L151.35008168,342.87111023084293L151.66894418666666,341.72108484485284L151.9878066933333,342.344410581522L152.3066692,342.7987110514134L152.62553170666666,342.9641781114384L152.9443942133333,343.11475035496574L153.26325672,342.54426527808994L153.58211922666666,342.8321297399151L153.9009817333333,343.0240055149675L154.21984424,343.34334819289734L154.53870674666666,343.51219578007107L154.8575692533333,343.3371011655194L155.17643175999999,343.49667550126946L155.49529426666666,343.62434870321135L155.81415677333334,343.72381816522795L156.13301927999998,343.6982356700714L156.45188178666663,343.6049426064924L156.77074429333334,343.7676382500596L157.08960679999998,343.7331574542311L157.40846930666666,342.3149973619014L157.72733181333334,342.6196262553715L158.04619431999998,343.0961358618429L158.36505682666666,342.7240399824863L158.68391933333334,343.1248245377001L159.00278183999998,342.10980752809235L159.32164434666666,342.56775840274673L159.6405068533333,342.9423973975545L159.95936935999998,343.1865143937005L160.27823186666666,343.57262315476953L160.5970943733333,343.5867020237189L160.91595688,343.36244490864703L161.23481938666666,343.50963520824666L161.5536818933333,342.8790500486117L161.87254439999998,343.2629853687454L162.19140690666666,343.32474415986377L162.51026941333333,343.28421757168934L162.82913191999998,343.5792211137136L163.14799442666666,343.7170511683324L163.46685693333333,342.8459147785881L163.78571943999998,342.9643313944849L164.10458194666666,343.19398530711226L164.42344445333333,343.164536919133L164.74230695999998,343.4190077892616L165.06116946666666,343.1452478804025L165.38003197333333,343.43146886796484L165.69889447999998,343.40597718579124L166.01775698666665,343.2439342524642L166.33661949333333,343.5147592536078L166.65548199999998,343.678492788052L166.97434450666665,343.8655399526887L167.2932070133333,343.82143210686417L167.61206952,343.98005257734707L167.93093202666665,343.97866059324423L168.2497945333333,343.6687934289631L168.56865704,343.76866189576344L168.88751954666665,343.83703232829015L169.20638205333333,344.03595495568135L169.52524456,344.2460990113187L169.84410706666665,343.8522486042388L170.16296957333333,337.91839696259797L170.48183207999998,338.3944343130344L170.80069458666665,338.2093847343545L171.11955709333333,338.93718128974916L171.43841959999997,340.00183137544707L171.75728210666665,339.3736090053739L172.07614461333333,335.9327764012131L172.39500711999997,337.88981570972027L172.71386962666665,338.09973559093766L173.03273213333333,339.5333119038795L173.35159463999997,340.1198995279512L173.67045714666665,341.19620480436316L173.98931965333333,341.27108177909315L174.30818216,342.0854412920682L174.62704466666665,342.11781872757575L174.94590717333332,342.70433357006624L175.26476968,342.72509987807274L175.58363218666665,343.04528995457645L175.90249469333332,343.07843053002506L176.2213572,336.3490240988762L176.54021970666665,337.3486141501068L176.85908221333332,338.9775160089564L177.17794472,340.0266535615174L177.49680722666665,341.155470606318L177.81566973333332,341.68881007741237L178.13453223999997,341.88839340511026L178.45339474666665,341.7790797653191L178.77225725333332,341.71281808361L179.09111975999997,342.1324833342342L179.40998226666667,342.31071870532537L179.72884477333332,342.1964767116909L180.04770728,342.8840053121785L180.36656978666664,342.6350657713026L180.68543229333332,342.199486550254L181.0042948,342.89562752817017L181.32315730666664,338.99926304888123L181.64201981333332,339.6597591140415L181.96088232,340.9030970764652L182.27974482666664,341.5932804499046L182.59860733333332,342.35303814343433L182.91746984,335.67734429021857L183.23633234666664,337.3718374684427L183.55519485333332,331.4579224312166L183.87405736,334.13851345895665L184.19291986666664,336.5788641058365L184.51178237333332,338.31434974238164L184.83064488,339.7577241773657L185.14950738666667,331.09673423893366L185.46836989333332,333.94256636105183L185.78723239999997,336.3646222992905L186.10609490666667,337.3770108539549L186.42495741333332,337.605729914884L186.74381992,339.2883719888538L187.06268242666667,340.37652589970025L187.3815449333333,341.4329873618327L187.70040744,333.6822631134987L188.01926994666667,331.8354144776726L188.33813245333332,334.73201458932726L188.65699496,329.629009725584L188.97585746666667,333.19046528342307L189.29471997333332,335.971040498565L189.61358248,323.61294274118967L189.93244498666667,327.52084362937654L190.25130749333331,325.89513210223487L190.57017,330.34725597898205L190.88903250666667,333.65669290458396L191.2078950133333,336.2804625804223L191.52675752,338.3273879117527L191.84562002666667,331.1593296383715L192.1644825333333,333.83613835402736L192.48334504,336.24276391319427L192.80220754666664,338.0439341004482L193.1210700533333,339.5796774272602L193.43993256,340.7340040541217L193.75879506666664,324.9373680475632L194.0776575733333,329.55375658699L194.39652008,330.7934515362638L194.71538258666664,333.97887615608965L195.0342450933333,336.02934402602045L195.35310760000002,337.56685670345837L195.67197010666663,339.21140937419995L195.9908326133333,340.4633056136898L196.30969512000001,341.4885732318469L196.62855762666663,327.8286197791284L196.94742013333334,331.56693016345474L197.26628263999996,334.2513467297905L197.58514514666663,336.7709397213821L197.90400765333334,338.3527985679234L198.22287015999996,339.9225389405067L198.54173266666666,340.7273121164144L198.86059517333334,341.66747499402413L199.17945767999996,332.6878642718255L199.49832018666666,334.0323160754082L199.81718269333334,336.5423025741828L200.13604519999998,332.4979346319771L200.45490770666666,335.4573979027191L200.77377021333334,337.3981394763599L201.09263271999998,333.324578599995L201.41149522666666,325.2196190578956L201.73035773333334,329.96488571397924L202.04922023999998,333.04662152427704L202.36808274666666,320.5504007544466L202.6869452533333,324.82888035157765L203.00580775999998,329.2877549762605L203.32467026666666,333.09263024569543L203.6435327733333,335.41577336092746L203.96239527999998,337.03534171777534L204.28125778666666,338.9183248219624L204.6001202933333,340.3694863055665L204.91898279999998,341.0325431391551L205.23784530666666,336.7097630988683L205.5567078133333,328.85908703582834L205.87557031999998,332.36071702255L206.19443282666666,335.3277447213215L206.5132953333333,337.40213376576173L206.83215783999998,338.8426604307472L207.15102034666668,328.0945676640622L207.4698828533333,331.668210994542L207.78874535999998,334.02253308618333L208.10760786666663,336.4026130479499L208.4264703733333,334.0090756259146L208.74533288,333.9609917986626L209.06419538666663,336.3166970209776L209.3830578933333,329.4314513967096L209.7019204,333.1032838393351L210.02078290666662,319.37618486584387L210.33964541333333,325.062062898287L210.65850792,329.7856510099239L210.97737042666665,332.7519919324592L211.29623293333333,317.31190774989454L211.61509544,319.2462030393339L211.93395794666665,325.4010021364319L212.25282045333333,329.9017574761586L212.57168296,333.3752193985115L212.89054546666665,329.9253006005958L213.20940797333333,330.18590140338273L213.52827047999997,333.7008251369139L213.84713298666665,336.34259867454637L214.16599549333333,338.26528633723115L214.48485799999997,320.76683733675463L214.80372050666665,326.4937522546204L215.12258301333333,321.288372901866L215.44144551999997,326.3053923294065L215.76030802666665,312.71308650347885L216.07917053333333,320.496318511356L216.39803303999997,326.43359174937376L216.71689554666665,330.25647767073195L217.03575805333332,333.28818813271494L217.35462055999997,327.81289637716463L217.67348306666665,331.5575889857313L217.99234557333332,334.7523234585377L218.31120807999997,336.915808812116L218.63007058666665,328.414934670963L218.9489330933333,332.41041403711336L219.26779559999997,334.8547839261331L219.58665810666668,336.7438466614704L219.9055206133333,338.7311054516482L220.22438311999997,338.7892075356019L220.54324562666667,340.01747066416453L220.8621081333333,340.7837569864766L221.18097064,341.2944801214669L221.49983314666667,342.20133744491477L221.8186956533333,341.718556216436L222.13755816,342.45289568942667L222.45642066666667,343.03690075400505L222.77528317333332,343.1448830900421L223.09414568,343.14176850984404L223.41300818666667,343.0786173983607L223.73187069333332,323.2853861185061L224.0507332,328.2444598615598L224.36959570666664,317.4072469441263L224.68845821333332,323.91365511835096L225.00732072,328.9056952726638L225.32618322666664,323.2187565078105L225.64504573333332,312.6521718465707L225.96390824,310.1249817038576L226.28277074666664,318.11449742334287L226.60163325333332,324.5159381248819L226.92049576,329.38828400252294L227.23935826666664,332.77618985370106L227.55822077333332,325.6554609569036L227.87708328,330.3257970998698L228.19594578666664,333.7003309193542L228.51480829333332,336.3365204451661L228.8336708,338.1032127309379L229.15253330666664,338.976206662314L229.47139581333332,340.2544326583179L229.79025831999996,334.89348508313896L230.10912082666664,336.2333066751943L230.42798333333332,338.33338158899676L230.74684583999996,335.76515786774496L231.06570834666664,337.8912568360421L231.38457085333334,339.28074273697223L231.70343335999996,337.45834571789186L232.02229586666664,330.06035116234585L232.34115837333334,332.9491221541501L232.66002087999996,335.4808934312359L232.97888338666667,337.16473830701756L233.29774589333334,334.0506988092562L233.61660839999996,332.0437987128326L233.93547090666667,334.9070132782187L234.25433341333328,337.34892354485345L234.57319592,339.23181768999183L234.89205842666667,340.27823323138875L235.2109209333333,328.70517995483004L235.52978344,332.67258415226945L235.84864594666666,335.4371660934811L236.1675084533333,337.6725423946046L236.48637096,339.36051598626455L236.80523346666666,340.61352512699904L237.1240959733333,334.39594475356273L237.44295848,336.4440036044054L237.76182098666666,337.64615582375967L238.0806834933333,339.4710519448581L238.399546,340.71368491672513L238.71840850666666,327.58478138387903L239.0372710133333,324.83679582226813L239.35613352,329.6781425182431L239.67499602666663,333.1372820693007L239.9938585333333,334.6783517528107L240.31272103999999,336.8770863420887L240.63158354666663,338.9434177143826L240.9504460533333,337.63544960297594L241.26930855999998,339.2940854427304L241.58817106666663,340.18642241885124L241.9070335733333,341.28320278553457L242.22589607999998,333.85154442431826L242.54475858666663,330.2460692184145L242.8636210933333,333.3914373333395L243.1824836,336.2479620284465L243.50134610666663,337.765308539271L243.8202086133333,339.36362888061973L244.13907112,322.29896324101907L244.45793362666663,327.78057141895795L244.77679613333333,331.81761258613204L245.09565863999995,333.98301236103833L245.41452114666666,336.61997863918396L245.73338365333333,330.49376840628275L246.05224615999995,332.86942685841905L246.37110866666666,332.09508535050884L246.68997117333333,335.0699333747256L247.00883367999998,337.0724060344082L247.32769618666666,338.00748243460754L247.64655869333333,338.8889096599834L247.96542119999998,338.36516497028003L248.28428370666666,334.7105200520955L248.60314621333333,336.5469843116293L248.92200871999998,338.53698801000473L249.24087122666666,340.0417550837325L249.55973373333333,341.0553958679168L249.87859623999998,328.1408273153052L250.19745874666665,332.06278624840724L250.5163212533333,335.2217294253964L250.83518375999998,337.61661183165364L251.15404626666665,332.93205863310897L251.4729087733333,335.82856364229764L251.79177127999998,338.10792976882436L252.11063378666665,329.2735569801415L252.4294962933333,325.4828173887698L252.74835879999998,330.1655982590413L253.06722130666665,333.727691584735L253.3860838133333,335.80040974357405L253.70494631999998,337.9957421862423L254.02380882666665,339.62779749269265L254.3426713333333,341.0367123589375L254.66153383999998,334.6159577953804L254.98039634666668,327.8473956887713L255.2992588533333,331.92626748278553L255.61812136,335.09707373646955L255.93698386666662,337.4910621758672L256.2558463733333,326.0241187008026L256.57470888,330.30424264489915L256.8935713866666,333.8352314635701L257.2124338933333,336.32613843253114L257.5312964,337.6901450511004L257.85015890666665,339.2672583405476L258.1690214133333,339.44343059357686L258.48788392,331.7425492234695L258.8067464266666,334.3657331579753L259.1256089333333,320.01938421422136L259.44447144,325.7454329767958L259.76333394666665,330.0235788156493L260.0821964533333,314.35783907103604L260.40105896,309.4589041600519L260.7199214666666,317.4043623030502L261.0387839733333,324.0774578909399L261.35764647999997,329.02484446620196L261.67650898666665,327.7131589778462L261.9953714933333,331.9156914640418L262.31423399999994,335.1355829644206L262.6330965066667,337.03115998983407L262.95195901333335,324.7049547459604L263.27082151999997,329.0036027786752L263.58968402666665,332.862924609553L263.9085465333333,326.8015249844492L264.22740904,331.0925040909207L264.5462715466667,334.4205898402475L264.86513405333335,325.556576266259L265.18399655999997,329.07660957391386L265.50285906666664,332.4882453462963L265.8217215733333,335.32702680101477L266.14058408,323.7952410279509L266.4594465866667,327.5487425013111L266.7783090933333,331.32481093479305L267.09717159999997,334.5433526901043L267.41603410666664,337.0065509839419L267.7348966133333,326.87591456627734L268.05375912,318.9907437031832L268.37262162666667,324.7647051157712L268.6914841333333,329.64016054040997L269.01034663999997,333.06223181362526L269.32920914666664,320.58375960303783L269.6480716533333,321.2032426849664L269.96693416,326.5176508926772L270.28579666666667,330.4768213444274L270.6046591733333,314.9082060479367L270.92352167999996,317.82920955862056L271.24238418666664,324.3758189236894L271.5612466933333,329.1319982925722L271.8801092,332.28434720825237L272.1989717066666,325.00790640512724L272.5178342133333,322.57455725199094L272.83669672,327.52025787358133L273.15555922666664,324.4893845672958L273.4744217333333,328.447680325077L273.79328424,331.9300825480046L274.1121467466666,335.03772399556243L274.43100925333334,336.4757924028796L274.74987176,323.91373683312213L275.06873426666664,328.9830119933664L275.3875967733333,332.8689287919585L275.70645928,326.03283375786503L276.02532178666667,330.481281700535L276.34418429333334,333.89558453719076L276.66304679999996,336.62863386090396L276.98190930666664,338.2277670500676L277.3007718133333,324.47583680204554L277.61963432,329.1910481456868L277.93849682666666,332.96006754833496L278.25735933333334,335.6032027152708L278.57622183999996,337.178707574348L278.89508434666664,338.8104255573696L279.2139468533333,340.2122025986917L279.53280936,339.8051757915646L279.85167186666666,339.76675972959504L280.17053437333334,340.6482716209097L280.48939687999996,341.73033809886647L280.80825938666663,342.48648085087905L281.1271218933333,341.6140734119085L281.4459844,335.85492227010127L281.76484690666666,338.11372927497695L282.0837094133333,339.2163008625613L282.40257191999996,340.4254211630615L282.72143442666663,341.36881270706516L283.0402969333333,341.7876176218738L283.35915944,342.46141283637064L283.67802194666666,335.8718558570821L283.9968844533333,338.1616538398087L284.31574695999996,339.9287000977309L284.6346094666667,340.9638183019595L284.9534719733333,340.8096527231641L285.27233448,341.7726358580321L285.59119698666666,342.57108470228064L285.9100594933333,342.79514549447225L286.228922,331.0480074813165L286.5477845066667,334.01185459325217L286.8666470133333,336.71969816584607L287.18550952,338.0812756444952L287.5043720266666,338.5133686734711L287.82323453333333,340.14599184282235L288.14209704,340.5592533942797L288.46095954666663,339.0088609152239L288.7798220533333,339.7305082224958L289.09868456,340.74133077071474L289.41754706666666,341.7703607405825L289.73640957333333,335.3265337972421L290.05527208,335.38263318697216L290.3741345866666,337.3114892373691L290.6929970933333,333.78554878359625L291.0118596,336.45566468095234L291.33072210666666,327.521186795097L291.64958461333333,331.67944555768037L291.96844712,334.8727944507061L292.2873096266666,333.18340412540164L292.6061721333333,335.903124670019L292.92503464,337.60082179759246L293.24389714666665,339.41717530941634L293.56275965333333,340.7315056937765L293.88162215999995,332.86601600543173L294.2004846666666,328.5626586005905L294.5193471733333,327.0914288677476L294.83820968,331.273361337981L295.15707218666665,329.82253965104525L295.47593469333333,333.2722423015806L295.79479719999995,335.6580671590355L296.1136597066666,336.94880891600434L296.43252221333336,338.37414085026757L296.75138472,339.4614739169309L297.07024722666665,340.53407006719493L297.38910973333327,341.67618948436456L297.70797223999995,341.5171086067346L298.0268347466667,341.8418816739613L298.3456972533333,341.75894350375967L298.66455976,342.516630649121L298.98342226666665,343.2261554932903L299.30228477333327,343.5422915595289L299.62114728,343.0788745121829L299.9400097866667,334.50470885502807L300.2588722933333,336.9979621037494L300.5777348,338.7172424623345L300.89659730666665,327.35989744764373L301.2154598133333,331.56495285902594L301.53432232,332.7177413846212L301.8531848266667,335.4967165132442L302.1720473333333,323.8908012236496L302.49090984,328.0010650517999L302.80977234666665,332.10905089222877L303.1286348533333,335.19312488063423L303.44749736,337.43989814679657L303.7663598666666,330.92063897034956L304.0852223733333,327.1247189975926L304.40408487999997,330.88037365721794L304.72294738666665,334.2603909816963L305.0418098933333,318.56819720407253L305.3606724,324.81296051917815L305.6795349066666,329.68544645923316L305.9983974133333,333.38145645333964L306.31725991999997,335.6937591065721L306.63612242666665,337.63537174881844L306.9549849333333,328.94242556804244L307.27384744,332.827577130128L307.5927099466666,335.4661961135567L307.9115724533333,337.6848165040363L308.23043495999997,339.1348426715923L308.54929746666664,339.4431598039606L308.8681599733333,333.6897886504119L309.18702247999994,328.91868437400785L309.5058849866666,332.69505094235546L309.82474749333335,335.54173017169745L310.14360999999997,333.1164776608978L310.46247250666664,328.1536694288375L310.7813350133333,330.8705989725205L311.10019751999994,334.22231414507803L311.41906002666667,336.62545644007866L311.73792253333335,337.61729409847743L312.05678503999997,328.137391534252L312.37564754666664,331.8972964871589L312.6945100533333,334.81840895338297L313.01337256,336.97219050521267L313.33223506666667,338.8164229876112L313.6510975733333,320.7489159493442L313.96996007999996,305.50721063077896L314.28882258666664,315.01474933557853L314.6076850933333,322.2620871054131L314.9265476,327.24544656903333L315.24541010666667,331.5050582576692L315.5642726133333,334.2987645271981L315.88313511999996,336.81760271752563L316.20199762666664,334.28613528043786L316.5208601333333,336.7000198671756L316.83972264,338.58344656157976L317.15858514666667,339.86401085103404L317.4774476533333,328.92333444673704L317.79631015999996,330.9608837538L318.11517266666664,334.34633637599813L318.4340351733333,336.5762716911955L318.75289768,338.4718782461156L319.0717601866666,331.29221639984814L319.3906226933333,333.91482291679597L319.70948519999996,336.39421430983515L320.02834770666664,338.1132377632654L320.3472102133333,328.80238444275744L320.66607272,322.22866490781894L320.9849352266666,313.07918138401953L321.3037977333333,320.4741016635767L321.62266024,326.10988305115677L321.94152274666664,330.52965858220085L322.2603852533333,332.83872201050974L322.57924776,335.8938768273309L322.8981102666666,334.7539923711323L323.21697277333334,330.9951140894507L323.53583528,333.571163188848L323.85469778666663,336.1585428390991L324.1735602933333,334.48092683277025L324.4924228,322.17602264241714L324.81128530666666,327.32727163496435L325.13014781333334,326.66422414459925L325.44901031999996,325.08566591630165L325.76787282666663,329.64955539219613L326.0867353333333,330.7301581536721L326.40559784,321.5348162966443L326.72446034666666,318.05447851136523L327.04332285333334,324.3970797047093L327.36218535999996,329.2093158354935L327.68104786666663,316.6065105861225L327.9999103733333,322.6178246113863L328.31877288,322.48504685876736L328.63763538666666,327.9867389692988L328.95649789333334,332.172544497269L329.27536039999995,333.6604817114486L329.59422290666663,328.4315688808523L329.9130854133333,332.43479360310033L330.23194792,335.4113446427298L330.55081042666666,328.68699983832573L330.8696729333333,328.56769510600935L331.18853543999995,332.48648110093495L331.50739794666663,335.12024320100727L331.8262604533333,337.0111793922443L332.14512296,332.65939739401387L332.46398546666666,334.97762374666917L332.7828479733333,337.02244839889374L333.10171047999995,338.8553991782303L333.4205729866667,338.16411021482577L333.7394354933333,333.6045503089829L334.058298,335.98353732370566L334.3771605066666,338.1903119830455L334.69602301333333,339.26434483740786L335.01488552,340.56506765651187L335.3337480266666,340.66136071536624L335.6526105333333,341.4545275255601L335.97147304,341.96910144675036L336.29033554666665,335.5651025624819L336.60919805333333,337.88068503593286L336.92806056,331.5706220707904L337.2469230666666,334.2893418730362L337.5657855733333,336.5158955273955L337.88464808,338.4488037566052L338.20351058666665,339.10520063819257L338.52237309333333,340.6528981405913L338.8412356,341.54803647642916L339.1600981066666,342.4488448121016L339.4789606133333,342.48734685730705L339.79782312,342.8525787919695L340.11668562666665,327.2977986056517L340.4355481333333,331.48311103801444L340.75441063999995,322.19767371811463L341.0732731466666,320.0024783834942L341.3921356533333,325.7936406362749L341.71099816,325.81616467104453L342.02986066666665,330.2256438635253L342.3487231733333,333.7161540504726" style="fill: none;" fill="none"></path></g></g></g></g><g opacity="0.2"><g><g><g><path stroke="rgb(255, 112, 67)" stroke-width="2px" d="M31.457779173333332,168.52681198120115L31.77664168,126.04652760823569L32.095504186666666,-85.45287312825525L32.41436669333333,98.09813898722332L32.7332292,199.56993593851723L33.052091706666666,135.7432403564453L33.370954213333334,176.41789093017576L33.689816719999996,133.04287200927735L34.008679226666665,140.73209350585935L34.327541733333334,42.75801813761394L34.646404239999995,219.03196075439453L34.965266746666664,159.45266082763672L35.28412925333333,190.3797459920247L35.60299176,227.53377019246417L35.921854266666664,234.2557652537028L36.24071677333333,204.71121284484863L36.559579279999994,192.47450363159183L36.87844178666666,147.0527801513672L37.19730429333333,150.84684504191083L37.5161668,187.897562789917L37.83502930666666,223.40810836791994L38.15389181333333,132.1861235555013L38.47275431999999,257.52922770182295L38.79161682666666,136.77450241088866L39.11047933333333,-15.744152628580688L39.42934184,186.53905657450358L39.74820434666666,-74.14958445231117L40.06706685333333,226.7485069274902L40.38592936,225.95867037455238L40.70479186666666,238.45796493530275L41.02365437333333,152.0986028544108L41.34251688,153.44606414794922L41.66137938666667,205.72499669392903L41.98024189333333,201.5533047739665L42.2991044,110.18841669718422L42.617966906666666,188.4067892964681L42.936829413333335,203.25812489827473L43.25569192,197.0651643371582L43.574554426666666,206.11940203348797L43.89341693333333,233.37621747334796L44.212279439999996,212.5118710835775L44.531141946666665,212.99292920430503L44.850004453333334,234.83592086791992L45.168866959999995,234.77878832499184L45.487729466666664,255.3766855621338L45.806591973333326,183.74926462809245L46.125454479999995,254.35829966227215L46.444316986666664,238.18981877644856L46.763179493333325,258.7254061635335L47.082041999999994,135.64191853841146L47.40090450666667,205.13069936116537L47.71976701333333,237.32202540079754L48.03862952,146.93972310384115L48.35749202666666,249.18504809061687L48.67635453333333,268.2825185775757L48.99521703999999,288.0302923965454L49.31407954666666,235.52501085917154L49.63294205333333,243.55875338236493L49.95180455999999,202.95271171569826L50.27066706666667,240.5443525950114L50.58952957333332,269.0125476455689L50.90839208,258.9182608540853L51.22725458666667,272.54696099599204L51.54611709333333,226.2861446380615L51.8649796,247.75894925435384L52.18384210666666,203.41721204121905L52.50270461333333,218.62751719156904L52.821567120000005,172.88677571614585L53.14042962666666,249.3942112986247L53.459292133333335,234.56805274963378L53.77815464,211.260976155599L54.097017146666666,256.88760594685874L54.41587965333333,270.5587743886312L54.734742159999996,257.2166909281413L55.053604666666665,162.68203491210937L55.37246717333333,193.24772486368815L55.691329679999996,205.62761538187664L56.01019218666666,246.25062711079914L56.32905469333333,283.7426575597127L56.6479172,194.7860370381673L56.966779706666664,243.52488995869953L57.28564221333333,270.8507457478841L57.604504719999994,288.785421816508L57.92336722666666,228.32708704630534L58.242229733333325,274.8222340774536L58.561092239999994,237.81871131896975L58.87995474666667,265.45367631276446L59.198817253333324,295.91447306315104L59.51767976,250.3773243967692L59.836542266666655,150.50322525024413L60.15540477333333,254.3122216288249L60.47426728,287.86144027709963L60.79312978666666,205.280591990153L61.11199229333333,129.91783025105795L61.43085479999999,299.05071793874106L61.74971730666666,265.3767885080973L62.068579813333336,302.00658159891765L62.38744231999999,275.56367719014486L62.70630482666667,310.9133451398214L63.02516733333333,252.8083768971761L63.34402984,193.20614341735842L63.66289234666666,282.5286797078451L63.98175485333333,312.46063850402834L64.30061736,304.52565790812173L64.61947986666667,273.9258744303385L64.93834237333333,279.15997853597L65.25720487999999,283.07103139241536L65.57606738666667,258.61685529073077L65.89492989333333,249.3096677907308L66.21379239999999,236.3847602335612L66.53265490666666,293.5252512868245L66.85151741333333,286.17176856994627L67.17037992,315.4618755086263L67.48924242666666,286.93521044413245L67.80810493333333,213.17759607950848L68.12696744,263.94883926391606L68.44582994666666,278.86026039123533L68.76469245333332,310.9796506245931L69.08355495999999,290.4811289215088L69.40241746666666,314.9206647491455L69.72127997333334,289.14068575541177L70.04014248,308.990030670166L70.35900498666666,262.62351575215655L70.67786749333332,314.0968065770467L70.99673,294.38340911865237L71.31559250666666,289.8018901952108L71.63445501333332,255.10932558695472L71.95331752,179.59585627237956L72.27218002666666,276.7074593861898L72.59104253333334,288.9623083496094L72.90990503999998,311.7388619677226L73.22876754666666,309.97921032587686L73.54763005333334,311.4830334854126L73.86649256,286.0790755971273L74.18535506666666,306.0243564923604L74.50421757333332,314.1028467686971L74.82308008,315.9843928337097L75.14194258666667,322.9417348543803L75.46080509333332,321.5929984092712L75.7796676,319.8947362073263L76.09853010666666,297.428001276652L76.41739261333333,326.6136680285136L76.73625512,312.6623089981079L77.05511762666666,303.9418925603231L77.37398013333333,315.43559827804563L77.69284264,301.87756118774416L78.01170514666666,312.4544185447693L78.33056765333332,255.67429443359373L78.64943016,326.7622016143799L78.96829266666667,310.9302600733439L79.28715517333333,178.75598200480144L79.60601768,325.11647709528603L79.92488018666666,292.40859242757165L80.24374269333333,305.31400838216143L80.5626052,320.14915291468304L80.88146770666665,315.4767219161987L81.20033021333333,303.56943804423014L81.51919271999999,310.3745456631978L81.83805522666667,313.9811393038432L82.15691773333333,293.40710801442464L82.47578023999999,315.8613143412272L82.79464274666667,270.70328837076823L83.11350525333333,309.61488370259605L83.43236775999999,323.8807018216451L83.75123026666665,308.531225382487L84.07009277333333,320.8466536331177L84.38895528,300.325826365153L84.70781778666667,318.1990099271138L85.02668029333333,310.2662272898356L85.34554279999999,317.51544719060263L85.66440530666667,322.6578290685018L85.98326781333333,326.9396274503072L86.30213031999999,298.1004136276245L86.62099282666667,301.13543735504146L86.93985533333333,313.2207750511169L87.25871784,310.149538936615L87.57758034666665,310.5790828514099L87.89644285333333,294.34935394287106L88.21530536,293.60628573099774L88.53416786666666,334.84614484151206L88.85303037333333,313.4429150835673L89.17189287999999,324.69458408991494L89.49075538666666,322.8034360376994L89.80961789333332,313.1082644971212L90.12848039999999,317.4011317698161L90.44734290666666,325.1009044265747L90.76620541333332,315.46217991511026L91.08506792,292.1378336461385L91.40393042666666,311.1249459966024L91.72279293333332,318.15761304219563L92.04165544,324.162563050588L92.36051794666666,324.39807779312133L92.67938045333332,313.1503349113465L92.99824295999998,289.69474390665687L93.31710546666666,263.10563809712727L93.63596797333334,290.5631700642904L93.95483048,334.5648468844096L94.27369298666665,325.7795535151164L94.59255549333334,336.61302853425343L94.911418,319.7355028533936L95.23028050666666,316.73845323562625L95.54914301333334,330.4687364578247L95.86800552,339.14206217130027L96.18686802666666,324.7549284807841L96.50573053333332,309.8529295730591L96.82459304,326.8254834079743L97.14345554666666,309.9472620264689L97.46231805333332,338.3118629964193L97.78118056,326.37288249969487L98.10004306666666,305.9933669535319L98.41890557333332,336.96705267588294L98.73776807999998,333.79485787391667L99.05663058666667,319.3689303334554L99.37549309333332,305.86060258229577L99.69435559999998,327.61264382044476L100.01321810666667,291.6952457936605L100.33208061333333,330.76984480539954L100.65094312,325.02079518636066L100.96980562666667,336.2626039393743L101.28866813333333,315.32844000498454L101.60753064,342.15794933716455L101.92639314666665,340.0505561319987L102.24525565333333,342.9734875647227L102.56411815999999,314.1286278406779L102.88298066666665,340.957334810098L103.20184317333333,332.2515469614665L103.52070567999999,339.8060548067093L103.83956818666665,296.3421473948161L104.15843069333332,339.03032521724697L104.47729319999999,339.43247973918915L104.79615570666665,334.14428775469463L105.11501821333331,326.3182199637095L105.43388072,336.9429302597046L105.75274322666667,318.31387663523356L106.07160573333333,327.9768410110474L106.39046823999998,331.31334460576375L106.70933074666667,338.50506883303325L107.02819325333333,342.2160349480311L107.34705575999999,343.3987757809957L107.66591826666667,340.9487545021375L107.98478077333333,342.53541577418645L108.30364327999999,339.9673662741979L108.62250578666666,337.9781214348475L108.94136829333333,330.7009302934011L109.26023079999999,290.15952706654866L109.57909330666665,340.42012597719827L109.89795581333333,337.21845408121743L110.21681831999999,338.62209095478056L110.53568082666665,337.8095090055466L110.85454333333334,309.88951827367146L111.17340584,337.71699879646303L111.49226834666665,338.9774957116445L111.81113085333331,336.4572634967168L112.12999336,341.23061603069306L112.44885586666666,341.40032654047013L112.76771837333332,339.30243345419564L113.08658088,337.04256346066796L113.40544338666666,303.76871163686116L113.72430589333332,339.82340897242227L114.0431684,341.5491061083476L114.36203090666666,339.6821385971705L114.68089341333332,341.2975171454748L114.99975591999998,335.84523448626203L115.31861842666666,341.812313451767L115.63748093333332,339.2320130888621L115.95634343999998,331.3408706219991L116.27520594666667,341.28912679195406L116.59406845333332,340.87237633864083L116.91293095999998,341.39519627253213L117.23179346666664,335.52520979245503L117.55065597333333,292.2692845153809L117.86951848,343.39728356003764L118.18838098666666,341.0292568341891L118.50724349333333,333.4802226130168L118.826106,342.42871171394984L119.14496850666666,337.2567679516474L119.46383101333332,339.318914548556L119.78269352,341.5624220943451L120.10155602666666,331.337602446874L120.42041853333332,342.0122135345141L120.73928104,341.30838949044545L121.05814354666666,342.3501290003459L121.37700605333332,341.4516085465749L121.69586856,338.05864354133604L122.01473106666666,341.69883335113525L122.33359357333332,342.69149630387625L122.65245607999998,339.9112679942449L122.97131858666667,343.554334385395L123.29018109333333,342.6899679795901L123.60904359999998,342.0471363886198L123.92790610666667,342.8103586467107L124.24676861333333,335.71306274890895L124.56563111999999,340.4999643675486L124.88449362666665,342.10854260683055L125.20335613333333,338.7800185966492L125.52221863999999,343.02613340775173L125.84108114666665,340.1838424285253L126.15994365333333,342.36744541486104L126.47880615999999,342.48677275657656L126.79766866666665,342.1480348539352L127.11653117333333,340.56663837591805L127.43539367999999,339.99895863374076L127.75425618666665,342.40064369837444L128.07311869333333,344.12240212599437L128.3919812,337.6011068137487L128.71084370666665,343.3317826851209L129.02970621333333,328.3307387161255L129.34856872,341.37249581813813L129.66743122666665,342.7558638938268L129.98629373333333,342.0250120894114L130.30515623999997,343.94107817927994L130.62401874666665,343.01437810420987L130.94288125333333,336.44685435295105L131.26174375999997,342.86225695610045L131.58060626666668,340.6917323629061L131.89946877333333,342.37733742713925L132.21833127999997,342.52859988530474L132.53719378666668,341.76512625217435L132.85605629333332,343.5979244351387L133.1749188,342.3073227373759L133.49378130666665,342.550570183595L133.81264381333332,341.8668615357081L134.13150632,336.643713666598L134.45036882666665,343.57727408051494L134.76923133333332,343.01580965360006L135.08809384,343.4781147170067L135.40695634666665,343.28930689493814L135.72581885333332,341.48124922911325L136.04468136,341.63379552761717L136.36354386666665,343.391294302543L136.68240637333332,341.2873491899172L137.00126888,343.027325266997L137.32013138666665,342.9153866736094L137.63899389333332,338.5626789585749L137.95785639999997,343.4774437344074L138.27671890666667,343.35174378077187L138.59558141333332,331.3327067756653L138.91444391999997,341.75239451090494L139.23330642666667,341.858948764801L139.55216893333332,344.3595201708873L139.87103144,343.7069806047281L140.18989394666667,343.5009514951706L140.50875645333332,343.99451410094895L140.82761896,337.1205879958471L141.14648146666664,343.04163147290546L141.46534397333332,343.3396133621534L141.78420648,343.49899112939835L142.10306898666664,343.6199037218094L142.42193149333332,343.8413891005516L142.740794,343.2216174991925L143.05965650666664,343.1400534896056L143.37851901333332,343.43392903725305L143.69738152,343.6497944311301L144.01624402666667,344.0737667485078L144.33510653333332,343.5466126175721L144.65396904,343.7271503806114L144.97283154666667,343.6858964109421L145.29169405333332,344.064763986667L145.61055656,344.2474878736337L145.92941906666667,343.066401052475L146.24828157333332,343.64669014414153L146.56714408,338.5566657320658L146.88600658666667,343.99750693202014L147.20486909333331,343.90291606267294L147.5237316,338.88219011624653L147.84259410666667,344.09014762242634L148.1614566133333,344.00810528119405L148.48031912,342.36499218622845L148.79918162666664,343.29969701329867L149.11804413333334,343.3151829441388L149.43690664,344.10574890414875L149.75576914666664,343.5125781150659L150.07463165333334,340.6896749226252L150.39349416,344.0798001988729L150.71235666666666,343.8348605402311L151.03121917333334,341.3973966280619L151.35008168,343.1536719346047L151.66894418666666,338.0793377892176L151.9878066933333,344.31827541430795L152.3066692,344.2373292060693L152.62553170666666,343.48815713485084L152.9443942133333,343.59156245946883L153.26325672,340.7377292013168L153.58211922666666,343.74370053569476L153.9009817333333,343.63161213596663L154.21984424,344.3546000063419L154.53870674666666,344.0468798061212L154.8575692533333,342.7826348861058L155.17643175999999,344.0019942311446L155.49529426666666,344.0286471760273L155.81415677333334,344.0388047949473L156.13301927999998,343.6172244354089L156.45188178666663,343.3095145718257L156.77074429333334,344.28284112135566L157.08960679999998,343.6239682674408L157.40846930666666,337.8241570695241L157.72733181333334,343.5842844180266L158.04619431999998,344.60508294900256L158.36505682666666,341.5457363645236L158.68391933333334,344.3939756292105L159.00278183999998,338.895586997668L159.32164434666666,344.01793617248535L159.6405068533333,344.12875421444573L159.95936935999998,343.95955154816306L160.27823186666666,344.79530089815455L160.5970943733333,343.6312851087252L160.91595688,342.65229737758636L161.23481938666666,343.97573782364526L161.5536818933333,340.88219704310103L161.87254439999998,344.4787805491686L162.19140690666666,343.52031366507214L162.51026941333333,343.1558833758036L162.82913191999998,344.5133989967903L163.14799442666666,344.15351300795874L163.46685693333333,340.08731621106466L163.78571943999998,343.33931734482445L164.10458194666666,343.92122269709904L164.42344445333333,343.0712836905321L164.74230695999998,344.2248322113355L165.06116946666666,342.2783415023486L165.38003197333333,344.337835328579L165.69889447999998,343.32525352557496L166.01775698666665,342.7307982969284L166.33661949333333,344.37237175722913L166.65548199999998,344.1969823137919L166.97434450666665,344.45785597403847L167.2932070133333,343.6817572617531L167.61206952,344.4823507338762L167.93093202666665,343.9742526435852L168.2497945333333,342.6875474087397L168.56865704,344.08491204063097L168.88751954666665,344.053538697958L169.20638205333333,344.665876609087L169.52524456,344.9115551875035L169.84410706666665,342.6050556484858L170.16296957333333,319.1278667640686L170.48183207999998,339.90188592274984L170.80069458666665,337.62339440186815L171.11955709333333,341.24187038183214L171.43841959999997,343.37322331349054L171.75728210666665,337.38423816680904L172.07614461333333,325.0368064880371L172.39500711999997,344.08710685332613L172.71386962666665,338.7644818814595L173.03273213333333,344.07297022819523L173.35159463999997,341.97742700417837L173.67045714666665,344.60450484633446L173.98931965333333,341.50819219907123L174.30818216,344.6642464164893L174.62704466666665,342.2203472733498L174.94590717333332,344.5616305712859L175.26476968,342.7908598534266L175.58363218666665,344.0592251968384L175.90249469333332,343.18337568561236L176.2213572,315.0392370669047L176.54021970666665,340.5139826456706L176.85908221333332,344.1357052286466L177.17794472,343.3489224779606L177.49680722666665,344.7300579148531L177.81566973333332,343.37771840254464L178.13453223999997,342.5204072761536L178.45339474666665,341.43291990598044L178.77225725333332,341.50298942486444L179.09111975999997,343.46142329454426L179.40998226666667,342.8751307137807L179.72884477333332,341.834710398515L180.04770728,345.06117921372254L180.36656978666664,341.8467572251956L180.68543229333332,340.82015235026677L181.0042948,345.100073958238L181.32315730666664,326.660775531133L181.64201981333332,341.75132998704913L181.96088232,344.84033395747343L182.27974482666664,343.7788611324628L182.59860733333332,344.75893750627836L182.91746984,314.5376470883687L183.23633234666664,342.7377325328191L183.55519485333332,312.7305248133341L183.87405736,342.62705171346664L184.19291986666664,344.30664115428925L184.51178237333332,343.8100542581081L184.83064488,344.3284098881483L185.14950738666667,303.6702661005656L185.46836989333332,342.95436808109287L185.78723239999997,344.0344661037127L186.10609490666667,340.5829079437256L186.42495741333332,338.3300069411596L186.74381992,344.61673855642476L187.06268242666667,343.8223466173808L187.3815449333333,344.77844865858555L187.70040744,309.1383029937744L188.01926994666667,325.98706046422325L188.33813245333332,343.904581609567L188.65699496,313.4694943237305L188.97585746666667,344.46840788324675L189.29471997333332,344.7761953465144L189.61358248,284.4789665095011L189.93244498666667,339.89586310863496L190.25130749333331,320.7470455996195L190.57017,344.4456482553482L190.88903250666667,344.1365765023232L191.2078950133333,344.5890665539106L191.52675752,344.80931812763214L191.84562002666667,308.4604784393311L192.1644825333333,342.31269928693774L192.48334504,343.86374485055603L192.80220754666664,343.7476396934191L193.1210700533333,344.44286462883156L193.43993256,344.38937170584995L193.75879506666664,274.9146873601278L194.0776575733333,344.1723202951749L194.39652008,334.71915220896403L194.71538258666664,344.06605411887165L195.0342450933333,342.52249228080115L195.35310760000002,342.43564684867863L195.67197010666663,344.41915949821475L195.9908326133333,344.4276437054078L196.30969512000001,344.73525402267774L196.62855762666663,284.5721005121867L196.94742013333334,343.4049130471547L197.26628263999996,342.7519991898537L197.58514514666663,344.7496508614222L197.90400765333334,343.3620182486375L198.22287015999996,344.893383453687L198.54173266666666,343.27576050678886L198.86059517333334,344.6446574397882L199.17945767999996,304.2524303181966L199.49832018666666,338.2897467867533L199.81718269333334,344.49059315363564L200.13604519999998,319.69076948165895L200.45490770666666,344.82903159340225L200.77377021333334,343.5438211262226L201.09263271999998,320.4249691581726L201.41149522666666,299.55391384124755L201.73035773333334,344.991563458244L202.04922023999998,342.8054515902201L202.36808274666666,280.97903498331704L202.6869452533333,338.377399075826L203.00580775999998,343.4075246210893L203.32467026666666,345.1414019322395L203.6435327733333,342.7723932258288L203.96239527999998,342.1639748477936L204.28125778666666,344.8811046518882L204.6001202933333,344.96483100364605L204.91898279999998,343.1322231121858L205.23784530666666,323.02095963795983L205.5567078133333,303.99861283620197L205.87557031999998,343.4492119805018L206.19443282666666,344.7233324340979L206.5132953333333,343.97103240648903L206.83215783999998,343.4043282032013L207.15102034666668,294.05894056955975L207.4698828533333,342.98474820772805L207.78874535999998,341.4778863763809L208.10760786666663,343.93953292687735L208.4264703733333,326.42954045613607L208.74533288,333.808726345698L209.06419538666663,343.77643022497494L209.3830578933333,307.6281735865275L209.7019204,344.7307532409827L210.02078290666662,275.90703811645506L210.33964541333333,343.06734333435696L210.65850792,344.7436800301075L210.97737042666665,342.1454048538208L211.29623293333333,268.41830783843994L211.61509544,325.37147145589194L211.93395794666665,344.89119927724204L212.25282045333333,344.1541493852933L212.57168296,344.3745154859622L212.89054546666665,319.00055774052936L213.20940797333333,331.0111372788747L213.52827047999997,344.8314169597626L213.84713298666665,344.70821487704916L214.16599549333333,344.35379726906615L214.48485799999997,265.35508216857914L214.80372050666665,344.6289828278621L215.12258301333333,304.80467161814374L215.44144551999997,342.1926205166181L215.76030802666665,269.6707847213745L216.07917053333333,345.1432198696335L216.39803303999997,345.2349570030967L216.71689554666665,342.36228308836615L217.03575805333332,342.8886045956612L217.35462055999997,310.4744724845886L217.67348306666665,343.4157822461923L217.99234557333332,344.86898262242477L218.31120807999997,343.7668457651138L218.63007058666665,301.49549989064536L218.9489330933333,345.0627653632561L219.26779559999997,342.5952885746956L219.58665810666668,342.7258786567052L219.9055206133333,345.0240916205446L220.22438311999997,338.97319746812184L220.54324562666667,343.90697057127954L220.8621081333333,343.2103303404649L221.18097064,342.9117700489362L221.49983314666667,345.0730523024996L221.8186956533333,340.18974899291993L222.13755816,344.7783040205638L222.45642066666667,344.8862501251698L222.77528317333332,343.4868271541595L223.09414568,343.1319056725502L223.41300818666667,342.87863887866337L223.73187069333332,260.6068203989665L224.0507332,343.94819338123006L224.36959570666664,283.08940603892006L224.68845821333332,344.5172810033957L225.00732072,344.713822427988L225.32618322666664,305.21011708577475L225.64504573333332,279.1913204193115L225.96390824,302.1222129185994L226.28277074666664,343.4146305350463L226.60163325333332,344.7871670130889L226.92049576,344.8173792817195L227.23935826666664,343.5045583824317L227.55822077333332,303.10648611704505L227.87708328,345.11519488592944L228.19594578666664,344.38635468105474L228.51480829333332,344.6844539435704L228.8336708,343.6977383025487L229.15253330666664,341.74068744500477L229.47139581333332,344.30214831233025L229.79025831999996,317.9171510950724L230.10912082666664,340.4760750500361L230.42798333333332,344.98361881603796L230.74684583999996,327.6324494171143L231.06570834666664,344.6239035689831L231.38457085333334,343.68078142325083L231.70343335999996,331.68742182413735L232.02229586666664,306.6333684031169L232.34115837333334,342.09689696153004L232.66002087999996,343.49816914200784L232.97888338666667,342.49691374699273L233.29774589333334,324.1895737330119L233.61660839999996,325.6886150741577L233.93547090666667,343.9738594019413L234.25433341333328,345.08163938919705L234.57319592,345.1943158162634L234.89205842666667,343.59188244581225L235.2109209333333,292.0571779123942L235.52978344,345.2360307774941L235.84864594666666,344.1916755739848L236.1675084533333,344.751234014829L236.48637096,344.70576569318774L236.80523346666666,344.58138740599156L237.1240959733333,314.70694023768107L237.44295848,342.9295232987404L237.76182098666666,341.45297118504845L238.0806834933333,345.2498896616697L238.399546,344.6486893276374L238.71840850666666,286.00992019653324L239.0372710133333,316.13484154383343L239.35613352,345.00907372216386L239.67499602666663,344.0912239809831L239.9938585333333,339.55840575059256L240.31272103999999,343.83974587480225L240.63158354666663,345.48680039331316L240.9504460533333,333.49355058352154L241.26930855999998,344.5464322686195L241.58817106666663,343.0121561765671L241.9070335733333,344.7563406133652L242.22589607999998,310.31795961380004L242.54475858666663,318.8287310663859L242.8636210933333,343.3517696972688L243.1824836,345.2936235629519L243.50134610666663,342.570239156882L243.8202086133333,344.42497662822404L244.13907112,268.2608553822835L244.45793362666663,345.13899731576447L244.77679613333333,344.6015762821833L245.09565863999995,340.84011164824165L245.41452114666666,344.97037185331186L245.73338365333333,311.0941026687622L246.05224615999995,340.39234529018404L246.37110866666666,329.64300390879316L246.68997117333333,344.4902854514122L247.00883367999998,343.41356945673624L247.32769618666666,340.9685577019056L247.64655869333333,341.6800958736738L247.96542119999998,336.7066401195526L248.28428370666666,323.1374778111776L248.60314621333333,342.36245446681977L248.92200871999998,344.83866638819376L249.24087122666666,344.80685081720355L249.55973373333333,344.265258351167L249.87859623999998,287.24469356536866L250.19745874666665,344.48232286989685L250.5163212533333,345.22504948586226L250.83518375999998,345.20040611813465L251.15404626666665,318.09764017105107L251.4729087733333,345.00082950472836L251.79177127999998,345.3259225028257L252.11063378666665,301.2980431493123L252.4294962933333,313.4788086827596L252.74835879999998,344.99440434823435L253.06722130666665,345.0076537827651L253.3860838133333,342.36401724656423L253.70494631999998,344.9476282546918L254.02380882666665,344.7959726297856L254.3426713333333,345.4982761020462L254.66153383999998,314.2835683441162L254.98039634666668,306.4136156845093L255.2992588533333,344.8426948304971L255.61812136,345.1379602064689L255.93698386666662,345.07202556729317L256.2558463733333,289.7121310297648L256.57470888,343.85796846787133L256.8935713866666,345.0166960560282L257.2124338933333,344.2140105009079L257.5312964,342.00949934323626L257.85015890666665,344.261450423797L258.1690214133333,340.0013093948364L258.48788392,307.3564248847962L258.8067464266666,342.6724822839101L259.1256089333333,274.5892792256673L259.44447144,343.87792072494824L259.76333394666665,343.57104063868525L260.0821964533333,264.7496632130941L260.40105896,293.94561027526856L260.7199214666666,342.5649797558784L261.0387839733333,345.2089272525906L261.35764647999997,344.6915686211983L261.67650898666665,323.5594882647197L261.9953714933333,345.22371100366115L262.31423399999994,345.33190604895356L262.6330965066667,343.03382057030996L262.95195901333335,285.6719714736938L263.27082151999997,342.61598821560546L263.58968402666665,345.0841104073326L263.9085465333333,307.6070928382874L264.22740904,344.68060459474725L264.5462715466667,344.959528046449L264.86513405333335,297.48719994862876L265.18399655999997,340.2233817148209L265.50285906666664,343.2917586255074L265.8217215733333,344.3165014076233L266.14058408,287.2779194132487L266.4594465866667,339.4348305002848L266.7783090933333,343.2823609741529L267.09717159999997,344.73540158192316L267.41603410666664,344.8066789144278L267.7348966133333,294.79556591033935L268.05375912,294.0210359700521L268.37262162666667,343.048916255633L268.6914841333333,345.07910271843275L269.01034663999997,343.89879084547357L269.32920914666664,281.06859760284425L269.6480716533333,323.1649391110738L269.96693416,343.34661021709445L270.28579666666667,343.0141944416364L270.6046591733333,265.60759094238284L270.92352167999996,327.07905400911966L271.24238418666664,345.10674857974055L271.5612466933333,344.193232960701L271.8801092,342.2667854412397L272.1989717066666,301.9658438618978L272.5178342133333,314.8689516003927L272.83669672,343.1816431752841L273.15555922666664,314.89161909739175L273.4744217333333,340.98228355805077L273.79328424,342.9576895872752L274.1121467466666,344.8785885794958L274.43100925333334,341.02967569271726L274.74987176,284.13389419555665L275.06873426666664,345.0357166674733L275.3875967733333,345.1743319875002L275.70645928,304.3851994832357L276.02532178666667,344.56803351898986L276.34418429333334,344.707543519934L276.66304679999996,345.2832900526623L276.98190930666664,343.29168881575265L277.3007718133333,280.9280576833089L277.61963432,344.12255073388417L277.93849682666666,344.8952956567208L278.25735933333334,343.9731307439009L278.57622183999996,342.1678062947591L278.89508434666664,343.9775325036049L279.2139468533333,344.6511632295449L279.53280936,338.5162575689952L279.85167186666666,339.6451088666916L280.17053437333334,343.4397259434064L280.48939687999996,345.15688194572925L280.80825938666663,344.8809328989188L281.1271218933333,338.85144985516865L281.4459844,317.6176103210449L281.76484690666666,345.2666181237499L282.0837094133333,342.7077775565783L282.40257191999996,344.25430211464567L282.72143442666663,344.35621926307675L283.0402969333333,343.1138331854344L283.35915944,344.59509768227736L283.67802194666666,315.00492542266846L283.9968844533333,345.4126807851096L284.31574695999996,345.5243465811511L284.6346094666667,344.2416926153501L284.9534719733333,340.32146172364554L285.27233448,344.82208245178066L285.59119698666666,345.099506042401L285.9100594933333,343.5046713364124L286.228922,293.8487371063232L286.5477845066667,343.3973704477151L286.8666470133333,345.29453614572685L287.18550952,342.3929376602173L287.5043720266666,339.88166326522827L287.82323453333333,345.31596521243455L288.14209704,341.86791497389476L288.46095954666663,334.099284731547L288.7798220533333,342.0157246955236L289.09868456,343.9422688400745L289.41754706666666,345.0289556451639L289.73640957333333,314.9210818099976L290.05527208,335.56028125445044L290.3741345866666,343.4195333969593L290.6929970933333,322.6200706799825L291.0118596,344.9110316892465L291.33072210666666,299.2286734898885L291.64958461333333,344.8472649725278L291.96844712,344.98506594528754L292.2873096266666,327.8336680952708L292.6061721333333,344.5155730613073L292.92503464,342.976862701575L293.24389714666665,345.168961430192L293.56275965333333,344.893551910917L293.88162215999995,307.9586319923401L294.2004846666666,314.93536015192666L294.5193471733333,322.4325347137451L294.83820968,344.5161474937201L295.15707218666665,325.2282709757487L295.47593469333333,344.19630069494247L295.79479719999995,343.2131792076429L296.1136597066666,341.03615781307224L296.43252221333336,342.8876919754346L296.75138472,342.9046952946981L297.07024722666665,343.93062454303106L297.38910973333327,345.2929009720683L297.70797223999995,341.0133524942398L298.0268347466667,342.87032972017926L298.3456972533333,341.49630596478784L298.66455976,344.91597327609855L298.98342226666665,345.472984166493L299.30228477333327,344.54338910261794L299.62114728,341.61138719558716L299.9400097866667,307.3531842740377L300.2588722933333,344.89326405803365L300.5777348,344.1616302645206L300.89659730666665,291.3949715677897L301.2154598133333,344.88096166173614L301.53432232,336.3682383823395L301.8531848266667,344.2968044205507L302.1720473333333,287.13873613993326L302.49090984,341.0169005076091L302.80977234666665,345.11767272025344L303.1286348533333,344.95935917725166L303.44749736,344.5546801563104L303.7663598666666,310.2763182449341L304.0852223733333,315.10430575052897L304.40408487999997,342.7732800793648L304.72294738666665,344.96377917587756L305.0418098933333,268.8762502415975L305.3606724,344.5880443503459L305.6795349066666,345.11498526940744L305.9983974133333,345.08548810134334L306.31725991999997,343.01605084180835L306.63612242666665,343.7838117825985L306.9549849333333,301.4147626622518L307.27384744,345.1305570767323L307.5927099466666,343.82182289441425L307.9115724533333,344.7104477405548L308.23043495999997,343.72659220218657L308.54929746666664,340.4194973897934L308.8681599733333,315.47077999750775L309.18702247999994,313.81018749872845L309.5058849866666,344.6535450754563L309.82474749333335,344.55621439794703L310.14360999999997,325.4365113766988L310.46247250666664,312.4381100273132L310.7813350133333,339.47420919418335L311.10019751999994,344.8360788581769L311.41906002666667,344.2354070409139L311.73792253333335,340.7581133500735L312.05678503999997,298.1177000808716L312.37564754666664,343.80366217136384L312.6945100533333,344.06859842975933L313.01337256,343.79249875267345L313.33223506666667,344.65649251520637L313.6510975733333,263.53514366149903L313.96996007999996,257.2418104553223L314.28882258666664,345.1219552341104L314.6076850933333,345.2119900432229L314.9265476,343.0260848704974L315.24541010666667,344.99382860501606L315.5642726133333,343.1455010473728L315.88313511999996,344.7939236535629L316.20199762666664,326.26982172966007L316.5208601333333,344.3439877251784L316.83972264,344.54763109385965L317.15858514666667,343.9191311009725L317.4774476533333,294.2778591664632L317.79631015999996,337.4131232261658L318.11517266666664,345.0669363462925L318.4340351733333,343.63773352265355L318.75289768,344.474632336696L319.0717601866666,308.55662055333454L319.3906226933333,342.2197435537974L319.70948519999996,344.2456203877926L320.02834770666664,343.5568120324612L320.3472102133333,299.3180155944824L320.66607272,301.4118863805135L320.9849352266666,284.1058168919881L321.3037977333333,343.8913492155075L321.62266024,343.9565241118272L321.94152274666664,344.525614430507L322.2603852533333,340.1507562001546L322.57924776,345.5685337472645L322.8981102666666,331.14435825983685L323.21697277333334,319.09199953079224L323.53583528,341.72865200360616L323.85469778666663,344.351911731561L324.1735602933333,329.16847614606223L324.4924228,283.21049270629885L324.81128530666666,343.6395601113637L325.13014781333334,324.5645737584432L325.44901031999996,320.08689819335933L325.76787282666663,344.101872065862L326.0867353333333,334.15206689834594L326.40559784,292.4162337493896L326.72446034666666,307.0334088579813L327.04332285333334,344.4819834836324L327.36218535999996,344.44806358297666L327.68104786666663,276.69762729644776L327.9999103733333,341.6536523580551L328.31877288,322.064583975474L328.63763538666666,345.4087639859816L328.95649789333334,345.42759533584115L329.27536039999995,338.372282889684L329.59422290666663,311.87334491729735L329.9130854133333,345.11167189021904L330.23194792,344.83708960155644L330.55081042666666,307.39324129104614L330.8696729333333,328.1898967870077L331.18853543999995,344.8959700848659L331.50739794666663,343.46048985123633L331.8262604533333,342.9991439978282L332.14512296,318.87875439961755L332.46398546666666,342.318673863411L332.7828479733333,343.4977264642715L333.10171047999995,344.65974331279597L333.4205729866667,335.97502849737805L333.7394354933333,319.16594394048053L334.058298,343.516996203661L334.3771605066666,345.1784317376216L334.69602301333333,342.66544887622194L335.01488552,344.6840232503414L335.3337480266666,340.9662887350718L335.6526105333333,343.9662224245071L335.97147304,343.59858553051953L336.29033554666665,315.28577276229856L336.60919805333333,345.21336286852755L336.92806056,311.58875601450603L337.2469230666666,342.8986212468147L337.5657855733333,343.56664876619976L337.88464808,344.5696798157692L338.20351058666665,341.1837907632192L338.52237309333333,345.55394023152064L338.8412356,344.3826412065824L339.1600981066666,345.3014045417309L339.4789606133333,342.60927000045774L339.79782312,344.0091465850671L340.11668562666665,278.04099468231203L340.4355481333333,344.7366004071633L340.75441063999995,292.7937888717651L341.0732731466666,313.05102649052935L341.3921356533333,344.1323211034139L341.71099816,325.88749078114824L342.02986066666665,344.18899463971456L342.3487231733333,344.76943630913894" style="fill: none;" fill="none"></path></g></g></g></g></g><g><g opacity="0.0241828"><span fill="rgb(0, 0, 0)" stroke="none" stroke-width="1px">Alt + Scroll to Zoom</span></g></g></g><g transform="translate(70, 377)" clip-path="url(#clip_1)"><clipPath id="clip_1"><rect width="373" height="23"></rect></clipPath><g><g><line x1="0" y1="0" x2="0" y2="5" style="visibility: inherit;" fill="rgb(0, 0, 0)" stroke="rgb(204, 204, 204)" stroke-width="1px"></line><line x1="31.138916666666663" y1="0" x2="31.138916666666663" y2="5" style="visibility: inherit;" fill="rgb(0, 0, 0)" stroke="rgb(204, 204, 204)" stroke-width="1px"></line><line x1="62.27783333333333" y1="0" x2="62.27783333333333" y2="5" style="visibility: inherit;" fill="rgb(0, 0, 0)" stroke="rgb(204, 204, 204)" stroke-width="1px"></line><line x1="93.41675" y1="0" x2="93.41675" y2="5" style="visibility: inherit;" fill="rgb(0, 0, 0)" stroke="rgb(204, 204, 204)" stroke-width="1px"></line><line x1="124.55566666666665" y1="0" x2="124.55566666666665" y2="5" style="visibility: inherit;" fill="rgb(0, 0, 0)" stroke="rgb(204, 204, 204)" stroke-width="1px"></line><line x1="155.69458333333333" y1="0" x2="155.69458333333333" y2="5" style="visibility: inherit;" fill="rgb(0, 0, 0)" stroke="rgb(204, 204, 204)" stroke-width="1px"></line><line x1="186.8335" y1="0" x2="186.8335" y2="5" style="visibility: inherit;" fill="rgb(0, 0, 0)" stroke="rgb(204, 204, 204)" stroke-width="1px"></line><line x1="217.97241666666667" y1="0" x2="217.97241666666667" y2="5" style="visibility: inherit;" fill="rgb(0, 0, 0)" stroke="rgb(204, 204, 204)" stroke-width="1px"></line><line x1="249.1113333333333" y1="0" x2="249.1113333333333" y2="5" style="visibility: inherit;" fill="rgb(0, 0, 0)" stroke="rgb(204, 204, 204)" stroke-width="1px"></line><line x1="280.25025" y1="0" x2="280.25025" y2="5" style="visibility: inherit;" fill="rgb(0, 0, 0)" stroke="rgb(204, 204, 204)" stroke-width="1px"></line><line x1="311.38916666666665" y1="0" x2="311.38916666666665" y2="5" style="visibility: inherit;" fill="rgb(0, 0, 0)" stroke="rgb(204, 204, 204)" stroke-width="1px"></line><line x1="342.5280833333333" y1="0" x2="342.5280833333333" y2="5" style="visibility: inherit;" fill="rgb(0, 0, 0)" stroke="rgb(204, 204, 204)" stroke-width="1px"></line><line x1="373.667" y1="0" x2="373.667" y2="5" style="visibility: inherit;" fill="rgb(0, 0, 0)" stroke="rgb(204, 204, 204)" stroke-width="1px"></line></g><g transform="translate(0, 8)"><text x="0" y="0" dx="0em" dy="0.95em" style="text-anchor: middle; visibility: hidden; font-family: Roboto, sans-serif; font-size: 12px; font-weight: 200;" fill="rgb(33, 33, 33)" stroke="none" stroke-width="1px">-50k</text><text x="31.138916666666663" y="0" dx="0em" dy="0.95em" style="text-anchor: middle; visibility: inherit; font-family: Roboto, sans-serif; font-size: 12px; font-weight: 200;" fill="rgb(33, 33, 33)" stroke="none" stroke-width="1px">0</text><text x="62.27783333333333" y="0" dx="0em" dy="0.95em" style="text-anchor: middle; visibility: hidden; font-family: Roboto, sans-serif; font-size: 12px; font-weight: 200;" fill="rgb(33, 33, 33)" stroke="none" stroke-width="1px">50k</text><text x="93.41675" y="0" dx="0em" dy="0.95em" style="text-anchor: middle; visibility: inherit; font-family: Roboto, sans-serif; font-size: 12px; font-weight: 200;" fill="rgb(33, 33, 33)" stroke="none" stroke-width="1px">100k</text><text x="124.55566666666665" y="0" dx="0em" dy="0.95em" style="text-anchor: middle; visibility: hidden; font-family: Roboto, sans-serif; font-size: 12px; font-weight: 200;" fill="rgb(33, 33, 33)" stroke="none" stroke-width="1px">150k</text><text x="155.69458333333333" y="0" dx="0em" dy="0.95em" style="text-anchor: middle; visibility: inherit; font-family: Roboto, sans-serif; font-size: 12px; font-weight: 200;" fill="rgb(33, 33, 33)" stroke="none" stroke-width="1px">200k</text><text x="186.8335" y="0" dx="0em" dy="0.95em" style="text-anchor: middle; visibility: hidden; font-family: Roboto, sans-serif; font-size: 12px; font-weight: 200;" fill="rgb(33, 33, 33)" stroke="none" stroke-width="1px">250k</text><text x="217.97241666666667" y="0" dx="0em" dy="0.95em" style="text-anchor: middle; visibility: inherit; font-family: Roboto, sans-serif; font-size: 12px; font-weight: 200;" fill="rgb(33, 33, 33)" stroke="none" stroke-width="1px">300k</text><text x="249.1113333333333" y="0" dx="0em" dy="0.95em" style="text-anchor: middle; visibility: hidden; font-family: Roboto, sans-serif; font-size: 12px; font-weight: 200;" fill="rgb(33, 33, 33)" stroke="none" stroke-width="1px">350k</text><text x="280.25025" y="0" dx="0em" dy="0.95em" style="text-anchor: middle; visibility: inherit; font-family: Roboto, sans-serif; font-size: 12px; font-weight: 200;" fill="rgb(33, 33, 33)" stroke="none" stroke-width="1px">400k</text><text x="311.38916666666665" y="0" dx="0em" dy="0.95em" style="text-anchor: middle; visibility: hidden; font-family: Roboto, sans-serif; font-size: 12px; font-weight: 200;" fill="rgb(33, 33, 33)" stroke="none" stroke-width="1px">450k</text><text x="342.5280833333333" y="0" dx="0em" dy="0.95em" style="text-anchor: middle; visibility: inherit; font-family: Roboto, sans-serif; font-size: 12px; font-weight: 200;" fill="rgb(33, 33, 33)" stroke="none" stroke-width="1px">500k</text><text x="373.667" y="0" dx="0em" dy="0.95em" style="text-anchor: middle; visibility: hidden; font-family: Roboto, sans-serif; font-size: 12px; font-weight: 200;" fill="rgb(33, 33, 33)" stroke="none" stroke-width="1px">550k</text></g><line x1="0" y1="0" x2="373.667" y2="0" fill="rgb(0, 0, 0)" stroke="rgb(204, 204, 204)" stroke-width="1px"></line></g></g></g></g></svg>