<svg viewBox="0 0 443.66668701171875 400" xmlns="http://www.w3.org/2000/svg"><g><g><g><g><g><line x1="50" y1="377" x2="45" y2="377" style="visibility: inherit;" fill="rgb(0, 0, 0)" stroke="rgb(204, 204, 204)" stroke-width="1px"></line><line x1="50" y1="351.8666666666667" x2="45" y2="351.8666666666667" style="visibility: inherit;" fill="rgb(0, 0, 0)" stroke="rgb(204, 204, 204)" stroke-width="1px"></line><line x1="50" y1="326.73333333333335" x2="45" y2="326.73333333333335" style="visibility: inherit;" fill="rgb(0, 0, 0)" stroke="rgb(204, 204, 204)" stroke-width="1px"></line><line x1="50" y1="301.6" x2="45" y2="301.6" style="visibility: inherit;" fill="rgb(0, 0, 0)" stroke="rgb(204, 204, 204)" stroke-width="1px"></line><line x1="50" y1="276.4666666666667" x2="45" y2="276.4666666666667" style="visibility: inherit;" fill="rgb(0, 0, 0)" stroke="rgb(204, 204, 204)" stroke-width="1px"></line><line x1="50" y1="251.33333333333337" x2="45" y2="251.33333333333337" style="visibility: inherit;" fill="rgb(0, 0, 0)" stroke="rgb(204, 204, 204)" stroke-width="1px"></line><line x1="50" y1="226.2" x2="45" y2="226.2" style="visibility: inherit;" fill="rgb(0, 0, 0)" stroke="rgb(204, 204, 204)" stroke-width="1px"></line><line x1="50" y1="201.06666666666666" x2="45" y2="201.06666666666666" style="visibility: inherit;" fill="rgb(0, 0, 0)" stroke="rgb(204, 204, 204)" stroke-width="1px"></line><line x1="50" y1="175.93333333333334" x2="45" y2="175.93333333333334" style="visibility: inherit;" fill="rgb(0, 0, 0)" stroke="rgb(204, 204, 204)" stroke-width="1px"></line><line x1="50" y1="150.8" x2="45" y2="150.8" style="visibility: inherit;" fill="rgb(0, 0, 0)" stroke="rgb(204, 204, 204)" stroke-width="1px"></line><line x1="50" y1="125.66666666666669" x2="45" y2="125.66666666666669" style="visibility: inherit;" fill="rgb(0, 0, 0)" stroke="rgb(204, 204, 204)" stroke-width="1px"></line><line x1="50" y1="100.53333333333336" x2="45" y2="100.53333333333336" style="visibility: inherit;" fill="rgb(0, 0, 0)" stroke="rgb(204, 204, 204)" stroke-width="1px"></line><line x1="50" y1="75.39999999999998" x2="45" y2="75.39999999999998" style="visibility: inherit;" fill="rgb(0, 0, 0)" stroke="rgb(204, 204, 204)" stroke-width="1px"></line><line x1="50" y1="50.26666666666666" x2="45" y2="50.26666666666666" style="visibility: inherit;" fill="rgb(0, 0, 0)" stroke="rgb(204, 204, 204)" stroke-width="1px"></line><line x1="50" y1="25.13333333333333" x2="45" y2="25.13333333333333" style="visibility: inherit;" fill="rgb(0, 0, 0)" stroke="rgb(204, 204, 204)" stroke-width="1px"></line><line x1="50" y1="0" x2="45" y2="0" style="visibility: inherit;" fill="rgb(0, 0, 0)" stroke="rgb(204, 204, 204)" stroke-width="1px"></line></g><g transform="translate(40, 0)"><text x="0" y="377" dx="0em" dy="0.3em" style="text-anchor: end; visibility: hidden; font-family: Roboto, sans-serif; font-size: 12px; font-weight: 200;" fill="rgb(33, 33, 33)" stroke="none" stroke-width="1px">-340</text><text x="0" y="351.8666666666667" dx="0em" dy="0.3em" style="text-anchor: end; visibility: inherit; font-family: Roboto, sans-serif; font-size: 12px; font-weight: 200;" fill="rgb(33, 33, 33)" stroke="none" stroke-width="1px">-320</text><text x="0" y="326.73333333333335" dx="0em" dy="0.3em" style="text-anchor: end; visibility: inherit; font-family: Roboto, sans-serif; font-size: 12px; font-weight: 200;" fill="rgb(33, 33, 33)" stroke="none" stroke-width="1px">-300</text><text x="0" y="301.6" dx="0em" dy="0.3em" style="text-anchor: end; visibility: inherit; font-family: Roboto, sans-serif; font-size: 12px; font-weight: 200;" fill="rgb(33, 33, 33)" stroke="none" stroke-width="1px">-280</text><text x="0" y="276.4666666666667" dx="0em" dy="0.3em" style="text-anchor: end; visibility: inherit; font-family: Roboto, sans-serif; font-size: 12px; font-weight: 200;" fill="rgb(33, 33, 33)" stroke="none" stroke-width="1px">-260</text><text x="0" y="251.33333333333337" dx="0em" dy="0.3em" style="text-anchor: end; visibility: inherit; font-family: Roboto, sans-serif; font-size: 12px; font-weight: 200;" fill="rgb(33, 33, 33)" stroke="none" stroke-width="1px">-240</text><text x="0" y="226.2" dx="0em" dy="0.3em" style="text-anchor: end; visibility: inherit; font-family: Roboto, sans-serif; font-size: 12px; font-weight: 200;" fill="rgb(33, 33, 33)" stroke="none" stroke-width="1px">-220</text><text x="0" y="201.06666666666666" dx="0em" dy="0.3em" style="text-anchor: end; visibility: inherit; font-family: Roboto, sans-serif; font-size: 12px; font-weight: 200;" fill="rgb(33, 33, 33)" stroke="none" stroke-width="1px">-200</text><text x="0" y="175.93333333333334" dx="0em" dy="0.3em" style="text-anchor: end; visibility: inherit; font-family: Roboto, sans-serif; font-size: 12px; font-weight: 200;" fill="rgb(33, 33, 33)" stroke="none" stroke-width="1px">-180</text><text x="0" y="150.8" dx="0em" dy="0.3em" style="text-anchor: end; visibility: inherit; font-family: Roboto, sans-serif; font-size: 12px; font-weight: 200;" fill="rgb(33, 33, 33)" stroke="none" stroke-width="1px">-160</text><text x="0" y="125.66666666666669" dx="0em" dy="0.3em" style="text-anchor: end; visibility: inherit; font-family: Roboto, sans-serif; font-size: 12px; font-weight: 200;" fill="rgb(33, 33, 33)" stroke="none" stroke-width="1px">-140</text><text x="0" y="100.53333333333336" dx="0em" dy="0.3em" style="text-anchor: end; visibility: inherit; font-family: Roboto, sans-serif; font-size: 12px; font-weight: 200;" fill="rgb(33, 33, 33)" stroke="none" stroke-width="1px">-120</text><text x="0" y="75.39999999999998" dx="0em" dy="0.3em" style="text-anchor: end; visibility: inherit; font-family: Roboto, sans-serif; font-size: 12px; font-weight: 200;" fill="rgb(33, 33, 33)" stroke="none" stroke-width="1px">-100</text><text x="0" y="50.26666666666666" dx="0em" dy="0.3em" style="text-anchor: end; visibility: inherit; font-family: Roboto, sans-serif; font-size: 12px; font-weight: 200;" fill="rgb(33, 33, 33)" stroke="none" stroke-width="1px">-80</text><text x="0" y="25.13333333333333" dx="0em" dy="0.3em" style="text-anchor: end; visibility: inherit; font-family: Roboto, sans-serif; font-size: 12px; font-weight: 200;" fill="rgb(33, 33, 33)" stroke="none" stroke-width="1px">-60</text><text x="0" y="0" dx="0em" dy="0.3em" style="text-anchor: end; visibility: hidden; font-family: Roboto, sans-serif; font-size: 12px; font-weight: 200;" fill="rgb(33, 33, 33)" stroke="none" stroke-width="1px">-40</text></g><line x1="50" y1="0" x2="50" y2="377" fill="rgb(0, 0, 0)" stroke="rgb(204, 204, 204)" stroke-width="1px"></line></g></g><g transform="translate(50, 0)" clip-path="url(#clip_0)"><clipPath id="clip_0"><rect width="393" height="377"></rect></clipPath><g><g><g><line x1="0" y1="0" x2="0" y2="377" fill="rgb(0, 0, 0)" stroke="rgb(66, 66, 66)" stroke-width="1px" opacity="0.25"></line><line x1="32.80558333333333" y1="0" x2="32.80558333333333" y2="377" fill="rgb(0, 0, 0)" stroke="rgb(66, 66, 66)" stroke-width="1px" opacity="0.25"></line><line x1="65.61116666666666" y1="0" x2="65.61116666666666" y2="377" fill="rgb(0, 0, 0)" stroke="rgb(66, 66, 66)" stroke-width="1px" opacity="0.25"></line><line x1="98.41675" y1="0" x2="98.41675" y2="377" fill="rgb(0, 0, 0)" stroke="rgb(66, 66, 66)" stroke-width="1px" opacity="0.25"></line><line x1="131.22233333333332" y1="0" x2="131.22233333333332" y2="377" fill="rgb(0, 0, 0)" stroke="rgb(66, 66, 66)" stroke-width="1px" opacity="0.25"></line><line x1="164.02791666666667" y1="0" x2="164.02791666666667" y2="377" fill="rgb(0, 0, 0)" stroke="rgb(66, 66, 66)" stroke-width="1px" opacity="0.25"></line><line x1="196.8335" y1="0" x2="196.8335" y2="377" fill="rgb(0, 0, 0)" stroke="rgb(66, 66, 66)" stroke-width="1px" opacity="0.25"></line><line x1="229.63908333333333" y1="0" x2="229.63908333333333" y2="377" fill="rgb(0, 0, 0)" stroke="rgb(66, 66, 66)" stroke-width="1px" opacity="0.25"></line><line x1="262.44466666666665" y1="0" x2="262.44466666666665" y2="377" fill="rgb(0, 0, 0)" stroke="rgb(66, 66, 66)" stroke-width="1px" opacity="0.25"></line><line x1="295.25025" y1="0" x2="295.25025" y2="377" fill="rgb(0, 0, 0)" stroke="rgb(66, 66, 66)" stroke-width="1px" opacity="0.25"></line><line x1="328.05583333333334" y1="0" x2="328.05583333333334" y2="377" fill="rgb(0, 0, 0)" stroke="rgb(66, 66, 66)" stroke-width="1px" opacity="0.25"></line><line x1="360.8614166666666" y1="0" x2="360.8614166666666" y2="377" fill="rgb(0, 0, 0)" stroke="rgb(66, 66, 66)" stroke-width="1px" opacity="0.25"></line><line x1="393.667" y1="0" x2="393.667" y2="377" fill="rgb(0, 0, 0)" stroke="rgb(66, 66, 66)" stroke-width="1px" opacity="0.25"></line></g><g><line x1="0" y1="377" x2="393.667" y2="377" fill="rgb(0, 0, 0)" stroke="rgb(66, 66, 66)" stroke-width="1px" opacity="0.25"></line><line x1="0" y1="351.8666666666667" x2="393.667" y2="351.8666666666667" fill="rgb(0, 0, 0)" stroke="rgb(66, 66, 66)" stroke-width="1px" opacity="0.25"></line><line x1="0" y1="326.73333333333335" x2="393.667" y2="326.73333333333335" fill="rgb(0, 0, 0)" stroke="rgb(66, 66, 66)" stroke-width="1px" opacity="0.25"></line><line x1="0" y1="301.6" x2="393.667" y2="301.6" fill="rgb(0, 0, 0)" stroke="rgb(66, 66, 66)" stroke-width="1px" opacity="0.25"></line><line x1="0" y1="276.4666666666667" x2="393.667" y2="276.4666666666667" fill="rgb(0, 0, 0)" stroke="rgb(66, 66, 66)" stroke-width="1px" opacity="0.25"></line><line x1="0" y1="251.33333333333337" x2="393.667" y2="251.33333333333337" fill="rgb(0, 0, 0)" stroke="rgb(66, 66, 66)" stroke-width="1px" opacity="0.25"></line><line x1="0" y1="226.2" x2="393.667" y2="226.2" fill="rgb(0, 0, 0)" stroke="rgb(66, 66, 66)" stroke-width="1px" opacity="0.25"></line><line x1="0" y1="201.06666666666666" x2="393.667" y2="201.06666666666666" fill="rgb(0, 0, 0)" stroke="rgb(66, 66, 66)" stroke-width="1px" opacity="0.25"></line><line x1="0" y1="175.93333333333334" x2="393.667" y2="175.93333333333334" fill="rgb(0, 0, 0)" stroke="rgb(66, 66, 66)" stroke-width="1px" opacity="0.25"></line><line x1="0" y1="150.8" x2="393.667" y2="150.8" fill="rgb(0, 0, 0)" stroke="rgb(66, 66, 66)" stroke-width="1px" opacity="0.25"></line><line x1="0" y1="125.66666666666669" x2="393.667" y2="125.66666666666669" fill="rgb(0, 0, 0)" stroke="rgb(66, 66, 66)" stroke-width="1px" opacity="0.25"></line><line x1="0" y1="100.53333333333336" x2="393.667" y2="100.53333333333336" fill="rgb(0, 0, 0)" stroke="rgb(66, 66, 66)" stroke-width="1px" opacity="0.25"></line><line x1="0" y1="75.39999999999998" x2="393.667" y2="75.39999999999998" fill="rgb(0, 0, 0)" stroke="rgb(66, 66, 66)" stroke-width="1px" opacity="0.25"></line><line x1="0" y1="50.26666666666666" x2="393.667" y2="50.26666666666666" fill="rgb(0, 0, 0)" stroke="rgb(66, 66, 66)" stroke-width="1px" opacity="0.25"></line><line x1="0" y1="25.13333333333333" x2="393.667" y2="25.13333333333333" fill="rgb(0, 0, 0)" stroke="rgb(66, 66, 66)" stroke-width="1px" opacity="0.25"></line><line x1="0" y1="0" x2="393.667" y2="0" fill="rgb(0, 0, 0)" stroke="rgb(66, 66, 66)" stroke-width="1px" opacity="0.25"></line></g></g></g><g><g><line x1="0" y1="-50.26666666666666" x2="393.667" y2="-50.26666666666666" fill="rgb(0, 0, 0)" stroke="rgb(153, 153, 153)" stroke-width="1.5px"></line></g></g><g><g><line x1="32.80558333333333" y1="0" x2="32.80558333333333" y2="377" fill="rgb(0, 0, 0)" stroke="rgb(153, 153, 153)" stroke-width="1.5px"></line></g></g><g><g><g><g><g><path stroke="rgb(255, 112, 67)" stroke-width="2px" d="M35.220074266666664,99.59861846923827L35.29880766666667,169.06135806916595L35.48251893333333,138.10129914896766L35.613741266666665,228.1211216284168L37.398365,199.65379849445932L37.42460946666666,251.37414458760418L37.897009866666664,219.52582124614463L38.343165799999994,193.0524523745627L40.0753006,174.16896700977392L40.25901186666667,180.05804894867146L40.8626346,218.63448464424877L41.0988348,277.3147483236107L42.14861346666667,261.5006421313555L42.72599173333333,299.7661882441916L43.487081266666664,252.89140953969547L43.644548066666665,269.42892172197844L44.98301586666666,229.36184050085978L45.744105399999995,256.31480527842683L45.87532773333333,243.07002571585932L47.42375126666666,188.29043248807963L47.8699072,182.09259385632257L48.15859633333333,192.28937232438045L49.23461946666666,184.48716670711875L50.28439813333333,203.8864335437866L50.44186493333333,215.7718245234654L51.12422106666666,250.515494069823L52.777622466666664,235.51567638053965L53.145045,209.97566457627414L53.171289466666664,223.91881975041375L53.90613453333333,202.6124014801462L55.612024866666665,169.16957905470315L55.638269333333334,167.75693297811242L56.031936333333334,146.80425761371944L56.89800373333333,230.78671938079464L57.3179152,195.35409471524795L58.63013853333333,190.22512880608906L58.945072133333326,192.59116516212717L59.102538933333335,194.19900152828754L59.70616166666667,195.70029204601585L60.834673733333325,179.39178467508484L60.86091819999999,157.09748743975626L61.0971184,151.17760076654432L62.38309726666667,138.31268627062875L63.380387,226.50823581876585L63.511609333333325,190.71873320925565L64.06274313333333,133.18820090034845L65.45369986666667,150.42911488644472L65.55867773333333,221.50556860806412L66.03107813333334,253.14923631190914L67.00212339999999,237.00116623975006L67.42203486666666,200.55026303761562L67.8681908,171.41718623922537L68.86548053333333,142.528339423482L68.91796946666666,154.80209590940476L69.04919179999999,144.39701611433517L69.9152592,172.57971601044486L70.62385979999999,143.00278861749857L71.04377126666667,152.3216744791125L72.48721693333333,177.17836899584347L72.53970586666667,143.53417350006887L72.90712839999999,188.50120986659653L73.66821793333334,158.85796906449374L74.5605298,138.33809211083397L74.69175213333332,213.71977255227847L75.13790806666665,229.92350085564868L76.58135373333333,201.31233601287255L76.66008713333333,167.8237720353624L76.81755393333333,149.35081028162236L77.63113239999998,186.66651432557927L78.47095533333332,165.4552382769027L79.23204486666667,159.7304353499714L79.3632672,179.5333610583364L79.75693419999999,165.33616862729173L80.25557906666666,153.54817525524928L81.83024706666666,132.4258836865234L82.22391406666667,114.4866666022543L82.88002573333333,125.59815263933702L83.24744826666667,147.1694250841428L84.61216053333332,150.4408609189036L84.97958306666666,142.90939962379673L86.13433959999999,132.1227671005485L86.18682853333333,122.32530673562503L87.28909613333333,110.53098943553113L87.34158506666665,106.12026069647044L87.99769673333333,82.56975487801488L89.0474754,93.91614428953766L89.07371986666666,93.80694485926583L89.41489793333332,114.732631622289L89.5198758,99.17166308439982L91.04205486666666,125.31906084210746L91.61943313333332,108.5194229420972L92.32803373333333,172.7821016439013L92.80043413333333,163.69162457206411L93.01038986666667,159.29151097741084L93.66650153333333,140.254278839318L94.21763533333333,125.16302450002547L94.6375468,133.25714818012844L95.94977013333333,131.32484800816715L96.34343713333332,123.10749984391002L96.73710413333333,143.05483108511933L98.31177213333332,135.1669757945544L99.7552178,128.7605132807257L99.78146226666667,164.66309774743692L99.9126846,182.48119302623596L100.12264033333334,154.54899428008468L101.51359706666666,135.89192130055386L102.14346426666667,119.6329382084213L102.53713126666666,158.64344728668007L103.00953166666666,215.42397503228634L105.05660006666665,185.28095368629067L105.37153366666666,245.81758820857442L106.44755679999999,247.01293716677247L107.20864633333332,242.0314200748715L107.9434914,220.53541265500104L108.28466946666667,193.10332450890968L108.83580326666667,191.7844107065193L109.93807086666666,222.5205935768349L110.41047126666665,227.78319304069424L110.8566272,192.6564240005384L111.69645013333333,189.53171903085826L112.53627306666665,165.27872139420083L113.42858493333333,142.770481073439L113.74351853333332,142.03567459147362L115.08198633333332,123.14905991242885L115.13447526666666,185.7533142979919L115.37067546666665,178.17808235791261L116.18425393333334,160.23843872943627L117.23403259999999,135.94182081378202L117.73267746666666,89.56089406498576L117.99512213333334,90.79312732498016L119.17612313333333,101.51226566272351L119.96345713333334,96.73260374150185L120.19965733333333,96.45090357291294L120.22590179999999,139.88724018063428L121.66934746666665,157.4070321450451L121.90554766666665,137.13993975966716L121.9580366,120.65173948746845L122.16799233333333,110.54265438690304L123.9263716,102.71075371919333L124.24130519999999,100.35994971749008L124.34628306666667,115.68528935549155L124.5562388,192.27046361586295L126.05217339999999,171.5195999181833L126.10466233333334,177.9721881681529L126.41959593333333,159.2448613417446L127.07570759999999,141.91928586937155L128.12548626666666,127.5167957107659L128.44041986666664,124.02482216832878L129.2015094,133.0634748022864L130.04133233333332,167.08341087139422L130.35626593333333,147.96053386681328L130.90739973333334,164.38751172975807L132.03591179999998,122.1249420980824L132.69202346666665,122.04195101194065L132.95446813333334,175.04471056212842L133.71555766666665,156.32091079873234L134.81782526666666,143.16979819005616L135.29022566666666,140.34248951423618L136.39249326666666,134.82649431176657L136.47122666666667,154.76449010254805L137.15358279999998,138.6424966324595L138.6495174,172.96789852982855L139.0431844,213.44876119781742L139.4368514,219.1083747047353L140.53911899999997,183.9913606898976L141.1427417333333,183.76447711787068L141.4051864,160.37361814336322L142.82238759999998,188.0532613361866L143.26854353333331,166.81619803075222L143.63596606666667,149.86925507619125L144.58076686666666,137.33603645297063L146.31290166666665,154.61737762200454L146.5228574,168.45003350937188L147.625125,195.70540390770648L148.3337256,159.20954076677563L148.67490366666664,179.04141827569904L148.7011481333333,187.03574605425734L149.54097106666666,175.98317712395212L150.2233272,158.61059982889265L151.53555053333332,140.39199272621434L151.58803946666666,167.24062641587975L151.77175073333333,202.30092058265626L152.13917326666666,167.03453213700746L154.60615313333332,214.07702006108744L154.8685978,247.2445960649339L154.99982013333332,180.24704944293353L155.3934871333333,177.99280097062305L157.1518664,177.22116003241723L157.5192889333333,162.2789741297722L158.07042273333332,136.2938235606279L158.30662293333333,176.25575858286675L159.51386839999998,151.71935974875694L160.16998006666665,186.00907183213323L161.35098106666666,178.81297094355227L161.56093679999998,159.04341960094828L162.16455953333332,153.93165051276426L162.32202633333333,131.6809892162105L163.68673859999998,126.608005766695L165.18267319999998,121.62781758394831L165.4188734,114.03692011357867L165.68131806666665,181.45652051521546L166.25869633333332,183.21635099339719L167.17725266666667,157.9821046169371L167.91209773333333,130.45384149984307L168.98812086666666,128.5251787408697L169.0406098,112.31267093551166L169.32929893333332,97.73461697646265L170.74650013333334,100.24028342596236L170.9302114,98.3820053655557L172.37365706666665,110.63763145863764L173.1347466,99.91724825616286L173.37094679999998,141.83289746025926L174.10579186666664,120.88515984321423L174.4732144,155.88234738209624L174.9456148,135.77941259301937L176.0478824,92.69874466964619L176.23159366666664,98.20730681502148L176.756483,83.88663384855813L178.12119526666666,63.3926880715987L178.30490653333334,90.10648373739063L178.4886178,94.37479974729567L179.22346286666664,93.41093862272078L180.3519749333333,112.79076309398064L181.24428679999997,102.69511593704871L181.50673146666665,98.3170928300451L182.47777673333331,133.06890225541338L182.55651013333332,128.06343572443402L183.94746686666664,106.45539164654299L184.4723562,94.51402831708975L184.7085564,95.79599556553875L185.12846786666665,90.18014874500562L186.62440246666665,145.14216170411103L186.72938033333332,148.57507651761006L186.86060266666667,169.80685849120928L187.5167143333333,156.86014349110584L188.7239598,138.10254978756956L189.0388934,125.79510943563452L189.22260466666665,184.38785817045988L189.77373846666666,156.25965378977682L191.11220626666665,128.45436413964515L191.29591753333332,181.77731989932354L191.68958453333332,156.55700593289848L191.84705133333333,129.63613478922375L193.68416399999998,108.53588439204083L193.8416308,95.73772762326449L193.92036419999997,90.78616783965188L194.34027566666666,107.82321352502669L196.07241046666664,97.1124151465631L196.0986549333333,85.41048670571404L197.0697002,97.17334309126406L199.16925753333334,117.78218594261133L199.30047986666665,117.33519927015122L199.5104356,175.94192068025538L199.53668006666666,127.80309386862126L201.79370419999995,146.40619921297352L201.84619313333334,190.85884318818557L202.37108246666665,211.3873476421041L202.92221626666665,192.19561172039215L204.5756176666667,177.21495951948575L204.73308446666667,219.792078564217L205.2317293333333,185.17614028655663L206.64893053333333,159.87981358043857L206.93761966666662,135.1954054522403L208.0661317333333,134.10339498988705L208.09237619999996,143.0160643021426L209.53582186666665,204.88034909031865L209.79826653333333,206.48035531931558L209.92948886666665,165.94810043874003L211.55664579999998,137.89423911406067L211.63537919999996,141.67018031490286L211.74035706666666,148.22917671391L211.97655726666665,129.16276468577604L213.55122526666665,113.86421225270301L213.9711367333333,120.68548051166667L214.81095966666663,105.8036589857779L214.86344859999997,153.61397059144036L215.75576046666666,130.42854018215485L215.8082494,124.41953258527198L217.54038419999998,109.13893844500159L217.697851,107.38151644357274L217.7765844,92.5792685974171L217.8553178,90.98368049960722L219.32500793333332,80.49492485772073L219.90238619999997,76.19493372384206L220.50600893333333,73.52543349083426L220.89967593333333,70.87114933565826L221.73949886666665,82.21628654420074L222.18565479999998,67.93852535925268L222.34312159999996,59.579670644008566L224.33770106666663,87.29117061931366L224.3639455333333,82.38939831907345L225.12503506666664,76.40154590696183L225.49245759999997,112.11928387483722L226.41101393333335,103.14033561839075L226.56848073333333,89.21910969342979L227.5132815333333,97.53187620035102L228.19563766666664,81.96222107996067L228.3793489333333,83.07340219497803L229.21917186666667,97.63073515529726L229.69157226666667,81.58555865850334L230.16397266666664,77.27886582752232L231.50244046666663,86.73583242476316L232.97213059999999,92.10353660726213L233.12959739999997,87.36953233144972L233.2083308,124.17512989487261L233.65448673333333,146.10042411047962L235.28164366666667,132.620552561317L235.46535493333332,135.7384601867705L235.70155513333333,176.44884167132795L236.72508933333333,158.51316060394285L237.5386678,136.36509281064758L237.85360139999997,109.90337351648701L238.95586899999998,123.60988187489976L240.03189213333332,114.44036635524307L240.08438106666665,99.93097034028928L240.16311446666666,91.03222428519817L241.39660439999997,96.47754620050429L242.13144946666665,82.16357145666564L242.18393839999996,94.03145784908128L243.75860639999996,96.5138945436392L244.2047623333333,58.38578030657094L244.23100679999996,83.44198051384627L244.57218486666665,116.93948362601915L246.12060839999998,108.763465642436L246.22558626666662,94.75591950120122L246.64549773333334,130.36351355041913L247.9314766,184.2211494597139L248.29889913333332,162.24073456853532L248.3251436,185.79451065582256L249.47990013333333,167.04142319745776L250.18850073333329,150.8417077541838L250.39845646666666,157.51506818403269L250.76587899999998,193.43146010012703L252.49801379999997,161.56499182748902L252.6554806,147.85732265901174L252.7079695333333,156.44803989634687L253.02290313333333,167.32239413286007L255.2274383333333,152.96004531011937L255.51612746666666,131.60558277451702L255.5686164,124.669576689781L255.8048166,186.73750249288594L257.14328439999997,148.8194692038007L258.3242854,188.2469570900699L258.4555077333333,207.57918786446092L259.4003085333333,186.29018085707693L259.47904193333335,264.10424454335055L260.37135379999995,205.89903706604747L261.34239906666664,224.12695298457007L262.182222,226.0795809467996L262.60213346666666,191.41658386343803L264.0455791333333,160.72445018247495L264.51797953333335,152.63760136955804L264.5967129333333,129.9884304596059L264.64920186666666,119.42350366965603L267.1424262,115.93464906815667L267.40487086666667,131.70304925004984L267.77229339999997,155.86358892310335L268.58587186666665,190.2945436415856L268.8483165333333,164.02107246482873L269.24198353333327,138.54804122228185L270.0293175333333,129.7381852262777L271.1315851333333,137.04384779390836L271.2890519333333,127.7884216976478L272.81123099999996,120.21339547588907L273.88725413333333,79.18250731990378L273.91349859999997,86.467601536203L274.1496988,87.50242424588795L276.01305593333336,77.10029832991069L276.0393004,84.06816804146928L276.9578567333333,79.8994806008137L277.6402128666667,96.02861685970144L278.716236,83.9143136599539L279.0836585333333,143.89032778037728L279.6872812666667,130.76247654369655L279.7397702,152.56277706278198L280.4483708,160.65930769490544L281.02574906666666,128.94599544843635L282.652906,138.4754158689864L282.6791504666666,192.89464026745628L283.04657299999997,192.36008570569962L283.6764402,229.2452890453934L284.83119673333334,184.73128792380263L285.2773526666667,159.01972158120304L285.5660418,132.74175533296386L286.14342006666664,139.13098724709906L287.3244210666667,162.89394985929027L287.50813233333326,124.1285253235317L288.50542206666665,120.57677219583661L289.18777819999997,99.05489333495812L290.02760113333335,99.06360984014668L290.55249046666665,176.33240336368172L292.1534029333333,153.2603419785366L292.17964739999996,173.92607463692084L293.5181152,166.0796396675132L293.54435966666665,214.61810699382954L294.5941383333333,206.3230087167147L294.9615608666666,184.754987440709L295.3552278666666,152.38127113284762L295.9588506,141.84044675934172L296.5887178,131.93682427395586L297.5860075333333,123.60926891537778L297.7434743333333,79.44863712668116L298.58329726666665,155.01587578063962L299.3181423333333,122.86774309007872L299.76429826666663,126.57657668319102L299.8955206,110.06610175190106L300.4204099333333,137.97322798593052L302.0475668666666,137.30588613488612L302.2575226,164.2546158882348L302.49372279999994,148.28901363926042L303.2810568,145.0329863328771L305.03943606666667,103.41186827890064L305.85301453333335,120.3414080143061L306.4303928,128.436922939212L306.5878596,215.34881093105946L307.6113938,183.02231409241563L308.39872779999996,162.89233228645074L309.028595,149.02143021991915L309.3435286,144.86322776649735L310.0258847333333,157.41739407158025L310.70824086666664,145.66963007539852L311.1806412666666,124.88989777116151L312.2829088666667,96.9609274598902L312.33539779999995,135.9166656706082L312.4141312,119.18611098323508L314.2249994,101.41380452840976L314.3562217333333,121.69921172368394L314.4349551333333,133.84493542668832L315.37975593333334,119.90060882442508L317.08564626666663,109.76025953956365L317.32184646666667,95.20064405831948L317.4793132666666,99.81552476676573L317.9779581333333,97.22870071839385L319.44764826666665,94.05309726900822L319.99878206666665,77.09094694856505L320.0250265333333,89.25267147803827L320.05127099999993,134.007165460326L322.01960599999995,120.0837101208536L322.7806955333333,160.93793513365793L323.0956291333333,166.35797611948135L323.3580738,166.94609439305728L324.3028746,205.50253218526132L326.29745406666666,220.12499324862205L326.3236985333333,184.9410223756094L326.40243193333333,171.03629600375783L326.45492086666667,153.35776138111567L329.1843454,150.69021965483867L329.3418122,154.9829279600008L329.4730345333333,154.17295248659397L329.6567458,128.1813244321827L330.9952136,113.7352514680503L332.3861703333333,117.79022224679589L333.1210154,140.17599718904344L333.7246381333333,141.01475346995716L334.6694389333333,158.01430547625148L335.27306166666665,193.33566782098964L336.0341512,215.8031138731375L336.1128846,183.73859544943318L337.8187749333333,170.45177005898287L337.9762417333333,138.8839341936882L338.42239766666665,147.628749440626L338.55361999999997,168.70061768095832L340.15453246666664,142.95239173840386L340.28575479999995,132.09328072623822L341.5192447333333,107.04404548313978L342.35906766666665,142.81483375821855L343.3301129333333,123.53770390840307L343.6450465333333,181.59994339659838L343.7762688666666,205.15987412486547L345.21971453333333,175.14989471986814L345.32469239999995,181.40219713570266L345.4559147333333,164.40850098073543L346.6369157333333,173.93410730310129L346.97809379999995,142.42640377442441L347.1093161333333,120.93418013658044L347.6604499333333,160.90113894730283L348.86769539999995,134.73625248290782L349.0251622,160.30476260145073L350.12742979999996,153.76670343262407L350.757297,124.55732598940669L351.150964,188.77353030812057L351.33467526666664,175.0119088408762L352.83060986666663,192.59046074460713L352.88309879999997,164.3792151501964L353.74916619999993,149.17671285897498L354.0116108666666,131.205507823965L355.2451008,125.3681770598386L355.82247906666663,112.59175803629961L357.29216919999993,100.20440275477411L357.81705853333335,70.44443465820513L358.0795032,55.946595595710825" style="fill: none;" fill="none"></path></g></g></g></g><g opacity="0.2"><g><g><g><path stroke="rgb(255, 112, 67)" stroke-width="2px" d="M35.220074266666664,99.59861846923827L35.29880766666667,223.93692235310874L35.48251893333333,94.32067982991536L35.613741266666665,399.80143585205076L37.398365,134.27461090087888L37.42460946666666,386.07179260253906L37.897009866666664,128.83985738118488L38.343165799999994,112.58738906860353L40.0753006,113.90831186930338L40.25901186666667,199.55700225830077L40.8626346,350.0149164835612L41.0988348,481.5523809814453L42.14861346666667,205.5249033610026L42.72599173333333,436.9975496419271L43.487081266666664,83.05614425659181L43.644548066666665,329.8289411417643L44.98301586666666,82.10249387105306L45.744105399999995,355.865657043457L45.87532773333333,193.96014149983728L47.42375126666666,-15.446658808390278L47.8699072,158.98593617757163L48.15859633333333,230.37701304117837L49.23461946666666,155.30023040771482L50.28439813333333,276.5420635986328L50.44186493333333,260.327408803304L51.12422106666666,380.8573239135742L52.777622466666664,179.21076049804685L53.145045,114.06198201497395L53.171289466666664,276.30030253092445L53.90613453333333,122.54580510457356L55.612024866666665,43.46765436808269L55.638269333333334,162.44625651041667L56.031936333333334,68.02404393513997L56.89800373333333,546.5885242716472L57.3179152,62.10400416056314L58.63013853333333,170.93548700968424L58.945072133333326,201.49013203938802L59.102538933333335,200.24654286702474L59.70616166666667,201.3472767130534L60.834673733333325,118.0469744873047L60.86091819999999,73.2352049001058L61.0971184,128.90896484375L62.38309726666667,89.91853062947591L63.380387,558.2783468627929L63.511609333333325,56.086247507731116L64.06274313333333,-83.23083043416342L65.45369986666667,215.28652420043943L65.55867773333333,488.8842915852865L66.03107813333334,372.1882491048177L67.00212339999999,176.25424967447918L67.42203486666666,63.426480153401684L67.8681908,61.821984736124655L68.86548053333333,33.85176513671875L68.91796946666666,200.97462565104166L69.04919179999999,105.25421290079753L69.9152592,278.6001007080078L70.62385979999999,31.737410430908184L71.04377126666667,187.3783843485514L72.48721693333333,270.6867785135905L72.53970586666667,16.968029683430995L72.90712839999999,357.66279622395837L73.66821793333334,47.34298380533854L74.5605298,61.14430399576825L74.69175213333332,497.2983744303385L75.13790806666665,290.880366414388L76.58135373333333,93.67988260904949L76.66008713333333,41.8430058034261L76.81755393333333,79.8572971089681L77.63113239999998,327.0446237182617L78.47095533333332,85.66044479370119L79.23204486666667,138.1942734273275L79.3632672,254.03007756551105L79.75693419999999,111.92768508911134L80.25557906666666,109.20286834716795L81.83024706666666,52.96583656311036L82.22391406666667,47.00104184468588L82.88002573333333,167.3985041809082L83.24744826666667,228.31849655151365L84.61216053333332,162.74769083658856L84.97958306666666,114.57675974527996L86.13433959999999,91.5444831085205L86.18682853333333,85.46819412231447L87.28909613333333,66.1618911997477L87.34158506666665,89.52751930236818L87.99769673333333,-6.025004882812503L89.0474754,136.60018056233724L89.07371986666666,93.39614700317382L89.41489793333332,193.45307220458986L89.5198758,40.6327814992269L91.04205486666666,223.68308090209962L91.61943313333332,45.32078516642253L92.32803373333333,414.53217854817706L92.80043413333333,129.49411560058593L93.01038986666667,142.7387026977539L93.66650153333333,68.63802462259927L94.21763533333333,68.39116294860841L94.6375468,163.70647059122723L95.94977013333333,124.05571879069011L96.34343713333332,92.19461865743001L96.73710413333333,218.09479146321613L98.31177213333332,105.49361541748047L99.7552178,104.66001144409178L99.78146226666667,299.7252012125651L99.9126846,249.51117050170902L100.12264033333334,49.47072280883787L101.51359706666666,65.70578961690265L102.14346426666667,58.468192291259754L102.53713126666666,305.3972671508789L103.00953166666666,429.0269127400716L105.05660006666665,71.88577814737958L105.37153366666666,473.55064188639324L106.44755679999999,251.50972610473633L107.20864633333332,223.29142720540364L107.9434914,139.66947998046874L108.28466946666667,89.90642148335773L108.83580326666667,186.82278259277345L109.93807086666666,338.1471862792969L110.41047126666665,247.58059102376305L110.8566272,60.51286427815755L111.69645013333333,177.77687652587892L112.53627306666665,74.04125409444171L113.42858493333333,58.09662462870279L113.74351853333332,139.27140258789063L115.08198633333332,52.09941421508791L115.13447526666666,421.26455698649085L115.37067546666665,149.68078124999997L116.18425393333334,92.75120793660481L117.23403259999999,44.54025817871094L117.73267746666666,-84.91973513285316L117.99512213333334,95.42867149353026L119.17612313333333,141.83664321899414L119.96345713333334,78.75197079976402L120.19965733333333,95.39117436726886L120.22590179999999,303.2906017049154L121.66934746666665,223.31482096354165L121.90554766666665,60.89706840515135L121.9580366,58.62470036824543L122.16799233333333,72.51323900858561L123.9263716,73.24788930257164L124.24130519999999,91.51644894917807L124.34628306666667,173.33775751749675L124.5562388,480.37659535725913L126.05217339999999,93.45682696024576L126.10466233333334,202.24621063232422L126.41959593333333,88.7944413757324L127.07570759999999,76.74212099711099L128.12548626666666,73.33599939982098L128.44041986666664,110.88835027058921L129.2015094,167.0660251871745L130.04133233333332,295.06317036946615L130.35626593333333,76.02209180196127L130.90739973333334,226.18423797607423L132.03591179999998,-36.86281984965004L132.69202346666665,121.72974644978841L132.95446813333334,374.4360441080729L133.71555766666665,85.88375930786134L134.81782526666666,93.69656504313151L135.29022566666666,129.70642354329428L136.39249326666666,114.07584569295248L136.47122666666667,229.76933141072593L137.15358279999998,77.99309262593586L138.6495174,302.09679138183594L139.0431844,365.73391123453774L139.4368514,240.39930170694984L140.53911899999997,51.88449844360353L141.1427417333333,182.9109627278646L141.4051864,72.37943438212076L142.82238759999998,292.1814428710938L143.26854353333331,86.92438845316569L143.63596606666667,86.11646967569986L144.58076686666666,90.18726163228351L146.31290166666665,219.62813725789388L146.5228574,220.48716756184896L147.625125,298.23751159667967L148.3337256,21.915579427083323L148.67490366666664,253.64705271402997L148.7011481333333,217.10964579264325L149.54097106666666,134.40446543375649L150.2233272,93.25661857604982L151.53555053333332,71.85532791137696L151.58803946666666,268.2426293436686L151.77175073333333,334.1944081624349L152.13917326666666,34.365737508138004L154.60615313333332,391.04637939453124L154.8685978,372.0178581746419L154.99982013333332,-71.79134023030602L155.3934871333333,169.51253290812176L157.1518664,174.31832031250002L157.5192889333333,106.06789382934572L158.07042273333332,38.540161895751964L158.30662293333333,326.58875223795576L159.51386839999998,59.41576413472492L160.16998006666665,315.0037030029297L161.35098106666666,151.74192474365233L161.56093679999998,84.67225026448568L162.16455953333332,134.7016620381673L162.32202633333333,47.976120529174814L163.68673859999998,107.52392517089845L165.18267319999998,102.8928239440918L165.4188734,85.48068677266438L165.68131806666665,435.08263631184894L166.25869633333332,189.83666564941407L167.17725266666667,63.05327301025392L167.91209773333333,26.89513739267985L168.98812086666666,121.26973312377929L169.0406098,51.322760620117194L169.32929893333332,42.89336636861167L170.74650013333334,109.6663619740804L170.9302114,91.39134028116861L172.37365706666665,156.74212961832683L173.1347466,59.58818763732909L173.37094679999998,299.51557779947916L174.10579186666664,42.08176595052082L174.4732144,287.53843383789064L174.9456148,60.154086481730154L176.0478824,-69.36662513732907L176.23159366666664,118.92999298095704L176.756483,30.013626022338855L178.12119526666666,-13.703584136962881L178.30490653333334,190.601238861084L178.4886178,110.4317980702718L179.22346286666664,89.78498486836749L180.3519749333333,185.69581705729166L181.24428679999997,64.71625282287599L181.50673146666665,81.84738685607911L182.47777673333331,263.801899617513L182.55651013333332,109.23334734598797L183.94746686666664,25.16798773447674L184.4723562,49.59175674438475L184.7085564,100.61863426208497L185.12846786666665,69.05386784871422L186.62440246666665,351.9040199788411L186.72938033333332,161.48937510172524L186.86060266666667,249.67880020141604L187.5167143333333,108.15583468119303L188.7239598,67.53826871236166L189.0388934,79.49569096883138L189.22260466666665,404.8081986490885L189.77373846666666,50.444027786254864L191.11220626666665,23.8535125986735L191.29591753333332,382.3732010904948L191.68958453333332,61.68058672587078L191.84705133333333,28.36238143920898L193.68416399999998,29.158751945495602L193.8416308,47.59228073120119L193.92036419999997,72.15887151082356L194.34027566666666,171.91495681762694L196.07241046666664,56.81941172281899L196.0986549333333,41.38894638061525L197.0697002,141.42408854166666L199.16925753333334,195.31069000244142L199.30047986666665,115.65367797851563L199.5104356,396.4148250325521L199.53668006666666,-53.29058794657393L201.79370419999995,216.38930979410807L201.84619313333334,358.085456237793L202.37108246666665,288.61362630208333L202.92221626666665,119.99812896728517L204.5756176666667,120.85917266845705L204.73308446666667,379.9631454467774L205.2317293333333,54.954277242024745L206.64893053333333,64.71744168599446L206.93761966666662,42.33501296997071L208.0661317333333,129.99535563151042L208.09237619999996,176.5446774291992L209.53582186666665,437.60789662679036L209.79826653333333,212.49942637125653L209.92948886666665,13.469617792765318L211.55664579999998,32.35828460693357L211.63537919999996,155.87491149902343L211.74035706666666,172.90349650065102L211.97655726666665,57.436738484700534L213.55122526666665,56.31251500447592L213.9711367333333,146.34644205729165L214.81095966666663,49.819663721720396L214.86344859999997,333.4718094889323L215.75576046666666,43.207159118652356L215.8082494,101.81421829223633L217.54038419999998,51.65479858398439L217.697851,100.77026224772135L217.7765844,36.89462193806965L217.8553178,84.98123003641763L219.32500793333332,41.03722506205241L219.90238619999997,60.0187766011556L220.50600893333333,63.4830278523763L220.89967593333333,60.88598513285318L221.73949886666665,124.89561223347982L222.18565479999998,14.226947568257668L222.34312159999996,28.134455286661783L224.33770106666663,191.5391943359375L224.3639455333333,63.949397761027036L225.12503506666664,53.8758154042562L225.49245759999997,246.48601242065428L226.41101393333335,69.36238741556802L226.56848073333333,36.848783594767255L227.5132815333333,128.8037121073405L228.19563766666664,23.390661341349286L228.3793489333333,87.25355972290038L229.21917186666667,152.39403533935547L229.69157226666667,21.22513278961183L230.16397266666664,61.07749755859376L231.50244046666663,122.31204010009766L232.97213059999999,112.29632853190103L233.12959739999997,69.56065910339355L233.2083308,262.63428263346356L233.65448673333333,228.58129282633462L235.28164366666667,81.91055959065756L235.46535493333332,147.4677317301432L235.70155513333333,329.59741963704425L236.72508933333333,91.04083658854165L237.5386678,53.046171112060534L237.85360139999997,10.356905695597316L238.95586899999998,175.17246093749998L240.03189213333332,79.945522257487L240.08438106666665,45.34800437927247L240.16311446666666,57.55598912556965L241.39660439999997,116.96232864379883L242.13144946666665,28.315761706034355L242.18393839999996,138.67731618245443L243.75860639999996,105.85258496602376L244.2047623333333,-85.04855420430503L244.23100679999996,177.70101938883465L244.57218486666665,242.95390009562172L246.12060839999998,78.00606465657553L246.22558626666662,42.060864969889316L246.64549773333334,264.31589116414386L247.9314766,386.82844645182297L248.29889913333332,79.55250712076825L248.3251436,274.40157307942707L249.47990013333333,96.49409418741861L250.18850073333329,89.89992108662923L250.39845646666666,182.61961456298826L250.76587899999998,328.54550587972005L252.49801379999997,41.68637308756511L252.6554806,96.29037673950197L252.7079695333333,188.76549997965495L253.02290313333333,208.23067911783855L255.2274383333333,98.93025688171387L255.51612746666666,51.272128473917654L255.5686164,98.57698237101238L255.8048166,420.231128133138L257.14328439999997,6.175439211527509L258.3242854,336.5694115193685L258.4555077333333,280.30519887288415L259.4003085333333,106.20296401977538L259.47904193333335,556.8333412679036L260.37135379999995,-13.063410110473603L261.34239906666664,292.69863667805987L262.182222,233.42518137613934L262.60213346666666,61.0176900736491L264.0455791333333,45.263566335042306L264.51797953333335,122.21564631144206L264.5967129333333,44.78440656026204L264.64920186666666,79.67925526936851L267.1424262,102.80991032918297L267.40487086666667,191.0222689819336L267.77229339999997,246.75323816935224L268.58587186666665,319.82051615397137L268.8483165333333,65.18277613321942L269.24198353333327,42.72092369079591L270.0293175333333,96.59634600321452L271.1315851333333,164.52705459594728L271.2890519333333,92.97039019266765L272.81123099999996,91.71686826070149L273.88725413333333,-75.17178621927899L273.91349859999997,113.87343215942383L274.1496988,91.39532872517904L276.01305593333336,37.96849131266275L276.0393004,110.28063028971356L276.9578567333333,64.21727546691896L277.6402128666667,156.70489135742187L278.716236,38.34145876566567L279.0836585333333,369.5143809000651L279.6872812666667,81.37675046284994L279.7397702,234.57343139648435L280.4483708,191.11768483479815L281.02574906666666,9.64353509267172L282.652906,174.32418792724607L282.6791504666666,397.6145796712239L283.04657299999997,190.34914235432944L283.6764402,368.0039111328125L284.83119673333334,17.273855133056628L285.2773526666667,62.29525772094725L285.5660418,33.886548970540375L286.14342006666664,163.16666920979816L287.3244210666667,252.2879520670573L287.50813233333326,-21.7033098347982L288.50542206666665,107.21541519165038L289.18777819999997,18.091634763081885L290.02760113333335,99.0964005025228L290.55249046666665,467.01024566650386L292.1534029333333,66.46544438680012L292.17964739999996,251.6685927327474L293.5181152,136.5620985921224L293.54435966666665,397.2151983642578L294.5941383333333,175.11763900756836L294.9615608666666,103.61814549764L295.3552278666666,30.594433593750008L295.9588506,102.18686935424805L296.5887178,94.68033968607585L297.5860075333333,92.28179875691731L297.7434743333333,-86.67945388793946L298.58329726666665,439.29263071695965L299.3181423333333,1.9295296351114715L299.76429826666663,140.52885543823245L299.8955206,47.955267486572275L300.4204099333333,242.9571790568034L302.0475668666666,134.79540964762367L302.2575226,265.6331706746419L302.49372279999994,88.22793851216633L303.2810568,132.78412170410155L305.03943606666667,-53.16281392415367L305.85301453333335,184.02872416178383L306.4303928,158.89147908528645L306.5878596,542.303056233724L307.6113938,61.41311169942222L308.39872779999996,87.16525787353514L309.028595,96.84041768391926L309.3435286,129.22046615600587L310.0258847333333,204.64497207641602L310.70824086666664,101.47566075642904L311.1806412666666,46.718523864746075L312.2829088666667,-8.105198949178048L312.33539779999995,282.4644427490234L312.4141312,56.247357635498055L314.2249994,34.556080245971664L314.3562217333333,198.01098164876302L314.4349551333333,179.53599126180012L315.37975593333334,67.44338017781574L317.08564626666663,71.61323127746584L317.32184646666667,40.428757247924814L317.4793132666666,117.1762664794922L317.9779581333333,87.49731501261394L319.44764826666665,82.1067795308431L319.99878206666665,13.280952885945645L320.0250265333333,135.0039208984375L320.05127099999993,302.3693094889323L322.01960599999995,67.70499717712404L322.7806955333333,314.6276387532552L323.0956291333333,186.74765411376953L323.3580738,169.1585393269857L324.3028746,350.5481791178386L326.29745406666666,275.13329915364585L326.3236985333333,52.58227480570476L326.40243193333333,118.72803965250652L326.45492086666667,86.85279780069986L329.1843454,140.65518173217774L329.3418122,171.1316877746582L329.4730345333333,151.12590189615887L329.6567458,30.40329508463541L330.9952136,59.390500793457036L332.3861703333333,133.0446361287435L333.1210154,224.38915054321288L333.7246381333333,144.17007471720376L334.6694389333333,221.96500111897785L335.27306166666665,326.2112690226237L336.0341512,300.3235061645508L336.1128846,63.11493090311686L337.8187749333333,120.4679983520508L337.9762417333333,20.12874212900799L338.42239766666665,180.5259115600586L338.55361999999997,247.97097915649414L340.15453246666664,46.090017954508475L340.28575479999995,91.24233929951986L341.5192447333333,12.811208140055347L342.35906766666665,277.3811325073242L343.3301129333333,51.018977330525715L343.6450465333333,400.02455861409504L343.7762688666666,293.7900897216797L345.21971453333333,62.25521029154461L345.32469239999995,204.92276336669923L345.4559147333333,100.4798344930013L346.6369157333333,209.7685310872396L346.97809379999995,23.89742383321125L347.1093161333333,40.08248168945314L347.6604499333333,311.25303161621093L348.86769539999995,36.30644149780272L349.0251622,256.4910625712077L350.12742979999996,129.17114751180014L350.757297,14.674429893493652L351.150964,430.3487751261393L351.33467526666664,123.24199951171873L352.83060986666663,258.71929885864256L352.88309879999997,58.251196009318036L353.74916619999993,91.98634709676107L354.0116108666666,63.59954602559406L355.2451008,103.40869466145833L355.82247906666663,64.52808647155763L357.29216919999993,53.604351933797204L357.81705853333335,-41.509731038411466L358.0795032,1.4071057891845888" style="fill: none;" fill="none"></path></g></g></g></g></g><g><g opacity="0.813851"><span fill="rgb(0, 0, 0)" stroke="none" stroke-width="1px">Alt + Scroll to Zoom</span></g></g></g><g transform="translate(50, 377)" clip-path="url(#clip_1)"><clipPath id="clip_1"><rect width="393" height="23"></rect></clipPath><g><g><line x1="0" y1="0" x2="0" y2="5" style="visibility: inherit;" fill="rgb(0, 0, 0)" stroke="rgb(204, 204, 204)" stroke-width="1px"></line><line x1="32.80558333333333" y1="0" x2="32.80558333333333" y2="5" style="visibility: inherit;" fill="rgb(0, 0, 0)" stroke="rgb(204, 204, 204)" stroke-width="1px"></line><line x1="65.61116666666666" y1="0" x2="65.61116666666666" y2="5" style="visibility: inherit;" fill="rgb(0, 0, 0)" stroke="rgb(204, 204, 204)" stroke-width="1px"></line><line x1="98.41675" y1="0" x2="98.41675" y2="5" style="visibility: inherit;" fill="rgb(0, 0, 0)" stroke="rgb(204, 204, 204)" stroke-width="1px"></line><line x1="131.22233333333332" y1="0" x2="131.22233333333332" y2="5" style="visibility: inherit;" fill="rgb(0, 0, 0)" stroke="rgb(204, 204, 204)" stroke-width="1px"></line><line x1="164.02791666666667" y1="0" x2="164.02791666666667" y2="5" style="visibility: inherit;" fill="rgb(0, 0, 0)" stroke="rgb(204, 204, 204)" stroke-width="1px"></line><line x1="196.8335" y1="0" x2="196.8335" y2="5" style="visibility: inherit;" fill="rgb(0, 0, 0)" stroke="rgb(204, 204, 204)" stroke-width="1px"></line><line x1="229.63908333333333" y1="0" x2="229.63908333333333" y2="5" style="visibility: inherit;" fill="rgb(0, 0, 0)" stroke="rgb(204, 204, 204)" stroke-width="1px"></line><line x1="262.44466666666665" y1="0" x2="262.44466666666665" y2="5" style="visibility: inherit;" fill="rgb(0, 0, 0)" stroke="rgb(204, 204, 204)" stroke-width="1px"></line><line x1="295.25025" y1="0" x2="295.25025" y2="5" style="visibility: inherit;" fill="rgb(0, 0, 0)" stroke="rgb(204, 204, 204)" stroke-width="1px"></line><line x1="328.05583333333334" y1="0" x2="328.05583333333334" y2="5" style="visibility: inherit;" fill="rgb(0, 0, 0)" stroke="rgb(204, 204, 204)" stroke-width="1px"></line><line x1="360.8614166666666" y1="0" x2="360.8614166666666" y2="5" style="visibility: inherit;" fill="rgb(0, 0, 0)" stroke="rgb(204, 204, 204)" stroke-width="1px"></line><line x1="393.667" y1="0" x2="393.667" y2="5" style="visibility: inherit;" fill="rgb(0, 0, 0)" stroke="rgb(204, 204, 204)" stroke-width="1px"></line></g><g transform="translate(0, 8)"><text x="0" y="0" dx="0em" dy="0.95em" style="text-anchor: middle; visibility: hidden; font-family: Roboto, sans-serif; font-size: 12px; font-weight: 200;" fill="rgb(33, 33, 33)" stroke="none" stroke-width="1px">-5k</text><text x="32.80558333333333" y="0" dx="0em" dy="0.95em" style="text-anchor: middle; visibility: inherit; font-family: Roboto, sans-serif; font-size: 12px; font-weight: 200;" fill="rgb(33, 33, 33)" stroke="none" stroke-width="1px">0</text><text x="65.61116666666666" y="0" dx="0em" dy="0.95em" style="text-anchor: middle; visibility: inherit; font-family: Roboto, sans-serif; font-size: 12px; font-weight: 200;" fill="rgb(33, 33, 33)" stroke="none" stroke-width="1px">5k</text><text x="98.41675" y="0" dx="0em" dy="0.95em" style="text-anchor: middle; visibility: inherit; font-family: Roboto, sans-serif; font-size: 12px; font-weight: 200;" fill="rgb(33, 33, 33)" stroke="none" stroke-width="1px">10k</text><text x="131.22233333333332" y="0" dx="0em" dy="0.95em" style="text-anchor: middle; visibility: inherit; font-family: Roboto, sans-serif; font-size: 12px; font-weight: 200;" fill="rgb(33, 33, 33)" stroke="none" stroke-width="1px">15k</text><text x="164.02791666666667" y="0" dx="0em" dy="0.95em" style="text-anchor: middle; visibility: inherit; font-family: Roboto, sans-serif; font-size: 12px; font-weight: 200;" fill="rgb(33, 33, 33)" stroke="none" stroke-width="1px">20k</text><text x="196.8335" y="0" dx="0em" dy="0.95em" style="text-anchor: middle; visibility: inherit; font-family: Roboto, sans-serif; font-size: 12px; font-weight: 200;" fill="rgb(33, 33, 33)" stroke="none" stroke-width="1px">25k</text><text x="229.63908333333333" y="0" dx="0em" dy="0.95em" style="text-anchor: middle; visibility: inherit; font-family: Roboto, sans-serif; font-size: 12px; font-weight: 200;" fill="rgb(33, 33, 33)" stroke="none" stroke-width="1px">30k</text><text x="262.44466666666665" y="0" dx="0em" dy="0.95em" style="text-anchor: middle; visibility: inherit; font-family: Roboto, sans-serif; font-size: 12px; font-weight: 200;" fill="rgb(33, 33, 33)" stroke="none" stroke-width="1px">35k</text><text x="295.25025" y="0" dx="0em" dy="0.95em" style="text-anchor: middle; visibility: inherit; font-family: Roboto, sans-serif; font-size: 12px; font-weight: 200;" fill="rgb(33, 33, 33)" stroke="none" stroke-width="1px">40k</text><text x="328.05583333333334" y="0" dx="0em" dy="0.95em" style="text-anchor: middle; visibility: inherit; font-family: Roboto, sans-serif; font-size: 12px; font-weight: 200;" fill="rgb(33, 33, 33)" stroke="none" stroke-width="1px">45k</text><text x="360.8614166666666" y="0" dx="0em" dy="0.95em" style="text-anchor: middle; visibility: inherit; font-family: Roboto, sans-serif; font-size: 12px; font-weight: 200;" fill="rgb(33, 33, 33)" stroke="none" stroke-width="1px">50k</text><text x="393.667" y="0" dx="0em" dy="0.95em" style="text-anchor: middle; visibility: hidden; font-family: Roboto, sans-serif; font-size: 12px; font-weight: 200;" fill="rgb(33, 33, 33)" stroke="none" stroke-width="1px">55k</text></g><line x1="0" y1="0" x2="393.667" y2="0" fill="rgb(0, 0, 0)" stroke="rgb(204, 204, 204)" stroke-width="1px"></line></g></g></g></g></svg>