<svg viewBox="0 0 443.66668701171875 400" xmlns="http://www.w3.org/2000/svg"><g><g><g><g><g><line x1="50" y1="377" x2="45" y2="377" style="visibility: inherit;" fill="rgb(0, 0, 0)" stroke="rgb(204, 204, 204)" stroke-width="1px"></line><line x1="50" y1="342.7272727272724" x2="45" y2="342.7272727272724" style="visibility: inherit;" fill="rgb(0, 0, 0)" stroke="rgb(204, 204, 204)" stroke-width="1px"></line><line x1="50" y1="308.45454545454476" x2="45" y2="308.45454545454476" style="visibility: inherit;" fill="rgb(0, 0, 0)" stroke="rgb(204, 204, 204)" stroke-width="1px"></line><line x1="50" y1="274.18181818181716" x2="45" y2="274.18181818181716" style="visibility: inherit;" fill="rgb(0, 0, 0)" stroke="rgb(204, 204, 204)" stroke-width="1px"></line><line x1="50" y1="239.9090909090895" x2="45" y2="239.9090909090895" style="visibility: inherit;" fill="rgb(0, 0, 0)" stroke="rgb(204, 204, 204)" stroke-width="1px"></line><line x1="50" y1="205.6363636363657" x2="45" y2="205.6363636363657" style="visibility: inherit;" fill="rgb(0, 0, 0)" stroke="rgb(204, 204, 204)" stroke-width="1px"></line><line x1="50" y1="171.3636363636381" x2="45" y2="171.3636363636381" style="visibility: inherit;" fill="rgb(0, 0, 0)" stroke="rgb(204, 204, 204)" stroke-width="1px"></line><line x1="50" y1="137.0909090909105" x2="45" y2="137.0909090909105" style="visibility: inherit;" fill="rgb(0, 0, 0)" stroke="rgb(204, 204, 204)" stroke-width="1px"></line><line x1="50" y1="102.81818181818285" x2="45" y2="102.81818181818285" style="visibility: inherit;" fill="rgb(0, 0, 0)" stroke="rgb(204, 204, 204)" stroke-width="1px"></line><line x1="50" y1="68.54545454545524" x2="45" y2="68.54545454545524" style="visibility: inherit;" fill="rgb(0, 0, 0)" stroke="rgb(204, 204, 204)" stroke-width="1px"></line><line x1="50" y1="34.27272727272762" x2="45" y2="34.27272727272762" style="visibility: inherit;" fill="rgb(0, 0, 0)" stroke="rgb(204, 204, 204)" stroke-width="1px"></line><line x1="50" y1="0" x2="45" y2="0" style="visibility: inherit;" fill="rgb(0, 0, 0)" stroke="rgb(204, 204, 204)" stroke-width="1px"></line></g><g transform="translate(40, 0)"><text x="0" y="377" dx="0em" dy="0.3em" style="text-anchor: end; visibility: hidden; font-family: Roboto, sans-serif; font-size: 12px; font-weight: 200;" fill="rgb(33, 33, 33)" stroke="none" stroke-width="1px">1.37</text><text x="0" y="342.7272727272724" dx="0em" dy="0.3em" style="text-anchor: end; visibility: inherit; font-family: Roboto, sans-serif; font-size: 12px; font-weight: 200;" fill="rgb(33, 33, 33)" stroke="none" stroke-width="1px">1.37</text><text x="0" y="308.45454545454476" dx="0em" dy="0.3em" style="text-anchor: end; visibility: inherit; font-family: Roboto, sans-serif; font-size: 12px; font-weight: 200;" fill="rgb(33, 33, 33)" stroke="none" stroke-width="1px">1.37</text><text x="0" y="274.18181818181716" dx="0em" dy="0.3em" style="text-anchor: end; visibility: inherit; font-family: Roboto, sans-serif; font-size: 12px; font-weight: 200;" fill="rgb(33, 33, 33)" stroke="none" stroke-width="1px">1.37</text><text x="0" y="239.9090909090895" dx="0em" dy="0.3em" style="text-anchor: end; visibility: inherit; font-family: Roboto, sans-serif; font-size: 12px; font-weight: 200;" fill="rgb(33, 33, 33)" stroke="none" stroke-width="1px">1.37</text><text x="0" y="205.6363636363657" dx="0em" dy="0.3em" style="text-anchor: end; visibility: inherit; font-family: Roboto, sans-serif; font-size: 12px; font-weight: 200;" fill="rgb(33, 33, 33)" stroke="none" stroke-width="1px">1.38</text><text x="0" y="171.3636363636381" dx="0em" dy="0.3em" style="text-anchor: end; visibility: inherit; font-family: Roboto, sans-serif; font-size: 12px; font-weight: 200;" fill="rgb(33, 33, 33)" stroke="none" stroke-width="1px">1.38</text><text x="0" y="137.0909090909105" dx="0em" dy="0.3em" style="text-anchor: end; visibility: inherit; font-family: Roboto, sans-serif; font-size: 12px; font-weight: 200;" fill="rgb(33, 33, 33)" stroke="none" stroke-width="1px">1.38</text><text x="0" y="102.81818181818285" dx="0em" dy="0.3em" style="text-anchor: end; visibility: inherit; font-family: Roboto, sans-serif; font-size: 12px; font-weight: 200;" fill="rgb(33, 33, 33)" stroke="none" stroke-width="1px">1.38</text><text x="0" y="68.54545454545524" dx="0em" dy="0.3em" style="text-anchor: end; visibility: inherit; font-family: Roboto, sans-serif; font-size: 12px; font-weight: 200;" fill="rgb(33, 33, 33)" stroke="none" stroke-width="1px">1.38</text><text x="0" y="34.27272727272762" dx="0em" dy="0.3em" style="text-anchor: end; visibility: inherit; font-family: Roboto, sans-serif; font-size: 12px; font-weight: 200;" fill="rgb(33, 33, 33)" stroke="none" stroke-width="1px">1.39</text><text x="0" y="0" dx="0em" dy="0.3em" style="text-anchor: end; visibility: hidden; font-family: Roboto, sans-serif; font-size: 12px; font-weight: 200;" fill="rgb(33, 33, 33)" stroke="none" stroke-width="1px">1.39</text></g><line x1="50" y1="0" x2="50" y2="377" fill="rgb(0, 0, 0)" stroke="rgb(204, 204, 204)" stroke-width="1px"></line></g></g><g transform="translate(50, 0)" clip-path="url(#clip_0)"><clipPath id="clip_0"><rect width="393" height="377"></rect></clipPath><g><g><g><line x1="0" y1="0" x2="0" y2="377" fill="rgb(0, 0, 0)" stroke="rgb(66, 66, 66)" stroke-width="1px" opacity="0.25"></line><line x1="32.80558333333333" y1="0" x2="32.80558333333333" y2="377" fill="rgb(0, 0, 0)" stroke="rgb(66, 66, 66)" stroke-width="1px" opacity="0.25"></line><line x1="65.61116666666666" y1="0" x2="65.61116666666666" y2="377" fill="rgb(0, 0, 0)" stroke="rgb(66, 66, 66)" stroke-width="1px" opacity="0.25"></line><line x1="98.41675" y1="0" x2="98.41675" y2="377" fill="rgb(0, 0, 0)" stroke="rgb(66, 66, 66)" stroke-width="1px" opacity="0.25"></line><line x1="131.22233333333332" y1="0" x2="131.22233333333332" y2="377" fill="rgb(0, 0, 0)" stroke="rgb(66, 66, 66)" stroke-width="1px" opacity="0.25"></line><line x1="164.02791666666667" y1="0" x2="164.02791666666667" y2="377" fill="rgb(0, 0, 0)" stroke="rgb(66, 66, 66)" stroke-width="1px" opacity="0.25"></line><line x1="196.8335" y1="0" x2="196.8335" y2="377" fill="rgb(0, 0, 0)" stroke="rgb(66, 66, 66)" stroke-width="1px" opacity="0.25"></line><line x1="229.63908333333333" y1="0" x2="229.63908333333333" y2="377" fill="rgb(0, 0, 0)" stroke="rgb(66, 66, 66)" stroke-width="1px" opacity="0.25"></line><line x1="262.44466666666665" y1="0" x2="262.44466666666665" y2="377" fill="rgb(0, 0, 0)" stroke="rgb(66, 66, 66)" stroke-width="1px" opacity="0.25"></line><line x1="295.25025" y1="0" x2="295.25025" y2="377" fill="rgb(0, 0, 0)" stroke="rgb(66, 66, 66)" stroke-width="1px" opacity="0.25"></line><line x1="328.05583333333334" y1="0" x2="328.05583333333334" y2="377" fill="rgb(0, 0, 0)" stroke="rgb(66, 66, 66)" stroke-width="1px" opacity="0.25"></line><line x1="360.8614166666666" y1="0" x2="360.8614166666666" y2="377" fill="rgb(0, 0, 0)" stroke="rgb(66, 66, 66)" stroke-width="1px" opacity="0.25"></line><line x1="393.667" y1="0" x2="393.667" y2="377" fill="rgb(0, 0, 0)" stroke="rgb(66, 66, 66)" stroke-width="1px" opacity="0.25"></line></g><g><line x1="0" y1="377" x2="393.667" y2="377" fill="rgb(0, 0, 0)" stroke="rgb(66, 66, 66)" stroke-width="1px" opacity="0.25"></line><line x1="0" y1="342.7272727272724" x2="393.667" y2="342.7272727272724" fill="rgb(0, 0, 0)" stroke="rgb(66, 66, 66)" stroke-width="1px" opacity="0.25"></line><line x1="0" y1="308.45454545454476" x2="393.667" y2="308.45454545454476" fill="rgb(0, 0, 0)" stroke="rgb(66, 66, 66)" stroke-width="1px" opacity="0.25"></line><line x1="0" y1="274.18181818181716" x2="393.667" y2="274.18181818181716" fill="rgb(0, 0, 0)" stroke="rgb(66, 66, 66)" stroke-width="1px" opacity="0.25"></line><line x1="0" y1="239.9090909090895" x2="393.667" y2="239.9090909090895" fill="rgb(0, 0, 0)" stroke="rgb(66, 66, 66)" stroke-width="1px" opacity="0.25"></line><line x1="0" y1="205.6363636363657" x2="393.667" y2="205.6363636363657" fill="rgb(0, 0, 0)" stroke="rgb(66, 66, 66)" stroke-width="1px" opacity="0.25"></line><line x1="0" y1="171.3636363636381" x2="393.667" y2="171.3636363636381" fill="rgb(0, 0, 0)" stroke="rgb(66, 66, 66)" stroke-width="1px" opacity="0.25"></line><line x1="0" y1="137.0909090909105" x2="393.667" y2="137.0909090909105" fill="rgb(0, 0, 0)" stroke="rgb(66, 66, 66)" stroke-width="1px" opacity="0.25"></line><line x1="0" y1="102.81818181818285" x2="393.667" y2="102.81818181818285" fill="rgb(0, 0, 0)" stroke="rgb(66, 66, 66)" stroke-width="1px" opacity="0.25"></line><line x1="0" y1="68.54545454545524" x2="393.667" y2="68.54545454545524" fill="rgb(0, 0, 0)" stroke="rgb(66, 66, 66)" stroke-width="1px" opacity="0.25"></line><line x1="0" y1="34.27272727272762" x2="393.667" y2="34.27272727272762" fill="rgb(0, 0, 0)" stroke="rgb(66, 66, 66)" stroke-width="1px" opacity="0.25"></line><line x1="0" y1="0" x2="393.667" y2="0" fill="rgb(0, 0, 0)" stroke="rgb(66, 66, 66)" stroke-width="1px" opacity="0.25"></line></g></g></g><g><g><line x1="0" y1="23785.272727272946" x2="393.667" y2="23785.272727272946" fill="rgb(0, 0, 0)" stroke="rgb(153, 153, 153)" stroke-width="1.5px"></line></g></g><g><g><line x1="32.80558333333333" y1="0" x2="32.80558333333333" y2="377" fill="rgb(0, 0, 0)" stroke="rgb(153, 153, 153)" stroke-width="1.5px"></line></g></g><g><g><g><g><g><path stroke="rgb(255, 112, 67)" stroke-width="2px" d="M36.16487506666667,34.033080707895444L39.524166799999996,35.93209861534242L42.883458533333325,36.32591297775461L46.24275026666666,37.243350870366925L49.602042,36.51307868307118L52.96133373333333,37.79906037565619L56.32062546666667,38.2941622542965L59.6799172,39.51147000362081L63.03920893333333,40.8733907031741L66.39850066666666,42.047383361996204L69.7577924,44.023017405029364L73.11708413333332,48.99711352573878L76.47637586666666,54.29844477094619L79.8356676,59.92437032487882L83.19495933333333,61.04125882598005L86.55425106666665,63.807980867811644L89.91354279999999,68.01548027093864L93.27283453333332,77.53071918001277L96.63212626666666,82.4213728063953L99.991418,83.09272193022557L103.35070973333333,91.52560992872392L106.71000146666667,96.23145978695527L110.0692932,94.53054053580354L113.42858493333333,97.58499489728582L116.78787666666666,107.67223249191429L120.1471684,113.64311137118173L123.50646013333332,121.72343533963321L126.86575186666666,133.66765998203866L130.2250436,143.34785512682842L133.5843353333333,153.45107295172753L136.94362706666666,166.80868117015652L140.3029188,167.12783487447314L143.66221053333334,166.70953841309196L147.02150226666666,178.55965433693765L150.38079399999998,196.23321356362354L153.74008573333333,204.1435700088106L157.09937746666665,219.3183193325939L160.4586692,217.8368251128807L163.81796093333332,210.19238533200135L167.17725266666667,220.8769789562987L170.53654439999997,224.49274730269838L173.89583613333332,224.8702843355042L177.25512786666664,227.74815587659532L180.6144196,226.4098442111935L183.9737113333333,232.35647212413625L187.33300306666666,246.45491379759827L190.69229479999998,252.57159238008717L194.0515865333333,250.98595109475417L197.41087826666663,246.54972972974684L200.77016999999998,250.22005805068346L204.1294617333333,245.36383410529857L207.48875346666665,240.34598165616006L210.84804519999997,254.34766382448285L214.20733693333332,260.0234054677071L217.56662866666665,268.60625253920364L220.9259204,266.63655091938915L224.28521213333332,262.58976329556725L227.64450386666667,273.1316812157285L231.0037956,266.8187485562712L234.36308733333334,270.2183117493723L237.72237906666666,268.93922974221516L241.0816708,271.4795143758738L244.4409625333333,272.53140475950664L247.80025426666663,287.6413636118439L251.15954599999998,295.2231130887202L254.5188377333333,296.60018374821027L257.8781294666667,301.2238128358371L261.23742119999997,304.89278122996427L264.5967129333333,310.24080427123334L267.9560046666666,292.2933469346722L271.3152964,280.2945588994176L274.6745881333333,271.8549615514564L278.03387986666667,267.2875902307089L281.39317159999996,285.6381239211814L284.7524633333333,286.1924123313422L288.11175506666666,283.2781653458018L291.47104679999995,287.6763189544353L294.8303385333333,307.2191430107572L298.18963026666665,318.24322871320936L301.548922,317.4247977741755L304.9082137333333,296.7572326637152L308.26750546666665,300.2273566636509L311.62679719999994,292.34265038136533L314.98608893333335,285.19783688759463L318.34538066666664,285.1839396013883L321.7046724,295.449437393893L325.0639641333333,306.148998615408L328.42325586666664,310.5232356347537L331.7825476,315.09983605986696L335.14183933333334,302.8238120681037L338.50113106666663,312.98803106829916L341.8604228,318.97405150321146L345.21971453333333,324.01960291860905L348.5790062666666,337.89039649369505L351.938298,341.3315451413349L355.29758973333327,324.92821289484937L358.6568814666667,310.2617677106034" style="fill: none;" fill="none"></path></g></g></g></g><g opacity="0.2"><g><g><g><path stroke="rgb(255, 112, 67)" stroke-width="2px" d="M36.16487506666667,34.033080707895444L39.524166799999996,37.432322762227855L42.883458533333325,36.88280586762726L46.24275026666666,38.993032455443L49.602042,34.83590650558334L52.96133373333333,41.148200945419376L56.32062546666667,39.703931635075L59.6799172,43.21144281733987L63.03920893333333,45.2195287184269L66.39850066666666,45.93451352552806L69.7577924,50.75146831165537L73.11708413333332,66.30953771417681L76.47637586666666,73.06307992068099L79.8356676,80.1005732362911L83.19495933333333,65.0879351009011L86.55425106666665,73.91289043426413L89.91354279999999,83.47938715327776L93.27283453333332,112.67528104782038L96.63212626666666,100.55526716058829L99.991418,85.58961374109349L103.35070973333333,122.9649338288735L106.71000146666667,113.8090426705094L110.0692932,88.16764467412683L113.42858493333333,109.02477290413526L116.78787666666666,145.48695525256034L120.1471684,136.04302735762118L123.50646013333332,152.05460140921824L126.86575186666666,178.5233389681035L130.2250436,179.71429937536064L133.5843353333333,191.41757926073947L136.94362706666666,217.0160781686959L140.3029188,168.32765561884082L143.66221053333334,165.13678056543506L147.02150226666666,223.12000560760532L150.38079399999998,262.69747890125694L153.74008573333333,233.89380524375267L157.09937746666665,276.3925021778462L160.4586692,212.264493422075L163.81796093333332,181.43843416734174L167.17725266666667,261.06731354106626L170.53654439999997,238.09383028203843L173.89583613333332,226.29045252366535L177.25512786666664,238.5738915096635L180.6144196,221.3754426782785L183.9737113333333,254.72641970894617L187.33300306666666,299.4905970746831L190.69229479999998,275.58150512522L194.0515865333333,245.02101165598148L197.41087826666663,229.8612909317021L200.77016999999998,264.0273506424651L204.1294617333333,227.09532113508783L207.48875346666665,221.46941211006887L210.84804519999997,307.0204085003257L214.20733693333332,281.37492487647404L217.56662866666665,300.894010110336L220.9259204,259.2267383662144L224.28521213333332,247.3661618232733L227.64450386666667,312.78931448676485L231.0037956,243.07012453946254L234.36308733333334,283.0071330503993L237.72237906666666,264.12744851545926L241.0816708,281.0358177965347L244.4409625333333,276.4885144233712L247.80025426666663,344.4835695786924L251.15954599999998,323.74492454528934L254.5188377333333,301.7805912711414L257.8781294666667,318.6174620715067L261.23742119999997,318.69508899342054L264.5967129333333,330.3595554178425L267.9560046666666,224.77672754634546L271.3152964,235.15626413171987L274.6745881333333,240.1060018105945L278.03387986666667,250.10557504133806L281.39317159999996,354.67108167301683L284.7524633333333,288.2775924856022L288.11175506666666,272.315045963635L291.47104679999995,304.2217536839583L294.8303385333333,380.7373849261909L298.18963026666665,359.7147887836819L301.548922,314.34593855251086L304.9082137333333,219.00782155990635L308.26750546666665,313.2816325967974L311.62679719999994,262.68113639138033L314.98608893333335,258.3197290680632L318.34538066666664,285.13165933435704L321.7046724,334.0672623460957L325.0639641333333,346.39972886172353L328.42325586666664,326.9786986871212L331.7825476,332.3165709755651L335.14183933333334,256.6425789919773L338.50113106666663,351.22485490278916L341.8604228,341.492890271275L345.21971453333333,343.00048680739116L348.5790062666666,390.07100087946304L351.938298,354.27681862224387L355.29758973333327,263.22043921730807L358.6568814666667,255.0879977399659" style="fill: none;" fill="none"></path></g></g></g></g></g></g><g transform="translate(50, 377)" clip-path="url(#clip_1)"><clipPath id="clip_1"><rect width="393" height="23"></rect></clipPath><g><g><line x1="0" y1="0" x2="0" y2="5" style="visibility: inherit;" fill="rgb(0, 0, 0)" stroke="rgb(204, 204, 204)" stroke-width="1px"></line><line x1="32.80558333333333" y1="0" x2="32.80558333333333" y2="5" style="visibility: inherit;" fill="rgb(0, 0, 0)" stroke="rgb(204, 204, 204)" stroke-width="1px"></line><line x1="65.61116666666666" y1="0" x2="65.61116666666666" y2="5" style="visibility: inherit;" fill="rgb(0, 0, 0)" stroke="rgb(204, 204, 204)" stroke-width="1px"></line><line x1="98.41675" y1="0" x2="98.41675" y2="5" style="visibility: inherit;" fill="rgb(0, 0, 0)" stroke="rgb(204, 204, 204)" stroke-width="1px"></line><line x1="131.22233333333332" y1="0" x2="131.22233333333332" y2="5" style="visibility: inherit;" fill="rgb(0, 0, 0)" stroke="rgb(204, 204, 204)" stroke-width="1px"></line><line x1="164.02791666666667" y1="0" x2="164.02791666666667" y2="5" style="visibility: inherit;" fill="rgb(0, 0, 0)" stroke="rgb(204, 204, 204)" stroke-width="1px"></line><line x1="196.8335" y1="0" x2="196.8335" y2="5" style="visibility: inherit;" fill="rgb(0, 0, 0)" stroke="rgb(204, 204, 204)" stroke-width="1px"></line><line x1="229.63908333333333" y1="0" x2="229.63908333333333" y2="5" style="visibility: inherit;" fill="rgb(0, 0, 0)" stroke="rgb(204, 204, 204)" stroke-width="1px"></line><line x1="262.44466666666665" y1="0" x2="262.44466666666665" y2="5" style="visibility: inherit;" fill="rgb(0, 0, 0)" stroke="rgb(204, 204, 204)" stroke-width="1px"></line><line x1="295.25025" y1="0" x2="295.25025" y2="5" style="visibility: inherit;" fill="rgb(0, 0, 0)" stroke="rgb(204, 204, 204)" stroke-width="1px"></line><line x1="328.05583333333334" y1="0" x2="328.05583333333334" y2="5" style="visibility: inherit;" fill="rgb(0, 0, 0)" stroke="rgb(204, 204, 204)" stroke-width="1px"></line><line x1="360.8614166666666" y1="0" x2="360.8614166666666" y2="5" style="visibility: inherit;" fill="rgb(0, 0, 0)" stroke="rgb(204, 204, 204)" stroke-width="1px"></line><line x1="393.667" y1="0" x2="393.667" y2="5" style="visibility: inherit;" fill="rgb(0, 0, 0)" stroke="rgb(204, 204, 204)" stroke-width="1px"></line></g><g transform="translate(0, 8)"><text x="0" y="0" dx="0em" dy="0.95em" style="text-anchor: middle; visibility: hidden; font-family: Roboto, sans-serif; font-size: 12px; font-weight: 200;" fill="rgb(33, 33, 33)" stroke="none" stroke-width="1px">-5k</text><text x="32.80558333333333" y="0" dx="0em" dy="0.95em" style="text-anchor: middle; visibility: inherit; font-family: Roboto, sans-serif; font-size: 12px; font-weight: 200;" fill="rgb(33, 33, 33)" stroke="none" stroke-width="1px">0</text><text x="65.61116666666666" y="0" dx="0em" dy="0.95em" style="text-anchor: middle; visibility: inherit; font-family: Roboto, sans-serif; font-size: 12px; font-weight: 200;" fill="rgb(33, 33, 33)" stroke="none" stroke-width="1px">5k</text><text x="98.41675" y="0" dx="0em" dy="0.95em" style="text-anchor: middle; visibility: inherit; font-family: Roboto, sans-serif; font-size: 12px; font-weight: 200;" fill="rgb(33, 33, 33)" stroke="none" stroke-width="1px">10k</text><text x="131.22233333333332" y="0" dx="0em" dy="0.95em" style="text-anchor: middle; visibility: inherit; font-family: Roboto, sans-serif; font-size: 12px; font-weight: 200;" fill="rgb(33, 33, 33)" stroke="none" stroke-width="1px">15k</text><text x="164.02791666666667" y="0" dx="0em" dy="0.95em" style="text-anchor: middle; visibility: inherit; font-family: Roboto, sans-serif; font-size: 12px; font-weight: 200;" fill="rgb(33, 33, 33)" stroke="none" stroke-width="1px">20k</text><text x="196.8335" y="0" dx="0em" dy="0.95em" style="text-anchor: middle; visibility: inherit; font-family: Roboto, sans-serif; font-size: 12px; font-weight: 200;" fill="rgb(33, 33, 33)" stroke="none" stroke-width="1px">25k</text><text x="229.63908333333333" y="0" dx="0em" dy="0.95em" style="text-anchor: middle; visibility: inherit; font-family: Roboto, sans-serif; font-size: 12px; font-weight: 200;" fill="rgb(33, 33, 33)" stroke="none" stroke-width="1px">30k</text><text x="262.44466666666665" y="0" dx="0em" dy="0.95em" style="text-anchor: middle; visibility: inherit; font-family: Roboto, sans-serif; font-size: 12px; font-weight: 200;" fill="rgb(33, 33, 33)" stroke="none" stroke-width="1px">35k</text><text x="295.25025" y="0" dx="0em" dy="0.95em" style="text-anchor: middle; visibility: inherit; font-family: Roboto, sans-serif; font-size: 12px; font-weight: 200;" fill="rgb(33, 33, 33)" stroke="none" stroke-width="1px">40k</text><text x="328.05583333333334" y="0" dx="0em" dy="0.95em" style="text-anchor: middle; visibility: inherit; font-family: Roboto, sans-serif; font-size: 12px; font-weight: 200;" fill="rgb(33, 33, 33)" stroke="none" stroke-width="1px">45k</text><text x="360.8614166666666" y="0" dx="0em" dy="0.95em" style="text-anchor: middle; visibility: inherit; font-family: Roboto, sans-serif; font-size: 12px; font-weight: 200;" fill="rgb(33, 33, 33)" stroke="none" stroke-width="1px">50k</text><text x="393.667" y="0" dx="0em" dy="0.95em" style="text-anchor: middle; visibility: hidden; font-family: Roboto, sans-serif; font-size: 12px; font-weight: 200;" fill="rgb(33, 33, 33)" stroke="none" stroke-width="1px">55k</text></g><line x1="0" y1="0" x2="393.667" y2="0" fill="rgb(0, 0, 0)" stroke="rgb(204, 204, 204)" stroke-width="1px"></line></g></g></g></g></svg>