<svg viewBox="0 0 443.66668701171875 400" xmlns="http://www.w3.org/2000/svg"><g><g><g><g><g><line x1="80" y1="377" x2="75" y2="377" style="visibility: inherit;" fill="rgb(0, 0, 0)" stroke="rgb(204, 204, 204)" stroke-width="1px"></line><line x1="80" y1="348" x2="75" y2="348" style="visibility: inherit;" fill="rgb(0, 0, 0)" stroke="rgb(204, 204, 204)" stroke-width="1px"></line><line x1="80" y1="319" x2="75" y2="319" style="visibility: inherit;" fill="rgb(0, 0, 0)" stroke="rgb(204, 204, 204)" stroke-width="1px"></line><line x1="80" y1="290" x2="75" y2="290" style="visibility: inherit;" fill="rgb(0, 0, 0)" stroke="rgb(204, 204, 204)" stroke-width="1px"></line><line x1="80" y1="261" x2="75" y2="261" style="visibility: inherit;" fill="rgb(0, 0, 0)" stroke="rgb(204, 204, 204)" stroke-width="1px"></line><line x1="80" y1="232" x2="75" y2="232" style="visibility: inherit;" fill="rgb(0, 0, 0)" stroke="rgb(204, 204, 204)" stroke-width="1px"></line><line x1="80" y1="202.99999999999994" x2="75" y2="202.99999999999994" style="visibility: inherit;" fill="rgb(0, 0, 0)" stroke="rgb(204, 204, 204)" stroke-width="1px"></line><line x1="80" y1="173.99999999999997" x2="75" y2="173.99999999999997" style="visibility: inherit;" fill="rgb(0, 0, 0)" stroke="rgb(204, 204, 204)" stroke-width="1px"></line><line x1="80" y1="145" x2="75" y2="145" style="visibility: inherit;" fill="rgb(0, 0, 0)" stroke="rgb(204, 204, 204)" stroke-width="1px"></line><line x1="80" y1="116" x2="75" y2="116" style="visibility: inherit;" fill="rgb(0, 0, 0)" stroke="rgb(204, 204, 204)" stroke-width="1px"></line><line x1="80" y1="86.99999999999999" x2="75" y2="86.99999999999999" style="visibility: inherit;" fill="rgb(0, 0, 0)" stroke="rgb(204, 204, 204)" stroke-width="1px"></line><line x1="80" y1="57.999999999999964" x2="75" y2="57.999999999999964" style="visibility: inherit;" fill="rgb(0, 0, 0)" stroke="rgb(204, 204, 204)" stroke-width="1px"></line><line x1="80" y1="28.99999999999994" x2="75" y2="28.99999999999994" style="visibility: inherit;" fill="rgb(0, 0, 0)" stroke="rgb(204, 204, 204)" stroke-width="1px"></line></g><g transform="translate(70, 0)"><text x="0" y="377" dx="0em" dy="0.3em" style="text-anchor: end; visibility: hidden; font-family: Roboto, sans-serif; font-size: 12px; font-weight: 200;" fill="rgb(33, 33, 33)" stroke="none" stroke-width="1px">-2e-3</text><text x="0" y="348" dx="0em" dy="0.3em" style="text-anchor: end; visibility: inherit; font-family: Roboto, sans-serif; font-size: 12px; font-weight: 200;" fill="rgb(33, 33, 33)" stroke="none" stroke-width="1px">-1.8e-3</text><text x="0" y="319" dx="0em" dy="0.3em" style="text-anchor: end; visibility: inherit; font-family: Roboto, sans-serif; font-size: 12px; font-weight: 200;" fill="rgb(33, 33, 33)" stroke="none" stroke-width="1px">-1.6e-3</text><text x="0" y="290" dx="0em" dy="0.3em" style="text-anchor: end; visibility: inherit; font-family: Roboto, sans-serif; font-size: 12px; font-weight: 200;" fill="rgb(33, 33, 33)" stroke="none" stroke-width="1px">-1.4e-3</text><text x="0" y="261" dx="0em" dy="0.3em" style="text-anchor: end; visibility: inherit; font-family: Roboto, sans-serif; font-size: 12px; font-weight: 200;" fill="rgb(33, 33, 33)" stroke="none" stroke-width="1px">-1.2e-3</text><text x="0" y="232" dx="0em" dy="0.3em" style="text-anchor: end; visibility: inherit; font-family: Roboto, sans-serif; font-size: 12px; font-weight: 200;" fill="rgb(33, 33, 33)" stroke="none" stroke-width="1px">-1e-3</text><text x="0" y="202.99999999999994" dx="0em" dy="0.3em" style="text-anchor: end; visibility: inherit; font-family: Roboto, sans-serif; font-size: 12px; font-weight: 200;" fill="rgb(33, 33, 33)" stroke="none" stroke-width="1px">-8e-4</text><text x="0" y="173.99999999999997" dx="0em" dy="0.3em" style="text-anchor: end; visibility: inherit; font-family: Roboto, sans-serif; font-size: 12px; font-weight: 200;" fill="rgb(33, 33, 33)" stroke="none" stroke-width="1px">-6e-4</text><text x="0" y="145" dx="0em" dy="0.3em" style="text-anchor: end; visibility: inherit; font-family: Roboto, sans-serif; font-size: 12px; font-weight: 200;" fill="rgb(33, 33, 33)" stroke="none" stroke-width="1px">-4e-4</text><text x="0" y="116" dx="0em" dy="0.3em" style="text-anchor: end; visibility: inherit; font-family: Roboto, sans-serif; font-size: 12px; font-weight: 200;" fill="rgb(33, 33, 33)" stroke="none" stroke-width="1px">-2e-4</text><text x="0" y="86.99999999999999" dx="0em" dy="0.3em" style="text-anchor: end; visibility: inherit; font-family: Roboto, sans-serif; font-size: 12px; font-weight: 200;" fill="rgb(33, 33, 33)" stroke="none" stroke-width="1px">0</text><text x="0" y="57.999999999999964" dx="0em" dy="0.3em" style="text-anchor: end; visibility: inherit; font-family: Roboto, sans-serif; font-size: 12px; font-weight: 200;" fill="rgb(33, 33, 33)" stroke="none" stroke-width="1px">2e-4</text><text x="0" y="28.99999999999994" dx="0em" dy="0.3em" style="text-anchor: end; visibility: inherit; font-family: Roboto, sans-serif; font-size: 12px; font-weight: 200;" fill="rgb(33, 33, 33)" stroke="none" stroke-width="1px">4e-4</text></g><line x1="80" y1="0" x2="80" y2="377" fill="rgb(0, 0, 0)" stroke="rgb(204, 204, 204)" stroke-width="1px"></line></g></g><g transform="translate(80, 0)" clip-path="url(#clip_0)"><clipPath id="clip_0"><rect width="363" height="377"></rect></clipPath><g><g><g><line x1="0" y1="0" x2="0" y2="377" fill="rgb(0, 0, 0)" stroke="rgb(66, 66, 66)" stroke-width="1px" opacity="0.25"></line><line x1="30.30558333333333" y1="0" x2="30.30558333333333" y2="377" fill="rgb(0, 0, 0)" stroke="rgb(66, 66, 66)" stroke-width="1px" opacity="0.25"></line><line x1="60.61116666666666" y1="0" x2="60.61116666666666" y2="377" fill="rgb(0, 0, 0)" stroke="rgb(66, 66, 66)" stroke-width="1px" opacity="0.25"></line><line x1="90.91675" y1="0" x2="90.91675" y2="377" fill="rgb(0, 0, 0)" stroke="rgb(66, 66, 66)" stroke-width="1px" opacity="0.25"></line><line x1="121.22233333333332" y1="0" x2="121.22233333333332" y2="377" fill="rgb(0, 0, 0)" stroke="rgb(66, 66, 66)" stroke-width="1px" opacity="0.25"></line><line x1="151.52791666666667" y1="0" x2="151.52791666666667" y2="377" fill="rgb(0, 0, 0)" stroke="rgb(66, 66, 66)" stroke-width="1px" opacity="0.25"></line><line x1="181.8335" y1="0" x2="181.8335" y2="377" fill="rgb(0, 0, 0)" stroke="rgb(66, 66, 66)" stroke-width="1px" opacity="0.25"></line><line x1="212.13908333333333" y1="0" x2="212.13908333333333" y2="377" fill="rgb(0, 0, 0)" stroke="rgb(66, 66, 66)" stroke-width="1px" opacity="0.25"></line><line x1="242.44466666666665" y1="0" x2="242.44466666666665" y2="377" fill="rgb(0, 0, 0)" stroke="rgb(66, 66, 66)" stroke-width="1px" opacity="0.25"></line><line x1="272.75025" y1="0" x2="272.75025" y2="377" fill="rgb(0, 0, 0)" stroke="rgb(66, 66, 66)" stroke-width="1px" opacity="0.25"></line><line x1="303.05583333333334" y1="0" x2="303.05583333333334" y2="377" fill="rgb(0, 0, 0)" stroke="rgb(66, 66, 66)" stroke-width="1px" opacity="0.25"></line><line x1="333.3614166666666" y1="0" x2="333.3614166666666" y2="377" fill="rgb(0, 0, 0)" stroke="rgb(66, 66, 66)" stroke-width="1px" opacity="0.25"></line><line x1="363.667" y1="0" x2="363.667" y2="377" fill="rgb(0, 0, 0)" stroke="rgb(66, 66, 66)" stroke-width="1px" opacity="0.25"></line></g><g><line x1="0" y1="377" x2="363.667" y2="377" fill="rgb(0, 0, 0)" stroke="rgb(66, 66, 66)" stroke-width="1px" opacity="0.25"></line><line x1="0" y1="348" x2="363.667" y2="348" fill="rgb(0, 0, 0)" stroke="rgb(66, 66, 66)" stroke-width="1px" opacity="0.25"></line><line x1="0" y1="319" x2="363.667" y2="319" fill="rgb(0, 0, 0)" stroke="rgb(66, 66, 66)" stroke-width="1px" opacity="0.25"></line><line x1="0" y1="290" x2="363.667" y2="290" fill="rgb(0, 0, 0)" stroke="rgb(66, 66, 66)" stroke-width="1px" opacity="0.25"></line><line x1="0" y1="261" x2="363.667" y2="261" fill="rgb(0, 0, 0)" stroke="rgb(66, 66, 66)" stroke-width="1px" opacity="0.25"></line><line x1="0" y1="232" x2="363.667" y2="232" fill="rgb(0, 0, 0)" stroke="rgb(66, 66, 66)" stroke-width="1px" opacity="0.25"></line><line x1="0" y1="202.99999999999994" x2="363.667" y2="202.99999999999994" fill="rgb(0, 0, 0)" stroke="rgb(66, 66, 66)" stroke-width="1px" opacity="0.25"></line><line x1="0" y1="173.99999999999997" x2="363.667" y2="173.99999999999997" fill="rgb(0, 0, 0)" stroke="rgb(66, 66, 66)" stroke-width="1px" opacity="0.25"></line><line x1="0" y1="145" x2="363.667" y2="145" fill="rgb(0, 0, 0)" stroke="rgb(66, 66, 66)" stroke-width="1px" opacity="0.25"></line><line x1="0" y1="116" x2="363.667" y2="116" fill="rgb(0, 0, 0)" stroke="rgb(66, 66, 66)" stroke-width="1px" opacity="0.25"></line><line x1="0" y1="86.99999999999999" x2="363.667" y2="86.99999999999999" fill="rgb(0, 0, 0)" stroke="rgb(66, 66, 66)" stroke-width="1px" opacity="0.25"></line><line x1="0" y1="57.999999999999964" x2="363.667" y2="57.999999999999964" fill="rgb(0, 0, 0)" stroke="rgb(66, 66, 66)" stroke-width="1px" opacity="0.25"></line><line x1="0" y1="28.99999999999994" x2="363.667" y2="28.99999999999994" fill="rgb(0, 0, 0)" stroke="rgb(66, 66, 66)" stroke-width="1px" opacity="0.25"></line></g></g></g><g><g><line x1="0" y1="86.99999999999999" x2="363.667" y2="86.99999999999999" fill="rgb(0, 0, 0)" stroke="rgb(153, 153, 153)" stroke-width="1.5px"></line></g></g><g><g><line x1="30.30558333333333" y1="0" x2="30.30558333333333" y2="377" fill="rgb(0, 0, 0)" stroke="rgb(153, 153, 153)" stroke-width="1.5px"></line></g></g><g><g><g><g><g><path stroke="rgb(255, 112, 67)" stroke-width="2px" d="M33.40887506666667,358.31269685924053L36.512166799999996,91.65076172193665L39.615458533333324,71.13664989172179L42.71875026666666,83.80525489022058L45.822041999999996,46.71667014207633L48.92533373333333,84.39940760427058L52.02862546666667,89.44560701892433L55.131917200000004,62.60582240756204L58.235208933333325,73.28463500747831L61.33850066666666,83.58775655347921L64.4417924,76.92571950563902L67.54508413333333,83.22180495107057L70.64837586666667,72.42187281951847L73.75166759999999,65.66799521895729L76.85495933333333,116.29787987350288L79.95825106666666,131.4554101836416L83.0615428,139.17639775507348L86.16483453333332,150.60557504399506L89.26812626666666,134.7981092842464L92.37141799999999,112.90481105965085L95.47470973333333,110.68110124307611L98.57800146666666,143.67580339791948L101.6812932,145.56892622160154L104.78458493333333,153.1480213261398L107.88787666666667,149.4010831662957L110.9911684,159.62050860962646L114.09446013333331,151.48104690683246L117.19775186666665,159.37411313173422L120.30104359999999,159.57639508866384L123.40433533333332,180.2842311846501L126.50762706666666,174.71444756348086L129.61091879999998,151.04852045008164L132.71421053333333,151.7823349878484L135.81750226666665,144.5870170318184L138.920794,134.65163319842355L142.02408573333332,129.3745117772031L145.12737746666667,133.2270500991668L148.2306692,125.21671657269128L151.33396093333334,124.09373048560386L154.43725266666667,129.46782709059056L157.5405444,122.24288072418709L160.6438361333333,114.71371349778389L163.74712786666666,115.89174773662715L166.85041959999998,120.46738763807404L169.95371133333333,117.61006038225757L173.05700306666665,107.81202515283762L176.16029479999997,106.38527439859561L179.26358653333332,108.81343296850794L182.36687826666665,112.24011310208606L185.47017,109.81139359738711L188.57346173333332,108.53498547409171L191.67675346666667,104.41837628991618L194.78004519999996,103.04532169213792L197.88333693333334,101.46614547524527L200.98662866666663,125.76197130601054L204.08992039999998,129.45193949784644L207.1932121333333,121.35029323903395L210.29650386666665,123.36170084778139L213.39979559999998,117.74125321565968L216.50308733333333,114.84208995665031L219.60637906666665,115.81133928060848L222.7096708,113.71071018903694L225.81296253333332,109.50431130804685L228.91625426666664,108.18369859341801L232.019546,104.0818920483107L235.1228377333333,101.55758106549602L238.22612946666666,100.02477284600124L241.32942119999998,100.73470773182298L244.43271293333333,101.15716544120455L247.53600466666663,100.11204669235177L250.6392964,99.98941691316747L253.7425881333333,101.56729512407783L256.8458798666667,97.93973979208624L259.9491716,95.72225267989775L263.0524633333333,98.32804694141673L266.15575506666664,96.12668296241984L269.25904679999996,95.53398046313045L272.36233853333334,96.43468016692817L275.4656302666666,95.80615330823188L278.568922,94.38122177444885L281.6722137333333,93.16999580823403L284.77550546666663,93.50759182730091L287.87879719999995,92.57097324766895L290.98208893333333,91.97729076050034L294.08538066666665,92.11802356271926L297.1886724,90.85124972343127L300.2919641333333,90.6638847020423L303.3952558666667,90.4687907730071L306.4985476,90.55225636446755L309.6018393333333,89.86997633031585L312.70513106666664,91.52169027222268L315.80842279999996,91.28983912679172L318.91171453333334,90.8188918995626L322.0150062666666,90.80898511370151L325.118298,90.53305491857994L328.2215897333333,90.2293698542569L331.3248814666666,89.8232195296477" style="fill: none;" fill="none"></path></g></g></g></g><g opacity="0.2"><g><g><g><path stroke="rgb(255, 112, 67)" stroke-width="2px" d="M33.40887506666667,358.31269685924053L36.512166799999996,-119.01216703653341L39.615458533333324,42.127644352614844L42.71875026666666,107.96604555845259L45.822041999999996,-38.46245008707053L48.92533373333333,182.53827345371246L52.02862546666667,103.81432127952573L55.131917200000004,-18.97295127809049L58.235208933333325,107.3626789152622L61.33850066666666,117.7017471641302L64.4417924,54.23670512437819L67.54508413333333,105.13543494790788L70.64837586666667,34.194345295429194L73.75166759999999,41.44662868976592L76.85495933333333,299.73853024467826L79.95825106666666,186.81531649827957L83.0615428,167.55349811911583L86.16483453333332,192.81927374005318L89.26812626666666,76.18612487614155L92.37141799999999,31.47892531752583L95.47470973333333,102.39071090519428L98.57800146666666,266.9196656793356L101.6812932,152.65082818269727L104.78458493333333,181.5338327437639L107.88787666666667,135.35467785596845L110.9911684,197.95896363258356L114.09446013333331,120.92789512872696L117.19775186666665,189.01595723628995L120.30104359999999,160.33632558584213L123.40433533333332,258.10143788158894L126.50762706666666,153.77923724055287L129.61091879999998,62.0792561098933L132.71421053333333,154.54141300916672L135.81750226666665,117.53024411201476L138.920794,97.28802245855329L142.02408573333332,109.52766862511632L145.12737746666667,147.71694195270535L148.2306692,95.0875167623162L151.33396093333334,119.86970779299732L154.43725266666667,149.68261000514028L157.5405444,95.06550495326516L160.6438361333333,86.39150176942344L163.74712786666666,120.32317806780338L166.85041959999998,137.67982710897923L169.95371133333333,106.86140385270116L173.05700306666665,70.95366128534076L176.16029479999997,101.0180788002908L179.26358653333332,117.94779327511785L182.36687826666665,125.13080023974179L185.47017,100.67487013339993L188.57346173333332,103.73329621553421L191.67675346666667,88.93217769265172L194.78004519999996,97.88004559278485L197.88333693333334,95.52545723319051L200.98662866666663,217.16028329730034L204.08992039999998,143.33321590721604L207.1932121333333,90.87272797524928L210.29650386666665,130.9284136518836L213.39979559999998,96.59768891334531L216.50308733333333,103.93572383373974L219.60637906666665,119.457560300827L222.7096708,105.80834810435772L225.81296253333332,93.68024644255637L228.91625426666664,103.21568109840152L232.019546,88.65129080414769L235.1228377333333,92.06136566400525L238.22612946666666,94.25849531590936L241.32942119999998,103.40541478991508L244.43271293333333,102.74641093611714L247.53600466666663,96.18040983378883L250.6392964,99.52809539437291L253.7425881333333,107.50312235951421L256.8458798666667,84.29322269558907L259.9491716,87.38027763366696L263.0524633333333,108.13079652190206L266.15575506666664,87.84536150097844L269.25904679999996,93.30429014563558L272.36233853333334,99.82302662730214L275.4656302666666,93.44169514998791L278.568922,89.02076509594914L281.6722137333333,88.6134791076183L284.77550546666663,94.77759589254853L287.87879719999995,89.04750336706635L290.98208893333333,89.74391379207371L294.08538066666665,92.6474469602108L297.1886724,86.0857671946287L300.2919641333333,89.95903533697125L303.3952558666667,89.73486599326131L306.4985476,90.86624597012994L309.6018393333333,87.30330382287501L312.70513106666664,97.73528081178662L315.80842279999996,90.41763719916342L318.91171453333334,89.04723328351974L322.0150062666666,90.77171672880648L325.118298,89.49503180384635L328.2215897333333,89.08693556487559L331.3248814666666,88.29532068967816" style="fill: none;" fill="none"></path></g></g></g></g></g></g><g transform="translate(80, 377)" clip-path="url(#clip_1)"><clipPath id="clip_1"><rect width="363" height="23"></rect></clipPath><g><g><line x1="0" y1="0" x2="0" y2="5" style="visibility: inherit;" fill="rgb(0, 0, 0)" stroke="rgb(204, 204, 204)" stroke-width="1px"></line><line x1="30.30558333333333" y1="0" x2="30.30558333333333" y2="5" style="visibility: inherit;" fill="rgb(0, 0, 0)" stroke="rgb(204, 204, 204)" stroke-width="1px"></line><line x1="60.61116666666666" y1="0" x2="60.61116666666666" y2="5" style="visibility: inherit;" fill="rgb(0, 0, 0)" stroke="rgb(204, 204, 204)" stroke-width="1px"></line><line x1="90.91675" y1="0" x2="90.91675" y2="5" style="visibility: inherit;" fill="rgb(0, 0, 0)" stroke="rgb(204, 204, 204)" stroke-width="1px"></line><line x1="121.22233333333332" y1="0" x2="121.22233333333332" y2="5" style="visibility: inherit;" fill="rgb(0, 0, 0)" stroke="rgb(204, 204, 204)" stroke-width="1px"></line><line x1="151.52791666666667" y1="0" x2="151.52791666666667" y2="5" style="visibility: inherit;" fill="rgb(0, 0, 0)" stroke="rgb(204, 204, 204)" stroke-width="1px"></line><line x1="181.8335" y1="0" x2="181.8335" y2="5" style="visibility: inherit;" fill="rgb(0, 0, 0)" stroke="rgb(204, 204, 204)" stroke-width="1px"></line><line x1="212.13908333333333" y1="0" x2="212.13908333333333" y2="5" style="visibility: inherit;" fill="rgb(0, 0, 0)" stroke="rgb(204, 204, 204)" stroke-width="1px"></line><line x1="242.44466666666665" y1="0" x2="242.44466666666665" y2="5" style="visibility: inherit;" fill="rgb(0, 0, 0)" stroke="rgb(204, 204, 204)" stroke-width="1px"></line><line x1="272.75025" y1="0" x2="272.75025" y2="5" style="visibility: inherit;" fill="rgb(0, 0, 0)" stroke="rgb(204, 204, 204)" stroke-width="1px"></line><line x1="303.05583333333334" y1="0" x2="303.05583333333334" y2="5" style="visibility: inherit;" fill="rgb(0, 0, 0)" stroke="rgb(204, 204, 204)" stroke-width="1px"></line><line x1="333.3614166666666" y1="0" x2="333.3614166666666" y2="5" style="visibility: inherit;" fill="rgb(0, 0, 0)" stroke="rgb(204, 204, 204)" stroke-width="1px"></line><line x1="363.667" y1="0" x2="363.667" y2="5" style="visibility: inherit;" fill="rgb(0, 0, 0)" stroke="rgb(204, 204, 204)" stroke-width="1px"></line></g><g transform="translate(0, 8)"><text x="0" y="0" dx="0em" dy="0.95em" style="text-anchor: middle; visibility: hidden; font-family: Roboto, sans-serif; font-size: 12px; font-weight: 200;" fill="rgb(33, 33, 33)" stroke="none" stroke-width="1px">-5k</text><text x="30.30558333333333" y="0" dx="0em" dy="0.95em" style="text-anchor: middle; visibility: inherit; font-family: Roboto, sans-serif; font-size: 12px; font-weight: 200;" fill="rgb(33, 33, 33)" stroke="none" stroke-width="1px">0</text><text x="60.61116666666666" y="0" dx="0em" dy="0.95em" style="text-anchor: middle; visibility: inherit; font-family: Roboto, sans-serif; font-size: 12px; font-weight: 200;" fill="rgb(33, 33, 33)" stroke="none" stroke-width="1px">5k</text><text x="90.91675" y="0" dx="0em" dy="0.95em" style="text-anchor: middle; visibility: inherit; font-family: Roboto, sans-serif; font-size: 12px; font-weight: 200;" fill="rgb(33, 33, 33)" stroke="none" stroke-width="1px">10k</text><text x="121.22233333333332" y="0" dx="0em" dy="0.95em" style="text-anchor: middle; visibility: inherit; font-family: Roboto, sans-serif; font-size: 12px; font-weight: 200;" fill="rgb(33, 33, 33)" stroke="none" stroke-width="1px">15k</text><text x="151.52791666666667" y="0" dx="0em" dy="0.95em" style="text-anchor: middle; visibility: inherit; font-family: Roboto, sans-serif; font-size: 12px; font-weight: 200;" fill="rgb(33, 33, 33)" stroke="none" stroke-width="1px">20k</text><text x="181.8335" y="0" dx="0em" dy="0.95em" style="text-anchor: middle; visibility: inherit; font-family: Roboto, sans-serif; font-size: 12px; font-weight: 200;" fill="rgb(33, 33, 33)" stroke="none" stroke-width="1px">25k</text><text x="212.13908333333333" y="0" dx="0em" dy="0.95em" style="text-anchor: middle; visibility: inherit; font-family: Roboto, sans-serif; font-size: 12px; font-weight: 200;" fill="rgb(33, 33, 33)" stroke="none" stroke-width="1px">30k</text><text x="242.44466666666665" y="0" dx="0em" dy="0.95em" style="text-anchor: middle; visibility: inherit; font-family: Roboto, sans-serif; font-size: 12px; font-weight: 200;" fill="rgb(33, 33, 33)" stroke="none" stroke-width="1px">35k</text><text x="272.75025" y="0" dx="0em" dy="0.95em" style="text-anchor: middle; visibility: inherit; font-family: Roboto, sans-serif; font-size: 12px; font-weight: 200;" fill="rgb(33, 33, 33)" stroke="none" stroke-width="1px">40k</text><text x="303.05583333333334" y="0" dx="0em" dy="0.95em" style="text-anchor: middle; visibility: inherit; font-family: Roboto, sans-serif; font-size: 12px; font-weight: 200;" fill="rgb(33, 33, 33)" stroke="none" stroke-width="1px">45k</text><text x="333.3614166666666" y="0" dx="0em" dy="0.95em" style="text-anchor: middle; visibility: inherit; font-family: Roboto, sans-serif; font-size: 12px; font-weight: 200;" fill="rgb(33, 33, 33)" stroke="none" stroke-width="1px">50k</text><text x="363.667" y="0" dx="0em" dy="0.95em" style="text-anchor: middle; visibility: hidden; font-family: Roboto, sans-serif; font-size: 12px; font-weight: 200;" fill="rgb(33, 33, 33)" stroke="none" stroke-width="1px">55k</text></g><line x1="0" y1="0" x2="363.667" y2="0" fill="rgb(0, 0, 0)" stroke="rgb(204, 204, 204)" stroke-width="1px"></line></g></g></g></g></svg>