<svg viewBox="0 0 443.66668701171875 400" xmlns="http://www.w3.org/2000/svg"><g><g><g><g><g><line x1="70" y1="377" x2="65" y2="377" style="visibility: inherit;" fill="rgb(0, 0, 0)" stroke="rgb(204, 204, 204)" stroke-width="1px"></line><line x1="70" y1="329.875" x2="65" y2="329.875" style="visibility: inherit;" fill="rgb(0, 0, 0)" stroke="rgb(204, 204, 204)" stroke-width="1px"></line><line x1="70" y1="282.75" x2="65" y2="282.75" style="visibility: inherit;" fill="rgb(0, 0, 0)" stroke="rgb(204, 204, 204)" stroke-width="1px"></line><line x1="70" y1="235.625" x2="65" y2="235.625" style="visibility: inherit;" fill="rgb(0, 0, 0)" stroke="rgb(204, 204, 204)" stroke-width="1px"></line><line x1="70" y1="188.5" x2="65" y2="188.5" style="visibility: inherit;" fill="rgb(0, 0, 0)" stroke="rgb(204, 204, 204)" stroke-width="1px"></line><line x1="70" y1="141.375" x2="65" y2="141.375" style="visibility: inherit;" fill="rgb(0, 0, 0)" stroke="rgb(204, 204, 204)" stroke-width="1px"></line><line x1="70" y1="94.25" x2="65" y2="94.25" style="visibility: inherit;" fill="rgb(0, 0, 0)" stroke="rgb(204, 204, 204)" stroke-width="1px"></line><line x1="70" y1="47.125" x2="65" y2="47.125" style="visibility: inherit;" fill="rgb(0, 0, 0)" stroke="rgb(204, 204, 204)" stroke-width="1px"></line><line x1="70" y1="0" x2="65" y2="0" style="visibility: inherit;" fill="rgb(0, 0, 0)" stroke="rgb(204, 204, 204)" stroke-width="1px"></line></g><g transform="translate(60, 0)"><text x="0" y="377" dx="0em" dy="0.3em" style="text-anchor: end; visibility: hidden; font-family: Roboto, sans-serif; font-size: 12px; font-weight: 200;" fill="rgb(33, 33, 33)" stroke="none" stroke-width="1px">-5e-5</text><text x="0" y="329.875" dx="0em" dy="0.3em" style="text-anchor: end; visibility: inherit; font-family: Roboto, sans-serif; font-size: 12px; font-weight: 200;" fill="rgb(33, 33, 33)" stroke="none" stroke-width="1px">0</text><text x="0" y="282.75" dx="0em" dy="0.3em" style="text-anchor: end; visibility: inherit; font-family: Roboto, sans-serif; font-size: 12px; font-weight: 200;" fill="rgb(33, 33, 33)" stroke="none" stroke-width="1px">5e-5</text><text x="0" y="235.625" dx="0em" dy="0.3em" style="text-anchor: end; visibility: inherit; font-family: Roboto, sans-serif; font-size: 12px; font-weight: 200;" fill="rgb(33, 33, 33)" stroke="none" stroke-width="1px">1e-4</text><text x="0" y="188.5" dx="0em" dy="0.3em" style="text-anchor: end; visibility: inherit; font-family: Roboto, sans-serif; font-size: 12px; font-weight: 200;" fill="rgb(33, 33, 33)" stroke="none" stroke-width="1px">1.5e-4</text><text x="0" y="141.375" dx="0em" dy="0.3em" style="text-anchor: end; visibility: inherit; font-family: Roboto, sans-serif; font-size: 12px; font-weight: 200;" fill="rgb(33, 33, 33)" stroke="none" stroke-width="1px">2e-4</text><text x="0" y="94.25" dx="0em" dy="0.3em" style="text-anchor: end; visibility: inherit; font-family: Roboto, sans-serif; font-size: 12px; font-weight: 200;" fill="rgb(33, 33, 33)" stroke="none" stroke-width="1px">2.5e-4</text><text x="0" y="47.125" dx="0em" dy="0.3em" style="text-anchor: end; visibility: inherit; font-family: Roboto, sans-serif; font-size: 12px; font-weight: 200;" fill="rgb(33, 33, 33)" stroke="none" stroke-width="1px">3e-4</text><text x="0" y="0" dx="0em" dy="0.3em" style="text-anchor: end; visibility: hidden; font-family: Roboto, sans-serif; font-size: 12px; font-weight: 200;" fill="rgb(33, 33, 33)" stroke="none" stroke-width="1px">3.5e-4</text></g><line x1="70" y1="0" x2="70" y2="377" fill="rgb(0, 0, 0)" stroke="rgb(204, 204, 204)" stroke-width="1px"></line></g></g><g transform="translate(70, 0)" clip-path="url(#clip_0)"><clipPath id="clip_0"><rect width="373" height="377"></rect></clipPath><g><g><g><line x1="0" y1="0" x2="0" y2="377" fill="rgb(0, 0, 0)" stroke="rgb(66, 66, 66)" stroke-width="1px" opacity="0.25"></line><line x1="31.138916666666663" y1="0" x2="31.138916666666663" y2="377" fill="rgb(0, 0, 0)" stroke="rgb(66, 66, 66)" stroke-width="1px" opacity="0.25"></line><line x1="62.27783333333333" y1="0" x2="62.27783333333333" y2="377" fill="rgb(0, 0, 0)" stroke="rgb(66, 66, 66)" stroke-width="1px" opacity="0.25"></line><line x1="93.41675" y1="0" x2="93.41675" y2="377" fill="rgb(0, 0, 0)" stroke="rgb(66, 66, 66)" stroke-width="1px" opacity="0.25"></line><line x1="124.55566666666665" y1="0" x2="124.55566666666665" y2="377" fill="rgb(0, 0, 0)" stroke="rgb(66, 66, 66)" stroke-width="1px" opacity="0.25"></line><line x1="155.69458333333333" y1="0" x2="155.69458333333333" y2="377" fill="rgb(0, 0, 0)" stroke="rgb(66, 66, 66)" stroke-width="1px" opacity="0.25"></line><line x1="186.8335" y1="0" x2="186.8335" y2="377" fill="rgb(0, 0, 0)" stroke="rgb(66, 66, 66)" stroke-width="1px" opacity="0.25"></line><line x1="217.97241666666667" y1="0" x2="217.97241666666667" y2="377" fill="rgb(0, 0, 0)" stroke="rgb(66, 66, 66)" stroke-width="1px" opacity="0.25"></line><line x1="249.1113333333333" y1="0" x2="249.1113333333333" y2="377" fill="rgb(0, 0, 0)" stroke="rgb(66, 66, 66)" stroke-width="1px" opacity="0.25"></line><line x1="280.25025" y1="0" x2="280.25025" y2="377" fill="rgb(0, 0, 0)" stroke="rgb(66, 66, 66)" stroke-width="1px" opacity="0.25"></line><line x1="311.38916666666665" y1="0" x2="311.38916666666665" y2="377" fill="rgb(0, 0, 0)" stroke="rgb(66, 66, 66)" stroke-width="1px" opacity="0.25"></line><line x1="342.5280833333333" y1="0" x2="342.5280833333333" y2="377" fill="rgb(0, 0, 0)" stroke="rgb(66, 66, 66)" stroke-width="1px" opacity="0.25"></line><line x1="373.667" y1="0" x2="373.667" y2="377" fill="rgb(0, 0, 0)" stroke="rgb(66, 66, 66)" stroke-width="1px" opacity="0.25"></line></g><g><line x1="0" y1="377" x2="373.667" y2="377" fill="rgb(0, 0, 0)" stroke="rgb(66, 66, 66)" stroke-width="1px" opacity="0.25"></line><line x1="0" y1="329.875" x2="373.667" y2="329.875" fill="rgb(0, 0, 0)" stroke="rgb(66, 66, 66)" stroke-width="1px" opacity="0.25"></line><line x1="0" y1="282.75" x2="373.667" y2="282.75" fill="rgb(0, 0, 0)" stroke="rgb(66, 66, 66)" stroke-width="1px" opacity="0.25"></line><line x1="0" y1="235.625" x2="373.667" y2="235.625" fill="rgb(0, 0, 0)" stroke="rgb(66, 66, 66)" stroke-width="1px" opacity="0.25"></line><line x1="0" y1="188.5" x2="373.667" y2="188.5" fill="rgb(0, 0, 0)" stroke="rgb(66, 66, 66)" stroke-width="1px" opacity="0.25"></line><line x1="0" y1="141.375" x2="373.667" y2="141.375" fill="rgb(0, 0, 0)" stroke="rgb(66, 66, 66)" stroke-width="1px" opacity="0.25"></line><line x1="0" y1="94.25" x2="373.667" y2="94.25" fill="rgb(0, 0, 0)" stroke="rgb(66, 66, 66)" stroke-width="1px" opacity="0.25"></line><line x1="0" y1="47.125" x2="373.667" y2="47.125" fill="rgb(0, 0, 0)" stroke="rgb(66, 66, 66)" stroke-width="1px" opacity="0.25"></line><line x1="0" y1="0" x2="373.667" y2="0" fill="rgb(0, 0, 0)" stroke="rgb(66, 66, 66)" stroke-width="1px" opacity="0.25"></line></g></g></g><g><g><line x1="0" y1="329.875" x2="373.667" y2="329.875" fill="rgb(0, 0, 0)" stroke="rgb(153, 153, 153)" stroke-width="1.5px"></line></g></g><g><g><line x1="31.138916666666663" y1="0" x2="31.138916666666663" y2="377" fill="rgb(0, 0, 0)" stroke="rgb(153, 153, 153)" stroke-width="1.5px"></line></g></g><g><g><g><g><g><path stroke="rgb(255, 112, 67)" stroke-width="2px" d="M34.327541733333334,43.28127991594374L37.5161668,176.33207352612393L40.70479186666666,237.7735595481102L43.89341693333333,267.4596409807644L47.082041999999994,271.29464935011526L50.27066706666667,284.0896911008584L53.459292133333335,295.5191372887555L56.6479172,298.98208767204704L59.836542266666655,301.346104880223L63.02516733333333,306.9353135247175L66.21379239999999,305.19051731163086L69.40241746666666,284.0718226970478L72.59104253333334,288.6208131912847L75.7796676,296.9382101175821L78.96829266666667,298.1432158971443L82.15691773333333,287.4944014556757L85.34554279999999,290.63276683070063L88.53416786666666,288.7205333108737L91.72279293333332,297.0514258429735L94.911418,301.5066175764253L98.10004306666666,304.7952840899519L101.28866813333333,302.6028363357343L104.47729319999999,305.5140993244096L107.66591826666667,293.77227805881637L110.85454333333334,298.57659220450694L114.0431684,303.9970135118032L117.23179346666664,308.81036781176715L120.42041853333332,311.38130592407714L123.60904359999998,313.49434665975144L126.79766866666665,308.43172749231724L129.98629373333333,311.79623996239684L133.1749188,315.0853969441353L136.36354386666665,317.06383742848107L139.55216893333332,314.540068969511L142.740794,316.42347542806465L145.92941906666667,318.87313238297L149.11804413333334,320.81508492440656L152.3066692,322.5054421112613L155.49529426666666,323.8436920690306L158.68391933333334,319.3180987685828L161.87254439999998,321.281623998643L165.06116946666666,322.7814230233952L168.2497945333333,324.08799209831625L171.43841959999997,325.03389211951225L174.62704466666665,325.9043710087888L177.81566973333332,326.6681718510983L181.0042948,327.30557868996334L184.19291986666664,327.73004699363895L187.3815449333333,328.02832391506143L190.57017,328.36359381826014L193.75879506666664,328.63942390393254L196.94742013333334,328.7650704338695L200.13604519999998,328.87834025434137L203.32467026666666,329.0594365385313L206.5132953333333,328.6199196861265L209.7019204,328.4433013601902L212.89054546666665,328.4923449381257L216.07917053333333,328.54832440157577L219.26779559999997,328.6341150619591L222.45642066666667,328.8249313666383L225.64504573333332,328.99751955252765L228.8336708,329.0623433263089L232.02229586666664,329.1217568744689L235.2109209333333,329.14850920766384L238.399546,329.2556344547307L241.58817106666663,329.3508624840258L244.77679613333333,329.4485811305219L247.96542119999998,329.47342855660446L251.15404626666665,329.49508567459014L254.3426713333333,329.54417640484843L257.5312964,329.59263551209557L260.7199214666666,329.6031762355607L263.9085465333333,329.6083697624741L267.09717159999997,329.60675835588023L270.28579666666667,329.62465587523L273.4744217333333,329.6497626707815L276.66304679999996,329.67521916581205L279.85167186666666,329.66933898158993L283.0402969333333,329.68183651413153L286.228922,329.70267732009637L289.41754706666666,329.6891876032608L292.6061721333333,329.71631879135793L295.79479719999995,329.73931925209354L298.98342226666665,329.75288131552094L302.1720473333333,329.7436874873535L305.3606724,329.7474842843603L308.54929746666664,329.77205060042814L311.73792253333335,329.7919188201622L314.9265476,329.8076147137447L318.11517266666664,329.82167345785666L321.3037977333333,329.8298305533711L324.4924228,329.8341548405886L327.68104786666663,329.84217932800567L330.8696729333333,329.84888733710545L334.058298,329.85437099631434L337.2469230666666,329.85870308708894L340.4355481333333,329.8621254388007" style="fill: none;" fill="none"></path></g></g></g></g><g opacity="0.2"><g><g><g><path stroke="rgb(255, 112, 67)" stroke-width="2px" d="M34.327541733333334,43.28127991594374L37.5161668,281.44220047816634L40.70479186666666,324.65796493180096L43.89341693333333,324.0751246381551L47.082041999999994,280.10228224284947L50.27066706666667,317.4123998656869L53.459292133333335,328.0637184549123L56.6479172,309.50762838311493L59.836542266666655,308.89011611416936L63.02516733333333,325.4413760192692L66.21379239999999,299.2482347805053L69.40241746666666,210.56785522215068L72.59104253333334,304.72245690599084L75.7796676,326.7668110243976L78.96829266666667,302.50915600173175L82.15691773333333,248.60169546864927L85.34554279999999,302.16726399213076L88.53416786666666,281.6576933879405L91.72279293333332,327.9412693269551L94.911418,318.07643402554095L98.10004306666666,317.0560246258974L101.28866813333333,294.4134692121297L104.47729319999999,316.4047181531787L107.66591826666667,249.79590363055468L110.85454333333334,316.586855744943L114.0431684,324.3318728096783L117.23179346666664,326.87828800827265L120.42041853333332,321.03627961315215L123.60904359999998,321.4325934574008L126.79766866666665,289.4070993103087L129.98629373333333,324.4424720220268L133.1749188,327.4505950435996L136.36354386666665,324.50259937159717L139.55216893333332,305.04986568540335L142.740794,323.50632868893445L145.92941906666667,328.08610162883997L149.11804413333334,328.11901806108654L152.3066692,328.8633683156222L155.49529426666666,328.8774126600474L158.68391933333334,302.29497974924743L161.87254439999998,328.66762526519597L165.06116946666666,328.4231658950448L168.2497945333333,329.00293398834765L171.43841959999997,328.5921369139105L174.62704466666665,329.17892717942595L177.81566973333332,329.54144681990147L181.0042948,329.70339566655457L184.19291986666664,329.32683168165386L187.3815449333333,329.15039960481226L190.57017,329.6248351149261L193.75879506666664,329.6770625207573L196.94742013333334,329.2377378717065L200.13604519999998,329.3044485077262L203.32467026666666,329.740700956434L206.5132953333333,326.96650404669344L209.7019204,327.7788815945387L212.89054546666665,328.676841866225L216.07917053333333,328.7589135039598L219.26779559999997,328.95685098320246L222.45642066666667,329.54276347719133L225.64504573333332,329.6467794030905L228.8336708,329.30620405077934L232.02229586666664,329.34526488371193L235.2109209333333,329.24914890155196L238.399546,329.65862931869924L241.58817106666663,329.7091011814773L244.77679613333333,329.81618930771947L247.96542119999998,329.56690219417214L251.15404626666665,329.57655768096447L254.3426713333333,329.72885104082525L257.5312964,329.77493404597044L260.7199214666666,329.6428294312209L263.9085465333333,329.6279073152691L267.09717159999997,329.6006963979453L270.28579666666667,329.6919846367091L273.4744217333333,329.7442120425403L276.66304679999996,329.77098407410085L279.85167186666666,329.64721828885376L283.0402969333333,329.72885104082525L286.228922,329.78107844665647L289.41754706666666,329.638440573588L292.6061721333333,329.8183837365359L295.79479719999995,329.8258447945118L298.98342226666665,329.8039005063474L302.1720473333333,329.7091011814773L305.3606724,329.7617674730718L308.54929746666664,329.8644667416811L311.73792253333335,329.86666117049754L314.9265476,329.86666117049754L318.11517266666664,329.8745611142367L321.3037977333333,329.8605167698115L324.4924228,329.8504223972559L327.68104786666663,329.8723666854203L330.8696729333333,329.8741222284734L334.058298,329.875L337.2469230666666,329.875L340.4355481333333,329.875" style="fill: none;" fill="none"></path></g></g></g></g></g><g><g><span fill="rgb(0, 0, 0)" stroke="none" stroke-width="1px">Alt + Scroll to Zoom</span></g></g></g><g transform="translate(70, 377)" clip-path="url(#clip_1)"><clipPath id="clip_1"><rect width="373" height="23"></rect></clipPath><g><g><line x1="0" y1="0" x2="0" y2="5" style="visibility: inherit;" fill="rgb(0, 0, 0)" stroke="rgb(204, 204, 204)" stroke-width="1px"></line><line x1="31.138916666666663" y1="0" x2="31.138916666666663" y2="5" style="visibility: inherit;" fill="rgb(0, 0, 0)" stroke="rgb(204, 204, 204)" stroke-width="1px"></line><line x1="62.27783333333333" y1="0" x2="62.27783333333333" y2="5" style="visibility: inherit;" fill="rgb(0, 0, 0)" stroke="rgb(204, 204, 204)" stroke-width="1px"></line><line x1="93.41675" y1="0" x2="93.41675" y2="5" style="visibility: inherit;" fill="rgb(0, 0, 0)" stroke="rgb(204, 204, 204)" stroke-width="1px"></line><line x1="124.55566666666665" y1="0" x2="124.55566666666665" y2="5" style="visibility: inherit;" fill="rgb(0, 0, 0)" stroke="rgb(204, 204, 204)" stroke-width="1px"></line><line x1="155.69458333333333" y1="0" x2="155.69458333333333" y2="5" style="visibility: inherit;" fill="rgb(0, 0, 0)" stroke="rgb(204, 204, 204)" stroke-width="1px"></line><line x1="186.8335" y1="0" x2="186.8335" y2="5" style="visibility: inherit;" fill="rgb(0, 0, 0)" stroke="rgb(204, 204, 204)" stroke-width="1px"></line><line x1="217.97241666666667" y1="0" x2="217.97241666666667" y2="5" style="visibility: inherit;" fill="rgb(0, 0, 0)" stroke="rgb(204, 204, 204)" stroke-width="1px"></line><line x1="249.1113333333333" y1="0" x2="249.1113333333333" y2="5" style="visibility: inherit;" fill="rgb(0, 0, 0)" stroke="rgb(204, 204, 204)" stroke-width="1px"></line><line x1="280.25025" y1="0" x2="280.25025" y2="5" style="visibility: inherit;" fill="rgb(0, 0, 0)" stroke="rgb(204, 204, 204)" stroke-width="1px"></line><line x1="311.38916666666665" y1="0" x2="311.38916666666665" y2="5" style="visibility: inherit;" fill="rgb(0, 0, 0)" stroke="rgb(204, 204, 204)" stroke-width="1px"></line><line x1="342.5280833333333" y1="0" x2="342.5280833333333" y2="5" style="visibility: inherit;" fill="rgb(0, 0, 0)" stroke="rgb(204, 204, 204)" stroke-width="1px"></line><line x1="373.667" y1="0" x2="373.667" y2="5" style="visibility: inherit;" fill="rgb(0, 0, 0)" stroke="rgb(204, 204, 204)" stroke-width="1px"></line></g><g transform="translate(0, 8)"><text x="0" y="0" dx="0em" dy="0.95em" style="text-anchor: middle; visibility: hidden; font-family: Roboto, sans-serif; font-size: 12px; font-weight: 200;" fill="rgb(33, 33, 33)" stroke="none" stroke-width="1px">-5k</text><text x="31.138916666666663" y="0" dx="0em" dy="0.95em" style="text-anchor: middle; visibility: inherit; font-family: Roboto, sans-serif; font-size: 12px; font-weight: 200;" fill="rgb(33, 33, 33)" stroke="none" stroke-width="1px">0</text><text x="62.27783333333333" y="0" dx="0em" dy="0.95em" style="text-anchor: middle; visibility: inherit; font-family: Roboto, sans-serif; font-size: 12px; font-weight: 200;" fill="rgb(33, 33, 33)" stroke="none" stroke-width="1px">5k</text><text x="93.41675" y="0" dx="0em" dy="0.95em" style="text-anchor: middle; visibility: inherit; font-family: Roboto, sans-serif; font-size: 12px; font-weight: 200;" fill="rgb(33, 33, 33)" stroke="none" stroke-width="1px">10k</text><text x="124.55566666666665" y="0" dx="0em" dy="0.95em" style="text-anchor: middle; visibility: inherit; font-family: Roboto, sans-serif; font-size: 12px; font-weight: 200;" fill="rgb(33, 33, 33)" stroke="none" stroke-width="1px">15k</text><text x="155.69458333333333" y="0" dx="0em" dy="0.95em" style="text-anchor: middle; visibility: inherit; font-family: Roboto, sans-serif; font-size: 12px; font-weight: 200;" fill="rgb(33, 33, 33)" stroke="none" stroke-width="1px">20k</text><text x="186.8335" y="0" dx="0em" dy="0.95em" style="text-anchor: middle; visibility: inherit; font-family: Roboto, sans-serif; font-size: 12px; font-weight: 200;" fill="rgb(33, 33, 33)" stroke="none" stroke-width="1px">25k</text><text x="217.97241666666667" y="0" dx="0em" dy="0.95em" style="text-anchor: middle; visibility: inherit; font-family: Roboto, sans-serif; font-size: 12px; font-weight: 200;" fill="rgb(33, 33, 33)" stroke="none" stroke-width="1px">30k</text><text x="249.1113333333333" y="0" dx="0em" dy="0.95em" style="text-anchor: middle; visibility: inherit; font-family: Roboto, sans-serif; font-size: 12px; font-weight: 200;" fill="rgb(33, 33, 33)" stroke="none" stroke-width="1px">35k</text><text x="280.25025" y="0" dx="0em" dy="0.95em" style="text-anchor: middle; visibility: inherit; font-family: Roboto, sans-serif; font-size: 12px; font-weight: 200;" fill="rgb(33, 33, 33)" stroke="none" stroke-width="1px">40k</text><text x="311.38916666666665" y="0" dx="0em" dy="0.95em" style="text-anchor: middle; visibility: inherit; font-family: Roboto, sans-serif; font-size: 12px; font-weight: 200;" fill="rgb(33, 33, 33)" stroke="none" stroke-width="1px">45k</text><text x="342.5280833333333" y="0" dx="0em" dy="0.95em" style="text-anchor: middle; visibility: inherit; font-family: Roboto, sans-serif; font-size: 12px; font-weight: 200;" fill="rgb(33, 33, 33)" stroke="none" stroke-width="1px">50k</text><text x="373.667" y="0" dx="0em" dy="0.95em" style="text-anchor: middle; visibility: hidden; font-family: Roboto, sans-serif; font-size: 12px; font-weight: 200;" fill="rgb(33, 33, 33)" stroke="none" stroke-width="1px">55k</text></g><line x1="0" y1="0" x2="373.667" y2="0" fill="rgb(0, 0, 0)" stroke="rgb(204, 204, 204)" stroke-width="1px"></line></g></g></g></g></svg>