<svg viewBox="0 0 603.6666870117188 400" xmlns="http://www.w3.org/2000/svg"><g><g><g><g><g><line x1="30" y1="377" x2="25" y2="377" style="visibility: inherit;" fill="rgb(0, 0, 0)" stroke="rgb(204, 204, 204)" stroke-width="1px"></line><line x1="30" y1="345.5833333333333" x2="25" y2="345.5833333333333" style="visibility: inherit;" fill="rgb(0, 0, 0)" stroke="rgb(204, 204, 204)" stroke-width="1px"></line><line x1="30" y1="314.1666666666667" x2="25" y2="314.1666666666667" style="visibility: inherit;" fill="rgb(0, 0, 0)" stroke="rgb(204, 204, 204)" stroke-width="1px"></line><line x1="30" y1="282.75" x2="25" y2="282.75" style="visibility: inherit;" fill="rgb(0, 0, 0)" stroke="rgb(204, 204, 204)" stroke-width="1px"></line><line x1="30" y1="251.33333333333337" x2="25" y2="251.33333333333337" style="visibility: inherit;" fill="rgb(0, 0, 0)" stroke="rgb(204, 204, 204)" stroke-width="1px"></line><line x1="30" y1="219.91666666666663" x2="25" y2="219.91666666666663" style="visibility: inherit;" fill="rgb(0, 0, 0)" stroke="rgb(204, 204, 204)" stroke-width="1px"></line><line x1="30" y1="188.5" x2="25" y2="188.5" style="visibility: inherit;" fill="rgb(0, 0, 0)" stroke="rgb(204, 204, 204)" stroke-width="1px"></line><line x1="30" y1="157.08333333333331" x2="25" y2="157.08333333333331" style="visibility: inherit;" fill="rgb(0, 0, 0)" stroke="rgb(204, 204, 204)" stroke-width="1px"></line><line x1="30" y1="125.66666666666669" x2="25" y2="125.66666666666669" style="visibility: inherit;" fill="rgb(0, 0, 0)" stroke="rgb(204, 204, 204)" stroke-width="1px"></line><line x1="30" y1="94.25" x2="25" y2="94.25" style="visibility: inherit;" fill="rgb(0, 0, 0)" stroke="rgb(204, 204, 204)" stroke-width="1px"></line><line x1="30" y1="62.83333333333332" x2="25" y2="62.83333333333332" style="visibility: inherit;" fill="rgb(0, 0, 0)" stroke="rgb(204, 204, 204)" stroke-width="1px"></line><line x1="30" y1="31.416666666666682" x2="25" y2="31.416666666666682" style="visibility: inherit;" fill="rgb(0, 0, 0)" stroke="rgb(204, 204, 204)" stroke-width="1px"></line><line x1="30" y1="0" x2="25" y2="0" style="visibility: inherit;" fill="rgb(0, 0, 0)" stroke="rgb(204, 204, 204)" stroke-width="1px"></line></g><g transform="translate(20, 0)"><text x="0" y="377" dx="0em" dy="0.3em" style="text-anchor: end; visibility: hidden; font-family: Roboto, sans-serif; font-size: 12px; font-weight: 200;" fill="rgb(33, 33, 33)" stroke="none" stroke-width="1px">10</text><text x="0" y="345.5833333333333" dx="0em" dy="0.3em" style="text-anchor: end; visibility: inherit; font-family: Roboto, sans-serif; font-size: 12px; font-weight: 200;" fill="rgb(33, 33, 33)" stroke="none" stroke-width="1px">15</text><text x="0" y="314.1666666666667" dx="0em" dy="0.3em" style="text-anchor: end; visibility: inherit; font-family: Roboto, sans-serif; font-size: 12px; font-weight: 200;" fill="rgb(33, 33, 33)" stroke="none" stroke-width="1px">20</text><text x="0" y="282.75" dx="0em" dy="0.3em" style="text-anchor: end; visibility: inherit; font-family: Roboto, sans-serif; font-size: 12px; font-weight: 200;" fill="rgb(33, 33, 33)" stroke="none" stroke-width="1px">25</text><text x="0" y="251.33333333333337" dx="0em" dy="0.3em" style="text-anchor: end; visibility: inherit; font-family: Roboto, sans-serif; font-size: 12px; font-weight: 200;" fill="rgb(33, 33, 33)" stroke="none" stroke-width="1px">30</text><text x="0" y="219.91666666666663" dx="0em" dy="0.3em" style="text-anchor: end; visibility: inherit; font-family: Roboto, sans-serif; font-size: 12px; font-weight: 200;" fill="rgb(33, 33, 33)" stroke="none" stroke-width="1px">35</text><text x="0" y="188.5" dx="0em" dy="0.3em" style="text-anchor: end; visibility: inherit; font-family: Roboto, sans-serif; font-size: 12px; font-weight: 200;" fill="rgb(33, 33, 33)" stroke="none" stroke-width="1px">40</text><text x="0" y="157.08333333333331" dx="0em" dy="0.3em" style="text-anchor: end; visibility: inherit; font-family: Roboto, sans-serif; font-size: 12px; font-weight: 200;" fill="rgb(33, 33, 33)" stroke="none" stroke-width="1px">45</text><text x="0" y="125.66666666666669" dx="0em" dy="0.3em" style="text-anchor: end; visibility: inherit; font-family: Roboto, sans-serif; font-size: 12px; font-weight: 200;" fill="rgb(33, 33, 33)" stroke="none" stroke-width="1px">50</text><text x="0" y="94.25" dx="0em" dy="0.3em" style="text-anchor: end; visibility: inherit; font-family: Roboto, sans-serif; font-size: 12px; font-weight: 200;" fill="rgb(33, 33, 33)" stroke="none" stroke-width="1px">55</text><text x="0" y="62.83333333333332" dx="0em" dy="0.3em" style="text-anchor: end; visibility: inherit; font-family: Roboto, sans-serif; font-size: 12px; font-weight: 200;" fill="rgb(33, 33, 33)" stroke="none" stroke-width="1px">60</text><text x="0" y="31.416666666666682" dx="0em" dy="0.3em" style="text-anchor: end; visibility: inherit; font-family: Roboto, sans-serif; font-size: 12px; font-weight: 200;" fill="rgb(33, 33, 33)" stroke="none" stroke-width="1px">65</text><text x="0" y="0" dx="0em" dy="0.3em" style="text-anchor: end; visibility: hidden; font-family: Roboto, sans-serif; font-size: 12px; font-weight: 200;" fill="rgb(33, 33, 33)" stroke="none" stroke-width="1px">70</text></g><line x1="30" y1="0" x2="30" y2="377" fill="rgb(0, 0, 0)" stroke="rgb(204, 204, 204)" stroke-width="1px"></line></g></g><g transform="translate(30, 0)" clip-path="url(#clip_0)"><clipPath id="clip_0"><rect width="573" height="377"></rect></clipPath><g><g><g><line x1="0" y1="0" x2="0" y2="377" fill="rgb(0, 0, 0)" stroke="rgb(66, 66, 66)" stroke-width="1px" opacity="0.25"></line><line x1="52.151545454545456" y1="0" x2="52.151545454545456" y2="377" fill="rgb(0, 0, 0)" stroke="rgb(66, 66, 66)" stroke-width="1px" opacity="0.25"></line><line x1="104.30309090909091" y1="0" x2="104.30309090909091" y2="377" fill="rgb(0, 0, 0)" stroke="rgb(66, 66, 66)" stroke-width="1px" opacity="0.25"></line><line x1="156.45463636363635" y1="0" x2="156.45463636363635" y2="377" fill="rgb(0, 0, 0)" stroke="rgb(66, 66, 66)" stroke-width="1px" opacity="0.25"></line><line x1="208.60618181818182" y1="0" x2="208.60618181818182" y2="377" fill="rgb(0, 0, 0)" stroke="rgb(66, 66, 66)" stroke-width="1px" opacity="0.25"></line><line x1="260.75772727272727" y1="0" x2="260.75772727272727" y2="377" fill="rgb(0, 0, 0)" stroke="rgb(66, 66, 66)" stroke-width="1px" opacity="0.25"></line><line x1="312.9092727272727" y1="0" x2="312.9092727272727" y2="377" fill="rgb(0, 0, 0)" stroke="rgb(66, 66, 66)" stroke-width="1px" opacity="0.25"></line><line x1="365.0608181818182" y1="0" x2="365.0608181818182" y2="377" fill="rgb(0, 0, 0)" stroke="rgb(66, 66, 66)" stroke-width="1px" opacity="0.25"></line><line x1="417.21236363636365" y1="0" x2="417.21236363636365" y2="377" fill="rgb(0, 0, 0)" stroke="rgb(66, 66, 66)" stroke-width="1px" opacity="0.25"></line><line x1="469.36390909090915" y1="0" x2="469.36390909090915" y2="377" fill="rgb(0, 0, 0)" stroke="rgb(66, 66, 66)" stroke-width="1px" opacity="0.25"></line><line x1="521.5154545454545" y1="0" x2="521.5154545454545" y2="377" fill="rgb(0, 0, 0)" stroke="rgb(66, 66, 66)" stroke-width="1px" opacity="0.25"></line><line x1="573.667" y1="0" x2="573.667" y2="377" fill="rgb(0, 0, 0)" stroke="rgb(66, 66, 66)" stroke-width="1px" opacity="0.25"></line></g><g><line x1="0" y1="377" x2="573.667" y2="377" fill="rgb(0, 0, 0)" stroke="rgb(66, 66, 66)" stroke-width="1px" opacity="0.25"></line><line x1="0" y1="345.5833333333333" x2="573.667" y2="345.5833333333333" fill="rgb(0, 0, 0)" stroke="rgb(66, 66, 66)" stroke-width="1px" opacity="0.25"></line><line x1="0" y1="314.1666666666667" x2="573.667" y2="314.1666666666667" fill="rgb(0, 0, 0)" stroke="rgb(66, 66, 66)" stroke-width="1px" opacity="0.25"></line><line x1="0" y1="282.75" x2="573.667" y2="282.75" fill="rgb(0, 0, 0)" stroke="rgb(66, 66, 66)" stroke-width="1px" opacity="0.25"></line><line x1="0" y1="251.33333333333337" x2="573.667" y2="251.33333333333337" fill="rgb(0, 0, 0)" stroke="rgb(66, 66, 66)" stroke-width="1px" opacity="0.25"></line><line x1="0" y1="219.91666666666663" x2="573.667" y2="219.91666666666663" fill="rgb(0, 0, 0)" stroke="rgb(66, 66, 66)" stroke-width="1px" opacity="0.25"></line><line x1="0" y1="188.5" x2="573.667" y2="188.5" fill="rgb(0, 0, 0)" stroke="rgb(66, 66, 66)" stroke-width="1px" opacity="0.25"></line><line x1="0" y1="157.08333333333331" x2="573.667" y2="157.08333333333331" fill="rgb(0, 0, 0)" stroke="rgb(66, 66, 66)" stroke-width="1px" opacity="0.25"></line><line x1="0" y1="125.66666666666669" x2="573.667" y2="125.66666666666669" fill="rgb(0, 0, 0)" stroke="rgb(66, 66, 66)" stroke-width="1px" opacity="0.25"></line><line x1="0" y1="94.25" x2="573.667" y2="94.25" fill="rgb(0, 0, 0)" stroke="rgb(66, 66, 66)" stroke-width="1px" opacity="0.25"></line><line x1="0" y1="62.83333333333332" x2="573.667" y2="62.83333333333332" fill="rgb(0, 0, 0)" stroke="rgb(66, 66, 66)" stroke-width="1px" opacity="0.25"></line><line x1="0" y1="31.416666666666682" x2="573.667" y2="31.416666666666682" fill="rgb(0, 0, 0)" stroke="rgb(66, 66, 66)" stroke-width="1px" opacity="0.25"></line><line x1="0" y1="0" x2="573.667" y2="0" fill="rgb(0, 0, 0)" stroke="rgb(66, 66, 66)" stroke-width="1px" opacity="0.25"></line></g></g></g><g><g><line x1="0" y1="439.83333333333337" x2="573.667" y2="439.83333333333337" fill="rgb(0, 0, 0)" stroke="rgb(153, 153, 153)" stroke-width="1.5px"></line></g></g><g><g><line x1="52.151545454545456" y1="0" x2="52.151545454545456" y2="377" fill="rgb(0, 0, 0)" stroke="rgb(153, 153, 153)" stroke-width="1.5px"></line></g></g><g><g><g><g><g><path stroke="rgb(255, 112, 67)" stroke-width="2px" d="M54.86342581818182,358.15L55.69785054545455,343.869696969697L56.11506290909091,333.85100387862195L58.82694327272728,338.0764705882353L59.661368,336.4496274380529L62.58185454545455,273.78654542457L63.83349163636364,278.07362578254737L65.08512872727273,277.63965290363143L66.96258436363637,285.5688741360087L67.58840290909092,305.796773528666L68.42282763636364,295.2250165298937L69.04864618181819,292.1155478459253L71.76052654545455,292.9061275332089L72.17773890909092,301.20260112110145L74.4724069090909,318.16243246587914L74.88961927272727,294.28767711783746L75.51543781818182,302.1486474765351L76.97568109090909,317.2047068749054L77.60149963636364,284.6304305399492L79.47895527272728,293.2628053445107L80.73059236363636,305.8592992436387L81.14780472727273,307.8578384502801L81.77362327272728,289.73507682916295L83.65107890909091,304.6672480502011L84.06829127272727,303.93033627279823L84.902716,313.9350237067441L87.197384,321.5352183759527L87.40599018181818,304.6790117044291L88.24041490909092,312.9909549029467L90.74368909090909,292.1555895629846L91.16090145454547,300.45592423362604L92.20393236363637,297.71408161586555L94.70720654545455,303.1713385640242L94.91581272727274,308.8267186389366L95.95884363636364,313.1245957196928L96.58466218181817,311.8666283361651L98.04490545454546,319.9589524380392L98.25351163636364,323.09289653754655L98.46211781818182,333.01482437947277L100.54817963636364,329.99921501517025L102.84284763636364,339.7715302803062L103.4686661818182,326.0862279845863L103.67727236363638,330.7655683571332L106.8063650909091,334.32185221865507L107.64078981818182,293.29242997814725L109.1010330909091,287.7462285267505L110.14406400000001,300.1191646339618L112.02151963636364,320.07860307084695L112.85594436363637,311.11972538831986L115.15061236363637,253.03892751105897L115.56782472727272,251.1215833081347L117.23667418181819,264.7444119553831L117.86249272727272,287.1617638930799L119.53134218181819,295.15094348583136L120.15716072727272,271.0627103418579L122.24322254545454,296.4876652402962L122.66043490909092,296.2066255374247L122.8690410909091,306.54903667262636L125.37231527272728,318.9332690216547L128.501408,302.70928331101567L130.17025745454546,300.9350552211715L133.92516872727273,295.0626417286158L134.1337749090909,207.65960500491124L134.5509872727273,231.71330037030015L137.68008,254.5181086896628L137.8886861818182,271.84976283994007L138.09729236363637,286.5298199101428L140.80917272727274,302.21066325493206L142.4780221818182,277.9361039287747L144.77269018181818,268.5354389432L145.8157210909091,285.51893365541775L146.23293345454547,260.72638951311956L147.06735818181818,258.47205602547916L147.27596436363638,283.90276261787335L150.19645090909094,298.7060996066202L151.65669418181818,293.36863569636296L152.90833127272728,287.80416312553695L153.742756,298.65516398088994L154.78578690909094,267.6939246135888L156.24603018181818,275.831382708702L157.28906109090912,297.0958508633293L157.91487963636365,295.16084665580416L158.95791054545455,292.1822434580296L160.00094145454545,308.01450502964383L161.25257854545455,315.5230238230848L162.71282181818182,298.6094981045934L166.05052072727275,281.2312185587483L166.88494545454546,289.1357261049055L171.89149381818183,248.3951518387225L172.3087061818182,205.368315396622L174.394768,246.55991970202L174.60337418181817,273.3415389738254L177.31525454545454,237.89956961981542L177.9410730909091,200.40767291082508L179.40131636363637,221.67783141232826L180.4443472727273,231.8111518734061L181.278772,257.6084754238595L181.69598436363637,284.7544413221899L184.40786472727274,302.3693754048923L185.6595018181818,290.12072530770337L186.07671418181818,291.36775123385564L187.9541698181818,272.7114909377173L188.99720072727274,288.6927331126736L189.62301927272728,287.2664771656314L191.7090810909091,296.7385226458827L193.58653672727274,276.7932772108662L194.62956763636365,279.7308906802589L196.08981090909091,266.88347691699505L200.88775309090911,242.0394424569137L201.09635927272728,242.76197626725445L201.51357163636365,250.8511019631139L204.43405818181822,270.57083749196744L205.6856952727273,281.0338364938956L207.7717570909091,295.017715735361L208.18896945454546,224.21346395887298L209.44060654545456,248.8182326087438L211.3180621818182,281.08985678264565L215.9073981818182,212.1202911548101L216.74182290909093,227.56342127765578L222.3741898181818,175.96420017101812L222.7914021818182,130.71679212997356L223.41722072727273,150.61676201877995L226.33770727272727,194.3927391342729L228.00655672727274,212.58248174204743L229.46680000000003,244.5026861239561L230.30122472727274,193.36204145420655L234.68195454545457,204.259151505197L235.3077730909091,224.60495514394975L239.68850290909091,158.63576590940178L240.10571527272728,149.21518209114535L243.4434141818182,191.8195383892705L248.44996254545455,151.81484917584558L249.91020581818185,150.0632853736426L250.3274181818182,169.84409688396838L254.0823294545455,98.921513631816L254.49954181818185,150.58035036018015L259.5060901818182,140.07706627373702L259.71469636363634,141.1425703680401L260.5491210909091,169.09635347971044L262.42657672727273,214.46922864457997L264.0954261818182,242.9206137698808L268.476156,246.44766646510936L271.1880363636364,241.5882265134831L274.5257352727273,180.59105215024718L276.6117970909091,183.99719963418787L277.0290094545455,227.30187172198276L277.23761563636367,234.57742250870695L278.48925272727274,107.40284110661726L281.6183454545455,150.99415924102914L284.9560443636364,173.56756102318212L286.8335,223.89934637761843L288.0851370909091,197.30750324699002L292.25726072727275,225.3537024677124L294.13471636363636,210.4768138754614L295.8035658181819,187.10637854535065L296.63799054545456,176.88484769446652L296.84659672727275,206.81648424779456L299.34987090909095,225.04052802832388L301.64453890909095,240.39880130152613L304.56502545454543,250.56308898915984L304.9822378181819,229.63594763176155L306.85969345454544,263.49532020013874L312.07484800000003,230.41644335210546L315.2039407272727,220.3564969476001L316.45557781818184,241.36293768017612L319.16745818181823,260.3438326369339L320.62770145454544,273.26131280406975L322.5051570909091,186.56659773109297L323.33958181818184,188.5386142756306L325.0084312727273,217.18134684947927L328.137524,229.90182360560425L329.8063734545455,203.3773859402592L334.3957094545455,214.88681331459696L336.6903774545455,219.10997811909368L341.0711072727273,155.9675833705112L341.2797134545455,174.3313633615885L341.905532,103.83983615480724L343.99159381818185,163.36627547765355L345.66044327272726,202.57436936301667L346.28626181818186,223.32452071589267L348.1637174545455,245.12663574407844L348.9981421818182,267.72824316549963L349.83256690909093,278.8734648057797L352.12723490909093,275.27983325239256L356.2993585454546,261.9926732718184L356.50796472727274,256.4184316865819L359.01123890909093,222.02200808180226L360.8886945454546,241.12072614216967L362.34893781818187,214.91975186804896L367.77269854545455,187.46701141971724L368.39851709090914,180.17492867898508L369.441548,191.22094579602864L371.5276098181819,223.74391880498177L375.28252109090914,171.55337829178617L375.9083396363636,181.6525675017575L377.57718909090914,184.80395130133573L379.24603854545455,190.21500298901512L380.2890694545455,218.45540227165148L383.0009498181818,244.44210572645514L383.4181621818182,268.71600035210594L383.83537454545456,264.5441602676005L388.6333167272727,210.10156180337634L389.8849538181818,215.47318697056608L391.5538032727273,248.20762209763018L391.97101563636363,232.3697927941989L395.10010836363637,200.7290425235912L396.977564,218.90607231792933L398.0205949090909,228.19661496162632L401.5669,232.241427370836L403.2357494545455,244.36348480183537L403.861568,241.51224844939486L405.1132050909091,263.4733088215401L408.24229781818184,269.6077147043705L409.7025410909091,204.90186317532155L410.1197534545455,216.04541601324436L414.2918770909091,236.5785161700657L415.9607265454546,229.56367228924998L416.1693327272728,236.29639093983002L418.4640007272728,254.98525711427078L419.50703163636365,195.29679540684577L421.80169963636365,211.76156450920277L429.7287345454546,192.6067890269941L429.9373407272728,152.41315966051553L433.69225200000005,192.7420013419918L433.9008581818182,223.39192101991372L436.61273854545453,168.26985997513444L438.28158800000006,200.26909358110217L440.36764981818186,99.42451112163761L441.20207454545454,128.3426284524446L444.12256109090913,148.81239762385792L446.20862290909093,182.465422194132L448.50329090909094,212.56572086754028L449.3377156363636,202.26594785933065L453.9270516363636,220.07412037309126L454.1356578181818,158.2083314835494L457.26475054545455,145.87433192749754L459.1422061818182,178.72449226489817L462.06269272727275,184.08661412132255L464.77457309090914,191.17782673220518L464.9831792727273,208.631148316476L467.06924109090914,247.53167272052173L469.9897276363637,236.38007126759655L473.1188203636364,226.39685416337335L473.9532450909091,248.96960916416376L476.0393069090909,213.3449029647645L479.37700581818183,178.730126253221L482.50609854545456,173.53489595244795L485.63519127272735,152.9985209238605L492.9364076363637,123.81887590213398L493.7708323636364,140.85034568562182L497.5257436363637,104.03026272107259L497.94295600000004,26.282999668015194L501.4892610909091,63.70707974769156L501.6978672727273,126.83338060824558L502.53229200000004,165.76136926226664L506.91302181818185,136.53464063932267L508.164658909091,161.07032688588524L508.9990836363637,175.1934484332728L511.08514545454545,176.87902080928737L512.5453887272728,199.27205581505837L515.4658752727273,204.22676241944433L516.5089061818182,221.56433943877772L518.1777556363636,233.23289797347107L520.0552112727273,202.89300245983802L521.9326669090909,220.5506818694769L524.2273349090909,229.44651822080246L526.1047905454545,249.7793538478099L528.6080647272727,233.5643089243355L530.9027327272727,234.812874782495L532.362976,238.77778483469618L533.8232192727273,249.33111647436908L540.9158294545455,233.2236485205205L541.541648,94.30997287559555L543.836316,104.8515793854526L548.8428643636364,127.943200332944L549.2600767272728,163.58883225303742L550.0945014545455,168.0595125123085L551.763350909091,212.17322950935446L556.7698992727273,79.81965442710938L556.9785054545455,110.42693736460318" style="fill: none;" fill="none"></path></g></g></g></g><g opacity="0.2"><g><g><g><path stroke="rgb(255, 112, 67)" stroke-width="2px" d="M54.86342581818182,358.15L55.69785054545455,333.01666666666665L56.11506290909091,320.45L58.82694327272728,345.5833333333333L59.661368,333.01666666666665L62.58185454545455,125.66666666666669L63.83349163636364,289.0333333333333L65.08512872727273,276.4666666666667L66.96258436363637,307.8833333333333L67.58840290909092,364.43333333333334L68.42282763636364,263.9L69.04864618181819,282.75L71.76052654545455,295.31666666666666L72.17773890909092,326.73333333333335L74.4724069090909,370.71666666666664L74.88961927272727,219.91666666666663L75.51543781818182,326.73333333333335L76.97568109090909,364.43333333333334L77.60149963636364,182.21666666666664L79.47895527272728,320.45L80.73059236363636,345.5833333333333L81.14780472727273,314.1666666666667L81.77362327272728,232.48333333333335L83.65107890909091,351.8666666666667L84.06829127272727,301.6L84.902716,345.5833333333333L87.197384,345.5833333333333L87.40599018181818,251.33333333333337L88.24041490909092,339.3L90.74368909090909,226.2L91.16090145454547,326.73333333333335L92.20393236363637,289.0333333333333L94.70720654545455,320.45L94.91581272727274,326.73333333333335L95.95884363636364,326.73333333333335L96.58466218181817,307.8833333333333L98.04490545454546,345.5833333333333L98.25351163636364,333.01666666666665L98.46211781818182,364.43333333333334L100.54817963636364,320.45L102.84284763636364,370.71666666666664L103.4686661818182,282.75L103.67727236363638,345.5833333333333L106.8063650909091,345.5833333333333L107.64078981818182,163.36666666666667L109.1010330909091,270.18333333333334L110.14406400000001,339.3L112.02151963636364,383.2833333333333L112.85594436363637,282.75L115.15061236363637,69.11666666666667L115.56782472727272,245.05L117.23667418181819,307.8833333333333L117.86249272727272,358.15L119.53134218181819,320.45L120.15716072727272,194.7833333333333L122.24322254545454,377L122.66043490909092,295.31666666666666L122.8690410909091,339.3L125.37231527272728,358.15L128.501408,251.33333333333337L130.17025745454546,295.31666666666666L133.92516872727273,276.4666666666667L134.1337749090909,-69.11666666666667L134.5509872727273,307.8833333333333L137.68008,326.73333333333335L137.8886861818182,326.73333333333335L138.09729236363637,333.01666666666665L140.80917272727274,351.8666666666667L142.4780221818182,201.06666666666666L144.77269018181818,238.76666666666665L145.8157210909091,339.3L146.23293345454547,182.21666666666664L147.06735818181818,251.33333333333337L147.27596436363638,364.43333333333334L150.19645090909094,345.5833333333333L151.65669418181818,276.4666666666667L152.90833127272728,270.18333333333334L153.742756,333.01666666666665L154.78578690909094,169.64999999999998L156.24603018181818,301.6L157.28906109090912,364.43333333333334L157.91487963636365,289.0333333333333L158.95791054545455,282.75L160.00094145454545,358.15L161.25257854545455,339.3L162.71282181818182,245.05L166.05052072727275,226.2L166.88494545454546,314.1666666666667L171.89149381818183,119.38333333333333L172.3087061818182,69.11666666666667L174.394768,377L174.60337418181817,358.15L177.31525454545454,125.66666666666669L177.9410730909091,81.68333333333334L179.40131636363637,289.0333333333333L180.4443472727273,263.9L181.278772,339.3L181.69598436363637,370.71666666666664L184.40786472727274,358.15L185.6595018181818,251.33333333333337L186.07671418181818,295.31666666666666L187.9541698181818,213.63333333333333L188.99720072727274,339.3L189.62301927272728,282.75L191.7090810909091,326.73333333333335L193.58653672727274,213.63333333333333L194.62956763636365,289.0333333333333L196.08981090909091,226.2L200.88775309090911,163.36666666666667L201.09635927272728,245.05L201.51357163636365,276.4666666666667L204.43405818181822,333.01666666666665L205.6856952727273,314.1666666666667L207.7717570909091,339.3L208.18896945454546,0L209.44060654545456,326.73333333333335L211.3180621818182,383.2833333333333L215.9073981818182,-6.283333333333311L216.74182290909093,276.4666666666667L222.3741898181818,12.566666666666665L222.7914021818182,-12.566666666666706L223.41722072727273,213.63333333333333L226.33770727272727,333.01666666666665L228.00655672727274,270.18333333333334L229.46680000000003,345.5833333333333L230.30122472727274,31.416666666666682L234.68195454545457,238.76666666666665L235.3077730909091,289.0333333333333L239.68850290909091,-50.26666666666666L240.10571527272728,119.38333333333333L243.4434141818182,326.73333333333335L248.44996254545455,25.13333333333333L249.91020581818185,144.51666666666665L250.3274181818182,232.48333333333335L254.0823294545455,-125.66666666666664L254.49954181818185,314.1666666666667L259.5060901818182,106.81666666666666L259.71469636363634,144.51666666666665L260.5491210909091,257.6166666666667L262.42657672727273,358.15L264.0954261818182,333.01666666666665L268.476156,257.6166666666667L271.1880363636364,226.2L274.5257352727273,-12.566666666666706L276.6117970909091,194.7833333333333L277.0290094545455,364.43333333333334L277.23761563636367,257.6166666666667L278.48925272727274,-295.3166666666667L281.6183454545455,289.0333333333333L284.9560443636364,245.05L286.8335,383.2833333333333L288.0851370909091,113.10000000000002L292.25726072727275,314.1666666666667L294.13471636363636,163.36666666666667L295.8035658181819,113.10000000000002L296.63799054545456,144.51666666666665L296.84659672727275,301.6L299.34987090909095,282.75L301.64453890909095,289.0333333333333L304.56502545454543,282.75L304.9822378181819,163.36666666666667L306.85969345454544,370.71666666666664L312.07484800000003,125.66666666666669L315.2039407272727,188.5L316.45557781818184,307.8833333333333L319.16745818181823,320.45L320.62770145454544,314.1666666666667L322.5051570909091,-87.96666666666668L323.33958181818184,194.7833333333333L325.0084312727273,307.8833333333333L328.137524,270.18333333333334L329.8063734545455,119.38333333333333L334.3957094545455,251.33333333333337L336.6903774545455,232.48333333333335L341.0711072727273,-43.98333333333334L341.2797134545455,232.48333333333335L341.905532,-119.38333333333333L343.99159381818185,351.8666666666667L345.66044327272726,326.73333333333335L346.28626181818186,289.0333333333333L348.1637174545455,314.1666666666667L348.9981421818182,339.3L349.83256690909093,314.1666666666667L352.12723490909093,263.9L356.2993585454546,219.91666666666663L356.50796472727274,238.76666666666665L359.01123890909093,113.10000000000002L360.8886945454546,301.6L362.34893781818187,131.95L367.77269854545455,100.53333333333336L368.39851709090914,157.08333333333331L369.441548,226.2L371.5276098181819,326.73333333333335L375.28252109090914,6.283333333333353L375.9083396363636,213.63333333333333L377.57718909090914,194.7833333333333L379.24603854545455,207.35000000000002L380.2890694545455,307.8833333333333L383.0009498181818,326.73333333333335L383.4181621818182,345.5833333333333L383.83537454545456,251.33333333333337L388.6333167272727,37.69999999999999L389.8849538181818,232.48333333333335L391.5538032727273,351.8666666666667L391.97101563636363,182.21666666666664L395.10010836363637,100.53333333333336L396.977564,276.4666666666667L398.0205949090909,257.6166666666667L401.5669,245.05L403.2357494545455,282.75L403.861568,232.48333333333335L405.1132050909091,333.01666666666665L408.24229781818184,289.0333333333333L409.7025410909091,0L410.1197534545455,251.33333333333337L414.2918770909091,301.6L415.9607265454546,207.35000000000002L416.1693327272728,257.6166666666667L418.4640007272728,314.1666666666667L419.50703163636365,6.283333333333353L421.80169963636365,263.9L429.7287345454546,131.95L429.9373407272728,25.13333333333333L433.69225200000005,320.45L433.9008581818182,320.45L436.61273854545453,-6.283333333333311L438.28158800000006,301.6L440.36764981818186,-219.91666666666663L441.20207454545454,219.91666666666663L444.12256109090913,213.63333333333333L446.20862290909093,289.0333333333333L448.50329090909094,307.8833333333333L449.3377156363636,169.64999999999998L453.9270516363636,276.4666666666667L454.1356578181818,-37.70000000000003L457.26475054545455,106.81666666666666L459.1422061818182,282.75L462.06269272727275,201.06666666666666L464.77457309090914,213.63333333333333L464.9831792727273,263.9L467.06924109090914,370.71666666666664L469.9897276363637,201.06666666666666L473.1188203636364,194.7833333333333L473.9532450909091,320.45L476.0393069090909,100.53333333333336L479.37700581818183,69.11666666666667L482.50609854545456,157.08333333333331L485.63519127272735,87.96666666666664L492.9364076363637,31.416666666666682L493.7708323636364,194.7833333333333L497.5257436363637,-12.566666666666706L497.94295600000004,-219.91666666666663L501.4892610909091,182.21666666666664L501.6978672727273,326.73333333333335L502.53229200000004,289.0333333333333L506.91302181818185,43.98333333333334L508.164658909091,238.76666666666665L508.9990836363637,219.91666666666663L511.08514545454545,182.21666666666664L512.5453887272728,270.18333333333334L515.4658752727273,219.91666666666663L516.5089061818182,276.4666666666667L518.1777556363636,270.18333333333334L520.0552112727273,106.81666666666666L521.9326669090909,276.4666666666667L524.2273349090909,257.6166666666667L526.1047905454545,314.1666666666667L528.6080647272727,182.21666666666664L530.9027327272727,238.76666666666665L532.362976,251.33333333333337L533.8232192727273,282.75L540.9158294545455,182.21666666666664L541.541648,-345.58333333333337L543.836316,138.23333333333335L548.8428643636364,201.06666666666666L549.2600767272728,276.4666666666667L550.0945014545455,182.21666666666664L551.763350909091,351.8666666666667L556.7698992727273,-339.29999999999995L556.9785054545455,207.35000000000002" style="fill: none;" fill="none"></path></g></g></g></g></g></g><g transform="translate(30, 377)" clip-path="url(#clip_1)"><clipPath id="clip_1"><rect width="573" height="23"></rect></clipPath><g><g><line x1="0" y1="0" x2="0" y2="5" style="visibility: inherit;" fill="rgb(0, 0, 0)" stroke="rgb(204, 204, 204)" stroke-width="1px"></line><line x1="52.151545454545456" y1="0" x2="52.151545454545456" y2="5" style="visibility: inherit;" fill="rgb(0, 0, 0)" stroke="rgb(204, 204, 204)" stroke-width="1px"></line><line x1="104.30309090909091" y1="0" x2="104.30309090909091" y2="5" style="visibility: inherit;" fill="rgb(0, 0, 0)" stroke="rgb(204, 204, 204)" stroke-width="1px"></line><line x1="156.45463636363635" y1="0" x2="156.45463636363635" y2="5" style="visibility: inherit;" fill="rgb(0, 0, 0)" stroke="rgb(204, 204, 204)" stroke-width="1px"></line><line x1="208.60618181818182" y1="0" x2="208.60618181818182" y2="5" style="visibility: inherit;" fill="rgb(0, 0, 0)" stroke="rgb(204, 204, 204)" stroke-width="1px"></line><line x1="260.75772727272727" y1="0" x2="260.75772727272727" y2="5" style="visibility: inherit;" fill="rgb(0, 0, 0)" stroke="rgb(204, 204, 204)" stroke-width="1px"></line><line x1="312.9092727272727" y1="0" x2="312.9092727272727" y2="5" style="visibility: inherit;" fill="rgb(0, 0, 0)" stroke="rgb(204, 204, 204)" stroke-width="1px"></line><line x1="365.0608181818182" y1="0" x2="365.0608181818182" y2="5" style="visibility: inherit;" fill="rgb(0, 0, 0)" stroke="rgb(204, 204, 204)" stroke-width="1px"></line><line x1="417.21236363636365" y1="0" x2="417.21236363636365" y2="5" style="visibility: inherit;" fill="rgb(0, 0, 0)" stroke="rgb(204, 204, 204)" stroke-width="1px"></line><line x1="469.36390909090915" y1="0" x2="469.36390909090915" y2="5" style="visibility: inherit;" fill="rgb(0, 0, 0)" stroke="rgb(204, 204, 204)" stroke-width="1px"></line><line x1="521.5154545454545" y1="0" x2="521.5154545454545" y2="5" style="visibility: inherit;" fill="rgb(0, 0, 0)" stroke="rgb(204, 204, 204)" stroke-width="1px"></line><line x1="573.667" y1="0" x2="573.667" y2="5" style="visibility: inherit;" fill="rgb(0, 0, 0)" stroke="rgb(204, 204, 204)" stroke-width="1px"></line></g><g transform="translate(0, 8)"><text x="0" y="0" dx="0em" dy="0.95em" style="text-anchor: middle; visibility: hidden; font-family: Roboto, sans-serif; font-size: 12px; font-weight: 200;" fill="rgb(33, 33, 33)" stroke="none" stroke-width="1px">-1k</text><text x="52.151545454545456" y="0" dx="0em" dy="0.95em" style="text-anchor: middle; visibility: inherit; font-family: Roboto, sans-serif; font-size: 12px; font-weight: 200;" fill="rgb(33, 33, 33)" stroke="none" stroke-width="1px">0</text><text x="104.30309090909091" y="0" dx="0em" dy="0.95em" style="text-anchor: middle; visibility: inherit; font-family: Roboto, sans-serif; font-size: 12px; font-weight: 200;" fill="rgb(33, 33, 33)" stroke="none" stroke-width="1px">1k</text><text x="156.45463636363635" y="0" dx="0em" dy="0.95em" style="text-anchor: middle; visibility: inherit; font-family: Roboto, sans-serif; font-size: 12px; font-weight: 200;" fill="rgb(33, 33, 33)" stroke="none" stroke-width="1px">2k</text><text x="208.60618181818182" y="0" dx="0em" dy="0.95em" style="text-anchor: middle; visibility: inherit; font-family: Roboto, sans-serif; font-size: 12px; font-weight: 200;" fill="rgb(33, 33, 33)" stroke="none" stroke-width="1px">3k</text><text x="260.75772727272727" y="0" dx="0em" dy="0.95em" style="text-anchor: middle; visibility: inherit; font-family: Roboto, sans-serif; font-size: 12px; font-weight: 200;" fill="rgb(33, 33, 33)" stroke="none" stroke-width="1px">4k</text><text x="312.9092727272727" y="0" dx="0em" dy="0.95em" style="text-anchor: middle; visibility: inherit; font-family: Roboto, sans-serif; font-size: 12px; font-weight: 200;" fill="rgb(33, 33, 33)" stroke="none" stroke-width="1px">5k</text><text x="365.0608181818182" y="0" dx="0em" dy="0.95em" style="text-anchor: middle; visibility: inherit; font-family: Roboto, sans-serif; font-size: 12px; font-weight: 200;" fill="rgb(33, 33, 33)" stroke="none" stroke-width="1px">6k</text><text x="417.21236363636365" y="0" dx="0em" dy="0.95em" style="text-anchor: middle; visibility: inherit; font-family: Roboto, sans-serif; font-size: 12px; font-weight: 200;" fill="rgb(33, 33, 33)" stroke="none" stroke-width="1px">7k</text><text x="469.36390909090915" y="0" dx="0em" dy="0.95em" style="text-anchor: middle; visibility: inherit; font-family: Roboto, sans-serif; font-size: 12px; font-weight: 200;" fill="rgb(33, 33, 33)" stroke="none" stroke-width="1px">8k</text><text x="521.5154545454545" y="0" dx="0em" dy="0.95em" style="text-anchor: middle; visibility: inherit; font-family: Roboto, sans-serif; font-size: 12px; font-weight: 200;" fill="rgb(33, 33, 33)" stroke="none" stroke-width="1px">9k</text><text x="573.667" y="0" dx="0em" dy="0.95em" style="text-anchor: middle; visibility: hidden; font-family: Roboto, sans-serif; font-size: 12px; font-weight: 200;" fill="rgb(33, 33, 33)" stroke="none" stroke-width="1px">10k</text></g><line x1="0" y1="0" x2="573.667" y2="0" fill="rgb(0, 0, 0)" stroke="rgb(204, 204, 204)" stroke-width="1px"></line></g></g></g></g></svg>